<svg xmlns="http://www.w3.org/2000/svg" width="197" height="35" xmlns:xlink="http://www.w3.org/1999/xlink"><use fill="#6A6B58" xlink:href="#a" transform="translate(83.39 5.946)"/><use fill="#6A6B58" xlink:href="#b" transform="translate(92.94 9.734)"/><use fill="#6A6B58" xlink:href="#c" transform="translate(102.04 9.734)"/><use fill="#6A6B58" xlink:href="#d" transform="translate(108.61 9.734)"/><use fill="#6A6B58" xlink:href="#e" transform="translate(112.93 6.457)"/><use fill="#6A6B58" xlink:href="#f" transform="translate(115.6 9.734)"/><use fill="#6A6B58" xlink:href="#g" transform="translate(121.07 9.734)"/><use fill="#6A6B58" xlink:href="#h" transform="translate(128.41 9.734)"/><use fill="#6A6B58" xlink:href="#i" transform="translate(137.61 5.946)"/><use fill="#6A6B58" xlink:href="#j" transform="translate(146.87 9.734)"/><use fill="#6A6B58" xlink:href="#k" transform="translate(151.63 9.734)"/><use fill="#6A6B58" xlink:href="#l" transform="translate(156.21 9.734)"/><use fill="#6A6B58" xlink:href="#m" transform="translate(162.98 9.734)"/><use fill="#6A6B58" xlink:href="#n" transform="translate(168.93 6.457)"/><use fill="#6A6B58" xlink:href="#o" transform="translate(171.6 9.734)"/><use fill="#6A6B58" xlink:href="#p" transform="translate(178.49 7.679)"/><use fill="#6A6B58" xlink:href="#q" transform="translate(181.95 6.457)"/><use fill="#6A6B58" xlink:href="#r" transform="translate(184.55 9.734)"/><use fill="#6A6B58" xlink:href="#s" transform="translate(191.77 9.734)"/><use fill="#6A6B58" xlink:href="#t" transform="translate(83.73 23.01)"/><use fill="#6A6B58" xlink:href="#u" transform="translate(90.67 18.05)"/><use fill="#6A6B58" xlink:href="#v" transform="translate(97.97 19.621)"/><use fill="#6A6B58" xlink:href="#w" transform="translate(106.23 19.733)"/><use fill="#6A6B58" xlink:href="#x" transform="translate(108.9 23.01)"/><use fill="#6A6B58" xlink:href="#y" transform="translate(116.16 18.2)"/><use fill="#6A6B58" xlink:href="#z" transform="translate(122.69 23.01)"/><use fill="#6A6B58" xlink:href="#A" transform="translate(128.74 20.955)"/><use fill="#6A6B58" xlink:href="#B" transform="translate(131.72 23.01)"/><use fill="#6A6B58" xlink:href="#C" transform="translate(137.89 23.01)"/><use fill="#6A6B58" xlink:href="#D" transform="translate(146.69 19.621)"/><use fill="#6A6B58" xlink:href="#E" transform="translate(152.58 18.2)"/><use fill="#6A6B58" xlink:href="#F" transform="translate(159.88 23.184)"/><use fill="#6A6B58" xlink:href="#G" transform="translate(165.83 23.01)"/><use fill="#6A6B58" xlink:href="#H" transform="translate(171.3 23.01)"/><use fill="#6A6B58" xlink:href="#A" transform="translate(178.2 20.955)"/><use fill="#6A6B58" xlink:href="#I" transform="translate(181.1 23.01)"/><use fill="#6A6B58" xlink:href="#J" transform="translate(188.39 23.01)"/><g transform="translate(-1773 -313)"><mask id="a"><use fill="#fff" xlink:href="#K" transform="translate(1773 313.32)"/></mask><use fill="#6A6B58" xlink:href="#L" transform="translate(1965.34 336.01)" mask="url(#a)"/><use fill="#E5722A" xlink:href="#N" transform="translate(1773 313.32)" mask="url(#a)"/><use fill="#E5722A" xlink:href="#O" transform="translate(1825.48 325.841)" mask="url(#a)"/></g><use fill="#6A6B58" xlink:href="#P" transform="translate(53.57 8.445)"/><defs><path id="a" fill-rule="evenodd" d="M4.47 2.57L2.8 6.37h3.33l-1.66-3.8zM2.32 7.44L1.25 9.8H0L4.47 0l4.46 9.8H7.68L6.6 7.44H2.33z"/><path id="b" fill-rule="evenodd" d="M1.12.9h.02c.32-.5.9-.9 1.54-.9.76 0 1.3.4 1.67 1.03C4.7.4 5.4 0 6.15 0c1.52 0 1.9 1.2 1.9 2.52v3.5h-1.1V2.7c0-.74-.1-1.7-1.08-1.7C4.67 1 4.6 2.24 4.6 3.14V6H3.46V2.93C3.47 2.16 3.44 1 2.4 1 1.23 1 1.13 2.23 1.13 3.14V6H0V.18h1.12V.9z"/><path id="c" fill-rule="evenodd" d="M4.43 2.43C4.3 1.56 3.73.97 2.83.97c-.87 0-1.52.63-1.65 1.46h3.25zm-3.3.85c0 1 .67 1.93 1.74 1.93.85 0 1.3-.43 1.73-1.12l.94.53C5 5.63 3.98 6.2 2.84 6.2 1.1 6.2 0 4.87 0 3.15 0 1.34.95 0 2.83 0c1.85 0 2.7 1.37 2.7 3.1v.18h-4.4z"/><path id="d" fill-rule="evenodd" d="M1.12 1.12h.03C1.43.44 2 0 2.75 0c.3 0 .64.1.9.3l-.5 1c-.2-.17-.42-.23-.68-.23-1.2 0-1.35 1.12-1.35 2.07V6H0V.18h1.12v.95z"/><path id="e" fill-rule="evenodd" d="M.2 9.28h1.13V3.45H.2v5.83zM1.55.78c0 .43-.35.77-.77.77C.35 1.55 0 1.2 0 .8 0 .34.35 0 .77 0c.42 0 .77.35.77.8z"/><path id="f" fill-rule="evenodd" d="M4.7 1.83c-.43-.5-.98-.78-1.65-.78-1.1 0-1.93.97-1.93 2.04 0 1.2.83 2.06 2 2.06.65 0 1.17-.3 1.6-.77V5.8c-.52.27-1.02.4-1.6.4C1.4 6.2 0 4.87 0 3.13 0 1.34 1.4 0 3.17 0c.53 0 1.1.12 1.54.4v1.43z"/><path id="g" fill-rule="evenodd" d="M4.84 3.1c0-1.14-.68-2.1-1.9-2.1C1.8 1 1.13 2 1.13 3.1s.65 2.1 1.83 2.1c1.22 0 1.9-.96 1.9-2.1zM5.9 6H4.76v-.9h-.02c-.45.66-1.14 1.1-1.97 1.1C1 6.2 0 4.73 0 3.06 0 1.45 1.05 0 2.74 0c.86 0 1.55.45 2 1.15h.03V.17H5.9V6z"/><path id="h" fill-rule="evenodd" d="M1.12.96h.02C1.5.34 2.18 0 2.9 0c1.63 0 2.05 1.1 2.05 2.53V6H3.83V2.68c0-1-.13-1.67-1.28-1.67-1.43 0-1.43 1.27-1.43 2.33V6H0V.18h1.12v.8z"/><path id="i" fill-rule="evenodd" d="M4.46 2.57L2.8 6.37h3.33l-1.67-3.8zM2.32 7.44L1.25 9.8H0L4.46 0l4.47 9.8H7.68L6.6 7.44H2.33z"/><path id="j" fill-rule="evenodd" d="M2.67 1.5c-.14-.28-.42-.5-.75-.5-.3 0-.6.25-.6.57 0 .5.67.74 1.35 1.05.68.3 1.34.73 1.34 1.65 0 1.1-.9 1.94-2 1.94-.83 0-1.7-.48-2-1.3l.95-.44c.24.44.53.75 1.06.75.48 0 .9-.32.9-.8 0-.32-.16-.47-.42-.65l-1.1-.58C.75 2.82.3 2.5.3 1.7.3.75 1.06 0 2 0c.7 0 1.28.4 1.6 1.02l-.9.5z"/><path id="k" fill-rule="evenodd" d="M2.67 1.5c-.14-.28-.42-.5-.75-.5-.3 0-.6.25-.6.57 0 .5.66.74 1.35 1.05.68.3 1.34.73 1.34 1.65 0 1.1-.9 1.94-2 1.94-.83 0-1.7-.48-2-1.3l.95-.44c.24.44.53.75 1.06.75.48 0 .9-.32.9-.8 0-.32-.16-.47-.42-.65l-1.1-.58C.75 2.82.3 2.5.3 1.7.3.75 1.06 0 2 0c.7 0 1.28.4 1.6 1.02l-.9.5z"/><path id="l" fill-rule="evenodd" d="M1.12 3.1c0 1.1.88 2.03 1.98 2.03S5.08 4.2 5.08 3.1c0-1.1-.88-2.03-1.98-2.03S1.12 2 1.12 3.1zm5.08 0c0 1.76-1.36 3.1-3.1 3.1S0 4.87 0 3.1C0 1.35 1.36 0 3.1 0s3.1 1.35 3.1 3.1z"/><path id="m" fill-rule="evenodd" d="M4.7 1.83c-.43-.5-.98-.78-1.65-.78-1.1 0-1.93.97-1.93 2.04 0 1.2.83 2.06 2 2.06.65 0 1.17-.3 1.6-.77V5.8c-.52.27-1.02.4-1.6.4C1.4 6.2 0 4.87 0 3.13 0 1.34 1.4 0 3.17 0c.53 0 1.1.12 1.54.4v1.43z"/><path id="n" fill-rule="evenodd" d="M.2 9.28h1.13V3.45H.2v5.83zM1.55.78c0 .43-.35.77-.77.77C.35 1.55 0 1.2 0 .8 0 .34.35 0 .77 0c.42 0 .77.35.77.8z"/><path id="o" fill-rule="evenodd" d="M4.84 3.1c0-1.14-.68-2.1-1.9-2.1C1.8 1 1.13 2 1.13 3.1s.65 2.1 1.83 2.1c1.22 0 1.9-.96 1.9-2.1zM5.9 6H4.76v-.9h-.02c-.45.66-1.14 1.1-1.97 1.1C1 6.2 0 4.73 0 3.06 0 1.45 1.05 0 2.74 0c.86 0 1.55.45 2 1.15h.03V.17H5.9V6z"/><path id="p" fill-rule="evenodd" d="M1.72 8.06H.62V3.28H0V2.23h.6V0h1.12v2.23h1.1v1.05h-1.1v4.78z"/><path id="q" fill-rule="evenodd" d="M.2 9.28h1.13V3.45H.2v5.83zM1.55.78c0 .43-.35.77-.77.77C.35 1.55 0 1.2 0 .8 0 .34.35 0 .77 0c.42 0 .77.35.77.8z"/><path id="r" fill-rule="evenodd" d="M1.12 3.1c0 1.1.88 2.03 1.98 2.03s2-.93 2-2.03c0-1.1-.9-2.03-2-2.03S1.12 2 1.12 3.1zm5.08 0c0 1.76-1.36 3.1-3.1 3.1S0 4.87 0 3.1C0 1.35 1.36 0 3.1 0s3.1 1.35 3.1 3.1z"/><path id="s" fill-rule="evenodd" d="M1.12.96h.02C1.5.34 2.18 0 2.9 0c1.63 0 2.05 1.1 2.05 2.53V6H3.83V2.68c0-1-.13-1.67-1.28-1.67-1.43 0-1.43 1.27-1.43 2.33V6H0V.18h1.12v.8z"/><path id="t" fill-rule="evenodd" d="M1.12 3.1c0 1.1.88 2.03 1.98 2.03S5.08 4.2 5.08 3.1c0-1.1-.88-2.03-1.98-2.03S1.12 2 1.12 3.1zm5.08 0c0 1.76-1.36 3.1-3.1 3.1S0 4.87 0 3.1C0 1.35 1.36 0 3.1 0s3.1 1.35 3.1 3.1z"/><path id="u" fill-rule="evenodd" d="M3.16 1.28c-.22-.1-.5-.23-.74-.23-.8 0-.8 1-.8 1.58v2.5h1.54v1.05H1.63v4.8H.5v-4.8H0V5.13h.5V2.3C.5 1 .95 0 2.4 0c.27 0 .54.05.78.15v1.13z"/><path id="v" fill-rule="evenodd" d="M1.17 8.32h.4c2.4 0 4.45-.9 4.45-3.62 0-2.74-2.06-3.63-4.44-3.63h-.4v7.25zM0 0h1.93C4.8 0 7.18 1.52 7.18 4.65c0 3.2-2.33 4.75-5.28 4.75H0V0z"/><path id="w" fill-rule="evenodd" d="M.2 9.3h1.13V3.44H.2V9.3zM1.55.8c0 .4-.35.75-.77.75C.35 1.55 0 1.2 0 .8 0 .34.35 0 .77 0c.42 0 .77.35.77.8z"/><path id="x" fill-rule="evenodd" d="M4.84 3.1c0-1.14-.68-2.1-1.9-2.1C1.8 1 1.13 2 1.13 3.1s.65 2.1 1.83 2.1c1.22 0 1.9-.96 1.9-2.1zM5.9 6H4.76v-.9h-.02c-.45.66-1.14 1.1-1.97 1.1C1 6.2 0 4.73 0 3.06 0 1.45 1.05 0 2.74 0c.86 0 1.55.45 2 1.15h.03V.17H5.9V6z"/><path id="y" fill-rule="evenodd" d="M4.78 7.9c0-1.13-.7-2.1-1.9-2.1-1.14 0-1.83 1.02-1.83 2.1 0 1.1.66 2.12 1.84 2.12 1.2 0 1.88-.97 1.88-2.12zM0 0h1.12v5.96h.02C1.6 5.26 2.3 4.8 3.16 4.8c1.68 0 2.73 1.47 2.73 3.06 0 1.67-1 3.16-2.8 3.16-.8 0-1.5-.45-1.96-1.1h-.02v.9H0V0z"/><path id="z" fill-rule="evenodd" d="M4.43 2.43C4.3 1.56 3.73.97 2.83.97c-.87 0-1.52.63-1.65 1.46h3.25zm-3.3.85c0 1 .67 1.93 1.73 1.93.86 0 1.32-.43 1.74-1.12l.94.53C5 5.63 3.98 6.2 2.84 6.2 1.1 6.2 0 4.87 0 3.15 0 1.34.95 0 2.83 0c1.85 0 2.7 1.37 2.7 3.1v.18h-4.4z"/><path id="A" fill-rule="evenodd" d="M1.72 8.06H.62V3.28H0V2.23h.6V0h1.12v2.23h1.1v1.05h-1.1v4.78z"/><path id="B" fill-rule="evenodd" d="M4.43 2.43C4.3 1.56 3.73.97 2.83.97c-.87 0-1.52.63-1.65 1.46h3.25zm-3.3.85c0 1 .67 1.93 1.74 1.93.85 0 1.3-.43 1.73-1.12l.94.53C5 5.63 3.98 6.2 2.84 6.2 1.1 6.2 0 4.87 0 3.15 0 1.34.95 0 2.83 0c1.85 0 2.7 1.37 2.7 3.1v.18h-4.4z"/><path id="C" fill-rule="evenodd" d="M2.67 1.5c-.14-.28-.42-.5-.75-.5-.3 0-.6.25-.6.57 0 .5.66.74 1.35 1.05.68.3 1.34.73 1.34 1.66 0 1.1-.9 1.93-2 1.93-.83 0-1.7-.48-2-1.3l.95-.44c.24.44.53.75 1.06.75.48 0 .9-.3.9-.8 0-.32-.16-.47-.42-.65l-1.1-.58C.75 2.82.3 2.5.3 1.7.3.75 1.06 0 2 0c.7 0 1.28.4 1.6 1.02l-.9.5z"/><path id="D" fill-rule="evenodd" d="M0 0h5.02v1.07H1.17V3.7H4.9v1.07H1.18v3.55h3.85V9.4H0V0z"/><path id="E" fill-rule="evenodd" d="M4.84 7.9c0-1.13-.68-2.1-1.9-2.1-1.14 0-1.82 1.02-1.82 2.1 0 1.1.65 2.12 1.83 2.12 1.22 0 1.9-.97 1.9-2.12zm-.06 2h-.03c-.45.67-1.15 1.12-1.97 1.12C.98 11.02 0 9.52 0 7.86 0 6.26 1.05 4.8 2.73 4.8c.87 0 1.56.46 2.02 1.16h.03V0h1.1v10.82H4.8v-.9z"/><path id="F" fill-rule="evenodd" d="M1.12 0v3.23c0 .93.23 1.76 1.34 1.76 1.1 0 1.33-.84 1.33-1.77V0h1.1v3.35c0 1.6-.73 2.68-2.44 2.68S0 4.95 0 3.35V0h1.12z"/><path id="G" fill-rule="evenodd" d="M4.7 1.83c-.43-.5-.98-.78-1.65-.78-1.1 0-1.93.97-1.93 2.04 0 1.2.83 2.06 2 2.06.65 0 1.17-.3 1.6-.77V5.8c-.52.27-1.02.4-1.6.4C1.4 6.2 0 4.88 0 3.13 0 1.34 1.4 0 3.17 0c.53 0 1.1.12 1.54.4v1.43z"/><path id="H" fill-rule="evenodd" d="M4.84 3.1c0-1.14-.68-2.1-1.9-2.1C1.8 1 1.13 2 1.13 3.1s.65 2.1 1.83 2.1c1.22 0 1.9-.96 1.9-2.1zM5.9 6H4.77v-.9h-.03c-.45.66-1.14 1.1-1.97 1.1C1 6.2 0 4.73 0 3.06 0 1.45 1.05 0 2.74 0c.86 0 1.55.45 2 1.15h.04V.17h1.1V6z"/><path id="I" fill-rule="evenodd" d="M1.12 3.1c0 1.1.88 2.03 1.98 2.03s2-.93 2-2.03c0-1.1-.9-2.03-2-2.03S1.12 2 1.12 3.1zm5.08 0c0 1.76-1.36 3.1-3.1 3.1S0 4.87 0 3.1C0 1.35 1.36 0 3.1 0s3.1 1.35 3.1 3.1z"/><path id="J" fill-rule="evenodd" d="M1.12 1.12h.03C1.43.44 2 0 2.75 0c.3 0 .64.1.9.3l-.5 1c-.2-.17-.42-.23-.68-.23-1.2 0-1.35 1.12-1.35 2.07V6H0V.18h1.12v.95z"/><path id="K" fill-rule="evenodd" d="M0 0h196.34v34.68H0V0z"/><path id="L" fill-rule="evenodd" d="M2.67 1.5c-.14-.28-.42-.5-.75-.5-.3 0-.6.25-.6.57 0 .5.67.74 1.35 1.05.68.3 1.34.73 1.34 1.66 0 1.1-.9 1.93-2 1.93-.83 0-1.7-.48-2-1.3l.95-.44c.24.44.53.75 1.06.75.48 0 .9-.3.9-.8 0-.32-.16-.47-.42-.65l-1.1-.58C.75 2.82.3 2.5.3 1.7.3.75 1.06 0 2 0c.7 0 1.28.4 1.6 1.02l-.9.5z"/><path id="N" fill-rule="evenodd" d="M23.87 21.83l2.6-7.75.63-1.7 3.14 9.45h-6.37zm-16.53 0l2.6-7.75.63-1.7 3.14 9.45H7.35zM48.8 9.56c-.87 1.05-1.6 2.17-2.2 3.32 1.68 1.15 2.67 3.1 2.67 5.56 0 4.95-3.54 6.72-6.86 6.72h-1.86V11.73h1.93c.67 0 1.3.07 1.87.2-1.07 3.3-1.15 6.86-.2 10.22-1-5.84 1.5-12.44 6.96-16.86C56.57.86 63.53-.16 68.98 2.1 63.05-1.12 55.52-.7 49.92 3.83c-1.64 1.33-2.96 2.9-3.98 4.6-.78-.18-1.6-.3-2.43-.3h-7.4v16.88c-2.2-5.85-6.13-16.33-6.33-16.87h-5.34c-.18.48-3.38 8.8-5.65 14.76-2.23-5.96-5.36-14.3-5.54-14.77H7.91c-.28.7-7.33 19.14-7.9 20.63h4.7c.26-.62 1.5-3.8 1.5-3.8h8.62s1.18 3.17 1.4 3.8h5.02c.25-.62 1.5-3.8 1.5-3.8h8.6s1.2 3.17 1.43 3.8H43.5c5.77 0 10.45-4.63 10.45-10.32 0-3.78-2.08-7.08-5.16-8.88z"/><path id="O" fill-rule="evenodd" d="M24.83 0c1.02 5.84-1.47 12.45-6.94 16.87C12.4 21.3 5.45 22.3 0 20.05c5.93 3.24 13.47 2.8 19.06-1.7C24.66 13.8 26.7 6.5 24.83 0z"/><path id="P" fill-rule="evenodd" d="M18.57 0c-.16.62-.93 3.67-1.03 4.06h-7.6L8.9 8.26h7.2c-.17.6-.94 3.67-1.04 4.06h-7.2l-1.1 4.3h7.6c-.15.62-.92 3.67-1.02 4.06H0C.2 19.93 5.1.45 5.22 0h13.35z"/></defs></svg>