<svg width="461" height="462" xmlns="http://www.w3.org/2000/svg"><g stroke="#484E5C" stroke-width=".303" fill="none" fill-rule="evenodd" opacity=".387"><path d="M143.211 443.712L128 436.356l23.015 8.881L163 451.356zM298 451.356l10.745-6.118L332 436.356l-14.013 7.356zm158-176l1.633-28.76 2.367-19.24-1.638 28.57zM90.767 413.013L73 398.356l19.199 13.735L108 425.356zM353 425.356l14.498-13.267L387 398.356l-16.506 14.659zm73-315l-17.642-22.918L399 74.356l16.549 21.412zm-27-35l-20.83-18.408L367 46.356l19.116 16.795zM21.827 135.59L34 110.356l-7.21 15.452L14 152.356zM446 152.356l-13.61-26.547-6.39-15.453 13.038 25.234zM12.388 302.461L5 275.356l6.739 19.179L19 321.355zM441 321.356l6.864-26.822L456 275.356l-7.043 27.103z"/><path d="M162.775 451.086L151 445.356l24.74 6.135 8.26 4.865zM276 456.356l7.27-4.869 25.73-6.131-10.93 5.729zM58.29 383.224L43 363.356l15.849 16.257L73 398.356zM387 398.356l13.283-18.74L417 363.355l-14.5 19.869zM174.271 8.978L186 6.356l-13.46 3.413L157 13.356zM304 13.356l-16.71-3.587L274 6.356l12.946 2.623zM30.838 345.754L19 321.356l11.686 18.354L42 363.356zM417 363.356l10.906-23.646L441 321.356l-11.51 24.398zM6.379 180.06L14 152.355l-3.157 17.284L3 198.356zM457 198.356l-8.734-28.72-2.266-17.28 8.54 27.701zM107.587 37.158L127 26.356l-12.094 7.636L93 46.356zM367 46.356L344.482 33.99 333 26.356l20.14 10.803zM184.389 456.342l-8.352-5.151 26.52 3.979 4.554 4.59z"/><path d="M253.938 459.768l3.322-4.59 26.702-3.973-7.15 5.15zm-46.828-.008l-4.554-4.59 27.322 1.345.62 4.4z"/><path d="M230.499 460.915l-.62-4.4 27.382-1.336-3.322 4.59zM107.688 425.67L92 412.357l22.71 11.91 13.29 12.09zM332 436.356l12.028-12.094L367 412.356l-14.463 13.315zM156.664 13.302L172 9.356l-12.167 4.711L141 19.356zM319 19.356l-20.013-5.29L287 9.356l16.563 3.945zM.413 227.49l2.65-29.028 1.659 18.617-2.66 29.664zm456.989 19.3l-3.368-29.664 2.668-18.614 3.36 29.027zM61.096 74.41L81 56.356 72.312 67.56 51 87.356zM408 87.356L386.003 67.56 378 56.356l20.676 18.056zM34.177 111.06L51 88.356l-6.359 13.69L27 126.356zM432 126.356l-18.413-24.31L408 88.356l17.66 22.704zM141.04 19.44L160 14.357l-10.866 5.37L127 26.355zM333 26.356l-23.344-6.632L299 14.356l20.217 5.087z"/><path d="M4.705 275.098L2 246.356l7.332 19.073L12 294.356zM448 294.356l1.828-28.927L458 246.356l-1.884 28.745zM73.226 398.437L59 379.356l20.317 14.98L92 412.356zM368 412.356l11.784-18.02L401 379.355l-13.406 19.082zM92.928 45.967L115 33.356l-9.828 8.606L81 56.356zM378 56.356l-24.778-14.397L344 33.356l22.788 12.61zm-250.833 380.23L114 424.356l25.596 9.79L150 445.355zM309 445.356l9.174-11.214L344 424.356l-11.969 12.233zM229.94 1.205l-.63 3.563-10.566.34-4.108-3.415z"/><path d="M245.208 1.695l-5.357 3.412-10.543-.34.632-3.562zM14.193 151.947L27 125.356l-2.844 16.019L11 169.355zM448 169.356l-14.034-27.98-1.966-16.02 13.729 26.59zM19.319 321.134L12 294.356l11.987 18.511L31 339.356zM428 339.356l6.162-26.489L447 294.356l-6.506 26.78zM214.796 1.781l4.027 3.643-10.165 1.072-8.602-3.163z"/><path d="M259.407 3.339L249.61 6.5l-10.096-1.077 5.251-3.64zM42.7 362.921L31 339.356l17.148 17.165L59 379.356zM400 379.356l9.945-22.841L428 339.355l-10.852 23.564zm-199.682-376L209 6.56l-9.86 1.795L186 5.948zM274 5.95l-14.27 2.406L250 6.56l9.874-3.205zm-147.048 19.8L149 19.355l-9.2 5.89-24.8 8.11zM344 33.356l-26.04-8.109-8.96-5.891 23.342 6.398zM3 197.899l8.236-28.543L13 186.77l-8.275 29.585zm451.405 18.457L446 186.769l2.605-17.413L457 197.9zM150.291 444.77L140 433.355l27.754 7.362L175 451.356zM284 451.356l6.222-10.052L319 434.356l-9.38 10.784z"/><path d="M185.663 5.356L199 7.826l-9.388 2.53L172 9.018zM287 9.023l-18.085 1.333L260 7.826l14.018-2.47zM80.837 56.975L105 42.355l-7.207 9.404L72 68.356zM386 68.356l-26.393-16.601-6.607-9.4 24.871 14.62z"/><path d="M51.446 87.466L73 67.356l-5.453 11.997L45 101.356zM414 101.356L390.75 79.35 386 67.356l22.35 20.112zM91.662 412.35L79 394.355l24.243 12.943L114 424.356zM344 424.356l9.824-17.06L379 394.355l-11.81 17.994zm-171.539-415L190 10.52l-8.531 2.756-21.469.08zm126.539 4l-21.888-.085L269 10.515l18.145-1.16zm-123.632 438.15L168 441.356l29.952 4.307 4.048 9.693zm81.632 3.85l2.831-9.7 30.169-4.3-6.176 10.155zM2 246.166l2.78-29.81L12 234.908l-2.718 30.448zm447.226 19.19L446 234.907l7.713-18.551L457 246.167zM26.9 125.58L45 101.356l-2.447 14.092L24 141.356zM434 141.356l-18.464-25.91-1.536-14.09 18.1 24.227zM201.988 455.054L198 445.356l30.392 1.453.608 9.547z"/><path d="M229.618 456.356l-.618-9.552 31-1.448-2.835 9.706zM114.796 33.704L140 25.356l-7.48 6.681L105 42.356zM353 42.356l-28.003-10.32-6.997-6.68 25.824 8.35zM159.876 14.439L181 14.356l-7.412 3.375L149 19.356zM310 19.356l-25.747-1.623L277 14.356l22.349.087zM11.576 293.951L9 265.356l12.515 18.233L24 312.356zM434 312.356l1.675-28.765L449 265.356l-1.79 28.596zM58.633 379.369L48 356.356l21.493 15.663L79 394.356zM379 394.356l8.596-22.335L410 356.356l-9.786 23.015zm-347.865-55.26L24 312.356l17.365 17.55L48 356.355zM410 356.356l5.766-26.451L434 312.355l-6.301 26.744zM11 169.949l13.242-27.593L26 158.349l-13.29 29.007zm434.404 17.407L432 158.349l2.593-15.993L448 169.953zm-331.4 237.175L103 407.356l28.278 10.603L140 434.356zM318 434.356l7.514-16.4 28.486-10.6-9.815 17.178z"/><path d="M149.29 19.155l24.71-1.8-6.29 4.25-27.71 3.75zM318 25.356l-28.065-3.753L284 17.356l25.225 1.803zM72.437 67.61L98 51.356l-4.336 9.67L67 79.356zM391 79.356l-27.261-18.332L360 51.356l26.275 16.256zM105.039 41.87L132 31.357l-5.31 7.3L98 51.355zM360 51.356l-30.015-12.7-4.985-7.3 28.366 10.514zm-131-47l-.586 9.8-5.135.2L219 4.74zm11 .387l-5.664 9.613-5.336-.2.612-9.8z"/><path d="M219.446 5.356L224 14.773l-5.36.583L209 6.478zM250 6.48l-10.73 8.876-5.27-.583 5.73-9.417zM44.419 101.148L67 79.356l-1.908 12.238L42 115.356zM416 115.356l-23.828-23.762L391 79.356l23.409 21.793zM5 217.01l8.127-29.654L20 204.647l-7.961 30.709zm441.265 18.346L438 204.647l7.549-17.291L454 217.012zm-237.574-229L218 15.385l-4.962.97L199 8.242z"/><path d="M259 8.241l-15.109 8.115-4.891-.971 10.442-9.03zm-59.96.115l13.96 7.73-4.62 1.27L190 10.819z"/><path d="M268 10.821l-19.449 6.535L244 16.083l15.093-7.727zM140.402 24.9L168 21.356l-4.97 4.41-30.03 5.59zM325 31.356l-30.37-5.595-4.63-4.405 28.086 3.547zM139.67 433.3L131 417.356l30.86 7.623 6.14 15.377zM290 440.356l4.948-15.384L326 417.356l-7.504 15.948zM79.549 394.5L70 372.356l25.859 13.455L104 407.356zM354 407.356l7.198-21.549L388 372.356l-8.669 22.148zM24 142.339l18.213-25.983L44 130.633l-18.249 27.723zm407.384 16.017L413 130.63l2.577-14.274L434 142.34zm-242.019-148L208 16.79l-4.255 1.566L181 13.393z"/><path d="M277 13.396l-23.824 4.96L249 16.79l19.783-6.434zM9 265.8l2.639-30.444L24 253.285l-2.501 31.07zm427.078 18.556L433 253.284l12.787-17.928L449 265.8zM98.279 51.684L127 39.356l-3.143 7.421L94 61.356zM364 61.356l-30.32-14.58-2.68-7.42 29.317 12.33zm-182.646-48L204 18.46l-3.724 1.895L174 17.05z"/><path d="M284 17.053l-27.36 3.303-3.64-1.898 23.812-5.102zM168.105 440.964L162 425.356l32.6 4.745 3.4 15.255zM260 445.356l2.216-15.259L295 425.356l-4.942 15.614zM23.462 313.092L21 284.356l17.686 17.106L41 330.356zM416 330.356l1.507-28.895L436 284.356l-1.673 28.736zM47.588 356.754L41 330.356l22.089 15.874L69 372.356zM388 372.356l5.037-26.13L416 330.356l-5.75 26.397zM67.859 80.03L94 61.356l-1.344 10.118L66 92.356zM392 92.356L364.74 71.47 364 61.356l26.856 18.674zM132.303 32.164L162 26.356l-3.509 4.895L127 39.356zM331 39.356l-32.721-8.106L295 26.356l31.031 5.812zM13 187.206l13.427-28.85L33 174.089l-13.152 30.267zm424.362 17.15L424 174.086l7.316-15.73L445 187.207zM198.379 444.851L195 429.356l33.412 1.631.588 15.369z"/><path d="M228.597 447.356L228 431.98l34-1.624-2.242 15.5zm-55.288-430L200 20.39l-3.175 1.966L167 21.2zM290 21.206l-30.014 1.15-2.986-1.97 27.057-3.03zm-248 94.84l23.202-23.69L67 104.65l-23.19 25.705zm370.365 14.31L389 104.647l2.527-12.291L415 116.047zm-309.23 276.542L95 385.356l29.518 10.954L131 417.356zM326 417.356l5.505-21.052L362 385.356l-7.223 21.546zm-158.973-396L197 22.724l-2.508 2.55L162 26.355zm127.973 5l-32.674-1.09-2.326-2.55 30.32-1.36zM127.17 38.65L159 30.356l-2.036 5.226L124 46.356zM333 47.356l-33.291-10.778L298 31.356l32.301 8.297zM224 14.548l5-.192-.545 15z"/><path d="M228.588 14.356l5.412.192-6 14.808zM218 14.935l5.24-.58 4.76 15z"/><path d="M233.85 14.356l5.15.582-11 14.418zM11 235.42l7.962-31.064L31 221.25l-7.586 32.105zm421.975 17.936L425 221.246l12.632-16.89L446 235.42zM93.387 61.225L124 46.355l-.889 7.745L92 71.356zM364 71.356l-30.612-17.257-.388-7.743 30.26 14.869zM213 16.28l5.017-.924 9.983 14zm26.061-.924l4.939.924-16 13.076z"/><path d="M208 17.618l4.765-1.262 15.235 13zm36.311-1.262L249 17.619l-21 11.737zm-81.727 10.011L195 25.356l-1.758 2.533L159 31.356zM298 31.356l-34.415-3.469L262 25.356l32.751 1.017z"/><path d="M204 18.968l4.273-1.612 19.727 12zm44.806-1.612L253 18.97l-25 10.385zM26 158.356l18.011-28L50 144.588l-17.613 29.768zm398.518 16L406 144.584l6.99-14.228L432 158.36zM200 21.186l3.789-1.83 24.211 10zm53.301-1.83l3.699 1.83-29 8.17zM65 92.048l27.299-20.692L94 81.43l-27.211 22.926zm324.465 12.308L362 81.426l2.322-10.07L392 92.052zM68.993 372.058L63 346.356l26.861 13.537L95 385.356zM361 385.356l4.23-25.467L393 346.356l-5.127 25.708zM21 284.109l2.489-30.753L41 270.018l-2.275 31.338zm396.891 17.247L415 270.016l17.899-16.66L436 284.11z"/><path d="M197 23.383l3.161-2.027 27.839 8zm59.938-2.027L260 23.384l-32 5.972zM131.47 417.564L125 396.356l32.385 8.166L162 425.356zM295 425.356l3.506-20.841 32.494-8.16-5.368 21.217zM159.04 31.554L193 28.356l-.963 2.43L157 36.355zM300 36.356l-35.202-5.572-.798-2.428 34.29 3.203zM123.879 46.75L157 36.356l-.462 5.139L123 54.355zM334 54.356l-33.866-12.863-.134-5.137 33.604 10.397zM41.333 330.547L39 301.356l22.873 15.673L64 346.356zM393 346.356l1.302-29.335L418 301.356l-1.528 29.194z"/><path d="M195 25.585l2.446-2.23 30.554 6zm64.666-2.229l2.334 2.23-34 3.77z"/><path d="M193 27.872l1.735-2.516 33.265 4zm68.438-2.516L263 27.878l-35 1.478zM92 71.338l30.518-16.982L124 61.987 93.682 81.356zm269.686 10.018L331 61.985l1.974-7.63L364 71.342zM20 204.733l12.87-30.377L44 189.58l-12.261 31.775zm405.039 16.623L412 189.58l12.283-15.224L438 204.736zM157.452 36.21L192 30.356l-.158 2.592L157 41.356z"/><path d="M192 30.278l.959-2.844L228 29.048zm108 11.078l-35-8.41.005-2.59 34.866 5.858zm-36.794-13.922l.794 2.844-36-1.236zM44 130.17l22.572-25.814L72 116.51l-22.022 27.846zm361.997 14.186L383 116.509l6.335-12.153L413 130.174zM162.608 424.692L158 404.356l34.382 4.89 2.618 20.11zM262 429.356l1.517-20.113L298 404.356l-3.517 20.34zm-70-396l.159-2.803L228 29.356zm72-2.799l-.005 2.799-35.995-4zM123 54.546l33.836-13.19L158 46.613l-33.493 15.743zm208.036 7.81L298 46.61l1.473-5.255L333 54.549z"/><path d="M194.616 429.755l-2.616-20.4 35.448 1.678.552 20.323zm33.944 1.601l-.56-20.333 36-1.667-1.542 20.406zm-35.912-396L192 32.892l36-3.536zM264 32.895l-.815 2.46-35.185-6zM156 41.05l35.346-8.694.654 2.66-34.85 11.34zm142.533 5.306L264 35.017l.816-2.661L300 41.053zM95.16 385.317L90 359.356l30.854 11.244L125 396.356zM331 396.356l3.124-25.762L365 359.356l-4.145 25.967zM24 253.497l7.383-32.141L48 237.218l-6.803 33.138zm390.527 16.859L407 237.217l17.855-15.861L433 253.5zM67 104.255l27.189-22.9L99 91.226l-26.457 25.13zm316.703 12.101L357 91.224l5.435-9.868L390 104.257z"/><path d="M193.473 38.356L192 35.79l36-6.435zM263 35.793l-1.598 2.563-33.402-9z"/><path d="M196.222 40.356L194 38.02l34-8.664zM262 38.02l-2.395 2.336-31.605-11zM32 173.995l17.733-29.64L60 157.992l-16.873 31.365zm380.093 15.361L395 157.99l10.98-13.634L424 173.997zM158 46.347l34.553-10.991L194 37.86l-33.27 13.495zm136.961 5.009L262 37.86l1.601-2.505L298 46.349zM94 81.593l30.172-19.237L128 69.768 98.736 91.356zm262.608 9.763L327 69.767l4.336-7.411L362 81.596zM39 300.71l2.21-31.354L63 284.469l-1.925 31.887zm355.653 15.646L392 284.464l23.054-15.108 2.946 31.36z"/><path d="M198.966 42.356L196 40.23l32-10.874zM259 40.231l-3.06 2.125-27.94-13zM63.101 345.663L61 316.356l27.155 13.576L90 359.356zM365 359.356l1.02-29.43 27.98-13.57-1.294 29.31zM124 61.842l33.236-15.486L160 51.39l-32.12 17.965zm202.694 7.514L295 51.39l3.053-5.034L331 61.844z"/><path d="M202.63 44.356L199 42.45l29-13.095zM256 42.451l-3.705 1.905-24.295-15zm-48.85 3.905L203 44.692l25-15.336z"/><path d="M253 44.695l-4.388 1.66-20.612-17zm-93 6.967l33.752-13.306L196 40.693l-31.662 15.663zm130.347 4.694L259 40.693l2.406-2.337L295 51.664zm-78.682-9L207 46.045l21-16.69zM248 46.045l-4.723 1.31-15.277-18zM125.152 396.172L121 370.356l33.99 8.337 3.01 25.663zM298 404.356l2-25.667 34-8.333-3.144 25.822zM50 143.87l22.66-27.514L82 127.88l-21.52 29.475zm344.717 13.486L373 127.877l10.041-11.521L406 143.87zm-177.776-109L212 47.394l16-18.038zM243 47.397l-4.982.959-10.018-19zm-20.828 1.959L217 48.757l11-19.401z"/><path d="M238 48.757l-5.203.599-4.797-20zM31 221.554l12.273-32.198L59 203.806l-11.324 33.55zm376.634 15.802L396 203.806l16.37-14.45 12.63 32.2zm-180.171-188l-5.463-.2 6-19.8z"/><path d="M233 49.157l-6 .199.588-20zm-68 6.862l31.076-15.663L199 42.507l-28.286 17.849zm119.969 4.337L257 42.504l3.087-2.148L291 56.022zM129 69.229l31.723-17.873L165 56.117l-29.865 20.239z"/><path d="M320.275 76.356L290 56.113l4.677-4.757L327 69.23zM73 116.659l26.203-25.303 7.797 9.51-24.822 27.49zm300.055 11.697L348 100.866l8.438-9.51L383 116.666zM99 90.993l29.767-21.637L135 76.44l-28.116 23.916z"/><path d="M348.643 100.356L321 76.438l6.595-7.082L357 90.995zM157.018 404.445L154 379.355l36.22 5.01 1.78 24.99zM263 409.356l.776-25 36.224-5-2.013 25.093zM171 60.433l28.402-18.077L203 44.297l-24.92 20.059zm106.58 3.923L253 44.297l3.764-1.941L285 60.436zM41 269.205l6.789-32.85L69 250.6l-6.008 33.756zm350.692 16.151L385 251.596l22.477-14.24L415 270.21zM90.809 360.085L89 330.355l30.49 11.179 1.51 29.822zM335 371.356l.69-29.828L367 330.356l-1.006 29.735zM44 188.89l16.734-31.534L75 170.169l-15.425 33.187zm351.15 14.466L379 170.167l15.427-12.811L412 188.895zM192.742 409.674L191 384.356l36.51 1.714.49 25.286z"/><path d="M227.496 411.356L227 386.063l37-1.707-.77 25.328zM61 316.626l1.989-32.27L90 297.608l-1.624 32.748zm305.284 13.73L364 298.318l27.347-12.962L394 316.929zM135 76.712l30.196-20.356L171 60.78l-27.575 22.576zm177.17 6.644L285 60.777l6.076-4.421L321 76.713zM178 64.917l24.84-20.561 4.16 1.697-20.758 22.303zm90.393 3.439L248 46.053l4.346-1.697L277 64.918z"/><path d="M186 68.594l21.247-22.238L212 47.715l-16.548 23.64zm73.496 2.762L244 47.714l4.78-1.358L269 68.598zM61 157.775l21.216-29.42L95 139.085l-19.527 31.272zm318.72 12.581L360 139.08l13.487-10.724L395 157.776zM107 100.548l27.671-24.192L143 82.997l-25.34 26.359zm230.595 8.808L312 82.996l8.907-6.64L349 100.55z"/><path d="M196 70.38l16.022-23.024 4.978.971-11.071 24.029zm52.57 1.976L238 48.322l5.227-.966L259 70.386zM82 128.562l25.148-27.206L118 110.11l-23.09 29.246zm277.657 10.794L337 110.109l11.21-8.753 24.79 27.21zM143 83.513l27.785-22.157L178 65.234l-24.441 24.122zm158.026 5.843L277 65.23l7.495-3.875L312 83.516z"/><path d="M205 72.162l11.54-23.806 5.46.585-6.091 24.415zm33.095 1.194L233 48.94l5.458-.585L249 72.162zM48 237.002l11.553-33.646L80 216.468l-10.24 34.888zm336.572 14.354L374 216.462l21.076-13.106L407 237.007zm-264.05 119.698L119 341.356l33.821 8.236L154 379.356zM300 379.356l.341-29.773L335 341.356l-.699 29.702z"/><path d="M216 73.951l5.73-24.595 5.27.198-.456 24.802zm11 .405l.474-24.802 5.502-.198L238 73.954zM63 285.194l6.12-33.838L95 263.72l-5.123 34.636zm301.609 13.162L359 263.714l26.376-12.358L392 285.198zM153 89.195l24.54-24.84 8.46 3.416-20.551 26.585zm135.509 5.161L269 67.77l8.487-3.414L301 89.199zM88 330.407l1.599-32.051L120 308.923l-1.177 32.433zm246.844 10.949L333 308.919l30.738-10.563L366 330.412zM117 109.504l25.551-26.148L153 89.26l-22.533 28.096zm206.108 7.852L301 89.257l10.774-5.901L337 109.507zM59 203.347l15.647-32.991L93 181.858l-13.87 34.498zm315.097 13.009L360 181.856l19.052-11.5L395 203.352zM154.185 379.233L153 349.356l36.186 5.076.814 29.924zm109.85 5.123L264 354.427l36-5.071-.335 29.887z"/><path d="M95 138.625l22.658-29.27L131 117.227l-20.027 31.13zm248.183 9.731L323 117.226l14.042-7.87L360 138.628zM75 170.898l19.721-31.542L111 149.102l-17.46 33.254zm285.152 11.458L343 149.096l16.548-9.74L379 170.9zM166 94.289l20.53-25.933 9.47 2.683-16.006 27.317zm108.017 4.067L259 71.036l9.46-2.68L288 94.29zm-84.198 285.305L189 354.356l37.571 1.681.429 29.319zm37.601 1.695l-.42-29.33 36.965-1.67.035 29.313z"/><path d="M179 98.299l15.834-27.943L205 72.372l-10.94 28.984zm80.015 3.057L249 72.366l10.114-2.01L274 98.304zM70 251.01l10.042-34.654L104 227.62l-8.444 35.735zm288.78 12.346l-8.78-35.74 24.578-11.26L385 251.014zM131 117.573l22.661-28.217L166 94.442l-19.015 29.914zm175.59 6.783L288 94.439l12.662-5.083L323 117.579zM119 341.16l1.19-32.804 33.81 7.909-.708 33.09zm181.388 8.196L299 316.26l34.127-7.905L335 341.168z"/><path d="M194 101.476l11.116-29.12L216 73.592l-5.84 29.764zm48.966 1.88L238 73.594l10.8-1.238 10.2 29.126zM90 297.72l5.023-34.364 28.977 9.99-3.876 35.01zm243.365 10.636L329 273.339l29.471-9.983L364 297.722z"/><path d="M210 103.734l5.832-29.378 11.168.41-.406 29.59zm17 .622l.39-29.593 10.77-.407 4.84 29.378zM79 217.042l13.976-34.686 22.024 9.99-11.76 36.01zm270.98 11.314L338 192.34l22.735-9.985L375 217.047zM111 148.865l20.154-31.51L147 124.21l-16.933 33.147zm212.572 8.491L307 124.206l16.146-6.85L343 148.87zM147 123.931l19.071-29.575L180 98.416l-14.883 30.94zm141.448 5.425L274 98.416l14.263-4.06L307 123.934zM94 182.493l17.094-33.137L130 157.728l-14.38 34.628z"/><path d="M338.521 192.356L324 157.726l19.655-8.37L361 182.499zM154 349.34l.698-32.984L190 321.199l-.19 33.157zm110.863 5.016L264 321.19l35.628-4.835L301 349.342zm-74.863.296l.188-33.296L226.664 323l.336 33.356z"/><path d="M226.341 356.356L226 322.992l37.127-1.636.873 33.307zM95 263.257l8.5-35.901 27.5 9.208-6.613 36.792zm233.947 10.099L322 236.554l28.119-9.198L359 263.262zM165 129.355l14.867-31L195 101.348l-10.263 32.009zm103.472 4.001L259 101.342l14.974-2.986L288 129.357zM121 308.464l3.906-35.108L157 280.76l-2.61 35.596zm178.105 7.892l-3.105-35.6 32.581-7.4L333 308.47zM130 157.475l17.011-33.12 17.989 5.54-13.285 34.46zm171.935 6.881L289 129.896l18.276-5.54L324 157.48z"/><path d="M184 133.868l10.168-32.512L210 103.212l-5.315 33.144zm63.797 2.488L243 103.21l16.226-1.854L269 133.87zM103 228.194l11.823-35.838L140 200.428l-9.225 36.928zm219.172 9.162L313 200.426l25.224-8.07L350 228.2zM205 136.514l5.415-33.158 16.585.624-.312 33.376z"/><path d="M227 137.356l.301-33.38 16.062-.62L248 136.52zM115 192.28l14.455-34.924L151 164.204l-11.289 36.152zm197.38 8.076L301 164.198l22.335-6.842L338 192.282zM154 316.561l2.628-35.205 34.372 4.5-1.222 35.5zm109.715 4.795L262 285.849l34.858-4.493L300 316.568zM151 164.354l13.324-33.998L184 134.38l-9.188 34.976z"/><path d="M277.837 169.356L269 134.376l19.966-4.02 13.034 34zM124 273.934l6.65-36.578 30.35 6.76-4.526 37.24zm172.723 7.422L292 244.113l30.166-6.757L329 273.939zM190 321.7l1.224-36.344 35.533 1.555.243 36.445z"/><path d="M226.238 323.356l-.238-36.45 35.308-1.55L263 321.705zM175 169.293l9.187-34.937 20.813 2.46-4.769 35.54zm77.4 3.063l-4.4-35.542 21.117-2.458L278 169.298zM140 200.408l11.34-36.052 23.66 5.031-7.804 36.969zm145.609 5.948L278 169.385l23.828-5.03L313 200.415z"/><path d="M131 237.542l9.02-37.186 26.98 6.003-6.184 37.997zm160.345 6.814L285 206.354l27.74-5.998 9.26 37.189zM200 172.31l4.734-35.954 21.266.841-.205 36.159zm26 1.046l.207-36.164 21.43-.836L252 172.318zm-69 107.417l4.432-37.417 31.568 4.17-2.192 37.83z"/><path d="M261.49 285.356l-2.49-37.84 32.225-4.16L296 280.78zM167 205.673l7.833-37.317L200 171.47l-4.03 37.886zm88.846 3.683L252 171.465l25.327-3.11L285 205.68zM191 285.824l2.2-37.468 32.668 1.394.132 37.606z"/><path d="M226.132 287.356L226 249.745l33.48-1.39 2.52 37.477zM161 244.19l6.217-37.834L196 210.02l-3.156 38.336zm98.176 4.166L256 210.018l28.766-3.662L291 244.2zM196 210.118l4.038-37.762L226 173.403l-.095 37.953zm30 1.238l.095-37.96 26.044-1.04L256 210.123z"/><path d="M193 247.94l3.17-38.584 29.811 1.245.019 38.755zm33.019 1.416l-.019-38.76 29.793-1.24 3.207 38.59z"/></g></svg>