<?xml version="1.0" encoding="UTF-8"?>
<svg width="807px" height="120px" viewBox="0 0 807 120" version="1.1" xmlns="http://www.w3.org/2000/svg" xmlns:xlink="http://www.w3.org/1999/xlink">
    <title>Line 2 Copy 10</title>
    <g id="Animation" stroke="none" stroke-width="1" fill="none" fill-rule="evenodd">
        <g id="Artboard-1-Copy-8" transform="translate(-342.000000, -318.000000)" fill="#858C93" fill-rule="nonzero">
            <g id="Group-15">
                <path id="Line-2-Copy-10" d="M347,397.5 C349.688755,397.5 351.881818,399.622307 351.99538,402.28311 L352,402.5 L352,432.5 C352,435.261424 349.761424,437.5 347,437.5 C344.311245,437.5 342.118182,435.377693 342.00462,432.71689 L342,432.5 L342,402.5 C342,399.738576 344.238576,397.5 347,397.5 Z M1145.27884,381.5 C1147.05784,381.5 1148.5,382.942162 1148.5,384.721159 C1148.5,385.221228 1148.38357,385.71443 1148.15993,386.161705 L1148.15993,386.161705 L1124.38145,433.718681 C1123.58585,435.309865 1121.65099,435.954819 1120.05981,435.159228 C1119.43642,434.847536 1118.93095,434.342064 1118.61926,433.718681 L1118.61926,433.718681 L1094.84077,386.161705 C1094.04518,384.570522 1094.69014,382.635659 1096.28132,381.840067 C1096.72859,381.616429 1097.2218,381.5 1097.72186,381.5 L1097.72186,381.5 Z M347,337.5 C349.688755,337.5 351.881818,339.622307 351.99538,342.28311 L352,342.5 L352,372.5 C352,375.261424 349.761424,377.5 347,377.5 C344.311245,377.5 342.118182,375.377693 342.00462,372.71689 L342,372.5 L342,342.5 C342,339.738576 344.238576,337.5 347,337.5 Z M1121.5,334 C1124.18875,334 1126.38182,336.122307 1126.49538,338.78311 L1126.5,339 L1126.5,369 C1126.5,371.761424 1124.26142,374 1121.5,374 C1118.81125,374 1116.61818,371.877693 1116.50462,369.21689 L1116.5,369 L1116.5,339 C1116.5,336.238576 1118.73858,334 1121.5,334 Z M387.5,318 C390.261424,318 392.5,320.238576 392.5,323 C392.5,325.688755 390.377693,327.881818 387.71689,327.99538 L387.5,328 L357.5,328 C354.738576,328 352.5,325.761424 352.5,323 C352.5,320.311245 354.622307,318.118182 357.28311,318.00462 L357.5,318 L387.5,318 Z M447.5,318 C450.261424,318 452.5,320.238576 452.5,323 C452.5,325.688755 450.377693,327.881818 447.71689,327.99538 L447.5,328 L417.5,328 C414.738576,328 412.5,325.761424 412.5,323 C412.5,320.311245 414.622307,318.118182 417.28311,318.00462 L417.5,318 L447.5,318 Z M507.5,318 C510.261424,318 512.5,320.238576 512.5,323 C512.5,325.688755 510.377693,327.881818 507.71689,327.99538 L507.5,328 L477.5,328 C474.738576,328 472.5,325.761424 472.5,323 C472.5,320.311245 474.622307,318.118182 477.28311,318.00462 L477.5,318 L507.5,318 Z M567.5,318 C570.261424,318 572.5,320.238576 572.5,323 C572.5,325.688755 570.377693,327.881818 567.71689,327.99538 L567.5,328 L537.5,328 C534.738576,328 532.5,325.761424 532.5,323 C532.5,320.311245 534.622307,318.118182 537.28311,318.00462 L537.5,318 L567.5,318 Z M627.5,318 C630.261424,318 632.5,320.238576 632.5,323 C632.5,325.688755 630.377693,327.881818 627.71689,327.99538 L627.5,328 L597.5,328 C594.738576,328 592.5,325.761424 592.5,323 C592.5,320.311245 594.622307,318.118182 597.28311,318.00462 L597.5,318 L627.5,318 Z M687.5,318 C690.261424,318 692.5,320.238576 692.5,323 C692.5,325.688755 690.377693,327.881818 687.71689,327.99538 L687.5,328 L657.5,328 C654.738576,328 652.5,325.761424 652.5,323 C652.5,320.311245 654.622307,318.118182 657.28311,318.00462 L657.5,318 L687.5,318 Z M747.5,318 C750.261424,318 752.5,320.238576 752.5,323 C752.5,325.688755 750.377693,327.881818 747.71689,327.99538 L747.5,328 L717.5,328 C714.738576,328 712.5,325.761424 712.5,323 C712.5,320.311245 714.622307,318.118182 717.28311,318.00462 L717.5,318 L747.5,318 Z M807.5,318 C810.261424,318 812.5,320.238576 812.5,323 C812.5,325.688755 810.377693,327.881818 807.71689,327.99538 L807.5,328 L777.5,328 C774.738576,328 772.5,325.761424 772.5,323 C772.5,320.311245 774.622307,318.118182 777.28311,318.00462 L777.5,318 L807.5,318 Z M867.5,318 C870.261424,318 872.5,320.238576 872.5,323 C872.5,325.688755 870.377693,327.881818 867.71689,327.99538 L867.5,328 L837.5,328 C834.738576,328 832.5,325.761424 832.5,323 C832.5,320.311245 834.622307,318.118182 837.28311,318.00462 L837.5,318 L867.5,318 Z M927.5,318 C930.261424,318 932.5,320.238576 932.5,323 C932.5,325.688755 930.377693,327.881818 927.71689,327.99538 L927.5,328 L897.5,328 C894.738576,328 892.5,325.761424 892.5,323 C892.5,320.311245 894.622307,318.118182 897.28311,318.00462 L897.5,318 L927.5,318 Z M987.5,318 C990.261424,318 992.5,320.238576 992.5,323 C992.5,325.688755 990.377693,327.881818 987.71689,327.99538 L987.5,328 L957.5,328 C954.738576,328 952.5,325.761424 952.5,323 C952.5,320.311245 954.622307,318.118182 957.28311,318.00462 L957.5,318 L987.5,318 Z M1047.5,318 C1050.26142,318 1052.5,320.238576 1052.5,323 C1052.5,325.688755 1050.37769,327.881818 1047.71689,327.99538 L1047.5,328 L1017.5,328 C1014.73858,328 1012.5,325.761424 1012.5,323 C1012.5,320.311245 1014.62231,318.118182 1017.28311,318.00462 L1017.5,318 L1047.5,318 Z M1107.5,318 C1110.26142,318 1112.5,320.238576 1112.5,323 C1112.5,325.688755 1110.37769,327.881818 1107.71689,327.99538 L1107.5,328 L1077.5,328 C1074.73858,328 1072.5,325.761424 1072.5,323 C1072.5,320.311245 1074.62231,318.118182 1077.28311,318.00462 L1077.5,318 L1107.5,318 Z"></path>
            </g>
        </g>
    </g>
</svg>