<?xml version="1.0" encoding="UTF-8"?>
<svg width="414px" height="139px" viewBox="0 0 414 139" version="1.1" xmlns="http://www.w3.org/2000/svg" xmlns:xlink="http://www.w3.org/1999/xlink">
    <title>Line 2 Copy 10</title>
    <g id="Animation" stroke="none" stroke-width="1" fill="none" fill-rule="evenodd">
        <g id="Artboard-1-Copy-6" transform="translate(-342.000000, -318.000000)" fill="#858C93" fill-rule="nonzero">
            <g id="Group-15">
                <path id="Line-2-Copy-10" d="M729,366.5 C731.688755,366.5 733.881818,368.622307 733.99538,371.28311 L734,371.5 L734,401.5 C734,402.022401 733.919885,402.526091 733.771271,402.999453 L752.778841,403 C754.557838,403 756,404.442162 756,406.221159 C756,406.721228 755.883571,407.21443 755.659933,407.661705 L755.659933,407.661705 L731.881445,455.218681 C731.085854,456.809865 729.15099,457.454819 727.559807,456.659228 C726.936424,456.347536 726.430952,455.842064 726.11926,455.218681 L726.11926,455.218681 L702.340772,407.661705 C701.545181,406.070522 702.190135,404.135659 703.781319,403.340067 C704.228594,403.116429 704.721796,403 705.221865,403 L705.221865,403 L724.228729,402.999453 C724.100788,402.591938 724.023614,402.161947 724.00462,401.71689 L724,401.5 L724,371.5 C724,368.738576 726.238576,366.5 729,366.5 Z M347,397.5 C349.688755,397.5 351.881818,399.622307 351.99538,402.28311 L352,402.5 L352,432.5 C352,435.261424 349.761424,437.5 347,437.5 C344.311245,437.5 342.118182,435.377693 342.00462,432.71689 L342,432.5 L342,402.5 C342,399.738576 344.238576,397.5 347,397.5 Z M347,337.5 C349.688755,337.5 351.881818,339.622307 351.99538,342.28311 L352,342.5 L352,372.5 C352,375.261424 349.761424,377.5 347,377.5 C344.311245,377.5 342.118182,375.377693 342.00462,372.71689 L342,372.5 L342,342.5 C342,339.738576 344.238576,337.5 347,337.5 Z M729,318 C731.688755,318 733.881818,320.122307 733.99538,322.78311 L734,323 L734,341.5 C734,344.261424 731.761424,346.5 729,346.5 C726.311245,346.5 724.118182,344.377693 724.00462,341.71689 L724,341.5 L724,327.999 L717.5,328 C714.811245,328 712.618182,325.877693 712.50462,323.21689 L712.5,323 C712.5,320.311245 714.622307,318.118182 717.28311,318.00462 L717.5,318 L729,318 Z M387.5,318 C390.261424,318 392.5,320.238576 392.5,323 C392.5,325.688755 390.377693,327.881818 387.71689,327.99538 L387.5,328 L357.5,328 C354.738576,328 352.5,325.761424 352.5,323 C352.5,320.311245 354.622307,318.118182 357.28311,318.00462 L357.5,318 L387.5,318 Z M447.5,318 C450.261424,318 452.5,320.238576 452.5,323 C452.5,325.688755 450.377693,327.881818 447.71689,327.99538 L447.5,328 L417.5,328 C414.738576,328 412.5,325.761424 412.5,323 C412.5,320.311245 414.622307,318.118182 417.28311,318.00462 L417.5,318 L447.5,318 Z M507.5,318 C510.261424,318 512.5,320.238576 512.5,323 C512.5,325.688755 510.377693,327.881818 507.71689,327.99538 L507.5,328 L477.5,328 C474.738576,328 472.5,325.761424 472.5,323 C472.5,320.311245 474.622307,318.118182 477.28311,318.00462 L477.5,318 L507.5,318 Z M567.5,318 C570.261424,318 572.5,320.238576 572.5,323 C572.5,325.688755 570.377693,327.881818 567.71689,327.99538 L567.5,328 L537.5,328 C534.738576,328 532.5,325.761424 532.5,323 C532.5,320.311245 534.622307,318.118182 537.28311,318.00462 L537.5,318 L567.5,318 Z M627.5,318 C630.261424,318 632.5,320.238576 632.5,323 C632.5,325.688755 630.377693,327.881818 627.71689,327.99538 L627.5,328 L597.5,328 C594.738576,328 592.5,325.761424 592.5,323 C592.5,320.311245 594.622307,318.118182 597.28311,318.00462 L597.5,318 L627.5,318 Z M687.5,318 C690.261424,318 692.5,320.238576 692.5,323 C692.5,325.688755 690.377693,327.881818 687.71689,327.99538 L687.5,328 L657.5,328 C654.738576,328 652.5,325.761424 652.5,323 C652.5,320.311245 654.622307,318.118182 657.28311,318.00462 L657.5,318 L687.5,318 Z"></path>
            </g>
        </g>
    </g>
</svg>