<?xml version="1.0" encoding="UTF-8"?>
<svg width="371px" height="142px" viewBox="0 0 371 142" version="1.1" xmlns="http://www.w3.org/2000/svg" xmlns:xlink="http://www.w3.org/1999/xlink">
    <title>Line 2 Copy 10</title>
    <g id="Animation" stroke="none" stroke-width="1" fill="none" fill-rule="evenodd">
        <g id="Artboard-1-Copy-4" transform="translate(-342.000000, -296.000000)" fill="#858C93" fill-rule="nonzero">
            <g id="Group-15">
                <path id="Line-2-Copy-10" d="M347,397.5 C349.688755,397.5 351.881818,399.622307 351.99538,402.28311 L352,402.5 L352,432.5 C352,435.261424 349.761424,437.5 347,437.5 C344.311245,437.5 342.118182,435.377693 342.00462,432.71689 L342,432.5 L342,402.5 C342,399.738576 344.238576,397.5 347,397.5 Z M347,337.5 C349.688755,337.5 351.881818,339.622307 351.99538,342.28311 L352,342.5 L352,372.5 C352,375.261424 349.761424,377.5 347,377.5 C344.311245,377.5 342.118182,375.377693 342.00462,372.71689 L342,372.5 L342,342.5 C342,339.738576 344.238576,337.5 347,337.5 Z M662.221159,296 C662.721228,296 663.21443,296.116429 663.661705,296.340067 L663.661705,296.340067 L711.218681,320.118555 C712.809865,320.914146 713.454819,322.84901 712.659228,324.440193 C712.347536,325.063576 711.842064,325.569048 711.218681,325.88074 L711.218681,325.88074 L663.661705,349.659228 C662.070522,350.454819 660.135659,349.809865 659.340067,348.218681 C659.116429,347.771406 659,347.278204 659,346.778135 L659,346.778135 L659,327.999 L657.5,328 C654.738576,328 652.5,325.761424 652.5,323 C652.5,320.311245 654.622307,318.118182 657.28311,318.00462 L657.5,318 L659,317.999 L659,299.221159 C659,297.503507 660.344417,296.09986 662.038372,296.005099 Z M387.5,318 C390.261424,318 392.5,320.238576 392.5,323 C392.5,325.688755 390.377693,327.881818 387.71689,327.99538 L387.5,328 L357.5,328 C354.738576,328 352.5,325.761424 352.5,323 C352.5,320.311245 354.622307,318.118182 357.28311,318.00462 L357.5,318 L387.5,318 Z M447.5,318 C450.261424,318 452.5,320.238576 452.5,323 C452.5,325.688755 450.377693,327.881818 447.71689,327.99538 L447.5,328 L417.5,328 C414.738576,328 412.5,325.761424 412.5,323 C412.5,320.311245 414.622307,318.118182 417.28311,318.00462 L417.5,318 L447.5,318 Z M507.5,318 C510.261424,318 512.5,320.238576 512.5,323 C512.5,325.688755 510.377693,327.881818 507.71689,327.99538 L507.5,328 L477.5,328 C474.738576,328 472.5,325.761424 472.5,323 C472.5,320.311245 474.622307,318.118182 477.28311,318.00462 L477.5,318 L507.5,318 Z M567.5,318 C570.261424,318 572.5,320.238576 572.5,323 C572.5,325.688755 570.377693,327.881818 567.71689,327.99538 L567.5,328 L537.5,328 C534.738576,328 532.5,325.761424 532.5,323 C532.5,320.311245 534.622307,318.118182 537.28311,318.00462 L537.5,318 L567.5,318 Z M627.5,318 C630.261424,318 632.5,320.238576 632.5,323 C632.5,325.688755 630.377693,327.881818 627.71689,327.99538 L627.5,328 L597.5,328 C594.738576,328 592.5,325.761424 592.5,323 C592.5,320.311245 594.622307,318.118182 597.28311,318.00462 L597.5,318 L627.5,318 Z"></path>
            </g>
        </g>
    </g>
</svg>