<svg width="14" height="14" xmlns="http://www.w3.org/2000/svg"><path d="M5.969 1.094l.687-.688a.723.723 0 01.531-.218c.209 0 .386.072.532.218L13.78 6.47A.723.723 0 0114 7a.723.723 0 01-.219.531L7.72 13.594a.723.723 0 01-.532.218.723.723 0 01-.53-.218l-.688-.688a.635.635 0 01-.235-.531.782.782 0 01.235-.531L9.72 8.25H.75a.723.723 0 01-.531-.219A.723.723 0 010 7.5v-1c0-.208.073-.385.219-.531A.723.723 0 01.75 5.75h8.969l-3.75-3.594a.782.782 0 01-.235-.531.635.635 0 01.235-.531z" fill="#FFF"/></svg>