<svg xmlns="http://www.w3.org/2000/svg" width="1024" height="450.4"><g transform="translate(37 -2030)"><linearGradient id="a" x1="-135.712" x2="1088.426" y1="-5.917" y2="409.063" gradientUnits="userSpaceOnUse" gradientTransform="matrix(1 0 0 -1 37 2502.801)"><stop offset="0" stop-color="#2D2B6E"/><stop offset="1" stop-color="#46C3E0"/></linearGradient><path d="M-37 2490.4s-103.9-353.3 40-353.3 340.8 149.6 597.1 92.4C856.4 2172.3 864.9 2030 1027 2030c162.1 0-35 450.4-35 450.4l-1029 10z" fill="url(#a)"/></g><g transform="translate(37 -2030)" opacity=".5"><linearGradient id="b" x1="-74" x2="955" y1="17.801" y2="448.801" gradientUnits="userSpaceOnUse" gradientTransform="matrix(1 0 0 -1 37 2502.801)"><stop offset="0" stop-color="#2D2B6E"/><stop offset="1" stop-color="#46C3E0"/></linearGradient><path d="M-32 2485l-5-431s201.9 169.2 512 79.1c310-90.2 512 99.3 512 99.3l5 252.6H-32z" fill="url(#b)"/></g><g transform="translate(37 -2030)"><linearGradient id="c" x1="-49.271" x2="1000.729" y1="-59.793" y2="279.207" gradientUnits="userSpaceOnUse" gradientTransform="matrix(1 0 0 -1 37 2502.801)"><stop offset="0" stop-color="#2D2B6E" stop-opacity=".78"/><stop offset="1" stop-color="#46C3E0" stop-opacity=".78"/></linearGradient><path d="M992.4 2486H-37v-144.7c130-101.8 300.7-61.6 512.2-22.9 317.3 58.1 392.6-171.4 512.2-171.4 48.5 0 5 61.2 5 61.2V2486z" fill="url(#c)"/></g></svg>