<svg xmlns="http://www.w3.org/2000/svg" xmlns:xlink="http://www.w3.org/1999/xlink" width="160" height="72"><defs><path id="a" d="M969 500a5 5 0 0110 0v47h-10z"/><path id="b" d="M939 517a5 5 0 0110 0v31h-10z"/><path id="c" d="M909 500a5 5 0 0110 0v47h-10z"/><path id="d" d="M879 481a5 5 0 0110 0v66h-10z"/><path id="e" d="M849 500a5 5 0 0110 0v48h-10z"/><path id="f" d="M819 522a5 5 0 0110 0v26h-10z"/></defs><use fill="#fff" xlink:href="#a" transform="translate(-819 -476)"/><use fill="#fff" xlink:href="#b" transform="translate(-819 -476)"/><use fill="#fff" xlink:href="#c" transform="translate(-819 -476)"/><use fill="#fff" xlink:href="#d" transform="translate(-819 -476)"/><use fill="#fff" xlink:href="#e" transform="translate(-819 -476)"/><use fill="#fff" xlink:href="#f" transform="translate(-819 -476)"/></svg>