<svg xmlns="http://www.w3.org/2000/svg" width="1024" height="363.8"><g transform="translate(76.95 -678.62)"><linearGradient id="a" x1="949.846" x2="-142.604" y1="93.019" y2="277.799" gradientUnits="userSpaceOnUse" gradientTransform="matrix(1 0 0 -1 76.95 1060.62)"><stop offset="0" stop-color="#fff"/><stop offset="1" stop-color="#fff"/></linearGradient><path d="M-76.9 1057.7s-143.9-277.4 0-277.4 340.8 142.2 597.1 87.8C776.5 813.8 784.9 678.6 947 678.6c162.1 0 0 379.1 0 379.1H-76.9z" fill="url(#a)"/></g><g transform="translate(76.95 -678.62)" opacity=".5"><linearGradient id="b" x1="-187.894" x2="847.396" y1="242.03" y2="15.28" gradientUnits="userSpaceOnUse" gradientTransform="matrix(1 0 0 -1 76.95 1060.62)"><stop offset="0" stop-color="#ecedf3"/><stop offset="1" stop-color="#ecedf3"/></linearGradient><path d="M-76.9 1060.2V702.1s201.9 160.7 512 75.1 512 94.3 512 94.3v188.7h-1024z" fill="url(#b)"/></g><g transform="translate(76.95 -678.62)"><linearGradient id="c" x1="373.735" x2="373.735" y1="114.55" y2="232.28" gradientUnits="userSpaceOnUse" gradientTransform="matrix(1 0 0 -1 76.95 1060.62)"><stop offset="0" stop-color="#fff" stop-opacity=".78"/><stop offset="1" stop-color="#F2F3F7" stop-opacity=".78"/></linearGradient><path d="M-100.3 1042.4h1125.6V904.8C882.5 808 694.9 846.2 462.5 883 113.9 938.3 31.2 720-100.3 720c-53.3 0 0 55.8 0 55.8v266.6z" fill="url(#c)"/></g></svg>