<svg xmlns="http://www.w3.org/2000/svg" width="1024" height="304"><defs><linearGradient id="a" x1="0%" y1="100%" y2="0%"><stop stop-color="#2D2C6F" offset="0%"/><stop stop-color="#46C4E0" offset="100%"/></linearGradient><linearGradient id="b" x1="75.222%" x2="75.222%" y1="10.117%" y2="100%"><stop stop-color="#fff" stop-opacity=".893" offset="0%"/><stop stop-color="#fff" stop-opacity="0" offset="100%"/></linearGradient></defs><g fill="none"><path fill="url(#a)" d="M253 0h1024v304H253z" transform="translate(-253)"/><path fill="url(#b)" d="M97.78 304L0 97.35c182.1-68.55 352.24-3.84 454.24 33 102 36.86 232.97 39.2 358.54 0 188.37-58.77 375.7-53.43 562 16.02V304h-1277z" style="mix-blend-mode:overlay" opacity=".4" transform="matrix(-1 0 0 1 1121.776 0)"/><path fill="url(#b)" d="M245.78 303.8L148 38.5c182.1-88 244.77 187.68 505.88 187.68 261.1 0 320.1-187.68 498.68-187.68 119.04 0 178.56 57.33 178.56 171.98l191.66 93.32h-1277z" style="mix-blend-mode:overlay" opacity=".162" transform="translate(-253)"/></g></svg>