<svg xmlns="http://www.w3.org/2000/svg" width="1024" height="830"><g fill="none"><path fill="#fff" fill-rule="evenodd" d="M0 0v830h1024V177L0 0z" clip-rule="evenodd"/><mask id="a" width="1024" height="830" x="0" y="0" maskUnits="userSpaceOnUse"><path fill="#fff" fill-rule="evenodd" d="M0 0v830h1024V177L0 0z" clip-rule="evenodd"/></mask><g mask="url(#a)"><path stroke="#F2F3F7" d="M-365.3 840.23S-282.72 293 195.8 293c478.52 0 681.5 547.23 681.5 547.23H-365.3z" stroke-linecap="square" stroke-dasharray="12 7"/><path stroke="#F2F3F7" d="M198 840.48S282.2 282.5 770.1 282.5c487.94 0 694.9 557.98 694.9 557.98H198z" stroke-linecap="square" stroke-dasharray="12 7"/><path fill="#F2F3F7" fill-rule="evenodd" d="M217 751c7.73 0 14-6.27 14-14s-6.27-14-14-14-14 6.27-14 14 6.27 14 14 14zm160-421c7.73 0 14-6.27 14-14s-6.27-14-14-14-14 6.27-14 14 6.27 14 14 14zm348 414c7.73 0 14-6.27 14-14s-6.27-14-14-14-14 6.27-14 14 6.27 14 14 14zM0 145.5c0-4.14 3.36-7.5 7.5-7.5h209c4.14 0 7.5 3.36 7.5 7.5 0 4.14-3.36 7.5-7.5 7.5H7.5c-4.14 0-7.5-3.36-7.5-7.5zM685 536c0-3.87 3.13-7 7-7h276c3.87 0 7 3.13 7 7s-3.13 7-7 7H692c-3.87 0-7-3.13-7-7zM50 170.5c0-4.14 3.36-7.5 7.5-7.5h209c4.14 0 7.5 3.36 7.5 7.5 0 4.14-3.36 7.5-7.5 7.5h-209c-4.14 0-7.5-3.36-7.5-7.5z" clip-rule="evenodd"/></g></g></svg>