<svg xmlns="http://www.w3.org/2000/svg" width="1024" height="664"><path fill="#FFF" d="M874.05 165.45h44.761v37.65h-44.75v-37.65h-.011z"/><path fill="#FFF" d="M852.039 168.8h44.77v37.65h-44.77V168.8zM78.5 276c43.35 0 78.5-35.15 78.5-78.5S121.85 119 78.5 119 0 154.15 0 197.5 35.15 276 78.5 276z"/><path fill="#FFF" d="M79 266c37.56 0 68-30.44 68-68s-30.44-68-68-68-68 30.44-68 68 30.44 68 68 68z"/><g transform="translate(-73 -1)"><g transform="translate(866)"><linearGradient id="a" gradientUnits="userSpaceOnUse" x1="-2515" y1="388.598" x2="-2515" y2="387.598" gradientTransform="matrix(1 0 0 388.374 2594.5 -150532.734)"><stop offset="0" stop-color="#fff"/><stop offset="1" stop-color="#fff" stop-opacity="0"/></linearGradient><path fill="none" stroke="url(#a)" stroke-linecap="square" d="M79.5.13V388.5"/><circle cx="79" cy="199" r="63"/><circle fill="#FFF" cx="79" cy="199" r="63"/><path fill="none" stroke="#00BFD6" stroke-width="2" stroke-linecap="round" stroke-linejoin="round" d="M65.4 200.12l7.4-11.62 5.65 8.02 7.36-7.04 5.699 5.3 8.5-20.021"/><path fill="none" stroke="#2D2C6F" stroke-width="2" d="M103.809 207.45h-44.77V169.8"/><path fill="none" stroke="#2D2C6F" stroke-width="2" stroke-linejoin="round" d="M54 179.7h5m-5 11.26h5m-5 11.28h5m5.34 10.14v-4.97m10.8 4.97v-4.97m10.81 4.97v-4.97m10.8 4.97v-4.97"/><path fill="none" stroke="#FFF" stroke-width="1.2" stroke-dasharray="2.4,2.4" d="M78.5 276c43.35 0 78.5-35.15 78.5-78.5S121.85 119 78.5 119 0 154.15 0 197.5 35.15 276 78.5 276z"/><path fill="none" stroke="#FFF" stroke-width="1.2" stroke-dasharray="2.4,2.4" d="M79 266c37.561 0 68-30.44 68-68s-30.439-68-68-68-68 30.44-68 68 30.439 68 68 68z"/><path fill="#00181B" d="M42.93 230.05l.301-.42c.22-.3.5-.33.819-.1.83.67 1.7 1 2.601 1 .729 0 1.35-.22 1.85-.65.5-.44.75-1 .75-1.67 0-.74-.28-1.3-.85-1.72-.57-.4-1.271-.6-2.101-.6h-.4c-.301 0-.53-.16-.67-.45l-.051-.1c-.119-.28-.069-.54.15-.78l2.439-2.9c.131-.14.261-.28.4-.42.12-.14.22-.24.3-.3l.101-.1v-.04c-.26.02-.62.04-1.101.04h-3.7a.59.59 0 01-.43-.16c-.109-.11-.15-.24-.15-.43v-.36c0-.4.2-.6.58-.6h6.4c.4 0 .6.18.6.55v.16c0 .3-.1.54-.26.73l-3.199 3.68c.359.04.699.12 1.05.22.35.1.67.27 1 .47.329.2.62.43.859.7.24.28.44.62.601 1.02.16.4.22.84.22 1.32 0 .54-.101 1.06-.3 1.56-.221.5-.5.92-.87 1.3-.37.37-.83.66-1.38.9-.551.2-1.141.32-1.771.32-1.3 0-2.54-.45-3.7-1.35-.3-.23-.319-.5-.1-.82h.012zm10.2-3v-.36c0-.2.06-.34.16-.45.1-.11.24-.16.43-.16h4.07c.399 0 .6.2.6.6v.35c0 .4-.2.6-.6.6h-4.07c-.399 0-.6-.2-.6-.6l.01.02zm7.4 2.98l.3-.4c.22-.3.5-.32.8-.08.681.66 1.46.98 2.34.98.771 0 1.42-.24 1.97-.72.551-.48.801-1.1.801-1.85s-.26-1.38-.801-1.87c-.56-.5-1.25-.74-2.069-.74-.55 0-1.13.15-1.75.45-.3.1-.561.1-.8.03l-.141-.06c-.33-.13-.479-.36-.439-.7l.54-5.22c.04-.37.239-.56.6-.56h5.25c.4 0 .601.2.601.6v.35c0 .4-.2.6-.601.6h-4.26l-.3 2.66c-.021.12-.03.24-.051.35-.02.11-.02.2-.029.26l-.03.1h.03c.06-.04.13-.08.229-.12.101-.05.3-.1.57-.18.3-.07.57-.1.85-.1.87 0 1.641.18 2.3.55.7.37 1.2.87 1.57 1.5.36.63.54 1.32.54 2.1 0 1.2-.43 2.23-1.28 3.05-.85.8-1.92 1.22-3.199 1.22-1.37 0-2.53-.46-3.5-1.4-.301-.23-.301-.5-.051-.8h.01zm9.33 1.77c-.08-.14-.05-.32.079-.52l2.65-3.96-2.5-3.7c-.13-.2-.15-.38-.08-.52s.24-.2.48-.2h.68c.32 0 .55.13.7.4l1.46 2.36.3.55h.03c.12-.2.22-.38.3-.54l1.46-2.35c.15-.27.38-.4.7-.4h.67c.24 0 .399.06.479.2.08.14.051.3-.1.52l-2.46 3.7 2.66 3.96c.13.2.16.38.08.5-.08.15-.24.22-.5.22h-.63a.776.776 0 01-.7-.4l-1.68-2.64-.28-.5h-.04c-.08.2-.17.35-.271.5l-1.68 2.63c-.15.26-.38.4-.7.4h-.64c-.25 0-.4-.07-.48-.2l.013-.01zm14.079-.4v-11.5c0-.4.2-.6.601-.6h3.42c1.08 0 1.87.1 2.37.33.6.28 1.1.7 1.46 1.28.35.6.53 1.27.53 2.06 0 .82-.2 1.55-.601 2.2a3.22 3.22 0 01-1.659 1.3v.021c.1.13.229.32.369.58l2.301 4.24c.1.2.13.37.05.5s-.24.2-.47.2h-.72c-.32 0-.56-.14-.7-.4l-2.479-4.66h-2.7v4.46c0 .4-.2.6-.6.6h-.58c-.4 0-.601-.2-.601-.6l.009-.011zm1.771-6h2.56c.7 0 1.25-.22 1.66-.65s.601-1 .601-1.7c0-1-.38-1.65-1.181-2-.34-.14-.84-.2-1.5-.2H85.7v4.54l.01.01zm8.43.16c0-.9.171-1.75.5-2.55.33-.8.771-1.48 1.351-2.06.58-.58 1.26-1.02 2.07-1.36.8-.33 1.68-.5 2.6-.5s1.8.17 2.62.5c.8.34 1.5.8 2.06 1.36.561.56 1 1.27 1.34 2.07s.5 1.66.5 2.56c0 .93-.17 1.8-.5 2.62-.33.82-.779 1.53-1.34 2.12-.57.6-1.26 1.06-2.07 1.4-.83.35-1.699.521-2.619.521s-1.801-.17-2.601-.521c-.819-.34-1.52-.8-2.1-1.4a6.943 6.943 0 01-1.84-4.74l.029-.02zm1.84 0c0 .7.119 1.36.35 1.98.24.62.57 1.15.98 1.6.43.44.93.8 1.5 1.05.6.25 1.22.38 1.879.38 1.341 0 2.461-.48 3.341-1.44.899-.96 1.34-2.15 1.34-3.58 0-1.38-.45-2.53-1.34-3.45-.88-.92-2-1.38-3.341-1.38-.879 0-1.699.2-2.399.64s-1.3 1-1.7 1.73-.6 1.55-.6 2.46l-.01.01zm13.55 5.84v-11.5c0-.4.2-.6.6-.6h.57c.399 0 .6.2.6.6v11.5c0 .4-.2.6-.6.6h-.57c-.4 0-.6-.2-.6-.6z"/></g><path d="M712.24 335L696 347l-16.24-12H599c-4.42 0-8-3.58-8-8v-80c0-4.42 3.58-8 8-8h187c4.42 0 8 3.58 8 8v80c0 4.42-3.58 8-8 8h-73.76z"/><path fill="#FFF" d="M712.24 335L696 347l-16.24-12H599c-4.42 0-8-3.58-8-8v-80c0-4.42 3.58-8 8-8h187c4.42 0 8 3.58 8 8v80c0 4.42-3.58 8-8 8h-73.76z"/><path fill="#00BFD6" d="M654.15 301.94c0-1.32.46-2.47 1.38-3.45.92-.98 2.12-1.58 3.6-1.8v-1.65c0-.6.3-.9.87-.9h.2c.569 0 .85.27.85.8v1.72c1.47.08 2.8.54 4 1.37.4.28.5.68.23 1.22l-.341.67c-.3.5-.699.6-1.239.25-1.12-.72-2.261-1.08-3.44-1.08-1 0-1.83.27-2.5.8-.64.55-.97 1.2-.97 2 0 .4.1.76.32 1.1.22.34.5.62.87.87.369.25.76.48 1.229.7.47.23.96.45 1.479.66.53.22 1.051.45 1.561.7.5.23 1 .5 1.46.83.47.32.88.66 1.24 1.04.359.38.649.84.859 1.38.221.54.32 1.141.32 1.8 0 1.37-.45 2.55-1.36 3.53-.92 1-2.159 1.58-3.729 1.76v1.62c0 .601-.28.9-.84.9H660c-.58 0-.87-.261-.87-.78v-1.74c-1.72-.149-3.28-.779-4.67-1.87-.47-.369-.5-.779-.14-1.239l.439-.62c.32-.44.75-.5 1.271-.16 1.3 1 2.68 1.479 4.13 1.479.93 0 1.72-.25 2.37-.75.649-.5.96-1.18.96-2.05 0-.42-.12-.8-.33-1.16-.221-.359-.5-.67-.87-.93-.36-.26-.771-.5-1.24-.75-.47-.229-.96-.47-1.479-.7-.521-.22-1.04-.46-1.551-.7-.51-.24-1-.52-1.47-.83-.46-.33-.87-.67-1.229-1.03-.36-.36-.65-.8-.86-1.33a4.36 4.36 0 01-.319-1.7l.008.02zm14.27 11.13l.43-.62c.351-.44.761-.5 1.24-.17 1.24 1 2.55 1.52 3.9 1.52 1.1 0 2.02-.33 2.77-.979.75-.66 1.13-1.5 1.13-2.5 0-1.12-.43-2-1.279-2.601-.851-.6-1.9-.92-3.15-.92h-.6c-.46 0-.8-.22-1-.65l-.08-.16c-.2-.43-.12-.8.22-1.17l3.66-4.36c.199-.2.38-.42.58-.63l.449-.45.17-.17v-.05c-.379.05-.92.08-1.619.08h-5.551c-.279 0-.5-.08-.659-.23-.16-.15-.24-.38-.24-.66v-.54c0-.6.3-.9.899-.9h9.601c.6 0 .899.3.899.85v.24c0 .43-.14.8-.399 1.08l-4.8 5.5c.55.07 1.07.17 1.57.34.5.16 1 .4 1.5.7.5.3.93.66 1.3 1.07.359.43.659.93.899 1.54s.33 1.261.33 1.971c0 .83-.15 1.6-.47 2.35-.3.74-.74 1.4-1.3 1.94-.551.55-1.24 1-2.061 1.33-.819.33-1.699.5-2.649.5-1.96 0-3.8-.681-5.55-2.03-.44-.351-.48-.76-.15-1.23l.01.009zm14.25 5.28l1.4-4.43c.14-.5.47-.75 1-.75h.84c.35 0 .58.1.7.3.14.181.14.431 0 .721l-1.82 4.479c-.17.45-.521.67-1.06.67h-.301c-.3 0-.539-.1-.67-.27-.13-.181-.16-.431-.08-.73l-.009.01zm6.81-3.25v-.54c0-.6.3-.88.899-.88h3.3v-12.3l.03-1.17h-.04c-.17.3-.45.64-.84 1.03l-1.22 1.2c-.44.4-.86.4-1.24-.04l-.38-.4c-.42-.4-.42-.83 0-1.25l3.46-3.38c.3-.3.68-.43 1.08-.43h.88c.6 0 .88.3.88.9v15.84h3.3c.601 0 .88.301.88.88v.54c0 .601-.3.9-.899.9h-9.18c-.601 0-.9-.3-.9-.9h-.01zm12.59 0v-.56c0-.73.1-1.42.3-2.06.22-.65.5-1.221.86-1.7.359-.48.75-.98 1.199-1.431.46-.449.94-.859 1.44-1.239.5-.36 1-.73 1.5-1.101.5-.37 1-.7 1.47-1.04.47-.34.88-.7 1.24-1.08.359-.36.65-.76.87-1.2.2-.44.319-.9.319-1.37 0-.93-.319-1.7-.96-2.27-.64-.57-1.45-.88-2.46-.88-1.319 0-2.439.58-3.369 1.75-.4.47-.801.53-1.2.18l-.45-.37c-.46-.36-.53-.76-.23-1.2.2-.32.46-.6.74-.9.28-.3.641-.6 1.1-.9.431-.34.961-.6 1.601-.8.6-.18 1.28-.28 1.979-.28 1.75 0 3.2.5 4.32 1.52 1.12 1 1.7 2.33 1.7 3.97a5.916 5.916 0 01-1.16 3.5c-.36.45-.76.9-1.22 1.32-.45.42-.931.8-1.44 1.16-.5.36-1 .7-1.52 1.04-.5.34-1 .68-1.45 1.02-.46.34-.87.7-1.23 1.04a4.55 4.55 0 00-.859 1.16c-.221.42-.33.87-.34 1.34h8.64c.6 0 .88.3.88.88v.54c0 .601-.3.9-.87.9H703a.99.99 0 01-.67-.23c-.17-.149-.26-.38-.26-.67v-.039zm15.27-2.06l.44-.6c.34-.431.75-.471 1.2-.101 1.029.97 2.199 1.46 3.52 1.46 1.15 0 2.141-.359 2.95-1.08.819-.729 1.229-1.66 1.229-2.8s-.399-2.06-1.239-2.8c-.82-.74-1.851-1.1-3.101-1.1-.8 0-1.699.2-2.6.66-.45.16-.85.18-1.2.07l-.229-.1c-.48-.2-.7-.54-.65-1.04l.82-7.82c.06-.56.359-.84.899-.84h7.87c.6 0 .9.3.9.9v.53c0 .6-.301.9-.9.9h-6.4l-.449 4c-.03.17-.051.33-.07.5-.02.17-.03.3-.05.4l-.03.1h.05c.08-.03.2-.1.341-.15.14-.07.43-.16.859-.27.43-.11.85-.16 1.26-.16 1.301 0 2.471.27 3.48.82 1.02.56 1.8 1.3 2.33 2.25.54.95.8 2 .8 3.13 0 1.84-.63 3.369-1.9 4.6-1.3 1.22-2.899 1.83-4.8 1.83-2.06 0-3.8-.7-5.25-2.08-.439-.36-.46-.76-.08-1.2v-.009z"/><path fill="#00181B" d="M610.2 265l3.569-9.88h1.461l3.55 9.88h-1.44l-1-2.84h-3.72l-.979 2.84H610.2zm2.78-4h3l-1.101-3.12-.37-1.4h-.02c-.15.6-.28 1.08-.4 1.4L613 261h-.02zm6.02-3.08h1.43l1.721 4.78c.06.2.1.33.119.42.021.1.051.25.101.4l.02.15h.021l.029-.15.101-.4c.04-.15.08-.3.12-.42l1.72-4.78h1.42l-2.6 7.08H621.6l-2.63-7.08h.03zm7.52 3.38c0-1.06.28-1.9.83-2.56.551-.66 1.301-1 2.271-1 .3 0 .6.04.88.1.27.08.48.17.641.28.18.12.3.22.399.3.13.12.2.2.229.28l.07.1h.03c0-.1-.021-.17-.021-.23v-.65h1.301v6.8c0 .54-.101 1.03-.301 1.47a2.47 2.47 0 01-.83 1c-.329.25-.699.43-1.119.55-.4.13-.851.2-1.301.2-.85 0-1.659-.2-2.43-.6l.45-1.06c.6.3 1.24.46 1.94.46.67 0 1.199-.16 1.619-.48.4-.32.62-.83.62-1.5v-.97h-.02c-.431.75-1.13 1.12-2.101 1.12-.97 0-1.72-.35-2.3-1.03-.569-.7-.859-1.56-.859-2.6l.002.02zm1.38-.04c0 .75.199 1.35.55 1.8.38.45.88.68 1.5.68.55 0 1-.2 1.35-.57.351-.4.521-1 .521-1.87 0-1.58-.66-2.38-2-2.38-.601 0-1.07.2-1.4.62-.351.42-.521 1-.521 1.72zm7.38 3.74v-1.4h1.43v1.4h-1.43zm6.2 0l3.56-9.88h1.45l3.55 9.88h-1.44l-1-2.84h-3.7l-1 2.84h-1.42zm2.77-4h3l-1.1-3.12-.37-1.4h-.03c-.16.6-.3 1.08-.4 1.4l-1.1 3.13V261zm6.97 4v-7.08h1.32v.93l-.03.52h.04c.181-.4.5-.77.95-1.1s1-.52 1.7-.52c1.62 0 2.43.9 2.43 2.7V265h-1.35v-4.22c0-.57-.101-1-.28-1.32-.2-.3-.54-.47-1.07-.47-.529 0-1 .15-1.399.48-.4.32-.681.74-.83 1.25-.08.26-.12.58-.12.95V265h-1.361zm8.44 0v-7.08h1.3v1.45c.2-.4.5-.77.96-1.1s1.02-.52 1.7-.52c1.63 0 2.45.9 2.45 2.7V265h-1.36v-4.22c0-.57-.08-1-.271-1.32-.18-.3-.539-.47-1.06-.47-.53 0-1 .15-1.399.48-.4.32-.7.74-.841 1.25-.08.26-.12.58-.12.95V265h-1.359zm8.34-2.55v-4.53h1.35v4.2c0 .6.101 1.03.271 1.32.18.3.54.45 1.06.45.7 0 1.25-.27 1.67-.78.42-.53.631-1.16.631-1.9v-3.3h1.35V265h-1.3v-.94l.02-.53h-.02c-.181.42-.5.8-.97 1.13-.471.34-1.021.5-1.641.5-1.62 0-2.43-.9-2.43-2.7l.009-.01zm7.9.55c0-1.62 1.399-2.43 4.26-2.43h.3v-.13c0-1.03-.5-1.54-1.54-1.54-.3 0-.63.05-.979.17-.3.1-.561.2-.74.33l-.25.18-.57-1c.05-.04.16-.12.33-.23.13-.08.431-.2.92-.37.45-.16.92-.23 1.4-.23.899 0 1.6.24 2.1.7.47.5.72 1.18.72 2.07V265h-1.25v-.67l.021-.56h-.03l-.1.15c-.03.07-.1.18-.221.33-.129.16-.27.3-.43.43-.16.12-.37.23-.649.33-.28.12-.58.17-.9.17-.65 0-1.22-.2-1.7-.57-.47-.38-.7-.9-.7-1.6l.008-.01zm1.37-.06c0 .3.12.57.36.8.22.23.55.34.97.34.54 0 1-.24 1.351-.7.35-.48.53-1 .53-1.56v-.22h-.351c-1.9 0-2.86.44-2.86 1.34zm6.49.13v-7.95h1.36v7.72c0 .4.06.66.2.8.13.14.3.2.56.2h.23v1.2h-.44c-1.26 0-1.9-.65-1.9-1.97h-.01zm7-3.07c0-1.44.48-2.64 1.43-3.6s2.15-1.45 3.601-1.45c.44 0 .87.04 1.271.13.399.1.739.2 1.02.32.25.12.48.25.7.38.18.1.33.229.439.33l.141.14-.681 1.04a2.252 2.252 0 00-.369-.3c-.17-.13-.5-.3-.98-.48-.5-.2-1-.3-1.5-.3-1.1 0-1.97.36-2.64 1.08-.671.73-1 1.63-1 2.7 0 1.08.329 2 1.02 2.77.681.76 1.56 1.14 2.64 1.14.541 0 1.07-.1 1.58-.33.5-.2.881-.42 1.12-.64l.351-.32.75 1c-.021.03-.08.1-.16.18-.08.06-.24.2-.48.37a5.4 5.4 0 01-.8.47c-.28.15-.63.27-1.06.38-.44.1-.9.17-1.34.17-1.471 0-2.681-.5-3.631-1.5-.97-1-1.439-2.2-1.439-3.67l.017-.01zm9.98 1.45c0-1.07.37-1.95 1.1-2.65.74-.7 1.65-1.05 2.72-1.05 1.061 0 1.971.35 2.7 1.05.75.7 1.1 1.58 1.1 2.65 0 1.06-.359 1.94-1.1 2.65-.74.72-1.64 1.07-2.7 1.07-1.069 0-1.97-.35-2.7-1.07-.751-.7-1.12-1.6-1.12-2.65zm1.38 0c0 .73.24 1.34.7 1.8.5.5 1.06.75 1.74.75.68 0 1.25-.25 1.729-.73.46-.47.7-1.08.7-1.82 0-.73-.24-1.34-.7-1.8-.5-.5-1.06-.73-1.74-.73-.68 0-1.25.24-1.729.72-.471.47-.7 1.08-.7 1.8v.01zm7.28 2.68l.67-.96c.04.05.119.13.25.23.1.08.33.2.699.36.351.16.7.24 1.08.24.301 0 .601-.08.83-.24a.75.75 0 00.351-.65c0-.22-.13-.43-.38-.6-.24-.18-.551-.33-.9-.47-.37-.14-.73-.3-1.08-.45a2.5 2.5 0 01-.9-.7c-.26-.32-.399-.7-.399-1.12 0-.62.26-1.1.739-1.47.48-.37 1.101-.55 1.83-.55.45 0 .87.06 1.261.2.37.12.63.25.8.38l.2.2-.53 1.02c-.04-.03-.1-.1-.2-.17s-.3-.17-.6-.28c-.3-.12-.62-.18-.95-.18s-.6.08-.83.22c-.22.14-.34.36-.34.65 0 .22.14.42.4.6.229.16.539.3.899.45.4.15.75.3 1.07.44.35.15.649.4.899.7.261.32.4.68.4 1.1 0 .6-.25 1.1-.72 1.5-.47.38-1.101.57-1.851.57-.5 0-1-.1-1.449-.26-.44-.16-.75-.33-.94-.52l-.3-.25-.009.01zm6.22-5.03V258h.97v-2.03h1.3V258h1.7v1.1h-1.7v3.16c0 .26.04.5.12.7.08.22.17.37.271.47.1.1.229.2.37.27.119.06.25.1.399.12.101.02.2.03.34.03l.341-.03v1.2c-.101.03-.271.03-.48.03-.22 0-.43 0-.64-.04-.2 0-.431-.08-.7-.2-.271-.1-.5-.25-.68-.44-.2-.18-.36-.44-.5-.78-.12-.32-.2-.7-.2-1.17v-3.3h-.92l.009-.02zm7.48 4.4l.23-.33c.1-.13.2-.2.33-.2.1 0 .2.04.3.1.74.55 1.45.82 2.16.82.52 0 .939-.14 1.26-.4.3-.25.47-.6.47-1.03 0-.3-.1-.55-.26-.78-.2-.24-.42-.44-.7-.6-.27-.15-.58-.3-.92-.45-.34-.15-.67-.3-1-.47s-.66-.36-.939-.57c-.28-.21-.5-.46-.681-.8-.18-.34-.27-.7-.27-1.1 0-.83.3-1.5.9-2 .6-.5 1.379-.75 2.3-.75.529 0 1 .08 1.45.24.449.14.8.32 1.02.5.14.1.2.22.2.37 0 .08 0 .17-.05.26l-.2.35c-.101.15-.2.23-.341.23a.621.621 0 01-.3-.1c-.63-.38-1.229-.57-1.8-.57-.529 0-.96.13-1.3.38-.32.26-.5.6-.5 1.02 0 .3.1.54.28.76.17.23.399.4.68.56.28.16.6.3.92.43.34.14.68.3 1.021.46.329.17.64.36.92.57.28.2.5.48.7.82.199.34.25.7.25 1.14 0 .8-.28 1.47-.851 2-.569.53-1.319.8-2.28.8-.63 0-1.199-.1-1.72-.3-.52-.2-.94-.46-1.25-.7-.12-.12-.18-.24-.18-.35 0-.1.04-.2.12-.3l.031-.01zm7.15-.43c0-.3.05-.6.16-.83.12-.25.25-.45.43-.62.17-.17.38-.3.63-.43s.5-.23.73-.3c.229-.07.5-.13.8-.17s.55-.07.78-.08c.229 0 .46-.02.7-.02h.359v-.18c0-1.04-.5-1.55-1.54-1.55-.55 0-1.1.15-1.6.45-.101.04-.2.06-.271.06-.149 0-.27-.07-.369-.22l-.101-.2c-.07-.1-.1-.2-.1-.3 0-.14.08-.25.239-.33.7-.4 1.461-.6 2.301-.6.88 0 1.56.24 2.05.7.5.5.729 1.18.729 2.07v4.02c0 .3-.149.46-.46.46h-.34c-.3 0-.46-.16-.46-.46v-.65c.02-.08.03-.14.04-.17v-.05h-.021l-.08.16c-.039.07-.13.2-.26.36-.13.17-.279.32-.439.45s-.381.25-.65.36c-.26.12-.56.17-.87.17-.649 0-1.2-.2-1.68-.57-.48-.37-.7-.9-.7-1.53h-.007zm1.37-.1c0 .3.12.57.35.8.24.22.561.33.97.33.381 0 .721-.1 1.021-.35s.53-.52.67-.86c.15-.35.229-.7.229-1.06v-.3h-.369c-1.92 0-2.881.47-2.881 1.42l.01.02zm5.68-4.52c-.069-.16-.06-.3 0-.4.07-.08.181-.13.351-.13h.479c.271 0 .44.12.521.37l1.6 4.4c.03.12.07.26.12.42.04.16.069.3.1.4l.03.15h.02c.101-.4.17-.7.261-.97l1.6-4.4c.07-.26.24-.38.5-.38h.5c.16 0 .271.05.34.14.07.1.07.23 0 .4l-2.3 6.18c-.06.24-.24.36-.5.36h-.8c-.25 0-.431-.12-.5-.36l-2.33-6.2.008.02zm7.67-2.41v-.46c0-.3.15-.46.47-.46h.48c.3 0 .46.15.46.46v.46c0 .14-.04.26-.12.34s-.2.12-.34.12h-.48c-.32 0-.47-.15-.47-.46zm0 8.5v-6.16c0-.3.17-.46.48-.46h.43c.32 0 .47.15.47.46v6.16c0 .3-.149.46-.47.46h-.43c-.3 0-.47-.16-.47-.46h-.01zm3.33 0v-6.16c0-.3.15-.46.47-.46h.4c.3 0 .46.15.46.46v.62l-.04.42c.1-.18.2-.35.34-.53.141-.18.301-.36.53-.54.23-.18.48-.33.8-.45.32-.1.66-.15 1.03-.15.82 0 1.42.22 1.82.67.399.45.6 1.13.6 2.04v4.08c0 .3-.17.46-.47.46h-.43c-.301 0-.461-.16-.461-.46v-3.76c0-.28-.02-.5-.05-.7-.02-.2-.1-.4-.18-.56-.1-.18-.229-.3-.4-.4-.2-.08-.42-.13-.7-.13-.67 0-1.239.24-1.68.74-.439.5-.67 1.13-.67 1.87v2.94c0 .3-.16.46-.47.46h-.43c-.32 0-.48-.16-.48-.46h.011zm7.85-3.27c0-1.03.279-1.88.83-2.54.55-.66 1.33-.98 2.319-.98.33 0 .63.04.9.12.27.08.5.18.649.3.15.1.28.23.4.35.1.1.17.2.2.3l.07.12h.02c0-.06-.02-.14-.02-.23v-.4c0-.25.149-.38.47-.38h.32c.319 0 .47.15.47.46v6.33c0 .46-.07.87-.2 1.24-.14.37-.32.67-.54.92-.229.24-.5.44-.8.6-.3.18-.62.3-.95.37-.32.07-.66.1-1.021.1-.779 0-1.459-.12-2.06-.38-.2-.08-.3-.2-.3-.38 0-.07.03-.15.06-.24l.101-.23c.08-.2.199-.3.37-.3.069 0 .14.02.22.06.55.2 1.06.3 1.53.3.3 0 .6-.03.85-.1.26-.08.5-.2.7-.34.2-.16.37-.36.5-.63.1-.27.17-.57.17-.93v-.6l.04-.46h-.03c-.43.82-1.13 1.22-2.1 1.22-.641 0-1.2-.16-1.7-.48-.5-.32-.851-.75-1.101-1.3s-.38-1.17-.38-1.87l.013-.02zm1.37-.05c0 .77.2 1.38.551 1.83.369.46.869.7 1.5.7.26 0 .5-.05.699-.13.23-.1.431-.22.601-.4.2-.18.33-.43.43-.76.101-.33.15-.7.15-1.14 0-1.6-.66-2.4-1.97-2.4-.62 0-1.101.2-1.45.62-.341.4-.5.97-.5 1.68h-.011zm6.88 2.56l.13-.2c.1-.12.2-.18.3-.2s.2.02.34.1c.58.4 1.16.58 1.74.58.37 0 .66-.08.88-.25.22-.15.33-.38.33-.68 0-.2-.06-.35-.2-.5-.12-.13-.3-.25-.5-.35-.22-.1-.46-.2-.72-.3l-.78-.3c-.26-.1-.5-.26-.72-.4-.22-.17-.4-.37-.53-.62s-.2-.54-.2-.87c0-.64.25-1.14.74-1.5.479-.36 1.101-.53 1.82-.53.739 0 1.399.18 1.979.54.12.05.2.14.221.25.02.11 0 .24-.07.36l-.13.22c-.08.15-.2.23-.341.23a.66.66 0 01-.279-.08 2.73 2.73 0 00-1.44-.42c-.36 0-.64.08-.86.23a.776.776 0 00-.329.67c0 .2.069.37.2.5.129.15.3.27.52.37.2.1.439.2.7.28l.78.3c.26.13.5.27.72.42.22.15.399.35.53.6.13.25.199.54.199.87 0 .6-.229 1.1-.699 1.48-.471.38-1.101.6-1.86.6-.9 0-1.7-.26-2.4-.77-.12-.08-.2-.2-.2-.3 0-.1.04-.2.12-.32l.009-.01zM620.7 281v-9.88h3.62c.92 0 1.67.28 2.25.84s.869 1.32.869 2.25c0 .94-.3 1.7-.879 2.27-.58.58-1.33.87-2.24.87h-2.24V281h-1.38zm1.38-4.86h2c.6 0 1.08-.17 1.4-.5.359-.36.529-.83.529-1.43 0-.58-.16-1.04-.5-1.38-.35-.33-.819-.5-1.399-.5h-2.021v3.82l-.009-.01zm6.35 1.32c0-1.1.33-2 1-2.7.66-.67 1.5-1 2.521-1 .96 0 1.7.3 2.26.92.55.63.82 1.42.82 2.4l-.05.58h-5.16c.04.74.3 1.32.75 1.72.479.4 1.04.62 1.699.62.351 0 .7-.08 1.07-.22.32-.12.57-.26.771-.4l.239-.2.561.98c-.1.1-.2.18-.33.28-.18.13-.5.28-.939.45-.48.18-.971.27-1.471.27-1.1 0-2-.35-2.7-1.06-.68-.7-1.029-1.58-1.029-2.64h-.012zm1.42-.83h3.801c-.04-.6-.2-1.03-.53-1.34-.32-.3-.72-.46-1.2-.46-.53 0-1 .16-1.37.47-.371.32-.601.76-.701 1.33zm6.85 4.37v-7.08h1.3v1.23l-.03.53h.03c.17-.54.45-.98.85-1.33.4-.35.851-.52 1.4-.52l.34.03v1.34c-.14-.02-.26-.04-.4-.04-.439 0-.84.15-1.199.45-.37.32-.63.72-.801 1.23-.1.38-.159.8-.159 1.27v2.9h-1.351l.02-.01zm8.97-3.5v-6.38h1.38v6.38c0 .75.22 1.34.67 1.76.45.42 1.061.63 1.82.63.78 0 1.399-.22 1.85-.64.44-.43.67-1.02.67-1.8v-6.34h1.38v6.38c0 1.1-.359 1.97-1.08 2.65-.72.68-1.659 1.02-2.819 1.02-1.15 0-2.08-.34-2.8-1.02-.721-.68-1.08-1.56-1.08-2.65l.009.01zm9.47 2.63l.66-.96c.04.05.12.13.25.23.101.08.33.2.7.36.35.16.7.24 1.07.24.319 0 .6-.08.83-.24a.73.73 0 00.35-.65c0-.22-.12-.43-.37-.6-.25-.18-.55-.33-.92-.47-.34-.14-.7-.3-1.05-.45-.36-.17-.66-.4-.9-.7-.26-.32-.399-.7-.399-1.12 0-.62.25-1.1.739-1.47.471-.37 1.08-.55 1.82-.55.46 0 .88.06 1.26.2.381.12.641.25.801.38l.22.2-.54 1.02c-.04-.03-.1-.1-.2-.17-.101-.07-.3-.17-.6-.28-.3-.12-.62-.18-.95-.18-.32 0-.6.08-.82.22-.229.14-.34.36-.34.65 0 .22.13.42.38.6.24.16.55.3.92.45.4.15.74.3 1.06.44.351.15.65.4.9.7.26.32.38.68.38 1.1 0 .6-.229 1.1-.7 1.5-.47.38-1.1.57-1.859.57-.5 0-.98-.1-1.44-.26-.439-.16-.75-.33-.95-.52l-.3-.25v.01zm6.36-2.67c0-1.1.32-2 1-2.7.65-.67 1.5-1 2.52-1 .961 0 1.7.3 2.25.92.541.63.801 1.42.801 2.4l-.03.58h-5.17c.04.74.3 1.32.75 1.72.479.4 1.04.62 1.7.62.35 0 .699-.08 1.06-.22.32-.12.58-.26.78-.4l.25-.2.57.98c-.101.1-.2.18-.341.28-.17.13-.5.28-.93.45-.5.18-.979.27-1.47.27-1.1 0-2-.35-2.7-1.06-.7-.7-1.04-1.58-1.04-2.64zm1.4-.83h3.8c-.021-.6-.2-1.03-.5-1.34-.33-.3-.73-.46-1.2-.46-.54 0-1 .16-1.38.47-.37.32-.601.76-.7 1.33h-.02zm6.85 4.37v-7.08h1.3v1.76c.2-.54.47-.98.86-1.33.4-.35.87-.52 1.4-.52l.35.03v1.34c-.12-.02-.25-.04-.4-.04-.42 0-.82.15-1.2.45-.359.32-.62.72-.77 1.23-.12.38-.181.8-.181 1.27v2.9h-1.35l-.009-.01zm8.25-9.88h1.42l1.75 7.25.2 1.05c.06-.36.13-.7.229-1.05l1.92-7.25h1.23l1.92 7.25.22 1.05c.04-.35.101-.7.2-1.05l1.83-7.25h1.42l-2.6 9.88h-1.601l-1.7-6.4-.3-1.4h-.02c-.08.47-.181.93-.3 1.4l-1.7 6.4h-1.62L678 271.12zm13.85 1.38v-1.38h1.37v1.38h-1.37zm.02 8.5v-7.08h1.35V281h-1.35zm2.83-5.9V274h.979v-2.03h1.301V274h1.72v1.1H697v3.16c0 .26.03.5.1.7.101.22.181.37.28.47.101.1.24.2.38.27.12.06.25.1.4.12.1.02.2.03.34.03l.33-.03v1.2c-.1.03-.27.03-.48.03-.22 0-.439 0-.64-.04-.2 0-.42-.08-.7-.2-.26-.1-.479-.25-.67-.44-.199-.18-.359-.44-.5-.78-.12-.32-.199-.7-.199-1.17v-3.3h-.921l-.02-.02zm5.66 5.9v-9.88h1.35v3.63l-.021.58h.03c.2-.4.5-.77.98-1.1.46-.32 1-.48 1.649-.48 1.62 0 2.431.9 2.431 2.7V281h-1.351v-4.22c0-.57-.1-1-.27-1.32-.2-.3-.55-.47-1.07-.47s-.979.16-1.4.48c-.42.32-.699.75-.84 1.26-.069.26-.1.58-.1.94V281h-1.388zm12.31 0v-9.88h3.46c.851 0 1.55.22 2.08.67s.8 1.05.8 1.84c0 .47-.1.9-.33 1.27-.199.38-.52.66-.899.86v.03c.5.14.899.44 1.2.87.279.45.43.95.43 1.5 0 .9-.3 1.6-.9 2.1-.6.48-1.37.73-2.3.73h-3.53l-.011.01zm1.38-5.73h2.07c.44 0 .8-.14 1.06-.42.26-.27.4-.63.4-1.08 0-.43-.13-.78-.4-1.05s-.619-.4-1.1-.4h-2.03v2.95zm0 4.53h2.23c.5 0 .93-.16 1.229-.46.32-.3.471-.7.471-1.22 0-.5-.16-.9-.471-1.23-.31-.33-.729-.48-1.24-.48h-2.199v3.38l-.02.01zm7.12-.73v-7.95h1.35v7.72c0 .4.07.66.2.8s.32.2.561.2h.239v1.2h-.449c-1.271 0-1.901-.65-1.901-1.97zm3.69-.62v-4.53h1.35v4.2c0 .6.1 1.03.3 1.32.17.3.53.45 1.05.45.7 0 1.24-.27 1.66-.78.431-.53.65-1.16.65-1.9v-3.3h1.35V281h-1.3v-.94l.02-.53h-.029c-.2.42-.5.8-.971 1.13-.47.34-1.02.5-1.649.5-1.601 0-2.42-.9-2.42-2.7l-.011-.01zm7.98-.99c0-1.1.33-2 1-2.7.66-.67 1.5-1 2.521-1 .96 0 1.7.3 2.26.92.54.63.8 1.42.8 2.4l-.04.58h-5.16c.04.74.3 1.32.75 1.72.471.4 1.04.62 1.7.62.34 0 .7-.08 1.061-.22.319-.12.58-.26.77-.4l.26-.2.551.98c-.08.1-.2.18-.32.28-.18.13-.5.28-.94.45-.479.18-.97.27-1.46.27-1.1 0-2-.35-2.699-1.06-.7-.7-1.041-1.58-1.041-2.64h-.013zm1.42-.83h3.801c-.03-.6-.2-1.03-.521-1.34-.33-.3-.72-.46-1.2-.46-.54 0-1 .16-1.37.47-.38.32-.6.76-.7 1.33h-.01zm6.34 3.25l.801-1.05.1.1c.1.08.2.17.35.27.2.13.36.24.54.33.17.1.4.18.7.25.26.08.53.1.8.1.5 0 .9-.12 1.23-.38.319-.25.5-.6.5-1.07 0-.3-.101-.54-.28-.76-.18-.23-.4-.43-.7-.58-.3-.2-.62-.34-.92-.47-.34-.15-.68-.3-1.02-.47-.33-.18-.641-.36-.9-.57-.3-.2-.5-.47-.7-.8-.17-.32-.26-.7-.26-1.1 0-.77.3-1.42.9-1.96.6-.52 1.359-.8 2.279-.8.561 0 1.061.1 1.5.26.471.17.801.34 1 .5l.28.24-.62 1.15c-.04-.06-.14-.14-.3-.25-.1-.1-.35-.22-.74-.38a2.86 2.86 0 00-1.12-.24c-.52 0-.949.14-1.3.42-.35.28-.5.62-.5 1.03 0 .37.17.7.5.95.33.26.73.5 1.2.67.4.16.88.37 1.4.62.47.23.869.55 1.199.96.301.42.48.92.48 1.5 0 .8-.3 1.46-.85 2-.551.54-1.33.8-2.271.8-.399 0-.76-.05-1.14-.14-.36-.1-.67-.2-.92-.32-.23-.12-.45-.25-.66-.38-.2-.14-.34-.25-.4-.33l-.15-.12-.008.02zm7.5-4.78V274h.971v-2.03h1.319V274h1.7v1.1h-1.7v3.16c0 .26.03.5.101.7.1.22.18.37.279.47.101.1.23.2.37.27.12.06.25.1.4.12.1.02.22.03.35.03l.33-.03v1.2c-.12.03-.28.03-.479.03-.23 0-.44 0-.641-.04-.199 0-.43-.08-.699-.2-.261-.1-.5-.25-.681-.44-.2-.18-.35-.44-.5-.78-.12-.32-.2-.7-.2-1.17v-3.3h-.92v-.02zm5.08 3.9c0-1.62 1.42-2.43 4.271-2.43h.3v-.13c0-1.03-.5-1.54-1.54-1.54-.3 0-.63.05-.97.17-.3.1-.561.2-.74.33l-.27.18-.561-1c.05-.04.16-.12.33-.23.1-.08.42-.2.9-.37.46-.16.93-.23 1.42-.23.899 0 1.6.24 2.08.7.479.5.72 1.18.72 2.07V281h-1.24v-.67l.03-.56h-.02l-.08.15c-.041.07-.12.18-.24.33-.12.16-.26.3-.42.43-.16.12-.381.23-.65.33-.3.12-.6.17-.9.17a2.68 2.68 0 01-1.699-.57c-.5-.38-.721-.9-.721-1.6V279zm1.381-.06c0 .3.119.57.35.8.24.23.56.34 1 .34.52 0 .979-.24 1.34-.7.35-.48.53-1 .53-1.56v-.22h-.351c-1.899 0-2.859.44-2.859 1.34h-.01zm6.579 2.06v-7.08h1.3v1.76c.181-.54.471-.98.86-1.33.4-.35.86-.52 1.4-.52l.34.03v1.34c-.12-.02-.25-.04-.4-.04-.42 0-.829.15-1.2.45-.359.32-.619.72-.779 1.23-.1.38-.17.8-.17 1.27v2.9h-1.36l.009-.01z"/><linearGradient id="b" gradientUnits="userSpaceOnUse" x1="-161.619" y1="387.85" x2="-161.619" y2="388.748" gradientTransform="matrix(-1629 0 0 465.804 -262463 -180395.125)"><stop offset="0" stop-color="#fff" stop-opacity=".893"/><stop offset="1" stop-color="#fff" stop-opacity="0"/></linearGradient><path opacity=".4" fill="url(#b)" d="M1173.76 684.8c407.2-181.1 541.23-316.6 402.08-406.5-208.72-134.83-403.75-7.54-520.67 64.94-116.92 72.479-267.05 77.069-410.98 0C428.26 227.62 213.53 238.1 0 374.74V684.8h1173.76z"/><path fill="#71C8F1" d="M1173.76 684.8c407.2-181.1 541.23-316.6 402.08-406.5-208.72-134.83-403.75-7.54-520.67 64.94-116.92 72.479-267.05 77.069-410.98 0C428.26 227.62 213.53 238.1 0 374.74V684.8h1173.76z"/><path fill="none" stroke="#FFF" stroke-width="3" stroke-linecap="round" d="M697.9 368.15c-17.95-7.07-35.881-15.36-53.7-24.9-101.8-54.5-203.3-81-304.55-79.45"/><path fill="#FFF" d="M706.9 373.88l-22.9-.96L695.5 353l12.28 19.34c.3.47.159 1.101-.3 1.38-.181.101-.381.17-.601.16h.021z"/><circle cx="339.5" cy="263.5" r="9.5"/><circle fill="#FFF" cx="339.5" cy="263.5" r="9.5"/><path d="M354.24 234L338 246l-16.24-12H214c-4.42 0-8-3.58-8-8v-74c0-4.42 3.58-8 8-8h239c4.42 0 8 3.58 8 8v74c0 4.42-3.58 8-8 8h-98.76z"/><path fill="#FFF" d="M354.24 234L338 246l-16.24-12H214c-4.42 0-8-3.58-8-8v-74c0-4.42 3.58-8 8-8h239c4.42 0 8 3.58 8 8v74c0 4.42-3.58 8-8 8h-98.76z"/><path fill="#2D2C6F" d="M286.13 202.94c0-1.32.46-2.47 1.38-3.45.92-.98 2.13-1.58 3.6-1.8v-1.65c0-.6.3-.9.88-.9h.2c.57 0 .86.27.86.8v1.72c1.46.08 2.8.54 3.98 1.37.42.28.5.68.24 1.22l-.34.67c-.3.5-.7.6-1.24.25-1.12-.72-2.26-1.08-3.44-1.08-1 0-1.83.27-2.48.8-.66.55-.98 1.2-.98 2 0 .4.1.76.32 1.1.22.33.5.62.87.87.36.24.77.48 1.24.7.47.22.97.45 1.5.66.53.21 1.03.45 1.54.7.5.23 1 .5 1.47.83.47.32.88.66 1.24 1.04s.65.84.86 1.38c.22.54.32 1.14.32 1.8 0 1.37-.45 2.55-1.36 3.53-.9 1-2.16 1.58-3.72 1.76v1.62c0 .6-.3.9-.851.9H292c-.58 0-.87-.26-.87-.78v-1.74c-1.7-.15-3.26-.78-4.66-1.87-.47-.37-.5-.78-.13-1.24l.44-.62c.33-.44.75-.5 1.27-.16 1.3 1 2.7 1.48 4.14 1.48.93 0 1.72-.25 2.37-.75s.97-1.18.97-2.05c0-.42-.101-.8-.32-1.16-.22-.36-.5-.67-.87-.93-.36-.26-.77-.5-1.24-.75-.47-.23-.96-.47-1.48-.7-.52-.23-1.04-.46-1.55-.7-.5-.24-1-.52-1.45-.83s-.88-.67-1.24-1.03-.64-.8-.85-1.33a4.36 4.36 0 01-.32-1.7l-.08.02zm14.34 13.16v-.54c0-.6.3-.88.9-.88h3.3v-12.3l.03-1.17h-.05c-.17.3-.45.64-.84 1.03l-1.2 1.2c-.45.4-.87.4-1.25-.04l-.38-.4c-.42-.4-.42-.83 0-1.25l3.46-3.38c.3-.3.68-.43 1.08-.43h.9c.58 0 .87.3.87.9v15.84h3.3c.6 0 .88.3.88.88v.54c0 .6-.3.9-.9.9h-9.18c-.6 0-.899-.3-.899-.9h-.021zm12.93-7.7c0-.85.07-1.7.22-2.54.15-.84.38-1.67.7-2.48.32-.81.68-1.56 1.16-2.25s1.03-1.3 1.65-1.83c.6-.52 1.33-.93 2.16-1.23.82-.3 1.7-.45 2.66-.45 1.06 0 2 .15 2.85.45.57.2.74.57.521 1.14l-.25.7c-.101.28-.23.46-.4.54-.2.08-.4.08-.65 0-.7-.24-1.35-.35-1.96-.35-.85 0-1.63.17-2.33.54-.7.37-1.3.86-1.75 1.5-.47.6-.84 1.3-1.12 2.04-.28.75-.48 1.55-.58 2.4h.05c.4-.57 1-1.03 1.78-1.4.8-.34 1.67-.52 2.64-.52 1.73 0 3.14.58 4.23 1.75 1.1 1.18 1.63 2.64 1.63 4.4 0 1.9-.57 3.45-1.73 4.68-1.15 1.23-2.62 1.85-4.4 1.85-2.05 0-3.74-.83-5.07-2.48-1.34-1.65-2-3.8-2-6.46h-.011zm2.75 1.3c0 .76.17 1.52.53 2.3.36.8.88 1.47 1.561 2.03.68.55 1.42.83 2.229.83 1.061 0 1.9-.36 2.54-1.1.64-.72.95-1.67.95-2.84s-.35-2.14-1.05-2.88c-.7-.74-1.7-1.1-2.95-1.1-1.06 0-1.95.26-2.7.8-.75.54-1.1 1.2-1.1 1.97l-.01-.01zm12.4 9.65l1.4-4.43c.15-.5.479-.75 1-.75h.85c.33 0 .56.1.7.3.13.18.13.43 0 .72l-1.84 4.48c-.17.45-.52.67-1.05.67h-.28c-.33 0-.56-.1-.7-.27-.12-.18-.15-.43-.07-.73l-.01.01zm7.37-11.9c0-1.14.07-2.18.2-3.13.15-.96.4-1.86.72-2.7.33-.84.75-1.55 1.26-2.13.5-.6 1.15-1.04 1.92-1.38.77-.34 1.66-.5 2.65-.5 1 0 1.88.17 2.66.5.78.34 1.42.8 1.93 1.37.5.57.93 1.28 1.25 2.12.32.84.57 1.74.7 2.7.15.95.22 2 .22 3.13 0 1.14-.07 2.2-.2 3.15-.15.95-.38 1.86-.7 2.7-.33.84-.75 1.56-1.26 2.14-.5.58-1.15 1.04-1.93 1.38-.78.34-1.67.5-2.66.5-1 0-1.87-.16-2.65-.5-.78-.34-1.4-.8-1.92-1.38s-.93-1.3-1.26-2.14c-.33-.84-.57-1.75-.7-2.7-.15-.96-.22-2-.22-3.15l-.01.02zm2.76 0c0 1.1.06 2.07.2 2.92.12.85.33 1.63.62 2.33.3.7.7 1.23 1.24 1.6.53.38 1.18.56 1.93.56.76 0 1.4-.18 1.94-.56.54-.38.96-.9 1.25-1.6.29-.7.5-1.48.63-2.33.12-.85.2-1.82.2-2.92 0-1.1-.08-2.07-.2-2.9-.13-.86-.34-1.62-.63-2.32-.29-.7-.7-1.22-1.24-1.6s-1.17-.54-1.93-.54c-.6 0-1.14.1-1.6.36-.47.25-.85.6-1.15 1.02-.3.43-.55.97-.73 1.6-.2.64-.34 1.3-.4 2.02-.1.7-.12 1.5-.12 2.35l-.01.01zm13.62-3.38c0-1.88.57-3.43 1.72-4.64 1.16-1.2 2.62-1.8 4.38-1.8 1 0 1.95.2 2.83.64.88.43 1.63 1.02 2.26 1.8.62.75 1.12 1.7 1.479 2.8.36 1.12.54 2.33.54 3.65 0 1.03-.1 2.04-.32 3.05-.2 1-.54 1.97-1 2.9-.46.95-1.02 1.78-1.68 2.5-.66.72-1.46 1.28-2.42 1.7-.96.44-2 .66-3.15.66-1.1 0-2.05-.16-2.86-.5-.55-.15-.72-.52-.5-1.1l.22-.7c.1-.28.24-.45.42-.52s.4-.06.65.02c.84.23 1.5.34 1.93.34.7 0 1.33-.12 1.93-.36.6-.24 1.1-.58 1.54-1 .44-.42.8-.9 1.14-1.46.33-.56.6-1.15.78-1.77.18-.6.32-1.25.4-1.9h-.06c-.4.55-1 1-1.8 1.34-.82.35-1.7.521-2.62.521-1.7 0-3.101-.58-4.2-1.75-1.1-1.17-1.64-2.64-1.64-4.4l.031-.021zm2.64-.05c0 1.18.36 2.14 1.06 2.88.7.74 1.7 1.1 2.95 1.1 1.05 0 1.95-.27 2.7-.82.75-.55 1.1-1.2 1.1-1.95 0-.55-.1-1.13-.3-1.73-.23-.6-.52-1.15-.9-1.66-.36-.5-.82-.93-1.37-1.26-.56-.33-1.14-.5-1.75-.5-1.06 0-1.9.37-2.54 1.1s-.96 1.67-.96 2.84h.01zm13.74 3.43c0-1.14.07-2.18.2-3.13.15-.96.4-1.86.72-2.7.33-.84.75-1.55 1.26-2.13.5-.6 1.15-1.04 1.92-1.38.77-.34 1.66-.5 2.65-.5 1 0 1.88.17 2.66.5.77.34 1.4.8 1.92 1.37.5.57.93 1.28 1.25 2.12.32.84.561 1.74.7 2.7.14.95.2 2 .2 3.13 0 1.14-.06 2.2-.2 3.15-.14.95-.37 1.86-.7 2.7-.32.84-.74 1.56-1.25 2.14-.5.58-1.149 1.04-1.93 1.38-.8.34-1.67.5-2.67.5s-1.87-.16-2.65-.5c-.78-.34-1.399-.8-1.92-1.38-.52-.58-.93-1.3-1.26-2.14-.33-.84-.57-1.75-.7-2.7-.15-.96-.22-2-.22-3.15l.02.02zm2.76 0c0 1.1.06 2.07.2 2.92.12.85.33 1.63.62 2.33.3.7.7 1.23 1.24 1.6.53.38 1.18.56 1.93.56.76 0 1.4-.18 1.94-.56.54-.38.95-.9 1.24-1.6.29-.7.5-1.48.64-2.33.12-.85.2-1.82.2-2.92 0-1.1-.08-2.07-.2-2.9-.13-.86-.34-1.62-.63-2.32s-.7-1.22-1.23-1.6c-.53-.38-1.18-.54-1.94-.54-.6 0-1.14.1-1.6.36-.47.25-.85.6-1.15 1.02-.3.43-.55.97-.73 1.6-.2.64-.33 1.3-.4 2.02-.07.7-.1 1.5-.1 2.35l-.03.01z"/><path fill="#00181B" d="M244.73 168l3.56-9.88h1.45l3.55 9.88h-1.44l-1-2.84h-3.72l-.98 2.84h-1.43.01zm2.77-4h3l-1.1-3.12-.37-1.4H249c-.15.6-.28 1.08-.4 1.4l-1.1 3.13V164zm6-3.08h1.45l1.72 4.78c.06.2.1.33.12.42 0 .1.04.25.08.4l.03.15h.04l.03-.15.1-.4c.04-.15.08-.3.12-.42l1.7-4.78h1.44l-2.62 7.08h-1.57l-2.64-7.08zm7.54 3.38c0-1.06.28-1.9.83-2.56.55-.66 1.3-1 2.27-1 .3 0 .6.04.88.1.27.08.48.17.64.28.18.12.3.22.4.3.13.12.2.2.23.28l.06.1h.03c-.02-.1-.03-.17-.03-.23v-.65h1.3v6.8c0 .54-.1 1.03-.3 1.47-.2.42-.48.76-.83 1-.33.25-.7.43-1.12.55-.4.13-.84.2-1.3.2a5.2 5.2 0 01-2.43-.6l.44-1.06c.6.3 1.24.46 1.939.46.67 0 1.2-.16 1.62-.48.4-.32.62-.83.62-1.5v-.97h-.02c-.43.75-1.13 1.12-2.1 1.12-.95 0-1.72-.35-2.3-1.03-.57-.7-.86-1.56-.86-2.6l.031.02zm1.38-.04c0 .75.2 1.35.55 1.8.38.45.88.68 1.5.68.55 0 1-.2 1.351-.57.35-.4.52-1 .52-1.87 0-1.58-.66-2.38-2-2.38-.6 0-1.07.2-1.4.62-.351.42-.521 1-.521 1.72zm7.38 3.74v-1.4h1.43v1.4h-1.43zm6.2 0l3.56-9.88H281l3.57 9.88h-1.44l-1-2.84h-3.72l-.97 2.84H276zm2.77-4h3l-1.1-3.12-.37-1.4h-.03c-.16.6-.3 1.08-.4 1.4l-1.1 3.13V164zm6.98 4v-7.08h1.3v.93l-.02.52h.03c.18-.4.5-.77.95-1.1.45-.33 1.03-.52 1.72-.52 1.62 0 2.43.9 2.43 2.7V168h-1.35v-4.22c0-.57-.1-1-.28-1.32-.18-.32-.55-.47-1.07-.47-.53 0-1 .15-1.4.479-.4.33-.68.74-.84 1.25-.06.26-.1.58-.1.95V168h-1.37zm8.43 0v-7.08h1.3v1.45c.2-.4.5-.77.96-1.1s1.02-.52 1.7-.52c1.63 0 2.45.9 2.45 2.7V168h-1.37v-4.22c0-.57-.1-1-.28-1.32-.18-.32-.54-.47-1.06-.47-.54 0-1 .15-1.42.479-.42.33-.68.74-.83 1.25-.08.26-.12.58-.12.95V168h-1.35.02zm8.32-2.55v-4.53h1.37v4.2c0 .6.1 1.03.27 1.32.18.3.54.45 1.06.45.7 0 1.25-.27 1.67-.78.42-.53.63-1.16.63-1.9v-3.3h1.35V168h-1.3v-.94l.021-.53h-.03c-.17.42-.5.8-.96 1.13-.47.34-1.02.5-1.64.5-1.62 0-2.43-.9-2.43-2.7l-.011-.01zm7.9.55c0-1.62 1.43-2.43 4.28-2.43h.3v-.13c0-1.03-.5-1.54-1.54-1.54-.3 0-.63.05-.98.17-.3.1-.55.2-.74.33l-.25.18-.57-1c.05-.04.16-.12.33-.23.12-.08.42-.2.9-.37.46-.16.93-.23 1.42-.23.9 0 1.6.24 2.08.7s.73 1.18.73 2.07V168h-1.25v-.67l.04-.56h-.03l-.07.15c-.04.07-.1.18-.23.33-.13.16-.27.3-.43.43-.16.12-.37.23-.649.33-.28.12-.58.17-.9.17-.65 0-1.22-.2-1.7-.57-.47-.38-.7-.9-.7-1.6l-.041-.01zm1.4-.06c0 .3.1.57.34.8.23.229.56.34.98.34.54 0 1-.24 1.35-.7.36-.48.53-1 .53-1.56v-.22h-.34c-1.9 0-2.87.44-2.87 1.34h.01zm6.48.13v-7.95h1.36v7.72c0 .4.06.66.2.8s.32.2.56.2h.23v1.2h-.45c-1.26 0-1.9-.65-1.9-1.97zm7.37 1.93l.8-9.88h1.45l2.27 5.34.5 1.33c.2-.57.37-1 .5-1.34l2.27-5.34h1.46l.8 9.88h-1.38l-.48-6.23-.02-1.45h-.03c-.23.65-.4 1.13-.54 1.45l-1.97 4.45h-1.24l-1.97-4.45-.54-1.479h-.03v.43c0 .4 0 .76-.02 1.04l-.47 6.23h-1.38l.02.019zm11.65-3.54c0-1.1.33-2 1-2.7.66-.67 1.5-1 2.53-1 .96 0 1.7.3 2.25.92.55.62.8 1.42.8 2.4l-.04.58h-5.16c.04.74.3 1.32.75 1.72.47.4 1.04.62 1.7.62.35 0 .7-.08 1.06-.22.3-.12.57-.26.77-.4l.25-.2.56.98c-.1.1-.2.18-.34.28-.18.13-.5.28-.93.45-.48.18-.97.27-1.46.27-1.1 0-2-.35-2.7-1.06-.7-.7-1.04-1.58-1.04-2.64zm1.42-.83h3.8c-.03-.6-.2-1.03-.52-1.34-.32-.3-.72-.46-1.2-.46-.54 0-1 .16-1.37.47-.38.32-.6.76-.7 1.33h-.01zm6.38.83c0-1.12.3-2.02.9-2.7.58-.67 1.35-1 2.3-1 .3 0 .58.03.85.1.26.08.47.17.63.28.1.08.25.2.399.34.101.1.2.2.25.28l.061.1h.02c-.02-.1-.03-.27-.03-.47v-3.28h1.34V168h-1.28v-1.15h-.02s0 .03-.03.06-.03.07-.04.1c-.04.05-.1.16-.23.3-.1.15-.26.28-.439.4-.17.13-.4.23-.67.33-.3.1-.6.14-.92.14-.94 0-1.7-.34-2.26-1.02-.56-.68-.85-1.58-.85-2.7h.019zm1.38 0c0 .76.18 1.37.55 1.84.37.47.85.7 1.45.7.58 0 1.07-.22 1.46-.65s.6-1.06.6-1.9c0-.68-.2-1.27-.54-1.78s-.84-.75-1.48-.75c-.58 0-1.07.23-1.46.68-.4.46-.58 1.07-.58 1.86zm7.47-4.96v-1.38h1.37v1.38h-1.37zm.02 8.5v-7.08h1.351V168h-1.351zm2.97-3.54c0-1.05.36-1.93 1.07-2.65.72-.7 1.63-1.05 2.73-1.05.5 0 1 .08 1.45.26.44.18.75.35.94.53l.27.26-.65.94c-.06-.06-.14-.13-.25-.23-.1-.08-.33-.2-.67-.35s-.7-.23-1.05-.23c-.7 0-1.3.24-1.76.72s-.7 1.08-.7 1.8c0 .73.24 1.34.7 1.82.48.5 1.08.74 1.8.74.399 0 .77-.08 1.14-.24.35-.16.62-.32.8-.48l.25-.24.561 1-.12.1c-.06.07-.18.16-.35.3-.2.12-.38.24-.58.33-.22.1-.5.2-.8.27-.33.1-.66.13-1 .13-1.1 0-2-.35-2.72-1.05-.7-.7-1.06-1.6-1.06-2.66v-.02zm7.59 1.54c0-1.62 1.42-2.43 4.27-2.43h.3v-.13c0-1.03-.5-1.54-1.54-1.54-.3 0-.63.05-.98.17-.3.1-.55.2-.74.33l-.25.18-.58-1c.05-.04.16-.12.33-.23.12-.08.42-.2.9-.37.46-.16.93-.23 1.42-.23.9 0 1.6.24 2.08.7.479.46.729 1.18.729 2.07V168h-1.25v-.67l.03-.56h-.03l-.08.15c-.04.07-.1.18-.23.33-.13.16-.27.3-.43.43-.17.12-.38.23-.66.33-.28.12-.58.17-.9.17-.65 0-1.22-.2-1.7-.57-.47-.38-.7-.9-.7-1.6l.011-.01zm1.38-.06c0 .3.13.57.36.8.23.229.56.34.98.34.54 0 1-.24 1.35-.7.35-.48.52-1 .52-1.56v-.22h-.34c-1.9 0-2.87.44-2.87 1.34zm6.49.13v-7.95h1.36v7.72c0 .4.06.66.2.8s.32.2.56.2h.23v1.2h-.45c-1.26 0-1.9-.65-1.9-1.97zm7-3.07c0-1.44.48-2.64 1.43-3.6s2.16-1.45 3.6-1.45c.45 0 .88.04 1.28.13.4.1.75.2 1.03.32.26.12.5.25.7.38.2.1.34.229.45.33l.14.14-.68 1.04c-.07-.08-.2-.18-.37-.3-.17-.13-.5-.3-.98-.48-.52-.2-1.02-.3-1.52-.3-1.08 0-1.96.36-2.64 1.08-.67.73-1 1.63-1 2.7 0 1.08.33 2 1.02 2.77.68.76 1.56 1.14 2.64 1.14.54 0 1.07-.1 1.58-.33.5-.2.88-.42 1.12-.64l.35-.32.74 1c-.03.03-.1.1-.17.18-.07.06-.23.2-.47.37a5.4 5.4 0 01-.8.47c-.28.15-.63.27-1.06.38-.44.1-.9.17-1.34.17-1.47 0-2.68-.5-3.63-1.5-.95-1-1.43-2.2-1.43-3.67l.01-.01zm9.98 1.45c0-1.07.37-1.95 1.1-2.65.74-.7 1.65-1.05 2.72-1.05 1.06 0 1.97.35 2.7 1.05.75.7 1.1 1.58 1.1 2.65 0 1.06-.36 1.94-1.1 2.65-.74.71-1.64 1.07-2.7 1.07-1.07 0-1.97-.35-2.7-1.07-.73-.72-1.12-1.6-1.12-2.65zm1.38 0c0 .73.24 1.34.7 1.8.5.5 1.07.75 1.74.75.68 0 1.25-.25 1.73-.73.47-.47.7-1.08.7-1.82 0-.73-.23-1.34-.7-1.8-.48-.5-1.05-.73-1.73-.73-.67 0-1.25.24-1.73.72-.47.47-.7 1.08-.7 1.8l-.01.01zm7.29 2.68l.66-.96c.05.05.13.13.26.23.101.08.33.2.7.36.35.16.7.24 1.08.24.3 0 .6-.08.83-.24.23-.16.35-.37.35-.65 0-.22-.13-.43-.38-.6-.24-.18-.55-.33-.9-.47-.37-.14-.73-.3-1.08-.45-.351-.15-.66-.4-.9-.7-.26-.32-.4-.7-.4-1.12 0-.62.25-1.1.74-1.47.48-.37 1.1-.55 1.83-.55.46 0 .88.06 1.26.2.37.12.63.25.8.38l.2.2-.53 1.02c-.04-.03-.101-.1-.2-.17-.1-.07-.3-.17-.6-.28-.3-.12-.62-.18-.95-.18-.33 0-.6.08-.83.22-.24.14-.35.36-.35.65 0 .22.13.42.38.6.24.16.55.3.92.45.4.15.74.3 1.06.44.36.15.66.4.9.7.27.32.4.68.4 1.1 0 .6-.24 1.1-.7 1.5-.48.38-1.1.57-1.86.57-.5 0-1-.1-1.45-.26-.45-.16-.76-.33-.96-.52l-.3-.25.02.01zm6.21-5.03V161h.97v-2.03h1.3V161h1.72v1.1h-1.7v3.16c0 .26.03.5.1.7.1.22.18.37.28.47.101.1.24.2.38.27.13.06.26.1.4.12.1.02.22.03.35.03l.33-.03v1.2c-.1.03-.27.03-.48.03-.22 0-.43 0-.64-.04-.2 0-.43-.08-.7-.2-.27-.1-.5-.25-.68-.44-.2-.18-.359-.44-.5-.78-.12-.32-.2-.7-.2-1.17v-3.3h-.92l-.01-.02zm8.72 2.35c0-1.07.37-1.95 1.1-2.65.75-.7 1.65-1.05 2.72-1.05 1.07 0 1.97.35 2.7 1.05.75.7 1.12 1.58 1.12 2.65 0 1.06-.37 1.94-1.1 2.65s-1.66 1.07-2.72 1.07c-1.06 0-1.97-.35-2.7-1.07-.73-.72-1.12-1.6-1.12-2.65zm1.38 0c0 .73.24 1.34.72 1.8.47.5 1.05.75 1.72.75.68 0 1.26-.25 1.73-.73.47-.47.7-1.08.7-1.82 0-.73-.23-1.34-.7-1.8-.47-.5-1.05-.73-1.73-.73-.67 0-1.25.24-1.72.72-.48.47-.72 1.08-.72 1.8v.01zm7.37-2.35V161h.88v-.32c0-.45.07-.84.2-1.17.13-.33.3-.58.48-.76.17-.17.4-.3.68-.43.25-.1.48-.17.7-.2.18-.04.4-.05.6-.05l.53.04v1.15c-.1-.02-.2-.03-.36-.03-.17 0-.32.02-.45.05-.16.04-.32.1-.5.2s-.28.24-.4.45c-.1.2-.14.47-.14.8v.3h1.67v1.1h-1.67V168h-1.35v-5.9h-.87zM244.66 183v-9.88h3.62c.92 0 1.67.28 2.25.84.58.56.87 1.32.87 2.25 0 .94-.3 1.7-.88 2.27-.58.58-1.33.87-2.24.87h-2.23V183h-1.4.01zm1.4-4.86h2c.6 0 1.06-.17 1.4-.5.34-.36.5-.83.5-1.43 0-.58-.16-1.04-.5-1.38-.35-.33-.8-.5-1.4-.5h-2v3.82-.01zm6.34 1.32c0-1.1.32-2 .98-2.7.67-.67 1.5-1 2.53-1 .97 0 1.72.3 2.27.92.55.62.8 1.42.8 2.4l-.04.58h-5.16c.04.74.3 1.32.75 1.72.47.4 1.04.62 1.7.62.34 0 .7-.08 1.06-.22.32-.12.58-.26.77-.4l.26-.2.56.98c-.1.1-.2.18-.33.28-.18.13-.5.28-.94.45-.5.18-.98.27-1.47.27-1.1 0-2-.35-2.7-1.06-.7-.7-1.04-1.58-1.04-2.64zm1.4-.83h3.8c-.02-.6-.2-1.03-.52-1.34-.3-.3-.7-.46-1.2-.46-.53 0-.98.16-1.36.47-.38.32-.6.76-.7 1.33h-.02zm6.85 4.37v-7.08h1.3v1.23l-.021.53h.03c.17-.54.46-.98.85-1.33s.86-.52 1.4-.52l.35.03v1.34c-.12-.02-.25-.04-.4-.04-.43 0-.83.15-1.2.45-.36.32-.62.72-.78 1.23-.1.38-.17.8-.17 1.27v2.9h-1.35l-.009-.01zm4.67-.87l.66-.96c.04.05.12.13.25.23.1.08.33.2.7.36.35.16.7.24 1.08.24.32 0 .6-.08.84-.24.23-.16.35-.37.35-.65 0-.22-.14-.43-.4-.6-.229-.18-.54-.33-.9-.47s-.72-.3-1.07-.45c-.35-.15-.66-.4-.9-.7-.26-.32-.4-.7-.4-1.12 0-.62.25-1.1.74-1.47.48-.37 1.1-.55 1.83-.55.46 0 .88.06 1.26.2.38.12.64.25.8.38l.22.2-.54 1.02c-.04-.03-.1-.1-.2-.17s-.3-.17-.6-.28c-.3-.12-.62-.18-.95-.18-.34 0-.6.08-.84.22-.23.14-.34.36-.34.65 0 .22.13.42.38.6.24.16.55.3.92.45.4.15.74.3 1.06.44.35.15.65.4.9.7.26.32.4.68.4 1.1 0 .6-.25 1.1-.72 1.5-.47.38-1.1.57-1.85.57-.5 0-.98-.1-1.44-.26-.44-.16-.75-.33-.95-.52l-.28-.25-.01.01zm6.33-2.68c0-1.07.36-1.95 1.1-2.65.74-.7 1.65-1.05 2.7-1.05 1.08 0 2 .35 2.73 1.05.73.7 1.1 1.58 1.1 2.65 0 1.06-.37 1.94-1.1 2.65s-1.65 1.07-2.72 1.07c-1.06 0-1.96-.35-2.7-1.07-.74-.72-1.1-1.6-1.1-2.65h-.01zm1.38 0c0 .73.229 1.34.7 1.8.5.5 1.06.75 1.73.75.68 0 1.26-.25 1.74-.73.47-.47.7-1.08.7-1.82 0-.73-.23-1.34-.7-1.8-.48-.5-1.06-.73-1.74-.73-.67 0-1.24.24-1.72.72-.48.47-.7 1.08-.7 1.8l-.01.01zm7.87 3.55v-7.08h1.3v.93l-.021.52h.03c.2-.4.5-.77.96-1.1s1.02-.52 1.7-.52c1.63 0 2.44.9 2.44 2.7V183h-1.35v-4.22c0-.57-.1-1-.28-1.32-.18-.32-.55-.47-1.07-.47-.53 0-1 .15-1.4.479-.4.33-.68.74-.84 1.25-.07.26-.1.58-.1.95V183H280.9zm11.2-7.08h1.44l1.44 4.98.1.35c.05.12.08.22.08.3l.03.1h.03c.05-.3.101-.56.17-.76l1.55-4.97h1.26l1.5 4.96.24.73h.02c.04-.26.1-.5.17-.75l1.46-4.96H303l-2.3 7.08h-1.48l-1.43-4.57-.22-.75h-.04c-.061.3-.12.54-.2.77L295.9 183h-1.52l-2.28-7.08zm12.2-1.42v-1.38h1.38v1.38h-1.38zm.02 8.5v-7.08h1.36V183h-1.36zm2.85-5.9V176h.97v-2.03h1.3V176h1.72v1.1h-1.7v3.16c0 .26.03.5.1.7.1.22.18.37.28.47.1.1.23.2.37.27.13.06.26.1.4.12.1.02.23.03.36.03l.33-.03v1.2c-.13.03-.3.03-.5.03s-.43 0-.63-.04c-.2 0-.43-.08-.7-.2-.27-.1-.5-.25-.68-.44-.2-.18-.37-.44-.5-.78-.14-.32-.2-.7-.2-1.17v-3.3h-.93l.01-.02zm5.63 5.9v-9.88h1.37v3.63l-.03.58h.03c.18-.4.5-.77.97-1.1.46-.32 1-.48 1.64-.48 1.63 0 2.439.9 2.439 2.7V183h-1.36v-4.22c0-.57-.1-1-.28-1.32-.18-.32-.54-.47-1.06-.47s-1 .16-1.4.479c-.4.32-.7.75-.84 1.26-.08.26-.1.58-.1.94V183H312.8zm11.04-8.68v-1.2H332v1.2h-3.38V183h-1.38v-8.68h-3.4zm8.26 1.6h1.53l1.77 4.63.27.86h.03c.08-.3.16-.6.24-.83l1.72-4.65h1.47l-3.32 8.35c-.2.53-.5.95-.9 1.24-.42.3-.88.44-1.38.44-.24 0-.47-.04-.7-.1-.23-.1-.4-.16-.5-.24l-.18-.1.48-1.03c.26.2.53.3.83.3.56 0 .98-.35 1.27-1.05l.35-.8-2.97-7-.01-.02zm8.18 9.88v-9.88h1.24v.6l-.02.53h.02s.02-.03.03-.06a.46.46 0 01.05-.1c.04-.06.12-.16.25-.3.14-.16.3-.3.45-.4.17-.1.4-.22.67-.3.3-.1.601-.15.93-.15.94 0 1.7.34 2.27 1.03.57.68.85 1.58.85 2.7 0 1.1-.3 2-.9 2.67-.6.67-1.38 1.02-2.3 1.02-.3 0-.57-.04-.83-.12-.271-.08-.48-.18-.64-.3-.17-.1-.3-.23-.4-.33-.1-.1-.2-.2-.25-.28l-.07-.12h-.03c.02.15.03.36.03.62v3.16h-1.35v.01zm1.3-6.3c0 .68.2 1.27.55 1.77.37.5.85.75 1.46.75.57 0 1.06-.23 1.45-.68.39-.45.6-1.07.6-1.85 0-.771-.2-1.4-.57-1.85-.37-.45-.85-.7-1.44-.7-.58 0-1.07.2-1.46.64-.4.4-.6 1.05-.6 1.9l.01.02zm6.6-.04c0-1.1.33-2 1-2.7.66-.67 1.5-1 2.53-1 .97 0 1.72.3 2.26.92.54.62.8 1.42.8 2.4l-.04.58h-5.16c.04.74.3 1.32.75 1.72.48.4 1.05.62 1.7.62.35 0 .7-.08 1.07-.22.32-.12.58-.26.78-.4l.25-.2.56.98c-.1.1-.2.18-.34.28-.18.13-.5.28-.93.45-.5.18-1 .27-1.48.27-1.1 0-2-.35-2.7-1.06-.7-.7-1.04-1.58-1.04-2.64h-.01zm1.42-.83h3.8c-.03-.6-.2-1.03-.52-1.34-.32-.3-.72-.46-1.2-.46-.54 0-1 .16-1.37.47-.37.32-.6.76-.7 1.33h-.01zm10.14 3.61c0-.55.1-1.06.34-1.53.23-.47.52-.86.86-1.17.35-.3.73-.6 1.13-.92l1.17-.83c.35-.23.64-.52.9-.87.23-.32.35-.66.35-1.03 0-.48-.17-.88-.5-1.18-.33-.32-.76-.47-1.3-.47-.24 0-.47.04-.68.13-.22.1-.4.2-.56.32-.18.15-.3.27-.4.36-.12.13-.2.24-.25.33l-.07.12-.95-.7s.03-.05.05-.1c.03-.04.04-.08.06-.1.04-.1.15-.25.32-.44.2-.23.38-.4.58-.57.22-.17.5-.32.86-.45.34-.13.73-.2 1.15-.2.92 0 1.67.26 2.26.78.59.52.87 1.2.87 2.04 0 .44-.08.85-.26 1.24-.17.4-.4.73-.67 1-.3.28-.6.55-.93.8-.24.18-.58.4-1 .7-.38.26-.7.48-.93.68-.28.22-.5.47-.7.75-.17.28-.26.57-.26.87h4.9v1.2h-6.27c-.04-.3-.06-.54-.06-.76h-.01zm12.18.76v-9.88h3.27c1.52 0 2.74.43 3.64 1.3.9.9 1.36 2.1 1.36 3.62 0 1.55-.45 2.76-1.36 3.64-.91.88-2.12 1.32-3.65 1.32h-3.28.02zm1.38-1.2h1.8c1.13 0 2.02-.33 2.68-.98.66-.66 1-1.58 1-2.78 0-1.18-.34-2.1-1-2.74-.66-.66-1.561-.98-2.7-.98h-1.78v7.48zm8.68-7.3v-1.38h1.37v1.38h-1.37zm0 8.5v-7.08h1.37V183h-1.37zm2.92-2c0-1.62 1.42-2.43 4.27-2.43h.3v-.13c0-1.03-.5-1.54-1.54-1.54-.3 0-.64.05-.979.17-.3.1-.561.2-.74.33l-.25.18-.56-1c.04-.04.15-.12.32-.23.1-.08.42-.2.9-.37.46-.16.93-.23 1.42-.23.9 0 1.6.24 2.08.7s.72 1.18.72 2.07V183h-1.24v-.67l.03-.56h-.03l-.08.15c-.04.07-.12.18-.24.33-.12.16-.26.3-.42.43-.16.12-.38.23-.65.33-.27.12-.57.17-.9.17-.64 0-1.2-.2-1.7-.57-.46-.38-.7-.9-.7-1.6l-.011-.01zm1.38-.06c0 .3.12.57.35.8.23.229.56.34.98.34.55 0 1-.24 1.36-.7.351-.48.53-1 .53-1.56v-.22h-.36c-1.9 0-2.86.44-2.86 1.34zm6.58 2.06v-9.88h1.35v3.84c.03-.02.06-.07.1-.12a2.417 2.417 0 01.67-.66c.16-.1.37-.2.64-.3.3-.1.58-.13.88-.13.94 0 1.7.34 2.27 1.03.57.68.85 1.58.85 2.7 0 1.1-.3 2-.9 2.67-.6.67-1.38 1.02-2.33 1.02-.28 0-.56-.04-.84-.13-.26-.08-.47-.18-.63-.3-.17-.12-.3-.24-.42-.35-.12-.12-.2-.23-.25-.3l-.08-.14h-.03c.02.13.03.3.03.53v.5h-1.3l-.01.02zm1.3-3.5c0 .68.2 1.27.54 1.77s.84.75 1.479.75c.58 0 1.061-.23 1.45-.68.39-.45.6-1.07.6-1.85 0-.771-.2-1.4-.56-1.85-.36-.45-.86-.7-1.45-.7-.58 0-1.07.2-1.46.64-.4.4-.6 1.05-.6 1.9v.02zm6.6-.04c0-1.1.33-2 1-2.7.66-.67 1.5-1 2.53-1 .95 0 1.7.3 2.24.92.54.62.8 1.42.8 2.4l-.03.58h-5.16c.04.74.3 1.32.75 1.72.47.4 1.03.62 1.68.62.36 0 .7-.08 1.07-.22.32-.12.58-.26.78-.4l.25-.2.56.98c-.1.1-.2.18-.34.28-.17.13-.5.28-.93.45-.5.18-.97.27-1.47.27-1.1 0-2-.35-2.7-1.06-.7-.7-1.04-1.58-1.04-2.64h.01zm1.43-.83h3.77c-.02-.6-.2-1.03-.5-1.34-.33-.3-.73-.46-1.2-.46-.54 0-1 .16-1.38.47-.38.32-.62.76-.7 1.33h.01zm6.21-1.53V176h.96v-2.03h1.3V176h1.72v1.1h-1.7v3.16c0 .26.03.5.101.7.1.22.18.37.28.47s.23.2.37.27c.12.06.25.1.4.12.1.02.22.03.35.03l.33-.03v1.2c-.1.03-.27.03-.47.03-.22 0-.44 0-.64-.04-.2 0-.44-.08-.72-.2-.26-.1-.5-.25-.67-.44-.2-.18-.35-.44-.5-.78-.12-.32-.2-.7-.2-1.17v-3.3h-.9l-.011-.02zm5.14 2.36c0-1.1.33-2 1-2.7.66-.67 1.5-1 2.52-1 .96 0 1.7.3 2.26.92.56.62.8 1.42.8 2.4l-.04.58h-5.16c.04.74.3 1.32.75 1.72.47.4 1.04.62 1.7.62.34 0 .7-.08 1.06-.22.32-.12.58-.26.771-.4l.26-.2.55.98c-.08.1-.2.18-.32.28-.18.13-.5.28-.94.45-.48.18-.97.27-1.46.27-1.1 0-2-.35-2.7-1.06-.7-.7-1.04-1.58-1.04-2.64h-.011zm1.42-.83h3.8c-.03-.6-.2-1.03-.53-1.34-.3-.3-.7-.46-1.2-.46-.53 0-.98.16-1.36.47-.38.32-.6.76-.7 1.33h-.01zm6.26 3.5l.66-.96c.04.05.12.13.25.23.1.08.33.2.7.36.35.16.7.24 1.08.24.32 0 .6-.08.84-.24.23-.16.35-.37.35-.65 0-.22-.14-.43-.4-.6-.23-.18-.54-.33-.9-.47-.36-.14-.72-.3-1.07-.45-.35-.15-.66-.4-.9-.7-.26-.32-.4-.7-.4-1.12 0-.62.26-1.1.74-1.47.48-.37 1.1-.55 1.83-.55.46 0 .88.06 1.27.2.37.12.63.25.8.38l.2.2-.53 1.02c-.04-.03-.1-.1-.2-.17s-.3-.17-.6-.28c-.3-.12-.62-.18-.95-.18-.34 0-.601.08-.84.22-.22.14-.34.36-.34.65 0 .22.13.42.38.6.24.16.55.3.92.45.4.15.74.3 1.06.44.35.15.65.4.9.7.26.32.4.68.4 1.1 0 .6-.25 1.1-.72 1.5-.47.38-1.1.57-1.85.57-.5 0-.98-.1-1.44-.26-.44-.16-.75-.33-.94-.52l-.3-.25v.01z"/></g><linearGradient id="c" gradientUnits="userSpaceOnUse" x1="-307.584" y1="452.334" x2="-306.584" y2="452.334" gradientTransform="matrix(0 -389 3 0 -462.5 -119266)"><stop offset="0" stop-color="#fff"/><stop offset="1" stop-color="#fff" stop-opacity=".01"/></linearGradient><path fill="none" stroke="url(#c)" stroke-linecap="square" d="M894.5-4.22v388.37"/><path fill="#FFF" d="M894 257.65c34.8 0 63-28.2 63-63s-28.2-63-63-63-63 28.2-63 63 28.2 63 63 63z"/><path fill="none" stroke="#00BFD6" stroke-width="2" stroke-linecap="round" stroke-linejoin="round" d="M880.4 195.77l7.399-11.62 5.65 8.02 7.36-7.04 5.699 5.3 8.5-20.02"/><path fill="none" stroke="#2D2C6F" stroke-width="2" d="M918.8 203.1h-44.75v-37.65"/><path fill="none" stroke="#2D2C6F" stroke-width="2" stroke-linejoin="round" d="M869 175.34h5m-5 11.26h5m-5 11.3h5m5.34 10.13v-4.97m10.8 4.97v-4.97m10.81 4.97v-4.97m10.8 4.97v-4.97"/><path fill="none" stroke="#FFF" stroke-width=".6" stroke-miterlimit="8" stroke-dasharray="2.4,2.4" d="M892.3 271.34h2.4v.3c.78 0 1.569-.03 2.36-.07v-.3c.779-.03 1.56-.08 2.35-.14l.029.3c.801-.06 1.57-.13 2.36-.2l-.04-.3 2.34-.3.04.3c.8-.1 1.57-.22 2.351-.35l-.061-.3c.78-.13 1.551-.27 2.32-.42l.061.3c.779-.16 1.55-.32 2.319-.5l-.069-.3c.77-.17 1.539-.36 2.3-.56l.069.3c.771-.2 1.53-.42 2.301-.64l-.101-.3c.76-.2 1.5-.45 2.26-.7l.101.3c.74-.25 1.5-.5 2.229-.78l-.1-.28c.74-.27 1.479-.55 2.2-.84l.119.28c.74-.3 1.471-.6 2.2-.9l-.13-.28c.721-.32 1.44-.64 2.15-.98l.13.28c.72-.34 1.43-.7 2.13-1.04l-.13-.27c.7-.36 1.4-.72 2.1-1.1l.13.26c.7-.37 1.4-.76 2.07-1.15l-.15-.26c.681-.4 1.351-.82 2.021-1.24l.16.26c.67-.42 1.33-.85 2-1.3l-.181-.24c.65-.44 1.301-.9 1.94-1.35l.17.25c.64-.46 1.28-.93 1.9-1.4l-.181-.25c.62-.47 1.24-.96 1.851-1.46l.2.24 1.8-1.5-.181-.24c.601-.5 1.181-1.04 1.761-1.57l.2.22c.6-.54 1.17-1.08 1.729-1.63l-.2-.23c.561-.54 1.12-1.1 1.66-1.67l.22.2c.55-.55 1.101-1.13 1.63-1.7l-.229-.22c.54-.58 1.06-1.17 1.57-1.76l.239.2c.5-.6 1.021-1.2 1.521-1.83l-.229-.2c.5-.6.979-1.23 1.449-1.86l.24.18c.48-.62.95-1.26 1.4-1.9l-.24-.18c.46-.64.9-1.3 1.35-1.94l.25.17c.44-.66.87-1.32 1.301-2l-.271-.15c.43-.67.84-1.34 1.24-2.02l.26.15c.399-.68.78-1.37 1.16-2.07l-.261-.14c.381-.7.74-1.4 1.101-2.1l.27.14c.351-.7.7-1.4 1.04-2.13l-.26-.13c.33-.7.65-1.43.97-2.15l.28.12c.3-.73.62-1.46.9-2.2l-.271-.1c.3-.74.58-1.48.851-2.22l.279.1c.271-.74.53-1.5.771-2.24l-.28-.1c.24-.74.48-1.5.7-2.25l.3.08c.2-.76.42-1.52.63-2.3l-.3-.07c.2-.74.4-1.5.57-2.28l.3.07c.17-.78.33-1.55.5-2.33l-.3-.06c.14-.76.3-1.53.42-2.3l.3.04c.12-.78.24-1.56.34-2.35l-.3-.05.3-2.35.3.04c.07-.8.141-1.57.2-2.36l-.3-.02c.06-.8.1-1.58.14-2.37h.3c.041-.78.061-1.57.07-2.36h-.3v-2.38h.3c-.02-.8-.04-1.58-.08-2.37h-.3c-.03-.8-.08-1.57-.14-2.36l.3-.02c-.06-.8-.13-1.57-.2-2.36l-.3.03c-.101-.8-.2-1.58-.3-2.35l.3-.04a62.91 62.91 0 00-.351-2.34l-.3.05c-.12-.77-.27-1.54-.42-2.3l.3-.07c-.149-.78-.3-1.55-.5-2.32l-.279.08a89.78 89.78 0 00-.57-2.3l.3-.07c-.2-.76-.42-1.52-.64-2.28l-.28.1c-.22-.77-.46-1.52-.7-2.27l.28-.1c-.24-.74-.5-1.5-.771-2.23l-.279.1c-.271-.74-.551-1.48-.84-2.2l.3-.12c-.3-.74-.601-1.47-.92-2.2l-.271.13c-.3-.73-.63-1.44-.96-2.16l.271-.12c-.33-.72-.681-1.43-1.03-2.14l-.271.15c-.359-.7-.72-1.4-1.1-2.1l.26-.13c-.38-.7-.76-1.4-1.16-2.07l-.26.15c-.4-.68-.8-1.35-1.229-2.02l.27-.16c-.42-.67-.85-1.33-1.3-2l-.24.18c-.439-.65-.899-1.3-1.35-1.94l.25-.18c-.46-.64-.93-1.28-1.4-1.9l-.25.18c-.47-.63-.96-1.25-1.449-1.86l.229-.2c-.5-.6-1-1.2-1.521-1.8l-.229.18c-.5-.6-1.021-1.18-1.56-1.77l.229-.2c-.54-.57-1.08-1.15-1.63-1.7l-.22.2c-.54-.57-1.101-1.13-1.671-1.68l.2-.2c-.55-.56-1.13-1.1-1.7-1.64l-.22.22c-.58-.53-1.17-1.05-1.76-1.56l.2-.23c-.6-.5-1.2-1-1.83-1.5l-.2.22c-.6-.5-1.22-.98-1.85-1.45l.17-.24c-.62-.48-1.261-.95-1.9-1.4l-.18.23c-.65-.45-1.3-.9-1.95-1.34l.17-.25c-.66-.44-1.32-.87-2-1.3l-.15.27c-.67-.42-1.34-.83-2.02-1.23l.15-.25c-.681-.4-1.37-.78-2.07-1.16l-.141.25c-.699-.38-1.399-.74-2.1-1.1l.13-.27c-.7-.35-1.399-.7-2.13-1.04l-.13.27c-.7-.32-1.43-.64-2.149-.96l.119-.27c-.72-.3-1.449-.62-2.199-.9l-.101.27c-.729-.3-1.47-.57-2.2-.84l.101-.28c-.75-.27-1.5-.53-2.25-.77l-.101.28c-.75-.24-1.5-.48-2.26-.7l.1-.3c-.77-.2-1.529-.42-2.3-.63l-.069.3c-.761-.2-1.53-.4-2.301-.57l.07-.3c-.77-.17-1.54-.33-2.32-.5l-.06.3c-.771-.14-1.54-.3-2.32-.42l.05-.28c-.8-.13-1.569-.25-2.359-.36l-.04.3c-.78-.1-1.56-.2-2.34-.28l.03-.3c-.801-.08-1.58-.15-2.371-.2l-.02.3c-.78-.07-1.56-.12-2.35-.15v-.3c-.78-.04-1.57-.06-2.36-.07v.3h-2.399v-.3c-.78 0-1.57.03-2.36.07v.3c-.78.03-1.561.08-2.351.14l-.029-.3c-.801.06-1.57.13-2.36.2l.04.3-2.34.3-.04-.3c-.8.1-1.57.22-2.351.35l.061.3c-.78.12-1.55.27-2.32.42l-.06-.3c-.78.16-1.55.32-2.32.5l.07.3a84.7 84.7 0 00-2.3.55l-.07-.3c-.77.2-1.53.42-2.3.64l.1.3c-.76.2-1.5.45-2.26.7l-.101-.3c-.739.25-1.5.5-2.229.78l.1.28c-.739.27-1.479.55-2.2.84l-.119-.28c-.74.3-1.471.6-2.2.9l.13.28c-.73.32-1.439.64-2.16.97l-.12-.26c-.72.34-1.43.7-2.13 1.04l.13.271c-.7.36-1.399.72-2.1 1.1l-.13-.26c-.7.37-1.4.75-2.07 1.15l.15.26c-.68.4-1.351.82-2.021 1.24l-.159-.26c-.671.42-1.33.85-2 1.3l.18.24c-.65.44-1.301.9-1.94 1.34l-.17-.24c-.64.46-1.28.93-1.899 1.4l.18.25c-.62.47-1.24.96-1.85 1.45l-.2-.23-1.8 1.5.18.24c-.601.5-1.18 1.03-1.76 1.56l-.2-.22c-.601.54-1.17 1.08-1.73 1.63l.2.22c-.561.55-1.12 1.1-1.66 1.67l-.22-.2c-.55.55-1.101 1.13-1.63 1.7l.229.2c-.54.6-1.06 1.2-1.569 1.78l-.24-.2c-.5.6-1.021 1.2-1.521 1.83l.24.2c-.5.6-1 1.23-1.46 1.86l-.24-.2c-.479.64-.949 1.28-1.399 1.92l.239.18c-.46.64-.899 1.3-1.35 1.94l-.25-.17c-.439.66-.87 1.32-1.3 2l.27.15c-.43.67-.84 1.34-1.239 2.02l-.261-.15c-.399.68-.779 1.37-1.159 2.07l.26.14c-.38.7-.74 1.4-1.1 2.1l-.271-.15c-.351.72-.7 1.43-1.04 2.15l.27.12c-.34.72-.659 1.43-.979 2.16l-.28-.12c-.3.73-.62 1.46-.899 2.2l.27.1c-.3.74-.58 1.48-.85 2.22l-.28-.1c-.27.74-.53 1.5-.77 2.24l.279.1c-.24.74-.479 1.5-.699 2.25l-.301-.08c-.199.76-.42 1.52-.62 2.3l.3.06c-.199.76-.399 1.53-.579 2.3l-.3-.07c-.171.78-.33 1.55-.5 2.33l.3.06c-.141.76-.3 1.53-.4 2.3l-.3-.04c-.141.78-.26 1.56-.36 2.35l.3.05c-.1.77-.199 1.56-.3 2.34l-.3-.04c-.07.8-.14 1.57-.2 2.36l.3.02c-.06.8-.1 1.57-.14 2.36h-.3c-.04.78-.061 1.57-.07 2.36h.3v2.38h-.3c.021.8.04 1.58.08 2.37h.3c.03.78.08 1.57.141 2.36l-.3.02c.06.8.129 1.57.199 2.36l.301-.04c.1.8.199 1.57.3 2.35l-.3.04c.1.78.22 1.56.35 2.34l.3-.05c.12.771.271 1.54.42 2.3l-.3.07c.15.78.3 1.55.5 2.32l.28-.08c.18.77.37 1.54.569 2.3l-.3.07c.2.76.42 1.52.64 2.28l.28-.1c.22.77.46 1.52.7 2.27l-.28.1c.24.74.5 1.5.771 2.23l.279-.1c.271.74.551 1.48.841 2.2l-.3.12c.3.74.6 1.47.92 2.2l.27-.13c.3.72.63 1.44.97 2.15l-.279.13c.329.72.68 1.43 1.029 2.13l.271-.13c.359.7.72 1.4 1.1 2.1l-.26.13c.38.7.77 1.4 1.16 2.07l.26-.15c.4.68.8 1.35 1.23 2.02l-.271.16c.42.67.851 1.33 1.3 2l.24-.18c.439.65.9 1.3 1.35 1.94l-.25.18c.461.64.931 1.28 1.4 1.9l.25-.18c.47.63.96 1.25 1.46 1.86l-.24.2c.5.6 1 1.2 1.521 1.8l.229-.18c.5.6 1.021 1.18 1.561 1.76l-.23.2c.54.6 1.08 1.17 1.63 1.73l.221-.2c.539.57 1.1 1.13 1.67 1.67l-.2.22c.55.54 1.13 1.08 1.7 1.62l.22-.23c.58.52 1.17 1.05 1.76 1.56l-.2.23c.601.5 1.2 1 1.83 1.5l.2-.23c.601.5 1.22 1 1.851 1.46l-.181.24c.63.48 1.271.95 1.9 1.4l.2-.24c.63.46 1.279.9 1.93 1.35l-.17.25c.66.44 1.32.87 2 1.3l.15-.27c.67.42 1.34.83 2.02 1.23l-.15.25c.681.4 1.37.78 2.07 1.16l.141-.25c.699.38 1.399.74 2.1 1.1l-.13.27c.7.35 1.399.7 2.13 1.04l.12-.28c.72.34 1.43.66 2.159.98l-.119.27c.72.3 1.449.62 2.199.9l.101-.27c.729.3 1.47.57 2.2.84l-.101.28c.75.27 1.5.53 2.25.77l.101-.28c.75.24 1.5.48 2.26.7l-.1.3c.77.2 1.529.42 2.3.62l.069-.3c.761.2 1.53.4 2.301.57l-.07.3c.77.17 1.54.33 2.32.5l.06-.3c.771.14 1.54.28 2.32.4l-.05.3c.8.14 1.569.26 2.359.36l.04-.3 2.34.3-.03.3c.801.07 1.58.14 2.37.2l.021-.3c.78.06 1.56.1 2.35.14v.3c.78.04 1.57.06 2.36.07v-.3l.007.009z"/><path fill="none" stroke="#FFF" stroke-width=".6" stroke-miterlimit="8" stroke-dasharray="2.4,2.4" d="M892.8 261.34h2.4l.02.3c.8-.02 1.62-.04 2.42-.1v-.3c.8-.03 1.601-.1 2.4-.16l.03.3c.8-.07 1.6-.15 2.399-.25l-.029-.3c.8-.1 1.6-.22 2.399-.34l.04.28c.8-.13 1.601-.27 2.4-.42l-.07-.3c.8-.16 1.601-.33 2.38-.5l.07.28a50.6 50.6 0 002.35-.6l-.08-.3c.78-.2 1.551-.43 2.32-.67l.1.3c.761-.25 1.53-.5 2.301-.78l-.101-.3c.75-.26 1.5-.54 2.261-.83l.1.27c.76-.3 1.5-.6 2.25-.93l-.12-.26c.74-.32 1.47-.66 2.2-1l.12.26c.729-.35 1.46-.7 2.17-1.08l-.13-.27c.699-.37 1.399-.76 2.1-1.16l.16.25c.7-.4 1.4-.8 2.08-1.24l-.16-.24c.7-.43 1.37-.87 2.03-1.3l.18.24c.68-.45 1.34-.92 2-1.4l-.18-.23c.649-.48 1.3-.96 1.93-1.45l.2.23c.63-.5 1.26-1 1.88-1.52l-.2-.23c.63-.52 1.24-1.05 1.84-1.58l.2.22c.601-.54 1.2-1.1 1.78-1.66l-.2-.2c.57-.57 1.14-1.14 1.7-1.72l.2.2c.58-.58 1.13-1.17 1.67-1.77l-.23-.2c.53-.6 1.061-1.22 1.58-1.84l.23.2c.52-.62 1.03-1.25 1.52-1.9l-.229-.18c.5-.63.979-1.28 1.449-1.93l.24.17c.471-.65.94-1.32 1.4-2l-.26-.16c.439-.66.88-1.34 1.3-2.03l.26.16c.43-.7.84-1.4 1.24-2.1l-.261-.14c.4-.7.801-1.4 1.16-2.13l.271.14c.37-.7.74-1.44 1.08-2.17l-.261-.13c.33-.72.671-1.45 1-2.2l.261.13c.33-.74.64-1.5.93-2.25l-.28-.1c.301-.75.57-1.5.84-2.27l.28.1c.271-.76.53-1.53.771-2.3l-.28-.1c.24-.76.47-1.53.68-2.3l.3.07c.2-.78.4-1.57.601-2.36l-.3-.07c.18-.8.359-1.58.5-2.37l.3.06c.16-.8.3-1.6.43-2.4l-.3-.04c.13-.8.25-1.6.35-2.4l.301.05c.1-.8.18-1.6.25-2.42h-.301c.08-.8.131-1.62.17-2.43l.301.02c.05-.8.069-1.62.1-2.43h-.3v-2.42l.3-.02c-.03-.8-.05-1.62-.1-2.42l-.301.02c-.039-.8-.1-1.6-.17-2.4l.301-.04c-.07-.8-.15-1.6-.25-2.4l-.301.03c-.1-.8-.22-1.6-.34-2.38l.301-.05c-.131-.8-.28-1.6-.431-2.4l-.3.07c-.141-.8-.32-1.58-.5-2.37l.3-.07c-.2-.8-.399-1.57-.6-2.35l-.3.08c-.2-.78-.44-1.55-.681-2.32l.3-.08c-.25-.77-.5-1.54-.779-2.3l-.28.1c-.271-.76-.55-1.52-.84-2.27l.27-.1c-.3-.76-.6-1.5-.939-2.25l-.271.12c-.33-.74-.67-1.47-1-2.2l.25-.12c-.34-.74-.7-1.46-1.08-2.18l-.27.14c-.37-.7-.76-1.42-1.16-2.12l.26-.15c-.4-.7-.8-1.4-1.24-2.1l-.25.17c-.42-.7-.859-1.37-1.3-2.04l.25-.16c-.45-.68-.92-1.34-1.399-2l-.23.18c-.47-.65-.96-1.3-1.45-1.93l.23-.2c-.5-.63-1-1.26-1.521-1.88l-.229.2a98 98 0 00-1.58-1.83l.22-.2c-.55-.6-1.1-1.2-1.67-1.77l-.2.2c-.569-.57-1.14-1.14-1.72-1.7l.22-.2c-.58-.58-1.18-1.13-1.78-1.67l-.199.22c-.601-.53-1.2-1.06-1.83-1.58l.199-.23c-.6-.52-1.239-1.03-1.879-1.52l-.2.23c-.62-.5-1.271-.98-1.921-1.45l.181-.24c-.66-.48-1.32-.95-2-1.4l-.17.25c-.65-.45-1.33-.88-2.021-1.3l.16-.26c-.7-.44-1.38-.85-2.08-1.25l-.15.26c-.699-.4-1.399-.78-2.1-1.15l.12-.27c-.7-.37-1.44-.74-2.17-1.1l-.13.28c-.72-.34-1.45-.68-2.2-1l.13-.28c-.74-.32-1.5-.63-2.24-.93l-.1.28c-.75-.3-1.5-.57-2.27-.84l.1-.3c-.76-.26-1.53-.52-2.3-.76l-.101.3c-.76-.25-1.529-.479-2.3-.7l.07-.28c-.78-.22-1.57-.42-2.351-.6l-.069.3c-.8-.2-1.57-.37-2.37-.52l.07-.3c-.801-.15-1.601-.3-2.4-.42l-.04.3c-.8-.14-1.6-.25-2.399-.35l.05-.3c-.8-.1-1.601-.18-2.4-.25l-.04.3c-.8-.08-1.6-.13-2.4-.18v-.3c-.8-.04-1.6-.07-2.42-.08v.3h-2.42l-.02-.3c-.8 0-1.62.04-2.42.1v.28c-.801.05-1.601.1-2.4.17l-.03-.28c-.8.07-1.6.15-2.399.25l.029.3c-.8.1-1.6.2-2.399.34l-.04-.28c-.8.12-1.6.27-2.4.42l.07.3c-.8.15-1.6.33-2.38.5l-.07-.28c-.78.18-1.569.38-2.35.6l.08.3c-.78.2-1.55.43-2.32.67l-.1-.3c-.761.25-1.53.5-2.3.78l.1.3c-.75.26-1.5.54-2.26.83l-.101-.28c-.76.3-1.5.6-2.25.93l.12.28c-.74.32-1.47.66-2.2 1l-.12-.27c-.729.34-1.46.7-2.17 1.08l.131.27c-.7.37-1.4.76-2.101 1.16l-.149-.25c-.7.4-1.4.8-2.101 1.24l.17.24c-.7.43-1.37.86-2.03 1.3l-.18-.24c-.67.45-1.34.92-2 1.4l.18.23c-.649.47-1.3.96-1.93 1.45l-.2-.23c-.63.5-1.26 1-1.88 1.52l.2.23c-.63.52-1.24 1.05-1.84 1.58l-.2-.22c-.6.54-1.2 1.1-1.78 1.66l.2.2c-.57.57-1.14 1.14-1.7 1.72l-.2-.2c-.58.57-1.13 1.17-1.67 1.77l.23.2c-.53.6-1.061 1.22-1.58 1.84l-.23-.2c-.52.62-1.029 1.25-1.52 1.9l.23.18c-.5.63-.971 1.28-1.45 1.93l-.24-.18c-.47.66-.94 1.32-1.4 2l.261.16c-.44.67-.881 1.35-1.301 2.04l-.26-.16c-.43.7-.84 1.4-1.24 2.1l.26.14c-.399.7-.8 1.4-1.159 2.12l-.271-.14c-.37.72-.74 1.44-1.1 2.18l.3.12c-.36.73-.7 1.46-1.021 2.2l-.26-.12c-.33.74-.64 1.5-.93 2.24l.28.1c-.3.76-.57 1.52-.841 2.28l-.279-.1c-.271.76-.53 1.53-.771 2.3l.28.1c-.24.76-.47 1.53-.68 2.3l-.301-.07-.6 2.35.3.07c-.18.8-.35 1.57-.5 2.37l-.3-.06c-.16.8-.3 1.6-.43 2.4l.3.04c-.14.8-.25 1.58-.35 2.4l-.3-.05c-.101.8-.181 1.6-.25 2.4l.3.04c-.08.8-.13 1.62-.17 2.42h-.3c-.051.8-.08 1.6-.101 2.4l.3.02v2.42h-.3c.021.82.05 1.63.101 2.43l.3-.03c.04.8.1 1.62.17 2.42h-.3c.069.82.149 1.63.25 2.43l.3-.04c.1.8.2 1.6.34 2.38l-.3.05c.13.8.279 1.6.43 2.4l.3-.07c.15.8.32 1.58.5 2.37l-.3.06.6 2.35.301-.08c.199.78.439 1.55.68 2.3l-.3.1c.25.78.5 1.55.78 2.3l.279-.1c.271.77.55 1.53.84 2.27l-.27.1c.3.77.6 1.52.939 2.26l.271-.12c.33.74.67 1.47 1.021 2.2l-.28.12c.35.73.72 1.46 1.1 2.17l.26-.14c.37.72.761 1.43 1.16 2.13l-.26.14c.399.7.8 1.4 1.24 2.1l.25-.17c.42.7.859 1.37 1.3 2.03l-.25.17c.45.67.92 1.34 1.4 2l.229-.18c.479.65.96 1.3 1.45 1.93l-.23.2c.5.63 1 1.26 1.521 1.88l.229-.2c.521.62 1.051 1.23 1.58 1.83l-.22.2c.55.6 1.1 1.18 1.67 1.77l.2-.2c.57.57 1.14 1.14 1.72 1.7l-.22.2c.58.58 1.18 1.13 1.779 1.67l.2-.22c.601.53 1.2 1.06 1.83 1.58l-.2.23c.601.52 1.24 1.03 1.881 1.52l.199-.23c.62.5 1.271.97 1.92 1.45l-.18.24c.66.479 1.33.95 2 1.4l.17-.25c.65.44 1.33.88 2.021 1.3l-.16.26c.7.44 1.38.85 2.1 1.25l.13-.26c.7.4 1.4.78 2.101 1.15l-.12.27c.7.37 1.439.73 2.17 1.08l.13-.27c.72.35 1.45.7 2.2 1l-.13.28c.739.34 1.5.65 2.239.94l.101-.27c.75.3 1.5.57 2.271.84l-.101.3c.76.26 1.53.52 2.3.76l.101-.3c.76.25 1.529.48 2.3.7l-.07.28c.78.22 1.57.42 2.35.6l.07-.3c.8.2 1.57.36 2.37.52l-.07.3c.8.15 1.601.3 2.4.42l.04-.3c.8.13 1.6.25 2.4.35l-.051.3c.801.1 1.601.18 2.4.25l.04-.3c.8.07 1.6.13 2.399.17v.3c.801.05 1.601.07 2.421.1v-.3l.019-.01z"/><path fill="#00181B" d="M857.87 215.6h.76v-1.83h4.88c.13 0 .221 0 .351-.02.05-.02.13-.02.2-.02v.04a.348.348 0 00-.15.1c-.1.08-.18.17-.25.26l-3.7 4.34.229.57h.25c.16-.03.381-.03.601-.03 1.7 0 3.36 1.07 3.36 3 0 1.87-1.58 3.13-3.16 3.13-1.03 0-1.87-.38-2.471-.8a4.01 4.01 0 01-.899-.8l-.601.6c.32.3.681.6 1.07.85.7.44 1.66.9 2.86.9 2.18 0 4-1.7 4-3.87 0-2.96-2.65-3.7-4.16-3.7l4.07-4.7v-.55h-7.23v2.54l-.01-.01zm10.63 5.32h4.97v-.72h-4.97v.72zm7.439 3.3c.24.3.541.58.881.82.6.4 1.479.83 2.699.83 2.42 0 4.32-1.86 4.32-4.13 0-2.26-1.83-4-4.2-4-.67 0-1.229.13-1.649.28-.24.1-.44.18-.641.3h-.029l.029-.18.08-.34.48-4.03h4.4v1.82h.77v-2.55h-5.86l-.72 6 .57.2c.199-.15.439-.28.699-.4.461-.2 1.08-.38 1.801-.38 1.96 0 3.43 1.3 3.43 3.38 0 1.73-1.53 3.28-3.5 3.28-1 0-1.75-.36-2.26-.72-.3-.2-.54-.44-.73-.7l-.6.53.03-.01zm9.301 1.43h1.92l2.2-3.64c.1-.1.159-.24.2-.33l.079-.14h.04c.021.05.051.1.101.14l.17.33 2.229 3.65h1.93v-.7h-1.47l-2.479-3.98 2.27-3.62H894v-.7h-2.02l-2 3.26-.2.35-.08.14h-.04c-.021-.06-.03-.1-.07-.17l-.2-.3-2-3.28h-2.04v.7h1.601l2.229 3.6-2.449 4h-1.5v.7l.009-.01zm14.6 0H904v-.72h-1.7v-4.86h2.101c.88 0 1.1.18 1.5.83l2.239 3.8c.5.82.63.95 1.73.95h.33v-.72h-.341c-.5 0-.699-.05-.93-.4l-2.37-4.05c-.1-.16-.18-.27-.26-.34l-.1-.1V220c1.85-.24 3-1.64 3-3.6 0-1.64-.771-2.6-1.94-3.06-.7-.24-1.32-.3-2.16-.3h-5.3v.73h1.7v11.16h-1.7v.72h.041zm2.47-6.3v-5.58h2.8c.671 0 1.301.05 1.78.25.96.36 1.55 1.12 1.55 2.4 0 1.76-1.13 2.93-2.8 2.93h-3.33zm9.58-.1c0 3.7 2.86 6.62 6.37 6.62s6.37-2.92 6.37-6.6c0-3.63-2.86-6.44-6.37-6.44s-6.37 2.8-6.37 6.43v-.01zm.799 0c0-3.23 2.471-5.68 5.57-5.68 3.101 0 5.561 2.45 5.561 5.7 0 3.3-2.461 5.86-5.551 5.86s-5.56-2.56-5.56-5.87l-.02-.01zm13.861 6.4h4.2v-.72H929v-11.16h1.7v-.72h-4.181v.72h1.7v11.16h-1.7v.72h.031z"/></svg>