<svg width="1024" height="317" xmlns="http://www.w3.org/2000/svg" xmlns:xlink="http://www.w3.org/1999/xlink"><defs><filter x="-1.6%" y="-1.6%" width="103.2%" height="103.2%" filterUnits="objectBoundingBox" id="b"><feGaussianBlur stdDeviation="1.5" in="SourceAlpha" result="shadowBlurInner1"/><feOffset dy="1" in="shadowBlurInner1" result="shadowOffsetInner1"/><feComposite in="shadowOffsetInner1" in2="SourceAlpha" operator="arithmetic" k2="-1" k3="1" result="shadowInnerInner1"/><feColorMatrix values="0 0 0 0 0 0 0 0 0 0 0 0 0 0 0 0 0 0 0.5 0" in="shadowInnerInner1"/></filter><filter x="-3.4%" y="-4.6%" width="106.9%" height="113%" filterUnits="objectBoundingBox" id="d"><feOffset dy="2" in="SourceAlpha" result="shadowOffsetOuter1"/><feGaussianBlur stdDeviation="2" in="shadowOffsetOuter1" result="shadowBlurOuter1"/><feColorMatrix values="0 0 0 0 0 0 0 0 0 0 0 0 0 0 0 0 0 0 0.5 0" in="shadowBlurOuter1"/></filter><filter x="-2.7%" y="-8.8%" width="105.5%" height="113.7%" filterUnits="objectBoundingBox" id="f"><feOffset dy="-2" in="SourceAlpha" result="shadowOffsetOuter1"/><feGaussianBlur stdDeviation="2" in="shadowOffsetOuter1" result="shadowBlurOuter1"/><feColorMatrix values="0 0 0 0 0 0 0 0 0 0 0 0 0 0 0 0 0 0 0.5 0" in="shadowBlurOuter1"/></filter><path d="M121.235 96L105 108 88.765 96H8a8 8 0 01-8-8V8a8 8 0 018-8h187a8 8 0 018 8v80a8 8 0 01-8 8h-73.765z" id="e"/><path d="M148.235 90L132 102l-16.235-12H8a8 8 0 01-8-8V8a8 8 0 018-8h239a8 8 0 018 8v74a8 8 0 01-8 8h-98.765z" id="g"/><linearGradient x1="75.222%" y1="10.117%" x2="75.222%" y2="100%" id="c"><stop stop-color="#FFF" stop-opacity=".893" offset="0%"/><stop stop-color="#FFF" stop-opacity="0" offset="100%"/></linearGradient><circle id="a" cx="63" cy="63" r="63"/></defs><g transform="translate(-75)" fill="none" fill-rule="evenodd"><g transform="translate(882)"><use fill="#016ECD" xlink:href="#a"/><use fill="#000" filter="url(#b)" xlink:href="#a"/></g><text font-family="MuseoSans-700, Museo Sans" font-size="18" font-weight="500" letter-spacing="-.101" fill="#FFF" transform="translate(882)"><tspan x="44.085" y="59">3-5x </tspan> <tspan x="47.14" y="81">ROI</tspan></text><path d="M455.237 549.804c-407.2-181.11-541.226-316.611-402.078-406.5C261.88 8.467 456.912 135.756 573.832 208.24c116.92 72.484 267.046 77.071 410.974 0C1200.731 92.616 1415.463 103.114 1629 239.733v310.071H455.237z" fill="url(#c)" style="mix-blend-mode:overlay" opacity=".4" transform="matrix(-1 0 0 1 1629 0)"/><path d="M1173.763 549.804c407.2-181.11 541.226-316.611 402.078-406.5-208.722-134.836-403.753-7.547-520.673 64.937-116.92 72.484-267.046 77.071-410.974 0C428.269 92.616 213.537 103.114 0 239.733v310.071h1173.763z" fill="#92E0FA"/><path d="M697.892 233.15c-17.945-7.067-35.869-15.362-53.698-24.909-101.781-54.502-203.297-80.981-304.547-79.437" stroke="#FFF" stroke-width="3" stroke-linecap="round"/><g transform="translate(591 104)"><use fill="#000" filter="url(#d)" xlink:href="#e"/><use fill="#FFF" xlink:href="#e"/></g><text font-family="MuseoSans-500, Museo Sans" font-size="27" letter-spacing="-.151" fill="#016ECD" transform="translate(602 118)"><tspan x="50.939" y="64">$3,125</tspan></text><text font-family="MuseoSans-300, Museo Sans" font-size="14" font-weight="300" fill="#00181B" transform="translate(602 118)"><tspan x="8.108" y="13">Avg. Annual Cost </tspan> <tspan x="120.29" y="13" font-family="MuseoSans-700, Museo Sans" font-weight="500">Savings</tspan> <tspan x="169.892" y="13"> </tspan> <tspan x="17.341" y="30">Per User With BlueStar</tspan></text><circle fill="#FFF" cx="339.5" cy="128.5" r="9.5"/><circle fill="#FFF" cx="696.5" cy="233.5" r="9.5"/><g transform="translate(206 9)"><use fill="#000" filter="url(#f)" xlink:href="#g"/><use fill="#FFF" xlink:href="#g"/></g><text font-family="MuseoSans-500, Museo Sans" font-size="27" fill="#016ECD" transform="translate(206 9)"><tspan x="78.767" y="74">$16,090</tspan></text><text font-family="MuseoSans-300, Museo Sans" font-size="14" font-weight="300" fill="#00181B" transform="translate(206 9)"><tspan x="38.645" y="25">Avg. Annual Medical Cost of </tspan> <tspan x="37.826" y="42">Person with Type 2 Diabetes</tspan></text></g></svg>