<svg xmlns="http://www.w3.org/2000/svg" width="131" height="131"><g fill="none"><path fill="#fff" fill-rule="evenodd" d="M44.5 89C69.08 89 89 69.08 89 44.5S69.08 0 44.5 0 0 19.92 0 44.5 19.92 89 44.5 89z" clip-rule="evenodd" transform="translate(21 21)" filter="url(#a)"/><path fill="#2D2C6F" fill-rule="evenodd" d="M65.03 33c-12.1 0-21.92 9.82-21.92 21.93 0 12.1 9.82 21.92 21.93 21.92 12.1 0 21.93-9.8 21.93-21.92 0-12.1-9.82-21.93-21.93-21.93zm0 2.5c10.7 0 19.43 8.7 19.43 19.43 0 10.7-8.72 19.42-19.43 19.42-10.7 0-19.42-8.7-19.42-19.42 0-10.72 8.72-19.43 19.43-19.43z" clip-rule="evenodd"/><path fill="#2D2C6F" fill-rule="evenodd" d="M65.03 40.4C57 40.4 50.5 46.9 50.5 54.93c0 8.02 6.5 14.52 14.53 14.52 8.02 0 14.53-6.5 14.53-14.52 0-8.03-6.5-14.53-14.53-14.53zm0 2.5c6.63 0 12.03 5.4 12.03 12.03 0 6.62-5.4 12.02-12.03 12.02-6.63 0-12.02-5.4-12.02-12.02 0-6.63 5.4-12.03 12.03-12.03z" clip-rule="evenodd"/><path stroke="#2D2C6F" stroke-width="2.5" d="M59.9 79.7l-8.35 17.35L48.8 85.8l-10.55 4.68L46.9 72.7m23.27 7l8.35 17.35 2.76-11.26 10.54 4.68-8.67-17.78" stroke-linejoin="round"/><path stroke="url(#b)" stroke-width="2.5" d="M3.6 10.5V0L0 2.87" stroke-linecap="round" stroke-linejoin="round" transform="translate(61.906 49.681)"/><path stroke="#fff" stroke-width=".5" stroke-miterlimit="8" d="M64.5 130.74h2v.25c.65-.02 1.3-.04 1.97-.07v-.25c.65-.03 1.3-.06 1.96-.1l.02.24c.66-.05 1.3-.1 1.96-.18v-.25c.64-.08 1.3-.16 1.95-.25l.03.25c.66-.1 1.3-.18 1.96-.3l-.04-.24c.65-.1 1.3-.23 1.93-.35l.05.25c.65-.13 1.3-.26 1.94-.4l-.06-.25c.64-.15 1.28-.3 1.92-.47l.06.24c.64-.17 1.27-.35 1.9-.53l-.06-.24c.63-.2 1.25-.38 1.88-.6l.08.25c.62-.2 1.25-.42 1.87-.65l-.08-.23c.62-.23 1.23-.46 1.84-.7l.1.23c.6-.24 1.22-.5 1.82-.76l-.1-.23c.6-.25 1.2-.52 1.8-.8l.1.23c.6-.28 1.2-.57 1.8-.87l-.13-.22c.6-.3 1.17-.6 1.75-.92l.12.22c.58-.3 1.15-.64 1.72-.97l-.13-.22c.58-.33 1.14-.67 1.7-1.02l.13.2c.56-.34 1.1-.7 1.66-1.06l-.15-.2c.55-.38 1.1-.75 1.63-1.13l.14.2c.54-.38 1.07-.77 1.6-1.17l-.16-.2c.53-.4 1.04-.8 1.55-1.22l.17.2c.5-.42 1.02-.84 1.52-1.27l-.17-.2c.5-.42 1-.86 1.47-1.3l.17.2c.5-.46.97-.9 1.44-1.37l-.16-.17c.47-.46.93-.92 1.4-1.4l.17.18c.47-.46.92-.94 1.37-1.43l-.2-.17c.45-.48.9-.97 1.32-1.47l.18.16c.43-.5.85-1.02 1.27-1.53l-.2-.16c.42-.5.82-1.02 1.22-1.54l.2.15c.4-.5.8-1.04 1.17-1.58l-.2-.14c.38-.54.75-1.08 1.12-1.63l.2.14c.37-.56.73-1.1 1.08-1.67l-.2-.13c.34-.56.68-1.12 1-1.7l.23.14c.33-.57.66-1.14.97-1.72l-.22-.12c.32-.58.62-1.16.92-1.75l.22.12c.3-.6.6-1.18.87-1.78l-.23-.12c.28-.6.55-1.2.8-1.8l.24.1c.27-.6.52-1.2.76-1.82l-.23-.1c.24-.6.47-1.22.7-1.84l.23.1c.23-.63.44-1.26.65-1.88l-.24-.08c.22-.63.4-1.25.6-1.88l.24.07c.18-.64.36-1.27.53-1.9l-.24-.07c.16-.64.32-1.28.47-1.92l.24.06c.15-.64.28-1.3.4-1.94l-.23-.05c.13-.64.25-1.28.36-1.93l.25.04c.12-.65.2-1.3.3-1.96l-.25-.03c.1-.65.17-1.3.24-1.96h.24c.07-.64.13-1.3.18-1.95l-.25-.02c.05-.66.1-1.3.1-1.97h.26c.03-.65.05-1.3.06-1.97h-.26v-2h.25c-.02-.65-.04-1.3-.07-1.97h-.25c-.03-.65-.06-1.3-.1-1.96l.24-.02c-.05-.66-.1-1.3-.18-1.96h-.25c-.08-.64-.16-1.3-.25-1.95l.25-.03c-.1-.66-.18-1.3-.3-1.96l-.24.04c-.1-.65-.23-1.3-.35-1.93l.25-.05c-.13-.65-.26-1.3-.4-1.94l-.25.06c-.15-.64-.3-1.28-.47-1.92l.24-.06c-.17-.64-.35-1.27-.53-1.9l-.24.06c-.2-.63-.38-1.25-.6-1.88l.25-.08c-.2-.62-.42-1.25-.65-1.87l-.23.08c-.23-.62-.46-1.23-.7-1.84l.23-.1c-.24-.6-.5-1.22-.76-1.82l-.23.1c-.25-.6-.52-1.2-.8-1.8l.23-.1c-.28-.6-.57-1.2-.87-1.8l-.22.13c-.3-.6-.6-1.17-.92-1.75l.22-.12c-.3-.58-.64-1.15-.97-1.72l-.22.13c-.33-.58-.67-1.14-1.02-1.7l.2-.13c-.34-.56-.7-1.12-1.06-1.66l-.2.15c-.38-.55-.75-1.1-1.13-1.63l.2-.14c-.38-.54-.77-1.07-1.17-1.6l-.2.16c-.4-.53-.8-1.04-1.22-1.55l.2-.17c-.42-.5-.84-1.02-1.27-1.52l-.2.17c-.42-.5-.86-1-1.3-1.47l.2-.17c-.46-.5-.9-.97-1.37-1.44l-.17.16c-.46-.47-.92-.93-1.4-1.4l.18-.17c-.46-.47-.94-.92-1.43-1.37l-.17.2c-.48-.45-.97-.9-1.47-1.32l.16-.18c-.5-.43-1.02-.85-1.53-1.27l-.16.2c-.5-.42-1.02-.82-1.54-1.22l.15-.2c-.5-.4-1.04-.8-1.58-1.17l-.14.2c-.54-.38-1.08-.75-1.63-1.12l.14-.2c-.56-.37-1.1-.73-1.67-1.08l-.13.2c-.56-.34-1.12-.68-1.7-1l.14-.23c-.57-.33-1.14-.66-1.72-.97l-.12.22c-.58-.32-1.16-.62-1.75-.92l.12-.22c-.6-.3-1.18-.6-1.78-.87l-.12.23c-.6-.28-1.2-.55-1.8-.8l.1-.24c-.6-.27-1.2-.52-1.82-.76l-.1.23c-.6-.24-1.22-.47-1.84-.7l.1-.23c-.63-.23-1.26-.44-1.88-.65l-.08.24c-.63-.22-1.25-.4-1.88-.6l.07-.24c-.64-.18-1.27-.36-1.9-.53l-.07.24c-.64-.16-1.28-.32-1.92-.47l.06-.24c-.64-.15-1.3-.28-1.94-.4l-.05.23c-.64-.14-1.28-.25-1.93-.36l.04-.25c-.65-.12-1.3-.2-1.96-.3l-.03.24c-.7-.01-1.35-.09-2-.17V.37C71.77.3 71.1.23 70.46.18l-.02.25c-.66-.05-1.3-.08-1.97-.1V.06L66.5 0v.26h-2V0c-.65.02-1.3.04-1.97.07v.25c-.65.03-1.3.06-1.96.1L60.55.2c-.66.05-1.3.1-1.96.18V.6c-.64.08-1.3.16-1.95.24L56.62.6c-.66.1-1.3.18-1.96.3l.04.24c-.65.1-1.3.22-1.93.35l-.05-.25c-.65.13-1.3.26-1.94.4l.06.25c-.64.15-1.28.3-1.92.47l-.06-.24c-.64.17-1.27.35-1.9.53l.06.24c-.63.2-1.25.38-1.88.6l-.08-.25c-.62.2-1.25.42-1.87.65l.08.23c-.62.23-1.23.46-1.84.7l-.1-.23c-.6.24-1.22.5-1.82.76l.1.23c-.6.25-1.2.52-1.8.8l-.1-.23c-.6.28-1.2.57-1.8.87l.13.22c-.6.3-1.17.6-1.75.92l-.12-.22c-.58.3-1.15.64-1.72.97l.13.22c-.58.33-1.14.67-1.7 1.02l-.13-.2c-.56.34-1.12.7-1.66 1.06l.15.2c-.55.38-1.1.75-1.63 1.13l-.14-.2c-.54.38-1.07.77-1.6 1.17l.16.2c-.53.4-1.04.8-1.55 1.22l-.17-.2c-.5.42-1.02.84-1.52 1.27l.17.2c-.5.42-1 .86-1.47 1.3l-.17-.2c-.5.46-.97.9-1.44 1.37l.16.17c-.47.46-.93.92-1.4 1.4l-.17-.18c-.47.46-.92.94-1.37 1.43l.2.17c-.45.48-.9.98-1.32 1.47l-.18-.16c-.43.5-.85 1.02-1.27 1.53l.2.16c-.42.5-.82 1-1.22 1.54l-.2-.15c-.4.5-.8 1.04-1.17 1.58l.2.14c-.38.54-.75 1.08-1.12 1.63l-.2-.14c-.37.55-.73 1.1-1.08 1.67l.2.13c-.34.56-.68 1.12-1 1.7l-.23-.14c-.33.57-.66 1.14-.97 1.72l.22.12c-.32.58-.62 1.16-.92 1.75l-.22-.12c-.3.6-.6 1.18-.87 1.78l.23.12c-.28.6-.55 1.2-.8 1.8l-.24-.1c-.27.6-.52 1.2-.76 1.82l.23.1c-.24.6-.47 1.22-.7 1.84l-.23-.1c-.23.63-.44 1.26-.65 1.88l.24.08c-.22.63-.4 1.25-.6 1.88l-.24-.07c-.18.64-.36 1.27-.53 1.9l.24.07c-.16.64-.32 1.28-.47 1.92l-.24-.06c-.15.64-.28 1.3-.4 1.94l.23.05c-.14.64-.25 1.28-.36 1.93l-.25-.04c-.12.65-.2 1.3-.3 1.96l.24.03c-.08.65-.16 1.3-.23 1.96H.37c-.07.64-.13 1.3-.18 1.95l.25.02c-.05.66-.08 1.3-.1 1.97H.06c-.03.65-.05 1.3-.06 1.97h.26v2H0c.02.65.04 1.3.07 1.97h.25c.03.65.06 1.3.1 1.96l-.24.02c.05.66.1 1.3.18 1.96H.6c.08.64.16 1.3.24 1.95l-.24.03c.1.66.18 1.3.3 1.96l.24-.04c.1.65.22 1.3.35 1.93l-.25.05c.13.65.26 1.3.4 1.94l.25-.06c.15.64.3 1.28.47 1.92l-.24.06c.17.64.35 1.27.53 1.9L2.9 84c.2.63.38 1.25.6 1.88l-.25.08c.2.62.42 1.25.65 1.87l.23-.08c.23.62.46 1.23.7 1.84l-.23.1c.24.6.5 1.22.76 1.82l.23-.1c.25.6.52 1.2.8 1.8l-.23.1c.28.6.57 1.2.87 1.8l.22-.13c.3.6.6 1.17.92 1.75l-.22.12c.3.58.64 1.15.97 1.72l.22-.13c.33.58.67 1.14 1.02 1.7l-.2.13c.34.56.7 1.1 1.06 1.66l.2-.15c.38.55.75 1.1 1.13 1.63l-.2.14c.38.54.77 1.07 1.17 1.6l.2-.16c.4.53.8 1.04 1.22 1.55l-.2.17c.42.5.84 1.02 1.27 1.52l.2-.17c.42.5.86 1 1.3 1.47l-.2.17c.46.5.9.97 1.37 1.44l.17-.16c.46.47.92.93 1.4 1.4l-.18.17c.46.47.94.92 1.43 1.37l.17-.2c.48.45.98.9 1.47 1.32l-.16.18c.5.43 1.02.85 1.53 1.27l.16-.2c.5.42 1 .82 1.54 1.22l-.15.2c.5.4 1.04.8 1.58 1.17l.14-.2c.54.38 1.08.75 1.63 1.12l-.14.2c.55.37 1.1.73 1.67 1.08l.13-.2c.56.34 1.12.68 1.7 1l-.14.23c.57.33 1.14.66 1.72.97l.12-.22c.58.32 1.16.62 1.75.92l-.12.22c.6.3 1.18.6 1.78.87l.12-.23c.6.28 1.2.55 1.8.8l-.1.24c.6.27 1.2.52 1.82.76l.1-.23c.6.24 1.22.47 1.84.7l-.1.23c.63.23 1.26.44 1.88.65l.08-.24c.63.22 1.25.4 1.88.6l-.07.24c.64.18 1.27.36 1.9.53l.07-.24c.64.16 1.28.32 1.92.47l-.06.24c.64.15 1.3.28 1.94.4l.05-.23c.64.13 1.28.25 1.93.36l-.04.25c.65.12 1.3.2 1.96.3l.03-.25c.65.1 1.3.17 1.96.24v.24c.64.07 1.3.13 1.95.18l.02-.25c.66.05 1.3.1 1.97.1v.26c.65.03 1.3.05 1.97.06v-.26z" clip-rule="evenodd" stroke-dasharray="2 2" opacity=".45"/><path stroke="#fff" stroke-width=".5" stroke-miterlimit="8" d="M64.5 121.74h2v.25c.7-.02 1.36-.04 2.03-.08l-.02-.25c.68-.03 1.35-.08 2.02-.14l.02.25c.67-.06 1.34-.13 2-.22l-.02-.24c.66-.1 1.32-.18 1.98-.3l.04.26c.67-.1 1.33-.22 2-.36l-.06-.24c.66-.13 1.3-.27 1.96-.43l.06.25c.66-.16 1.3-.32 1.95-.5l-.06-.24c.63-.18 1.28-.37 1.9-.57l.1.23c.63-.2 1.27-.4 1.9-.63l-.08-.24c.63-.22 1.26-.46 1.88-.7l.1.23c.62-.26 1.24-.5 1.86-.78l-.1-.23c.6-.28 1.22-.56 1.82-.85l.1.23c.62-.3 1.22-.6 1.8-.9l-.1-.23c.6-.3 1.18-.63 1.76-.96l.12.2c.6-.33 1.17-.67 1.74-1.02l-.14-.22c.57-.35 1.14-.7 1.7-1.08l.13.2c.55-.37 1.1-.76 1.65-1.15l-.15-.2c.55-.4 1.08-.8 1.6-1.2l.16.2c.53-.42 1.06-.84 1.57-1.28l-.16-.2c.52-.42 1.02-.86 1.52-1.3l.16.18c.5-.45 1-.9 1.47-1.37l-.17-.18c.48-.47.95-.94 1.42-1.42l.18.17c.47-.48.92-.97 1.37-1.47l-.18-.17c.44-.5.88-1 1.3-1.53l.2.16c.44-.5.86-1.04 1.27-1.57l-.2-.15c.42-.52.82-1.06 1.2-1.6l.2.15c.4-.55.8-1.1 1.16-1.66l-.2-.15c.37-.55.73-1.12 1.08-1.7l.22.15c.35-.57.7-1.15 1.03-1.74l-.2-.12c.32-.58.64-1.17.95-1.76l.23.1c.3-.58.6-1.18.9-1.8l-.23-.1c.3-.6.57-1.2.84-1.82l.22.1c.27-.62.52-1.24.77-1.87l-.24-.1c.24-.62.48-1.25.7-1.88l.24.08c.22-.63.43-1.27.63-1.9l-.24-.1c.2-.62.38-1.27.56-1.9l.24.05c.18-.64.34-1.3.5-1.95l-.25-.06c.16-.65.3-1.3.43-1.96l.25.05c.13-.66.24-1.32.35-2l-.25-.03.3-1.98.24.03c.08-.67.15-1.34.2-2l-.24-.03c.06-.67.1-1.34.14-2h.25c.04-.66.06-1.33.07-2h-.26v-2.02h.25c-.02-.7-.04-1.36-.08-2.03l-.25.02c-.03-.68-.08-1.35-.14-2.02l.25-.02c-.06-.67-.13-1.34-.2-2l-.26.02c-.1-.66-.18-1.32-.3-1.98l.26-.04c-.1-.67-.22-1.33-.35-2l-.25.06c-.13-.66-.27-1.3-.43-1.96l.25-.06c-.16-.66-.32-1.3-.5-1.95l-.24.06c-.18-.63-.37-1.28-.57-1.9l.23-.1c-.2-.63-.4-1.27-.63-1.9l-.24.08c-.22-.63-.46-1.26-.7-1.88l.23-.1c-.26-.62-.5-1.24-.78-1.86l-.23.1c-.28-.6-.56-1.22-.85-1.82l.23-.1c-.3-.62-.6-1.22-.9-1.8l-.23.1c-.3-.6-.63-1.18-.96-1.76l.2-.12c-.33-.6-.67-1.17-1.02-1.74l-.22.14c-.35-.57-.7-1.14-1.08-1.7l.2-.13c-.37-.55-.75-1.1-1.15-1.65l-.2.15c-.4-.55-.8-1.08-1.2-1.6l.2-.16c-.42-.53-.84-1.06-1.28-1.57l-.2.16c-.42-.52-.86-1.02-1.3-1.52l.18-.16c-.45-.5-.9-1-1.37-1.47l-.18.17c-.47-.48-.94-.95-1.42-1.42l.17-.18c-.48-.47-.97-.92-1.47-1.37l-.17.18c-.5-.44-1-.88-1.53-1.3l.16-.2c-.5-.44-1.04-.86-1.57-1.27l-.15.2c-.52-.4-1.05-.82-1.6-1.2l.15-.2c-.55-.4-1.1-.8-1.66-1.16l-.15.2c-.55-.37-1.12-.73-1.7-1.08l.15-.22c-.57-.35-1.15-.7-1.74-1.03l-.12.2c-.58-.32-1.17-.64-1.76-.95l.1-.22c-.58-.32-1.18-.62-1.8-.9l-.1.22c-.6-.3-1.2-.57-1.82-.84l.1-.22c-.62-.27-1.24-.52-1.87-.77l-.1.24c-.62-.24-1.25-.48-1.88-.7l.08-.24c-.63-.22-1.27-.43-1.9-.63l-.1.24c-.62-.2-1.27-.38-1.9-.56l.05-.24c-.64-.18-1.3-.34-1.95-.5l-.06.25c-.65-.16-1.3-.3-1.96-.43l.05-.24c-.66-.13-1.32-.25-2-.36l-.03.25-1.98-.3.03-.23c-.67-.1-1.34-.16-2-.22l-.03.25c-.67-.06-1.34-.1-2-.14v-.25c-.66-.04-1.33-.06-2-.07v.26h-2.02V9c-.7.02-1.36.04-2.03.08l.02.25c-.68.03-1.35.08-2.02.14l-.02-.25c-.67.06-1.34.13-2 .22l.02.24c-.66.1-1.32.18-1.98.3l-.04-.26c-.67.1-1.33.23-2 .36l.06.24c-.66.13-1.3.27-1.96.43l-.06-.25c-.66.16-1.3.32-1.95.5l.06.24c-.63.18-1.28.37-1.9.57l-.1-.23c-.63.2-1.27.4-1.9.63l.08.24c-.63.22-1.26.46-1.88.7l-.1-.23c-.62.26-1.24.5-1.86.78l.1.23c-.6.28-1.22.56-1.82.85l-.1-.23c-.62.3-1.22.6-1.8.9l.1.23c-.6.3-1.18.63-1.76.96l-.12-.2c-.6.33-1.17.67-1.74 1.02l.14.22c-.57.35-1.14.7-1.7 1.08l-.13-.2c-.55.37-1.1.75-1.65 1.15l.15.2c-.55.4-1.08.8-1.6 1.2l-.16-.2c-.53.42-1.06.84-1.57 1.28l.16.2c-.52.42-1.02.86-1.52 1.3l-.16-.18c-.5.45-1 .9-1.47 1.37l.17.18c-.48.47-.95.94-1.42 1.42l-.18-.17c-.47.48-.92.97-1.37 1.47l.18.17c-.44.5-.88 1-1.3 1.53l-.2-.16c-.44.5-.86 1.04-1.27 1.57l.2.15c-.4.52-.82 1.05-1.2 1.6l-.2-.15c-.4.55-.8 1.1-1.16 1.66l.2.15c-.37.55-.73 1.12-1.08 1.7l-.22-.15c-.35.57-.7 1.15-1.03 1.74l.2.12c-.32.58-.64 1.17-.95 1.76l-.22-.1c-.32.58-.62 1.18-.9 1.8l.22.1c-.3.6-.57 1.2-.84 1.82l-.22-.1c-.27.62-.52 1.24-.77 1.87l.24.1c-.24.62-.48 1.25-.7 1.88l-.24-.08c-.22.63-.43 1.27-.63 1.9l.24.1c-.2.62-.38 1.27-.56 1.9l-.24-.05c-.18.64-.34 1.3-.5 1.95l.25.06c-.16.65-.3 1.3-.43 1.96l-.24-.05c-.13.66-.25 1.32-.36 2l.25.03-.3 1.98-.23-.03c-.1.67-.16 1.34-.22 2l.25.03c-.06.67-.1 1.34-.14 2H9c-.04.66-.06 1.33-.07 2h.26v2.02H9c.02.7.04 1.36.08 2.03l.25-.02c.03.68.08 1.35.14 2.02l-.25.02c.06.67.13 1.34.22 2l.24-.02c.1.66.18 1.32.3 1.98l-.26.04c.1.67.23 1.33.36 2l.24-.06c.13.66.27 1.3.43 1.96l-.25.06c.16.66.32 1.3.5 1.95l.24-.06c.18.63.37 1.28.57 1.9l-.23.1c.2.63.4 1.27.63 1.9l.24-.08c.22.63.46 1.26.7 1.88l-.23.1c.26.62.5 1.24.78 1.86l.23-.1c.28.6.56 1.22.85 1.82l-.23.1c.3.62.6 1.22.9 1.8l.23-.1c.3.6.63 1.18.96 1.76l-.2.12c.33.6.67 1.17 1.02 1.74l.22-.14c.35.57.7 1.14 1.08 1.7l-.2.13c.37.55.76 1.1 1.15 1.65l.2-.15c.4.54.8 1.08 1.2 1.6l-.2.16c.42.53.84 1.06 1.28 1.57l.2-.16c.42.52.86 1.02 1.3 1.52l-.18.16c.45.5.9 1 1.37 1.47l.18-.17c.47.48.94.95 1.42 1.42l-.17.18c.48.47.97.92 1.47 1.37l.17-.18c.5.44 1 .88 1.53 1.3l-.16.2c.5.44 1.04.86 1.57 1.27l.15-.2c.52.4 1.06.82 1.6 1.2l-.15.2c.55.4 1.1.8 1.66 1.16l.15-.2c.55.37 1.12.73 1.7 1.08l-.15.22c.57.35 1.15.7 1.74 1.03l.12-.2c.58.32 1.17.64 1.76.95l-.1.23c.58.3 1.18.6 1.8.9l.1-.23c.6.3 1.2.57 1.82.84l-.1.22c.62.27 1.24.52 1.87.77l.1-.24c.62.24 1.25.48 1.88.7l-.08.24c.63.22 1.27.43 1.9.63l.1-.24c.62.2 1.27.38 1.9.56l-.05.24c.64.18 1.3.34 1.95.5l.06-.25c.65.16 1.3.3 1.96.43l-.05.24c.66.14 1.32.25 2 .36l.03-.25 1.98.3-.03.23c.67.1 1.34.16 2 .22l.03-.25c.67.06 1.34.1 2 .14v.25c.66.04 1.33.06 2 .07v-.26z" clip-rule="evenodd" stroke-dasharray="2 2" opacity=".631"/></g><defs><linearGradient id="b" x2="1" gradientUnits="userSpaceOnUse" gradientTransform="matrix(3.602 -10.50902 3.602 10.50902 0 10.516)"><stop stop-color="#2D2C6F"/><stop offset="1" stop-color="#46C4E0"/></linearGradient><filter id="a" width="127" height="127" x="2" y="2" filterUnits="userSpaceOnUse" color-interpolation-filters="sRGB"><feFlood flood-opacity="0" result="BackgroundImageFix"/><feColorMatrix in="SourceAlpha" values="0 0 0 0 0 0 0 0 0 0 0 0 0 0 0 0 0 0 255 0"/><feOffset/><feGaussianBlur stdDeviation="9.5"/><feColorMatrix values="0 0 0 0 1 0 0 0 0 1 0 0 0 0 1 0 0 0 0.896654 0"/><feBlend in2="BackgroundImageFix" result="effect1_dropShadow"/><feBlend in="SourceGraphic" in2="effect1_dropShadow" result="shape"/></filter></defs></svg>