<?xml version="1.0" encoding="UTF-8"?>
<svg width="522px" height="521px" viewBox="0 0 522 521" version="1.1" xmlns="http://www.w3.org/2000/svg" xmlns:xlink="http://www.w3.org/1999/xlink">
    <title>Group 329</title>
    <defs>
        <filter id="filter-1">
            <feColorMatrix in="SourceGraphic" type="matrix" values="0 0 0 0 0.043137 0 0 0 0 0.470588 0 0 0 0 0.890196 0 0 0 1.000000 0"></feColorMatrix>
        </filter>
    </defs>
    <g id="Animation" stroke="none" stroke-width="1" fill="none" fill-rule="evenodd" opacity="0.143252418">
        <g id="Artboard-1-Copy-4" transform="translate(-471.000000, -396.000000)">
            <g id="Group-15">
                <g filter="url(#filter-1)" id="Group-329">
                    <g style="mix-blend-mode: multiply;" transform="translate(472.000000, 397.000000)">
                        <polygon id="Stroke-1" stroke="#656A76" stroke-width="0.309" points="430.752839 454.95875 398 482 434 452"></polygon>
                        <polygon id="Stroke-2" stroke="#656A76" stroke-width="0.309" points="355 502 356.567851 500.179676 398 482"></polygon>
                        <polygon id="Stroke-3" stroke="#656A76" stroke-width="0.309" points="358 499 356.473621 500.924881 311 516"></polygon>
                        <polygon id="Stroke-4" stroke="#656A76" stroke-width="0.309" points="175.608395 504.574562 178 506 145 494"></polygon>
                        <polygon id="Stroke-5" stroke="#656A76" stroke-width="0.309" points="178.350765 506.536604 176 505 215 517"></polygon>
                        <g id="Group-10" transform="translate(215.000000, 515.000000)" stroke="#656A76" stroke-width="0.309">
                            <polygon id="Stroke-6" points="46.0516596 4.4852 45.3262263 3.0752 94.5631416 0.4142"></polygon>
                            <polygon id="Stroke-8" points="45.3271219 3.0758 46.0525552 4.4858 0.0129197443 1.4828"></polygon>
                        </g>
                        <polygon id="Stroke-11" stroke="#656A76" stroke-width="0.309" points="519.9395 242 519.6995 260.405532 519.0605 291"></polygon>
                        <polygon id="Stroke-12" stroke="#656A76" stroke-width="0.309" points="73 439 41 398 55.7974979 415.420727"></polygon>
                        <polygon id="Stroke-13" stroke="#656A76" stroke-width="0.309" points="509 327.843973 518 292 509.331429 335"></polygon>
                        <polygon id="Stroke-14" stroke="#656A76" stroke-width="0.309" points="109 471 73 439 93.1873827 454.475091"></polygon>
                        <polygon id="Stroke-15" stroke="#656A76" stroke-width="0.309" points="2 271 8 318 6.26696429 305.314346"></polygon>
                        <polygon id="Stroke-17" stroke="#656A76" stroke-width="0.309" points="146 494 110 473 133.23261 483.897531"></polygon>
                        <polygon id="Stroke-18" stroke="#656A76" stroke-width="0.309" points="509 333.99238 494 373 508.657817 327"></polygon>
                        <polygon id="Stroke-19" stroke="#656A76" stroke-width="0.309" points="8 318 26 368 18.1886228 351.685391"></polygon>
                        <polygon id="Stroke-20" stroke="#656A76" stroke-width="0.309" points="395.623842 40.0892878 386 33 425 59"></polygon>
                        <polygon id="Stroke-21" stroke="#656A76" stroke-width="0.309" points="466 409.452426 493 373 466.752964 417"></polygon>
                        <polygon id="Stroke-22" stroke="#656A76" stroke-width="0.309" points="468 418.63401 436 452 467.246361 411"></polygon>
                        <polygon id="Stroke-23" stroke="#656A76" stroke-width="0.309" points="176 505 144.918369 494.112179 132 484"></polygon>
                        <polygon id="Stroke-24" stroke="#656A76" stroke-width="0.309" points="24 368 54 417 39.1052315 399.052661"></polygon>
                        <polygon id="Stroke-25" stroke="#656A76" stroke-width="0.309" points="398 475.197467 436 452 398.519183 482"></polygon>
                        <polygon id="Stroke-26" stroke="#656A76" stroke-width="0.309" points="435.723205 72.6881559 425 59 463 97"></polygon>
                        <polygon id="Stroke-27" stroke="#656A76" stroke-width="0.309" points="397.48086 474 398 481.040643 357 500"></polygon>
                        <polygon id="Stroke-28" stroke="#656A76" stroke-width="0.309" points="55 416 93 456 72.3268926 440.292653"></polygon>
                        <polygon id="Stroke-29" stroke="#656A76" stroke-width="0.309" points="0 271 2.80125196 225 5 229.632412"></polygon>
                        <polygon id="Stroke-31" stroke="#656A76" stroke-width="0.309" points="518.905082 291 515 273.955745 520 242"></polygon>
                        <polygon id="Stroke-32" stroke="#656A76" stroke-width="0.309" points="32.3096616 139.194611 28 144 55 100"></polygon>
                        <polygon id="Stroke-33" stroke="#656A76" stroke-width="0.309" points="93 456 132 483 108.896547 472.026536"></polygon>
                        <polygon id="Stroke-34" stroke="#656A76" stroke-width="0.309" points="214.2406 510.12 215 517 176 505"></polygon>
                        <polygon id="Stroke-35" stroke="#656A76" stroke-width="0.309" points="27.8070175 144.815547 32 140 12 184"></polygon>
                        <polygon id="Stroke-36" stroke="#656A76" stroke-width="0.309" points="395 40 351 17 385.437492 33.0360543"></polygon>
                        <polygon id="Stroke-37" stroke="#656A76" stroke-width="0.309" points="12 183 4.62219371 230 3 225.483349"></polygon>
                        <polygon id="Stroke-38" stroke="#656A76" stroke-width="0.309" points="215.777591 516.299288 215 509 261 518"></polygon>
                        <polygon id="Stroke-39" stroke="#656A76" stroke-width="0.309" points="310.776956 516 310 508.001466 359 499"></polygon>
                        <polygon id="Stroke-40" stroke="#656A76" stroke-width="0.309" points="309.24236 508 310 516.173611 261 519"></polygon>
                        <polygon id="Stroke-41" stroke="#656A76" stroke-width="0.309" points="471.772745 117.315018 463 97 493 144"></polygon>
                        <polygon id="Stroke-42" stroke="#656A76" stroke-width="0.309" points="515.013338 275 518 291.990863 509 327"></polygon>
                        <polygon id="Stroke-43" stroke="#656A76" stroke-width="0.309" points="498.177033 169.705882 494 145 512 195"></polygon>
                        <polygon id="Stroke-44" stroke="#656A76" stroke-width="0.309" points="510 220.713272 510.965869 195 519 242"></polygon>
                        <polygon id="Stroke-45" stroke="#656A76" stroke-width="0.309" points="304 3 351 17 307.396484 7.36874856"></polygon>
                        <polygon id="Stroke-46" stroke="#656A76" stroke-width="0.309" points="425.643673 59.6312803 436 73 397 41"></polygon>
                        <polygon id="Stroke-47" stroke="#656A76" stroke-width="0.309" points="307 8 258 0 303.558087 3.56792144"></polygon>
                        <polygon id="Stroke-48" stroke="#656A76" stroke-width="0.309" points="7.65157985 318 0 271 8 279.952094"></polygon>
                        <polygon id="Stroke-50" stroke="#656A76" stroke-width="0.309" points="166 18 129.238235 39 125 37.6790417"></polygon>
                        <polygon id="Stroke-51" stroke="#656A76" stroke-width="0.309" points="258 0 212.376557 8 211 4.18508604"></polygon>
                        <polygon id="Stroke-52" stroke="#656A76" stroke-width="0.309" points="488 363.259977 509 327 493.905396 373"></polygon>
                        <polygon id="Stroke-53" stroke="#656A76" stroke-width="0.309" points="166 18 211.587349 4 213 7.78945084"></polygon>
                        <polygon id="Stroke-54" stroke="#656A76" stroke-width="0.309" points="124.696537 38 129 39.3324963 91 64"></polygon>
                        <polygon id="Stroke-55" stroke="#656A76" stroke-width="0.309" points="463.132695 96.8598181 472 117 436 73"></polygon>
                        <polygon id="Stroke-56" stroke="#656A76" stroke-width="0.309" points="510 221 519 242.18814 514.759676 274"></polygon>
                        <polygon id="Stroke-57" stroke="#656A76" stroke-width="0.309" points="493 372.851883 466 410 487.237154 363"></polygon>
                        <polygon id="Stroke-58" stroke="#656A76" stroke-width="0.309" points="132 484 166.53214 492.134148 176 505"></polygon>
                        <polygon id="Stroke-59" stroke="#656A76" stroke-width="0.309" points="4.36736437 231 8 280 0 271.189209"></polygon>
                        <polygon id="Stroke-61" stroke="#656A76" stroke-width="0.309" points="492.606272 143.947199 497 169 471 117"></polygon>
                        <polygon id="Stroke-62" stroke="#656A76" stroke-width="0.309" points="26 368 8 318 20.8473054 330.320038"></polygon>
                        <polygon id="Stroke-63" stroke="#656A76" stroke-width="0.309" points="512 194.886555 511.113188 221 498 169"></polygon>
                        <polygon id="Stroke-64" stroke="#656A76" stroke-width="0.309" points="62.9850494 99.6625304 55 100 90 65"></polygon>
                        <polygon id="Stroke-65" stroke="#656A76" stroke-width="0.309" points="432 440.501273 468 411 436.542935 452"></polygon>
                        <polygon id="Stroke-66" stroke="#656A76" stroke-width="0.309" points="436 450.562714 398 474 431.408849 439"></polygon>
                        <polygon id="Stroke-67" stroke="#656A76" stroke-width="0.309" points="216 511 176.470967 506.042546 167 493"></polygon>
                        <polygon id="Stroke-68" stroke="#656A76" stroke-width="0.309" points="56.0954053 100.348327 64 100 34 140"></polygon>
                        <polygon id="Stroke-69" stroke="#656A76" stroke-width="0.309" points="5 230 12.5935829 183 20 184.612877"></polygon>
                        <polygon id="Stroke-70" stroke="#656A76" stroke-width="0.309" points="357.863874 500 355 487.043006 398 474"></polygon>
                        <polygon id="Stroke-71" stroke="#656A76" stroke-width="0.309" points="32 140 19.2865497 186 12 184.363409"></polygon>
                        <polygon id="Stroke-72" stroke="#656A76" stroke-width="0.309" points="54 417 24 368 44.0601323 382.064618"></polygon>
                        <polygon id="Stroke-73" stroke="#656A76" stroke-width="0.309" points="351 17 395 40 356.663924 27.6313317"></polygon>
                        <polygon id="Stroke-74" stroke="#656A76" stroke-width="0.309" points="132 483 93 456 121.204408 463.501289"></polygon>
                        <polygon id="Stroke-75" stroke="#656A76" stroke-width="0.309" points="356.084131 487 359 499.461733 310 508"></polygon>
                        <polygon id="Stroke-76" stroke="#656A76" stroke-width="0.309" points="260.249223 505 261 519 215 509.979133"></polygon>
                        <polygon id="Stroke-77" stroke="#656A76" stroke-width="0.309" points="93 456 55 416 81.0475135 428.094718"></polygon>
                        <polygon id="Stroke-78" stroke="#656A76" stroke-width="0.309" points="261.748863 519 261 505 310 507.905297"></polygon>
                        <polygon id="Stroke-79" stroke="#656A76" stroke-width="0.309" points="357 27 307 7 351.261408 16.0099608"></polygon>
                        <polygon id="Stroke-80" stroke="#656A76" stroke-width="0.309" points="508.832324 327 500 311.562129 515 275"></polygon>
                        <polygon id="Stroke-81" stroke="#656A76" stroke-width="0.309" points="8.28524819 280 20 330 8 317.558098"></polygon>
                        <polygon id="Stroke-82" stroke="#656A76" stroke-width="0.309" points="167 493 132.102087 484.427329 121 464"></polygon>
                        <polygon id="Stroke-83" stroke="#656A76" stroke-width="0.309" points="499.847244 312 509 327.532778 488 364"></polygon>
                        <polygon id="Stroke-84" stroke="#656A76" stroke-width="0.309" points="127 39 165.152694 18 170 24.9313533"></polygon>
                        <polygon id="Stroke-85" stroke="#656A76" stroke-width="0.309" points="258.646799 2 308 8.69589041 258 11"></polygon>
                        <polygon id="Stroke-86" stroke="#656A76" stroke-width="0.309" points="213 9 170.786145 26 166 18.9930021"></polygon>
                        <polygon id="Stroke-87" stroke="#656A76" stroke-width="0.309" points="21 330 45 382 25.9212439 368.160423"></polygon>
                        <polygon id="Stroke-88" stroke="#656A76" stroke-width="0.309" points="257.365313 11 212 9.16712329 258 2"></polygon>
                        <polygon id="Stroke-89" stroke="#656A76" stroke-width="0.309" points="402.095185 57.885879 397 41 436 73"></polygon>
                        <polygon id="Stroke-90" stroke="#656A76" stroke-width="0.309" points="100.06652 68 91 63.6294064 129 39"></polygon>
                        <polygon id="Stroke-91" stroke="#656A76" stroke-width="0.309" points="81 429 122 464 93.0443754 456.315334"></polygon>
                        <polygon id="Stroke-92" stroke="#656A76" stroke-width="0.309" points="46 381 82 427 55.9495068 415.170411"></polygon>
                        <polygon id="Stroke-93" stroke="#656A76" stroke-width="0.309" points="91.0177398 65 100 69.3705554 64 100"></polygon>
                        <polygon id="Stroke-94" stroke="#656A76" stroke-width="0.309" points="515 274 501 253.520503 510.623544 221"></polygon>
                        <polygon id="Stroke-95" stroke="#656A76" stroke-width="0.309" points="457 396.218181 487 363 466.31164 410"></polygon>
                        <polygon id="Stroke-96" stroke="#656A76" stroke-width="0.309" points="7.9908558 280 5 231 17 237.624432"></polygon>
                        <polygon id="Stroke-97" stroke="#656A76" stroke-width="0.309" points="468 410.621616 432 440 458.37053 397"></polygon>
                        <polygon id="Stroke-98" stroke="#656A76" stroke-width="0.309" points="392 459.177776 431 439 397.790891 474"></polygon>
                        <polygon id="Stroke-99" stroke="#656A76" stroke-width="0.309" points="439.220658 96.5404267 436 73 472 117"></polygon>
                        <polygon id="Stroke-100" stroke="#656A76" stroke-width="0.309" points="167 493 211.121655 493.12569 216 511"></polygon>
                        <polygon id="Stroke-101" stroke="#656A76" stroke-width="0.309" points="401 58 357 28 395.751551 40.7054589"></polygon>
                        <polygon id="Stroke-102" stroke="#656A76" stroke-width="0.309" points="392.22397 459 398 473.523996 355 486"></polygon>
                        <polygon id="Stroke-103" stroke="#656A76" stroke-width="0.309" points="20 185 17.6737968 237 5 230.356251"></polygon>
                        <polygon id="Stroke-104" stroke="#656A76" stroke-width="0.309" points="64 100 48.381036 140 34 139.535963"></polygon>
                        <polygon id="Stroke-105" stroke="#656A76" stroke-width="0.309" points="490 198.438129 496.515174 169 510 221"></polygon>
                        <polygon id="Stroke-106" stroke="#656A76" stroke-width="0.309" points="20 186 32.6763848 140 47 140.468894"></polygon>
                        <polygon id="Stroke-107" stroke="#656A76" stroke-width="0.309" points="470 145.556837 471.252963 117 497 169"></polygon>
                        <polygon id="Stroke-108" stroke="#656A76" stroke-width="0.309" points="261 506.433759 215.827196 511 211 493"></polygon>
                        <polygon id="Stroke-109" stroke="#656A76" stroke-width="0.309" points="500.905804 254 515 274.8421 500 312"></polygon>
                        <polygon id="Stroke-110" stroke="#656A76" stroke-width="0.309" points="309.915869 508 307 490.187817 356 487"></polygon>
                        <polygon id="Stroke-111" stroke="#656A76" stroke-width="0.309" points="307.156104 490 310 508 261 505.298059"></polygon>
                        <polygon id="Stroke-112" stroke="#656A76" stroke-width="0.309" points="170 26 135.021864 49 127 40.8309061"></polygon>
                        <polygon id="Stroke-113" stroke="#656A76" stroke-width="0.309" points="435.791257 73.6857382 439 98 401 58"></polygon>
                        <polygon id="Stroke-114" stroke="#656A76" stroke-width="0.309" points="128.322649 39 136 46.8048432 100 68"></polygon>
                        <polygon id="Stroke-115" stroke="#656A76" stroke-width="0.309" points="307 7 357 27 308.701437 23.8638696"></polygon>
                        <polygon id="Stroke-116" stroke="#656A76" stroke-width="0.309" points="20.1832283 330 8 280 26 289.209272"></polygon>
                        <polygon id="Stroke-117" stroke="#656A76" stroke-width="0.309" points="490 199 510 221.262687 500.121094 254"></polygon>
                        <polygon id="Stroke-118" stroke="#656A76" stroke-width="0.309" points="310 24 258 9.55593342 308.279736 7"></polygon>
                        <polygon id="Stroke-119" stroke="#656A76" stroke-width="0.309" points="210.383062 24.9382435 170 26 213 9"></polygon>
                        <polygon id="Stroke-120" stroke="#656A76" stroke-width="0.309" points="121 464 159.801109 467.157393 167 493"></polygon>
                        <polygon id="Stroke-121" stroke="#656A76" stroke-width="0.309" points="488.748798 364 473 349.214134 500 312"></polygon>
                        <polygon id="Stroke-122" stroke="#656A76" stroke-width="0.309" points="211.58821 7 258 9.1222243 209 24"></polygon>
                        <polygon id="Stroke-123" stroke="#656A76" stroke-width="0.309" points="471 117.673362 469.773397 146 439 97"></polygon>
                        <polygon id="Stroke-124" stroke="#656A76" stroke-width="0.309" points="497 169.616283 490.483996 199 470 146"></polygon>
                        <polygon id="Stroke-125" stroke="#656A76" stroke-width="0.309" points="471.233176 348 487 362.533146 457 395"></polygon>
                        <polygon id="Stroke-126" stroke="#656A76" stroke-width="0.309" points="17.3126515 237 26 289 8 279.73911"></polygon>
                        <polygon id="Stroke-127" stroke="#656A76" stroke-width="0.309" points="100 70 84.6609724 102 64 100.33046"></polygon>
                        <polygon id="Stroke-128" stroke="#656A76" stroke-width="0.309" points="45.4749008 382 20 330 46 340.319926"></polygon>
                        <polygon id="Stroke-129" stroke="#656A76" stroke-width="0.309" points="210 493 166.956751 492.869209 160 467"></polygon>
                        <polygon id="Stroke-130" stroke="#656A76" stroke-width="0.309" points="431 438.555289 392 459 420.387367 421"></polygon>
                        <polygon id="Stroke-131" stroke="#656A76" stroke-width="0.309" points="421 422.84039 457 397 431.296943 440"></polygon>
                        <polygon id="Stroke-132" stroke="#656A76" stroke-width="0.309" points="122 464 81 429 115.513867 433.127611"></polygon>
                        <polygon id="Stroke-133" stroke="#656A76" stroke-width="0.309" points="354.264911 486 348 466.27522 392 459"></polygon>
                        <polygon id="Stroke-134" stroke="#656A76" stroke-width="0.309" points="47 140 62.5888032 100 83 101.703465"></polygon>
                        <polygon id="Stroke-135" stroke="#656A76" stroke-width="0.309" points="82 427 46 381 77.7776292 389.367415"></polygon>
                        <polygon id="Stroke-136" stroke="#656A76" stroke-width="0.309" points="17 237 19.4034432 185 40 190.517589"></polygon>
                        <polygon id="Stroke-137" stroke="#656A76" stroke-width="0.309" points="349.708183 467 356 486.815067 307 490"></polygon>
                        <polygon id="Stroke-138" stroke="#656A76" stroke-width="0.309" points="357 28 401 58 358.565537 51.2873425"></polygon>
                        <polygon id="Stroke-139" stroke="#656A76" stroke-width="0.309" points="47 140 39.5626822 190 20 184.521683"></polygon>
                        <polygon id="Stroke-140" stroke="#656A76" stroke-width="0.309" points="211 491.704868 260.223723 481 261 505"></polygon>
                        <polygon id="Stroke-141" stroke="#656A76" stroke-width="0.309" points="307 490.070293 260.77381 505 260 481"></polygon>
                        <polygon id="Stroke-142" stroke="#656A76" stroke-width="0.309" points="26.0705113 289 46 341 20 330.524176"></polygon>
                        <polygon id="Stroke-143" stroke="#656A76" stroke-width="0.309" points="500.063143 312 478 291.734249 501 254"></polygon>
                        <polygon id="Stroke-144" stroke="#656A76" stroke-width="0.309" points="169.785583 47.2598786 137 49 172 26"></polygon>
                        <polygon id="Stroke-145" stroke="#656A76" stroke-width="0.309" points="358 50 308 24 356.426668 27.0687266"></polygon>
                        <polygon id="Stroke-146" stroke="#656A76" stroke-width="0.309" points="159 467 121.311004 463.999475 115 434"></polygon>
                        <polygon id="Stroke-147" stroke="#656A76" stroke-width="0.309" points="136 47 123.628013 73 100 68.5876959"></polygon>
                        <polygon id="Stroke-148" stroke="#656A76" stroke-width="0.309" points="171.140337 25.0396616 210 24 169 45"></polygon>
                        <polygon id="Stroke-149" stroke="#656A76" stroke-width="0.309" points="479.006411 290 500 310.316487 473 348"></polygon>
                        <polygon id="Stroke-150" stroke="#656A76" stroke-width="0.309" points="401 85.3839374 401.723949 58 439 98"></polygon>
                        <polygon id="Stroke-151" stroke="#656A76" stroke-width="0.309" points="46.5242921 341 78 391 46 382.59709"></polygon>
                        <polygon id="Stroke-152" stroke="#656A76" stroke-width="0.309" points="77 389 115 432 81.170043 427.752898"></polygon>
                        <polygon id="Stroke-153" stroke="#656A76" stroke-width="0.309" points="84 102 99.2404339 70 123 74.2926829"></polygon>
                        <polygon id="Stroke-154" stroke="#656A76" stroke-width="0.309" points="258.574104 11 310 25.2273912 258 34"></polygon>
                        <polygon id="Stroke-155" stroke="#656A76" stroke-width="0.309" points="257.420459 34 209 25.0535575 258 11"></polygon>
                        <polygon id="Stroke-156" stroke="#656A76" stroke-width="0.309" points="383 439.371122 421 421 392.320412 459"></polygon>
                        <polygon id="Stroke-157" stroke="#656A76" stroke-width="0.309" points="501 254 474 231.961194 491.008199 199"></polygon>
                        <polygon id="Stroke-158" stroke="#656A76" stroke-width="0.309" points="382.671539 440 392 459.517454 348 467"></polygon>
                        <polygon id="Stroke-159" stroke="#656A76" stroke-width="0.309" points="456.979225 395 434 379.91184 472 348"></polygon>
                        <polygon id="Stroke-160" stroke="#656A76" stroke-width="0.309" points="435.052402 382 457 397.222054 421 423"></polygon>
                        <polygon id="Stroke-161" stroke="#656A76" stroke-width="0.309" points="435 128.308859 440.039352 97 471 146"></polygon>
                        <polygon id="Stroke-162" stroke="#656A76" stroke-width="0.309" points="460 178.466727 470.13149 146 490 199"></polygon>
                        <polygon id="Stroke-163" stroke="#656A76" stroke-width="0.309" points="26.003246 289 17 237 43 245.499885"></polygon>
                        <polygon id="Stroke-164" stroke="#656A76" stroke-width="0.309" points="400.249346 85 358 52 401 58.5659673"></polygon>
                        <polygon id="Stroke-165" stroke="#656A76" stroke-width="0.309" points="137.448393 47.6507193 169 46 125 73"></polygon>
                        <polygon id="Stroke-166" stroke="#656A76" stroke-width="0.309" points="160 467.39281 206.96614 461 210 493"></polygon>
                        <polygon id="Stroke-167" stroke="#656A76" stroke-width="0.309" points="83 102 72.8440568 146 47 139.638625"></polygon>
                        <polygon id="Stroke-168" stroke="#656A76" stroke-width="0.309" points="39.5849757 190 43 245 17 236.537773"></polygon>
                        <polygon id="Stroke-169" stroke="#656A76" stroke-width="0.309" points="350 465.90575 307 489 308.184134 459"></polygon>
                        <polygon id="Stroke-170" stroke="#656A76" stroke-width="0.309" points="474 231 501 252.902504 478.60774 290"></polygon>
                        <polygon id="Stroke-171" stroke="#656A76" stroke-width="0.309" points="260 481.993821 210.113746 493 207 461"></polygon>
                        <polygon id="Stroke-172" stroke="#656A76" stroke-width="0.309" points="40 190 47.3851215 140 73 146.392356"></polygon>
                        <polygon id="Stroke-173" stroke="#656A76" stroke-width="0.309" points="260 479.772651 309 459 307.830881 489"></polygon>
                        <polygon id="Stroke-174" stroke="#656A76" stroke-width="0.309" points="439 96.4408419 433.985114 128 401 84"></polygon>
                        <polygon id="Stroke-175" stroke="#656A76" stroke-width="0.309" points="460 178 490 198.200661 473.287247 231"></polygon>
                        <polygon id="Stroke-176" stroke="#656A76" stroke-width="0.309" points="45.1949597 341 26 289 55 297.528667"></polygon>
                        <polygon id="Stroke-177" stroke="#656A76" stroke-width="0.309" points="471 145.812238 460.712182 178 435 128"></polygon>
                        <polygon id="Stroke-178" stroke="#656A76" stroke-width="0.309" points="209.616188 52 169 46.3811772 210 25"></polygon>
                        <polygon id="Stroke-179" stroke="#656A76" stroke-width="0.309" points="308.686683 24 358 49.8964293 308 53"></polygon>
                        <polygon id="Stroke-180" stroke="#656A76" stroke-width="0.309" points="115 432.548556 156.300342 429 159 467"></polygon>
                        <polygon id="Stroke-181" stroke="#656A76" stroke-width="0.309" points="394.875568 406 421 422.784577 383 441"></polygon>
                        <polygon id="Stroke-182" stroke="#656A76" stroke-width="0.309" points="209.395947 25 258 33.8507577 209 52"></polygon>
                        <polygon id="Stroke-183" stroke="#656A76" stroke-width="0.309" points="309.305665 53 258 32.6135119 310 24"></polygon>
                        <polygon id="Stroke-184" stroke="#656A76" stroke-width="0.309" points="472.663478 348 444 327.40218 479 290"></polygon>
                        <polygon id="Stroke-185" stroke="#656A76" stroke-width="0.309" points="383 440.532484 350 467 350.791145 434"></polygon>
                        <polygon id="Stroke-186" stroke="#656A76" stroke-width="0.309" points="123 73 113.073742 109 84 100.366608"></polygon>
                        <polygon id="Stroke-187" stroke="#656A76" stroke-width="0.309" points="419.999331 423 395 406.49216 434 382"></polygon>
                        <polygon id="Stroke-188" stroke="#656A76" stroke-width="0.309" points="76.5753217 391 46 341 81 347.56906"></polygon>
                        <polygon id="Stroke-189" stroke="#656A76" stroke-width="0.309" points="42.4849798 245 55 297 26 288.565378"></polygon>
                        <polygon id="Stroke-190" stroke="#656A76" stroke-width="0.309" points="115 432 77 389 114.875166 391.320771"></polygon>
                        <polygon id="Stroke-191" stroke="#656A76" stroke-width="0.309" points="443.293495 329 472 349.416214 434 382"></polygon>
                        <polygon id="Stroke-192" stroke="#656A76" stroke-width="0.309" points="207 460.566169 159.706376 467 157 429"></polygon>
                        <polygon id="Stroke-193" stroke="#656A76" stroke-width="0.309" points="160.085371 76 125 72.5739936 169 46"></polygon>
                        <polygon id="Stroke-194" stroke="#656A76" stroke-width="0.309" points="308 460.100323 349 434 348.192089 467"></polygon>
                        <polygon id="Stroke-195" stroke="#656A76" stroke-width="0.309" points="75 146 85.1385421 102 114 110.76528"></polygon>
                        <polygon id="Stroke-196" stroke="#656A76" stroke-width="0.309" points="358.024116 52 399 85 355 84.4190967"></polygon>
                        <polygon id="Stroke-197" stroke="#656A76" stroke-width="0.309" points="55.873833 297 81 347 46 340.338776"></polygon>
                        <polygon id="Stroke-198" stroke="#656A76" stroke-width="0.309" points="42.3667007 245 39 190 71 199.395846"></polygon>
                        <polygon id="Stroke-199" stroke="#656A76" stroke-width="0.309" points="73 146 71.1761558 199 40 189.666574"></polygon>
                        <polygon id="Stroke-200" stroke="#656A76" stroke-width="0.309" points="207 458.824427 259.192174 442 260 480"></polygon>
                        <polygon id="Stroke-201" stroke="#656A76" stroke-width="0.309" points="309 458.824427 260.798492 480 260 442"></polygon>
                        <polygon id="Stroke-202" stroke="#656A76" stroke-width="0.309" points="157 428.461215 114.128632 432 114 392"></polygon>
                        <polygon id="Stroke-203" stroke="#656A76" stroke-width="0.309" points="395 406 383.042991 441 349 434.35485"></polygon>
                        <polygon id="Stroke-204" stroke="#656A76" stroke-width="0.309" points="169.032162 46 210 51.4879815 160 76"></polygon>
                        <polygon id="Stroke-205" stroke="#656A76" stroke-width="0.309" points="478 290 445 267.794901 473.437694 231"></polygon>
                        <polygon id="Stroke-206" stroke="#656A76" stroke-width="0.309" points="81.4823419 346 115 392 77 389.71876"></polygon>
                        <polygon id="Stroke-207" stroke="#656A76" stroke-width="0.309" points="394 116.910082 400.115756 84 433 128"></polygon>
                        <polygon id="Stroke-208" stroke="#656A76" stroke-width="0.309" points="124.148472 73 160 76.4284334 114 109"></polygon>
                        <polygon id="Stroke-209" stroke="#656A76" stroke-width="0.309" points="354.950241 83 308 53.1506787 358 50"></polygon>
                        <polygon id="Stroke-210" stroke="#656A76" stroke-width="0.309" points="422 161.92205 433.501078 128 460 178"></polygon>
                        <polygon id="Stroke-211" stroke="#656A76" stroke-width="0.309" points="474 231 438 210.67754 460.744152 178"></polygon>
                        <polygon id="Stroke-212" stroke="#656A76" stroke-width="0.309" points="444.636087 269 479 291.248728 444 328"></polygon>
                        <polygon id="Stroke-213" stroke="#656A76" stroke-width="0.309" points="257.576667 67 209 51.9533375 258 34"></polygon>
                        <polygon id="Stroke-214" stroke="#656A76" stroke-width="0.309" points="257.420037 34 309 54.3261932 257 67"></polygon>
                        <polygon id="Stroke-215" stroke="#656A76" stroke-width="0.309" points="403.716623 360 434 381.283894 395 406"></polygon>
                        <polygon id="Stroke-216" stroke="#656A76" stroke-width="0.309" points="392.830922 117 355 84 399 84.5874407"></polygon>
                        <polygon id="Stroke-217" stroke="#656A76" stroke-width="0.309" points="434.732523 382 403 360.654277 444 329"></polygon>
                        <polygon id="Stroke-218" stroke="#656A76" stroke-width="0.309" points="55.8173653 297 43 245 79 254.241777"></polygon>
                        <polygon id="Stroke-219" stroke="#656A76" stroke-width="0.309" points="350 432.834051 307.946617 459 307 419"></polygon>
                        <polygon id="Stroke-220" stroke="#656A76" stroke-width="0.309" points="433 128.322512 421.928523 163 394 117"></polygon>
                        <polygon id="Stroke-221" stroke="#656A76" stroke-width="0.309" points="157 429.242107 206.544998 417 207 461"></polygon>
                        <polygon id="Stroke-222" stroke="#656A76" stroke-width="0.309" points="438 211 474 231.619342 445.844707 269"></polygon>
                        <polygon id="Stroke-223" stroke="#656A76" stroke-width="0.309" points="114 111 109.299589 158 75 146.266934"></polygon>
                        <polygon id="Stroke-224" stroke="#656A76" stroke-width="0.309" points="422 163 460 179.075927 436.141864 212"></polygon>
                        <polygon id="Stroke-225" stroke="#656A76" stroke-width="0.309" points="71.8502994 199 79 254 43 244.777941"></polygon>
                        <polygon id="Stroke-226" stroke="#656A76" stroke-width="0.309" points="349 433 357.169707 392 395 404.948466"></polygon>
                        <polygon id="Stroke-227" stroke="#656A76" stroke-width="0.309" points="260 442.470387 308.067433 419 309 459"></polygon>
                        <polygon id="Stroke-228" stroke="#656A76" stroke-width="0.309" points="258 444.110989 206.458412 461 206 417"></polygon>
                        <polygon id="Stroke-229" stroke="#656A76" stroke-width="0.309" points="72 199 73.8300654 146 108 157.800816"></polygon>
                        <polygon id="Stroke-230" stroke="#656A76" stroke-width="0.309" points="81.1378549 347 56 297 92 303.691461"></polygon>
                        <polygon id="Stroke-231" stroke="#656A76" stroke-width="0.309" points="205.678976 90 160 77.6362187 210 52"></polygon>
                        <polygon id="Stroke-232" stroke="#656A76" stroke-width="0.309" points="115 392.142253 159 383 156.763115 429"></polygon>
                        <polygon id="Stroke-233" stroke="#656A76" stroke-width="0.309" points="114.31213 392 81 346 120 348.728483"></polygon>
                        <polygon id="Stroke-234" stroke="#656A76" stroke-width="0.309" points="153.867067 122 114 111.496986 160 78"></polygon>
                        <polygon id="Stroke-235" stroke="#656A76" stroke-width="0.309" points="307.808485 53 355 83.4334936 305 91"></polygon>
                        <polygon id="Stroke-236" stroke="#656A76" stroke-width="0.309" points="404 360 395.024609 406 358 393.009619"></polygon>
                        <polygon id="Stroke-237" stroke="#656A76" stroke-width="0.309" points="209.336073 52 257 67.5380201 205 90"></polygon>
                        <polygon id="Stroke-238" stroke="#656A76" stroke-width="0.309" points="78.8052033 255 92 304 56 297.41329"></polygon>
                        <polygon id="Stroke-239" stroke="#656A76" stroke-width="0.309" points="306.159296 91 257 66.156891 309 53"></polygon>
                        <polygon id="Stroke-240" stroke="#656A76" stroke-width="0.309" points="357 392 349.077538 433 307 419.112807"></polygon>
                        <polygon id="Stroke-241" stroke="#656A76" stroke-width="0.309" points="444.36306 328 407 304.800091 445 269"></polygon>
                        <polygon id="Stroke-242" stroke="#656A76" stroke-width="0.309" points="406.735562 304 444 327.378445 403 359"></polygon>
                        <polygon id="Stroke-243" stroke="#656A76" stroke-width="0.309" points="355.360704 84 393 116.481356 349 120"></polygon>
                        <polygon id="Stroke-244" stroke="#656A76" stroke-width="0.309" points="207 416.734144 157 429 159.242233 383"></polygon>
                        <polygon id="Stroke-245" stroke="#656A76" stroke-width="0.309" points="91.9303139 304 120 350 81 347.254858"></polygon>
                        <polygon id="Stroke-246" stroke="#656A76" stroke-width="0.309" points="113.764745 111 153 121.378345 109 158"></polygon>
                        <polygon id="Stroke-247" stroke="#656A76" stroke-width="0.309" points="384 151.585684 393.668955 117 422 163"></polygon>
                        <polygon id="Stroke-248" stroke="#656A76" stroke-width="0.309" points="159 383.027747 115 392 120.711195 349"></polygon>
                        <polygon id="Stroke-249" stroke="#656A76" stroke-width="0.309" points="159.1092 78 205 90.1660909 153 122"></polygon>
                        <polygon id="Stroke-250" stroke="#656A76" stroke-width="0.309" points="79.1327257 254 72 199 111 210.749143"></polygon>
                        <polygon id="Stroke-251" stroke="#656A76" stroke-width="0.309" points="436 212 395 195.37035 421.950353 163"></polygon>
                        <polygon id="Stroke-252" stroke="#656A76" stroke-width="0.309" points="443 269 404 247.379982 435.141445 211"></polygon>
                        <polygon id="Stroke-253" stroke="#656A76" stroke-width="0.309" points="109.013861 158 111 211 72 199.340119"></polygon>
                        <polygon id="Stroke-254" stroke="#656A76" stroke-width="0.309" points="348.51957 120 305 91.220339 355 84"></polygon>
                        <polygon id="Stroke-255" stroke="#656A76" stroke-width="0.309" points="307 420.312382 258.712357 444 258 398"></polygon>
                        <polygon id="Stroke-256" stroke="#656A76" stroke-width="0.309" points="206 417.222092 257.294522 398 258 444"></polygon>
                        <polygon id="Stroke-257" stroke="#656A76" stroke-width="0.309" points="383.434018 150 349 120.538843 393 117"></polygon>
                        <polygon id="Stroke-258" stroke="#656A76" stroke-width="0.309" points="384 151 422 162.283603 395.509672 195"></polygon>
                        <polygon id="Stroke-259" stroke="#656A76" stroke-width="0.309" points="358 392 362.973054 339 404 359.198823"></polygon>
                        <polygon id="Stroke-260" stroke="#656A76" stroke-width="0.309" points="404 246 443 267.648142 406.855285 304"></polygon>
                        <polygon id="Stroke-261" stroke="#656A76" stroke-width="0.309" points="256.742989 111 205 89.2368816 257 67"></polygon>
                        <polygon id="Stroke-262" stroke="#656A76" stroke-width="0.309" points="92.1151479 304 79 255 118 263.6285"></polygon>
                        <polygon id="Stroke-263" stroke="#656A76" stroke-width="0.309" points="257.25769 67 306 91.4647676 257 111"></polygon>
                        <polygon id="Stroke-264" stroke="#656A76" stroke-width="0.309" points="307 420 310.240604 371 357 392.251836"></polygon>
                        <polygon id="Stroke-265" stroke="#656A76" stroke-width="0.309" points="407 304 403.386743 359 363 338.634844"></polygon>
                        <polygon id="Stroke-266" stroke="#656A76" stroke-width="0.309" points="395 195 436 211.707404 403.603486 248"></polygon>
                        <polygon id="Stroke-267" stroke="#656A76" stroke-width="0.309" points="121.452684 350 93 304 131 308.608456"></polygon>
                        <polygon id="Stroke-268" stroke="#656A76" stroke-width="0.309" points="160 383.078334 210 368 207.972325 417"></polygon>
                        <polygon id="Stroke-269" stroke="#656A76" stroke-width="0.309" points="151.891576 175 109 157.63827 153 120"></polygon>
                        <polygon id="Stroke-270" stroke="#656A76" stroke-width="0.309" points="110.233373 211 118 263 79 254.308349"></polygon>
                        <polygon id="Stroke-271" stroke="#656A76" stroke-width="0.309" points="122 348.743978 166 337 160.044468 383"></polygon>
                        <polygon id="Stroke-272" stroke="#656A76" stroke-width="0.309" points="310 371 306.739765 420 258 397.287253"></polygon>
                        <polygon id="Stroke-273" stroke="#656A76" stroke-width="0.309" points="202.902767 140 153 121.451708 205 90"></polygon>
                        <polygon id="Stroke-274" stroke="#656A76" stroke-width="0.309" points="108 158 152 175.048452 110.016401 211"></polygon>
                        <polygon id="Stroke-275" stroke="#656A76" stroke-width="0.309" points="258 397.391443 206 417 208.042943 368"></polygon>
                        <polygon id="Stroke-276" stroke="#656A76" stroke-width="0.309" points="119.565149 263 131 309 93 304.345438"></polygon>
                        <polygon id="Stroke-277" stroke="#656A76" stroke-width="0.309" points="363 339 358.042657 392 311 371.299103"></polygon>
                        <polygon id="Stroke-278" stroke="#656A76" stroke-width="0.309" points="305 91 349 120.128707 306.462035 138"></polygon>
                        <polygon id="Stroke-279" stroke="#656A76" stroke-width="0.309" points="349 120 384 150.733512 349.75115 169"></polygon>
                        <polygon id="Stroke-280" stroke="#656A76" stroke-width="0.309" points="166 338.300671 122 350 131.392893 309"></polygon>
                        <polygon id="Stroke-281" stroke="#656A76" stroke-width="0.309" points="383.381058 151 395 195 349 169.141492"></polygon>
                        <polygon id="Stroke-282" stroke="#656A76" stroke-width="0.309" points="206.062337 90 257 111.372203 204 140"></polygon>
                        <polygon id="Stroke-283" stroke="#656A76" stroke-width="0.309" points="307 138 257 110.159367 305.562689 91"></polygon>
                        <polygon id="Stroke-284" stroke="#656A76" stroke-width="0.309" points="210 368.18415 160 383 166.035102 337"></polygon>
                        <polygon id="Stroke-285" stroke="#656A76" stroke-width="0.309" points="404.09459 246 407 304 363 277.749402"></polygon>
                        <polygon id="Stroke-286" stroke="#656A76" stroke-width="0.309" points="153.14336 120 204 139.065819 152 175"></polygon>
                        <polygon id="Stroke-287" stroke="#656A76" stroke-width="0.309" points="363 339 363.14406 278 407 304.185439"></polygon>
                        <polygon id="Stroke-288" stroke="#656A76" stroke-width="0.309" points="395.369014 195 404 248 357 220.133277"></polygon>
                        <polygon id="Stroke-289" stroke="#656A76" stroke-width="0.309" points="350 169 307 138.507118 349.244035 120"></polygon>
                        <polygon id="Stroke-290" stroke="#656A76" stroke-width="0.309" points="111 211 157 231.831181 119.007217 263"></polygon>
                        <polygon id="Stroke-291" stroke="#656A76" stroke-width="0.309" points="257.614884 397 257 344 310 371.475778"></polygon>
                        <polygon id="Stroke-292" stroke="#656A76" stroke-width="0.309" points="157 233 111 212.568998 152.789646 177"></polygon>
                        <polygon id="Stroke-293" stroke="#656A76" stroke-width="0.309" points="357.049177 219 349 169 395 194.282427"></polygon>
                        <polygon id="Stroke-294" stroke="#656A76" stroke-width="0.309" points="118 263 164 284.117752 129.515128 309"></polygon>
                        <polygon id="Stroke-295" stroke="#656A76" stroke-width="0.309" points="257.380852 344 258 397 208 368.520311"></polygon>
                        <polygon id="Stroke-296" stroke="#656A76" stroke-width="0.309" points="165.070373 284 166 337 131 308.091714"></polygon>
                        <polygon id="Stroke-297" stroke="#656A76" stroke-width="0.309" points="361.852472 278 357 219 404 246.63193"></polygon>
                        <polygon id="Stroke-298" stroke="#656A76" stroke-width="0.309" points="311 372 312.155225 313 363 339.56268"></polygon>
                        <polygon id="Stroke-299" stroke="#656A76" stroke-width="0.309" points="256.923512 166 204 140.257496 257 111"></polygon>
                        <polygon id="Stroke-300" stroke="#656A76" stroke-width="0.309" points="257.077092 111 307 139.490096 257 166"></polygon>
                        <polygon id="Stroke-301" stroke="#656A76" stroke-width="0.309" points="208.018801 313 210 369 166 337.682822"></polygon>
                        <polygon id="Stroke-302" stroke="#656A76" stroke-width="0.309" points="164 284 118 263.204803 156.085241 232"></polygon>
                        <polygon id="Stroke-303" stroke="#656A76" stroke-width="0.309" points="363 278 362.851212 339 311 312.194324"></polygon>
                        <polygon id="Stroke-304" stroke="#656A76" stroke-width="0.309" points="204 198 152 175.365999 203.107013 140"></polygon>
                        <polygon id="Stroke-305" stroke="#656A76" stroke-width="0.309" points="307.671063 138 351 168.294635 307 193"></polygon>
                        <polygon id="Stroke-306" stroke="#656A76" stroke-width="0.309" points="311 313 309.861288 372 258 344.318483"></polygon>
                        <polygon id="Stroke-307" stroke="#656A76" stroke-width="0.309" points="164.933217 337 164 284 207 312.843357"></polygon>
                        <polygon id="Stroke-308" stroke="#656A76" stroke-width="0.309" points="208.942861 369 207 313 257 344.030695"></polygon>
                        <polygon id="Stroke-309" stroke="#656A76" stroke-width="0.309" points="350.889134 169 359 219 307 193.146803"></polygon>
                        <polygon id="Stroke-310" stroke="#656A76" stroke-width="0.309" points="152 177 204 199.342365 156.180257 233"></polygon>
                        <polygon id="Stroke-311" stroke="#656A76" stroke-width="0.309" points="306.341754 193 257 164.657221 307 138"></polygon>
                        <polygon id="Stroke-312" stroke="#656A76" stroke-width="0.309" points="204 140 257 165.48187 204.877932 198"></polygon>
                        <polygon id="Stroke-313" stroke="#656A76" stroke-width="0.309" points="358.177719 219 363 278 310 249.51827"></polygon>
                        <polygon id="Stroke-314" stroke="#656A76" stroke-width="0.309" points="311.51231 313 310 251 363 279.32388"></polygon>
                        <polygon id="Stroke-315" stroke="#656A76" stroke-width="0.309" points="156 232 208 254.578157 163.950903 284"></polygon>
                        <polygon id="Stroke-316" stroke="#656A76" stroke-width="0.309" points="310.681549 249 307 193 359 218.798714"></polygon>
                        <polygon id="Stroke-317" stroke="#656A76" stroke-width="0.309" points="207 255 206.51342 313 164 284.04"></polygon>
                        <polygon id="Stroke-318" stroke="#656A76" stroke-width="0.309" points="257.50096 344 257 283 312 312.648796"></polygon>
                        <polygon id="Stroke-319" stroke="#656A76" stroke-width="0.309" points="208 254 156 231.792493 204.501724 198"></polygon>
                        <polygon id="Stroke-320" stroke="#656A76" stroke-width="0.309" points="256.51208 283 257 344 207 313.267039"></polygon>
                        <polygon id="Stroke-321" stroke="#656A76" stroke-width="0.309" points="257 166 307 194.126126 257.120185 224"></polygon>
                        <polygon id="Stroke-322" stroke="#656A76" stroke-width="0.309" points="257 224 204 198.780781 256.880435 166"></polygon>
                        <polygon id="Stroke-323" stroke="#656A76" stroke-width="0.309" points="310.481947 251 312 313 257 283.561194"></polygon>
                        <polygon id="Stroke-324" stroke="#656A76" stroke-width="0.309" points="207 313 207.486791 255 257 282.973333"></polygon>
                        <polygon id="Stroke-325" stroke="#656A76" stroke-width="0.309" points="306.36913 193 310 249 257 222.357361"></polygon>
                        <polygon id="Stroke-326" stroke="#656A76" stroke-width="0.309" points="204 198 257 222.793758 207.440471 254"></polygon>
                        <polygon id="Stroke-327" stroke="#656A76" stroke-width="0.309" points="257.303316 283 257 224 310 250.622239"></polygon>
                        <polygon id="Stroke-328" stroke="#656A76" stroke-width="0.309" points="256.694281 224 257 283 207 255.165917"></polygon>
                    </g>
                </g>
            </g>
        </g>
    </g>
</svg>