<svg width="750" height="748" xmlns="http://www.w3.org/2000/svg"><defs><filter id="a"><feColorMatrix in="SourceGraphic" values="0 0 0 0 0.043137 0 0 0 0 0.470588 0 0 0 0 0.890196 0 0 0 1.000000 0"/></filter></defs><g filter="url(#a)" transform="translate(-1087 -131)" fill="none" fill-rule="evenodd"><g style="mix-blend-mode:multiply" stroke="#656A76" stroke-width=".309"><path d="M1708.22 786.24L1660 825l53-43zM1599 854l2.224-2.64L1660 825zm4-5l-2.176 2.717L1536 873zm-263.479 8.862L1343 860l-48-18zm5.915.443L1342 856l57 18zm117.764 20.051l-1.052-1.762 71.367-3.326z"/><path d="M1462.15 876.595l1.05 1.762-66.732-3.753zM1835.233 479l-.4 26.294-1.066 43.706zM1193 763l-46-59 21.271 25.069zm626-161.152L1832 551l-12.521 61zM1246 809l-53-46 29.72 22.245zm-155-288l8 68-2.31-18.354zm208 321l-53-30 34.204 15.568zm520-230.12L1797 667l21.498-65zM1099 589l25 72-10.85-23.493zm558.066-398.911L1643 180l57 37zM1759 720.022L1799 667l-38.884 64zm1 11.964L1714 780l44.917-59z"/><path d="M1342 857l-45.21-15.554L1278 827zm-219-196l43 70-21.35-25.64zm537 154.25l54-33.25-53.262 43zm55.238-577.798L1700 218l54 54zM1659.253 814l.747 10.02-59 26.98zM1166 731l54 57-29.378-22.383zm-78-211l3.362-65 2.638 6.546zm745.686 29L1829 524.651l6-45.651zm-701.301-216.99L1126 339l40-64zM1220 787l57 40-33.767-16.257zm177.89 76.68L1399 874l-57-18zm-269.97-523.676L1134 333l-29 64zM1655 189l-64-33 50.09 23.008z"/><path d="M1106 393l-10.657 68-2.343-6.535zm294.099 482.543L1399 865l65 13zM1534.11 873l-1.11-11.292L1603 849zm-1.192-12l1.082 11.889-70 4.111zm233.656-559.608L1754 272l43 68zM1827.686 527l4.314 24.506L1819 602zm-22.885-152.424L1799 339l25 72zM1823 448.202l1.395-37.202L1836 479zM1525 137l67 19-62.158-13.071zm173.864 80.782L1714 237l-57-46zM1529 143l-70-11 65.083 4.906zm-430.48 446L1088 521l11 12.952zM1325 159l-52.901 30-6.099-1.887zm134-27l-65.038 11-1.962-5.246zm330 521.237L1819 602l-21.564 65zM1327 157l64.986-19 2.014 5.143z"/><path d="M1266.885 186l6.115 1.896L1219 223zm487.06 85.705L1767 301l-53-64zM1823 449l13 30.383-6.125 45.617zm-24 220.254L1759 723l31.462-68zM1278 827l50.229 11.62L1342 857zm-183.995-364l4.995 70-11-12.587zm701.742-125.134L1802 374l-37-75zM1124 661l-25-72 17.843 17.74zm700-249.664L1822.796 449 1805 374zm-646.365-134.828L1166 277l51-51z"/><path d="M1708 763.453L1761 721l-46.312 59zm6 16.396L1660 814l47.476-51zM1399 866l-56.47-6.885L1329 841zm-231.33-589.504L1179 276l-43 57zM1095 461l11.137-68 10.863 2.334zm508.063 390L1599 832.561 1660 814z"/><path d="M1134 333l-18.435 65-10.565-2.313zm32 398l-43-70 28.753 20.092zm425-575l64 33-55.762-17.746zm-314 671l-57-40 41.222 11.113zm321.834 4l4.166 17.802L1533 861zm-135.894 26l1.06 19-65-12.243zM1220 788l-54-57 37.015 17.235z"/><path d="M1465.07 876l-1.07-19 70 3.943zM1601 172l-72-29 63.736 13.064zm218.954 430L1807 579.734 1829 527zm-720.526-69L1117 605l-18-17.916zM1328 839l-49.312-12.12L1263 798zm477.925-260L1819 601.403 1789 654zM1271 189l54.124-30 6.876 9.902zm188.931-56l71.069 9.672-72 3.328zM1394 145l-60.177 24-6.823-9.892zm-276 460l35 75-27.823-19.96zm340.103-459L1394 143.353 1459 133zm206.344 69.273L1657 191l57 46zM1231.884 231L1219 224.82l54-34.82zM1204 747l59 51-41.668-11.198zm-51-67l53 65-38.352-16.716zm65.776-454l13.224 6.369L1179 277zM1827 525l-19-29.367L1821.06 449zm-81 178.06l43-48.06-29.653 68zM1098.486 533L1094 463l18 9.463z"/><path d="M1761 721.324L1708 763l38.823-61zm-110 71.078L1708 763l-48.536 51zm67.742-521.162L1714 237l53 64zM1329 841l63.03.175L1399 866zm336-626l-64-43 56.366 18.211z"/><path d="M1651.806 791l8.194 21.517L1599 831zM1117 398l-3.412 75-18.588-9.582zm62-122l-22.387 57-20.613-.661zm615 140.459l9.447-42.459L1823 449zM1117 398l18.78-65 21.22.663zm645-57.812l1.856-41.188L1802 374zm-298 519.47L1398.951 866 1392 841zM1808.329 497L1829 526.826 1807 580zm-275.163 364L1529 835.554l70-4.554z"/><path d="M1529.937 836l4.063 25-70-3.753zM1332 169l-49.62 33-11.38-11.72zm382.44 68.352L1719 272l-54-57z"/><path d="M1272.697 190L1284 201.034 1231 231zM1529 143l72 29-69.55-4.547zm-413.079 462L1099 533l25 13.261zM1794 419l29 31.573L1808.676 497z"/><path d="M1534 167l-75-20.392 72.519-3.608zm-143.712.501L1333 169l61-24zM1263 798l54.828 4.464L1328 839zm527.332-144L1767 632.674 1807 579z"/><path d="M1392.697 143l66.303 2.996L1389 167zM1765 301.533L1763.237 342 1719 272zm37 74.332L1792.347 418 1762 342zM1766.4 632l22.6 21.027L1746 700zm-654.466-159L1124 548l-25-13.357zM1232 232l-22.582 46-30.418-2.4zm-78.747 448L1117 605l37 14.885zM1389 839l-61.982-.186L1317 802zm319-77.053L1651 791l41.49-54z"/><path d="M1693 738.657L1746 702l-37.84 61zM1263 798l-59-51 49.666 6.015zm334.113 33L1588 801.778 1652 791zM1155 333l22.95-57 30.05 2.427zm51 412l-53-65 46.784 11.824zm-94-272l3.448-75 29.552 7.958z"/><path d="M1590.012 803l8.988 28.43-70 4.57zM1601 172l64 43-61.723-9.621zm-444 161l-11.018 72-28.982-7.889zm235 504.611L1462.882 822l1.118 35z"/><path d="M1529 835.228L1463.103 857 1462 822zM1125.639 546L1154 621l-37-15.11zm681.017 34L1775 550.999 1808 497zm-474.883-380.497L1284 202l51-33zM1603 204l-72-37 69.734 4.367zm-285 599l-54.82-4.364L1254 755zm-34-603l-18.214 37-34.786-6.279z"/><path d="M1333.08 168.485L1389 167l-59 30zM1775.898 549L1807 578.074 1767 632zM1665 254.022l1.029-39.022L1719 272zM1153.754 621L1199 693l-46-12.1zM1200 691l54 61-48.074-6.025zm8-413l22.274-46 34.726 6.17zm251.828-131L1534 167.413 1459 180zm-1.656 33L1389 167.164 1459 147zM1638 763.106L1692 737l-40.755 54zM1808 497l-40-31.255L1793.197 419z"/><path d="M1638.431 763L1652 791.915 1588 803zm107.224-63L1713 678.17l54-46.17zm-31.967-20L1746 701.905 1693 739zM1712 316.727l7.419-44.727L1765 342zm37 71.829L1763.522 342 1792 418zM1124.812 548L1112 473l37 12.26zm539.123-293L1604 207l61 9.55zm-379.828-55.554L1330 197l-64 40zM1317 802.19l67.631-9.19 4.369 46zM1208 278l-14.952 64-38.048-9.253zm-63.86 128l4.86 78-37-12.001zM1590 800.898L1529 834l1.68-43zM1768 465l40 31.183L1774.826 549zm-307 358.179L1389.465 839 1385 793zM1145 405l10.742-72 37.258 9.205z"/><path d="M1461 820.774L1531 791l-1.67 43zm258-551.678L1711.874 315 1665 251zM1749 387l43 28.967L1768.045 463zm-596.862 234L1125 546l41 12.301zM1765 340.65L1749.854 387 1712 315zM1388.448 207L1330 198.676 1389 167zm143.541-40L1603 203.612 1531 208zM1254 753.043l60.073-5.043 3.927 54zM1654.876 715L1692 739.458 1638 766zm-265.31-548L1459 180.112 1389 207z"/><path d="M1532.999 208L1459 179.178 1534 167zm233.768 424L1725 602.524 1776 549zM1638 764.502L1590 803l1.15-48zM1265 237l-14.508 53L1208 277.29zm427.537 502L1656 715.245 1713 680zm-494.984-46L1153 621l51 9.46zm-49.247-209L1166 559l-41-12.165zM1254 752l-54-61 53.823 3.292zm472.207-148L1767 633.276 1713 680zM1385 792.857L1316.897 802 1313 748zM1317.033 240L1266 235.09l64-38.09zM1531 792.964L1590 755l-1.163 48zM1195 342l14.818-64L1252 290.75zm408.399-135L1663 255l-64-.845z"/><path d="M1167.388 559L1204 631l-51-9.592zm-17.548-75l-4.84-78 46 13.325zM1193 342l-2.653 76L1145 404.616zm192 449.908L1459.842 768l1.158 54zm146 0L1462.14 822l-1.14-54zm-218-43.951L1252.182 753l-.182-57zM1655 715l-16.896 51-48.104-9.683zm-324.994-518l58.994 7.866L1317 240zM1777 549l-48-31.614L1770.364 465zm-570.63 82l47.63 65-54-3.223zM1654 298.87l8.938-47.87L1711 315zM1266.34 237l50.66 5.047L1252 290zm332.268 15L1531 208.583l72-4.583zM1695 363.848L1711.344 315 1749 387zM1770 463l-53-29.142L1750.484 387zm-44.073 56L1776 550.676 1725 603zm-267.532-291L1389 206.114 1459 180z"/><path d="M1456.606 180L1531 209.565 1456 228zm212.134 470l44.26 30.075L1656 715zm-14.713-349L1599 253l64 .854z"/><path d="M1711.664 680L1666 649.391 1725 604zM1166.87 559L1148 484l53 13.33zM1590 753.714L1530.343 791 1529 734zM1711 317l-16.181 49L1654 301zm-398 431.807L1384.345 731l.655 64zM1717 436l53 29.507L1728.55 519zm-465-144l-6.87 68-50.13-16.976zm443 74l54 22.966L1715.096 436zm-504.526 53L1201 497l-53-13.079zM1590 755l11.544-59L1655 714.633z"/><path d="M1461 767.445L1529.668 734l1.332 57zm-2 2.989L1384.661 795l-.661-64zM1190 418l2.694-76L1243 358.922zm16.009 213L1169 559l53 9.636zm176.769-370L1317 243.43l72-36.43zM1254 695.918L1318 683l-3.254 65zm-2.313.082L1203 631l57 3.855zm56.647-389L1252 291.723 1317 243zm223.71-98L1600 252.248 1528 263zM1668 650l-12.683 65L1603 696.644zm-278.746-443L1458 229.08 1383 261zm-186.68 291L1222 568l-53-9.41zm324.329-235L1456 227.697 1531 209z"/><path d="M1601 696l-11.408 59L1529 735.016zm125.095-93L1673 569.97l54-50.97z"/><path d="M1671.376 568L1725 601.155 1666 646zm-72.124-317L1654 298.82l-64 5.18zM1385 730.668L1313 748l3.229-65zM1218.975 569L1260 634l-57-3.879zm33.955-277l57.07 15.015L1246 360zM1641 349.871L1654.74 301l40.26 65z"/><path d="M1318 683.272L1254 696l8.307-61zM1316.811 243L1383 260.696 1308 307zm-116.386 254L1190 419l57 16.662zM1714 436l-59-23.757L1693.782 366zm11 83l-57-30.939L1713.514 436z"/><path d="M1244.097 360l2.903 76-57-16.72zm346.571-56L1528 261.63l72-10.63zM1529 735.528L1460.018 769 1459 704zm-145-4.366L1457.982 704l1.018 65zM1640.086 349L1590 306.147l64-5.147zm.914-1l54 16.413L1657.356 412zm-38 348l7.027-76L1668 648.964zm65-210l57 30.98-52.827 52.02zm-210.37-195L1383 259.345 1458 227zm-237.462 277L1201 498l57 12.326z"/><path d="M1456.368 227L1526 262.585 1456 291zM1529 736l4.666-70L1601 696.36zm144-168l-5.256 78L1609 617.119zm-18-155l59 23.958L1667.38 489zm-392.567 221L1222 569l54 6.512zM1317 682.54l72-21.54-2.92 70zM1308.388 384L1246 359.378 1310 306zm-61.739 51L1258 510l-57-12.536z"/><path d="M1262 634.595L1326 618l-8.663 65zM1534 666l-4.702 70L1459 703.553zm-154.025-333L1308 306.29l75-45.29zM1242 360l64 24.447L1244.933 436zm217 342.988L1384 731l2.947-70zM1259.75 510l16.25 65-54-6.577zM1611 620l-7.15 76-67.85-29.684zm-85-357l64 42.144L1528.127 331zm64 41l51 43.905L1591.095 374zm-264 313.164L1262 634l13.662-59z"/><path d="M1638.582 348L1655 412l-65-37.612zm-254.625-87L1457 291.776 1381 333zM1530 331l-72-40.28 69.93-27.72zm-141 331.065L1317 683l8.69-65zM1668.774 486l4.226 83-64-37.566zM1307.65 306l73.35 27.039L1306 384zM1609 620l.21-88 63.79 37.776z"/><path d="M1655.696 413L1668 489l-67-39.96zM1590 374l-61-43.561L1588.928 304zm-342 61l65 30.045L1259.315 510zm210.882 267l-.882-76 76 39.4z"/><path d="M1313 466l-65-29.552L1307.05 385zm288.374-20L1590 374l65 36.407zM1259 510l65 29.84-48.729 35.16zm199.108 116l.892 76-72-40.839zm-132.463-86l1.355 76-51-41.453zm282.272-8L1601 448l67 39.34zM1536 667l1.666-84L1611 620.818zm-79.11-298L1381 332.492 1457 291zm1.221-78L1530 331.404 1458 369z"/><path d="M1386.118 581l2.882 81-64-45.298zM1324 541l-65-29.993L1312.816 466zm287-9l-.215 88L1536 581.33zm-230-116l-75-32.39 73.712-50.61zm148.976-85L1593 373.963 1529 409zM1536 583l-1.633 84L1460 627.589zm-210.676 33L1324 540l61 41.36z"/><path d="M1386.798 662L1384 581l72 44.884zm205.504-288L1604 446l-75-37.229zM1306 385l75 32.317L1312.03 466z"/><path d="M1529.052 409L1458 368.805 1530 331zM1381 333l76 36.465L1382.259 416zm222.085 115l6.915 84-76-40.55zm-66.916 133L1534 492l76 40.658zM1313 466l75 32.565L1324.468 541zm221.31 24l-5.31-81 75 37.316z"/><path d="M1385 498l-.69 83-60.31-41.443zm73.71 128l-.71-88 78 42.772zM1388 497l-75-32.122L1382.954 416zm67.297 41l.703 88-72-44.336zM1458 371l72 40.25-71.827 42.75z"/><path d="M1457 454l-76-36.09 75.829-46.91zm76.847 38l2.153 89-78-42.259zM1384 581l.701-83L1456 538.03zm144.793-172l5.207 81-76-38.537z"/><path d="M1381 416l76 35.862L1385.934 497zm77.435 122l-.435-84 76 37.903zm-2.875-84l.44 84-72-39.628z"/></g></g></svg>