<svg width="1440" height="2585" xmlns="http://www.w3.org/2000/svg"><defs><linearGradient x1="50%" y1="91.889%" x2="50%" y2="-42.076%" id="a"><stop stop-color="#0B78E3" offset="0%"/><stop stop-color="#6DD5FA" offset="100%"/></linearGradient></defs><path d="M.281 2585l.747-2434.958c2.07-4.974 6.969-8.47 12.682-8.47 7.588 0 13.739 6.164 13.738 13.77v85.63c0 7.604 6.151 13.769 13.738 13.769 6.868 0 12.557-5.051 13.576-11.648v-15.299c0-7.604 6.15-13.77 13.738-13.769 7.587 0 13.738 6.165 13.738 13.77v17.854c1.762 5.568 6.959 9.603 13.098 9.603 6.33 0 11.662-4.294 13.252-10.135V195.36c0-7.606 6.151-13.77 13.738-13.77 7.588 0 13.738 6.165 13.738 13.77v9.633c.627 7.022 6.513 12.526 13.682 12.527 7.312 0 13.29-5.726 13.713-12.95v-87.444c0-7.605 6.151-13.77 13.738-13.77 7.588 0 13.738 6.165 13.738 13.778v38.658c1.623 5.792 6.93 10.04 13.228 10.04 7.082 0 12.912-5.373 13.656-12.273v-11.743c0-7.605 6.152-13.77 13.739-13.77 7.588 0 13.738 6.165 13.738 13.77v76.962c1.623 5.792 6.93 10.04 13.227 10.04 7.013 0 12.798-5.268 13.634-12.07V194.93c0-7.605 6.15-13.77 13.738-13.77 7.587 0 13.738 6.165 13.738 13.77v48.455c1.902 5.318 6.975 9.124 12.936 9.124 5.79 0 10.744-3.592 12.765-8.673V215.42c0-7.605 6.151-13.77 13.739-13.77 7.587 0 13.737 6.165 13.737 13.77v19.495c1.018 6.598 6.709 11.649 13.576 11.649 6.662 0 12.215-4.753 13.471-11.059V183.58c0-7.605 6.151-13.77 13.738-13.77 7.588 0 13.739 6.165 13.74 13.77l-.001 41.623c.62 7.03 6.508 12.542 13.683 12.542 7.184 0 13.08-5.529 13.686-12.573v-18.194c0-7.604 6.15-13.77 13.737-13.77 7.588 0 13.739 6.166 13.739 13.77v70.076c.62 7.03 6.508 12.541 13.682 12.541 5.903 0 10.936-3.73 12.88-8.969V155.342c0-7.606 6.15-13.77 13.738-13.77 7.587 0 13.738 6.165 13.738 13.77v85.63c0 7.604 6.151 13.769 13.738 13.769 6.867 0 12.558-5.051 13.576-11.648v-15.299c0-7.604 6.15-13.769 13.738-13.769 7.587 0 13.738 6.165 13.738 13.77v17.854c1.761 5.568 6.959 9.603 13.097 9.603 6.332 0 11.662-4.294 13.253-10.135V195.36c0-7.605 6.151-13.77 13.738-13.77 7.588 0 13.739 6.165 13.738 13.77v9.633c.628 7.022 6.513 12.527 13.682 12.527 7.312 0 13.289-5.726 13.713-12.949v-87.445c0-7.605 6.151-13.77 13.738-13.77 7.588 0 13.738 6.165 13.739 13.77l-.001 38.666c1.623 5.792 6.93 10.04 13.228 10.04 7.082 0 12.912-5.372 13.657-12.273v-11.743c0-7.605 6.15-13.77 13.738-13.77 7.587 0 13.737 6.165 13.737 13.778 0 13.542-.008 52.066-.022 103.73 1.884 5.351 6.973 9.187 12.958 9.187 6.867 0 12.557-5.051 13.576-11.648v-15.299c0-7.604 6.15-13.77 13.738-13.769 7.587 0 13.738 6.165 13.738 13.77v17.854c1.761 5.568 6.959 9.603 13.097 9.603 6.332 0 11.662-4.294 13.253-10.135V195.36c0-7.606 6.15-13.77 13.738-13.77 7.588 0 13.738 6.165 13.738 13.77v9.633c.627 7.022 6.513 12.526 13.682 12.527 7.312 0 13.289-5.726 13.713-12.95v-87.444c0-7.605 6.15-13.77 13.738-13.77 7.588 0 13.738 6.165 13.738 13.77v38.666c1.623 5.792 6.93 10.04 13.228 10.04 7.082 0 12.911-5.373 13.657-12.273v-11.743c0-7.605 6.15-13.77 13.738-13.77 7.587 0 13.738 6.165 13.737 13.778v76.954c1.623 5.792 6.93 10.04 13.228 10.04 7.013 0 12.798-5.268 13.633-12.07V194.93c0-7.605 6.151-13.77 13.739-13.77 7.587 0 13.738 6.165 13.738 13.77v48.455c1.901 5.318 6.975 9.124 12.935 9.124 5.79 0 10.744-3.592 12.766-8.673V215.42c0-7.605 6.15-13.77 13.738-13.77 7.587 0 13.738 6.165 13.738 13.77v19.496c1.018 6.598 6.708 11.649 13.576 11.649 6.662 0 12.215-4.753 13.471-11.059V183.58c0-7.605 6.15-13.77 13.738-13.77 7.588 0 13.739 6.165 13.739 13.77v41.623c.619 7.03 6.508 12.542 13.682 12.542 7.185 0 13.081-5.529 13.686-12.573v-18.194c0-7.604 6.15-13.77 13.738-13.77 7.587 0 13.738 6.166 13.738 13.77v70.076c.62 7.03 6.508 12.541 13.683 12.541 5.902 0 10.936-3.73 12.88-8.969V155.342c0-7.606 6.15-13.77 13.737-13.77 7.588 0 13.739 6.165 13.74 13.77l-.001 85.63c0 7.604 6.15 13.769 13.738 13.769 6.867 0 12.557-5.051 13.575-11.648v-15.299c0-7.604 6.151-13.769 13.739-13.769 7.587 0 13.738 6.165 13.738 13.77v17.854c1.761 5.568 6.958 9.603 13.097 9.603 6.331 0 11.662-4.294 13.253-10.135V195.36c0-2.506.668-4.855 1.834-6.88l.023-73.438c2.07-4.974 6.969-8.47 12.682-8.47 7.588 0 13.739 6.164 13.738 13.77v85.63c0 1.33.188 2.616.54 3.833 2.235 4.569 6.92 7.715 12.34 7.715 7.313 0 13.29-5.726 13.714-12.949l-.001-48.527a13.78 13.78 0 01-.7-4.35v-35.775c0-7.617 6.175-13.793 13.792-13.793 5.674 0 10.547 3.427 12.665 8.323a13.737 13.737 0 011.72 6.677v38.666c1.622 5.792 6.93 10.04 13.227 10.04 7.083 0 12.912-5.372 13.658-12.273v-11.743c0-7.605 6.15-13.77 13.737-13.77s13.738 6.165 13.738 13.778v16.266c.123.738.186 1.496.186 2.27v9.633c.627 7.022 6.513 12.526 13.682 12.527 7.312 0 13.29-5.726 13.713-12.95V82.127c0-7.605 6.151-13.77 13.738-13.77 7.588 0 13.738 6.165 13.738 13.778v38.658c1.623 5.792 6.93 10.04 13.228 10.04 7.082 0 12.912-5.373 13.656-12.273v-11.743c0-7.605 6.152-13.77 13.739-13.77 7.588 0 13.738 6.165 13.738 13.77v76.962c1.623 5.792 6.93 10.04 13.227 10.04 7.013 0 12.798-5.268 13.634-12.07V159.93c0-7.605 6.15-13.77 13.738-13.77 7.587 0 13.738 6.165 13.738 13.77v48.455c1.902 5.318 6.975 9.124 12.936 9.124 5.79 0 10.744-3.592 12.765-8.673V180.42c0-7.605 6.151-13.77 13.739-13.77 7.587 0 13.737 6.165 13.737 13.77v19.495c1.018 6.598 6.709 11.649 13.576 11.649 6.662 0 12.215-4.753 13.471-11.059V148.58c0-7.605 6.151-13.77 13.738-13.77 7.588 0 13.739 6.165 13.74 13.77l-.001 41.623c.62 7.03 6.508 12.542 13.683 12.542 7.184 0 13.08-5.529 13.686-12.573v-18.194c0-7.604 6.15-13.77 13.737-13.77 7.588 0 13.739 6.166 13.739 13.77v70.076c.62 7.03 6.508 12.541 13.682 12.541 5.903 0 10.936-3.73 12.88-8.969V120.342c0-7.606 6.15-13.77 13.738-13.77 7.587 0 13.738 6.165 13.738 13.77v85.63c0 7.604 6.151 13.769 13.738 13.769 6.867 0 12.558-5.051 13.576-11.648v-15.299c0-7.604 6.15-13.769 13.738-13.769 7.587 0 13.738 6.165 13.738 13.77v17.854c1.761 5.568 6.959 9.603 13.097 9.603 6.332 0 11.662-4.294 13.253-10.135V160.36c0-7.605 6.151-13.77 13.738-13.77 7.588 0 13.739 6.165 13.738 13.77v9.633c.628 7.022 6.513 12.527 13.682 12.527 7.312 0 13.289-5.726 13.713-12.949V82.126c0-7.605 6.151-13.77 13.738-13.77 7.588 0 13.738 6.165 13.739 13.77l-.001 38.666c1.623 5.792 6.93 10.04 13.228 10.04 7.082 0 12.912-5.372 13.657-12.273v-11.743c0-7.605 6.15-13.77 13.738-13.77 7.587 0 13.737 6.165 13.737 13.778 0 13.542-.008 52.066-.022 103.73 1.884 5.351 6.973 9.187 12.958 9.187 6.867 0 12.557-5.051 13.576-11.648v-15.299c0-7.604 6.15-13.77 13.738-13.769 7.587 0 13.738 6.165 13.738 13.77v17.854c1.761 5.568 6.959 9.603 13.097 9.603 6.332 0 11.662-4.294 13.253-10.135V160.36c0-7.606 6.15-13.77 13.738-13.77 7.588 0 13.738 6.165 13.738 13.77v9.633c.627 7.022 6.513 12.526 13.682 12.527 7.312 0 13.289-5.726 13.713-12.95V82.127c0-7.605 6.15-13.77 13.738-13.77 7.588 0 13.738 6.165 13.738 13.77v38.666c1.623 5.792 6.93 10.04 13.228 10.04 7.082 0 12.911-5.373 13.657-12.273v-11.743c0-7.605 6.15-13.77 13.738-13.77 7.587 0 13.738 6.165 13.737 13.778v76.954c1.623 5.792 6.93 10.04 13.228 10.04 7.013 0 12.798-5.268 13.633-12.07V159.93c0-7.605 6.151-13.77 13.739-13.77 7.587 0 13.738 6.165 13.738 13.77v48.455c1.901 5.318 6.975 9.124 12.935 9.124 5.79 0 10.744-3.592 12.766-8.673V180.42c0-7.605 6.15-13.77 13.738-13.77 7.587 0 13.738 6.165 13.738 13.77v19.496c1.018 6.598 6.708 11.649 13.576 11.649 6.662 0 12.215-4.753 13.471-11.059V148.58c0-7.605 6.15-13.77 13.738-13.77 7.588 0 13.739 6.165 13.739 13.77v41.623c.619 7.03 6.508 12.542 13.682 12.542 7.185 0 13.081-5.529 13.686-12.573v-18.194c0-7.604 6.15-13.77 13.738-13.77 7.587 0 13.738 6.166 13.738 13.77v70.076c.62 7.03 6.508 12.541 13.683 12.541 5.902 0 10.936-3.73 12.88-8.969V120.342c0-7.606 6.15-13.77 13.737-13.77 7.588 0 13.739 6.165 13.74 13.77l-.001 85.63c0 7.604 6.15 13.769 13.738 13.769 6.867 0 12.557-5.051 13.575-11.648v-15.299c0-7.604 6.151-13.769 13.739-13.769 7.587 0 13.738 6.165 13.738 13.77v17.854c1.761 5.568 6.958 9.603 13.097 9.603 6.331 0 11.662-4.294 13.253-10.135V160.36c0-7.605 6.15-13.77 13.738-13.77 7.587 0 13.738 6.165 13.738 13.77v9.633c.627 7.022 6.512 12.527 13.682 12.527 7.312 0 13.289-5.726 13.713-12.949V82.126c0-7.605 6.15-13.77 13.738-13.77 7.587 0 13.738 6.165 13.738 13.77v38.666c1.622 5.792 6.93 10.04 13.227 10.04 7.083 0 12.912-5.372 13.658-12.273v-11.743c0-7.605 6.15-13.77 13.737-13.77s13.738 6.165 13.738 13.778c0 43.414-.091 2310.544-.136 2478.176H.282zm747-2208.876c-6.32 0-11.647 4.25-13.277 10.05L734 393.65c1.63 5.803 6.958 10.058 13.281 10.058 7.617 0 13.792-6.175 13.792-13.793 0-7.617-6.175-13.793-13.793-13.792zm-705.813 0c-7.617 0-13.793 6.175-13.793 13.792 0 7.618 6.176 13.793 13.793 13.793 7.617 0 13.793-6.175 13.792-13.793 0-7.617-6.175-13.793-13.792-13.792zm488.769 0c-7.617 0-13.793 6.175-13.793 13.793 0 7.616 6.176 13.792 13.793 13.792 7.617 0 13.792-6.176 13.792-13.792 0-7.618-6.175-13.793-13.792-13.794zm705.813 0c-7.617 0-13.792 6.175-13.792 13.793 0 7.616 6.175 13.792 13.792 13.792 7.618 0 13.793-6.176 13.793-13.792 0-7.618-6.175-13.793-13.793-13.794zm815.231-35c-6.32 0-11.647 4.25-13.277 10.05l-.003 7.477c1.63 5.803 6.958 10.058 13.281 10.058 7.617 0 13.792-6.175 13.792-13.793 0-7.617-6.175-13.793-13.793-13.792zm-217.044 0c-7.617 0-13.793 6.175-13.793 13.793 0 7.616 6.176 13.792 13.793 13.792 7.617 0 13.792-6.176 13.792-13.792 0-7.618-6.175-13.793-13.792-13.794zm705.813 0c-7.617 0-13.792 6.175-13.792 13.793 0 7.616 6.175 13.792 13.792 13.792 7.618 0 13.793-6.176 13.793-13.792 0-7.618-6.175-13.793-13.793-13.794zm-1304.862-72.62c-7.617 0-13.792 6.175-13.792 13.792v63.518c0 7.617 6.175 13.792 13.792 13.792 7.618 0 13.793-6.175 13.793-13.792v-63.518c0-7.617-6.175-13.792-13.793-13.792zm-705.814 0c-7.617 0-13.792 6.175-13.792 13.792v63.518c0 7.617 6.175 13.792 13.792 13.792 7.618 0 13.793-6.175 13.793-13.792v-63.518c0-7.617-6.175-13.792-13.793-13.792zm217.045 0c-5.437 0-10.138 3.147-12.385 7.719l-.02 75.623c2.237 4.595 6.951 7.76 12.405 7.76 7.618 0 13.793-6.175 13.793-13.792v-63.518c0-7.617-6.175-13.792-13.793-13.792zm-705.813 0c-7.618 0-13.793 6.175-13.793 13.792v63.518c0 7.617 6.175 13.792 13.793 13.792 7.617 0 13.793-6.175 13.792-13.792v-63.51c0-7.625-6.175-13.8-13.792-13.8zm217.662 48.57c-7.617 0-13.792 6.176-13.792 13.793 0 7.618 6.175 13.793 13.792 13.793s13.792-6.175 13.792-13.793c0-7.617-6.175-13.792-13.792-13.792zm705.814 0c-7.618 0-13.793 6.176-13.793 13.793 0 7.618 6.175 13.793 13.793 13.793 7.616 0 13.792-6.175 13.792-13.793 0-7.617-6.175-13.792-13.792-13.792zm-323.937-46.333c-7.618 0-13.792 6.175-13.792 13.792v35.774c0 7.618 6.174 13.793 13.792 13.793 7.618 0 13.792-6.175 13.792-13.793v-35.774c0-7.617-6.174-13.792-13.792-13.792zm-488.769 0c-7.617 0-13.792 6.175-13.792 13.792v35.774c0 7.618 6.175 13.793 13.792 13.793 7.618 0 13.793-6.175 13.792-13.793l.001-35.774c0-7.617-6.175-13.792-13.793-13.792zm705.814 0c-7.618 0-13.792 6.175-13.792 13.792v35.774c0 7.618 6.174 13.793 13.792 13.793 7.618 0 13.792-6.175 13.792-13.793v-35.774c0-7.617-6.175-13.792-13.792-13.792zm488.769 0c-7.617 0-13.793 6.175-13.793 13.792l-.001 32.243c2.224 4.632 6.959 7.83 12.441 7.83 7.617 0 13.793-6.175 13.792-13.792V278.57c-2.223-4.631-6.958-7.829-12.44-7.829zm704.46-37.237c-5.437 0-10.138 3.147-12.385 7.719l-.02 75.623c2.237 4.595 6.951 7.76 12.405 7.76 7.618 0 13.793-6.175 13.793-13.792v-63.518c0-7.617-6.175-13.792-13.793-13.792zm488.77 0c-7.618 0-13.793 6.175-13.793 13.792v63.518c0 7.617 6.175 13.792 13.792 13.792 7.618 0 13.793-6.175 13.793-13.792v-63.518c0-7.617-6.175-13.792-13.793-13.792zm-705.815 0c-7.617 0-13.792 6.175-13.792 13.792v63.518c0 7.617 6.175 13.792 13.792 13.792 7.618 0 13.793-6.175 13.793-13.792v-63.518c0-7.617-6.175-13.792-13.793-13.792zM419.466 249.19c-7.618 0-13.792 6.175-13.792 13.793v35.774c0 7.617 6.174 13.792 13.792 13.792 7.617 0 13.792-6.175 13.792-13.792v-35.774c0-7.618-6.175-13.793-13.792-13.793zm705.814 0c-7.618 0-13.793 6.175-13.793 13.793v35.774c0 7.617 6.175 13.792 13.793 13.792 7.617 0 13.792-6.175 13.792-13.792v-35.774c0-7.618-6.175-13.793-13.792-13.793zm1142.802 32.885c-7.618 0-13.793 6.175-13.793 13.792 0 7.618 6.175 13.793 13.793 13.793 7.616 0 13.792-6.175 13.792-13.793 0-7.617-6.175-13.792-13.792-13.792zm-705.814 0c-7.617 0-13.792 6.175-13.792 13.792 0 7.618 6.175 13.793 13.792 13.793s13.792-6.175 13.792-13.793c0-7.617-6.175-13.792-13.792-13.792zm-1304-39.781c-7.617 0-13.793 6.175-13.793 13.793v35.774c0 7.617 6.176 13.792 13.793 13.792 7.617 0 13.792-6.175 13.792-13.792v-35.774c0-7.618-6.175-13.793-13.792-13.793zm705.813 0c-7.617 0-13.792 6.175-13.792 13.793v35.774c0 7.617 6.175 13.792 13.793 13.792 7.616 0 13.793-6.175 13.792-13.792v-35.774c0-7.618-6.176-13.793-13.793-13.793zm980.064-6.553c-7.618 0-13.792 6.175-13.792 13.792v35.774c0 7.618 6.174 13.793 13.792 13.793 7.618 0 13.792-6.175 13.792-13.793v-35.774c0-7.617-6.174-13.792-13.792-13.792zm-488.769 0c-7.617 0-13.792 6.175-13.792 13.792v35.774c0 7.618 6.175 13.793 13.792 13.793 7.618 0 13.793-6.175 13.792-13.793l.001-35.774c0-7.617-6.175-13.792-13.793-13.792zm1194.583 0c-7.617 0-13.793 6.175-13.793 13.792v35.774c0 7.618 6.176 13.793 13.793 13.793 7.617 0 13.792-6.175 13.792-13.793v-35.774c0-7.617-6.175-13.792-13.792-13.792zm-488.77 0c-7.617 0-13.791 6.175-13.791 13.792v35.774c0 7.618 6.174 13.793 13.792 13.793 7.618 0 13.792-6.175 13.792-13.793v-35.774c0-7.617-6.175-13.792-13.792-13.792zM366.452 258.024c-7.617 0-13.792 6.174-13.792 13.792 0 7.617 6.175 13.792 13.792 13.792s13.793-6.175 13.793-13.792c0-7.618-6.176-13.792-13.793-13.792zm705.814 0c-7.618 0-13.792 6.174-13.792 13.792 0 7.617 6.175 13.792 13.792 13.792s13.792-6.175 13.792-13.792c0-7.618-6.175-13.792-13.792-13.792zM2429.28 214.19c-7.618 0-13.793 6.175-13.793 13.793v35.774c0 7.617 6.175 13.792 13.793 13.792 7.617 0 13.792-6.175 13.792-13.792v-35.774c0-7.618-6.175-13.793-13.792-13.793zm-705.814 0c-7.618 0-13.792 6.175-13.792 13.793v35.774c0 7.617 6.174 13.792 13.792 13.792 7.618 0 13.792-6.175 13.792-13.792v-35.774c0-7.618-6.175-13.793-13.792-13.793zm544.615-6.896c-7.617 0-13.792 6.175-13.792 13.793v35.774c0 7.617 6.175 13.792 13.793 13.792 7.616 0 13.793-6.175 13.792-13.792v-35.774c0-7.618-6.176-13.793-13.793-13.793zm-705.813 0c-7.617 0-13.793 6.175-13.793 13.793v35.774c0 7.617 6.176 13.792 13.793 13.792 7.617 0 13.792-6.175 13.792-13.792v-35.774c0-7.618-6.175-13.793-13.792-13.793zm-217.662 26.21a13.78 13.78 0 00-11.524 6.211 13.748 13.748 0 00-.915 4.95c0 7.617 6.175 13.792 13.792 13.792 5.48 0 10.215-3.197 12.44-7.829v-3.324c0-7.625-6.176-13.8-13.793-13.8zm-487.416-2.632c-7.618 0-13.793 6.175-13.792 13.792-.001 7.618 6.174 13.793 13.792 13.793 7.618 0 13.792-6.175 13.793-13.793 0-7.617-6.175-13.792-13.793-13.792zm-705.814 0c-7.617 0-13.792 6.175-13.792 13.792 0 7.618 6.175 13.793 13.792 13.793 7.618 0 13.793-6.175 13.793-13.793 0-7.617-6.175-13.792-13.793-13.792zm488.77 0c-7.619 0-13.793 6.175-13.793 13.792 0 7.618 6.174 13.793 13.792 13.793 7.618 0 13.792-6.175 13.792-13.793 0-7.617-6.174-13.792-13.792-13.792zm1736.12-7.848c-7.619 0-13.793 6.174-13.793 13.792 0 7.617 6.175 13.792 13.792 13.792 7.618 0 13.792-6.175 13.792-13.792 0-7.618-6.174-13.792-13.792-13.792zm-705.815 0c-7.617 0-13.792 6.174-13.792 13.792 0 7.617 6.175 13.792 13.792 13.792s13.793-6.175 13.793-13.792c0-7.618-6.176-13.792-13.793-13.792zm490.74-27.152c-7.619 0-13.794 6.175-13.793 13.792-.001 7.618 6.174 13.793 13.792 13.793 7.618 0 13.792-6.175 13.793-13.793 0-7.617-6.175-13.792-13.793-13.792zm-705.815 0c-7.617 0-13.792 6.175-13.792 13.792 0 7.618 6.175 13.793 13.792 13.793 7.618 0 13.793-6.175 13.793-13.793 0-7.617-6.175-13.792-13.793-13.792zm1194.583 0c-7.617 0-13.792 6.175-13.792 13.792 0 7.618 6.175 13.793 13.792 13.793s13.792-6.175 13.792-13.793c0-7.617-6.175-13.792-13.792-13.792zm-705.814 0c-7.618 0-13.792 6.175-13.792 13.792 0 7.618 6.174 13.793 13.792 13.793 7.618 0 13.792-6.175 13.792-13.793 0-7.617-6.174-13.792-13.792-13.792zm-546.464-15.86c-5.445 0-10.153 3.155-12.396 7.736.616 1.564.953 3.265.953 5.046v8.713a13.778 13.778 0 0011.442 6.09c7.618 0 13.793-6.175 13.793-13.792 0-7.618-6.175-13.793-13.792-13.793zm-1194.583 0c-7.617 0-13.793 6.175-13.793 13.793 0 7.617 6.176 13.792 13.793 13.792 7.617 0 13.792-6.175 13.792-13.792 0-7.618-6.175-13.793-13.792-13.793zm705.814 0c-7.618 0-13.793 6.175-13.793 13.793 0 7.617 6.175 13.792 13.793 13.792 7.617 0 13.792-6.175 13.792-13.792 0-7.618-6.175-13.793-13.792-13.793zm-217.045 0c-7.618 0-13.792 6.175-13.792 13.793 0 7.617 6.174 13.792 13.792 13.792 7.617 0 13.792-6.175 13.792-13.792 0-7.618-6.175-13.793-13.792-13.793zm81.08-42.886c7.617 0 13.792 6.176 13.792 13.793v35.774c0 7.617-6.175 13.793-13.792 13.793-7.618 0-13.793-6.176-13.793-13.793V150.92c0-7.617 6.175-13.793 13.793-13.793zm-705.814 0c7.618 0 13.792 6.176 13.792 13.793v35.774c0 7.617-6.174 13.793-13.792 13.793-7.617 0-13.792-6.176-13.792-13.793V150.92c0-7.617 6.175-13.793 13.792-13.793zm1196.071 0c7.618 0 13.792 6.176 13.792 13.793v35.774c0 7.617-6.175 13.792-13.792 13.792s-13.792-6.175-13.792-13.792V150.92c0-7.617 6.174-13.793 13.792-13.793zm-705.814 0c7.618 0 13.793 6.176 13.793 13.793v35.774c0 7.617-6.175 13.792-13.793 13.792-7.617 0-13.792-6.175-13.792-13.792V150.92c0-7.617 6.175-13.793 13.792-13.793zm-217.231-34.56c7.617 0 13.793 6.175 13.793 13.793l-.001.008v63.51c0 7.616-6.174 13.791-13.792 13.791-7.617 0-13.792-6.175-13.792-13.792V116.36c0-7.618 6.175-13.793 13.792-13.793zm705.813 0c7.618 0 13.793 6.175 13.793 13.793v63.517c0 7.617-6.175 13.792-13.793 13.792-7.616 0-13.791-6.175-13.792-13.792V116.36c0-7.618 6.176-13.793 13.792-13.793zM448.775 121.61c7.617 0 13.792 6.175 13.792 13.792v35.775c0 7.617-6.175 13.792-13.792 13.792-7.618 0-13.793-6.175-13.792-13.793v-35.765l-.001-.009c0-7.617 6.175-13.792 13.793-13.792zm705.814 0c7.617 0 13.792 6.175 13.792 13.792v35.775c0 7.617-6.175 13.792-13.792 13.792-7.618 0-13.793-6.175-13.793-13.793v-35.774c0-7.617 6.175-13.792 13.793-13.792zm352.509 23.402c-7.617 0-13.793 6.175-13.793 13.793 0 7.617 6.176 13.792 13.793 13.792 7.617 0 13.792-6.175 13.792-13.792 0-7.618-6.175-13.793-13.792-13.793zm1194.583 0c-7.618 0-13.793 6.175-13.793 13.793 0 7.617 6.175 13.792 13.792 13.792 7.618 0 13.793-6.175 13.793-13.792 0-7.618-6.175-13.793-13.792-13.793zm-705.814 0c-7.618 0-13.792 6.175-13.792 13.793 0 7.617 6.174 13.792 13.792 13.792 7.618 0 13.792-6.175 13.792-13.792 0-7.618-6.175-13.793-13.792-13.793zm217.045 0c-7.618 0-13.793 6.175-13.793 13.793 0 7.617 6.175 13.792 13.793 13.792 7.617 0 13.792-6.175 13.792-13.792 0-7.618-6.175-13.793-13.792-13.793zm-135.965-42.886c7.617 0 13.792 6.176 13.792 13.793v35.774c0 7.617-6.175 13.793-13.792 13.793-7.618 0-13.793-6.176-13.793-13.793V115.92c0-7.617 6.175-13.793 13.793-13.793zm490.257 0c7.618 0 13.792 6.176 13.792 13.793v35.774c0 7.617-6.175 13.792-13.792 13.792s-13.792-6.175-13.792-13.792V115.92c0-7.617 6.174-13.793 13.792-13.793zm-705.814 0c7.618 0 13.793 6.176 13.793 13.793v35.774c0 7.617-6.175 13.792-13.793 13.792-7.617 0-13.792-6.175-13.792-13.792V115.92c0-7.617 6.175-13.793 13.792-13.793zM285.226 74.12c7.617 0 13.793 6.175 13.793 13.793v63.517c0 7.618-6.175 13.792-13.792 13.792-7.618 0-13.793-6.174-13.793-13.792V87.912c0-7.618 6.175-13.793 13.792-13.793zm705.814 0c7.617 0 13.792 6.175 13.792 13.793v63.517c0 7.618-6.175 13.792-13.792 13.792s-13.793-6.174-13.793-13.792V87.912c0-7.618 6.175-13.793 13.793-13.793zm653.119-6.553c7.617 0 13.793 6.175 13.793 13.793l-.001.008v63.51c0 7.616-6.174 13.791-13.792 13.791-7.617 0-13.792-6.175-13.792-13.792V81.36c0-7.618 6.175-13.793 13.792-13.793zm705.813 0c7.618 0 13.793 6.175 13.793 13.793v63.517c0 7.617-6.175 13.792-13.793 13.792-7.616 0-13.791-6.175-13.792-13.792V81.36c0-7.618 6.176-13.793 13.792-13.793zM1752.775 86.61c7.617 0 13.792 6.175 13.792 13.792v35.775c0 7.617-6.175 13.792-13.792 13.792-7.618 0-13.793-6.175-13.792-13.793v-35.765l-.001-.009c0-7.617 6.175-13.792 13.793-13.792zm705.814 0c7.617 0 13.792 6.175 13.792 13.792v35.775c0 7.617-6.175 13.792-13.792 13.792-7.618 0-13.793-6.175-13.793-13.793v-35.774c0-7.617 6.175-13.792 13.793-13.792zm-163.55-47.491c7.618 0 13.793 6.175 13.793 13.793v63.517c0 7.618-6.175 13.792-13.792 13.792s-13.793-6.174-13.793-13.792V52.912c0-7.618 6.175-13.793 13.793-13.793zm-705.813 0c7.617 0 13.793 6.175 13.793 13.793v63.517c0 7.618-6.175 13.792-13.792 13.792-7.618 0-13.793-6.174-13.793-13.792V52.912c0-7.618 6.175-13.793 13.792-13.793zM557.39 99.844c7.618 0 13.793 6.175 13.793 13.792s-6.175 13.793-13.793 13.793c-7.617 0-13.792-6.176-13.792-13.793 0-7.617 6.175-13.792 13.792-13.792zm-490.257 0c7.618 0 13.792 6.175 13.792 13.792s-6.174 13.793-13.792 13.793c-7.617 0-13.792-6.176-13.792-13.793 0-7.617 6.175-13.792 13.792-13.792zm705.814 0c7.617 0 13.792 6.175 13.792 13.792s-6.174 13.793-13.792 13.793c-7.618 0-13.793-6.176-13.792-13.793-.001-7.617 6.174-13.792 13.792-13.792zm490.257 0c7.618 0 13.792 6.175 13.792 13.792s-6.174 13.793-13.792 13.793c-7.617 0-13.792-6.176-13.792-13.793 0-7.617 6.175-13.792 13.792-13.792zM340.159 65.363c7.618 0 13.793 6.175 13.793 13.792s-6.175 13.792-13.793 13.792c-7.617 0-13.792-6.175-13.792-13.792s6.175-13.792 13.792-13.792zm705.813 0c7.618 0 13.793 6.175 13.793 13.792s-6.175 13.792-13.793 13.792c-7.616 0-13.792-6.175-13.792-13.792s6.175-13.792 13.792-13.792zm-381.26-.434c7.618 0 13.794 6.175 13.794 13.792 0 7.618-6.175 13.793-13.793 13.793-7.617 0-13.793-6.175-13.793-13.793 0-7.617 6.176-13.792 13.793-13.792zm-490.257 0c7.618 0 13.794 6.175 13.794 13.792 0 7.618-6.176 13.793-13.793 13.793-7.618 0-13.793-6.175-13.793-13.792 0-7.618 6.175-13.793 13.792-13.793zm705.814 0c7.617 0 13.793 6.175 13.793 13.792 0 7.618-6.176 13.793-13.793 13.793-7.617 0-13.792-6.175-13.792-13.792 0-7.618 6.175-13.793 13.792-13.793zm490.864-.085c7.618 0 13.792 6.175 13.792 13.792 0 7.06-5.305 12.882-12.146 13.696a13.93 13.93 0 01-2.252.182c-7.618 0-13.793-6.175-13.793-13.793 0-7.067 5.316-12.894 12.168-13.698a13.92 13.92 0 012.23-.179zm1196.07 0c7.619 0 13.793 6.175 13.793 13.792s-6.174 13.793-13.792 13.793c-7.617 0-13.792-6.176-13.792-13.793 0-7.617 6.175-13.792 13.792-13.792zm-490.256 0c7.617 0 13.792 6.175 13.792 13.792s-6.174 13.793-13.792 13.793c-7.618 0-13.793-6.176-13.792-13.793-.001-7.617 6.174-13.792 13.792-13.792zm-215.557 0c7.618 0 13.793 6.175 13.793 13.792s-6.175 13.793-13.793 13.793c-7.617 0-13.792-6.176-13.792-13.793 0-7.617 6.175-13.792 13.792-13.792zM284.364 35.192c7.618 0 13.793 6.175 13.793 13.792s-6.175 13.792-13.793 13.792c-7.617 0-13.793-6.174-13.792-13.792 0-7.617 6.175-13.792 13.792-13.792zm705.813 0c7.618 0 13.794 6.175 13.794 13.792s-6.176 13.792-13.793 13.792c-7.618 0-13.793-6.174-13.793-13.792 0-7.617 6.176-13.792 13.792-13.792zm1359.795-4.83c7.618.001 13.793 6.176 13.793 13.793 0 7.617-6.175 13.792-13.793 13.792-7.616 0-13.792-6.175-13.792-13.792s6.175-13.792 13.792-13.792zm-705.813 0c7.618.001 13.793 6.176 13.793 13.793 0 7.617-6.175 13.792-13.793 13.792-7.617 0-13.792-6.175-13.792-13.792s6.175-13.792 13.792-13.792zm1030.368-.433c7.617 0 13.792 6.175 13.792 13.792 0 7.618-6.175 13.793-13.792 13.793-7.618 0-13.793-6.175-13.793-13.793 0-7.617 6.175-13.792 13.793-13.792zm-490.258 0c7.617 0 13.793 6.175 13.793 13.792 0 7.618-6.176 13.793-13.793 13.793-7.617 0-13.792-6.175-13.792-13.792 0-7.618 6.175-13.793 13.792-13.793zm-705.814 0c7.618 0 13.794 6.175 13.794 13.792 0 7.618-6.176 13.793-13.793 13.793-7.618 0-13.793-6.175-13.793-13.792 0-7.618 6.175-13.793 13.792-13.793zm490.258 0c7.617 0 13.793 6.175 13.793 13.792 0 7.618-6.175 13.793-13.793 13.793-7.617 0-13.793-6.175-13.793-13.793 0-7.617 6.176-13.792 13.793-13.792zM2294.177.192c7.618 0 13.794 6.175 13.794 13.792s-6.176 13.792-13.793 13.792c-7.618 0-13.793-6.174-13.793-13.792 0-7.617 6.176-13.792 13.792-13.792zm-705.813 0c7.618 0 13.793 6.175 13.793 13.792s-6.175 13.792-13.793 13.792c-7.617 0-13.793-6.174-13.792-13.792 0-7.617 6.175-13.792 13.792-13.792z" transform="matrix(1 0 0 -1 -557 2585)" fill="url(#a)" fill-rule="evenodd"/></svg>