<svg xmlns="http://www.w3.org/2000/svg" width="907" height="385"><style>.st0{enable-background:new}.st1{fill:#fff}.st2,.st3{fill:none;stroke:#fff}.st2{stroke-width:.5;stroke-opacity:.6}.st3{stroke-linecap:round;stroke-dasharray:3}.st4,.st5{fill:none;stroke:#d0d0d0;stroke-width:.5}.st5{stroke:#fff;stroke-width:2;stroke-linecap:round}.st13{fill:#2d2c6f}</style><filter id="filter-8" width="200%" height="200%" x="-50%" y="-50%" filterUnits="objectBoundingBox"><feMorphology in="SourceAlpha" operator="dilate" radius=".5" result="shadowSpreadOuter1"/><feOffset in="shadowSpreadOuter1" result="shadowOffsetOuter1"/><feGaussianBlur in="shadowOffsetOuter1" result="shadowBlurOuter1" stdDeviation="1.5"/><feColorMatrix in="shadowBlurOuter1" values="0 0 0 0 1 0 0 0 0 1 0 0 0 0 1 0 0 0 0.784675045 0"/></filter><filter id="filter-6" width="200%" height="200%" x="-50%" y="-50%" filterUnits="objectBoundingBox"><feMorphology in="SourceAlpha" operator="dilate" radius=".5" result="shadowSpreadOuter1"/><feOffset in="shadowSpreadOuter1" result="shadowOffsetOuter1"/><feGaussianBlur in="shadowOffsetOuter1" result="shadowBlurOuter1" stdDeviation="1.5"/><feColorMatrix in="shadowBlurOuter1" values="0 0 0 0 1 0 0 0 0 1 0 0 0 0 1 0 0 0 0.784675045 0"/></filter><filter id="filter-4" width="200%" height="200%" x="-50%" y="-50%" filterUnits="objectBoundingBox"><feMorphology in="SourceAlpha" operator="dilate" radius=".5" result="shadowSpreadOuter1"/><feOffset in="shadowSpreadOuter1" result="shadowOffsetOuter1"/><feGaussianBlur in="shadowOffsetOuter1" result="shadowBlurOuter1" stdDeviation="1.5"/><feColorMatrix in="shadowBlurOuter1" values="0 0 0 0 1 0 0 0 0 1 0 0 0 0 1 0 0 0 0.784675045 0"/></filter><filter id="filter-2" width="200%" height="200%" x="-50%" y="-50%" filterUnits="objectBoundingBox"><feMorphology in="SourceAlpha" operator="dilate" radius=".5" result="shadowSpreadOuter1"/><feOffset in="shadowSpreadOuter1" result="shadowOffsetOuter1"/><feGaussianBlur in="shadowOffsetOuter1" result="shadowBlurOuter1" stdDeviation="1.5"/><feColorMatrix in="shadowBlurOuter1" values="0 0 0 0 1 0 0 0 0 1 0 0 0 0 1 0 0 0 0.784675045 0"/></filter><filter id="filter-16" width="108.5%" height="118.2%" x="-4.3%" y="-4.5%" filterUnits="objectBoundingBox"><feOffset dy="2" in="SourceAlpha" result="shadowOffsetOuter1"/><feGaussianBlur in="shadowOffsetOuter1" result="shadowBlurOuter1" stdDeviation="1"/><feColorMatrix in="shadowBlurOuter1" values="0 0 0 0 0 0 0 0 0 0 0 0 0 0 0 0 0 0 0.5 0"/></filter><filter id="filter-14" width="114.9%" height="131.8%" x="-7.4%" y="-11.4%" filterUnits="objectBoundingBox"><feOffset dy="2" in="SourceAlpha" result="shadowOffsetOuter1"/><feGaussianBlur in="shadowOffsetOuter1" result="shadowBlurOuter1" stdDeviation="2"/><feColorMatrix in="shadowBlurOuter1" values="0 0 0 0 0 0 0 0 0 0 0 0 0 0 0 0 0 0 0.5 0"/></filter><filter id="filter-12" width="127.6%" height="116%" x="-13.8%" y="-5.9%" filterUnits="objectBoundingBox"><feMorphology in="SourceAlpha" operator="dilate" radius=".5" result="shadowSpreadOuter1"/><feOffset dy="2" in="shadowSpreadOuter1" result="shadowOffsetOuter1"/><feGaussianBlur in="shadowOffsetOuter1" result="shadowBlurOuter1" stdDeviation="2"/><feComposite in="shadowBlurOuter1" in2="SourceAlpha" operator="out" result="shadowBlurOuter1"/><feColorMatrix in="shadowBlurOuter1" values="0 0 0 0 0 0 0 0 0 0 0 0 0 0 0 0 0 0 0.5 0"/></filter><filter id="filter-10" width="200%" height="200%" x="-50%" y="-50%" filterUnits="objectBoundingBox"><feMorphology in="SourceAlpha" operator="dilate" radius=".5" result="shadowSpreadOuter1"/><feOffset in="shadowSpreadOuter1" result="shadowOffsetOuter1"/><feGaussianBlur in="shadowOffsetOuter1" result="shadowBlurOuter1" stdDeviation="1.5"/><feColorMatrix in="shadowBlurOuter1" values="0 0 0 0 1 0 0 0 0 1 0 0 0 0 1 0 0 0 0.784675045 0"/></filter><g id="outcomes"><g id="Fancy_impactv4"><g id="study"><g id="actual-graph"><g id="a1c-values"><path d="M41.37 319.5c0-.65.1-1.3.27-1.93.2-.65.45-1.24.8-1.8.34-.54.8-.98 1.4-1.32.57-.33 1.23-.5 1.97-.5.38 0 .72.03 1 .1.34.07.57.14.7.2l.24.1-.46 1.2c-.42-.2-.9-.32-1.42-.32-.85 0-1.53.32-2.03.97-.5.64-.82 1.42-.94 2.34h.02c.2-.28.5-.5.9-.68.43-.17.85-.26 1.3-.26.9 0 1.67.3 2.25.93.58.62.87 1.4.87 2.33 0 .97-.3 1.76-.9 2.38s-1.36.93-2.3.93c-1.06 0-1.94-.43-2.64-1.3-.7-.85-1.03-1.97-1.03-3.36zm1.44.67c0 .66.23 1.3.67 1.86.43.58.96.86 1.56.86.56 0 1-.2 1.33-.58.34-.4.5-.87.5-1.46 0-.6-.18-1.1-.55-1.5s-.86-.58-1.47-.58c-.55 0-1.02.14-1.43.42-.4.28-.6.6-.6.97z" class="st1"/><g class="st0"><path d="M49.78 324v-1.4h1.43v1.4H49.8zm3-1.22l.77-1c.05.06.08.1.1.1.03.05.12.14.27.27.13.12.28.23.44.33.15.1.35.17.6.25.24.07.5.1.76.1.6 0 1.12-.18 1.54-.55.42-.37.63-.85.63-1.44s-.22-1.07-.65-1.45c-.43-.4-.97-.58-1.6-.58-.3 0-.58.04-.86.13s-.5.16-.62.23l-.2.13-.8-.28.48-4.9h5v1.2h-3.8l-.24 2.1-.06.5h.03c.35-.2.77-.3 1.27-.3 1.02 0 1.85.3 2.5.92.63.62.95 1.38.95 2.3 0 .94-.33 1.74-1 2.37-.7.65-1.52.97-2.5.97-.4 0-.75-.05-1.1-.14-.36-.1-.64-.22-.86-.35-.25-.15-.45-.3-.6-.4-.16-.14-.28-.26-.36-.36l-.12-.14zm7.72-6.75c0-.57.2-1.06.62-1.47.42-.4.92-.6 1.5-.6.6 0 1.1.2 1.5.6.43.4.63.9.63 1.47s-.2 1.07-.62 1.46c-.42.4-.92.6-1.5.6-.6 0-1.1-.2-1.5-.6-.42-.4-.62-.9-.62-1.47zm.22 7.97l7.56-9.88h1.3L62.05 324h-1.32zm.87-7.97c0 .3.1.54.3.74.2.2.43.3.73.3s.53-.1.73-.3c.2-.2.3-.44.3-.74s-.1-.53-.3-.74c-.2-.22-.44-.32-.73-.32s-.54.1-.74.3c-.2.22-.3.46-.3.75zm3.98 6.06c0-.58.2-1.07.62-1.47.42-.4.92-.6 1.5-.6.6 0 1.1.2 1.5.6s.63.9.63 1.46-.2 1.05-.63 1.46c-.42.4-.92.6-1.5.6-.6 0-1.1-.2-1.5-.6-.4-.4-.62-.9-.62-1.47zm1.1 0c0 .3.1.55.28.75s.45.3.75.3.54-.1.74-.3c.2-.2.3-.46.3-.75 0-.28-.1-.53-.3-.74-.2-.2-.45-.3-.73-.3-.3 0-.53.1-.73.3-.2.2-.3.46-.3.74z" class="st1"/></g><path d="M41.03 276.32v-1.2h6.6v.95L43.17 285h-1.43l3.85-7.8c.06-.13.15-.28.26-.46.08-.13.15-.24.22-.33l.08-.1v-.02c-.15.02-.4.04-.72.04h-4.4zM48.8 285v-1.4h1.43v1.4H48.8zm3.9-4.95c0-3.4 1.15-5.1 3.48-5.1 2.34 0 3.5 1.7 3.5 5.1 0 3.4-1.16 5.12-3.5 5.12-2.33 0-3.5-1.7-3.5-5.12zm1.4 0c0 2.56.7 3.84 2.08 3.84 1.4 0 2.08-1.3 2.08-3.85s-.7-3.82-2.08-3.82c-1.38 0-2.07 1.27-2.07 3.82zm8.07-3.02c0-.57.2-1.06.62-1.47.4-.4.9-.6 1.5-.6.58 0 1.08.2 1.5.6.4.4.62.9.62 1.47s-.2 1.07-.62 1.46c-.42.4-.92.6-1.5.6-.6 0-1.1-.2-1.5-.6-.42-.4-.63-.9-.63-1.47zm.2 7.97l7.58-9.88h1.3L63.7 285h-1.32zm.88-7.97c0 .3.1.54.3.74.2.2.45.3.74.3.28 0 .53-.1.72-.3.2-.2.3-.44.3-.74s-.1-.53-.3-.74c-.2-.22-.44-.32-.73-.32s-.55.1-.75.3c-.2.22-.3.46-.3.75zm4 6.06c0-.58.2-1.07.62-1.47.42-.4.92-.6 1.5-.6s1.08.2 1.5.6.63.9.63 1.46-.2 1.05-.63 1.46c-.43.4-.92.6-1.5.6-.6 0-1.1-.2-1.5-.6-.42-.4-.62-.9-.62-1.47zm1.08 0c0 .3.1.55.3.75s.44.3.74.3.53-.1.73-.3c.2-.2.3-.46.3-.75 0-.28-.1-.53-.3-.74-.2-.2-.44-.3-.73-.3a1.027 1.027 0 00-1.04 1.04zM41.92 237v-1.2h6.6v.95l-4.46 8.93h-1.43l3.85-7.8c.07-.13.16-.28.27-.46.08-.13.16-.24.23-.33l.08-.1v-.04c-.15.03-.4.04-.73.04h-4.4z" class="st1"/><g class="st0"><path d="M48.75 245.68v-1.4h1.43v1.4h-1.43zm2.15-1.22l.77-1c.05.06.08.1.1.1.03.05.12.14.26.27.14.12.28.23.45.33.15.1.35.17.6.25.24.08.5.12.76.12.6 0 1.12-.2 1.54-.56.42-.37.63-.85.63-1.44s-.2-1.07-.63-1.45c-.43-.38-.97-.57-1.62-.57-.27 0-.56.04-.84.13s-.5.16-.6.23l-.22.13-.8-.3.5-4.9h5v1.2H53l-.24 2.1-.06.5h.03c.37-.2.8-.3 1.3-.3 1 0 1.83.3 2.47.92.65.62.97 1.38.97 2.3 0 .94-.34 1.74-1 2.37-.7.63-1.52.95-2.5.95-.4 0-.75-.05-1.1-.14-.36-.1-.65-.2-.86-.34-.25-.15-.45-.3-.6-.4-.16-.14-.3-.26-.36-.36l-.12-.14zm6.87-6.76c0-.56.2-1.05.62-1.46.4-.4.9-.6 1.5-.6.58 0 1.08.2 1.5.6.4.4.62.9.62 1.47s-.2 1.08-.62 1.47c-.42.4-.92.6-1.5.6-.6 0-1.1-.2-1.5-.6-.42-.4-.63-.88-.63-1.46zm.22 7.98l7.55-9.88h1.3l-7.55 9.88H58zm.85-7.97c0 .3.1.55.3.75.2.2.45.3.74.3.28 0 .53-.1.72-.3.2-.2.3-.44.3-.74 0-.27-.1-.52-.3-.73-.2-.2-.44-.3-.73-.3s-.55.1-.75.3c-.2.2-.3.46-.3.74zm4 6.07c0-.57.2-1.06.62-1.46.42-.4.92-.6 1.5-.6s1.08.2 1.5.6.63.9.63 1.47-.2 1.06-.63 1.47c-.43.4-.92.6-1.5.6-.6 0-1.1-.2-1.5-.6-.42-.4-.62-.9-.62-1.47zm1.08 0c0 .3.1.56.3.76s.44.3.74.3.53-.1.73-.3c.2-.2.3-.46.3-.75 0-.28-.1-.53-.3-.74-.2-.2-.44-.3-.73-.3a1.027 1.027 0 00-1.04 1.04z" class="st1"/></g><path d="M38.9 203.5c0-.35.07-.68.2-1 .13-.33.3-.6.52-.82.24-.26.4-.43.5-.52.14-.13.27-.22.37-.3-.74-.53-1.1-1.18-1.1-1.97 0-.72.26-1.33.8-1.83.52-.5 1.28-.76 2.27-.76.92 0 1.67.24 2.25.72.57.48.86 1.13.86 1.93 0 .85-.4 1.7-1.17 2.58.84.55 1.25 1.25 1.25 2.1 0 .8-.3 1.48-.92 2.04-.6.57-1.4.86-2.37.86-1 0-1.83-.3-2.48-.85-.65-.56-.97-1.3-.97-2.18zm1.44-.08c0 .55.2 1 .6 1.35.4.34.87.5 1.42.5.53 0 .98-.15 1.38-.46.38-.3.58-.7.58-1.22 0-.16-.04-.32-.13-.47-.08-.14-.18-.27-.3-.4-.1-.1-.26-.2-.5-.34-.22-.13-.4-.23-.56-.3l-.66-.3-.66-.3c-.8.55-1.18 1.2-1.18 1.96zm.43-4.5c0 .14.02.26.07.38.04.12.1.23.15.32.04.1.13.2.26.3.14.1.24.2.32.24.04.02.18.1.4.22.18.1.32.16.43.2.03 0 .06.03.12.05.05.02.1.05.17.07s.12.06.18.1c.16.05.3.12.48.18.57-.57.86-1.23.86-1.95 0-.44-.16-.8-.5-1.08-.3-.27-.74-.4-1.26-.4-.53 0-.94.13-1.24.4-.3.25-.45.58-.45.97zm6.96 7.43v-1.38h1.43v1.38h-1.43zm3.24-4.95c0-3.4 1.17-5.1 3.5-5.1 2.34 0 3.5 1.7 3.5 5.1 0 3.42-1.16 5.13-3.5 5.13-2.33 0-3.5-1.7-3.5-5.13zm1.43 0c0 2.57.7 3.85 2.07 3.85 1.4 0 2.08-1.28 2.08-3.85 0-2.54-.7-3.82-2.08-3.82-1.38 0-2.07 1.28-2.07 3.82zm7.42-3c0-.6.2-1.07.62-1.48.4-.4.9-.6 1.5-.6s1.1.2 1.5.6c.42.4.63.9.63 1.47s-.2 1.05-.62 1.45c-.42.4-.92.6-1.5.6-.6 0-1.1-.2-1.5-.6-.42-.4-.63-.9-.63-1.46zm.2 7.95l7.58-9.88h1.3l-7.55 9.88h-1.32zm.88-7.96c0 .28.1.53.3.73.2.2.45.3.74.3.3 0 .54-.1.73-.3.2-.2.3-.45.3-.74 0-.3-.1-.55-.3-.76-.2-.2-.44-.3-.73-.3s-.54.1-.74.3c-.2.2-.3.46-.3.75zm4 6.05c0-.58.2-1.06.62-1.47.42-.4.92-.6 1.5-.6s1.08.2 1.5.6.63.9.63 1.47-.2 1.05-.63 1.46c-.43.42-.92.63-1.5.63-.6 0-1.1-.2-1.5-.6-.42-.4-.62-.9-.62-1.48zm1.08 0c0 .3.1.56.3.75s.44.3.74.3.53-.1.73-.3c.2-.2.3-.46.3-.75 0-.28-.1-.52-.3-.74-.2-.2-.44-.3-.73-.3-.3 0-.54.1-.74.3-.2.22-.3.47-.3.75zm-26.3-40.26c0-.35.07-.7.2-1 .13-.33.3-.6.5-.83.25-.26.42-.43.5-.5.16-.14.28-.24.38-.3-.73-.54-1.1-1.2-1.1-2 0-.7.27-1.3.8-1.8.53-.52 1.3-.77 2.28-.77.93 0 1.67.24 2.25.72.56.48.85 1.12.85 1.93 0 .85-.4 1.7-1.17 2.57.83.55 1.24 1.25 1.24 2.1 0 .8-.3 1.48-.92 2.05-.6.57-1.4.85-2.37.85-1 0-1.83-.28-2.48-.85-.64-.56-.97-1.3-.97-2.17zm1.43-.1c0 .57.2 1.02.6 1.36.4.34.88.52 1.43.52.53 0 1-.16 1.38-.48.4-.3.6-.72.6-1.22 0-.17-.05-.32-.13-.48-.08-.14-.18-.27-.3-.4-.1-.1-.26-.2-.5-.35-.2-.12-.4-.22-.56-.3l-.65-.3-.66-.3c-.8.55-1.2 1.2-1.2 1.96zm.44-4.48c0 .13.02.26.07.38.06.12.1.23.16.32.05.1.15.2.27.3l.32.23c.04.03.18.1.4.22.18.1.32.16.43.2.02 0 .05.03.1.05.06.03.12.05.18.08s.13.05.2.08c.15.06.3.13.47.2.57-.58.86-1.23.86-1.95 0-.44-.17-.8-.5-1.07-.32-.27-.74-.4-1.27-.4-.52 0-.94.12-1.24.38-.3.27-.46.6-.46 1z" class="st1"/><g class="st0"><path d="M48.2 167.03v-1.4h1.42v1.4H48.2zm2.97-1.23l.77-1c.05.07.08.1.1.12.02.04.1.13.26.26.13.12.28.23.44.33.15.1.35.18.6.26.24.07.5.1.76.1.6 0 1.12-.18 1.54-.55.43-.36.64-.84.64-1.43s-.22-1.07-.65-1.45c-.43-.38-.97-.57-1.6-.57-.3 0-.57.04-.86.13-.3.08-.5.16-.6.23l-.22.14-.8-.3.5-4.9h5v1.2h-3.8l-.25 2.1-.06.5h.03c.36-.2.8-.3 1.28-.3 1.02 0 1.85.3 2.5.93.63.62.96 1.38.96 2.3 0 .94-.33 1.74-1 2.37-.7.64-1.52.96-2.5.96-.4 0-.75-.05-1.1-.14a3.3 3.3 0 01-.85-.35 3.87 3.87 0 01-.6-.4c-.17-.14-.3-.25-.37-.35l-.1-.14zm7.69-6.74c0-.57.2-1.06.62-1.47.4-.42.92-.62 1.5-.62.6 0 1.1.2 1.5.6.42.42.63.9.63 1.48s-.2 1.06-.6 1.46c-.43.4-.93.6-1.52.6-.6 0-1.1-.2-1.5-.6-.4-.4-.62-.88-.62-1.46zm.22 7.97l7.56-9.9h1.3l-7.54 9.9h-1.32zm.86-7.97c0 .3.1.54.3.74.2.2.45.3.74.3.3 0 .54-.1.73-.3.22-.2.32-.45.32-.74 0-.3-.1-.54-.3-.75-.2-.2-.44-.3-.74-.3s-.53.1-.73.3c-.2.22-.3.47-.3.76zm4 6.06c0-.57.2-1.06.62-1.46.42-.4.92-.6 1.5-.6s1.08.2 1.5.6.63.9.63 1.46-.22 1.06-.64 1.46c-.42.4-.92.62-1.5.62-.6 0-1.1-.2-1.5-.6-.42-.4-.62-.9-.62-1.48zm1.08 0c0 .3.1.56.3.76s.44.3.74.3.53-.1.73-.3c.2-.2.3-.46.3-.75 0-.28-.1-.53-.3-.74a.956.956 0 00-.74-.32c-.3 0-.54.1-.74.3-.2.22-.3.46-.3.75z" class="st1"/></g><path d="M39.35 120.96c0-.97.3-1.76.9-2.38.6-.62 1.35-.93 2.28-.93 1.07 0 1.95.43 2.64 1.3.7.86 1.04 1.98 1.04 3.37 0 .65-.08 1.3-.26 1.93-.18.63-.45 1.23-.8 1.78-.34.56-.8 1-1.4 1.34-.57.33-1.23.5-1.96.5-.35 0-.68-.03-1-.1-.35-.07-.58-.14-.7-.2l-.22-.1.45-1.2c.43.2.9.33 1.42.33.85 0 1.52-.33 2.03-.98.5-.65.82-1.43.94-2.34h-.04c-.2.27-.5.5-.9.66-.42.17-.84.25-1.28.25-.93 0-1.68-.32-2.26-.93-.58-.6-.87-1.38-.87-2.3zm1.38 0c0 .6.18 1.1.55 1.5.36.4.85.58 1.48.58.55 0 1.03-.14 1.42-.42.4-.3.6-.6.6-.97 0-.66-.23-1.28-.66-1.86-.44-.58-.96-.87-1.57-.87-.56 0-1 .2-1.33.58-.32.4-.5.87-.5 1.46zM48 127.7v-1.4h1.44v1.4H48zm3.4-4.95c0-3.4 1.18-5.1 3.5-5.1 2.35 0 3.52 1.7 3.52 5.1 0 3.42-1.17 5.12-3.5 5.12-2.34 0-3.5-1.7-3.5-5.12zm1.44 0c0 2.56.7 3.85 2.07 3.85 1.4 0 2.1-1.3 2.1-3.85s-.7-3.82-2.1-3.82c-1.37 0-2.06 1.27-2.06 3.82zm7.58-3.01c0-.58.2-1.07.6-1.47.43-.4.93-.62 1.5-.62.6 0 1.1.2 1.52.62.4.4.62.9.62 1.47s-.2 1.06-.62 1.45c-.42.4-.92.6-1.5.6-.6 0-1.1-.2-1.5-.6-.42-.4-.62-.9-.62-1.46zm.2 7.96l7.57-9.88h1.3l-7.55 9.88h-1.32zm.88-7.96c0 .3.1.53.3.74.2.2.44.3.73.3.3 0 .54-.1.74-.3.2-.2.3-.45.3-.74 0-.3-.1-.54-.3-.75-.2-.22-.44-.32-.74-.32s-.53.1-.73.3c-.2.22-.3.47-.3.76zm4 6.06c0-.58.2-1.07.6-1.47.43-.4.93-.6 1.5-.6.6 0 1.1.2 1.5.6s.64.9.64 1.47-.2 1.05-.63 1.46c-.4.4-.9.6-1.5.6s-1.1-.2-1.5-.6c-.4-.4-.6-.9-.6-1.46zm1.07 0c0 .3.1.55.3.75s.44.3.74.3.55-.1.75-.3c.2-.2.3-.46.3-.75 0-.28-.1-.53-.3-.74-.2-.2-.45-.3-.74-.3-.28 0-.53.1-.72.3-.2.2-.3.46-.3.74zM40.12 81.63c0-.96.3-1.76.9-2.38.6-.6 1.35-.92 2.3-.92 1.05 0 1.93.43 2.62 1.28.7.88 1.05 2 1.05 3.4 0 .65-.1 1.3-.3 1.93-.17.62-.43 1.22-.78 1.78-.35.56-.8 1-1.4 1.34-.58.34-1.23.5-1.97.5-.35 0-.68-.03-1-.1-.34-.07-.58-.14-.7-.2l-.22-.1.45-1.2c.42.22.9.33 1.4.33.86 0 1.53-.32 2.04-.97.5-.65.82-1.44.94-2.35h-.03c-.2.27-.5.5-.9.66-.42.18-.84.26-1.28.26-.93 0-1.68-.3-2.26-.9-.6-.62-.88-1.4-.88-2.33zm1.38 0c0 .6.2 1.1.55 1.5.36.4.85.58 1.48.58.56 0 1.03-.13 1.42-.4.4-.3.6-.62.6-.97 0-.67-.22-1.3-.66-1.86-.45-.58-.97-.86-1.58-.86-.56 0-1 .2-1.33.58-.33.38-.5.87-.5 1.45z" class="st1"/><g class="st0"><path d="M48.3 88.38v-1.4h1.44v1.4H48.3zm2.67-1.22l.77-1c.05.06.08.1.1.1.03.05.12.14.26.27.14.1.28.22.45.32.15.1.35.18.6.26.24.08.5.1.76.1.6 0 1.13-.17 1.55-.54.42-.38.63-.86.63-1.44s-.2-1.07-.64-1.45c-.44-.38-.97-.57-1.62-.57-.28 0-.56.04-.85.13s-.5.16-.6.23l-.22.13-.8-.3.5-4.9h5v1.2h-3.8l-.24 2.08-.05.52h.02c.36-.2.8-.3 1.3-.3 1 0 1.83.3 2.47.92.65.62.97 1.38.97 2.3 0 .94-.33 1.73-1 2.37-.68.63-1.5.95-2.5.95-.38 0-.75-.05-1.1-.15-.35-.1-.64-.2-.85-.34-.25-.15-.45-.3-.6-.4-.16-.15-.3-.26-.37-.36l-.1-.14zm7.38-6.76c0-.56.2-1.05.6-1.46.43-.4.93-.6 1.52-.6.58 0 1.08.2 1.5.6.4.4.62.9.62 1.47 0 .6-.22 1.07-.63 1.47-.42.4-.92.6-1.5.6-.6 0-1.1-.2-1.5-.6-.42-.4-.62-.88-.62-1.46zm.2 7.98l7.57-9.9h1.3l-7.54 9.9h-1.32zm.88-7.97c0 .3.1.55.3.75.2.2.44.3.74.3s.53-.1.73-.3c.2-.2.3-.45.3-.74 0-.28-.1-.53-.3-.74-.2-.2-.44-.3-.73-.3s-.54.1-.74.3c-.2.2-.3.46-.3.75zm4 6.07c0-.57.2-1.06.6-1.46.43-.4.93-.6 1.5-.6.6 0 1.1.2 1.5.6s.64.9.64 1.47-.2 1.06-.63 1.46c-.42.4-.92.62-1.5.62-.6 0-1.1-.2-1.5-.6-.42-.4-.62-.9-.62-1.48zm1.08 0c0 .3.1.56.3.76s.44.3.74.3.54-.1.74-.3a1.084 1.084 0 000-1.5c-.2-.2-.45-.3-.74-.3-.3 0-.54.1-.73.3-.2.2-.3.46-.3.75z" class="st1"/></g><path d="M30.24 41.46l2.37-2.3h1.25v8.7H36v1.2h-5.68v-1.2h2.18v-7h-.02c-.07.13-.23.32-.47.56l-.92.9-.84-.86z" class="st1"/><g class="st0"><path d="M37.25 44.1c0-3.4 1.16-5.1 3.5-5.1 2.33 0 3.5 1.7 3.5 5.1 0 3.4-1.17 5.12-3.5 5.12-2.34 0-3.5-1.7-3.5-5.12zm1.43 0c0 2.56.68 3.84 2.06 3.84 1.4 0 2.08-1.28 2.08-3.84 0-2.55-.7-3.82-2.08-3.82-1.38 0-2.06 1.27-2.06 3.82zm7.49 4.95v-1.4h1.43v1.4h-1.43z" class="st1"/></g><path d="M49.4 44.1c0-3.4 1.17-5.1 3.5-5.1 2.34 0 3.5 1.7 3.5 5.1 0 3.4-1.16 5.12-3.5 5.12-2.33 0-3.5-1.7-3.5-5.12zm1.43 0c0 2.56.7 3.84 2.07 3.84 1.4 0 2.08-1.28 2.08-3.84 0-2.55-.7-3.82-2.08-3.82-1.38 0-2.07 1.27-2.07 3.82zm7.42-3.02c0-.57.2-1.06.62-1.47.4-.4.9-.6 1.5-.6.58 0 1.08.2 1.5.6.42.42.63.9.63 1.48s-.2 1.07-.63 1.46c-.42.4-.92.6-1.5.6-.6 0-1.1-.2-1.5-.6-.4-.4-.62-.88-.62-1.46zm.2 7.97l7.57-9.88h1.32l-7.56 9.88h-1.32zm.88-7.97c0 .3.1.54.3.74.2.2.44.3.74.3s.54-.1.73-.3c.2-.2.3-.44.3-.74 0-.28-.1-.53-.3-.74-.2-.2-.44-.3-.73-.3s-.54.1-.74.3c-.2.2-.3.46-.3.74zm4 6.06c0-.57.2-1.06.6-1.46.43-.4.94-.6 1.52-.6.58 0 1.08.2 1.5.6s.62.9.62 1.46-.2 1.06-.62 1.47c-.43.42-.93.62-1.5.62-.6 0-1.1-.2-1.5-.6-.42-.4-.63-.9-.63-1.48zm1.08 0c0 .3.1.56.3.76s.45.3.75.3.53-.1.73-.3c.2-.2.3-.46.3-.75 0-.28-.1-.53-.3-.74-.2-.2-.44-.3-.73-.3-.3 0-.54.1-.74.3-.2.22-.3.47-.3.75zM31 2.14l2.4-2.3h1.22v8.68h2.15v1.2H31.1v-1.2h2.17v-7c-.1.14-.25.33-.5.58l-.92.9-.84-.86zm6.7 2.63c0-3.4 1.17-5.1 3.5-5.1 2.34 0 3.5 1.7 3.5 5.1 0 3.42-1.16 5.13-3.5 5.13-2.33 0-3.5-1.7-3.5-5.13zm1.43 0c0 2.57.7 3.85 2.07 3.85 1.4 0 2.08-1.28 2.08-3.85 0-2.54-.7-3.82-2.08-3.82-1.38 0-2.07 1.28-2.07 3.82z" class="st1"/><g class="st0"><path d="M46.3 9.72V8.34h1.43v1.38H46.3zm3.16-1.22l.78-1c.05.07.07.1.08.12.04.04.13.12.28.25.13.12.28.23.44.33.15.1.35.18.6.25.24.08.5.1.76.1.6 0 1.12-.17 1.54-.55.42-.37.64-.85.64-1.43s-.22-1.07-.65-1.45c-.43-.4-.97-.58-1.6-.58-.3 0-.57.05-.86.13s-.5.17-.6.24l-.22.14-.8-.3.5-4.9h4.98v1.2h-3.78l-.25 2.1-.06.5h.03c.36-.2.8-.3 1.28-.3 1.02 0 1.85.3 2.5.93.63.62.95 1.38.95 2.28 0 .96-.33 1.75-1 2.4-.7.63-1.52.95-2.5.95-.4 0-.75-.05-1.1-.15-.36-.1-.64-.2-.86-.34-.25-.15-.45-.28-.6-.4-.16-.14-.28-.26-.36-.35l-.12-.14zm7.88-6.74c0-.58.2-1.07.62-1.47.4-.42.92-.62 1.5-.62.6 0 1.1.2 1.5.6.42.4.63.9.63 1.48 0 .57-.22 1.06-.63 1.46-.42.4-.92.6-1.5.6-.6 0-1.1-.2-1.5-.6-.42-.4-.63-.9-.63-1.46zm.22 7.96l7.56-9.88h1.3L58.9 9.72h-1.32zm.86-7.96c0 .3.1.54.3.74.2.2.45.3.74.3.3 0 .54-.1.74-.3.2-.2.3-.45.3-.74 0-.3-.1-.54-.3-.75-.2-.2-.44-.3-.74-.3s-.53.1-.73.3c-.2.22-.3.47-.3.76zm4 6.06c0-.58.2-1.06.62-1.47.42-.4.92-.6 1.5-.6s1.08.2 1.5.6.63.9.63 1.47-.2 1.05-.63 1.46c-.42.4-.92.62-1.5.62-.6 0-1.1-.2-1.5-.6-.42-.4-.62-.9-.62-1.48zm1.08 0c0 .3.1.56.3.75s.44.3.74.3.53-.1.73-.3c.2-.2.3-.46.3-.75 0-.28-.1-.52-.3-.74-.2-.2-.44-.3-.73-.3a1.027 1.027 0 00-1.04 1.04z" class="st1"/></g></g><g id="background-lines"><path id="Stroke-8" d="M89 286h817" class="st2"/><path id="Stroke-9" d="M89 247h817" class="st2"/><path id="Stroke-10" d="M89 208h817" class="st2"/><path id="Stroke-11" d="M89 168h817" class="st2"/><path id="Stroke-12" d="M89 129h817" class="st2"/><path id="Stroke-13" d="M89 90h817" class="st2"/><path id="Stroke-14" d="M89 50h817" class="st2"/><path id="Stroke-15" d="M89 11h817" class="st2"/></g><g id="control-group"><g id="control-line"><path id="Stroke-22" d="M289.03 192.36L112.88 113.7" class="st3"/><path id="Stroke-23" d="M465.18 160.9l-176.15 31.46" class="st3"/><path id="Stroke-24" d="M641.33 192.36L465.18 160.9" class="st3"/><path id="Stroke-25" d="M817.48 168.77l-176.15 23.6" class="st3"/></g><g id="control-markers"><path id="Fill-42" d="M292.12 195.5h-4.73c-.36 0-.65-.3-.65-.64v-4.72c0-.36.3-.64.64-.64h4.72c.35 0 .63.28.63.64v4.72c0 .35-.28.64-.63.64" class="st1"/><path id="Fill-44" d="M467.15 164.5h-4.72c-.36 0-.64-.3-.64-.64v-4.72c0-.36.27-.64.63-.64h4.72c.35 0 .64.28.64.64v4.72c0 .35-.3.64-.65.64" class="st1"/><path id="Fill-46" d="M643.47 195.5h-4.73c-.35 0-.63-.3-.63-.64v-4.72c0-.36.3-.64.64-.64h4.73c.35 0 .64.28.64.64v4.72c0 .35-.28.64-.63.64" class="st1"/><path id="Fill-48" d="M818.5 170.5h-4.72c-.36 0-.64-.3-.64-.64v-4.72c0-.36.28-.64.64-.64h4.72c.35 0 .64.28.64.64v4.72c0 .35-.3.64-.64.64" class="st1"/><path id="Fill-40" d="M113.22 115.5h-4.72c-.35 0-.64-.3-.64-.64v-4.72c0-.36.3-.64.64-.64h4.72c.36 0 .64.28.64.64v4.72c0 .35-.28.64-.64.64" class="st1"/></g></g><g id="values-tickers"><path id="Stroke-2" d="M112.74 326.07v-7.86" class="st4"/><path id="Stroke-3" d="M288.28 325.86V318" class="st4"/><path id="Stroke-4" d="M466.25 326.07v-7.86" class="st4"/><path id="Stroke-5" d="M641.08 326.07v-7.86" class="st4"/><path id="Stroke-6" d="M818.48 326.07v-7.86" class="st4"/></g><path id="horizontal-axis" d="M88.47 326h817.68" class="st2"/><g id="bluestar-group"><g id="bluestar-line"><path id="Stroke-17" d="M291.43 223.82L115.33 58.66" class="st5"/><path id="Stroke-18" d="M467.54 247.42l-176.1-23.6" class="st5"/><path id="Stroke-19" d="M643.65 231.7l-176.1 15.72" class="st5"/><path id="Stroke-20" d="M819.77 215.96l-176.1 15.73" class="st5"/></g><g id="bluestar-markers" transform="translate(108 50.499)"><g id="Oval"><g filter="url(#filter-2)"><circle id="path-1_2_" cx="709.28" cy="165" r="6"/></g><circle id="path-1_1_" cx="709.28" cy="165" r="6" class="st1"/></g><g id="Oval-Copy"><g filter="url(#filter-4)"><circle id="path-3_2_" cx="532.996" cy="181" r="6"/></g><circle id="path-3_1_" cx="532.996" cy="181" r="6" class="st1"/></g><g id="Oval-Copy-2"><g filter="url(#filter-6)"><circle id="path-5_2_" cx="358" cy="197" r="6"/></g><circle id="path-5_1_" cx="358" cy="197" r="6" class="st1"/></g><g id="Oval-Copy-3"><g filter="url(#filter-8)"><circle id="path-7_2_" cx="180.43" cy="171" r="6"/></g><circle id="path-7_1_" cx="180.43" cy="171" r="6" class="st1"/></g><g id="Oval-Copy-4"><g filter="url(#filter-10)"><circle id="path-9_2_" cx="6.72" cy="6" r="6"/></g><circle id="path-9_1_" cx="6.72" cy="6" r="6" class="st1"/></g></g></g><g id="values-labels"><g class="st0"><path d="M809.18 339.72l2.37-2.3h1.24v8.68h2.13v1.2h-5.67v-1.2h2.17v-6.38l.02-.62h-.03c-.08.15-.23.34-.48.58l-.92.9-.84-.86zm6.9 6.83c0-.55.1-1.07.34-1.54.23-.47.52-.86.86-1.16.35-.3.73-.62 1.13-.92l1.18-.84c.34-.24.64-.53.9-.87.23-.32.35-.66.35-1.02 0-.5-.16-.88-.5-1.18-.33-.3-.75-.46-1.28-.46-.25 0-.48.04-.7.13-.22.08-.4.2-.55.32-.18.13-.3.26-.4.35-.12.13-.2.23-.25.32l-.08.13-.95-.7s.03-.04.05-.1c.03-.03.04-.07.06-.1.05-.1.16-.24.33-.44.2-.22.38-.4.58-.56.2-.16.5-.3.86-.45.34-.13.73-.2 1.15-.2.9 0 1.66.27 2.25.78s.87 1.2.87 2.05c0 .44-.08.85-.26 1.24-.16.38-.4.7-.66 1-.3.27-.6.53-.93.78-.23.18-.57.42-1 .7-.37.27-.68.5-.93.7-.27.2-.5.46-.68.74-.2.27-.28.56-.28.86h4.9v1.2h-6.28c-.04-.28-.06-.53-.06-.75z" class="st1"/></g><path d="M636.87 340.56c0-.96.3-1.76.9-2.38.58-.6 1.35-.92 2.28-.92 1.06 0 1.94.43 2.63 1.28.7.87 1.05 2 1.05 3.38 0 .66-.1 1.3-.27 1.94-.2.62-.45 1.22-.8 1.78-.35.55-.8 1-1.4 1.33-.58.34-1.23.5-1.96.5-.35 0-.7-.03-1-.1-.35-.07-.6-.14-.7-.2l-.23-.1.46-1.2c.4.22.88.33 1.4.33.85 0 1.53-.33 2.03-.97.5-.65.82-1.44.94-2.35h-.02c-.2.27-.5.5-.92.66-.4.17-.83.25-1.27.25-.93 0-1.7-.3-2.27-.93-.58-.6-.86-1.37-.86-2.3zm1.38 0c0 .6.18 1.1.54 1.5.35.4.84.58 1.47.58.56 0 1.03-.14 1.42-.42.4-.3.6-.6.6-.96 0-.67-.23-1.3-.67-1.86s-.96-.86-1.57-.86c-.55 0-1 .2-1.32.57-.33.4-.5.88-.5 1.46zm-177.47 2.26c0-.67.1-1.3.27-1.95.2-.64.45-1.23.8-1.78.34-.56.8-1 1.4-1.34.57-.34 1.23-.5 1.97-.5.38 0 .7.03 1 .1.33.06.56.13.7.2l.23.1-.45 1.2c-.43-.22-.9-.32-1.43-.32-.85 0-1.52.32-2.03.96-.5.65-.8 1.43-.94 2.34h.03c.2-.27.5-.5.92-.67.4-.17.83-.26 1.27-.26.93 0 1.68.32 2.26.94s.88 1.4.88 2.33c0 .96-.3 1.76-.9 2.38-.6.62-1.37.93-2.3.93-1.07 0-1.95-.43-2.65-1.3-.68-.85-1.02-1.97-1.02-3.36zm1.44.65c0 .67.22 1.3.66 1.87s.96.86 1.57.86c.55 0 1-.2 1.32-.58.34-.38.5-.87.5-1.45 0-.62-.18-1.12-.55-1.5-.37-.4-.86-.6-1.48-.6-.55 0-1.02.16-1.42.44-.4.3-.6.6-.6.97zm-177.62 2.65l.75-1.05c.08.1.2.2.3.3.15.12.42.28.82.47.43.2.85.3 1.27.3.56 0 1.04-.17 1.43-.5s.6-.78.6-1.3c0-.57-.24-1.02-.68-1.34-.44-.32-1-.47-1.64-.47h-.7l-.3-.75 2.15-2.53.62-.64v-.02c-.2.03-.48.05-.84.05h-3.35v-1.2h5.9v.87l-2.7 3.1c.78.08 1.45.36 2.03.85.6.5.88 1.17.88 2.04 0 .86-.3 1.6-.93 2.24s-1.42.94-2.4.94c-.38 0-.74-.05-1.1-.15-.38-.1-.68-.2-.9-.34-.26-.14-.48-.28-.66-.4-.2-.13-.33-.25-.42-.35l-.13-.13zm-176.48-3.77c0-3.4 1.17-5.1 3.5-5.1 2.34 0 3.5 1.7 3.5 5.1 0 3.42-1.16 5.13-3.5 5.13-2.33 0-3.5-1.7-3.5-5.13zm1.43 0c0 2.57.7 3.85 2.07 3.85 1.38 0 2.08-1.28 2.08-3.85 0-2.54-.7-3.8-2.08-3.8-1.38 0-2.07 1.26-2.07 3.8z" class="st1"/></g><g id="axis-labels"><g id="baseline-marker"><g id="Stroke-54"><g filter="url(#filter-12)"><path id="path-11_2_" d="M236.68 84.76h-79.7c-1.67 0-3-1.73-3-3.86V65.93l-7.65-7.8c-.6-.6-.6-1.75-.03-2.37l7.67-8.24v-13.2c0-2.15 1.34-3.87 3-3.87h79.7c1.66 0 3 1.72 3 3.86v46.6c0 2.13-1.34 3.86-3 3.86z"/></g><path id="path-11_1_" d="M236.68 84.76h-79.7c-1.67 0-3-1.73-3-3.86V65.93l-7.65-7.8c-.6-.6-.6-1.75-.03-2.37l7.67-8.24v-13.2c0-2.15 1.34-3.87 3-3.87h79.7c1.66 0 3 1.72 3 3.86v46.6c0 2.13-1.34 3.86-3 3.86z" fill="#fff" stroke="#f2f3f7"/></g><path d="M176.25 52.6v-7.67c0-.27.14-.4.4-.4h2.57c.73 0 1.32.2 1.77.57s.67.92.67 1.6c0 .4-.1.76-.28 1.08s-.45.56-.78.73v.04c.44.12.77.38 1.02.75s.37.8.37 1.3c0 .37-.07.72-.2 1.03-.15.3-.35.57-.6.76-.25.2-.54.34-.87.44-.33.1-.68.16-1.06.16h-2.62c-.26 0-.4-.13-.4-.4zm1.18-4.5h1.8c.37 0 .67-.13.9-.37s.34-.54.34-.92-.12-.67-.34-.9-.54-.34-.94-.34h-1.77v2.53zm0 3.87h1.9c.46 0 .82-.13 1.08-.4s.4-.6.4-1.04-.13-.8-.4-1.05-.62-.4-1.06-.4h-1.9v2.9zm5.49-.63c0-.26.05-.5.14-.7s.2-.4.36-.54.32-.26.54-.37.42-.2.63-.25.43-.1.68-.14.47-.06.67-.07.4 0 .6 0h.3v-.17c0-.9-.43-1.33-1.32-1.33-.46 0-.92.13-1.37.38-.08.04-.16.06-.22.06-.13 0-.24-.06-.33-.2l-.08-.16a.529.529 0 01-.07-.25c0-.13.06-.23.2-.3.6-.34 1.25-.52 1.97-.52.75 0 1.34.2 1.76.62s.63 1 .63 1.76v3.44c0 .27-.12.4-.38.4h-.3c-.26 0-.4-.13-.4-.4v-.36c0-.06 0-.13.02-.2s0-.1.02-.13v-.03h-.02c-.02.03-.04.08-.07.14s-.1.17-.22.3-.24.3-.37.4-.33.22-.56.3-.5.15-.75.15c-.57 0-1.05-.17-1.45-.5s-.6-.76-.6-1.3zm1.18-.1c0 .28.1.5.3.7.2.2.48.3.83.3.32 0 .6-.1.87-.3.26-.2.45-.45.58-.75.13-.3.2-.6.2-.9V50h-.32c-1.64 0-2.46.4-2.46 1.23zm5.2.72l.12-.17c.08-.12.16-.17.25-.2.08 0 .18.03.3.1.5.33 1 .5 1.5.5.3 0 .55-.07.74-.22.2-.14.3-.34.3-.6 0-.15-.07-.3-.18-.4a1.23 1.23 0 00-.45-.32c-.18-.1-.4-.17-.6-.25a6.31 6.31 0 01-.68-.26c-.24-.1-.44-.22-.63-.35s-.33-.3-.45-.53c-.1-.22-.17-.46-.17-.74 0-.55.2-.98.63-1.3.42-.3.95-.45 1.57-.45.64 0 1.2.16 1.7.47.1.05.17.13.2.22s0 .2-.07.3l-.1.2c-.08.12-.18.18-.3.18-.07 0-.16-.02-.25-.06-.4-.25-.8-.37-1.23-.37-.3 0-.55.07-.74.2-.2.13-.28.32-.28.57 0 .17.06.3.17.44.12.12.27.22.45.3.18.1.38.17.6.24.23.08.45.17.68.27.22.1.43.22.6.35s.35.3.47.52c.1.2.17.46.17.74 0 .52-.2.95-.6 1.28-.4.34-.94.5-1.6.5-.77 0-1.46-.2-2.04-.65-.12-.08-.18-.18-.18-.28 0-.08.03-.17.1-.26zm5.2-2c0-.95.28-1.72.86-2.3.57-.58 1.3-.88 2.17-.88.82 0 1.46.27 1.92.8.46.53.7 1.23.7 2.1 0 .1-.05.2-.13.28s-.17.12-.3.12h-4.04c.03.64.25 1.14.65 1.5s.88.56 1.45.56c.54 0 1.02-.16 1.45-.48.1-.04.17-.07.24-.07.13 0 .22.06.3.2l.1.17c.07.1.1.2.07.3s-.08.17-.18.23c-.62.43-1.3.65-2.05.65-.62 0-1.17-.14-1.66-.42s-.87-.66-1.14-1.15-.4-1.02-.4-1.62zm1.22-.65h3.26c0-.5-.16-.9-.44-1.18-.27-.28-.62-.42-1.04-.42-.45 0-.84.14-1.17.43s-.52.68-.6 1.18zm5.7 2.03v-6.4c0-.28.13-.4.4-.4h.37c.26 0 .4.12.4.4v6.27c0 .32.05.52.15.63.1.1.23.17.4.2.2 0 .3.13.3.33v.3c0 .25-.14.4-.4.4-.16 0-.3-.02-.43-.04s-.27-.07-.43-.14-.3-.16-.4-.28-.2-.28-.27-.5-.1-.47-.1-.76zm3.13-6.02v-.4c0-.26.13-.4.4-.4h.4c.28 0 .4.14.4.4v.4c0 .12-.02.22-.1.3s-.16.1-.3.1h-.4c-.27 0-.4-.14-.4-.4zm0 7.28v-5.28c0-.26.14-.4.4-.4h.4c.25 0 .4.14.4.4v5.28c0 .27-.15.4-.4.4h-.4c-.26 0-.4-.13-.4-.4zm2.85 0v-5.28c0-.26.14-.4.4-.4h.34c.27 0 .4.14.4.4v.54l-.03.35h.03c.07-.14.16-.28.28-.44s.28-.3.47-.46a2 2 0 01.68-.37c.28-.1.57-.15.88-.15.7 0 1.23.2 1.56.58s.5.97.5 1.75v3.5c0 .27-.13.4-.4.4h-.37c-.26 0-.4-.13-.4-.4V49.4c0-.24 0-.44-.03-.6s-.08-.33-.16-.48-.2-.26-.35-.34-.36-.1-.6-.1c-.58 0-1.07.2-1.45.63s-.57.96-.57 1.6v2.5c0 .27-.13.4-.4.4h-.38c-.26 0-.4-.13-.4-.4zm6.7-2.64c0-.95.3-1.72.87-2.3.57-.58 1.3-.88 2.17-.88.82 0 1.46.27 1.92.8.46.53.7 1.23.7 2.1 0 .1-.05.2-.13.28s-.17.12-.3.12h-4.04c.02.64.24 1.14.64 1.5s.9.56 1.45.56c.53 0 1-.16 1.44-.48.1-.04.17-.07.24-.07.13 0 .23.06.3.2l.1.17c.07.1.1.2.07.3s-.08.17-.18.23c-.62.43-1.3.65-2.05.65-.62 0-1.18-.14-1.67-.42s-.87-.66-1.14-1.15-.4-1.02-.4-1.62zm1.24-.65h3.25c-.02-.5-.17-.9-.44-1.18-.28-.28-.63-.42-1.05-.42-.44 0-.83.14-1.15.43s-.53.68-.6 1.18z"/><g class="st0"><path d="M184.87 64.25c0-.83.25-1.52.76-2.06.52-.54 1.17-.8 1.95-.8.45 0 .87.08 1.26.27s.72.46 1 .8.5.76.66 1.25.24 1.04.24 1.62c0 .46-.04.9-.14 1.36-.1.44-.24.87-.44 1.3-.2.4-.46.78-.75 1.1s-.64.57-1.06.76c-.43.2-.9.3-1.4.3-.5 0-.9-.1-1.28-.23-.24-.07-.3-.23-.22-.5l.1-.3c.05-.13.1-.2.2-.24.07-.04.17-.04.28 0 .38.1.66.15.86.15.3 0 .6-.05.86-.16s.5-.27.68-.45.36-.4.5-.65c.16-.25.27-.52.36-.8s.14-.55.18-.84h-.03c-.18.25-.45.45-.8.6s-.75.23-1.17.23c-.75 0-1.37-.27-1.86-.8-.5-.5-.73-1.16-.73-1.95zm1.17-.02c0 .52.16.95.47 1.28.33.34.76.5 1.32.5.47 0 .87-.12 1.2-.36.33-.25.5-.54.5-.87 0-.25-.05-.5-.14-.77-.1-.27-.23-.5-.4-.74-.16-.23-.36-.4-.6-.56-.26-.14-.52-.22-.8-.22-.46 0-.84.16-1.12.5-.28.3-.42.73-.42 1.25zm6.1 5.39v-.43c0-.26.13-.4.4-.4h.43c.26 0 .4.14.4.4v.42c0 .25-.14.38-.4.38h-.44c-.26 0-.4-.13-.4-.38zm2.51-5.37c0-.83.26-1.52.77-2.06.5-.54 1.16-.8 1.95-.8.44 0 .86.08 1.25.27s.73.46 1 .8c.3.34.5.76.67 1.25.15.5.23 1.04.23 1.62 0 .46-.05.9-.14 1.36s-.25.87-.46 1.3c-.2.4-.45.78-.74 1.1-.3.3-.65.57-1.08.76s-.9.3-1.4.3c-.5 0-.9-.1-1.27-.23-.24-.07-.32-.23-.22-.5l.1-.3c.04-.13.1-.2.2-.24s.16-.04.28 0c.38.1.67.15.87.15.3 0 .6-.05.85-.16.27-.12.5-.27.7-.45s.35-.4.5-.65.26-.52.34-.8c.08-.26.15-.55.18-.84h-.02c-.18.25-.45.45-.8.6-.37.15-.76.23-1.17.23-.76 0-1.38-.27-1.87-.8s-.73-1.16-.73-1.95zm1.18-.02c0 .52.15.95.47 1.28.3.34.75.5 1.3.5.48 0 .88-.12 1.2-.36.34-.25.5-.54.5-.87 0-.25-.04-.5-.14-.77s-.23-.5-.4-.74c-.15-.23-.36-.4-.6-.56-.25-.14-.5-.22-.78-.22-.48 0-.85.16-1.13.5-.28.3-.42.73-.42 1.25zm5.87-1.06c0-.5.18-.9.54-1.26s.78-.5 1.3-.5c.5 0 .92.16 1.28.5s.54.78.54 1.27c0 .5-.18.9-.54 1.25-.36.35-.8.52-1.3.52s-.93-.17-1.28-.52c-.36-.34-.54-.76-.54-1.25zm.5 6.7c-.06-.1-.03-.22.07-.35l5.93-7.76c.1-.16.27-.23.48-.23h.2c.18 0 .3.04.34.14s.02.2-.1.34l-5.92 7.76a.57.57 0 01-.48.24h-.2c-.18 0-.3-.05-.33-.14zm.44-6.7c0 .25.1.45.25.6.16.17.37.25.63.25.24 0 .45-.08.63-.24.17-.17.26-.37.26-.6 0-.25-.1-.45-.26-.62a.911.911 0 00-.63-.26c-.25 0-.46.1-.63.25-.17.17-.26.38-.26.62zm3.42 5.22c0-.5.18-.93.53-1.28.34-.35.77-.53 1.27-.53s.94.17 1.3.52c.35.35.53.77.53 1.27 0 .47-.18.9-.54 1.23-.35.34-.78.52-1.3.52s-.92-.18-1.27-.52c-.36-.34-.54-.76-.54-1.24zm.94-.03c0 .24.08.45.25.6.17.18.38.26.62.26.25 0 .46-.08.63-.24.17-.18.26-.38.26-.63 0-.24-.1-.45-.26-.6s-.38-.27-.63-.27c-.24 0-.45.1-.62.26s-.25.37-.25.6z" class="st13"/></g></g><g class="st0"><path d="M4.76 258.86c-1.23 0-2.27-.42-3.1-1.24-.84-.83-1.26-1.86-1.26-3.1a5.494 5.494 0 01.35-1.96c.08-.22.18-.42.3-.62.08-.15.16-.28.24-.38l.1-.12.9.6c-.06.06-.14.17-.24.32-.1.13-.22.4-.37.82-.16.4-.24.83-.24 1.26 0 .97.3 1.74.94 2.32.62.58 1.4.87 2.34.87.97 0 1.76-.3 2.4-.9.6-.58.92-1.32.92-2.22 0-.43-.1-.84-.26-1.24-.18-.4-.36-.7-.53-.87l-.27-.3h-1.2v1.37H4.75V251H9v1.08h-.5l-.36-.02v.03l.1.1c.07.06.16.16.26.32.13.18.23.35.3.52.1.18.18.42.26.73.08.3.12.6.12.92 0 1.15-.42 2.13-1.25 2.94-.8.8-1.86 1.22-3.14 1.22zm2.59-9.36H.55v-1.17h6.6c.34 0 .57-.06.7-.17s.17-.28.17-.48v-.2h1c.03.1.04.23.04.38 0 1.08-.57 1.63-1.7 1.63zm-4.41-2.37v-1.3l3.97-1.54.74-.23v-.03c-.27-.06-.5-.13-.72-.2l-3.98-1.48v-1.26l7.16 2.84c.46.2.8.45 1.06.8.25.35.37.74.37 1.17 0 .22-.03.42-.1.6-.06.2-.13.35-.2.44l-.07.15-.9-.42c.18-.22.26-.46.26-.7 0-.5-.3-.85-.9-1.1l-.68-.3-6 2.54zm3.03-6.58c-.9 0-1.65-.3-2.26-.9-.6-.62-.9-1.4-.9-2.35 0-.44.07-.85.2-1.24.16-.38.3-.65.47-.8l.2-.23.83.55c-.05.04-.1.1-.2.2-.07.1-.18.3-.3.58s-.2.6-.2.9c0 .6.2 1.1.62 1.5s.92.6 1.54.6c.63 0 1.15-.2 1.56-.6.42-.4.63-.92.63-1.54 0-.33-.07-.65-.2-.97a3.3 3.3 0 00-.42-.7l-.2-.2.85-.47.1.1c.05.06.13.15.24.3.1.16.2.32.3.5.08.18.16.4.22.67.08.3.12.57.12.85 0 .95-.3 1.73-.9 2.34-.6.6-1.36.9-2.3.9z" class="st1"/></g><path d="M7.3 234.4c-1.4 0-2.1-1.22-2.1-3.66v-.27h-.1c-.88 0-1.32.45-1.32 1.33 0 .27.05.54.14.84.1.26.2.48.3.64l.14.2-.85.5c-.03-.05-.1-.14-.2-.28-.06-.1-.16-.37-.3-.78-.14-.4-.2-.8-.2-1.2 0-.8.2-1.38.6-1.8s1-.62 1.77-.62H9v1.07h-.57l-.48-.03v.03l.13.07c.06.03.16.1.3.2.13.1.25.23.35.36.1.14.2.32.3.56.08.24.13.5.13.77 0 .56-.17 1.04-.5 1.46-.32.4-.78.6-1.36.6zm-.05-1.2c.26 0 .5-.1.68-.3.2-.18.3-.46.3-.83 0-.45-.22-.84-.62-1.15-.4-.3-.83-.46-1.32-.46h-.2v.3c0 1.64.4 2.45 1.17 2.45z" class="st1"/><g class="st0"><path d="M3.96 228.22h-.94v-.84H1.27v-1.12h1.75v-1.47h.94v1.46h2.7c.23 0 .43-.03.6-.1.2-.07.32-.15.4-.23a1.12 1.12 0 00.34-.66c.02-.1.02-.2.02-.3l-.02-.3h1.03c.02.1.03.25.03.42 0 .2-.02.37-.04.54-.02.17-.08.37-.18.6-.1.23-.22.43-.38.6-.16.15-.38.3-.66.4-.28.12-.62.18-1 .18H3.95v.8zm2.01-4.42c-.95 0-1.72-.28-2.3-.85-.6-.57-.88-1.3-.88-2.17 0-.82.26-1.47.8-1.93.53-.47 1.2-.7 2.04-.7l.5.04v4.42c.64-.04 1.14-.25 1.48-.64.35-.4.53-.9.53-1.45 0-.3-.06-.6-.18-.92-.1-.27-.23-.5-.36-.66l-.16-.2.85-.5c.07.1.15.18.23.3.1.15.24.42.4.8.15.4.23.83.23 1.26 0 .94-.3 1.7-.9 2.3-.62.6-1.38.9-2.3.9zm-.7-1.22v-3.25c-.5.02-.9.17-1.15.44-.26.28-.4.62-.4 1.03 0 .46.14.85.4 1.18.27.32.65.52 1.14.6zm.7-5.46c-.95 0-1.72-.26-2.3-.77s-.88-1.17-.88-1.98c0-.25.03-.5.1-.73.06-.22.14-.4.23-.53.07-.1.16-.2.3-.35.07-.08.15-.15.23-.2l.1-.05v-.03c-.1.02-.25.03-.42.03H.54v-1.16H9v1.1h-.97s.02.02.05.04.05.03.07.04c.05.03.14.1.27.2.12.1.23.22.34.37.1.13.2.32.27.56.08.25.13.5.13.78 0 .82-.3 1.47-.88 1.95-.6.48-1.35.72-2.3.72zm0-1.18c.66 0 1.18-.16 1.58-.48.4-.32.6-.73.6-1.24 0-.5-.2-.92-.55-1.25s-.92-.5-1.64-.5c-.58 0-1.1.14-1.52.44-.43.3-.64.74-.64 1.28 0 .5.2.92.58 1.25.4.34.92.5 1.6.5zM9 206.2H.55V205h3.72v-4.4H.54v-1.17H9v1.18H5.3v4.4H9v1.2zm-3.03-8.42c-.95 0-1.72-.28-2.3-.85-.6-.57-.88-1.3-.88-2.17 0-.82.26-1.46.8-1.93.53-.46 1.2-.7 2.04-.7l.5.05v4.42c.64-.03 1.14-.24 1.48-.64.35-.4.53-.9.53-1.45 0-.3-.06-.6-.18-.9-.1-.28-.23-.5-.36-.67l-.16-.22.85-.47c.07.08.15.18.23.3.1.14.24.4.4.8.15.4.23.83.23 1.25 0 .94-.3 1.7-.9 2.3-.62.6-1.38.9-2.3.9zm-.7-1.22v-3.24c-.5.02-.9.16-1.15.44-.26.27-.4.6-.4 1.03 0 .44.14.83.4 1.16.27.32.65.52 1.14.6zM9 190.7H2.95v-1.12h.8l.45.02v-.02c-.4-.15-.72-.42-1-.8-.27-.4-.4-.83-.4-1.3 0-1 .45-1.6 1.37-1.8v-.04c-.38-.17-.7-.46-.97-.85-.27-.4-.4-.85-.4-1.32 0-1.33.77-2 2.32-2h3.9v1.16H5.36c-.48 0-.86.08-1.12.23s-.4.43-.4.85c0 .4.15.77.44 1.08.28.3.65.5 1.1.63.23.05.5.08.84.08H9v1.17H5.38c-.48 0-.85.07-1.12.2s-.4.44-.4.86.15.8.45 1.1c.3.3.7.52 1.15.64.2.05.47.07.8.07H9v1.17zm-3.04-10.5c-.9 0-1.67-.33-2.27-.96-.6-.63-.9-1.4-.9-2.32s.3-1.7.9-2.33c.6-.64 1.35-.96 2.26-.96.9 0 1.67.32 2.28.96.6.63.92 1.4.92 2.32s-.3 1.68-.92 2.32c-.6.63-1.37.95-2.28.95zm0-1.2c.63 0 1.15-.2 1.56-.6.42-.42.63-.9.63-1.48 0-.6-.2-1.08-.62-1.5-.4-.4-.93-.6-1.57-.6-.62 0-1.14.2-1.54.6-.42.42-.62.9-.62 1.5 0 .57.2 1.06.62 1.47.4.4.92.6 1.54.6zm-.13-6.34c-.9 0-1.63-.24-2.2-.7-.55-.5-.84-1.14-.84-1.96 0-.27.02-.52.08-.75.06-.23.13-.42.23-.55.1-.16.2-.27.28-.35.1-.1.17-.17.23-.2l.1-.05v-.02h-.76V167h5.82c.47 0 .9.1 1.27.26.37.17.66.4.87.7.2.3.36.6.47.97.1.36.16.73.16 1.12 0 .73-.17 1.42-.5 2.08l-.92-.38c.28-.5.42-1.07.42-1.67 0-.57-.14-1.03-.42-1.4-.27-.34-.7-.52-1.28-.52H8v.02c.62.37.94.97.94 1.8 0 .8-.3 1.47-.9 1.97-.57.5-1.3.74-2.2.74zm-.03-1.2c.64 0 1.16-.14 1.54-.46.4-.32.6-.75.6-1.3 0-.45-.17-.84-.5-1.14-.33-.3-.87-.45-1.6-.45-1.36 0-2.04.58-2.04 1.73 0 .5.18.9.53 1.2.36.3.85.44 1.47.44zm1.55-6.24H.55v-1.16h6.6c.34 0 .57-.05.7-.17s.17-.28.17-.5v-.2h1c.03.12.04.25.04.4 0 1.08-.57 1.62-1.7 1.62zm-1.39-2.8c-.9 0-1.67-.32-2.27-.95-.6-.64-.9-1.4-.9-2.33s.3-1.7.9-2.32c.6-.63 1.35-.95 2.26-.95.9 0 1.67.32 2.28.95.6.64.92 1.4.92 2.32s-.3 1.7-.92 2.32c-.6.64-1.37.96-2.28.96zm0-1.2c.63 0 1.15-.2 1.56-.6.42-.4.63-.9.63-1.48s-.2-1.07-.62-1.48c-.4-.4-.93-.6-1.57-.6-.62 0-1.14.2-1.54.6-.42.4-.62.9-.62 1.48s.2 1.07.62 1.48c.4.4.92.6 1.54.6zM9 154.5H.55v-1.17h2.78l.5.02v-.02c0-.02-.04-.04-.1-.07-.06-.05-.15-.1-.25-.2-.12-.12-.22-.25-.3-.38-.1-.13-.18-.32-.26-.55-.07-.24-.1-.5-.1-.75 0-.8.3-1.45.87-1.94.6-.5 1.36-.73 2.32-.73.93 0 1.7.27 2.28.8.58.5.88 1.17.88 1.98 0 .24-.04.48-.12.72-.07.22-.15.4-.25.54-.12.14-.22.27-.3.36-.1.1-.2.17-.27.22l-.1.07H9v1.1zm-3-1.14c.6 0 1.1-.15 1.53-.45s.64-.7.64-1.25c0-.5-.2-.92-.6-1.25s-.9-.5-1.57-.5c-.66 0-1.18.15-1.58.47s-.6.73-.6 1.24c0 .5.18.92.55 1.26.37.34.9.5 1.64.5zm-4.27-6.06H.53v-1.17h1.2v1.17zm7.28 0H2.95v-1.17H9v1.16zm-.01-3H2.95v-1.1H4.2c-.36-.17-.68-.44-.97-.83s-.44-.87-.44-1.46c0-1.38.77-2.08 2.32-2.08h3.9v1.16H5.38c-.5 0-.88.08-1.14.24s-.4.47-.4.9c0 .47.14.87.4 1.22s.65.58 1.1.7c.2.08.48.1.8.1h2.85v1.17zm-4.07-10.27c-1.68 0-3.26-.46-4.74-1.4v-1.02c1.5.92 3.1 1.37 4.74 1.37 1.83 0 3.57-.45 5.2-1.36v1.03c-1.54.94-3.28 1.4-5.2 1.4zM9 131.2l-8.46-3.06v-1.24L9 123.85v1.24l-2.43.84v3.2l2.44.83v1.23zm-3.4-2.38v-2.57l-2.7.94-1.2.3v.04c.53.13.93.24 1.2.33l2.7.95zm-3.1-5.67L.54 121.1v-1.05h7.44v-1.84H9v4.88H8v-1.87H2v.02c.12.07.28.2.5.4l.77.8-.75.73zm3.47-5.75c-.9 0-1.65-.3-2.26-.9-.6-.6-.9-1.4-.9-2.34 0-.44.07-.85.2-1.24.16-.38.3-.65.47-.8l.2-.24.83.56c-.05.04-.1.1-.2.2-.07.1-.18.3-.3.58s-.2.6-.2.9c0 .6.2 1.1.62 1.5s.92.6 1.54.6c.63 0 1.15-.2 1.56-.6.42-.4.63-.92.63-1.54 0-.33-.07-.65-.2-.97-.14-.3-.28-.52-.42-.68l-.2-.2.85-.48.1.1c.05.05.13.15.24.3.1.16.2.32.3.5.08.18.16.4.22.67.08.3.12.58.12.86 0 .95-.3 1.73-.9 2.34-.6.6-1.36.9-2.3.9zm4.18-6.4c-1.65-.9-3.38-1.37-5.2-1.37-1.66 0-3.24.46-4.76 1.36v-1.03c1.48-.93 3.06-1.4 4.73-1.4 1.93 0 3.67.47 5.22 1.4V111zm-5.22-7.25c-1.68 0-3.26-.47-4.74-1.4v-1.02c1.5.9 3.1 1.35 4.74 1.35 1.83 0 3.57-.45 5.2-1.35v1.02c-1.54.93-3.28 1.4-5.2 1.4zm-2.75-3.32c-.5 0-.9-.18-1.26-.53-.35-.35-.52-.78-.52-1.3 0-.5.17-.92.52-1.28.35-.35.77-.53 1.26-.53s.9.17 1.25.52c.34.36.52.8.52 1.3s-.17.93-.52 1.28c-.34.35-.76.53-1.25.53zm6.83-.18L.55 93.77v-1.13L9 99.12v1.13zM2.2 99.5c.25 0 .46-.08.63-.25.18-.17.27-.38.27-.64 0-.24-.1-.45-.26-.6-.16-.2-.37-.27-.62-.27s-.46.08-.64.26c-.18.15-.27.36-.27.6s.1.47.27.65c.18.17.4.25.64.25zm5.2-3.42c-.5 0-.92-.18-1.26-.53-.35-.36-.52-.8-.52-1.3s.17-.9.52-1.27.77-.54 1.25-.54.9.18 1.26.54c.35.36.53.8.53 1.28 0 .52-.18.95-.52 1.3-.35.35-.77.52-1.27.52zm0-.93c.26 0 .47-.08.64-.25s.26-.38.26-.64c0-.25-.1-.46-.26-.63-.18-.17-.4-.26-.64-.26s-.45.1-.64.26c-.17.17-.26.38-.26.63s.1.46.26.63c.18.16.4.25.64.25zm2.75-3.61c-1.65-.9-3.38-1.36-5.2-1.36-1.66 0-3.24.45-4.76 1.36v-1.02c1.48-.94 3.06-1.4 4.73-1.4 1.93 0 3.67.46 5.22 1.4v1.02z" class="st1"/></g><g class="st0"><path d="M383.54 382l.68-8.47h1.25l1.94 4.58.44 1.15h.02c.16-.48.3-.86.42-1.14l1.94-4.57h1.25l.7 8.47h-1.2l-.4-5.34-.02-1.25h-.03c-.18.57-.33 1-.45 1.26l-1.7 3.82h-1.05l-1.68-3.82-.46-1.27h-.02v.37c0 .35 0 .65-.03.9l-.4 5.33h-1.2zm9.96-3.05c0-.9.32-1.67.96-2.26.63-.62 1.4-.92 2.32-.92s1.7.3 2.33.9c.64.6.95 1.36.95 2.27 0 .9-.3 1.67-.95 2.28-.64.6-1.4.92-2.32.92s-1.68-.3-2.32-.92c-.63-.6-.95-1.37-.95-2.28zm1.2 0c0 .63.2 1.15.6 1.56.4.43.9.64 1.48.64s1.08-.2 1.48-.62c.4-.4.6-.93.6-1.57 0-.62-.2-1.14-.6-1.54-.4-.4-.9-.6-1.48-.6-.57 0-1.07.2-1.48.6-.4.4-.6.93-.6 1.55zm6.74 3.05v-6.07h1.12v.8l-.02.45h.02c.16-.35.43-.66.82-.96s.87-.44 1.46-.44c1.4 0 2.1.78 2.1 2.33v3.9h-1.17v-3.62c0-.5-.08-.87-.24-1.13s-.47-.4-.92-.4c-.44 0-.84.14-1.2.42s-.58.63-.7 1.07c-.07.22-.1.5-.1.82V382h-1.16zm6.68-5.05V376h.83v-1.74h1.13V376h1.46v.95h-1.46v2.7c0 .23.03.43.1.6.07.2.15.32.23.4.1.1.2.18.33.24.1.04.22.07.34.1.1 0 .2.02.3.02l.28-.03V382c-.1.02-.23.03-.4.03-.2 0-.38 0-.56-.04-.17 0-.38-.07-.6-.17-.24-.1-.43-.22-.6-.37-.15-.17-.3-.4-.4-.67-.13-.3-.18-.63-.18-1.02v-2.83h-.8zm4.84 5.05v-8.47h1.16v3.1l-.02.5h.02c.16-.34.43-.65.83-.93.4-.28.87-.42 1.42-.42 1.4 0 2.08.78 2.08 2.33v3.9h-1.16v-3.62c0-.5-.1-.87-.25-1.13s-.46-.4-.9-.4c-.46 0-.86.14-1.2.42s-.6.64-.73 1.08c-.07.22-.1.5-.1.8V382h-1.16zm6.74-.74l.56-.83c.03.04.1.1.22.2.08.07.28.17.6.3.3.14.6.2.92.2.27 0 .5-.06.7-.2.2-.13.3-.3.3-.55 0-.2-.1-.38-.3-.53-.22-.14-.48-.28-.8-.4-.3-.12-.6-.24-.9-.4-.3-.13-.57-.33-.8-.6-.2-.25-.3-.57-.3-.94 0-.52.2-.94.6-1.25.43-.3.95-.47 1.58-.47.4 0 .75.06 1.08.17.32.1.55.22.68.34l.2.16-.47.87c-.03-.03-.1-.08-.18-.15-.08-.06-.25-.14-.5-.24-.27-.1-.55-.15-.83-.15-.28 0-.52.05-.7.18-.2.12-.3.3-.3.56 0 .2.1.37.32.5.2.15.46.28.78.4.33.13.64.26.9.38.3.14.57.34.8.6.2.28.3.6.3.96 0 .5-.2.93-.6 1.27-.4.33-.93.5-1.58.5-.43 0-.85-.08-1.24-.23-.38-.14-.65-.3-.8-.45l-.26-.2zm8.53-.22l.67-.9.1.1c.08.06.17.13.3.22.15.1.3.2.46.28.15.08.35.15.6.22.22.06.46.1.7.1.4 0 .76-.12 1.04-.34.28-.22.42-.53.42-.92 0-.25-.08-.47-.23-.66-.16-.2-.36-.36-.6-.5-.27-.14-.54-.28-.8-.4-.3-.1-.58-.25-.87-.4-.3-.14-.56-.3-.8-.47-.23-.18-.42-.4-.57-.68-.16-.3-.23-.6-.23-.95 0-.67.26-1.23.77-1.68.5-.46 1.16-.68 1.95-.68.48 0 .9.06 1.3.2s.67.3.84.43l.24.2-.54 1c-.03-.06-.12-.12-.24-.22-.1-.06-.3-.17-.64-.3-.33-.15-.65-.22-.97-.22-.44 0-.8.12-1.1.36-.3.24-.44.53-.44.88 0 .33.15.6.43.82.3.23.63.42 1.03.57.36.16.76.33 1.2.55.4.2.75.47 1.02.82.28.36.42.8.42 1.3 0 .67-.24 1.24-.73 1.7-.48.45-1.13.68-1.94.68-.33 0-.65-.04-.98-.12-.3-.07-.57-.16-.8-.27-.18-.1-.37-.2-.55-.33-.17-.12-.3-.2-.35-.28l-.12-.1zm6.97-6.32v-1.2h1.16v1.2h-1.17zm0 7.28v-6.07h1.16V382h-1.16zm2.98 0v-6.07h1.12v.8l-.02.45h.02c.16-.35.43-.66.82-.96s.87-.44 1.46-.44c1.4 0 2.1.78 2.1 2.33v3.9h-1.17v-3.62c0-.5-.07-.87-.23-1.13s-.47-.4-.9-.4c-.47 0-.87.14-1.22.42s-.58.63-.7 1.07c-.08.22-.1.5-.1.82V382h-1.17zm6.8-3.04c0-.9.3-1.65.9-2.26.62-.6 1.4-.92 2.34-.92.44 0 .86.08 1.24.23.38.15.65.3.8.46l.24.2-.55.83c-.05-.06-.12-.12-.2-.2-.1-.08-.3-.2-.58-.32s-.6-.2-.9-.2c-.6 0-1.1.22-1.5.63s-.6.93-.6 1.55c0 .63.2 1.15.6 1.56.4.43.9.64 1.53.64.34 0 .66-.07.98-.2.3-.14.53-.28.68-.42l.22-.2.47.85-.1.1c-.06.05-.16.13-.3.24-.16.13-.32.22-.5.3-.18.1-.4.17-.67.24-.3.07-.58.1-.86.1-.94 0-1.72-.3-2.33-.9-.62-.6-.92-1.35-.92-2.28zm6.57 0c0-.95.28-1.72.85-2.3.57-.58 1.3-.88 2.17-.88.82 0 1.47.27 1.93.8.47.54.7 1.22.7 2.05l-.04.5h-4.43c.04.65.25 1.14.64 1.48.4.36.9.54 1.45.54.3 0 .6-.06.92-.18.28-.1.5-.23.67-.35l.22-.17.48.85c-.08.08-.17.16-.3.24-.14.1-.4.24-.8.4-.4.15-.82.23-1.25.23-.94 0-1.7-.3-2.3-.9-.6-.62-.9-1.38-.9-2.3zm1.22-.7h3.25c-.02-.5-.17-.9-.44-1.15-.28-.25-.62-.38-1.03-.38-.46 0-.85.13-1.18.4-.32.27-.52.64-.6 1.14z" class="st1"/></g><path d="M460.42 381.04l.67-.9c.03.04.06.07.1.1.07.06.17.13.3.22.14.1.3.2.45.28.15.08.35.15.6.22.23.06.46.1.7.1.4 0 .76-.12 1.04-.34.27-.22.4-.53.4-.92 0-.25-.07-.47-.22-.66-.15-.2-.35-.36-.58-.5-.28-.14-.55-.28-.8-.4-.3-.1-.6-.25-.88-.4-.3-.14-.56-.3-.8-.47a2.05 2.05 0 01-.8-1.63c0-.67.26-1.23.77-1.68.5-.46 1.15-.68 1.94-.68.48 0 .9.06 1.3.2s.67.3.84.43l.25.2-.53 1c-.04-.06-.12-.12-.25-.22-.1-.06-.3-.17-.64-.3-.32-.15-.64-.22-.96-.22-.44 0-.8.12-1.1.36s-.44.53-.44.88c0 .33.14.6.42.82.3.23.63.42 1.03.57.36.16.76.33 1.2.55.4.2.75.47 1.03.82.27.36.4.8.4 1.3 0 .67-.23 1.24-.7 1.7-.5.45-1.15.68-1.96.68-.33 0-.65-.04-.97-.12-.3-.07-.58-.16-.8-.27-.2-.1-.38-.2-.55-.33-.18-.12-.3-.2-.36-.28l-.12-.1z" class="st1"/><g class="st0"><path d="M466.7 376.95V376h.83v-1.74h1.12V376h1.47v.95h-1.47v2.7c0 .23.04.43.1.6.07.2.15.32.24.4.08.1.2.18.3.24.1.04.22.07.34.1.1 0 .2.02.3.02l.3-.03V382c-.1.02-.24.03-.42.03-.2 0-.38 0-.55-.04-.17 0-.37-.07-.6-.17-.23-.1-.42-.22-.6-.37-.15-.17-.3-.4-.4-.67-.12-.3-.18-.63-.18-1.02v-2.83h-.8zm4.75 2.85v-3.87h1.16v3.6c0 .5.1.88.24 1.14.16.25.46.38.9.38.6 0 1.08-.22 1.44-.67.36-.44.54-.98.54-1.62v-2.83h1.16V382h-1.12v-.8l.02-.46h-.02c-.15.36-.43.68-.83.97-.4.3-.87.45-1.4.45-1.4 0-2.08-.78-2.08-2.34zm6.85-.84c0-.95.27-1.72.78-2.3s1.17-.88 1.97-.88c.26 0 .5.04.74.1.2.07.4.15.52.24.1.07.22.17.35.3.1.07.16.15.2.23l.06.1h.03c-.02-.1-.03-.25-.03-.42v-2.8h1.16V382H483v-.97h-.02l-.03.04c-.03.04-.03.05-.04.07-.02.05-.1.14-.2.27-.08.13-.2.24-.37.35-.13.1-.32.2-.57.27-.24.1-.5.13-.78.13-.8 0-1.46-.3-1.94-.88-.5-.58-.73-1.35-.73-2.3zm1.2 0c0 .66.15 1.18.47 1.58.32.4.73.6 1.24.6.5 0 .93-.18 1.26-.55s.5-.92.5-1.65c0-.58-.14-1.08-.44-1.5-.3-.44-.73-.66-1.27-.66-.5 0-.92.18-1.25.57-.34.4-.5.92-.5 1.6zm5.52-3.03h1.3l1.53 3.97.23.73h.03c.07-.26.14-.5.2-.72l1.5-3.97h1.25l-2.84 7.16c-.18.45-.44.8-.8 1.05-.34.25-.73.37-1.16.37-.2 0-.4-.03-.6-.1-.2-.06-.34-.13-.43-.2l-.14-.07.4-.9c.23.18.46.26.72.26.48 0 .84-.3 1.1-.88l.3-.7-2.56-6zm10.33 6.07v-8.47h4.92v1.03h-3.73v2.65h3.04v1.04h-3.04v2.73h3.94V382h-5.13zm6.65 0v-6.07h1.1v1.25c.17-.35.44-.66.83-.96s.87-.44 1.46-.44c1.38 0 2.08.78 2.08 2.33v3.9h-1.16v-3.62c0-.5-.08-.87-.24-1.13s-.47-.4-.92-.4c-.45 0-.85.14-1.2.42s-.58.63-.7 1.07c-.08.22-.1.5-.1.82V382h-1.17z" class="st1"/></g><path d="M508.55 382v-6.07h1.12v1.05l-.02.46h.02c.15-.46.4-.84.73-1.14s.74-.45 1.2-.45l.3.03v1.15c-.1-.02-.22-.03-.34-.03-.37 0-.72.13-1.03.38-.32.26-.54.6-.67 1.05-.1.32-.15.68-.15 1.1V382h-1.15z" class="st1"/><g class="st0"><path d="M512.33 378.95c0-.9.3-1.67.95-2.26.63-.62 1.4-.92 2.32-.92.92 0 1.7.3 2.33.9.63.6.94 1.36.94 2.27 0 .9-.3 1.67-.95 2.28-.63.6-1.4.92-2.32.92-.9 0-1.68-.3-2.32-.92-.63-.6-.95-1.37-.95-2.28zm1.18 0c0 .63.22 1.15.62 1.56.4.43.9.64 1.48.64s1.08-.2 1.5-.62c.4-.4.6-.93.6-1.57 0-.62-.2-1.14-.6-1.54a2.1 2.1 0 00-1.5-.6c-.57 0-1.07.2-1.48.6-.4.4-.6.93-.6 1.55zm6.67 1.39v-6.8h1.16v6.6c0 .35.06.57.17.7s.28.18.5.18l.2-.02v1.02c-.12.02-.24.03-.4.03-1.08 0-1.62-.57-1.62-1.7zm3.18 0v-6.8h1.16v6.6c0 .35.05.57.17.7s.26.18.47.18l.2-.02v1.02c-.1.02-.24.03-.38.03-1.1 0-1.64-.57-1.64-1.7zm3.24 1.66v-6.07h1.13v.8l-.02.45h.03c.16-.38.43-.7.82-.98.4-.28.82-.42 1.28-.42 1 0 1.6.46 1.82 1.4h.02c.18-.4.46-.73.86-1 .4-.26.83-.4 1.3-.4 1.34 0 2 .78 2 2.33v3.9h-1.16v-3.64c0-.48-.07-.86-.22-1.12s-.44-.4-.86-.4-.78.15-1.1.44c-.3.3-.5.67-.6 1.1-.07.25-.1.52-.1.85V382h-1.16v-3.64c0-.48-.07-.85-.2-1.12s-.43-.4-.86-.4-.78.15-1.1.45c-.3.3-.52.68-.64 1.14-.05.2-.07.47-.07.8V382h-1.16zm10.55-3.04c0-.95.28-1.72.85-2.3.57-.58 1.3-.88 2.17-.88.82 0 1.47.27 1.93.8.47.54.7 1.22.7 2.05l-.04.5h-4.43c.03.65.25 1.14.64 1.48.4.36.9.54 1.45.54.3 0 .6-.06.92-.18.28-.1.5-.23.66-.35l.22-.17.48.85c-.08.08-.17.16-.3.24-.14.1-.4.24-.8.4-.4.15-.82.23-1.25.23-.94 0-1.7-.3-2.3-.9-.6-.62-.9-1.38-.9-2.3zm1.22-.7h3.24c0-.5-.15-.9-.43-1.15-.27-.25-.6-.38-1.02-.38-.46 0-.85.13-1.18.4-.32.27-.52.64-.6 1.14zm5.86 3.74v-6.07h1.12v.8l-.02.45h.02c.16-.35.43-.66.82-.96s.87-.44 1.46-.44c1.4 0 2.1.78 2.1 2.33v3.9h-1.17v-3.62c0-.5-.08-.87-.24-1.13s-.47-.4-.92-.4c-.45 0-.85.14-1.2.42s-.58.63-.7 1.07c-.08.22-.1.5-.1.82V382h-1.17zm6.67-5.05V376h.85v-1.74h1.12V376h1.46v.95h-1.46v2.7c0 .23.03.43.1.6.07.2.15.32.23.4.1.1.2.18.33.24.1.04.2.07.33.1.1 0 .2.02.3.02l.3-.03V382c-.1.02-.25.03-.42.03-.2 0-.38 0-.55-.04-.18 0-.38-.07-.62-.17-.22-.1-.42-.22-.58-.37-.16-.17-.3-.4-.42-.67-.1-.3-.17-.63-.17-1.02v-2.83h-.8z" class="st1"/></g></g><g id="_x33_-month-marker"><g id="Fill-56"><g filter="url(#filter-14)"><path id="path-13_2_" d="M335.98 277.5v-29.72c0-1.66-1.72-3-3.85-3h-35.47l-8.2-8.06c-.4-.37-1.1-.38-1.5 0l-8.66 8.06h-32.44c-2.12 0-3.85 1.34-3.85 3v29.7c0 1.67 1.74 3 3.86 3h86.27c2.13 0 3.85-1.33 3.85-3"/></g><path id="path-13_1_" d="M335.98 277.5v-29.72c0-1.66-1.72-3-3.85-3h-35.47l-8.2-8.06c-.4-.37-1.1-.38-1.5 0l-8.66 8.06h-32.44c-2.12 0-3.85 1.34-3.85 3v29.7c0 1.67 1.74 3 3.86 3h86.27c2.13 0 3.85-1.33 3.85-3" class="st1"/></g><g class="st0"><path d="M275.92 253.17v-.24c0-.27.14-.4.4-.4h4.87c.26 0 .4.12.4.37v.2c0 .17-.05.33-.12.47l-3.58 7.14c-.08.2-.23.3-.45.3h-.4c-.14 0-.25-.04-.3-.13s-.05-.2.02-.34l3.07-6.2c.07-.14.15-.28.23-.4s.13-.24.17-.3l.07-.08v-.03c-.1.03-.3.04-.6.04h-3.38c-.26 0-.4-.13-.4-.4zm6.54 7.45v-.43c0-.26.13-.4.4-.4h.43c.26 0 .4.14.4.4v.42c0 .25-.14.38-.4.38h-.45c-.26 0-.4-.13-.4-.38zm2.58-2c0-.25.04-.5.12-.74a2.424 2.424 0 01.65-1.07c.16-.15.28-.26.35-.3.06-.06.14-.12.23-.2-.68-.44-1.03-1-1.03-1.7 0-.28.06-.56.17-.82s.27-.5.48-.7c.2-.22.5-.38.84-.5.34-.13.73-.2 1.17-.2.8 0 1.45.2 1.95.62.5.4.74.95.74 1.62 0 .75-.34 1.5-1 2.22.78.48 1.18 1.1 1.18 1.85 0 .3-.07.62-.2.9-.15.3-.34.57-.58.8-.25.22-.56.4-.92.54s-.77.2-1.2.2c-.84 0-1.55-.23-2.1-.7s-.84-1.1-.84-1.82zm1.18-.1c0 .46.17.85.52 1.15.35.3.76.45 1.24.45.46 0 .85-.14 1.2-.42s.5-.6.5-1a.95.95 0 00-.06-.35 1.2 1.2 0 00-.13-.28c-.07-.1-.15-.17-.25-.25s-.2-.15-.3-.2c-.1-.07-.2-.13-.36-.2s-.3-.14-.42-.2-.27-.1-.46-.2c-.2-.07-.35-.14-.48-.2-.1.07-.17.12-.2.16s-.13.1-.26.23c-.12.13-.22.25-.28.36s-.13.24-.2.42c-.05.17-.08.35-.08.53zm.3-3.9c0 .1.03.23.07.33s.07.2.12.3.13.15.24.24c.1.07.2.14.28.2.1.05.2.12.35.2s.26.12.36.16.25.1.42.18c.18.07.3.13.4.17.5-.52.76-1.08.76-1.65 0-.4-.14-.74-.42-.98-.3-.23-.66-.35-1.1-.35-.48 0-.84.1-1.1.34-.26.23-.4.5-.4.86zm5.52-.45c0-.5.18-.9.53-1.26.36-.34.8-.5 1.3-.5s.92.16 1.28.5c.36.36.54.78.54 1.27 0 .5-.2.9-.55 1.25-.36.35-.8.52-1.3.52s-.92-.17-1.28-.52c-.35-.34-.53-.76-.53-1.25zm.48 6.7c-.05-.1-.02-.22.08-.35l5.93-7.76c.1-.16.27-.23.48-.23h.23c.17 0 .27.04.32.14s.02.2-.08.34l-5.93 7.76a.61.61 0 01-.48.24h-.22c-.17 0-.27-.05-.32-.14zm.46-6.7c0 .25.08.45.25.6.17.17.38.25.63.25s.46-.08.63-.24c.17-.17.25-.37.25-.6 0-.25-.08-.45-.26-.62a.917.917 0 00-1.27-.01c-.17.17-.25.38-.25.62zm3.42 5.22c0-.5.17-.93.53-1.28.35-.35.78-.53 1.28-.53s.94.17 1.3.52c.35.35.53.77.53 1.27 0 .47-.18.9-.53 1.23-.36.34-.8.52-1.3.52s-.92-.18-1.27-.52c-.36-.34-.53-.76-.53-1.24zm.93-.03c0 .24.1.45.25.6.17.18.38.26.63.26.26 0 .47-.08.64-.24.17-.18.25-.38.25-.63 0-.24-.1-.45-.26-.6s-.38-.27-.63-.27c-.24 0-.45.1-.62.26s-.25.37-.25.6z" class="st13"/></g><path d="M268.66 271.9l.16-.2c.13-.18.28-.2.46-.08.47.38.95.56 1.45.56.4 0 .75-.12 1.03-.36s.4-.55.4-.93c0-.42-.14-.74-.46-.97-.32-.22-.7-.34-1.17-.34h-.22c-.16 0-.28-.1-.36-.25l-.03-.06a.41.41 0 01.1-.44l1.35-1.6c.07-.1.14-.17.22-.24.07-.08.13-.14.16-.17l.06-.06v-.03c-.15.02-.35.03-.6.03h-2.06c-.1 0-.2-.03-.25-.1-.07-.04-.1-.12-.1-.23v-.2c0-.22.12-.33.34-.33h3.56c.22 0 .32.1.32.3v.1c0 .16-.04.3-.14.4l-1.78 2.04c.2.02.4.06.58.12.2.06.38.15.56.26s.34.25.48.4c.13.15.24.34.33.56.08.23.13.47.13.74 0 .3-.06.6-.18.86s-.27.52-.48.72c-.2.2-.46.37-.76.5-.3.12-.64.18-1 .18-.7 0-1.4-.25-2.04-.75-.16-.13-.18-.28-.06-.46zm5.72-1.65v-.2a.31.31 0 01.33-.32h2.27c.22 0 .33.1.33.33v.2c0 .22-.1.33-.33.33h-2.26c-.2 0-.32-.1-.32-.33z" class="st0"/><path d="M277.77 272.66l.52-6.4c0-.22.12-.32.33-.32h.45c.2 0 .32.1.37.26l1.53 3.56c.05.12.1.25.16.4.06.17.1.3.14.4l.05.15h.02c.12-.36.23-.68.34-.94l1.52-3.56c.06-.17.18-.26.37-.26h.44c.2 0 .32.1.34.3l.52 6.42v.03c0 .2-.1.3-.3.3h-.34c-.2 0-.32-.1-.34-.32l-.32-4.13c0-.13-.02-.28-.02-.45v-.59c-.16.44-.3.8-.4 1.05l-1.3 2.92c-.06.17-.2.26-.38.26h-.33c-.18 0-.3-.1-.38-.26l-1.3-2.92-.4-1.06v.32c0 .28 0 .52-.03.73l-.32 4.13c-.02.2-.13.32-.33.32h-.33c-.22 0-.33-.1-.33-.3v-.04zm8.1-2.2c0-.5.12-.95.37-1.35.24-.4.57-.72.98-.94.42-.23.87-.34 1.37-.34.37 0 .72.07 1.05.2s.62.3.87.55c.24.23.43.5.58.84s.2.7.2 1.06c0 .5-.1.96-.35 1.37-.25.4-.57.72-1 .95s-.86.34-1.36.34c-.5 0-.96-.1-1.38-.34s-.74-.55-.98-.95c-.25-.4-.37-.87-.37-1.37zm.98 0c0 .52.17.96.5 1.3.35.35.76.52 1.24.52s.9-.17 1.23-.52.5-.77.5-1.3c0-.52-.17-.95-.5-1.3s-.75-.5-1.24-.5c-.5 0-.9.17-1.24.5s-.5.78-.5 1.3zm5.53 2.21v-4.4c0-.22.12-.33.34-.33h.28c.22 0 .34.1.34.33v.45l-.03.3h.03c.05-.13.13-.26.23-.38.1-.13.22-.26.38-.4s.34-.22.57-.3c.24-.08.48-.12.74-.12.6 0 1.02.16 1.3.48.28.32.42.8.42 1.46v2.9c0 .23-.1.34-.32.34h-.3c-.23 0-.34-.1-.34-.33v-2.7c0-.18 0-.35-.03-.5s-.07-.26-.14-.4c-.06-.1-.16-.2-.3-.27-.12-.06-.28-.1-.48-.1-.48 0-.9.2-1.2.55s-.48.8-.48 1.33v2.1c0 .2-.12.32-.34.32h-.3c-.23 0-.35-.1-.35-.33zm5.42-4.22v-.13c0-.22.12-.33.34-.33h.37v-1.12c0-.22.12-.33.33-.33h.3c.2 0 .32.1.32.33v1.1h.88c.22 0 .34.12.34.34v.13c0 .22-.1.33-.33.33h-.9v2.26c0 .18.03.34.08.48s.1.25.16.33c.07.08.15.14.24.2.1.04.18.08.25.1.08 0 .16.02.25.03.13 0 .22.04.27.1s.06.12.06.23v.22c0 .2-.13.32-.4.32-.53 0-.98-.16-1.33-.48-.36-.3-.54-.78-.54-1.38v-2.4h-.37c-.2 0-.32-.1-.32-.33zm3.87 4.22v-6.4c0-.22.1-.33.33-.33h.3c.23 0 .33.1.33.33v2.5c0 .07 0 .13-.02.16v.05h.02c.06-.13.15-.26.25-.4.1-.12.24-.24.4-.36.15-.12.34-.22.56-.3.2-.06.44-.1.68-.1.6 0 1.04.16 1.32.48.3.32.43.8.43 1.46v2.9c0 .23-.1.34-.33.34h-.3c-.23 0-.33-.1-.33-.33v-2.7c0-.18-.03-.35-.05-.5s-.08-.26-.14-.4-.15-.2-.3-.27c-.12-.06-.28-.1-.48-.1-.48 0-.88.2-1.2.55-.33.35-.5.8-.5 1.35v2.07c0 .22-.1.33-.3.33H302c-.22 0-.33-.1-.33-.33zm5.65-.54l.1-.14c.06-.1.13-.14.2-.16.08 0 .16.02.26.08.4.27.83.4 1.24.4.26 0 .46-.05.62-.17.16-.12.24-.28.24-.5 0-.13-.05-.24-.15-.34-.1-.1-.22-.18-.37-.25s-.32-.14-.5-.2-.38-.15-.57-.23-.36-.18-.52-.3c-.15-.1-.28-.25-.38-.43s-.14-.4-.14-.63c0-.46.18-.8.53-1.07.34-.25.78-.38 1.3-.38.53 0 1 .13 1.4.4.1.03.15.1.17.18.02.08 0 .16-.05.25l-.1.15c-.05.1-.13.16-.24.16-.06 0-.12-.02-.2-.05-.33-.2-.67-.3-1.03-.3-.25 0-.45.07-.6.17-.17.1-.25.27-.25.48 0 .14.05.26.15.36s.22.2.37.27.32.14.5.2c.2.06.38.14.56.22s.36.18.52.28c.15.1.28.26.37.44s.15.38.15.6c0 .45-.17.8-.5 1.08-.34.28-.78.42-1.33.42-.66 0-1.23-.18-1.72-.54-.1-.07-.14-.14-.14-.23 0-.07.02-.14.08-.22z"/></g><g id="_x31_-year-marker"><g id="Fill-61"><g filter="url(#filter-16)"><path id="path-15_2_" d="M865.88 270.67v-29.72c0-1.65-1.72-3-3.85-3h-35.47l-8.13-7.97c-.42-.42-1.23-.42-1.67-.02l-8.56 8h-32.44c-2.13 0-3.85 1.34-3.85 3v29.7c0 1.66 1.73 3 3.86 3h86.27c2.13 0 3.85-1.34 3.85-3"/></g><path id="path-15_1_" d="M865.88 270.67v-29.72c0-1.65-1.72-3-3.85-3h-35.47l-8.13-7.97c-.42-.42-1.23-.42-1.67-.02l-8.56 8h-32.44c-2.13 0-3.85 1.34-3.85 3v29.7c0 1.66 1.73 3 3.86 3h86.27c2.13 0 3.85-1.34 3.85-3" class="st1"/></g><path d="M804.6 264.6v-.24c0-.26.12-.4.38-.4h1.48V258c-.1.13-.2.28-.4.46l-.53.52c-.2.2-.38.18-.55 0l-.17-.18c-.18-.18-.18-.37 0-.56l1.55-1.5c.14-.13.3-.2.48-.2h.4c.25 0 .38.14.38.4v7.05h1.47c.27 0 .4.13.4.4v.23c0 .27-.13.4-.4.4H805c-.28 0-.4-.13-.4-.4zm5.84-2.9v-.24c0-.12.03-.22.1-.3s.17-.1.3-.1h2.7c.27 0 .4.14.4.4v.24c0 .26-.13.4-.4.4h-2.7c-.27 0-.4-.14-.4-.4zm4.39 5.4c-.03-.1-.02-.2.04-.3l.1-.2c.05-.14.15-.22.3-.22.04 0 .08 0 .13.03.22.1.38.14.48.14.24 0 .44-.1.62-.26s.32-.4.43-.66l.3-.7-2.35-5.53c-.06-.15-.06-.26 0-.34s.15-.13.3-.13h.46c.24 0 .38.1.45.3l1.4 3.67.23.73h.02c.07-.27.14-.5.2-.72l1.4-3.65c.06-.2.2-.32.43-.32h.43c.16 0 .26.04.32.13s.06.2 0 .33l-2.67 6.67c-.17.46-.44.82-.8 1.07s-.73.38-1.17.38c-.24 0-.52-.06-.84-.2-.1-.04-.18-.1-.2-.2zm6.32-5.14c0-.95.3-1.72.86-2.3.58-.58 1.3-.88 2.18-.88.82 0 1.46.27 1.92.8.46.53.7 1.23.7 2.1 0 .1-.05.2-.13.28s-.17.12-.3.12h-4.04c.04.64.25 1.14.65 1.5s.9.56 1.45.56c.54 0 1.03-.16 1.46-.48.07-.04.15-.07.22-.07.13 0 .23.06.3.2l.1.17c.07.1.1.2.07.3s-.1.17-.2.23c-.6.43-1.3.65-2.04.65-.62 0-1.18-.14-1.67-.42s-.88-.66-1.15-1.15-.4-1.02-.4-1.62zm1.23-.65h3.25c0-.5-.16-.9-.43-1.18-.28-.28-.63-.42-1.04-.42-.46 0-.85.14-1.17.43s-.54.68-.62 1.18zm5.2 2.03c0-.26.05-.5.14-.7s.2-.4.36-.54.32-.26.53-.37.44-.2.65-.25.44-.1.7-.14.46-.06.66-.07.4 0 .6 0h.32v-.17c0-.9-.44-1.33-1.33-1.33-.48 0-.93.13-1.4.38-.06.04-.14.06-.2.06-.13 0-.24-.06-.33-.2l-.1-.16a.646.646 0 01-.06-.25c0-.13.07-.23.2-.3.6-.34 1.26-.52 1.98-.52.75 0 1.34.2 1.76.62s.63 1 .63 1.76v3.44c0 .27-.13.4-.4.4h-.3c-.25 0-.38-.13-.38-.4v-.56c0-.07 0-.1.02-.13v-.03h-.02c-.02.03-.04.08-.07.14s-.1.17-.22.3-.23.3-.37.4-.32.22-.55.3-.5.15-.75.15c-.57 0-1.05-.17-1.45-.5s-.6-.76-.6-1.3zm1.18-.1c0 .28.1.5.3.7.2.2.48.3.83.3.3 0 .6-.1.86-.3.26-.2.45-.45.58-.75.13-.3.2-.6.2-.9V262h-.32c-1.64 0-2.46.4-2.46 1.23zm5.51 1.36v-5.28c0-.26.14-.4.4-.4h.34c.28 0 .4.14.4.4v.7l-.02.46h.02c.15-.44.4-.82.72-1.13s.7-.47 1.14-.47c.26 0 .4.13.4.4v.33c0 .27-.16.4-.45.4-.27 0-.53.08-.76.22s-.42.34-.56.58-.25.5-.32.8-.1.58-.1.9v2.1c0 .27-.14.4-.4.4h-.4c-.25 0-.4-.13-.4-.4z" fill="#00181b"/><g class="st0"><path d="M807.97 247.17v-.24c0-.27.13-.4.4-.4h4.87c.26 0 .4.12.4.37v.2c0 .17-.04.33-.1.47l-3.6 7.14c-.08.2-.23.3-.45.3h-.4c-.15 0-.25-.04-.3-.13s-.05-.2 0-.34l3.08-6.2c.08-.14.15-.28.23-.4s.15-.24.2-.3l.05-.08v-.03c-.1.03-.3.04-.6.04h-3.38c-.27 0-.4-.13-.4-.4zm6.53 7.45v-.43c0-.26.14-.4.4-.4h.44c.26 0 .4.14.4.4v.42c0 .25-.14.38-.4.38h-.44c-.26 0-.4-.13-.4-.38zm2.48-5.37c0-.83.26-1.52.77-2.06.5-.54 1.16-.8 1.95-.8.45 0 .86.08 1.25.27s.73.46 1 .8c.3.34.5.76.67 1.25.16.5.24 1.04.24 1.62 0 .46-.05.9-.14 1.36s-.24.87-.45 1.3c-.2.4-.45.78-.74 1.1-.3.3-.65.57-1.08.76s-.9.3-1.4.3c-.48 0-.9-.1-1.27-.23-.24-.07-.32-.23-.22-.5l.1-.3c.04-.13.1-.2.2-.24s.16-.04.28 0c.37.1.66.15.86.15.3 0 .6-.05.86-.16.26-.12.5-.27.68-.45s.36-.4.5-.65.27-.52.35-.8c.08-.26.14-.55.18-.84h-.03c-.18.25-.45.45-.8.6-.37.15-.75.23-1.17.23-.75 0-1.38-.27-1.87-.8s-.72-1.16-.72-1.95zm1.18-.02c0 .52.16.95.47 1.28.3.34.75.5 1.3.5.48 0 .88-.12 1.2-.36.34-.25.5-.54.5-.87 0-.25-.04-.5-.14-.77s-.24-.5-.4-.74c-.16-.23-.37-.4-.62-.56-.24-.14-.5-.22-.77-.22-.46 0-.84.16-1.12.5-.28.3-.42.73-.42 1.25zm5.84-1.06c0-.5.18-.9.53-1.26.36-.34.8-.5 1.3-.5s.92.16 1.28.5c.37.36.55.78.55 1.27 0 .5-.18.9-.54 1.25-.35.35-.78.52-1.28.52s-.93-.17-1.3-.52c-.34-.34-.52-.76-.52-1.25zm.48 6.7c-.05-.1-.02-.22.08-.35l5.93-7.76c.1-.16.27-.23.47-.23h.22c.16 0 .27.04.3.14s.03.2-.07.34l-5.93 7.76a.61.61 0 01-.48.24h-.22c-.16 0-.27-.05-.32-.14zm.46-6.7c0 .25.08.45.25.6.16.17.37.25.62.25s.46-.08.63-.24a.79.79 0 00.26-.6c0-.25-.07-.45-.25-.62-.17-.17-.38-.26-.63-.26s-.46.1-.63.25c-.18.17-.26.38-.26.62zm3.42 5.22c0-.5.18-.93.53-1.28.34-.35.77-.53 1.27-.53s.93.17 1.3.52c.35.35.52.77.52 1.27 0 .47-.18.9-.54 1.23-.36.34-.8.52-1.3.52s-.92-.18-1.27-.52c-.36-.34-.54-.76-.54-1.24zm.93-.03c0 .24.08.45.25.6.17.18.37.26.62.26s.46-.08.63-.24c.17-.18.26-.38.26-.63 0-.24-.1-.45-.26-.6s-.38-.27-.63-.27-.45.1-.62.26-.26.37-.26.6z" class="st13"/></g></g></g></g></g></g></svg>