<svg xmlns="http://www.w3.org/2000/svg" width="38" height="47"><g fill="none"><path stroke="#2D2C6F" stroke-width="1.8" d="M18.78 40.63C8.96 40.63 1 32.88 1 23.33c0-6.74 3.97-12.6 9.76-15.44m8.02-1.72c9.83 0 17.8 7.74 17.8 17.3 0 6.74-3.98 12.58-9.77 15.43" stroke-linecap="round" stroke-linejoin="round"/><path stroke="#2D2C6F" stroke-width="1.8" d="M8.46 23.1c0-5.54 4.5-10.04 10.04-10.04 5.54 0 10.04 4.5 10.04 10.05 0 5.56-4.5 10.06-10.04 10.06-5.55 0-10.04-4.5-10.04-10.05z" stroke-linejoin="round"/><path fill="url(#a)" fill-rule="evenodd" d="M2.35 12.63v-1.55c-.9-.02-1.8-.3-2.35-.68l.37-1.03c.55.37 1.35.66 2.2.66 1.1 0 1.83-.63 1.83-1.5 0-.85-.6-1.37-1.73-1.84C1.1 6.07.14 5.36.14 4.02c0-1.27.9-2.25 2.3-2.48V0h.97v1.5c.93.02 1.55.27 2 .53L5 3.05c-.3-.2-.94-.53-1.92-.53-1.18 0-1.62.7-1.62 1.33 0 .8.56 1.2 1.9 1.75 1.58.65 2.38 1.45 2.38 2.82 0 1.2-.85 2.35-2.43 2.6v1.6h-.95z" clip-rule="evenodd" transform="translate(15.915 17.08)"/><path stroke="#2D2C6F" stroke-width="1.8" d="M23.37 10.2l-4.6-4.6 4.6-4.6m-9.75 35.03l4.6 4.6-4.6 4.6m14.92-31.6c5.35 5.4 5.35 14.14 0 19.53m-19.51 0c-5.35-5.4-5.35-14.13 0-19.53" stroke-linecap="round" stroke-linejoin="round"/></g><defs><linearGradient id="a" x2="1" gradientUnits="userSpaceOnUse" gradientTransform="scale(8.113 17.867) rotate(-45 .854 .354)"><stop stop-color="#2D2C6F"/><stop offset="1" stop-color="#46C4E0"/></linearGradient></defs></svg>