<svg xmlns="http://www.w3.org/2000/svg" width="52" height="43"><g stroke-width="1.8" stroke-linejoin="round" fill="none"><path d="M46.6 42.08V26.54m-5.47 15.54V31.74M35.6 42.08v-5.6m-17.08 5.6v-5.6m-5.75 5.6v-2.8" stroke="#000"/><path stroke="#2D2C6F" d="M13.62 22.1v1.87m0 2.57v1.86m15.35-15.2v1.85m0 2.57v1.87m0 2.57v1.86"/><path stroke="#2D2C6F" d="M18.52 9.44c0 2.73-2.2 4.93-4.9 4.93s-4.9-2.2-4.9-4.93c0-2.72 2.2-4.93 4.9-4.93s4.9 2.22 4.9 4.94z" stroke-linecap="round"/><path stroke="#2D2C6F" d="M1.3 42.08V26.66c0-4.5 3.6-8.12 8.07-8.12h8.5c4.46 0 8.08 3.63 8.08 8.12v4.65"/><path stroke="#2D2C6F" d="M32.12 4.4c0 1.72-1.4 3.12-3.15 3.12-1.74 0-3.15-1.4-3.15-3.12 0-1.72 1.4-3.1 3.15-3.1 1.74 0 3.15 1.38 3.15 3.1z" stroke-linecap="round"/><path stroke="#2D2C6F" d="M21.05 15.84c0-2.84 2.33-5.13 5.2-5.13h5.45c2.87 0 5.2 2.3 5.2 5.14v6.88"/><path stroke="url(#a)" d="M45.4 0L21.7 23.85v.07l-8.13-8.17L0 26.78" transform="translate(5.287 14.449)"/><path stroke="url(#b)" d="M0 0h10.75v10.8" transform="translate(39.954 14.449)"/></g><defs><linearGradient id="a" x2="1" gradientUnits="userSpaceOnUse" gradientTransform="matrix(45.41393 -26.77601 45.41393 26.77601 -.012 26.793)"><stop stop-color="#2D2C6F"/><stop offset="1" stop-color="#46C4E0"/></linearGradient><linearGradient id="b" x2="1" gradientUnits="userSpaceOnUse" gradientTransform="scale(15.2 15.275) rotate(-45 .854 .354)"><stop stop-color="#2D2C6F"/><stop offset="1" stop-color="#46C4E0"/></linearGradient></defs></svg>