<svg xmlns="http://www.w3.org/2000/svg" width="43" height="57" xmlns:xlink="http://www.w3.org/1999/xlink"><use fill="#00BFD6" xlink:href="#a" transform="translate(8.6 21.85)"/><use xlink:href="#b" transform="translate(1.36 1.06)"/><use xlink:href="#c" transform="translate(29.65 3.9)"/><defs><path id="a" d="M25.3 8.93h.9c0-.5-.4-.9-.9-.9v.9zm-9.13 0h-.9c0 .5.4.9.9.9v-.9zm0-8.93h.9c0-.5-.4-.9-.9-.9V0zM9.14 0v-.9c-.5 0-.9.4-.9.9h.9zm0 8.93v.9c.5 0 .9-.4.9-.9h-.9zM0 8.93v-.9c-.5 0-.9.4-.9.9H0zm0 6.88h-.9c0 .5.4.9.9.9v-.9zm9.14 0h.9c0-.5-.4-.9-.9-.9v.9zm0 8.94h-.9c0 .5.4.9.9.9v-.9zm7.03 0v.9c.5 0 .9-.4.9-.9h-.9zm0-8.93v-.9c-.5 0-.9.4-.9.9h.9zm9.13 0v.9c.5 0 .9-.4.9-.9h-.9zm0-7.77h-9.13v1.8h9.13v-1.8zm-8.23.9V0h-1.8v8.93h1.8zm-.9-9.83H9.14V.9h7.03V-.9zM8.24 0v8.93h1.8V0h-1.8zm.9 8.03H0v1.8h9.14v-1.8zm-10.04.9v6.88H.9V8.94H-.9zM0 16.7h9.14v-1.8H0v1.8zm8.24-.9v8.94h1.8V15.8h-1.8zm.9 9.84h7.03v-1.8H9.14v1.8zm7.93-.9V15.8h-1.8v8.94h1.8zm-.9-8.03h9.13v-1.8h-9.13v1.8zm10.03-.9V8.94h-1.8v6.88h1.8z"/><path id="b" d="M28.25 14.3c.34.38.9.4 1.27.06s.4-.9.05-1.27l-1.32 1.2zM19.9 0h.9c0-.5-.4-.9-.9-.9V0zm0 0v-.9c-.5 0-.9.4-.9.9h.9zm17.36 22.92a.897.897 0 00-1.23-.32.9.9 0 00-.33 1.23l1.56-.9zm-7.7-9.83c-2.34-2.55-4.54-4.83-6.18-7.03-1.64-2.2-2.6-4.18-2.6-6.07H19c0 2.48 1.25 4.84 2.96 7.14 1.7 2.3 4 4.68 6.3 7.17l1.33-1.2zM19.9-.9V.9-.9zM19 0c0 2.02-1.1 4.13-2.93 6.5-1.83 2.38-4.26 4.83-6.8 7.6C4.3 19.6-.9 26.2-.9 34.8H.9c0-7.85 4.74-14 9.7-19.46 2.46-2.7 5-5.27 6.9-7.72 1.9-2.44 3.3-4.96 3.3-7.6H19zM-.9 34.78c0 11.26 9.33 20.35 20.8 20.35v-1.8C9.37 53.33.9 45 .9 34.78H-.9zm20.8 20.35v-1.8 1.8zm0 0v-1.8 1.8zm0 0c11.46 0 20.8-9.1 20.8-20.35h-1.8c0 10.23-8.5 18.55-19 18.55v1.8zm20.8-20.35c0-4.45-1.4-8.36-3.44-11.86l-1.56.9c1.92 3.3 3.2 6.9 3.2 10.96h1.8z"/><path id="c" d="M6.1 0H7c0-.5-.4-.9-.9-.9V0zm0 0v-.9c-.5 0-.9.4-.9.9h.9zm0 21.8V20v1.8zm0 0c3.86 0 7.02-3.05 7.02-6.87h-1.8c0 2.78-2.3 5.07-5.2 5.07v1.8zm7.02-6.87c0-1.43-.43-2.94-1.02-4.4-.6-1.47-1.38-2.95-2.15-4.33-.77-1.4-1.52-2.66-2.08-3.77C7.3 1.27 7 .47 7 0H5.2c0 .96.5 2.1 1.06 3.23.6 1.17 1.37 2.5 2.12 3.85.76 1.37 1.5 2.76 2.05 4.12.56 1.37.9 2.63.9 3.73h1.8zM6.12-.9V.9-.9zm-.9.9c0 .47-.3 1.27-.87 2.43-.56 1.1-1.3 2.38-2.08 3.77C1.5 7.58.72 9.06.12 10.53-.48 12-.9 13.5-.9 14.93H.9c0-1.1.33-2.36.9-3.73.54-1.36 1.28-2.75 2.04-4.12.75-1.34 1.54-2.68 2.12-3.85C6.53 2.1 7 .96 7 0H5.2zM-.9 14.93c0 3.82 3.16 6.87 7 6.87V20C3.2 20 .9 17.7.9 14.93H-.9z"/></defs></svg>