<svg xmlns="http://www.w3.org/2000/svg" width="52" height="43" xmlns:xlink="http://www.w3.org/1999/xlink"><use xlink:href="#a" transform="translate(46.61 26.54)"/><use xlink:href="#b" transform="translate(41.13 31.74)"/><use xlink:href="#c" transform="translate(35.6 36.48)"/><use xlink:href="#c" transform="translate(18.52 36.48)"/><use xlink:href="#d" transform="translate(12.77 39.28)"/><use xlink:href="#e" transform="translate(13.62 22.1)"/><use xlink:href="#f" transform="translate(13.62 26.54)"/><use xlink:href="#f" transform="translate(28.97 13.19)"/><use xlink:href="#f" transform="translate(28.97 17.62)"/><use xlink:href="#g" transform="translate(28.97 22.06)"/><use xlink:href="#h" transform="translate(8.72 4.51)"/><use xlink:href="#i" transform="translate(1.29 18.54)"/><use xlink:href="#j" transform="translate(25.82 1.29)"/><use xlink:href="#k" transform="translate(21.05 10.71)"/><use fill="#00BFD6" xlink:href="#l" transform="translate(5.29 14.45)"/><use fill="#00BFD6" xlink:href="#m" transform="translate(39.95 14.45)"/><defs><path id="a" d="M.9 15.54V0H-.9v15.54H.9z"/><path id="b" d="M.9 10.34V0H-.9v10.34H.9z"/><path id="c" d="M.9 5.6V0H-.9v5.6H.9z"/><path id="d" d="M.9 2.8V0H-.9v2.8H.9z"/><path id="e" d="M-.9 0v1.86H.9V0H-.9z"/><path id="f" d="M-.9 0v1.86H.9V0H-.9z"/><path id="g" d="M-.9 0v1.86H.9V0H-.9z"/><path id="h" d="M8.9 4.93c0 2.23-1.8 4.03-4 4.03v1.8c3.22 0 5.8-2.6 5.8-5.83H8.9zm-4 4.03c-2.2 0-4-1.8-4-4.03H-.9c0 3.22 2.6 5.83 5.8 5.83v-1.8zm-4-4.03C.9 2.7 2.7.9 4.9.9V-.9C1.7-.9-.9 1.7-.9 4.93H.9zM4.9.9c2.2 0 4 1.8 4 4.03h1.8C10.7 1.7 8.13-.9 4.9-.9V.9z"/><path id="i" d="M.9 23.54V8.12H-.9v15.42H.9zm0-15.42C.9 4.12 4.12.9 8.08.9V-.9C3.12-.9-.9 3.14-.9 8.12H.9zM8.08.9h8.5V-.9h-8.5V.9zm8.5 0c3.96 0 7.18 3.23 7.18 7.22h1.8c0-4.98-4.02-9.02-8.98-9.02V.9zm7.18 7.22v4.65h1.8V8.12h-1.8z"/><path id="j" d="M5.4 3.1c0 1.23-1 2.23-2.25 2.23v1.8c2.23 0 4.05-1.8 4.05-4.02H5.4zM3.15 5.34C1.9 5.33.9 4.33.9 3.1H-.9c0 2.24 1.82 4.03 4.05 4.03v-1.8zM.9 3.1C.9 1.9 1.9.9 3.15.9V-.9C.92-.9-.9.9-.9 3.1H.9zM3.15.9C4.4.9 5.4 1.9 5.4 3.1h1.8c0-2.2-1.82-4-4.05-4V.9z"/><path id="k" d="M.9 5.13C.9 2.8 2.8.9 5.2.9V-.9C1.83-.9-.9 1.8-.9 5.13H.9zM5.2.9h5.45V-.9H5.2V.9zm5.45 0c2.38 0 4.3 1.9 4.3 4.23h1.8C16.74 1.8 14-.9 10.64-.9V.9zm4.3 4.23V12h1.8V5.14h-1.8z"/><path id="l" d="M21.68 23.85l-.64-.63c-.16.17-.26.4-.26.63h.9zm0 .07l-.64.64c.26.26.65.33 1 .2a.93.93 0 00.54-.84h-.9zm-8.13-8.17l.64-.63a.919.919 0 00-1.22-.07l.57.7zM44.78-.63L21.04 23.22l1.28 1.27L46.05.62 44.78-.63zm-24 24.48v.07h1.8v-.07h-1.8zm1.54-.56L14.2 15.1l-1.3 1.27 8.14 8.16 1.28-1.27zm-9.34-8.25L-.57 26.08l1.14 1.4 13.55-11.03-1.14-1.4z"/><path id="m" d="M10.75 0h.9c0-.5-.4-.9-.9-.9V0zM0 .9h10.75V-.9H0V.9zM9.85 0v10.8h1.8V0h-1.8z"/></defs></svg>