<svg width="170" height="171" xmlns="http://www.w3.org/2000/svg" xmlns:xlink="http://www.w3.org/1999/xlink"><defs><path d="M28.356.422c42.615 0 77.164 34.806 77.164 77.74 0 42.935-34.55 77.74-77.164 77.74-9.968 0-19.495-1.904-28.241-5.371l28.24-57.581L25.762.466a77.985 77.985 0 012.595-.044z" id="a"/></defs><g fill="none" fill-rule="evenodd"><path d="M168.748 86.932c0 45.235-37.553 83.068-82.452 83.068C38.553 170 1 132.167 1 86.932 1 38.833 38.553 1 86.296 1c44.9 0 82.452 37.833 82.452 85.932h0z" stroke="#468AC5" stroke-dasharray="3.600000143051147,4.800000071525574" stroke-linecap="round" stroke-linejoin="round" stroke-width="1.65"/><use fill="#43A1FF" xlink:href="#a" transform="translate(56.518 7.338)"/></g></svg>