<svg xmlns="http://www.w3.org/2000/svg" width="131" height="131" xmlns:xlink="http://www.w3.org/1999/xlink"><defs><path id="b" d="M468 558.5a44.5 44.5 0 1189 0 44.5 44.5 0 01-89 0z"/><path id="c" d="M447 558.5a65.5 65.5 0 11131 0 65.5 65.5 0 01-131 0z"/><path id="d" d="M456 558.5a56.5 56.5 0 11113 0 56.5 56.5 0 01-113 0z"/><path id="e" d="M507.94 586l-14.87-14.75a3.64 3.64 0 01.02-5.18l.4-.4a3.74 3.74 0 015.23.03l6.75 6.68v-26.72a3.7 3.7 0 013.7-3.66h.3a3.7 3.7 0 013.7 3.66v13.75l14.2 2.32s4.62.92 4.62 6.92l-1.35 16.77"/><path id="f" d="M502 549a8.8 8.8 0 01-1-4.1 8.96 8.96 0 019-8.9c4.97 0 9 4 9 8.9 0 1.47-.35 2.85-1 4.06"/><path id="g" d="M497.4 550a12.8 12.8 0 01-1.4-5.86c0-7.26 6.04-13.14 13.5-13.14s13.5 5.88 13.5 13.14c0 2.1-.5 4.08-1.4 5.83"/><filter id="a" width="149" height="149" x="438" y="484" filterUnits="userSpaceOnUse"><feOffset in="SourceGraphic" result="FeOffset1055Out"/><feGaussianBlur in="FeOffset1055Out" result="FeGaussianBlur1056Out" stdDeviation="7.6 7.6"/></filter></defs><g transform="translate(-447 -493)"><g filter="url(#a)"><use fill="none" stroke="#fff" stroke-opacity=".9" stroke-width="2" mask="url(&quot;#xacve&quot;)" xlink:href="#b"/><use fill="#fff" fill-opacity=".9" xlink:href="#b"/></g><use fill="#fff" xlink:href="#b"/></g><use fill="none" stroke="#fff" stroke-miterlimit="50" stroke-dasharray="2 2" clip-path="url(&quot;#xacvf&quot;)" xlink:href="#c" opacity=".45" transform="translate(-447 -493)"/><use fill="none" stroke="#fff" stroke-miterlimit="50" stroke-dasharray="2 2" clip-path="url(&quot;#xacvg&quot;)" xlink:href="#d" opacity=".63" transform="translate(-447 -493)"/><use fill="none" stroke="#2d2b6e" stroke-width="2.5" stroke-miterlimit="50" stroke-linecap="round" stroke-linejoin="round" xlink:href="#e" transform="translate(-447 -493)"/><use fill="none" stroke="#00bed6" stroke-width="2.5" stroke-miterlimit="50" stroke-linecap="round" stroke-linejoin="round" xlink:href="#f" transform="translate(-447 -493)"/><use fill="none" stroke="#00bed6" stroke-width="2.5" stroke-miterlimit="50" stroke-linecap="round" stroke-linejoin="round" xlink:href="#g" transform="translate(-447 -493)"/></svg>