<svg xmlns="http://www.w3.org/2000/svg" width="73" height="77" xmlns:xlink="http://www.w3.org/1999/xlink"><use fill="#fff" xlink:href="#a" transform="translate(0 -5)"/><defs><path id="a" d="M32.57 5.3C14.6 5.3 0 19.86 0 37.85c0 17.98 14.6 32.57 32.57 32.57 17.98 0 32.57-14.6 32.57-32.57 0-17.98-14.6-32.57-32.57-32.57zm16.3 34.9L25.78 53.75c-.44.26-.9.38-1.37.38-.47 0-.93-.12-1.36-.34-.85-.5-1.36-1.4-1.36-2.37V24.3c0-1 .52-1.88 1.37-2.4.85-.46 1.9-.46 2.72.05l23.06 13.57c.85.47 1.35 1.36 1.35 2.34 0 .97-.5 1.86-1.34 2.33z"/></defs></svg>