<svg xmlns="http://www.w3.org/2000/svg" width="33" height="19"><path stroke="#363951" stroke-width="1.221" d="M29.38 9.28a2.4 2.4 0 01-1.85.3c-.64-.15-1.2-.55-1.54-1.12.44-1.13.8-2.33 1.02-3.6a2.5 2.5 0 011.64-.2c.65.16 1.2.57 1.55 1.15.73 1.2.36 2.76-.82 3.48zm-15.05 7.17C7.93 16.45 2.7 9.93 2.47 1.8H26.2c-.24 8.13-5.47 14.65-11.87 14.65zM31.2 5.23c-.5-.84-1.3-1.43-2.27-1.66-.58-.13-1.17-.1-1.73.04.1-.77.15-1.55.15-2.36 0-.3-.26-.56-.58-.56H1.87c-.3 0-.56.25-.56.56 0 6.92 3.46 12.84 8.32 15.2h-7.7c-.33 0-.6.27-.6.58 0 .3.27.56.6.56h24.8c.32 0 .58-.25.58-.56 0-.3-.26-.57-.58-.57h-7.68c2.7-1.32 4.96-3.73 6.44-6.8.48.5 1.1.86 1.78 1.03.28.06.56.1.84.1.66 0 1.32-.2 1.9-.54 1.7-1.05 2.24-3.3 1.2-5z" fill="none"/></svg>