<svg xmlns="http://www.w3.org/2000/svg" width="30" height="30" xmlns:xlink="http://www.w3.org/1999/xlink"><g transform="translate(-1783 -536)"><mask id="a"><use fill="#fff" xlink:href="#a" transform="translate(1795.34 536.011)"/></mask><use fill="#002855" xlink:href="#b" transform="translate(1795.34 536.011)" mask="url(#a)"/></g><g transform="translate(-1783 -536)"><mask id="b"><use fill="#fff" xlink:href="#d" transform="translate(1783.7 547.077)"/></mask><use fill="#002855" xlink:href="#e" transform="translate(1783.7 547.077)" mask="url(#b)"/></g><defs><path id="a" fill-rule="evenodd" d="M0 0h17.46v17.46H0V0z"/><path id="b" fill-rule="evenodd" d="M14.73 15.3l-.07.08c-.22.2-.5.32-.8.32-.3 0-.6-.1-.8-.32l-10.98-11a1.113 1.113 0 010-1.58l.08-.08c.2-.2.5-.33.8-.33.3 0 .58.1.8.32L14.72 13.7c.22.2.33.5.33.8 0 .3-.1.6-.33.8zM7.27 2.16l.1-.08a1.113 1.113 0 011.58 0l6.43 6.43c.2.22.32.5.32.8 0 .3-.1.6-.32.8l-.08.08c-.43.42-1.17.42-1.6 0L7.28 3.75c-.44-.44-.44-1.15 0-1.6zm6.5.5l1.04 1.02-.88.9-1.04-1.04.9-.9zm1.8 9.4c.35-.15.68-.36.97-.64l.07-.08c.56-.54.86-1.27.86-2.04s-.3-1.5-.85-2.03L15.17 5.8l1.5-1.5c.35-.34.35-.9 0-1.24L14.4.8a.863.863 0 00-.63-.27c-.23 0-.45.1-.62.26l-1.5 1.5L10.18.84C9.64.3 8.9 0 8.14 0c-.77 0-1.5.3-2.03.84l-.08.08c-.3.3-.5.62-.64.97L5 1.47C4.44.94 3.72.64 2.95.64s-1.5.3-2.04.84l-.08.08C.3 2.1 0 2.83 0 3.6s.3 1.5.84 2.03l10.98 11c.54.53 1.27.83 2.04.83s1.5-.3 2.03-.85l.07-.06c.55-.55.84-1.27.84-2.04s-.28-1.5-.83-2.04l-.4-.4z"/><path id="d" fill-rule="evenodd" d="M0 0h18.03v18.75H0V0z"/><path id="e" fill-rule="evenodd" d="M14.86 15.94l-.08.07c-.4.44-1.13.44-1.54 0L2.64 5a1.2 1.2 0 01-.33-.8c0-.3.13-.6.33-.8l.08-.1c.2-.2.48-.3.78-.3.3 0 .56.1.77.32l10.6 11.03c.43.44.43 1.16 0 1.6zm-5.02.64l-.08.08c-.4.42-1.13.42-1.54 0l-6.2-6.46c-.2-.2-.33-.5-.33-.8 0-.3.1-.6.3-.8l.1-.08c.2-.2.46-.33.76-.33s.56.1.77.32l6.2 6.46c.2.2.32.5.32.8 0 .3-.1.6-.3.8zm-6.28-.5l-1-1.03.86-.9 1 1.04-.86.9zM16.83 2.3l-5.58 5.8-1-1.03 5.58-5.8L14.63 0 9.05 5.8l-3.6-3.75C4.9 1.5 4.2 1.2 3.47 1.2c-.75 0-1.45.3-1.97.85l-.07.08C.9 2.67.63 3.4.63 4.18c0 .77.28 1.5.8 2.04l.4.4c-.35.16-.67.37-.94.65l-.1.08A3.08 3.08 0 000 9.4c0 .77.3 1.5.8 2.05l1.42 1.46-1.46 1.53c-.16.16-.25.4-.25.62 0 .23.1.46.26.62l2.2 2.3c.16.16.38.25.6.25.2 0 .43-.1.6-.26l1.46-1.52 1.4 1.46c.53.55 1.23.85 1.97.85s1.43-.3 1.96-.85l.08-.08c.27-.28.47-.6.6-.97l.4.4a2.72 2.72 0 003.95.02l.08-.08c1.08-1.13 1.08-2.96 0-4.1l-3.6-3.75 5.57-5.8-1.2-1.24z"/></defs></svg>