<svg xmlns="http://www.w3.org/2000/svg" width="76" height="81"><path fill="url(#a)" fill-rule="evenodd" d="M37.58 3.5c-1.4 1.32-3.94 4.17-3.94 7.32 0 3.14 2.53 5.98 3.94 7.32 1.4-1.33 3.93-4.18 3.93-7.32 0-2.96-2.33-5.82-3.92-7.33zm-6.94 7.32c0 4.8 3.92 8.7 5.44 10.02v13.8l-3.48-5.2c.14-1.86.26-7.63-3.23-11.12-4.1-4.1-11.38-3.2-11.68-3.17-.7.1-1.22.62-1.3 1.3-.05.3-.95 7.57 3.17 11.68 2.82 2.82 7.13 3.3 9.65 3.3.4 0 .78-.03 1.08-.04l5.78 8.64v5.6l-7.16-7.12c-.6-.6-1.54-.58-2.12 0-.6.6-.6 1.54 0 2.12l9.28 9.23v5.77l-1.66-1.55c-.02-.03-.05-.05-.07-.08L22.15 42.6c.12-2.05.12-7.53-3.25-10.9-4.12-4.12-11.4-3.22-11.7-3.18-.67.1-1.2.62-1.28 1.3-.04.3-.94 7.57 3.17 11.68 2.82 2.83 7.13 3.3 9.65 3.3.52 0 .96-.03 1.3-.05l9.5 8.9h-8.7c-1.34-1.52-5.24-5.43-10.03-5.44C5 48.23.5 54 .32 54.25c-.42.54-.42 1.28 0 1.82.18.25 4.68 6.02 10.5 6.02 4.8 0 8.7-3.9 10.02-5.43h11.93l3.3 3.1v4.45c-3.7.66-6.6 3.6-7.24 7.3h-18c-.84 0-1.5.67-1.5 1.5s.66 1.5 1.5 1.5H30.2c.83 0 1.5-.67 1.5-1.5 0-3.27 2.67-5.94 5.94-5.94 3.28 0 5.94 2.67 5.94 5.94 0 .83.67 1.5 1.5 1.5H64.3c.83 0 1.5-.67 1.5-1.5s-.67-1.5-1.5-1.5H46.46c-.64-3.75-3.62-6.7-7.38-7.32v-4.45l3.17-3.07h12.03c1.33 1.52 5.23 5.42 10.02 5.43 5.82 0 10.32-5.8 10.5-6.03.42-.54.42-1.3 0-1.83-.18-.24-4.68-6.02-10.5-6.02-4.8 0-8.7 3.92-10.02 5.44h-8.93l9.25-8.95c.33.04.97.1 1.8.1 2.52 0 6.83-.47 9.65-3.3 4.12-4.1 3.22-11.38 3.18-11.68-.1-.68-.62-1.2-1.3-1.3-.3-.04-7.56-.94-11.68 3.17-3.12 3.12-3.35 8.06-3.27 10.4l-13.9 13.46v-5.7l8.76-9.25c.57-.6.55-1.54-.06-2.1-.6-.58-1.55-.55-2.12.05l-6.58 6.94v-5.47l5.77-8.64c.3 0 .67.02 1.08.02 2.52 0 6.82-.47 9.65-3.3 4.1-4.1 3.2-11.37 3.17-11.68-.08-.67-.6-1.2-1.3-1.3-.3-.03-7.56-.93-11.68 3.18-3.5 3.5-3.36 9.26-3.22 11.1l-3.47 5.2V20.85c1.52-1.34 5.43-5.23 5.43-10.02C44.5 5 38.74.5 38.5.32c-.55-.42-1.3-.42-1.84 0-.24.18-6.02 4.68-6.02 10.5zM18.7 80.52h37.2c.83 0 1.5-.67 1.5-1.5s-.67-1.5-1.5-1.5H18.7c-.82 0-1.5.67-1.5 1.5s.68 1.5 1.5 1.5z" clip-rule="evenodd"/><defs><linearGradient id="a" x2="1" gradientUnits="userSpaceOnUse" gradientTransform="matrix(75.12 -80.524 75.12 80.524 0 80.524)"><stop stop-color="#2D2C6F"/><stop offset="1" stop-color="#46C4E0"/></linearGradient></defs></svg>