<svg xmlns="http://www.w3.org/2000/svg" width="39" height="35" xmlns:xlink="http://www.w3.org/1999/xlink"><g transform="translate(-6012 983)"><mask id="a"><use fill="#fff" xlink:href="#a" transform="translate(6012 -982.863)"/></mask><use fill="#002855" xlink:href="#b" transform="translate(6012 -982.863)" mask="url(#a)"/></g><use fill="#00BFD6" xlink:href="#d" transform="translate(1.99 2.524)"/><use fill="#002855" xlink:href="#e" transform="translate(10.97 10.096)"/><use fill="#002855" xlink:href="#f" transform="translate(17.95 7.067)"/><use fill="#fff" xlink:href="#g" transform="translate(26.43 9.591)"/><defs><path id="a" fill-rule="evenodd" d="M0 0h38.84v34.7H0V0z"/><path id="b" fill-rule="evenodd" d="M38.74 10.1a.969.969 0 00-1.3-.43l-3.08 1.56C32 6.5 26.82 3.2 20.83 3.2h-2.15c-.63 0-1.24.06-1.85.13C16.3 2.63 14.2 0 11.45 0c-.27 0-.52.1-.7.3a1 1 0 00-.28.7l.06 4.48C8.3 6.82 6.5 8.68 5.33 10.9c-.3.08-1.2.2-3.4-.57-.6-.2-1.2-.02-1.56.46-1 1.33.18 6.4 1.34 10.42.3 1.02 1.3 1.8 2.37 1.8h1.2c1.37 2.6 3.6 4.75 6.36 6.12v3.43c0 1.17.94 2.12 2.1 2.12h2.43c1.15 0 2.1-.96 2.1-2.13v-1.8c.13 0 .27.02.42.02h2.15c.15 0 .3-.02.44-.02v1.8c0 1.16.93 2.1 2.1 2.1h2.43c1.15 0 2.1-.94 2.1-2.1v-3.44c4.65-2.33 7.83-6.9 7.83-12.14 0-1.37-.22-2.7-.62-3.93l3.2-1.63c.48-.24.68-.84.44-1.33z"/><path id="d" fill-rule="evenodd" d="M26 24.52c-.6.36-1.26.68-1.95.94v4.7c0 .06-.06.13-.14.13h-2.43c-.07 0-.14-.08-.14-.15V26.2c-.63.12-1.28.18-1.95.2h-3.03c-.66-.02-1.32-.08-1.95-.2v3.95c0 .07-.06.14-.13.14h-2.44c-.08 0-.14-.08-.14-.15v-4.68c-.7-.27-1.35-.6-1.97-.95-1.67-.98-3.1-2.3-4.1-3.87l-.5-.96c0-.03-.02-.05-.03-.07-.1-.17-.2-.3-.28-.4-.35-.44-.7-.5-.84-.52H2.16c-.18 0-.44-.2-.5-.36C.8 15.27 0 11.6 0 10.16c.96.3 1.8.46 2.53.5.12 0 .25.02.36.02.48 0 .86-.07 1.15-.17.38-.07.72-.4 1-.75v-.02c.2-.36.4-.7.62-1.03 1.18-1.8 2.88-3.26 4.9-4.27L10.55 0c1.28.46 2.33 1.68 2.73 2.2.05.06.1.12.15.2.02 0 .03.03.03.03.3.4.54.77.6.84.88-.17 1.8-.27 2.74-.27h2.14C26.1 3 31.9 8.26 31.9 14.7c0 4.1-2.34 7.73-5.9 9.82z"/><path id="e" fill-rule="evenodd" d="M2.5 1.26c0 .7-.57 1.26-1.25 1.26C.55 2.52 0 1.96 0 1.26S.56 0 1.25 0C1.93 0 2.5.56 2.5 1.26z"/><path id="f" fill-rule="evenodd" d="M5.02 2.02H.96c-.53 0-.96-.45-.96-1C0 .44.43 0 .96 0h4.06c.53 0 .96.45.96 1 0 .57-.43 1.02-.96 1.02z"/><path id="g" fill-rule="evenodd" d="M4.63 8.08c-.43 0-.8-.33-.85-.77C3.33 3.24.58 1.7.45 1.64A.897.897 0 01.1.46C.32.04.83-.12 1.25.1c.15.08 3.67 2 4.23 7 .05.5-.3.92-.75.97h-.1z"/></defs></svg>