<svg xmlns="http://www.w3.org/2000/svg" width="281" height="235" xmlns:xlink="http://www.w3.org/1999/xlink"><defs><path id="a" d="M19.4 38.15C8.54 38.15 0 29.6 0 19.4 0 8.54 8.54 0 19.4 0c10.2 0 18.75 8.54 18.75 19.4 0 10.2-8.54 18.75-18.75 18.75z"/><path id="b" d="M19.68 38.7C8.66 38.7 0 30.04 0 19.68 0 8.66 8.66 0 19.68 0 30.04 0 38.7 8.66 38.7 19.68c0 10.36-8.66 19.02-19.02 19.02z"/><path id="c" d="M19.68 38.7C8.66 38.7 0 30.04 0 19.68 0 8.66 8.66 0 19.68 0 30.04 0 38.7 8.66 38.7 19.68c0 10.36-8.66 19.02-19.02 19.02z"/><mask id="e" width="38.152" height="38.152" x="0" y="0"><use xlink:href="#a"/></mask><mask id="f" width="38.7" height="38.7" x="0" y="0"><use xlink:href="#b"/></mask><mask id="g" width="38.7" height="38.7" x="0" y="0"><use xlink:href="#c"/></mask><filter id="d" width="106.3%" height="107.6%" x="-2.8%" y="-2.9%" filterUnits="objectBoundingBox"><feOffset dx="1" dy="2" in="SourceAlpha" result="shadowOffsetOuter1"/><feGaussianBlur stdDeviation="2.5" in="shadowOffsetOuter1" result="shadowBlurOuter1"/><feColorMatrix values="0 0 0 0 0 0 0 0 0 0 0 0 0 0 0 0 0 0 0.5 0" in="shadowBlurOuter1" result="shadowMatrixOuter1"/><feMerge><feMergeNode in="shadowMatrixOuter1"/><feMergeNode in="SourceGraphic"/></feMerge></filter></defs><g filter="url(#d)" transform="translate(4 3)" fill="none"><rect width="271" height="225" fill="#fff" rx="9"/><text fill="#3D4456" font-family="MuseoSans-300, MuseoSans" font-size="16.2" transform="translate(28 29)"><tspan x="7.392" y="142.902">Be</tspan><tspan x="26.487" y="142.902" letter-spacing="-.194">f</tspan><tspan x="31.474" y="142.902">o</tspan><tspan x="41.544" y="142.902" letter-spacing="-.259">r</tspan><tspan x="47.051" y="142.902">e</tspan></text><text fill="#3D4456" font-family="MuseoSans-300, MuseoSans" font-size="16.2" transform="translate(28 29)"><tspan x=".248" y="162.342">meal BG</tspan></text><path fill="#3D4456" d="M75.02 130c-2.1-.62-5.18 2.77-6.56 4.12-2.15 2.1-4 4.5-5.46 7.12s-2.58 5.43-3.24 8.35c-.6 2.66-1.16 5.83.2 8.35.3.56 1.24.4 1.25-.28.05-2.8-.05-5.33.68-8.1.73-2.7 1.85-5.3 3.3-7.7 1.4-2.32 3.1-4.45 5.05-6.32.93-.9 1.9-1.73 2.95-2.5.33-.23.67-.43.98-.63-.68 1.32-1.33 2.65-1.98 3.9-.72 1.4-1.36 3.23.34 4.18.45.26.92-.03 1-.52.3-1.98 1.54-3.83 2.45-5.58.97-1.86 2.13-3.72 2.82-5.7.27-.8-.48-1.4-1.2-1.32-3.77.36-7.43 1.22-10.7 3.2-.35.2-.18.88.28.74 2.86-.87 5.7-1.6 8.65-1.83-.16.24-.32.5-.47.76-.07-.12-.18-.2-.34-.26"/><text fill="#3D4456" font-family="MuseoSans-300, MuseoSans" font-size="16.2" letter-spacing="-.002" transform="translate(28 29)"><tspan x="162.093" y="142.902">After</tspan></text><text fill="#3D4456" font-family="MuseoSans-300, MuseoSans" font-size="16.2" transform="translate(28 29)"><tspan x="148.306" y="162.342">meal BG</tspan></text><text fill="#3D4456" font-family="MuseoSans-300, MuseoSans" font-size="16.2" letter-spacing="-.065" transform="translate(28 29)"><tspan x="69.348" y="14.031">Carb Entry</tspan></text><path fill="#3D4456" d="M191.2 130c2.1-.62 5.18 2.77 6.56 4.12 2.15 2.1 4 4.5 5.46 7.12s2.58 5.43 3.23 8.35c.6 2.66 1.17 5.83-.18 8.35-.3.56-1.26.4-1.26-.28-.03-2.8.07-5.33-.67-8.1-.72-2.7-1.84-5.3-3.3-7.7-1.4-2.32-3.1-4.45-5.04-6.32-.94-.9-1.93-1.73-2.96-2.5-.33-.23-.67-.43-.98-.63.68 1.32 1.33 2.65 1.98 3.9.72 1.4 1.36 3.23-.34 4.18-.45.26-.92-.03-1-.52-.3-1.98-1.54-3.83-2.45-5.58-.97-1.86-2.13-3.72-2.82-5.7-.28-.8.47-1.4 1.2-1.32 3.75.36 7.42 1.22 10.68 3.2.37.2.2.88-.26.74-2.86-.87-5.7-1.6-8.65-1.83.15.24.3.5.46.76.07-.12.18-.2.34-.26"/><use mask="url(#e)" xlink:href="#a" stroke="#868AAD" stroke-width="1.8" stroke-dasharray="1.35,1.8" transform="translate(113.05 64.55)"/><path d="M139.68 94.56V94v.56zm0-.56h-1v-6.76c0-.62-.52-1.13-1.15-1.13h-.1v-8.66c0-3.45 1.4-3.82 2-3.82h.15c.04.02.1.1.1.13V94zm.12-21.48c-.02 0-.16-.03-.36-.03-.74 0-3.16.35-3.16 4.94v8.67c0 .64.52 1.14 1.15 1.14h.1V94c0 .62.5 1.13 1.15 1.13h1c.63 0 1.15-.5 1.15-1.13V73.75c0-.58-.45-1.12-1.03-1.23zm-8.82 13.66h-1.3l.82 7.6c0 .07 0 .12-.04.16-.04.03-.1.06-.15.06h-2.4c-.06 0-.1-.03-.15-.06-.03-.04-.05-.1-.04-.14l.82-7.62h-1.3c-2.27 0-2.6-1.63-2.65-1.92l.03-1.73.3-8.32c0-.12.1-.23.24-.23h.16c.13 0 .23.1.23.23v8.87h3.15V74.2c0-.1.17-.23.42-.23.26 0 .43.12.43.23v8.87h3.15V74.2c0-.13.1-.23.23-.23h.17c.13 0 .25.1.25.24l.3 8.32.02 1.74c-.05.3-.38 1.92-2.66 1.92zm3.5-12c-.03-.74-.66-1.34-1.4-1.34h-.17c-.75 0-1.37.6-1.37 1.36v7.74h-.85V74.2c0-.76-.7-1.36-1.58-1.36-.88 0-1.57.6-1.57 1.36v7.74h-.85V74.2c0-.75-.62-1.36-1.38-1.36h-.16c-.75 0-1.38.6-1.4 1.33l-.3 8.33-.02 1.8v.05c.1 1.02 1.04 2.97 3.8 2.97h.03l-.7 6.36c-.02.38.1.75.35 1.02.26.27.62.43 1 .43h2.4c.4 0 .75-.16 1-.43.26-.27.38-.64.34-1.02l-.68-6.36h.02c2.77 0 3.7-1.95 3.8-2.97v-.04l-.02-1.8-.3-8.33z" fill="#8589AC"/><g transform="translate(91 104.15)"><use stroke="#868AAD" stroke-width="1.8" mask="url(#f)" stroke-dasharray="1.35,1.8" xlink:href="#b"/><path fill="#8589AC" d="M24.35 26.7c-.7 1.18-2.12 2.56-4.8 2.56-2.7 0-4.1-1.38-4.82-2.55-1.25-2.04-1.3-5.04-.12-7.3 1.82-3.45 3.93-7.4 4.94-9.28 1 1.9 3.12 5.83 4.94 9.3 1.17 2.23 1.12 5.24-.13 7.3m1.34-7.94c-2.5-4.73-5.53-10.37-5.56-10.42-.12-.22-.35-.36-.6-.36s-.48.14-.6.36c-.03.05-3.07 5.7-5.55 10.42-1.4 2.7-1.35 6.16.16 8.64 1.26 2.06 3.38 3.2 5.98 3.2 2.6 0 4.72-1.14 5.98-3.2 1.5-2.48 1.58-5.95.17-8.64"/></g><g transform="translate(136.45 104.15)"><use stroke="#868AAD" stroke-width="1.8" mask="url(#g)" stroke-dasharray="1.35,1.8" xlink:href="#c"/><path fill="#8589AC" d="M24.35 26.7c-.7 1.18-2.12 2.56-4.8 2.56-2.7 0-4.1-1.38-4.82-2.55-1.25-2.04-1.3-5.04-.12-7.3 1.82-3.45 3.93-7.4 4.94-9.28 1 1.9 3.12 5.83 4.94 9.3 1.17 2.23 1.12 5.24-.13 7.3m1.34-7.94c-2.5-4.73-5.53-10.37-5.56-10.42-.12-.22-.35-.36-.6-.36s-.48.14-.6.36c-.03.05-3.07 5.7-5.55 10.42-1.4 2.7-1.35 6.16.16 8.64 1.26 2.06 3.38 3.2 5.98 3.2 2.6 0 4.72-1.14 5.98-3.2 1.5-2.48 1.58-5.95.17-8.64"/></g></g></svg>