<svg xmlns="http://www.w3.org/2000/svg" width="42" height="35" xmlns:xlink="http://www.w3.org/1999/xlink"><use fill="#00BFD6" xlink:href="#a" transform="translate(9.6 1.44)"/><g transform="translate(-5680 983)"><mask id="a"><use fill="#fff" xlink:href="#b" transform="translate(5680 -982.869)"/></mask><use fill="#002855" xlink:href="#c" transform="translate(5680 -982.869)" mask="url(#a)"/></g><defs><path id="a" fill-rule="evenodd" d="M.56 22.85c.2.12.4.18.63.18.38 0 .77-.2 1-.56L7.47 14l3.74 5.43c.2.28.52.47.87.5.34.04.7-.08.94-.33l5.4-5.25 3.96 3.77c.28.28.7.4 1.07.3.4-.08.7-.36.85-.73l6.35-16.05c.24-.62-.06-1.32-.67-1.56-.6-.26-1.3.04-1.54.66l-5.7 14.4-3.5-3.35c-.47-.43-1.2-.43-1.65.02l-5.2 5.07-3.97-5.75c-.23-.33-.6-.54-1-.52-.4 0-.77.22-.98.57l-6.24 10a1.2 1.2 0 00.38 1.65z"/><path id="b" fill-rule="evenodd" d="M0 0h41.1v34.42H0V0z"/><path id="c" fill-rule="evenodd" d="M41.1 28.53H5.98V0H3.6v4.56H0v2.4h3.6v7.25H0v2.4h3.6v7.26H0v2.4h3.6v4.68h4.83v3.5h2.37v-3.5h6.14v3.5h2.38v-3.5h6.13v3.5h2.38v-3.5h6.14v3.5h2.37v-3.5h4.77v-2.4z"/></defs></svg>