<?xml version="1.0" encoding="UTF-8"?>
<svg width="94px" height="300px" viewBox="0 0 94 300" version="1.1" xmlns="http://www.w3.org/2000/svg" xmlns:xlink="http://www.w3.org/1999/xlink">
    <title>Group 329</title>
    <defs>
        <filter id="filter-1">
            <feColorMatrix in="SourceGraphic" type="matrix" values="0 0 0 0 0.043137 0 0 0 0 0.470588 0 0 0 0 0.890196 0 0 0 1.000000 0"></feColorMatrix>
        </filter>
    </defs>
    <g id="Welldoc-Website" stroke="none" stroke-width="1" fill="none" fill-rule="evenodd">
        <g id="for-employers" transform="translate(0.000000, -3671.000000)">
            <g filter="url(#filter-1)" id="Group-329">
                <g style="mix-blend-mode: multiply;" transform="translate(-241.000000, 3654.000000)">
                    <polygon id="Stroke-1" stroke="#656A76" stroke-width="0.309" points="277.281009 291.873875 255.445783 309 279.445783 290"></polygon>
                    <polygon id="Stroke-2" stroke="#656A76" stroke-width="0.309" points="228.445783 322 229.430248 320.816789 255.445783 309"></polygon>
                    <polygon id="Stroke-11" stroke="#656A76" stroke-width="0.309" points="333.738783 155 333.578783 166.644316 333.152783 186"></polygon>
                    <polygon id="Stroke-13" stroke="#656A76" stroke-width="0.309" points="326.445783 209.506681 332.445783 187 326.666736 214"></polygon>
                    <polygon id="Stroke-18" stroke="#656A76" stroke-width="0.309" points="327.445783 214.40824 317.445783 239 327.217661 210"></polygon>
                    <polygon id="Stroke-20" stroke="#656A76" stroke-width="0.309" points="254.614913 26.3626386 248.445783 22 273.445783 38"></polygon>
                    <polygon id="Stroke-21" stroke="#656A76" stroke-width="0.309" points="300.445783 262.025462 318.445783 238 300.947759 267"></polygon>
                    <polygon id="Stroke-22" stroke="#656A76" stroke-width="0.309" points="300.445783 267.841079 279.445783 289 299.951207 263"></polygon>
                    <polygon id="Stroke-25" stroke="#656A76" stroke-width="0.309" points="256.445783 304.691729 280.445783 290 256.773688 309"></polygon>
                    <polygon id="Stroke-26" stroke="#656A76" stroke-width="0.309" points="280.218334 46.6451511 273.445783 38 297.445783 62"></polygon>
                    <polygon id="Stroke-27" stroke="#656A76" stroke-width="0.309" points="255.116572 304 255.445783 308.332703 229.445783 320"></polygon>
                    <polygon id="Stroke-31" stroke="#656A76" stroke-width="0.309" points="333.788832 186 331.445783 175.2169 334.445783 155"></polygon>
                    <polygon id="Stroke-36" stroke="#656A76" stroke-width="0.309" points="254.445783 26 225.445783 11 248.143221 21.4582963"></polygon>
                    <polygon id="Stroke-41" stroke="#656A76" stroke-width="0.309" points="304.001855 75.967033 298.445783 63 317.445783 93"></polygon>
                    <polygon id="Stroke-42" stroke="#656A76" stroke-width="0.309" points="330.454675 176 332.445783 186.782663 326.445783 209"></polygon>
                    <polygon id="Stroke-43" stroke="#656A76" stroke-width="0.309" points="320.998415 107.811765 318.445783 92 329.445783 124"></polygon>
                    <polygon id="Stroke-44" stroke="#656A76" stroke-width="0.309" points="328.445783 141.412727 329.089696 125 334.445783 155"></polygon>
                    <polygon id="Stroke-46" stroke="#656A76" stroke-width="0.309" points="272.807112 38.2267777 279.445783 47 254.445783 26"></polygon>
                    <polygon id="Stroke-52" stroke="#656A76" stroke-width="0.309" points="313.445783 232.859551 326.445783 210 317.101504 239"></polygon>
                    <polygon id="Stroke-55" stroke="#656A76" stroke-width="0.309" points="297.534246 62.7257892 303.445783 76 279.445783 47"></polygon>
                    <polygon id="Stroke-56" stroke="#656A76" stroke-width="0.309" points="328.445783 141 334.445783 154.592392 331.618901 175"></polygon>
                    <polygon id="Stroke-57" stroke="#656A76" stroke-width="0.309" points="318.445783 239.288436 300.445783 263 314.603886 233"></polygon>
                    <polygon id="Stroke-61" stroke="#656A76" stroke-width="0.309" points="316.74195 92.1011068 319.445783 108 303.445783 75"></polygon>
                    <polygon id="Stroke-63" stroke="#656A76" stroke-width="0.309" points="328.445783 124.428006 327.939033 141 320.445783 108"></polygon>
                    <polygon id="Stroke-65" stroke="#656A76" stroke-width="0.309" points="277.445783 281.708124 301.445783 263 280.474407 289"></polygon>
                    <polygon id="Stroke-66" stroke="#656A76" stroke-width="0.309" points="280.445783 288.598355 256.445783 304 277.546109 281"></polygon>
                    <polygon id="Stroke-70" stroke="#656A76" stroke-width="0.309" points="230.244029 320 228.445783 312.026465 255.445783 304"></polygon>
                    <polygon id="Stroke-73" stroke="#656A76" stroke-width="0.309" points="225.445783 11 254.445783 26 229.178824 17.9334772"></polygon>
                    <polygon id="Stroke-80" stroke="#656A76" stroke-width="0.309" points="327.333999 209 321.445783 199.202889 331.445783 176"></polygon>
                    <polygon id="Stroke-83" stroke="#656A76" stroke-width="0.309" points="320.779792 199 326.445783 208.85734 313.445783 232"></polygon>
                    <polygon id="Stroke-89" stroke="#656A76" stroke-width="0.309" points="257.711927 37.0813581 254.445783 26 279.445783 47"></polygon>
                    <polygon id="Stroke-94" stroke="#656A76" stroke-width="0.309" points="330.445783 175 322.445783 161.86221 327.944951 141"></polygon>
                    <polygon id="Stroke-95" stroke="#656A76" stroke-width="0.309" points="294.445783 254.203094 313.445783 233 300.343155 263"></polygon>
                    <polygon id="Stroke-97" stroke="#656A76" stroke-width="0.309" points="301.445783 262.553108 277.445783 281 295.026137 254"></polygon>
                    <polygon id="Stroke-98" stroke="#656A76" stroke-width="0.309" points="252.445783 294.259681 277.445783 281 256.157893 304"></polygon>
                    <polygon id="Stroke-99" stroke="#656A76" stroke-width="0.309" points="281.592889 62.5152812 279.445783 47 303.445783 76"></polygon>
                    <polygon id="Stroke-101" stroke="#656A76" stroke-width="0.309" points="258.445783 37 229.445783 18 254.986578 26.0467906"></polygon>
                    <polygon id="Stroke-102" stroke="#656A76" stroke-width="0.309" points="251.818974 294 255.445783 303.682664 228.445783 312"></polygon>
                    <polygon id="Stroke-105" stroke="#656A76" stroke-width="0.309" points="315.445783 126.68189 319.680646 108 328.445783 141"></polygon>
                    <polygon id="Stroke-107" stroke="#656A76" stroke-width="0.309" points="301.445783 93.1226078 302.281092 75 319.445783 108"></polygon>
                    <polygon id="Stroke-109" stroke="#656A76" stroke-width="0.309" points="322.049653 163 331.445783 176.295822 321.445783 200"></polygon>
                    <polygon id="Stroke-113" stroke="#656A76" stroke-width="0.309" points="280.419209 46.8035864 282.445783 62 258.445783 37"></polygon>
                    <polygon id="Stroke-117" stroke="#656A76" stroke-width="0.309" points="315.445783 128 328.445783 142.167164 322.024494 163"></polygon>
                    <polygon id="Stroke-121" stroke="#656A76" stroke-width="0.309" points="313.944982 232 303.445783 222.616662 321.445783 199"></polygon>
                    <polygon id="Stroke-123" stroke="#656A76" stroke-width="0.309" points="303.445783 76.0790655 302.640825 94 282.445783 63"></polygon>
                    <polygon id="Stroke-124" stroke="#656A76" stroke-width="0.309" points="319.445783 109.150068 315.10178 128 301.445783 94"></polygon>
                    <polygon id="Stroke-125" stroke="#656A76" stroke-width="0.309" points="303.460128 223 313.445783 232.276476 294.445783 253"></polygon>
                    <polygon id="Stroke-130" stroke="#656A76" stroke-width="0.309" points="277.445783 281.087551 252.445783 294 270.642813 270"></polygon>
                    <polygon id="Stroke-131" stroke="#656A76" stroke-width="0.309" points="270.445783 270.225361 294.445783 254 277.310412 281"></polygon>
                    <polygon id="Stroke-133" stroke="#656A76" stroke-width="0.309" points="227.574929 312 223.445783 298.850147 252.445783 294"></polygon>
                    <polygon id="Stroke-138" stroke="#656A76" stroke-width="0.309" points="229.445783 18 258.445783 37 230.477615 32.7486503"></polygon>
                    <polygon id="Stroke-143" stroke="#656A76" stroke-width="0.309" points="321.834789 200 307.445783 187.071848 322.445783 163"></polygon>
                    <polygon id="Stroke-149" stroke="#656A76" stroke-width="0.309" points="307.450057 186 321.445783 198.960517 303.445783 223"></polygon>
                    <polygon id="Stroke-150" stroke="#656A76" stroke-width="0.309" points="258.445783 54.1149609 258.903014 37 282.445783 62"></polygon>
                    <polygon id="Stroke-156" stroke="#656A76" stroke-width="0.309" points="246.445783 281.602814 270.445783 270 252.332359 294"></polygon>
                    <polygon id="Stroke-157" stroke="#656A76" stroke-width="0.309" points="322.445783 163 304.445783 148.975305 315.784583 128"></polygon>
                    <polygon id="Stroke-158" stroke="#656A76" stroke-width="0.309" points="246.297479 281 252.445783 294.011636 223.445783 299"></polygon>
                    <polygon id="Stroke-159" stroke="#656A76" stroke-width="0.309" points="293.958978 253 279.445783 243.36926 303.445783 223"></polygon>
                    <polygon id="Stroke-160" stroke="#656A76" stroke-width="0.309" points="279.814051 244 294.445783 253.65301 270.445783 270"></polygon>
                    <polygon id="Stroke-161" stroke="#656A76" stroke-width="0.309" points="279.445783 82.8076456 282.805351 63 303.445783 94"></polygon>
                    <polygon id="Stroke-162" stroke="#656A76" stroke-width="0.309" points="295.445783 114.827712 301.862393 94 314.445783 128"></polygon>
                    <polygon id="Stroke-164" stroke="#656A76" stroke-width="0.309" points="257.974442 55 231.445783 34 258.445783 38.1783428"></polygon>
                    <polygon id="Stroke-170" stroke="#656A76" stroke-width="0.309" points="304.445783 149 322.445783 162.735469 307.51761 186"></polygon>
                    <polygon id="Stroke-174" stroke="#656A76" stroke-width="0.309" points="282.445783 61.1996458 279.278487 82 258.445783 53"></polygon>
                    <polygon id="Stroke-175" stroke="#656A76" stroke-width="0.309" points="295.445783 114 314.445783 126.958915 303.86104 148"></polygon>
                    <polygon id="Stroke-177" stroke="#656A76" stroke-width="0.309" points="303.445783 93.3998324 296.587238 114 279.445783 82"></polygon>
                    <polygon id="Stroke-181" stroke="#656A76" stroke-width="0.309" points="253.946142 260 270.445783 271.029865 246.445783 283"></polygon>
                    <polygon id="Stroke-184" stroke="#656A76" stroke-width="0.309" points="303.281783 223 284.445783 209.860011 307.445783 186"></polygon>
                    <polygon id="Stroke-185" stroke="#656A76" stroke-width="0.309" points="246.445783 282.157035 225.445783 299 225.949239 278"></polygon>
                    <polygon id="Stroke-187" stroke="#656A76" stroke-width="0.309" points="270.470995 270 254.445783 259.531614 279.445783 244"></polygon>
                    <polygon id="Stroke-191" stroke="#656A76" stroke-width="0.309" points="285.315359 210 303.445783 223.097194 279.445783 244"></polygon>
                    <polygon id="Stroke-196" stroke="#656A76" stroke-width="0.309" points="230.43895 34 257.445783 55 228.445783 54.6303343"></polygon>
                    <polygon id="Stroke-203" stroke="#656A76" stroke-width="0.309" points="253.445783 260 245.907669 283 224.445783 278.633187"></polygon>
                    <polygon id="Stroke-205" stroke="#656A76" stroke-width="0.309" points="308.445783 186 287.445783 172.074769 305.542497 149"></polygon>
                    <polygon id="Stroke-207" stroke="#656A76" stroke-width="0.309" points="253.445783 74.6907357 257.36614 53 278.445783 82"></polygon>
                    <polygon id="Stroke-210" stroke="#656A76" stroke-width="0.309" points="271.445783 103.710112 278.709622 82 295.445783 114"></polygon>
                    <polygon id="Stroke-211" stroke="#656A76" stroke-width="0.309" points="305.445783 148 281.445783 134.962951 296.608551 114"></polygon>
                    <polygon id="Stroke-212" stroke="#656A76" stroke-width="0.309" points="284.863783 173 307.445783 186.952592 284.445783 210"></polygon>
                    <polygon id="Stroke-215" stroke="#656A76" stroke-width="0.309" points="260.033362 231 279.445783 244.418107 254.445783 260"></polygon>
                    <polygon id="Stroke-216" stroke="#656A76" stroke-width="0.309" points="253.3798 75 228.445783 54 257.445783 54.3738259"></polygon>
                    <polygon id="Stroke-217" stroke="#656A76" stroke-width="0.309" points="278.568846 244 258.445783 230.306517 284.445783 210"></polygon>
                    <polygon id="Stroke-220" stroke="#656A76" stroke-width="0.309" points="278.445783 82.1381054 271.348683 104 253.445783 75"></polygon>
                    <polygon id="Stroke-222" stroke="#656A76" stroke-width="0.309" points="281.445783 136 305.445783 149.153718 286.675588 173"></polygon>
                    <polygon id="Stroke-224" stroke="#656A76" stroke-width="0.309" points="271.445783 104 295.445783 114.170484 280.377487 135"></polygon>
                    <polygon id="Stroke-226" stroke="#656A76" stroke-width="0.309" points="224.445783 278 229.596251 252 253.445783 260.211223"></polygon>
                    <polygon id="Stroke-236" stroke="#656A76" stroke-width="0.309" points="259.445783 231 253.787384 260 230.445783 251.810412"></polygon>
                    <polygon id="Stroke-241" stroke="#656A76" stroke-width="0.309" points="285.043505 210 261.445783 195.450904 285.445783 173"></polygon>
                    <polygon id="Stroke-242" stroke="#656A76" stroke-width="0.309" points="260.814676 194 284.445783 208.877192 258.445783 229"></polygon>
                    <polygon id="Stroke-243" stroke="#656A76" stroke-width="0.309" points="228.638065 53 253.445783 74.6542373 224.445783 77"></polygon>
                    <polygon id="Stroke-247" stroke="#656A76" stroke-width="0.309" points="247.445783 96.8040181 253.552491 75 271.445783 104"></polygon>
                    <polygon id="Stroke-251" stroke="#656A76" stroke-width="0.309" points="279.445783 135 253.445783 124.479201 270.536251 104"></polygon>
                    <polygon id="Stroke-252" stroke="#656A76" stroke-width="0.309" points="284.445783 173 259.445783 159.20792 279.408248 136"></polygon>
                    <polygon id="Stroke-257" stroke="#656A76" stroke-width="0.309" points="247.140931 97 224.445783 78.2519908 253.445783 76"></polygon>
                    <polygon id="Stroke-258" stroke="#656A76" stroke-width="0.309" points="247.445783 96 271.445783 103.43692 254.71505 125"></polygon>
                    <polygon id="Stroke-259" stroke="#656A76" stroke-width="0.309" points="230.445783 251 233.580969 217 259.445783 229.957735"></polygon>
                    <polygon id="Stroke-260" stroke="#656A76" stroke-width="0.309" points="259.445783 158 284.445783 171.810022 261.276094 195"></polygon>
                    <polygon id="Stroke-265" stroke="#656A76" stroke-width="0.309" points="262.445783 194 260.064318 229 233.445783 216.040355"></polygon>
                    <polygon id="Stroke-266" stroke="#656A76" stroke-width="0.309" points="253.445783 125 279.445783 135.717957 258.901653 159"></polygon>
                    <polygon id="Stroke-279" stroke="#656A76" stroke-width="0.309" points="224.445783 77 247.445783 96.4436502 224.939396 108"></polygon>
                    <polygon id="Stroke-281" stroke="#656A76" stroke-width="0.309" points="246.120798 96 253.445783 125 224.445783 107.956892"></polygon>
                    <polygon id="Stroke-285" stroke="#656A76" stroke-width="0.309" points="260.530854 158 262.445783 195 233.445783 178.253929"></polygon>
                    <polygon id="Stroke-287" stroke="#656A76" stroke-width="0.309" points="233.445783 217 233.540732 178 262.445783 194.74151"></polygon>
                    <polygon id="Stroke-288" stroke="#656A76" stroke-width="0.309" points="253.936643 125 259.445783 159 229.445783 141.123234"></polygon>
                    <polygon id="Stroke-293" stroke="#656A76" stroke-width="0.309" points="229.520264 140 224.445783 108 253.445783 124.180754"></polygon>
                    <polygon id="Stroke-297" stroke="#656A76" stroke-width="0.309" points="232.543105 178 229.445783 141 259.445783 158.328499"></polygon>
                </g>
            </g>
        </g>
    </g>
</svg>