<svg xmlns="http://www.w3.org/2000/svg" width="429" height="20"><style>.st2{fill:#fff}.st3{enable-background:new}</style><filter id="filter-2" width="200%" height="200%" x="-50%" y="-50%" filterUnits="objectBoundingBox"><feMorphology in="SourceAlpha" operator="dilate" radius=".5" result="shadowSpreadOuter1"/><feOffset in="shadowSpreadOuter1" result="shadowOffsetOuter1"/><feGaussianBlur in="shadowOffsetOuter1" result="shadowBlurOuter1" stdDeviation="1.5"/><feColorMatrix in="shadowBlurOuter1" values="0 0 0 0 1 0 0 0 0 1 0 0 0 0 1 0 0 0 0.784675045 0"/></filter><g id="outcomes"><g id="Fancy_impactv4"><g id="study"><g id="bluestar-key"><g id="legend"><g id="BlueStar"><path id="Stroke-16" d="M1 10h110.23" fill="none" stroke="#fff" stroke-width="2" stroke-linecap="round"/><g id="Oval"><g filter="url(#filter-2)" transform="translate(1 1)"><circle id="path-1_2_" cx="55" cy="9" r="6"/></g><g transform="translate(1 1)"><circle id="path-1_1_" cx="55" cy="9" r="6" class="st2"/></g></g><g class="st3"><path d="M126.35 13V3.12h3.46c.87 0 1.56.22 2.1.67.52.43.78 1.05.78 1.84 0 .47-.1.9-.33 1.27-.2.38-.52.66-.9.86v.03c.5.14.9.44 1.2.87.28.45.43.95.43 1.5 0 .9-.3 1.6-.9 2.1-.6.48-1.37.73-2.28.73h-3.55zm1.38-5.73h2.07c.44 0 .8-.14 1.06-.42s.4-.63.4-1.08c0-.43-.13-.78-.4-1.05s-.62-.4-1.1-.4h-2.03v2.95zm0 4.53h2.23c.52 0 .93-.16 1.23-.46s.45-.7.45-1.22c0-.5-.16-.9-.47-1.23s-.73-.48-1.24-.48h-2.2v3.38zm7.12-.73V3.12h1.35v7.72c0 .4.07.66.2.8s.32.2.56.2h.24v1.2h-.45c-1.27 0-1.9-.65-1.9-1.97zm3.69-.62V5.92h1.36v4.2c0 .6.1 1.03.27 1.32.18.3.54.45 1.06.45.7 0 1.25-.27 1.67-.78.42-.53.63-1.16.63-1.9v-3.3h1.35V13h-1.3v-.94l.02-.53h-.03c-.18.42-.5.8-.96 1.13-.46.34-1 .5-1.64.5-1.6 0-2.42-.9-2.42-2.7zm7.98-.99c0-1.1.33-2 1-2.7.66-.67 1.5-1 2.52-1 .96 0 1.7.3 2.26.92s.8 1.42.8 2.4l-.04.58h-5.16c.04.74.3 1.32.75 1.72.47.4 1.04.62 1.7.62.34 0 .7-.08 1.06-.22.33-.12.6-.26.78-.4l.26-.2.55.98c-.1.1-.2.18-.34.28-.18.13-.5.28-.94.45-.48.18-.97.27-1.46.27-1.1 0-2-.35-2.7-1.06-.7-.7-1.04-1.58-1.04-2.64zm1.42-.83h3.8c-.03-.6-.2-1.03-.53-1.34-.3-.3-.7-.46-1.18-.46-.54 0-1 .16-1.37.47-.38.32-.6.76-.7 1.33z" class="st2"/></g><path d="M153.76 11.88l.8-1.05c.03.04.07.08.1.1.1.08.2.17.35.27.2.13.37.24.54.33s.4.18.7.25c.27.08.54.1.82.1.5 0 .9-.12 1.22-.38.33-.25.5-.6.5-1.07 0-.3-.1-.54-.28-.76-.18-.23-.4-.43-.68-.58-.32-.2-.63-.34-.93-.47-.36-.15-.7-.3-1.04-.47-.34-.18-.65-.36-.92-.57-.27-.2-.5-.47-.68-.8-.17-.32-.26-.7-.26-1.1 0-.77.3-1.42.9-1.96.6-.52 1.35-.8 2.27-.8.56 0 1.06.1 1.5.26.47.17.8.34 1 .5l.3.24-.63 1.15c-.05-.06-.15-.14-.3-.25-.1-.1-.35-.22-.74-.38-.38-.16-.76-.24-1.13-.24-.52 0-.95.14-1.28.42s-.52.62-.52 1.03c0 .37.16.7.5.95.32.26.72.5 1.18.67.42.16.9.37 1.4.62.48.23.88.55 1.2.96.33.42.5.92.5 1.5 0 .8-.3 1.46-.86 2-.57.53-1.32.8-2.27.8-.38 0-.76-.05-1.14-.14-.37-.1-.67-.2-.93-.32a7.95 7.95 0 01-.65-.38c-.2-.14-.35-.25-.42-.33l-.14-.12z" class="st2"/><g class="st3"><path d="M161.1 7.1V6h.97V3.98h1.3V6h1.72v1.1h-1.72v3.16c0 .26.04.5.12.7.08.22.17.37.27.47.1.1.24.2.38.27.12.06.25.1.4.12.1.02.2.03.34.03l.32-.03v1.2c-.1.03-.27.03-.48.03-.22 0-.43 0-.64-.04-.2 0-.43-.08-.7-.2-.27-.1-.5-.25-.68-.44-.2-.18-.36-.44-.5-.78-.12-.32-.2-.7-.2-1.17V7.1h-.92zm5.07 3.9c0-1.62 1.43-2.43 4.27-2.43h.3v-.13c0-1.03-.5-1.54-1.54-1.54-.3 0-.63.05-.97.17-.3.1-.56.2-.75.33l-.25.18-.57-1c.06-.04.17-.12.33-.23.1-.08.4-.2.9-.37.45-.16.92-.23 1.4-.23.92 0 1.6.24 2.1.7s.72 1.18.72 2.07V13h-1.25v-.67l.03-.56h-.03l-.08.15c-.04.07-.12.18-.24.33-.13.16-.27.3-.43.43-.15.12-.37.23-.65.33-.28.12-.57.17-.9.17-.65 0-1.2-.2-1.7-.57-.47-.38-.7-.9-.7-1.6zm1.38-.06c0 .3.12.57.36.8.23.23.56.34.98.34.54 0 1-.24 1.35-.7.36-.48.54-1 .54-1.56V9.6h-.35c-1.9 0-2.87.44-2.87 1.34zm6.59 2.06V5.92h1.3v1.23l-.02.53h.03c.17-.54.45-.98.85-1.33s.85-.52 1.4-.52l.34.03V7.2c-.12-.02-.25-.04-.4-.04-.43 0-.83.15-1.2.45-.36.32-.62.72-.78 1.23-.1.38-.17.8-.17 1.27V13h-1.36z" class="st2"/></g></g><g id="control"><path id="Stroke-21" d="M213 10h110.23" fill="none" stroke="#fff" stroke-linecap="round" stroke-dasharray="3"/><path id="Fill-38" d="M272.72 16h-9.44c-.7 0-1.28-.57-1.28-1.28V5.28c0-.7.57-1.28 1.28-1.28h9.44c.7 0 1.28.57 1.28 1.28v9.44c0 .7-.57 1.28-1.28 1.28" class="st2"/><g class="st3"><path d="M336.67 8c0-1.44.48-2.64 1.44-3.6s2.16-1.45 3.6-1.45c.46 0 .9.04 1.3.13.38.1.72.2 1 .32.26.12.5.25.7.38.2.1.34.23.45.33l.15.14-.7 1.04c-.06-.08-.18-.18-.36-.3-.16-.13-.5-.3-.98-.48-.5-.2-1-.3-1.5-.3-1.1 0-1.97.36-2.64 1.08-.68.73-1.02 1.63-1.02 2.7 0 1.08.34 2 1.03 2.77.68.76 1.56 1.14 2.64 1.14.55 0 1.08-.1 1.6-.33.5-.2.86-.42 1.1-.64l.35-.32.74 1c-.02.03-.07.1-.16.18-.07.06-.23.2-.47.37a5.4 5.4 0 01-.8.47c-.28.15-.63.27-1.05.38-.45.1-.9.17-1.35.17-1.47 0-2.68-.5-3.63-1.5s-1.43-2.2-1.43-3.67zm9.98 1.45c0-1.07.37-1.95 1.1-2.65.75-.7 1.65-1.05 2.72-1.05 1.07 0 1.97.35 2.7 1.05.75.7 1.12 1.58 1.12 2.65 0 1.06-.38 1.94-1.13 2.65s-1.64 1.07-2.7 1.07c-1.06 0-1.97-.35-2.7-1.07s-1.12-1.6-1.12-2.65zm1.38 0c0 .73.24 1.34.7 1.8.5.5 1.07.75 1.74.75.68 0 1.26-.25 1.73-.73.47-.47.7-1.08.7-1.82 0-.73-.23-1.34-.7-1.8-.47-.5-1.05-.73-1.73-.73-.67 0-1.25.24-1.73.72-.47.47-.7 1.08-.7 1.8zM355.9 13V5.92h1.3v.93l-.02.52h.03c.2-.4.5-.77.96-1.1s1.02-.52 1.7-.52c1.63 0 2.44.9 2.44 2.7V13h-1.35V8.78c0-.57-.1-1-.28-1.32S360.13 7 359.6 7c-.52 0-1 .15-1.4.48s-.68.74-.83 1.25c-.08.26-.12.58-.12.95V13h-1.35zm7.8-5.9V6h.97V3.98h1.3V6h1.72v1.1h-1.72v3.16c0 .26.04.5.12.7.08.22.17.37.27.47.1.1.24.2.38.27.12.06.25.1.4.12.1.02.2.03.34.03l.32-.03v1.2c-.1.03-.27.03-.48.03-.22 0-.43 0-.64-.04-.2 0-.43-.08-.7-.2-.27-.1-.5-.25-.68-.44-.2-.18-.36-.44-.5-.78-.12-.32-.2-.7-.2-1.17V7.1h-.92z" class="st2"/></g><path d="M368.94 13V5.92h1.3v1.76c.2-.54.47-.98.86-1.33s.86-.52 1.4-.52l.35.03V7.2c-.13-.02-.26-.04-.4-.04-.43 0-.83.15-1.2.45-.37.32-.63.72-.78 1.23-.12.38-.17.8-.17 1.27V13h-1.36z" class="st2"/><g class="st3"><path d="M373.32 9.45c0-1.07.37-1.95 1.1-2.65.75-.7 1.65-1.05 2.72-1.05 1.07 0 1.97.35 2.7 1.05.75.7 1.12 1.58 1.12 2.65 0 1.06-.37 1.94-1.1 2.65-.76.72-1.66 1.07-2.72 1.07s-1.97-.35-2.7-1.07-1.12-1.6-1.12-2.65zm1.38 0c0 .73.24 1.34.7 1.8.5.5 1.07.75 1.74.75.68 0 1.26-.25 1.73-.73.47-.47.7-1.08.7-1.82 0-.73-.23-1.34-.7-1.8-.47-.5-1.05-.73-1.73-.73-.67 0-1.25.24-1.73.72-.46.47-.7 1.08-.7 1.8zm7.78 1.62V3.12h1.35v7.72c0 .4.07.66.2.8s.32.2.56.2h.23v1.2h-.45c-1.26 0-1.9-.65-1.9-1.97zm7.02-3.03c0-1.44.47-2.64 1.43-3.62.97-.98 2.17-1.47 3.6-1.47.44 0 .87.04 1.28.12a5.896 5.896 0 011.74.63c.2.1.34.2.46.3l.14.13-.7 1.03c-.07-.06-.2-.15-.37-.27-.15-.12-.47-.26-.96-.44-.47-.18-.96-.26-1.46-.26-1.13 0-2.03.36-2.7 1.1-.68.72-1.02 1.63-1.02 2.72 0 1.13.34 2.06 1.04 2.8.68.7 1.55 1.07 2.6 1.07.5 0 1-.1 1.46-.32.47-.2.8-.4 1.02-.6l.32-.32V9.23h-1.6v-1.2h2.88V13h-1.24v-.62l.02-.42h-.04l-.12.13c-.07.06-.2.16-.38.28-.2.15-.4.27-.6.37-.22.1-.5.2-.86.28-.35.1-.7.14-1.07.14-1.35 0-2.5-.48-3.45-1.45-.94-.96-1.4-2.2-1.4-3.68zm11 4.96V5.92h1.32v1.23l-.03.53h.02c.17-.54.46-.98.85-1.33s.85-.52 1.4-.52l.34.03V7.2a1.83 1.83 0 00-1.58.41c-.37.32-.63.72-.8 1.23-.1.38-.16.8-.16 1.27V13h-1.35zm4.74-3.55c0-1.07.37-1.95 1.1-2.65.74-.7 1.65-1.05 2.72-1.05 1.06 0 1.97.35 2.7 1.05.75.7 1.1 1.58 1.1 2.65 0 1.06-.36 1.94-1.1 2.65s-1.64 1.07-2.7 1.07c-1.07 0-1.97-.35-2.7-1.07s-1.12-1.6-1.12-2.65zm1.38 0c0 .73.24 1.34.7 1.8.5.5 1.07.75 1.74.75.68 0 1.25-.25 1.73-.73.46-.47.7-1.08.7-1.82 0-.73-.24-1.34-.7-1.8-.5-.5-1.06-.73-1.74-.73-.67 0-1.25.24-1.73.72-.47.47-.7 1.08-.7 1.8zm7.76 1V5.92h1.36v4.2c0 .6.1 1.03.27 1.32.2.3.55.45 1.07.45.7 0 1.25-.27 1.67-.78.42-.53.63-1.16.63-1.9v-3.3h1.35V13h-1.3v-.94l.02-.53h-.02c-.18.42-.5.8-.97 1.13-.47.34-1.02.5-1.64.5-1.6 0-2.42-.9-2.42-2.7zm8.47 5.35V5.92h1.25v.6l-.03.53h.03s0-.03.03-.06c.02-.05.03-.07.04-.1.04-.06.13-.16.26-.3.13-.16.28-.3.45-.4.17-.1.4-.22.67-.3.28-.1.6-.15.93-.15.94 0 1.7.34 2.27 1.03.56.68.84 1.58.84 2.7 0 1.1-.3 2-.9 2.67s-1.38 1.02-2.32 1.02c-.3 0-.56-.04-.82-.12-.26-.08-.47-.18-.62-.3-.17-.1-.3-.23-.42-.33-.1-.1-.18-.2-.24-.28l-.07-.12h-.02c.02.15.03.36.03.62v3.16h-1.35zm1.32-6.3c0 .68.18 1.27.54 1.77.37.5.86.75 1.47.75.58 0 1.06-.23 1.46-.68s.58-1.07.58-1.85c0-.77-.17-1.4-.54-1.85s-.85-.7-1.45-.7c-.57 0-1.05.2-1.45.64-.4.4-.58 1.05-.58 1.9z" class="st2"/></g></g></g></g></g></g></g></svg>