<svg width="298" height="387" xmlns="http://www.w3.org/2000/svg"><path d="M66.893 89.4c.09 2.772-2.739 4.952-4.366 4.368-9.506-12.343-18.593-24.662-30.092-34.673-1.372-1.397 2.282-5.92 4.391-5.834.697.029 1.324.412 1.915.985C49.102 64.295 58.79 77.519 66.893 89.4zm27.443-70.352c7.675 13.039 16.219 28.907 19.001 44.146 1.563 8.563-3.557 2.026-5.488-1.54-4.645-8.57-15.847-31.477-19.967-37.965.291-2.998 1.662-3.62 6.454-4.641zm73.02-13.664c-1.9 15.61 1.426 30.993-.745 47.427-.051.038-6.823 4.055-7.498-2.265-4.304-3.26-3.023-39.657-1.451-46.66-.211-3.01 10.809-7.658 9.694 1.498zM34.369 127.653c-.284.882-.425 2.369-.943 3.533-4.047-.264-30.441-15.424-30.85-15.753 1.298-1.89 4.389-5.333 6.995-6.107 2.676-.797 21.113 17.822 24.798 18.327zm184.584-19.741c20.883 21.2 34.164 50.195 23.544 79.89-2.499 6.992-6.154 13.78-10.757 20.425-4.481 6.468-9.049 12.79-13.398 19.199-15.032 22.152-23.515 36.463-24.816 66.689 2.797 1.694 5.722.82 5.985 6.24-.966 4.743-7.425 1.016-8.174 3.172-1.719 4.952-2.73 16.895-3.485 22.118 4.692 1.863 9.137.6 9.385 7.23 1.512 8.65-8.505 3.957-9.009 7.03-.813 1.757-1.944 13.976-.964 13.736 1.931-.471 7.31-.264 7.687 4.822.187 2.527-.167 4.689-7.218 5.42-6.36.656-17.29-.094-20.349-.695-3.403 15.966-3.806 22.74-20.663 22.858-15.129.104-20.024-8.09-21.481-22.823-2.156-.326-24.647-.035-26.521-2.785-1.447-4.272-3.245-5.48 1.908-7.438 1.493-.568 3.005-.848 4.163-1.014.916-3.033-.455-9.511-1.289-14.273-11.024-.104-14.692-16.703-1.993-19.268.408-.082.006-9.394-.189-10.92-.752-2.994-8.883 2.454-10.875-5.005-1.032-3.862-.22-9.286 2.975-9.86l5.422-.111c5.352-30.563-23.667-57.358-37.122-82.953-11.166-21.235-11.833-46.388-3.5-67.913 9.424-24.344 32.748-42.845 56.413-52.452 34.662-14.071 75.19-10.89 104.321 18.68zm-135.636 3.824c2.433 1.35-6.114 6.534-6.575 7.06.572-.336 5.7-6.801 6.575-7.06zm156.315-81.368C225.076 39.97 219.683 61 207.551 65.287c-3.529 1.246-4.901-.164-5.927-2.404-1.696-3.704-.966-2.843 1.822-5.392 7.986-7.31 22.531-24.152 27.706-30.33 5.909-5.458 8.69-.65 8.48 3.207zm-3.809 124.36c.253 4.536 1.419 10.233-.863 18.157-2.474-26.03-7.351-50.904-30.129-69.095-24.003-17.216-55.287-13.192-81.296-8.933l.349-.717c7.05-3.471 14.217-4.94 21.441-5.281 36.328-1.703 59.334 5.446 76.611 30.9 6.125 9.024 13.291 24.272 13.887 34.97zM89.034 115.674l-.698-1.174c6.11-5.614 14.02-9.35 22.598-11.545a128.497 128.497 0 00-21.9 12.719zM29.382 173.64c1.999 1.65-.783 4.643-1.896 4.197-6.651-2.278-18.56-1.934-26.628-3.34-2.396-1.546.735-6.21 3.169-6.873 3.235-.88 20.739 5.583 25.355 6.016zm80.265-67.018c1.857-2.616 7.967-5.62 11.218-5.827-2.047.84-9.469 4.243-11.218 5.827zm12.397-6.007c3.805-1.807 7.846-2.665 12.022-2.986-4.011.205-8.51.187-12.022 2.986zm65.137-11.101l-35.417-5.618c11.719-1.156 24.064 2.366 35.417 5.618zm21.959 30.909c15.85 15.65 23.682 38.157 15.602 59.592-1.759 4.664-3.958 8.957-6.437 13.016-11.152 18.263-27.991 31.784-36.076 53.072-5.813 15.304-8.153 32.169-6.281 47.822l-14.537-.692 5.329-63.904-8.654-.674c1.898-13.953 7.538-29.734 8.736-43.255 3.381.618 10.438-10.382 13.773-13.661-.238 5.97.991 6.872.093 15.873 2.233.74 5.051-.148 6.658-1.35 2.485-9.6 4.657-19.56 7.047-29.041.898-3.575-1.911-3.263-4.316-1.758-6.611 4.14-9.711 12.558-16.126 16.333 1.652-4.2 3.174-13.567 3.967-19.958.583-4.7-1.538-2.856-5.823-2.84l-18.226 22.286c-2.003-3.404-4.882-20.375-3.742-24.257-1.976.135-3.83-.83-5.545.18-.004.066-11.601 18.992-13.659 20.88-1.942-1.502-16.532-13.514-17.468-13.095-2.324.854-5.634 1.775-8.451 2.66-1.261 2.598 3.02 22.207-1.939 26.83-6.319-2.446-7.291-12.755-14.297-15.056-1.472-.383-3.021 2.958-3.002 4.429 6.478 7.01 9.318 20.123 17.767 25.333 2.706 1.667 3.563 1.825 5.026-1.396 2.018-4.442 2.157-12.16 3.847-13.156l14.297 46.562-5.309-.728c-.372 6.072 4.515 61.154 6.913 61.949l-13.498-.131c-1.619-20.738-5.862-37.334-18.338-54.195-5.796-7.834-12.251-15.057-17.952-24.1-5.428-8.605-9.164-17.986-10.623-31.186-1.56-14.12 2.641-29.218 10.209-42.214 6.915-11.872 16.257-21.033 27.122-28.027 12.189-7.847 22.524-12.143 33.957-13.807 24.461-3.557 52.218 4.15 69.956 21.664zM71.502 132.157c-4.953 9.098-10.151 24.472-12.488 35.09-1.438-13.793 5.486-26.283 12.488-35.09zm118.264-29.522c-7.629-3.548-15.707-5.738-23.933-7.493 9.743.866 19.879.434 23.933 7.493zm21.803 12.604c-5.046-4.705-11.424-8.756-16.865-12.941 6.126 1.584 11.371 7.119 16.865 12.94zM43.678 211.467c-18.719 16.045-10.917 11.596-18.682 18.256-1.257.484-3.463-3.938-3.441-6.522 9.441-8.974 15.246-11.947 20.592-14.082 1.183-.474.632.434 1.531 2.348zm85.485-37.204l-.624.835c-3.289-1.663-10.242-9.146-10.973-12.571 3.481 1.55 8.845 9.244 11.597 11.736zm93.188-42.643c-2.642-4.76-5.829-9.792-10.221-15.428 6.183 3.92 7.769 8.595 10.221 15.428zm58.707-55.71c1.435.696 2.66 3.036 3.286 4.976-.023.033-33.385 21.03-35.529 21.92-5.737 2.38-8.403.109-3.535-3.617 9.998-7.656 21.827-19.178 35.778-23.28zM135.45 183.165c5.171-5.187 5.394-8.821 8.08-10.678.462 3.839 2.202 5.927 2.54 9.553 3.672 6.037 9.215 1.77 14.316-2.417l-9.358 48.82-15.885 1.383c-1.469-1.19-14.594-50.831-16.298-55.157 1.513-.103 6.782 6.355 10.699 9.302 3.007 2.26 3.61 1.496 5.906-.806zm26.546-11.43l-1.852.778c-.192.11 5.355-9.89 8.542-14.078-1.313 2.77-6.297 11.786-6.69 13.3zm-93.164 35.148c.191-.112.95-.51 1.142-.621-.687 2.625 18.055 27.318 17.755 26.806-3.351-3.246-19.72-22.642-18.897-26.185zm222.167-73.655c5.592.315 7.528 6.41 5.783 7.644-.505 1.325-33.456 3.518-34.427 3.048l-1.146-3.694c7.529-2.046 24.335-4.027 29.79-6.998zm-65.295 74.133c2.467-2.97 16.095-32.455 14.62-35.834.98 14.324-7.885 25.449-14.62 35.834zm-72.575 32.948c-.495 17.515-1.039 38.216-2.843 52.793-5.275-.237-9.719.068-14.535-.694-2.452-15.513-.623-33.801-.785-50.66 4.095-.008 9.158-1.84 18.163-1.44zm70.981-41.772c-1.587 5.563-3.977 9.358-6.63 12.828-12.875 16.844-25.311 33.842-30.947 54.789-2.434 9.053-3.344 18.92-1.866 28.174-.726.074-2.454.416-2.53-.043-1.898-10.285.329-23.361 4.217-34.931 4.426-13.17 12.822-25.475 20.281-37.16 5.307-8.31 10.964-16.49 17.475-23.657zm37.445-14.072c6.364.449 18.106 1.247 23.103 4.805 1.734 1.236.847 5.048-.673 5.373-1.322.486-26.085-5.401-26.283-5.558-7.492-5.996 1.675-3.614 3.853-4.62zm-41.651 30.666c.415.269-4.546 7.822-4.624 8.127l-.957.562c-.221-.382 5.007-8.351 5.581-8.69zm-6.553 10.289c-.568 1.584-2.453 3.885-3.258 4.742.652-.642 1.922-3.955 3.258-4.742zm-4.367 5.91c-.033 3.87-6.095 6.658-5.408 10.877-.271-3.951 3.939-7.7 5.408-10.877zm54.255 10.709c-.53 3.629-2.063 4.29-3.776 4.623-5.787-5.047-13.406-11.03-19.025-17.73-3.84-4.58-3.147-4.862 2.151-1.72 7.096 4.208 13.131 9.267 20.65 14.827zm-135.137 55.205c-.506 1.324-20.077.432-21.592.04 1.482-.102 20.392-1.645 21.592-.04zm30.993 9.47c-.233 2.936-18.572 5.395-18.839 5.134-7.738 1.695-27.419 5.554-27.951 4.888-1.408-3.914-.341-6.851-.563-9.687 4.646-.026 42.197.012 47.353-.334zm30.395-30.648c-.432-4.236 2.454-15.492 4.02-16.328-.553 1.465-4.499 15.358-4.02 16.328zm-1.383 8.952c-.478-.932.161-6.016 1.006-7.323-.306 1.725-.635 5.889-1.006 7.323zm-9.821 28.597c-.369 3.299.598 7.59-.081 12.059-5.997.68-43.996-2.45-48.983-2.453 2.57 1.312 40.742-7.631 49.064-9.606zm9.898-25.09c-.317 1.592.048 5.245.639 5.627-.194-.912-.445-4.714-.639-5.627zm-17.127 47.545c.952.159-12.423 1.28-12.388 2.703-3.653-.142-37.072 8.303-42.418 9.549-.892-2.69.515-6.982-.934-10.752 15.509-1.045 46.911-2.947 55.74-1.5zm-55.904 20.864l-.18-1.18 24.484-.145-24.304 1.325zm59.076-12.672c.029.039-.273 7.75-.495 8.37-1.619.772-28.239.233-29.031-2.318 7.364-2.556 21.777-6.298 29.526-6.052zm-41.765 26.375c-2.347-.932-1.213-4.682-2.752-6.86l2.752 6.86zm8.183 6.486l-2.289 1.348c-4.289-4.67-3.784-10.362-5.189-14.928.551 4.322 3.748 11.268 7.478 13.58zm16.636-13.641c-1.01 7.016-3.433 9.905-12.057 10.946-5.162-.043-7.05-6.668-7.69-10.887 3.369.873 17.753-2.04 19.747-.06zm-24.65 9.624l.381-.223 1.572 2.67-.381.224-1.572-2.671zM126.69 240.59c.416 17.592 1.799 34.795 4.149 51.61l.561-.184c-2.945-17.018-3.955-34.035-3.031-51.053a284.08 284.08 0 01-1.679-.373zm-12.56 90.166c.328 1.146.244.539.571 1.687 18.624-.054 36.857-.11 54.929-.164-18.51-1.98-36.715-1.47-55.5-1.523zm51.346-26.904l9.783-2.916-38.422 2.156c9.784-.264 18.858.449 28.639.76zm-63.519 21.285c-1.23 1.66-1.665 3.705.382 4.138l-.382-4.138zm77.109 17.523l-.594 10.567 1.089-.196.593-11.36-1.088.989z" fill="#FFF" fill-rule="evenodd"/></svg>