<svg width="119" height="26" xmlns="http://www.w3.org/2000/svg" xmlns:xlink="http://www.w3.org/1999/xlink"><defs><path d="M37.458 31.609c2.343 0 4.199.752 5.565 2.262 1.36 1.507 2.044 3.545 2.044 6.106 0 .953-.433 1.433-1.292 1.433H32.678c.242 3.712 2.027 5.569 5.354 5.569.883 0 1.648-.124 2.296-.363.644-.241 1.329-.55 2.044-.936.074-.047.272-.148.594-.306.326-.154.594-.228.81-.228.331 0 .607.134.825.39.215.265.322.604.322 1.006 0 .695-.43 1.282-1.292 1.763-.863.49-1.786.859-2.746 1.107-.993.266-1.947.403-2.853.403-2.783 0-4.968-.809-6.572-2.427-1.608-1.611-2.407-3.823-2.407-6.626 0-1.795.352-3.386 1.057-4.773a7.818 7.818 0 012.988-3.232 8.357 8.357 0 014.36-1.148zm37.371-7.54c.551 0 .994.154 1.326.466v.006c.34.3.507.719.507 1.252v22.184c0 .551-.16.984-.483 1.292-.33.313-.765.464-1.316.464-.55 0-.987-.151-1.309-.457a1.712 1.712 0 01-.483-1.299v-1.436a5.509 5.509 0 01-2.296 2.423 6.998 6.998 0 01-3.488.846c-1.504 0-2.853-.383-4.038-1.148a7.627 7.627 0 01-2.762-3.235 11.022 11.022 0 01-.987-4.774c0-1.82.325-3.41.987-4.77a7.523 7.523 0 012.745-3.161c1.172-.746 2.528-1.112 4.055-1.112 1.323 0 2.47.279 3.47.843a5.635 5.635 0 012.28 2.383v-9.113c0-.507.161-.906.483-1.205a1.83 1.83 0 011.31-.45zm12.525 7.54c1.725 0 3.24.373 4.545 1.112a7.523 7.523 0 013.014 3.178 10.491 10.491 0 011.064 4.824c0 1.826-.356 3.424-1.064 4.796a7.512 7.512 0 01-3.014 3.182 9 9 0 01-4.538 1.108c-1.722 0-3.24-.366-4.542-1.108v-.006a7.52 7.52 0 01-3.024-3.176 10.366 10.366 0 01-1.054-4.79c0-1.846.356-3.45 1.054-4.83a7.546 7.546 0 013.024-3.178c1.303-.742 2.813-1.111 4.535-1.111zm19.258.001c.906 0 1.823.131 2.746.393.92.265 1.742.624 2.46 1.077.769.527 1.145 1.138 1.145 1.84 0 .4-.1.745-.319 1.014a1 1 0 01-.826.412 1.48 1.48 0 01-.644-.16 9.194 9.194 0 01-.826-.48 10.02 10.02 0 00-1.668-.88 5.071 5.071 0 00-1.856-.312c-1.625 0-2.887.55-3.79 1.658-.89 1.1-1.343 2.628-1.343 4.592 0 1.967.44 3.474 1.333 4.538.883 1.067 2.142 1.6 3.766 1.6.719 0 1.35-.107 1.9-.321a10.183 10.183 0 001.692-.863c.261-.168.527-.309.792-.43.262-.12.5-.174.715-.174.335 0 .61.13.829.406.211.275.322.618.322 1.02 0 .34-.094.645-.272.92-.178.275-.48.557-.916.846a8.634 8.634 0 01-2.51 1.114 11.04 11.04 0 01-2.908.39c-1.698 0-3.192-.366-4.474-1.108v-.007a7.616 7.616 0 01-2.98-3.158 10.205 10.205 0 01-1.058-4.74c0-1.816.37-3.42 1.094-4.806a7.89 7.89 0 013.072-3.233c1.319-.765 2.826-1.148 4.524-1.148zm-57.704-7.544c.523 0 .953.152 1.292.45.336.3.5.735.5 1.31v22.187c0 .574-.164 1.01-.5 1.299-.34.285-.769.423-1.292.423-.527 0-.964-.138-1.31-.423-.345-.289-.52-.725-.52-1.3V25.826c0-.574.172-1.01.517-1.309.35-.298.786-.45 1.313-.45zm6.715 0c.523 0 .953.152 1.292.45.335.3.5.735.5 1.31v22.187c0 .574-.165 1.01-.5 1.299-.339.285-.769.423-1.292.423-.527 0-.963-.138-1.31-.423-.345-.289-.523-.725-.523-1.3V25.826c0-.574.174-1.01.517-1.309.353-.298.789-.45 1.316-.45zm-40.06 7.938c.31.191.534.48.679.863l4.743 12.063 4.628-12.14c.266-.712.752-1.071 1.47-1.071.46 0 .863.154 1.226.466.356.306.537.695.537 1.145 0 .245-.05.46-.145.65l-5.958 14.538c-.13.366-.386.682-.718.887a2.117 2.117 0 01-2.188 0 1.704 1.704 0 01-.719-.88l-4.669-11.53-4.561 11.53a1.725 1.725 0 01-.702.88 2.144 2.144 0 01-2.185 0 1.86 1.86 0 01-.775-.88L.3 33.981a1.446 1.446 0 01.45-1.796 2.07 2.07 0 011.31-.466c.718 0 1.204.345 1.476 1.04l4.629 12.242 4.736-12.134c.144-.383.376-.672.684-.863a1.846 1.846 0 011.978 0zm71.791 2.512c-1.577 0-2.796.534-3.659 1.601-.859 1.064-1.292 2.605-1.292 4.613 0 2.034.426 3.578 1.275 4.628.853 1.057 2.075 1.581 3.676 1.581 1.608 0 2.833-.524 3.682-1.58v.006c.85-1.057 1.276-2.601 1.276-4.635 0-2.008-.433-3.549-1.293-4.613-.862-1.067-2.084-1.6-3.665-1.6zm-19.204-.002c-1.581 0-2.803.533-3.676 1.598-.88 1.067-1.316 2.584-1.316 4.541 0 1.964.447 3.505 1.333 4.612.883 1.115 2.101 1.669 3.659 1.669 1.554 0 2.769-.538 3.628-1.608.863-1.081 1.293-2.609 1.293-4.596s-.424-3.52-1.276-4.595c-.85-1.08-2.068-1.621-3.645-1.621zm-30.625-.247c-1.383 0-2.497.443-3.336 1.323v.003c-.84.886-1.337 2.128-1.51 3.733h9.263c-.067-1.621-.483-2.874-1.235-3.75-.758-.872-1.816-1.309-3.182-1.309zm79.12-4.197a1.969 1.969 0 011.719.977l-.007-.007c.174.299.265.634.265 1.007a1.975 1.975 0 01-.976 1.722 1.973 1.973 0 01-1 .258 1.979 1.979 0 01-1.723-.976 1.98 1.98 0 01-.258-1.004c-.02-.708.356-1.37.976-1.712a1.95 1.95 0 011.004-.265zm0 .305a1.64 1.64 0 00-.849.215c-.252.151-.447.35-.59.604a1.725 1.725 0 00-.216.853c0 .315.071.598.215.856.144.258.34.456.591.6.252.145.534.219.85.219.311 0 .597-.074.845-.218h.003c.249-.145.444-.343.588-.601a1.72 1.72 0 00.211-.863c0-.312-.067-.594-.211-.846a1.571 1.571 0 00-.59-.604 1.698 1.698 0 00-.847-.215zm.155.504c.278 0 .483.06.634.191.148.124.218.306.218.527a.7.7 0 01-.144.45.71.71 0 01-.403.238.617.617 0 01.346.252l.195.275a.29.29 0 01.07.175c0 .077-.037.13-.097.184a.355.355 0 01-.216.067.302.302 0 01-.264-.137l-.44-.631a.315.315 0 00-.087-.1.194.194 0 00-.121-.031h-.148v.59c0 .098-.03.172-.08.232a.297.297 0 01-.218.077.307.307 0 01-.233-.077.346.346 0 01-.077-.231v-1.762c0-.091.02-.168.071-.212.047-.054.118-.077.208-.077h.786zm-.081.466h-.383v.544h.38c.127 0 .218-.023.268-.064.06-.037.08-.114.08-.204 0-.104-.026-.175-.08-.222-.057-.037-.14-.054-.265-.054z" id="a"/></defs><g transform="translate(0 -24)" fill="none" fill-rule="evenodd"><mask id="b" fill="#fff"><use xlink:href="#a"/></mask><use fill="#0B78E3" xlink:href="#a"/><path fill="#1579D9" mask="url(#b)" d="M0 24h119v26H0z"/></g></svg>