<svg width="144" height="36" xmlns="http://www.w3.org/2000/svg" xmlns:xlink="http://www.w3.org/1999/xlink"><defs><path id="a" d="M.022.27h122.771v35.71H.022z"/></defs><g fill="none" fill-rule="evenodd"><mask id="b" fill="#fff"><use xlink:href="#a"/></mask><path d="M11.829 27.851c-.714.541-2.196 1.323-3.292 1.709-.083 2.335.642 4.283 2.158 5.422 1.622 1.215 3.909 1.32 6.341.434 2.421-.882 4.96-2.752 6.986-5.397v-.002c.303-.39.711-1.016.84-1.185-4.246 2.335-8.98 2.566-13.033-.98" fill="#2DB7C4" mask="url(#b)"/><path d="M15.97 15.843c.229-.191.454-.487.206-.73-.18-.178-.491-.206-1.03.121-1.485.897-2.145 1.506-3.412 2.843-.409.428-1.074.155-.432-.638 2.421-2.986 4.891-4.207 7.658-4.226.67-.006 1.056-.232 1.056-.505 0-.316-.374-.652-1.493-.603-1.579.075-3.492.279-6.107 1.987-.465.302-.868.105-.511-.299 1.139-1.28 4.165-2.295 7.032-2.25.334.009.613-.135.594-.42-.02-.31-.982-.665-3.56-.335-1.825.23-3.989.91-5.873 2.5-.414.35-.843-.072-.52-.394 1.936-1.906 5.013-2.746 7.649-2.65.314.01.628-.06.568-.398-.077-.474-1.328-.73-3.692-.375-2.318.344-5.096 2.067-6.57 3.38-.407.37-.776-.09-.419-.453 1.693-1.748 4.908-3.339 7.609-3.376.482-.01.882-.073.91-.375.02-.264-.254-.343-.505-.405-.962-.237-2.72-.161-4.454.49-2.455.925-5.033 2.856-7.112 5.564C1.478 17.002.291 19.97.048 22.557c-.246 2.591.454 4.768 2.076 5.983l6.634 4.972c-2.6-6.305 1.602-12.946 7.212-17.669" fill="#15233C" mask="url(#b)"/><path d="M24.064 8.422c.716-.544 2.192-1.325 3.295-1.715.082-2.329-.646-4.28-2.162-5.416C23.576.073 21.29-.031 18.857.854c-2.422.883-4.957 2.752-6.99 5.397v.003c-.3.389-.705 1.015-.836 1.184 4.242-2.332 8.976-2.569 13.033.984" fill="#2DB7C4" mask="url(#b)"/><path d="M19.923 20.426c-.23.197-.453.49-.205.735.18.175.49.2 1.03-.127 1.482-.893 2.142-1.502 3.412-2.839.409-.428 1.074-.152.432.634-2.425 2.986-4.891 4.21-7.66 4.23-.672.003-1.054.234-1.054.505 0 .315.374.651 1.493.6 1.576-.07 3.489-.279 6.107-1.988.465-.302.868-.1.511.3-1.142 1.28-4.165 2.297-7.032 2.252-.334-.006-.611.136-.594.42.02.308.98.666 3.56.336 1.822-.234 3.989-.913 5.873-2.504.414-.347.843.076.52.395-1.936 1.909-5.017 2.746-7.649 2.65-.317-.008-.625.06-.571.4.08.474 1.33.734 3.695.376 2.318-.344 5.096-2.067 6.566-3.381.414-.373.78.087.426.451-1.696 1.745-4.911 3.339-7.612 3.378-.485.009-.885.07-.908.372-.025.265.249.344.503.406.962.24 2.72.167 4.453-.487 2.456-.922 5.034-2.854 7.115-5.564 2.079-2.707 3.272-5.679 3.512-8.264.242-2.592-.454-4.763-2.079-5.978L27.135 2.76c2.601 6.305-1.604 12.942-7.212 17.666m122.473-6.936h-.422v.53h.422c.212 0 .337-.1.337-.264 0-.172-.125-.265-.337-.265m.269.755l.457.635h-.38l-.412-.581h-.356v.58h-.323v-1.677h.757c.397 0 .654.2.654.536 0 .273-.16.44-.397.507m-.354-1.601a1.44 1.44 0 00-1.46 1.446 1.43 1.43 0 001.451 1.438c.828 0 1.453-.648 1.453-1.446 0-.795-.62-1.438-1.444-1.438m-.009 3.045c-.91 0-1.613-.722-1.613-1.599 0-.874.71-1.607 1.622-1.607.907 0 1.615.725 1.615 1.599 0 .877-.713 1.607-1.624 1.607m-88.732-.206l-4.744 12.46h-1.353L41.97 12.212l-2.007-.85v-.72h7.509v.72l-2.01.85 2.606 7.596c.34.978.654 2.109.965 3.398l4.771-12.565h1.408l3.702 10.608.235.823.285.823.08.31 3.989-10.993-2.007-.85v-.72h5.966v.72l-2.032.85-6.204 15.73h-1.328l-3.6-10.195a41.615 41.615 0 01-.728-2.264m19.312 4.481c-.051-2.732-.65-3.812-2.164-3.812-1.616 0-2.501 1.466-2.501 4.25l4.665-.438zm3.443 1.312h-8.134c0 3.22 1.796 5.123 4.797 5.123.754 0 1.747-.127 2.94-.384l.186.95c-2.11.723-3.937 1.109-5.188 1.109-3.674 0-6.021-2.394-6.021-6.181 0-3.886 2.604-6.77 6.127-6.77 2.215 0 3.703.719 4.482 2.188.6 1.108.757 1.88.811 3.965zm3.228 4.918V11.981l-2.321-.618v-.722l5.454-1.026v16.58l2.318.9v.72h-7.64v-.72l2.19-.9m8.529-.001V11.981l-2.327-.618v-.722l5.453-1.026v16.58l2.318.9v.72h-7.64v-.72l2.196-.9m12.246.335h1.619c2.033 0 3.52-.542 4.56-1.65 1.304-1.419 1.984-3.373 1.984-5.738 0-2.268-.657-4.202-1.879-5.488-1.171-1.235-2.53-1.725-4.848-1.725h-1.436v14.6zm-3.389-.337V12.264l-2.184-.902v-.72h8.234c2.97 0 4.64.517 6.258 1.879 1.824 1.548 2.738 3.708 2.738 6.466 0 2.777-.914 5.044-2.661 6.64-1.696 1.52-3.809 2.188-6.86 2.188h-7.709v-.72l2.184-.902zm20.182-4.813c0 3.474 1.196 5.536 3.2 5.536 2.01 0 3.158-1.856 3.158-5.048 0-3.448-1.225-5.589-3.206-5.589-1.985 0-3.152 1.881-3.152 5.101m-3.495.536c0-4.066 2.735-6.792 6.806-6.792 3.96 0 6.541 2.495 6.541 6.335 0 4.016-2.738 6.742-6.803 6.742-3.937 0-6.544-2.52-6.544-6.285m25.917 3.327c-1.07.595-2.06 1.156-3.092 1.156-3.295 0-4.45-1.796-4.45-5.09 0-2.912 1.67-5.047 3.936-5.047.052 0 .386.02.646.189.48.321.762 1.057.762 1.057h2.187v-1.787c-1.51-.384-2.633-.567-3.749-.567-4.28 0-7.149 2.73-7.149 6.823 0 3.607 2.453 6.1 5.973 6.1 1.225 0 2.655-.387 3.469-.801a11.745 11.745 0 001.547-.953l-.08-1.08" fill="#15233C"/></g></svg>