<svg width="21" height="22" xmlns="http://www.w3.org/2000/svg"><path d="M10.425 21.297a10.17 10.17 0 0010.172-10.172A10.17 10.17 0 0010.425.953 10.17 10.17 0 00.253 11.125a10.17 10.17 0 0010.172 10.172zm0-9.188a3.61 3.61 0 110-7.218 3.61 3.61 0 010 7.218zm0 6.891a7.86 7.86 0 01-6.009-2.797c.771-1.452 2.28-2.453 4.04-2.453.099 0 .197.016.291.045a5.43 5.43 0 001.678.283 5.41 5.41 0 001.678-.283.986.986 0 01.29-.045c1.76 0 3.27 1 4.04 2.453A7.86 7.86 0 0110.426 19z" fill="#1579D9" fill-rule="evenodd"/></svg>