<?xml version="1.0" encoding="UTF-8"?>
<svg width="57px" height="36px" viewBox="0 0 57 36" version="1.1" xmlns="http://www.w3.org/2000/svg" xmlns:xlink="http://www.w3.org/1999/xlink">
    <title>icon/quote</title>
    <g id="Welldoc-Website" stroke="none" stroke-width="1" fill="none" fill-rule="evenodd">
        <g id="New-Home-Page" transform="translate(-109.000000, -7050.000000)" fill="#92E0FA">
            <g id="Group" transform="translate(107.000000, 7046.000000)">
                <g id="type-graphics/quote">
                    <path d="M15.0028409,40 C17.5293561,40 19.7945076,39.2321755 21.7982955,37.6965265 C23.9327652,35.9853748 25,33.8793419 25,31.3784278 C25,29.2285192 24.2050189,27.3967093 22.6150568,25.8829982 C21.0250947,24.369287 19.0975379,23.6124314 16.8323864,23.6124314 C16.2225379,23.6124314 15.3622159,23.7659963 14.2514205,24.0731261 C13.140625,24.3802559 12.3020833,24.5338208 11.7357955,24.5338208 C10.9517045,24.5338208 10.5596591,23.5027422 10.5596591,21.440585 C10.5596591,16.5703839 14.3276515,12.2705667 21.8636364,8.54113346 L21.8636364,8.54113346 L21.8636364,4 C15.9829545,5.79890311 11.2784091,8.51919561 7.75,12.1608775 C3.91666667,16.1535649 2,20.738574 2,25.9159049 C2,29.5137112 3.15435606,32.6946984 5.46306818,35.4588665 C7.98958333,38.4862888 11.1695076,40 15.0028409,40 Z M48.8721591,40 C51.4857955,40 53.827178,39.1553931 55.8963068,37.4661792 C57.9654356,35.7769653 59,33.6599634 59,31.1151737 C59,28.9652651 58.2267992,27.1553931 56.6803977,25.6855576 C55.1339962,24.2157221 53.2282197,23.4808044 50.9630682,23.4808044 C50.3096591,23.4808044 49.3948864,23.6563071 48.21875,24.0073126 C47.0426136,24.3583181 46.1714015,24.5338208 45.6051136,24.5338208 C44.7339015,24.5338208 44.2982955,23.5904936 44.2982955,21.7038391 C44.2982955,18.6764168 45.4090909,16.0658135 47.6306818,13.8720293 C49.155303,12.2925046 51.8560606,10.4716636 55.7329545,8.4095064 L55.7329545,8.4095064 L55.7329545,4 C49.7215909,5.75502742 44.9952652,8.47531993 41.5539773,12.1608775 C37.8513258,16.0658135 36,20.6946984 36,26.047532 C36,29.6453382 37.1325758,32.8043876 39.3977273,35.5246801 C41.8806818,38.5082267 45.0388258,40 48.8721591,40 Z" id="“"></path>
                </g>
            </g>
        </g>
    </g>
</svg>