<svg width="1440" height="2379" xmlns="http://www.w3.org/2000/svg"><defs><linearGradient x1="50%" y1="91.889%" x2="50%" y2="-42.076%" id="a"><stop stop-color="#0B78E3" offset="0%"/><stop stop-color="#6DD5FA" offset="100%"/></linearGradient></defs><path d="M975.316 6497.41c7.619 0 13.795 6.177 13.795 13.795 0 7.619-6.176 13.795-13.795 13.795-7.618 0-13.795-6.176-13.794-13.794 0-7.62 6.176-13.795 13.794-13.795zm705.918 0c7.618 0 13.794 6.177 13.794 13.795 0 7.619-6.176 13.795-13.795 13.795-7.618 0-13.794-6.176-13.794-13.794 0-7.62 6.176-13.795 13.795-13.795zm-325.513-29.742c7.619 0 13.794 6.177 13.794 13.795 0 7.619-6.176 13.795-13.794 13.795-7.619 0-13.795-6.176-13.795-13.795 0-7.618 6.176-13.795 13.795-13.795zm-490.33 0c7.62 0 13.795 6.177 13.795 13.795 0 7.619-6.176 13.795-13.795 13.795-7.618 0-13.794-6.176-13.794-13.795 0-7.618 6.176-13.795 13.795-13.795zm705.918 0c7.618 0 13.794 6.177 13.794 13.795 0 7.619-6.176 13.795-13.794 13.795-7.619 0-13.794-6.176-13.795-13.795 0-7.618 6.176-13.795 13.795-13.795zm490.33 0c7.618 0 13.794 6.177 13.794 13.795 0 7.619-6.176 13.795-13.795 13.795s-13.794-6.176-13.795-13.795c0-7.618 6.176-13.795 13.795-13.795zm-1030.52-.433c7.62 0 13.795 6.176 13.795 13.794 0 7.62-6.176 13.794-13.795 13.795-7.618 0-13.794-6.176-13.794-13.795 0-7.618 6.176-13.794 13.794-13.794zm705.917 0c7.62 0 13.795 6.176 13.795 13.794 0 7.62-6.176 13.794-13.795 13.795-7.618 0-13.794-6.176-13.794-13.795 0-7.618 6.176-13.794 13.794-13.794zm-1359.994-4.83c7.619 0 13.795 6.177 13.795 13.794 0 7.619-6.176 13.795-13.795 13.795-7.618 0-13.794-6.176-13.794-13.794 0-7.62 6.175-13.795 13.794-13.795zm-705.917 0c7.619 0 13.794 6.177 13.794 13.794 0 7.619-6.175 13.795-13.794 13.795-7.619 0-13.795-6.176-13.795-13.794 0-7.62 6.176-13.795 13.795-13.795zm1305.054-67.456c7.618 0 13.793 6.176 13.794 13.795v63.527c0 7.619-6.176 13.795-13.795 13.795-7.618 0-13.794-6.176-13.794-13.795v-63.527c0-7.619 6.176-13.795 13.795-13.795zm705.917 0c7.618 0 13.794 6.176 13.794 13.795v63.527c0 7.619-6.176 13.795-13.795 13.795-7.618 0-13.794-6.176-13.794-13.795v-63.527c0-7.619 6.177-13.795 13.795-13.795zm-218.126 37.799c7.62 0 13.795 6.176 13.795 13.795 0 7.618-6.176 13.794-13.795 13.794-7.618 0-13.794-6.176-13.794-13.794 0-7.619 6.176-13.795 13.794-13.795zm-215.588 0c7.62 0 13.795 6.176 13.795 13.795 0 7.618-6.176 13.794-13.795 13.795-7.618 0-13.794-6.177-13.794-13.795 0-7.619 6.176-13.795 13.794-13.795zm705.917 0c7.62 0 13.795 6.176 13.795 13.795 0 7.618-6.176 13.794-13.795 13.795-7.617 0-13.794-6.177-13.794-13.795 0-7.619 6.177-13.795 13.794-13.795zm-1196.852-.085c.767 0 1.52.062 2.253.182 6.842.814 12.148 6.636 12.148 13.698 0 7.618-6.176 13.794-13.795 13.794-.752 0-1.49-.06-2.209-.177-6.864-.794-12.192-6.626-12.192-13.702 0-7.619 6.176-13.795 13.795-13.795zm-490.33 0c7.619 0 13.795 6.176 13.795 13.795 0 7.618-6.176 13.794-13.795 13.795-7.618-.001-13.794-6.177-13.794-13.796 0-7.618 6.176-13.794 13.794-13.794zm-705.917 0c7.619 0 13.795 6.176 13.795 13.795 0 7.618-6.176 13.794-13.795 13.795-7.619-.001-13.795-6.177-13.795-13.796 0-7.618 6.176-13.794 13.795-13.794zm490.33 0c7.618 0 13.794 6.176 13.794 13.795 0 7.618-6.176 13.795-13.795 13.795-7.618 0-13.794-6.177-13.794-13.795 0-7.619 6.176-13.795 13.794-13.795zm381.315-.434c7.619 0 13.794 6.177 13.794 13.795 0 7.619-6.175 13.794-13.794 13.794-7.619 0-13.794-6.175-13.794-13.794 0-7.618 6.176-13.795 13.794-13.795zm-705.917 0c7.619 0 13.794 6.177 13.794 13.795 0 7.619-6.175 13.794-13.794 13.794-7.619 0-13.794-6.175-13.794-13.794 0-7.618 6.176-13.795 13.794-13.795zm2010.108-65.731c7.62 0 13.795 6.176 13.795 13.794v63.528c0 7.618-6.176 13.795-13.795 13.795-7.618 0-13.794-6.177-13.794-13.796v-63.527c0-7.618 6.176-13.794 13.794-13.794zm-705.917 0c7.62 0 13.795 6.176 13.795 13.794v63.528c0 7.618-6.176 13.795-13.795 13.795-7.618 0-13.794-6.177-13.794-13.796v-63.527c0-7.618 6.176-13.794 13.794-13.794zm1031.773-2152.322c7.484 0 13.57 5.998 13.736 13.46l.004.312v38.672c1.622 5.792 6.931 10.04 13.229 10.04 6.975.001 12.734-5.208 13.621-11.956l.038-.317v-11.746c0-7.606 6.152-13.771 13.74-13.771s13.74 6.165 13.74 13.78c0 35.847-.063 742.967-.11 1082.89v-.08c.047 339.924.11 1047.043.11 1082.89 0 7.615-6.152 13.78-13.74 13.78s-13.74-6.165-13.74-13.771v-11.746l-.038-.317c-.887-6.748-6.646-11.957-13.621-11.957-6.298 0-11.607 4.249-13.23 10.041v38.672l-.003.312c-.165 7.462-6.252 13.46-13.736 13.46-7.589 0-13.74-6.166-13.74-13.772v-87.46l-.023-.317c-.578-7.073-6.487-12.633-13.693-12.633-7.17 0-13.056 5.506-13.683 12.53v9.634l-.004.312c-.165 7.462-6.252 13.46-13.737 13.46-7.588 0-13.74-6.166-13.74-13.772v-49.766l-.086-.306c-1.692-5.684-6.947-9.83-13.168-9.83-6.14 0-11.338 4.036-13.1 9.605v17.857l-.003.312c-.165 7.462-6.252 13.46-13.737 13.46-7.588 0-13.74-6.166-13.74-13.772v-15.3l-.052-.314c-1.147-6.444-6.766-11.336-13.525-11.336-7.589 0-13.74 6.165-13.74 13.771v85.644l-.004.311c-.165 7.462-6.252 13.46-13.737 13.46-7.588 0-13.74-6.165-13.74-13.771v-125.304l-.111-.29c-2.02-5.086-6.976-8.68-12.77-8.68-7.176 0-13.065 5.512-13.686 12.542l.001 70.088-.003.311c-.166 7.462-6.253 13.46-13.737 13.46-7.589 0-13.74-6.165-13.74-13.771v-18.197l-.031-.32c-.753-6.891-6.58-12.255-13.657-12.255-7.176 0-13.065 5.513-13.685 12.544v41.63l-.003.312c-.166 7.462-6.252 13.46-13.737 13.46-7.589 0-13.74-6.166-13.74-13.772v-51.936l-.065-.309c-1.374-6.153-6.855-10.752-13.408-10.751-6.87 0-12.56 5.051-13.578 11.65v19.499l-.004.312c-.165 7.462-6.252 13.46-13.736 13.46-7.589 0-13.74-6.166-13.74-13.772v-28.419l-.12-.291c-2.093-4.928-6.968-8.384-12.648-8.384-5.961 0-11.035 3.807-12.937 9.126v48.463l-.004.312c-.165 7.461-6.252 13.46-13.737 13.46-7.588 0-13.74-6.166-13.74-13.772v-21.823l-.042-.313c-.972-6.651-6.687-11.758-13.593-11.758-6.299 0-11.607 4.248-13.23 10.04v76.968l-.003.312c-.165 7.47-6.252 13.467-13.736 13.467-7.589 0-13.74-6.165-13.74-13.771v-11.746l-.039-.317c-.887-6.748-6.646-11.957-13.62-11.957-6.299 0-11.607 4.248-13.23 10.041v38.672l-.004.312c-.165 7.462-6.251 13.46-13.736 13.46-7.589 0-13.74-6.166-13.74-13.772v-87.459l-.022-.317c-.579-7.074-6.488-12.634-13.693-12.634-7.17 0-13.057 5.506-13.684 12.53v9.634l-.004.312c-.165 7.462-6.251 13.46-13.736 13.46-7.589 0-13.74-6.165-13.74-13.772v-49.766l-.087-.306c-1.692-5.685-6.946-9.83-13.168-9.83-6.14 0-11.338 4.036-13.1 9.605v17.857l-.003.312c-.165 7.462-6.252 13.46-13.736 13.46-7.589 0-13.74-6.166-13.74-13.772v-15.3l-.052-.314c-1.148-6.444-6.767-11.336-13.526-11.336-5.985 0-11.075 3.836-12.96 9.188l.001 3.084c.012 44.607.02 79.035.021 95.426v5.237c0 7.614-6.15 13.78-13.74 13.78-7.588 0-13.74-6.166-13.74-13.772v-11.746l-.037-.317c-.887-6.748-6.647-11.957-13.621-11.957-6.298 0-11.607 4.249-13.23 10.041v38.672l-.003.312c-.166 7.462-6.252 13.46-13.737 13.46-7.588 0-13.74-6.166-13.74-13.772v-87.46l-.022-.317c-.578-7.073-6.487-12.633-13.693-12.633-7.17 0-13.056 5.506-13.683 12.53l-.001 9.634-.004.312c-.164 7.462-6.251 13.46-13.736 13.46-7.588 0-13.74-6.166-13.74-13.772v-49.766l-.087-.306c-1.691-5.684-6.946-9.83-13.168-9.83-6.14 0-11.338 4.036-13.1 9.605v17.857l-.003.312c-.165 7.462-6.252 13.46-13.736 13.46-7.589 0-13.74-6.166-13.74-13.772v-15.3l-.052-.314c-1.148-6.444-6.767-11.336-13.526-11.336-7.588 0-13.74 6.165-13.74 13.771v85.644l-.003.311c-.166 7.462-6.252 13.46-13.737 13.46-7.588 0-13.74-6.165-13.74-13.771v-125.304l-.111-.29c-2.02-5.086-6.976-8.68-12.77-8.68-7.176 0-13.066 5.512-13.686 12.542l.001 70.088-.003.311c-.166 7.462-6.253 13.46-13.738 13.46-7.588 0-13.74-6.165-13.74-13.771v-18.197l-.03-.32c-.753-6.891-6.58-12.255-13.657-12.255-7.176 0-13.065 5.513-13.685 12.544v41.631l-.003.311c-.166 7.462-6.253 13.46-13.738 13.46-7.588 0-13.74-6.166-13.74-13.772v-51.936l-.065-.309c-1.373-6.153-6.854-10.752-13.407-10.751-6.87 0-12.56 5.051-13.578 11.65v19.499l-.004.312c-.166 7.462-6.252 13.46-13.736 13.46-7.589 0-13.74-6.166-13.74-13.772v-28.419l-.12-.291c-2.093-4.928-6.968-8.384-12.648-8.384-5.962 0-11.036 3.807-12.937 9.126v48.463l-.004.312c-.165 7.461-6.252 13.46-13.737 13.46-7.588 0-13.74-6.166-13.74-13.772v-21.823l-.042-.313c-.972-6.651-6.688-11.758-13.594-11.758-6.298 0-11.606 4.248-13.229 10.04v76.976l-.003.311c-.166 7.462-6.252 13.46-13.737 13.46-7.588 0-13.74-6.165-13.74-13.771v-11.746l-.038-.317c-.887-6.748-6.646-11.957-13.62-11.957-6.299 0-11.607 4.248-13.23 10.041v38.664l-.004.312c-.165 7.47-6.252 13.468-13.736 13.468-7.589 0-13.74-6.166-13.74-13.772v-87.459l-.023-.317c-.578-7.074-6.487-12.634-13.693-12.634-7.17 0-13.056 5.506-13.683 12.53v9.634l-.008.464c-.02.615-.08 1.22-.179 1.812v16.263c0 7.614-6.151 13.78-13.74 13.78-7.587 0-13.74-6.166-13.74-13.772v-11.745l-.037-.318c-.887-6.748-6.647-11.957-13.621-11.956-6.299 0-11.607 4.248-13.23 10.04v38.673l-.007.452a13.727 13.727 0 01-1.713 6.225c-2.117 4.898-6.992 8.325-12.667 8.325-7.618 0-13.794-6.177-13.794-13.795v-35.78c0-1.52.246-2.984.7-4.352v-48.535l-.021-.317c-.578-7.073-6.487-12.633-13.693-12.633-5.42 0-10.105 3.144-12.342 7.712a13.807 13.807 0 00-.54 3.838v85.644l-.004.311c-.165 7.463-6.252 13.46-13.737 13.46-5.714 0-10.612-3.496-12.684-8.471l-.046-73.491a13.735 13.735 0 01-1.811-6.84v-49.765l-.087-.306c-1.691-5.685-6.947-9.83-13.168-9.83-6.14 0-11.337 4.035-13.1 9.604l.001 17.858-.003.311c-.166 7.462-6.253 13.46-13.737 13.46-7.588 0-13.74-6.165-13.74-13.771v-15.301l-.052-.313c-1.148-6.445-6.767-11.337-13.526-11.337-7.588 0-13.74 6.166-13.74 13.771v85.644l-.003.312c-.166 7.462-6.253 13.46-13.737 13.46-7.588 0-13.74-6.166-13.74-13.772V6244.52l-.112-.29c-2.02-5.085-6.976-8.68-12.77-8.68-7.175 0-13.064 5.512-13.685 12.543v70.087l-.003.312c-.165 7.462-6.252 13.46-13.737 13.46-7.588 0-13.74-6.166-13.74-13.772v-18.197l-.03-.319c-.754-6.892-6.58-12.256-13.658-12.256-7.175 0-13.065 5.513-13.684 12.544v41.63l-.004.313c-.165 7.461-6.252 13.46-13.737 13.46-7.588 0-13.74-6.167-13.74-13.773v-51.936l-.065-.309c-1.374-6.152-6.854-10.751-13.408-10.75-6.869 0-12.56 5.05-13.578 11.65v19.499l-.004.312c-.164 7.462-6.251 13.46-13.736 13.46-7.588 0-13.74-6.166-13.74-13.772v-28.418l-.12-.292c-2.093-4.927-6.967-8.383-12.648-8.383-5.96 0-11.035 3.806-12.937 9.125v48.463l-.003.312c-.166 7.462-6.253 13.46-13.737 13.46-7.588 0-13.74-6.166-13.74-13.772v-21.823l-.042-.313c-.972-6.65-6.688-11.758-13.593-11.758-6.3 0-11.607 4.248-13.23 10.041v76.967l-.004.312c-.165 7.47-6.251 13.468-13.736 13.468-7.588 0-13.74-6.166-13.74-13.772v-11.745l-.038-.318c-.887-6.747-6.647-11.956-13.62-11.956-6.3 0-11.608 4.247-13.23 10.04v38.673l-.004.312c-.165 7.461-6.252 13.46-13.736 13.46-7.59 0-13.741-6.166-13.741-13.772v-87.46l-.022-.317c-.578-7.073-6.487-12.633-13.693-12.633-7.17 0-13.057 5.506-13.684 12.529v9.635l-.003.311c-.166 7.462-6.252 13.46-13.736 13.46-7.59 0-13.74-6.165-13.74-13.771v-49.766l-.088-.306c-1.691-5.686-6.946-9.83-13.168-9.83-6.139 0-11.337 4.035-13.099 9.604v17.858l-.003.311c-.166 7.462-6.253 13.46-13.736 13.46-7.59 0-13.74-6.165-13.74-13.771v-15.301l-.053-.313c-1.147-6.445-6.767-11.337-13.526-11.337-5.985 0-11.075 3.836-12.96 9.188.012 42.372.02 75.906.022 94.074v9.673c0 7.614-6.15 13.78-13.739 13.78-7.588 0-13.74-6.166-13.74-13.772v-11.745l-.038-.318c-.886-6.748-6.647-11.957-13.62-11.956-6.299 0-11.607 4.248-13.23 10.04v38.673l-.003.312c-.166 7.461-6.253 13.46-13.737 13.46-7.588 0-13.74-6.166-13.74-13.772v-87.46l-.022-.317c-.579-7.073-6.488-12.633-13.694-12.633-7.17 0-13.056 5.506-13.683 12.529v9.635l-.004.311c-.165 7.462-6.252 13.46-13.737 13.46-7.588 0-13.74-6.165-13.74-13.771v-49.766l-.086-.306c-1.692-5.685-6.947-9.83-13.168-9.83-6.14 0-11.338 4.035-13.1 9.604v17.858l-.003.311c-.165 7.462-6.252 13.46-13.736 13.46-7.59 0-13.74-6.165-13.74-13.771v-15.301l-.052-.313c-1.148-6.445-6.767-11.337-13.527-11.337-7.587 0-13.74 6.166-13.74 13.771v85.644l-.003.312c-.165 7.462-6.252 13.46-13.736 13.46-7.589 0-13.74-6.166-13.74-13.772V6244.52l-.112-.29c-2.02-5.085-6.976-8.68-12.77-8.68-7.175 0-13.065 5.512-13.685 12.543v70.087l-.003.312c-.165 7.462-6.252 13.46-13.737 13.46-7.589 0-13.74-6.166-13.74-13.772v-18.197l-.031-.319c-.753-6.892-6.58-12.256-13.657-12.256-7.175 0-13.065 5.513-13.685 12.544v41.63l-.003.313c-.166 7.461-6.253 13.46-13.737 13.46-7.588 0-13.74-6.167-13.74-13.773v-51.936l-.065-.309c-1.374-6.152-6.855-10.751-13.408-10.75-6.869 0-12.56 5.05-13.578 11.65v19.499l-.004.312c-.165 7.462-6.251 13.46-13.736 13.46-7.588 0-13.74-6.166-13.74-13.772v-28.418l-.12-.292c-2.093-4.927-6.968-8.383-12.648-8.383-5.961 0-11.035 3.806-12.937 9.125v48.463l-.003.312c-.166 7.462-6.253 13.46-13.737 13.46-7.588 0-13.74-6.166-13.74-13.772v-21.823l-.042-.313c-.972-6.65-6.689-11.758-13.594-11.758-6.298 0-11.606 4.248-13.23 10.041v76.975l-.003.312c-.165 7.462-6.252 13.46-13.737 13.46-7.587 0-13.74-6.166-13.74-13.772v-11.745l-.038-.318c-.886-6.747-6.646-11.956-13.62-11.956-6.298 0-11.607 4.247-13.23 10.04v38.664l-.004.313c-.164 7.47-6.251 13.467-13.736 13.467-7.588 0-13.74-6.165-13.74-13.771v-87.46l-.022-.317c-.578-7.073-6.487-12.633-13.693-12.633-7.17 0-13.057 5.506-13.684 12.529v9.635l-.003.311c-.166 7.462-6.253 13.46-13.737 13.46-7.588 0-13.74-6.165-13.74-13.771v-49.766l-.087-.306c-1.691-5.686-6.946-9.83-13.168-9.83-6.14 0-11.337 4.035-13.1 9.604l.001 17.858-.003.311c-.166 7.462-6.253 13.46-13.737 13.46-7.589 0-13.74-6.165-13.74-13.771v-15.301l-.052-.313c-1.148-6.445-6.767-11.337-13.526-11.337-7.588 0-13.74 6.166-13.74 13.771v85.644l-.003.312c-.165 7.462-6.252 13.46-13.737 13.46-5.714 0-10.613-3.497-12.685-8.472l-.551-883.1H-613l.098-156.525-.098-156.525.195-.001.551-883.1c2.072-4.974 6.97-8.471 12.685-8.471 7.485 0 13.572 5.998 13.737 13.46l.003.312v85.644c0 7.605 6.152 13.771 13.74 13.771 6.76 0 12.378-4.892 13.526-11.337l.052-.313v-15.3c0-7.607 6.151-13.773 13.74-13.772 7.484 0 13.571 5.998 13.737 13.46l.003.311v17.858c1.762 5.569 6.96 9.605 13.1 9.605 6.22 0 11.476-4.145 13.167-9.83l.087-.307V4341.2c0-7.606 6.152-13.771 13.74-13.772 7.484 0 13.571 5.999 13.737 13.46l.003.312v9.635c.627 7.023 6.514 12.529 13.684 12.53 7.206 0 13.115-5.56 13.693-12.634l.022-.318v-87.459c0-7.606 6.152-13.771 13.74-13.771 7.485 0 13.572 5.998 13.736 13.467l.004.313v38.663c1.623 5.794 6.932 10.041 13.23 10.041 6.974 0 12.734-5.209 13.62-11.956l.038-.318v-11.745c0-7.606 6.153-13.772 13.74-13.772 7.485 0 13.572 5.998 13.737 13.46l.004.312v76.975c1.623 5.793 6.93 10.04 13.229 10.04 6.905 0 12.622-5.106 13.594-11.757l.042-.313v-21.823c0-7.606 6.152-13.772 13.74-13.772 7.484 0 13.571 5.998 13.737 13.46l.003.312v48.463c1.902 5.319 6.976 9.125 12.937 9.125 5.68 0 10.555-3.456 12.648-8.383l.12-.292v-28.418c0-7.606 6.152-13.772 13.74-13.772 7.485 0 13.571 5.998 13.736 13.46l.004.312v19.497c1.018 6.6 6.71 11.65 13.578 11.65 6.553.001 12.034-4.598 13.408-10.75l.065-.31v-51.935c0-7.606 6.152-13.772 13.74-13.772 7.484 0 13.571 5.998 13.737 13.46l.004.311v41.63c.62 7.032 6.509 12.545 13.684 12.545 7.077 0 12.904-5.364 13.657-12.256l.031-.32v-18.196c0-7.606 6.151-13.772 13.74-13.772 7.485 0 13.572 5.998 13.737 13.46l.004.312-.001 70.087c.62 7.03 6.51 12.543 13.685 12.543 5.794 0 10.75-3.595 12.77-8.68l.111-.29v-125.304c0-7.606 6.152-13.772 13.74-13.772 7.485 0 13.572 5.998 13.737 13.46l.004.312v85.644c0 7.605 6.152 13.771 13.74 13.771 6.759 0 12.378-4.892 13.526-11.337l.052-.313v-15.3c0-7.607 6.15-13.772 13.74-13.772 7.484 0 13.57 5.998 13.736 13.46l.003.311v17.858c1.762 5.569 6.96 9.605 13.1 9.605 6.221 0 11.476-4.146 13.168-9.83l.087-.307V4341.2c0-7.606 6.151-13.771 13.74-13.771 7.484 0 13.571 5.998 13.736 13.46l.003.311.001 9.635c.627 7.023 6.513 12.53 13.683 12.53 7.206 0 13.115-5.56 13.694-12.634l.022-.317v-87.46c0-7.606 6.152-13.771 13.74-13.771 7.484 0 13.57 5.998 13.737 13.46l.003.311v38.672c1.623 5.793 6.931 10.041 13.23 10.041 6.973 0 12.734-5.208 13.62-11.956l.038-.318v-11.745c0-7.606 6.152-13.772 13.74-13.772 7.589 0 13.74 6.166 13.74 13.78v9.673c-.003 18.168-.011 51.702-.022 94.074 1.884 5.352 6.974 9.188 12.96 9.188 6.758 0 12.378-4.892 13.525-11.337l.052-.313v-15.3c0-7.607 6.152-13.773 13.74-13.772 7.484 0 13.571 5.998 13.737 13.46l.003.311v17.858c1.762 5.569 6.96 9.605 13.1 9.605 6.221 0 11.476-4.145 13.167-9.83l.088-.307V4341.2c0-7.606 6.15-13.771 13.74-13.772 7.484 0 13.57 5.999 13.736 13.46l.003.312v9.635c.627 7.023 6.514 12.529 13.684 12.53 7.206 0 13.115-5.56 13.693-12.634l.023-.318-.001-87.459c0-7.606 6.152-13.771 13.74-13.771 7.485 0 13.572 5.998 13.737 13.46l.003.311v38.672c1.623 5.794 6.932 10.041 13.23 10.041 6.974 0 12.734-5.209 13.62-11.956l.039-.318v-11.745c0-7.606 6.152-13.772 13.74-13.772 7.485 0 13.571 5.998 13.736 13.468l.004.312v76.967c1.623 5.793 6.93 10.04 13.23 10.04 6.905 0 12.62-5.106 13.593-11.757l.042-.313v-21.823c0-7.606 6.152-13.772 13.74-13.772 7.484 0 13.571 5.998 13.737 13.46l.003.312v48.463c1.902 5.319 6.976 9.125 12.937 9.125 5.68 0 10.555-3.456 12.648-8.383l.12-.292v-28.418c0-7.606 6.152-13.772 13.74-13.772 7.485 0 13.572 5.998 13.736 13.46l.004.312v19.497c1.018 6.6 6.71 11.65 13.578 11.65 6.554.001 12.034-4.598 13.408-10.75l.065-.31v-51.935c0-7.606 6.152-13.772 13.74-13.772 7.485 0 13.572 5.998 13.737 13.46l.004.311v41.63c.62 7.032 6.509 12.545 13.684 12.545 7.077 0 12.904-5.364 13.657-12.256l.031-.32v-18.196c0-7.606 6.152-13.772 13.74-13.772 7.485 0 13.572 5.998 13.737 13.46l.004.312-.001 70.087c.62 7.03 6.51 12.543 13.685 12.543 5.794 0 10.75-3.595 12.77-8.68l.112-.29v-125.304c0-7.606 6.152-13.772 13.74-13.772 7.484 0 13.571 5.998 13.737 13.46l.003.312v85.644c0 7.605 6.152 13.771 13.74 13.771 6.76 0 12.378-4.892 13.526-11.337l.052-.313v-15.3c0-7.607 6.152-13.772 13.74-13.772 7.484 0 13.571 5.998 13.737 13.46l.003.311v17.858c1.762 5.569 6.96 9.605 13.1 9.605 6.22 0 11.476-4.146 13.167-9.83l.087-.307V4341.2c0-2.489.659-4.824 1.811-6.839l.046-73.491c2.072-4.975 6.97-8.472 12.684-8.472 7.485 0 13.572 5.998 13.737 13.46l.003.312v85.644c0 1.332.19 2.62.541 3.838 2.237 4.568 6.923 7.712 12.342 7.712 7.206 0 13.115-5.56 13.693-12.633l.022-.317v-48.535a13.78 13.78 0 01-.701-4.352v-35.78c0-7.618 6.176-13.795 13.794-13.795 5.675 0 10.55 3.427 12.667 8.325a13.727 13.727 0 011.713 6.225l.007.452v38.672c1.623 5.793 6.931 10.041 13.23 10.041 6.974 0 12.734-5.208 13.62-11.956l.039-.318v-11.745c0-7.606 6.152-13.772 13.74-13.772s13.74 6.166 13.74 13.78l-.001 11.016v5.247c.098.592.159 1.197.179 1.812l.008.464v9.635c.627 7.023 6.513 12.528 13.683 12.529 7.206 0 13.115-5.56 13.693-12.634l.022-.317v-87.46c0-7.605 6.152-13.771 13.74-13.771 7.485 0 13.572 5.998 13.737 13.468l.003.312v38.664c1.624 5.793 6.932 10.04 13.23 10.04 6.975 0 12.734-5.208 13.62-11.956l.039-.317v-11.746c0-7.606 6.152-13.771 13.74-13.771 7.485 0 13.571 5.998 13.737 13.46l.003.311v76.975c1.623 5.793 6.931 10.041 13.23 10.041 6.905 0 12.621-5.107 13.593-11.758l.042-.313v-21.823c0-7.606 6.152-13.771 13.74-13.771 7.485 0 13.572 5.998 13.737 13.46l.004.311v48.463c1.901 5.32 6.975 9.126 12.937 9.126 5.68 0 10.555-3.456 12.648-8.384l.12-.291v-28.419c0-7.606 6.151-13.771 13.74-13.772 7.484 0 13.57 5.998 13.736 13.46l.003.312v19.498c1.018 6.6 6.71 11.651 13.579 11.651 6.553 0 12.034-4.598 13.407-10.751l.065-.31v-51.935c0-7.606 6.152-13.772 13.74-13.772 7.485 0 13.572 5.998 13.738 13.46l.003.311v41.631c.62 7.03 6.51 12.544 13.685 12.544 7.076 0 12.904-5.364 13.657-12.256l.03-.32v-18.196c0-7.606 6.152-13.772 13.74-13.771 7.485 0 13.572 5.998 13.738 13.46l.003.311v70.088c.62 7.03 6.51 12.543 13.684 12.543 5.795 0 10.75-3.595 12.77-8.681l.112-.29V4266.17c0-7.606 6.152-13.772 13.74-13.772 7.485 0 13.571 5.999 13.737 13.46l.003.312v85.644c0 7.606 6.152 13.771 13.74 13.771 6.76 0 12.378-4.892 13.526-11.336l.052-.313v-15.301c0-7.606 6.151-13.772 13.74-13.772 7.484 0 13.571 5.998 13.736 13.46l.004.312v17.857c1.761 5.569 6.96 9.605 13.1 9.605 6.22 0 11.476-4.146 13.167-9.83l.087-.306v-49.766c0-7.606 6.152-13.772 13.74-13.772 7.485 0 13.572 5.998 13.736 13.46l.004.312v9.635c.628 7.023 6.514 12.529 13.684 12.529 7.206 0 13.115-5.56 13.693-12.633l.022-.318v-87.46c0-7.605 6.152-13.771 13.74-13.771 7.485 0 13.571 5.998 13.737 13.46l.004.312v38.672c1.622 5.792 6.93 10.04 13.229 10.04 6.974.001 12.734-5.208 13.62-11.956l.039-.317v-11.746c0-7.606 6.151-13.771 13.74-13.771 7.588 0 13.74 6.165 13.74 13.78l-.001 5.236c-.002 16.391-.01 50.82-.021 95.426v3.084c1.884 5.352 6.974 9.188 12.959 9.188 6.759 0 12.378-4.892 13.526-11.336l.052-.313v-15.301c0-7.606 6.151-13.772 13.74-13.772 7.484 0 13.57 5.998 13.736 13.46l.004.312v17.857c1.761 5.569 6.96 9.605 13.099 9.605 6.222 0 11.476-4.145 13.168-9.83l.087-.306v-49.766c0-7.607 6.151-13.772 13.74-13.772 7.485 0 13.57 5.998 13.736 13.46l.004.312v9.635c.627 7.023 6.514 12.528 13.684 12.529 7.205 0 13.114-5.56 13.693-12.634l.022-.317v-87.46c0-7.605 6.151-13.771 13.74-13.771 7.485 0 13.571 5.998 13.736 13.46l.004.312v38.672c1.623 5.793 6.931 10.04 13.23 10.04 6.974 0 12.733-5.208 13.62-11.956l.038-.317v-11.746c0-7.606 6.152-13.771 13.74-13.771 7.485 0 13.572 5.998 13.737 13.467l.003.312v76.967c1.623 5.793 6.931 10.041 13.23 10.041 6.906 0 12.621-5.107 13.593-11.758l.042-.313v-21.823c0-7.606 6.152-13.771 13.74-13.771 7.485 0 13.572 5.998 13.737 13.46l.004.311v48.463c1.902 5.32 6.976 9.126 12.937 9.126 5.68 0 10.555-3.456 12.648-8.384l.12-.291v-28.419c0-7.606 6.151-13.771 13.74-13.772 7.484 0 13.571 5.998 13.736 13.46l.003.312v19.498c1.018 6.6 6.71 11.651 13.579 11.651 6.553 0 12.034-4.598 13.408-10.751l.065-.31v-51.935c0-7.606 6.151-13.772 13.74-13.772 7.485 0 13.571 5.998 13.737 13.46l.003.311v41.631c.62 7.03 6.51 12.544 13.685 12.544 7.077 0 12.904-5.364 13.657-12.256l.03-.32v-18.196c0-7.606 6.152-13.772 13.74-13.771 7.485 0 13.572 5.998 13.738 13.46l.003.311v70.088c.62 7.03 6.51 12.543 13.684 12.543 5.795 0 10.751-3.595 12.77-8.681l.112-.29V4266.17c0-7.606 6.152-13.772 13.74-13.772 7.485 0 13.572 5.999 13.737 13.46l.004.312v85.644c0 7.606 6.151 13.771 13.74 13.771 6.759 0 12.378-4.892 13.525-11.336l.052-.313v-15.301c0-7.606 6.152-13.772 13.74-13.772 7.485 0 13.572 5.998 13.737 13.46l.004.312-.001 17.857c1.762 5.569 6.96 9.605 13.1 9.605 6.22 0 11.476-4.146 13.168-9.83l.087-.306v-49.766c0-7.606 6.151-13.772 13.74-13.772 7.484 0 13.57 5.998 13.736 13.46l.004.312v9.635c.627 7.023 6.513 12.529 13.683 12.529 7.206 0 13.115-5.56 13.693-12.633l.022-.318v-87.46c0-7.605 6.152-13.771 13.74-13.771zM377.904 6359.944c7.619 0 13.795 6.175 13.795 13.794v63.528c0 7.618-6.176 13.795-13.795 13.795s-13.794-6.177-13.794-13.795v-63.528c0-7.619 6.176-13.794 13.794-13.794zm-705.917 0c7.619 0 13.794 6.175 13.795 13.794v63.528c0 7.618-6.177 13.795-13.795 13.795-7.619 0-13.794-6.177-13.794-13.795v-63.528c0-7.619 6.175-13.794 13.794-13.794zm1467.764 15.254c7.618 0 13.795 6.176 13.795 13.795v35.78c0 7.619-6.177 13.794-13.795 13.794-7.619 0-13.795-6.175-13.795-13.794v-35.78c0-7.619 6.176-13.795 13.795-13.795zm705.917 0c7.619 0 13.795 6.176 13.795 13.795v35.78c0 7.619-6.176 13.794-13.795 13.794-7.618 0-13.794-6.175-13.794-13.794v-35.78c0-7.619 6.176-13.795 13.794-13.795zm-1195.56 22.544c7.619 0 13.795 6.177 13.795 13.795 0 7.619-6.176 13.794-13.795 13.795-7.618 0-13.794-6.176-13.794-13.795 0-7.618 6.176-13.795 13.794-13.795zm-705.917 0c7.619 0 13.795 6.177 13.795 13.795 0 7.619-6.177 13.794-13.795 13.795-7.618 0-13.794-6.176-13.794-13.795 0-7.618 6.176-13.795 13.794-13.795zm-490.33 0c7.62 0 13.795 6.177 13.795 13.795 0 7.619-6.176 13.794-13.795 13.794-7.617 0-13.794-6.175-13.794-13.794 0-7.618 6.177-13.795 13.795-13.795zm705.918 0c7.619 0 13.795 6.177 13.795 13.795 0 7.619-6.177 13.794-13.795 13.794s-13.795-6.175-13.794-13.794c0-7.618 6.176-13.795 13.794-13.795zm1088.603-38.062c7.619 0 13.795 6.176 13.795 13.794v35.78c0 7.618-6.176 13.795-13.795 13.795-7.618 0-13.794-6.177-13.794-13.795v-35.772c0-7.626 6.176-13.802 13.794-13.802zm215.588 0c7.619 0 13.795 6.176 13.795 13.795v35.779c0 7.618-6.176 13.795-13.795 13.795-7.618 0-13.794-6.177-13.794-13.795v-35.772c0-7.626 6.176-13.803 13.794-13.803zm490.33 0c7.618 0 13.794 6.176 13.794 13.794v35.78c0 7.618-6.176 13.795-13.794 13.795-7.619 0-13.795-6.177-13.795-13.795v-35.78c0-7.618 6.177-13.794 13.794-13.794zm-2227.372-28.188c7.619 0 13.794 6.176 13.794 13.794v63.519c0 7.628-6.176 13.804-13.794 13.804-7.619 0-13.794-6.176-13.794-13.795v-63.528c0-7.618 6.175-13.794 13.794-13.794zm705.917 0c7.619 0 13.794 6.176 13.794 13.794v63.528c0 7.619-6.175 13.795-13.794 13.795-7.618 0-13.794-6.176-13.794-13.795v-63.528c0-7.618 6.176-13.794 13.794-13.794zm108.632 8.7c7.618 0 13.794 6.177 13.794 13.795v35.78c0 7.619-6.176 13.795-13.794 13.795s-13.795-6.176-13.795-13.794v-35.78c0-7.62 6.177-13.795 13.795-13.795zm-705.918 0c7.619 0 13.795 6.177 13.795 13.795v35.78c0 7.619-6.176 13.795-13.795 13.795-7.618 0-13.794-6.176-13.794-13.794v-35.78c0-7.62 6.176-13.795 13.794-13.795zm108.632-15.518c7.618 0 13.795 6.177 13.795 13.794v35.78c0 7.619-6.177 13.795-13.795 13.795s-13.794-6.176-13.794-13.795v-35.78c0-7.618 6.176-13.794 13.794-13.794zm215.588 0c7.618 0 13.795 6.176 13.794 13.795v35.78c0 7.618-6.176 13.794-13.794 13.794s-13.795-6.176-13.794-13.795v-35.78c0-7.618 6.176-13.795 13.794-13.795zm490.329 0c7.618 0 13.795 6.177 13.795 13.794v35.78c0 7.619-6.176 13.795-13.794 13.795-7.62 0-13.795-6.176-13.795-13.795v-35.78c0-7.618 6.176-13.794 13.794-13.794zm-1196.246 0c7.618 0 13.794 6.176 13.794 13.795v35.78c0 7.618-6.176 13.794-13.794 13.794s-13.795-6.176-13.795-13.795v-35.78c0-7.618 6.177-13.795 13.795-13.795zm1440.176 27.893c-7.618 0-13.794 6.176-13.794 13.794 0 7.62 6.176 13.795 13.794 13.795 7.619 0 13.794-6.176 13.794-13.795 0-7.618-6.176-13.794-13.794-13.794zm1194.758 0c-7.619 0-13.795 6.176-13.795 13.794 0 7.62 6.176 13.795 13.795 13.795s13.794-6.176 13.795-13.795c0-7.618-6.176-13.794-13.795-13.794zm-705.917 0c-7.619 0-13.795 6.176-13.795 13.794 0 7.62 6.176 13.795 13.795 13.795 7.618 0 13.794-6.176 13.794-13.795 0-7.618-6.176-13.794-13.794-13.794zm217.076 0c-7.618 0-13.794 6.176-13.794 13.794 0 7.62 6.176 13.795 13.794 13.795 7.619 0 13.794-6.176 13.794-13.795.001-7.618-6.175-13.794-13.794-13.794zM295.764 6317.56c-7.619 0-13.795 6.176-13.794 13.794 0 7.62 6.175 13.795 13.794 13.795 7.618 0 13.794-6.176 13.794-13.795 0-7.618-6.176-13.794-13.794-13.794zm-217.077 0c-7.618 0-13.794 6.176-13.794 13.794 0 7.62 6.176 13.795 13.795 13.795 7.618 0 13.794-6.176 13.794-13.795 0-7.617-6.176-13.794-13.795-13.794zm705.917 0a13.78 13.78 0 00-11.444 6.09v8.715l-.006.444a13.736 13.736 0 01-.946 4.604c2.243 4.582 6.951 7.736 12.397 7.736 7.618 0 13.794-6.176 13.794-13.795 0-7.617-6.176-13.794-13.795-13.794zm-1194.757 0c-7.619 0-13.795 6.176-13.795 13.794 0 7.62 6.176 13.795 13.794 13.795 7.62 0 13.795-6.176 13.795-13.795 0-7.618-6.176-13.794-13.794-13.794zm2447.22-15.862c-7.619 0-13.794 6.176-13.794 13.795 0 7.618 6.175 13.794 13.794 13.795 7.618-.001 13.794-6.177 13.794-13.795 0-7.62-6.176-13.795-13.794-13.795zm-705.918 0c-7.618 0-13.794 6.176-13.794 13.795 0 7.618 6.176 13.794 13.795 13.795 7.618-.001 13.794-6.177 13.794-13.795 0-7.62-6.176-13.795-13.795-13.795zm217.077 0c-7.619 0-13.795 6.176-13.794 13.795 0 7.618 6.175 13.794 13.794 13.794 7.619 0 13.795-6.176 13.795-13.794 0-7.62-6.176-13.795-13.795-13.795zm-705.917 0c-7.619 0-13.795 6.176-13.795 13.795 0 7.618 6.176 13.794 13.795 13.794 7.618 0 13.794-6.176 13.794-13.794 0-7.62-6.176-13.795-13.794-13.795zm106.907-47.204c-7.618 0-13.795 6.176-13.794 13.795v35.78l.003.312c.166 7.474 6.277 13.482 13.791 13.482 7.618 0 13.795-6.176 13.795-13.795v-35.78l-.004-.312c-.166-7.474-6.277-13.482-13.791-13.482zm705.918 0c-7.62 0-13.795 6.176-13.795 13.795v35.78l.003.312c.166 7.474 6.277 13.482 13.791 13.482 7.618 0 13.795-6.176 13.795-13.795v-35.78l-.004-.312c-.165-7.474-6.277-13.482-13.79-13.482zm-544.696-6.897c-7.619 0-13.795 6.176-13.795 13.795v35.78l.004.312c.166 7.474 6.277 13.482 13.791 13.482 7.618 0 13.794-6.176 13.794-13.795v-35.78l-.003-.312c-.166-7.474-6.277-13.482-13.79-13.482zm705.917 0c-7.619 0-13.795 6.176-13.795 13.795l.001 35.77v.01l.003.312c.166 7.474 6.277 13.482 13.791 13.482 7.619 0 13.794-6.176 13.794-13.795v-35.78l-.003-.312c-.166-7.474-6.277-13.482-13.79-13.482zm-758.94 26.945c-7.618 0-13.794 6.176-13.794 13.795 0 7.618 6.176 13.794 13.794 13.794 7.619 0 13.795-6.176 13.795-13.794 0-7.62-6.176-13.795-13.795-13.795zm705.918 0c-7.618 0-13.795 6.176-13.795 13.795 0 7.618 6.176 13.794 13.795 13.794 7.618 0 13.794-6.176 13.794-13.794 0-7.62-6.176-13.795-13.794-13.795zm-1736.375-7.85c-7.619 0-13.795 6.176-13.795 13.795 0 7.618 6.176 13.794 13.795 13.795 7.619 0 13.794-6.177 13.794-13.795 0-7.62-6.175-13.795-13.794-13.795zm-488.84 0c-7.62 0-13.795 6.176-13.795 13.795 0 7.618 6.176 13.794 13.794 13.794 7.619 0 13.795-6.176 13.795-13.794 0-7.62-6.176-13.795-13.795-13.795zm705.917 0c-7.619 0-13.795 6.176-13.795 13.795 0 7.618 6.176 13.794 13.795 13.794 7.618 0 13.794-6.176 13.795-13.794 0-7.62-6.177-13.795-13.795-13.795zm1193.404-66.16c-5.455 0-10.17 3.166-12.408 7.762l.02 75.635.148.29c2.3 4.415 6.918 7.43 12.24 7.43 7.62 0 13.795-6.176 13.795-13.794v-63.529l-.003-.312c-.166-7.474-6.277-13.482-13.792-13.482zm-704.564 66.16c-7.618 0-13.794 6.176-13.794 13.795 0 1.745.324 3.414.916 4.95a13.782 13.782 0 0011.525 6.212c7.619 0 13.795-6.176 13.795-13.794v-3.331c-2.224-4.633-6.96-7.832-12.442-7.832zm1193.405-66.16c-7.618 0-13.795 6.176-13.795 13.795v63.528l.004.312c.166 7.474 6.277 13.482 13.791 13.482 7.618 0 13.794-6.176 13.794-13.794v-63.528l-.003-.312c-.166-7.475-6.277-13.483-13.79-13.483zm-705.918 0c-7.618 0-13.794 6.176-13.794 13.795v63.528l.003.312c.166 7.474 6.277 13.482 13.791 13.482 7.62 0 13.795-6.176 13.795-13.794v-63.528l-.003-.312c-.166-7.475-6.278-13.483-13.792-13.483zm110.787 25.51c-7.618 0-13.794 6.176-13.794 13.795v35.78l.003.312c.166 7.475 6.277 13.482 13.791 13.482 7.619 0 13.795-6.176 13.795-13.793v-35.78l-.004-.313c-.166-7.474-6.276-13.483-13.791-13.483zm217.077 0c-7.619 0-13.794 6.177-13.794 13.795v35.78l.003.312c.166 7.475 6.277 13.483 13.79 13.483 7.62 0 13.796-6.177 13.796-13.795v-35.78l-.004-.312c-.166-7.474-6.277-13.483-13.79-13.483zm488.84 0c-7.618 0-13.793 6.176-13.794 13.795v35.78l.003.312c.166 7.475 6.278 13.482 13.792 13.482 7.618 0 13.794-6.176 13.794-13.793v-35.78l-.004-.313c-.166-7.474-6.276-13.483-13.79-13.483zm-1194.757 0c-7.619 0-13.795 6.177-13.795 13.795v35.78l.003.312c.167 7.475 6.278 13.483 13.792 13.483 7.618 0 13.794-6.177 13.794-13.795v-35.78l-.004-.312c-.165-7.474-6.276-13.483-13.79-13.483zm-491.367-6.553c-7.619 0-13.795 6.176-13.795 13.794v35.78l.004.312c.166 7.474 6.277 13.483 13.79 13.483 7.619 0 13.795-6.177 13.795-13.795v-35.78l-.003-.312c-.166-7.475-6.277-13.482-13.79-13.482zm-705.918 0c-7.618 0-13.794 6.176-13.794 13.794v35.78l.003.312c.166 7.474 6.277 13.483 13.791 13.483 7.619 0 13.795-6.177 13.795-13.795v-35.78l-.003-.312c-.166-7.475-6.277-13.482-13.792-13.482zm867.14-6.898c-7.62 0-13.795 6.176-13.795 13.795v35.78l.003.312c.166 7.474 6.278 13.482 13.792 13.482 7.618 0 13.794-6.175 13.794-13.794v-35.78l-.004-.312c-.166-7.475-6.276-13.483-13.79-13.483zm-705.917 0c-7.62 0-13.795 6.176-13.795 13.795v35.78l.003.312c.166 7.474 6.277 13.482 13.792 13.482 7.618 0 13.794-6.175 13.794-13.794v-35.78l-.004-.312c-.166-7.475-6.276-13.483-13.79-13.483zm-53.023 26.945c-7.619 0-13.794 6.177-13.795 13.795 0 7.619 6.176 13.795 13.795 13.795 7.618 0 13.795-6.176 13.795-13.795s-6.177-13.795-13.795-13.795zm705.917 0c-7.618 0-13.794 6.177-13.794 13.795 0 7.619 6.176 13.795 13.794 13.795 7.619 0 13.795-6.176 13.795-13.795s-6.176-13.795-13.795-13.795zm-542.97-74.01c-7.618 0-13.794 6.177-13.795 13.795v63.528l.004.312c.166 7.475 6.277 13.482 13.791 13.482 7.619 0 13.795-6.175 13.795-13.794v-63.528l-.004-.312c-.166-7.474-6.277-13.483-13.791-13.483zm217.077 0c-5.455 0-10.17 3.167-12.408 7.762l.02 75.636.147.29c2.301 4.414 6.918 7.43 12.24 7.43 7.62 0 13.796-6.176 13.796-13.795v-63.528l-.004-.313c-.166-7.473-6.277-13.482-13.791-13.482zm-705.917 0c-7.62 0-13.795 6.177-13.795 13.795v63.528l.003.312c.166 7.475 6.277 13.482 13.792 13.482 7.618 0 13.794-6.175 13.794-13.802v-63.52l-.004-.313c-.165-7.473-6.276-13.482-13.79-13.482zm1194.758 0c-7.619 0-13.795 6.177-13.795 13.795v63.528l.003.312c.166 7.475 6.278 13.482 13.792 13.482 7.618 0 13.794-6.175 13.794-13.794v-63.528l-.004-.312c-.166-7.474-6.276-13.483-13.79-13.483zm-378.054 25.51c-7.619 0-13.795 6.177-13.795 13.796v35.78l.004.312c.166 7.474 6.276 13.482 13.79 13.482 7.619 0 13.795-6.176 13.795-13.795v-35.78l-.003-.312c-.166-7.474-6.277-13.482-13.791-13.482zm-705.918 0c-7.618 0-13.794 6.177-13.794 13.796v35.78l.003.312c.166 7.474 6.277 13.482 13.791 13.482 7.619 0 13.795-6.176 13.795-13.795v-35.78l-.004-.312c-.165-7.474-6.277-13.482-13.79-13.482zm488.84 0c-7.618 0-13.794 6.177-13.794 13.796v35.78l.004.312c.166 7.474 6.277 13.482 13.79 13.482 7.62 0 13.795-6.176 13.795-13.794v-35.78l-.003-.313c-.166-7.474-6.277-13.482-13.791-13.482zm704.565 9.496c-5.483 0-10.218 3.198-12.442 7.831v32.248l.004.313c.166 7.474 6.277 13.482 13.791 13.482 5.483 0 10.218-3.199 12.442-7.831v-32.249l-.004-.312c-.166-7.474-6.277-13.482-13.79-13.482zm217.694 14.948c-7.618.001-13.794 6.177-13.794 13.796 0 7.618 6.176 13.795 13.795 13.794 7.617 0 13.794-6.176 13.794-13.794 0-7.62-6.177-13.795-13.795-13.796zm705.918 0c-7.62.001-13.795 6.177-13.795 13.796 0 7.618 6.176 13.795 13.795 13.794 7.618 0 13.794-6.176 13.794-13.794 0-7.62-6.177-13.795-13.794-13.796zm-2010.11-35.005c-7.618 0-13.794 6.176-13.794 13.795s6.176 13.795 13.795 13.795c7.618 0 13.794-6.176 13.794-13.795s-6.176-13.795-13.795-13.795zm705.918 0c-7.619 0-13.795 6.176-13.795 13.795s6.176 13.795 13.795 13.795 13.794-6.176 13.794-13.795-6.176-13.795-13.794-13.795zm870.283-24.052c-7.618 0-13.794 6.176-13.794 13.794 0 7.619 6.176 13.795 13.794 13.795 7.619 0 13.794-6.176 13.794-13.795 0-7.618-6.175-13.794-13.794-13.794zm705.917 0c-7.618 0-13.794 6.176-13.794 13.794 0 7.619 6.176 13.795 13.794 13.795 7.619 0 13.794-6.176 13.795-13.795 0-7.618-6.176-13.794-13.795-13.794zm-488.84 0c-6.324 0-11.654 4.255-13.283 10.058l.003 7.48.089.304c1.729 5.643 6.98 9.747 13.19 9.747 7.62 0 13.795-6.176 13.795-13.795s-6.176-13.794-13.794-13.794zm-1304.191-35.006c-6.324 0-11.654 4.255-13.283 10.059l.002 7.48.09.303c1.728 5.644 6.98 9.747 13.19 9.747 7.619 0 13.795-6.176 13.795-13.794 0-7.62-6.176-13.795-13.794-13.795zm488.84 0c-7.619 0-13.794 6.176-13.795 13.794 0 7.62 6.176 13.795 13.794 13.796 7.62 0 13.795-6.177 13.796-13.796-.001-7.618-6.177-13.794-13.796-13.794zm-705.918 0c-7.618 0-13.794 6.176-13.794 13.794 0 7.62 6.176 13.795 13.794 13.796 7.62 0 13.795-6.177 13.795-13.796 0-7.618-6.176-13.794-13.795-13.794zm-488.84 0c-7.618 0-13.795 6.176-13.795 13.795 0 7.618 6.177 13.794 13.795 13.794s13.794-6.176 13.794-13.794c0-7.62-6.176-13.795-13.794-13.795zM134.11 4521.993c-6.21 0-11.462 4.103-13.19 9.747l-.09.304-.002 7.48c1.629 5.803 6.959 10.058 13.283 10.058 7.618 0 13.794-6.176 13.794-13.795 0-7.618-6.176-13.795-13.795-13.794zm-705.917 0c-7.618 0-13.795 6.176-13.795 13.794 0 7.62 6.177 13.795 13.795 13.795s13.795-6.176 13.794-13.795c0-7.618-6.176-13.795-13.794-13.794zm488.84 0c-7.618 0-13.794 6.176-13.794 13.795 0 7.618 6.176 13.794 13.794 13.794 7.62 0 13.794-6.176 13.795-13.794 0-7.62-6.176-13.795-13.795-13.796zm705.917 0c-7.618 0-13.793 6.176-13.794 13.795 0 7.618 6.176 13.794 13.794 13.794 7.62 0 13.795-6.176 13.796-13.794-.001-7.62-6.177-13.795-13.796-13.796zm815.351-35.006c-6.21 0-11.461 4.104-13.19 9.747l-.09.304-.002 7.48c1.63 5.803 6.96 10.058 13.283 10.058 7.618 0 13.794-6.175 13.794-13.794 0-7.619-6.176-13.795-13.795-13.795zm-217.076 0c-7.618 0-13.794 6.176-13.794 13.795 0 7.618 6.176 13.794 13.794 13.794 7.619 0 13.794-6.176 13.794-13.794 0-7.619-6.175-13.795-13.794-13.795zm705.917 0c-7.618 0-13.794 6.176-13.794 13.795 0 7.618 6.176 13.794 13.794 13.794 7.619 0 13.794-6.176 13.795-13.794 0-7.619-6.176-13.795-13.795-13.795zm-1305.053-72.631c-7.514 0-13.626 6.007-13.792 13.482l-.003.312v63.528c0 7.618 6.176 13.795 13.795 13.795 7.514 0 13.624-6.009 13.79-13.483l.004-.312v-63.528c0-7.619-6.176-13.794-13.794-13.794zm-705.918 0c-7.514 0-13.625 6.007-13.791 13.482l-.004.312v63.528c0 7.618 6.177 13.795 13.795 13.795 7.514 0 13.625-6.009 13.791-13.483l.004-.312v-63.528c0-7.619-6.176-13.794-13.795-13.794zm217.077 0c-5.323 0-9.94 3.015-12.241 7.43l-.147.29-.02 75.635c2.238 4.595 6.953 7.762 12.408 7.762 7.514 0 13.625-6.009 13.791-13.482l.004-.313v-63.528c0-7.619-6.176-13.794-13.795-13.794zm-705.917 0c-7.515 0-13.626 6.007-13.792 13.482l-.003.312v63.528c0 7.618 6.176 13.795 13.795 13.795 7.514 0 13.625-6.009 13.79-13.482l.004-.313v-63.52c0-7.627-6.176-13.802-13.794-13.802zm217.694 48.578c-7.619 0-13.795 6.176-13.795 13.795s6.176 13.795 13.794 13.795c7.619 0 13.795-6.176 13.795-13.795s-6.176-13.795-13.794-13.795zm705.917 0c-7.619 0-13.795 6.176-13.795 13.795s6.176 13.795 13.795 13.795c7.618 0 13.794-6.176 13.794-13.795s-6.175-13.795-13.794-13.795zm-323.984-46.34c-7.514 0-13.625 6.007-13.791 13.481l-.004.313v35.78c0 7.618 6.176 13.794 13.795 13.794 7.514 0 13.625-6.008 13.79-13.482l.004-.313v-35.78c0-7.618-6.175-13.794-13.794-13.794zm-488.84-.001c-7.515 0-13.626 6.008-13.792 13.482l-.003.313v35.78c0 7.618 6.176 13.794 13.794 13.794 7.514 0 13.626-6.008 13.791-13.482l.003-.313.001-35.78c0-7.618-6.176-13.794-13.795-13.794zm705.916 0c-7.514 0-13.624 6.008-13.79 13.482l-.004.313v35.78c0 7.618 6.176 13.794 13.795 13.794 7.514 0 13.625-6.008 13.79-13.482l.004-.313v-35.78c0-7.618-6.176-13.794-13.795-13.794zm976.328-37.243c-7.514 0-13.625 6.008-13.79 13.482l-.004.312v63.528c0 7.619 6.176 13.795 13.794 13.795 7.514 0 13.626-6.008 13.792-13.483l.003-.312v-63.528c0-7.618-6.176-13.794-13.795-13.794zm705.918 0c-7.514 0-13.625 6.008-13.791 13.482l-.004.312v63.528c0 7.619 6.177 13.795 13.795 13.795 7.514 0 13.625-6.008 13.79-13.483l.004-.312v-63.528c0-7.618-6.176-13.794-13.794-13.794zm-488.84 0c-5.323 0-9.94 3.015-12.241 7.43l-.147.29-.02 75.635c2.237 4.596 6.952 7.762 12.407 7.762 7.515 0 13.626-6.008 13.792-13.482l.003-.312v-63.529c0-7.618-6.176-13.794-13.795-13.794zm-704.565 37.243c-7.514 0-13.625 6.008-13.791 13.482l-.004.313v32.248c2.224 4.633 6.96 7.831 12.442 7.831 7.514 0 13.625-6.008 13.79-13.482l.004-.312.001-32.249c-2.224-4.632-6.96-7.83-12.442-7.83zm-926.628-21.554c-7.515 0-13.626 6.008-13.792 13.482l-.003.312v35.78c0 7.62 6.176 13.795 13.795 13.795 7.514 0 13.624-6.008 13.79-13.483l.004-.312v-35.78c0-7.619-6.176-13.794-13.794-13.794zm705.917 0c-7.514 0-13.626 6.008-13.792 13.482l-.003.312v35.78c0 7.62 6.176 13.795 13.795 13.795 7.514 0 13.624-6.008 13.79-13.483l.004-.312v-35.78c0-7.619-6.176-13.794-13.794-13.794zm1142.97 32.89c-7.62 0-13.795 6.176-13.795 13.794 0 7.62 6.176 13.795 13.795 13.796 7.617-.001 13.794-6.177 13.794-13.796 0-7.618-6.176-13.794-13.794-13.794zm-705.917 0c-7.62 0-13.795 6.176-13.795 13.794 0 7.62 6.176 13.795 13.794 13.796 7.618-.001 13.795-6.177 13.795-13.796 0-7.618-6.177-13.794-13.794-13.794zm-1304.193-39.788c-7.514 0-13.625 6.009-13.79 13.483l-.004.312v35.78c0 7.618 6.176 13.794 13.794 13.794 7.515 0 13.626-6.007 13.792-13.482l.003-.312v-35.78c0-7.618-6.176-13.795-13.795-13.795zm705.918 0c-7.514 0-13.625 6.009-13.791 13.483l-.004.312v35.78c0 7.618 6.176 13.794 13.795 13.794 7.514 0 13.625-6.007 13.79-13.482l.004-.312v-35.78c0-7.618-6.176-13.795-13.794-13.795zm980.207-6.553c-7.514 0-13.625 6.007-13.79 13.482l-.004.312v35.78c0 7.619 6.176 13.795 13.794 13.795 7.515 0 13.625-6.009 13.791-13.483l.004-.312v-35.78c0-7.618-6.176-13.794-13.795-13.794zm-488.84 0c-7.514 0-13.625 6.007-13.792 13.482l-.003.312v35.78c0 7.618 6.176 13.795 13.795 13.795 7.514 0 13.625-6.009 13.79-13.483l.004-.312v-35.78c0-7.618-6.176-13.795-13.794-13.795zm1194.758 0c-7.514 0-13.626 6.007-13.792 13.482l-.003.312v35.78c0 7.619 6.176 13.795 13.795 13.795 7.514 0 13.624-6.009 13.79-13.483l.004-.312v-35.78c0-7.618-6.176-13.794-13.794-13.794zm-488.841 0c-7.514 0-13.625 6.007-13.79 13.482l-.004.312v35.78c0 7.618 6.175 13.795 13.794 13.795 7.514 0 13.625-6.009 13.791-13.483l.004-.312v-35.78c0-7.618-6.177-13.795-13.795-13.795zm-1795.002 22.285c-7.619 0-13.794 6.176-13.795 13.795 0 7.618 6.176 13.795 13.795 13.795 7.618 0 13.795-6.176 13.795-13.795s-6.177-13.795-13.795-13.795zm705.917 0c-7.618 0-13.794 6.176-13.794 13.795 0 7.618 6.176 13.795 13.794 13.795 7.619 0 13.795-6.176 13.795-13.795s-6.176-13.795-13.795-13.795zm1357.214-43.84c-7.514 0-13.625 6.008-13.791 13.482l-.004.313.001.008v35.771c0 7.62 6.175 13.795 13.794 13.795 7.514 0 13.625-6.008 13.79-13.482l.004-.313v-35.78c0-7.618-6.175-13.794-13.794-13.794zm-705.917 0c-7.514 0-13.625 6.008-13.791 13.482l-.004.313v35.78c0 7.618 6.176 13.794 13.795 13.794 7.514 0 13.625-6.008 13.79-13.482l.004-.313v-35.78c0-7.618-6.176-13.794-13.794-13.794zm-161.222-6.897c-7.514 0-13.625 6.008-13.791 13.482l-.004.313v35.78c0 7.618 6.177 13.794 13.795 13.794 7.514 0 13.625-6.008 13.791-13.482l.004-.313v-35.78c0-7.618-6.177-13.794-13.795-13.794zm705.917 0c-7.514 0-13.625 6.008-13.79 13.482l-.004.313v35.78c0 7.618 6.176 13.794 13.795 13.794 7.513 0 13.625-6.008 13.79-13.482l.004-.313v-35.78c0-7.618-6.177-13.794-13.795-13.794zM26.958 4376.717c-7.619 0-13.795 6.177-13.795 13.795 0 7.62 6.176 13.795 13.795 13.795s13.794-6.176 13.794-13.795c0-7.618-6.175-13.794-13.794-13.795zm-488.84 0c-7.62 0-13.795 6.177-13.795 13.795 0 7.62 6.176 13.795 13.794 13.795 7.619 0 13.795-6.176 13.795-13.795 0-7.618-6.176-13.795-13.795-13.794zm705.917 0c-7.619 0-13.795 6.177-13.795 13.795 0 7.62 6.176 13.795 13.795 13.795 7.618 0 13.794-6.176 13.795-13.795 0-7.618-6.177-13.795-13.795-13.794zm487.487 2.633c-4.817 0-9.058 2.47-11.525 6.211a13.745 13.745 0 00-.916 4.951c0 7.62 6.176 13.795 13.794 13.795 5.483 0 10.218-3.199 12.443-7.832l-.001-3.33c0-7.62-6.176-13.795-13.795-13.795zm1031.811-10.482c-7.619 0-13.795 6.176-13.795 13.794 0 7.619 6.177 13.795 13.795 13.795s13.794-6.176 13.794-13.795c0-7.618-6.176-13.794-13.794-13.794zm-705.918 0c-7.618 0-13.794 6.176-13.794 13.794 0 7.619 6.176 13.795 13.794 13.795 7.619 0 13.795-6.176 13.795-13.795 0-7.618-6.176-13.794-13.795-13.794zm490.811-27.156c-7.619 0-13.795 6.176-13.794 13.794 0 7.62 6.175 13.795 13.794 13.795 7.619 0 13.795-6.176 13.795-13.795 0-7.618-6.176-13.795-13.795-13.794zm-705.917 0c-7.619 0-13.795 6.176-13.795 13.794 0 7.62 6.176 13.795 13.795 13.795 7.618 0 13.794-6.176 13.794-13.795 0-7.618-6.176-13.795-13.794-13.794zm1194.758 0c-7.619 0-13.794 6.176-13.794 13.794 0 7.62 6.175 13.795 13.794 13.795 7.618 0 13.794-6.176 13.794-13.795 0-7.618-6.176-13.794-13.794-13.795zm-705.917 0c-7.62 0-13.795 6.176-13.795 13.794 0 7.62 6.176 13.795 13.794 13.795 7.619 0 13.795-6.176 13.795-13.795 0-7.618-6.176-13.794-13.794-13.795zM78.688 4325.85c-7.62 0-13.795 6.176-13.795 13.795 0 7.618 6.176 13.794 13.794 13.794 7.619 0 13.795-6.177 13.795-13.794 0-7.62-6.176-13.795-13.794-13.795zm217.076 0c-7.619 0-13.795 6.176-13.794 13.795 0 7.618 6.175 13.794 13.794 13.794 7.618 0 13.795-6.176 13.794-13.794 0-7.62-6.176-13.795-13.794-13.795zm-705.918 0c-7.618 0-13.794 6.176-13.794 13.795 0 7.618 6.176 13.794 13.795 13.794 7.618 0 13.794-6.176 13.794-13.794 0-7.62-6.176-13.795-13.795-13.795zm1194.759 0c-5.446 0-10.154 3.154-12.397 7.736.564 1.433.894 2.983.946 4.604l.007.444v8.715a13.78 13.78 0 0011.443 6.09c7.62 0 13.795-6.177 13.795-13.794 0-7.62-6.176-13.795-13.794-13.795zm-624.826-42.893c7.618 0 13.795 6.176 13.795 13.795v35.779c0 7.62-6.177 13.796-13.795 13.796s-13.795-6.177-13.795-13.795v-35.78c0-7.619 6.177-13.795 13.795-13.795zm-705.917 0c7.618 0 13.794 6.176 13.794 13.795v35.779c0 7.62-6.176 13.796-13.794 13.796s-13.795-6.177-13.795-13.795v-35.78c0-7.619 6.177-13.795 13.795-13.795zm1196.247 0c7.618 0 13.794 6.176 13.794 13.795v35.78c0 7.617-6.177 13.794-13.795 13.794s-13.794-6.176-13.794-13.794v-35.78c0-7.619 6.176-13.795 13.795-13.795zm-705.918 0c7.618 0 13.795 6.176 13.795 13.795v35.78c0 7.617-6.177 13.794-13.795 13.794s-13.794-6.176-13.795-13.794v-35.78c0-7.619 6.177-13.795 13.795-13.795zm-217.263-34.566c7.618 0 13.794 6.176 13.794 13.795v63.528c0 7.618-6.175 13.794-13.794 13.794-7.619 0-13.794-6.176-13.794-13.794v-63.528c0-7.619 6.175-13.795 13.794-13.795zm705.917 0c7.619 0 13.794 6.176 13.794 13.795v63.528c0 7.618-6.175 13.794-13.794 13.794-7.618 0-13.794-6.176-13.794-13.794v-63.528c0-7.619 6.176-13.795 13.794-13.795zm108.632 19.047c7.618 0 13.794 6.176 13.795 13.794v35.78c0 7.62-6.177 13.795-13.795 13.795s-13.795-6.176-13.795-13.795v-35.78c0-7.618 6.177-13.794 13.795-13.794zm-705.918 0c7.619 0 13.795 6.176 13.795 13.794v35.78c0 7.62-6.176 13.795-13.795 13.795-7.618 0-13.794-6.176-13.794-13.795v-35.78c0-7.618 6.176-13.794 13.794-13.794zm1764.396 23.406c-7.618 0-13.794 6.176-13.794 13.795 0 7.618 6.176 13.794 13.794 13.794 7.619 0 13.795-6.176 13.794-13.794 0-7.62-6.175-13.795-13.794-13.795zm-217.076 0c-7.619 0-13.795 6.176-13.795 13.795 0 7.618 6.176 13.794 13.795 13.794 7.618 0 13.794-6.176 13.794-13.794 0-7.62-6.176-13.795-13.794-13.795zm705.917 0c-7.619 0-13.795 6.176-13.795 13.795 0 7.618 6.176 13.794 13.795 13.794s13.794-6.176 13.795-13.794c0-7.62-6.176-13.795-13.795-13.795zm-1194.758 0c-7.618 0-13.794 6.176-13.794 13.795 0 7.618 6.176 13.794 13.794 13.794s13.794-6.176 13.794-13.794c0-7.62-6.175-13.795-13.794-13.795zm354.344-42.893c7.619 0 13.795 6.177 13.795 13.795v35.78c0 7.618-6.176 13.794-13.795 13.794-7.618 0-13.794-6.176-13.794-13.794v-35.78c0-7.618 6.176-13.795 13.794-13.795zm215.588 0c7.619 0 13.795 6.177 13.795 13.795v35.78c0 7.618-6.176 13.795-13.795 13.795-7.618 0-13.794-6.177-13.794-13.795v-35.78c0-7.618 6.176-13.795 13.794-13.795zm490.33 0c7.618 0 13.794 6.177 13.794 13.795v35.78c0 7.618-6.176 13.794-13.795 13.794-7.617 0-13.794-6.176-13.794-13.794v-35.78c0-7.618 6.176-13.795 13.795-13.795zM377.904 4219.94c7.619 0 13.795 6.177 13.795 13.795v63.528c0 7.619-6.176 13.794-13.795 13.794-7.618 0-13.794-6.175-13.794-13.794v-63.528c0-7.618 6.175-13.795 13.794-13.795zm-705.917 0c7.618 0 13.795 6.177 13.795 13.795v63.528c-.001 7.619-6.176 13.794-13.795 13.794s-13.794-6.175-13.794-13.794v-63.528c0-7.618 6.175-13.795 13.794-13.795zm2065.05-6.554c7.618 0 13.794 6.177 13.794 13.795v63.528c0 7.618-6.176 13.794-13.795 13.794-7.618 0-13.793-6.176-13.794-13.794v-63.527c0-7.62 6.176-13.796 13.794-13.796zm-705.918 0c7.619 0 13.795 6.177 13.795 13.795v63.528c0 7.618-6.176 13.794-13.795 13.794-7.618 0-13.794-6.176-13.794-13.794v-63.527c0-7.62 6.176-13.796 13.794-13.796zm814.55 19.048c7.618 0 13.794 6.175 13.794 13.794v35.78c0 7.619-6.176 13.795-13.795 13.795-7.618 0-13.794-6.176-13.794-13.795v-35.78c0-7.619 6.176-13.794 13.794-13.794zm-705.918 0c7.618 0 13.795 6.175 13.795 13.794v35.78c0 7.619-6.177 13.795-13.795 13.795-7.619 0-13.795-6.176-13.794-13.795v-35.78c0-7.619 6.175-13.794 13.794-13.794zm542.344-47.5c7.62 0 13.795 6.177 13.795 13.796v63.527c0 7.619-6.176 13.795-13.794 13.795s-13.795-6.176-13.795-13.795v-63.527c0-7.619 6.176-13.795 13.794-13.795zm-705.917 0c7.619 0 13.795 6.177 13.795 13.796v63.527c0 7.619-6.176 13.795-13.794 13.795-7.62 0-13.795-6.176-13.795-13.795v-63.527c0-7.619 6.176-13.795 13.794-13.795zm-1031.987 60.735c7.618 0 13.795 6.176 13.795 13.795 0 7.618-6.176 13.795-13.795 13.795-7.618 0-13.794-6.177-13.794-13.795 0-7.619 6.176-13.794 13.794-13.795zm-490.33 0c7.62 0 13.795 6.176 13.795 13.795 0 7.618-6.176 13.795-13.794 13.795s-13.795-6.177-13.795-13.795c0-7.619 6.177-13.794 13.794-13.794zm705.918 0c7.618 0 13.795 6.176 13.795 13.795 0 7.618-6.176 13.795-13.795 13.795-7.618 0-13.795-6.177-13.794-13.795 0-7.619 6.176-13.794 13.794-13.794zm490.329 0c7.619 0 13.795 6.176 13.795 13.795 0 7.618-6.176 13.795-13.795 13.795-7.618 0-13.794-6.177-13.794-13.795 0-7.619 6.176-13.794 13.794-13.795zm-923.18-34.486c7.619 0 13.794 6.175 13.794 13.794 0 7.618-6.175 13.795-13.794 13.795-7.618 0-13.794-6.177-13.794-13.795 0-7.619 6.175-13.794 13.794-13.794zm705.917 0c7.619 0 13.794 6.175 13.794 13.794 0 7.618-6.175 13.795-13.794 13.795-7.618 0-13.794-6.177-13.794-13.795 0-7.619 6.175-13.794 13.794-13.794zm-381.316-.435c7.619 0 13.795 6.177 13.795 13.795 0 7.619-6.176 13.795-13.795 13.795-7.618 0-13.794-6.176-13.794-13.795 0-7.618 6.176-13.795 13.794-13.795zm-490.33 0c7.62.001 13.796 6.177 13.796 13.795 0 7.619-6.176 13.795-13.795 13.795s-13.795-6.176-13.795-13.794c0-7.62 6.176-13.795 13.795-13.796zm705.918 0c7.619.001 13.795 6.177 13.795 13.795 0 7.619-6.176 13.795-13.795 13.795-7.618 0-13.794-6.176-13.794-13.794 0-7.62 6.176-13.795 13.794-13.796zm490.936-.084c7.619 0 13.795 6.176 13.795 13.794 0 7.062-5.306 12.884-12.148 13.698-.733.12-1.486.182-2.253.182-7.619 0-13.795-6.176-13.795-13.795 0-7.076 5.328-12.908 12.192-13.702.72-.117 1.457-.177 2.209-.177zm1196.246 0c7.62 0 13.795 6.176 13.795 13.794 0 7.619-6.176 13.795-13.795 13.795-7.617 0-13.794-6.176-13.794-13.795 0-7.618 6.177-13.794 13.794-13.795zm-490.329 0c7.619 0 13.795 6.176 13.795 13.794 0 7.619-6.176 13.795-13.795 13.795-7.618 0-13.794-6.176-13.794-13.795 0-7.618 6.176-13.794 13.794-13.794zm-215.588 0c7.619 0 13.795 6.176 13.795 13.794 0 7.619-6.176 13.795-13.795 13.795-7.618 0-13.794-6.176-13.794-13.795 0-7.618 6.176-13.794 13.794-13.795zm-1577.257-29.657c7.619 0 13.794 6.176 13.794 13.795 0 7.617-6.175 13.794-13.794 13.794-7.619 0-13.795-6.176-13.795-13.795 0-7.618 6.176-13.794 13.795-13.794zm705.917 0c7.619 0 13.795 6.176 13.795 13.795 0 7.617-6.176 13.794-13.795 13.794s-13.794-6.176-13.794-13.795c0-7.618 6.176-13.794 13.794-13.794zm1359.994-4.83c7.62 0 13.795 6.176 13.795 13.795 0 7.618-6.176 13.794-13.795 13.794-7.618 0-13.794-6.176-13.794-13.794 0-7.62 6.176-13.794 13.794-13.795zm-705.917 0c7.62 0 13.795 6.176 13.795 13.795 0 7.618-6.176 13.794-13.795 13.794-7.618 0-13.794-6.176-13.794-13.794 0-7.62 6.176-13.794 13.794-13.795zm1030.52-.434c7.618 0 13.794 6.176 13.794 13.795 0 7.618-6.176 13.795-13.795 13.795s-13.795-6.177-13.795-13.795c0-7.619 6.176-13.795 13.795-13.795zm-490.33 0c7.618 0 13.794 6.176 13.794 13.795 0 7.618-6.176 13.795-13.794 13.795-7.619 0-13.794-6.177-13.795-13.795 0-7.619 6.176-13.795 13.795-13.795zm-705.918 0c7.62 0 13.795 6.176 13.795 13.795 0 7.618-6.176 13.795-13.794 13.795-7.62 0-13.795-6.177-13.795-13.795 0-7.619 6.176-13.795 13.794-13.795zm490.33 0c7.618 0 13.794 6.176 13.794 13.795 0 7.618-6.175 13.795-13.794 13.795-7.619 0-13.795-6.177-13.795-13.795 0-7.619 6.176-13.795 13.795-13.795zM975.316 4146c7.619 0 13.795 6.176 13.795 13.795 0 7.618-6.176 13.794-13.795 13.794-7.618 0-13.795-6.176-13.794-13.795 0-7.618 6.176-13.794 13.794-13.794zm705.917 0c7.62 0 13.795 6.176 13.795 13.795 0 7.618-6.176 13.794-13.794 13.794-7.62 0-13.795-6.176-13.795-13.795 0-7.618 6.176-13.794 13.794-13.794z" transform="translate(0 -4146)" fill="url(#a)" fill-rule="evenodd"/></svg>