<svg xmlns="http://www.w3.org/2000/svg" xmlns:xlink="http://www.w3.org/1999/xlink" width="63" height="63"><defs><path id="a" d="M481.72 2802.9a29.61 29.61 0 1159.22 0 29.61 29.61 0 01-59.22 0z"/><path id="b" d="M506.65 2813.92v-22.28l16.07 11.14-16.07 11.14zm19.76-12.45l-20.46-14.16c-.64-.48-2.33-.48-2.47 1.32v28.31a1.57 1.57 0 002.47 1.32l20.46-14.16a1.6 1.6 0 000-2.63z"/><path id="c" d="M511.5 2831.06a28.58 28.58 0 01-28.55-28.55 28.58 28.58 0 0128.55-28.56 28.58 28.58 0 0128.56 28.56 28.58 28.58 0 01-28.55 28.55zm0-60.06a31.53 31.53 0 00-31.5 31.5 31.53 31.53 0 0031.5 31.5 31.53 31.53 0 0031.5-31.5 31.53 31.53 0 00-31.5-31.5z"/></defs><use fill="#363951" fill-opacity=".5" xlink:href="#a" transform="translate(-480 -2771)"/><use fill="#fff" xlink:href="#b" transform="translate(-480 -2771)"/><use fill="#fff" xlink:href="#c" transform="translate(-480 -2771)"/></svg>