<svg width="11" height="12" xmlns="http://www.w3.org/2000/svg"><path d="M7.594 6l3.125 3.125a.935.935 0 01.281.688c0 .27-.094.51-.281.718l-.688.688a1.043 1.043 0 01-.719.281c-.27 0-.5-.094-.687-.281L5.5 8.094l-3.125 3.125a.935.935 0 01-.688.281c-.27 0-.51-.094-.718-.281L.28 10.53A1.043 1.043 0 010 9.813c0-.271.094-.5.281-.688L3.406 6 .281 2.875A.935.935 0 010 2.188c0-.271.094-.51.281-.72L.97.782C1.177.594 1.417.5 1.687.5c.271 0 .5.094.688.281L5.5 3.906 8.625.781A.935.935 0 019.312.5c.271 0 .51.094.72.281l.687.688c.187.208.281.448.281.719 0 .27-.094.5-.281.687L7.594 6z" fill="#FFF"/></svg>