<?xml version="1.0" encoding="UTF-8"?>
<svg width="803px" height="120px" viewBox="0 0 803 120" version="1.1" xmlns="http://www.w3.org/2000/svg" xmlns:xlink="http://www.w3.org/1999/xlink">
    <title>Line 2 Copy 9</title>
    <g id="Animation" stroke="none" stroke-width="1" fill="none" fill-rule="evenodd">
        <g id="Artboard-1-Copy-5" transform="translate(-320.000000, -756.000000)" fill="#858C93" fill-rule="nonzero">
            <g id="Group-15">
                <g id="Group-11">
                    <path id="Line-2-Copy-9" d="M347,835.5 C349.688755,835.5 351.881818,837.622307 351.99538,840.28311 L352,840.5 L352,870.5 C352,873.261424 349.761424,875.5 347,875.5 C344.311245,875.5 342.118182,873.377693 342.00462,870.71689 L342,870.5 L342,840.5 C342,837.738576 344.238576,835.5 347,835.5 Z M1141.77884,818.5 C1143.55784,818.5 1145,819.942162 1145,821.721159 C1145,822.221228 1144.88357,822.71443 1144.65993,823.161705 L1144.65993,823.161705 L1120.88145,870.718681 C1120.08585,872.309865 1118.15099,872.954819 1116.55981,872.159228 C1115.93642,871.847536 1115.43095,871.342064 1115.11926,870.718681 L1115.11926,870.718681 L1091.34077,823.161705 C1090.54518,821.570522 1091.19014,819.635659 1092.78132,818.840067 C1093.22859,818.616429 1093.7218,818.5 1094.22186,818.5 L1094.22186,818.5 Z M347,775.5 C349.688755,775.5 351.881818,777.622307 351.99538,780.28311 L352,780.5 L352,810.5 C352,813.261424 349.761424,815.5 347,815.5 C344.311245,815.5 342.118182,813.377693 342.00462,810.71689 L342,810.5 L342,780.5 C342,777.738576 344.238576,775.5 347,775.5 Z M1118,775.5 C1120.68875,775.5 1122.88182,777.622307 1122.99538,780.28311 L1123,780.5 L1123,810.5 C1123,813.261424 1120.76142,815.5 1118,815.5 C1115.31125,815.5 1113.11818,813.377693 1113.00462,810.71689 L1113,810.5 L1113,780.5 C1113,777.738576 1115.23858,775.5 1118,775.5 Z M387.5,756 C390.261424,756 392.5,758.238576 392.5,761 C392.5,763.688755 390.377693,765.881818 387.71689,765.99538 L387.5,766 L357.5,766 C354.738576,766 352.5,763.761424 352.5,761 C352.5,758.311245 354.622307,756.118182 357.28311,756.00462 L357.5,756 L387.5,756 Z M447.5,756 C450.261424,756 452.5,758.238576 452.5,761 C452.5,763.688755 450.377693,765.881818 447.71689,765.99538 L447.5,766 L417.5,766 C414.738576,766 412.5,763.761424 412.5,761 C412.5,758.311245 414.622307,756.118182 417.28311,756.00462 L417.5,756 L447.5,756 Z M507.5,756 C510.261424,756 512.5,758.238576 512.5,761 C512.5,763.688755 510.377693,765.881818 507.71689,765.99538 L507.5,766 L477.5,766 C474.738576,766 472.5,763.761424 472.5,761 C472.5,758.311245 474.622307,756.118182 477.28311,756.00462 L477.5,756 L507.5,756 Z M567.5,756 C570.261424,756 572.5,758.238576 572.5,761 C572.5,763.688755 570.377693,765.881818 567.71689,765.99538 L567.5,766 L537.5,766 C534.738576,766 532.5,763.761424 532.5,761 C532.5,758.311245 534.622307,756.118182 537.28311,756.00462 L537.5,756 L567.5,756 Z M627.5,756 C630.261424,756 632.5,758.238576 632.5,761 C632.5,763.688755 630.377693,765.881818 627.71689,765.99538 L627.5,766 L597.5,766 C594.738576,766 592.5,763.761424 592.5,761 C592.5,758.311245 594.622307,756.118182 597.28311,756.00462 L597.5,756 L627.5,756 Z M687.5,756 C690.261424,756 692.5,758.238576 692.5,761 C692.5,763.688755 690.377693,765.881818 687.71689,765.99538 L687.5,766 L657.5,766 C654.738576,766 652.5,763.761424 652.5,761 C652.5,758.311245 654.622307,756.118182 657.28311,756.00462 L657.5,756 L687.5,756 Z M747.5,756 C750.261424,756 752.5,758.238576 752.5,761 C752.5,763.688755 750.377693,765.881818 747.71689,765.99538 L747.5,766 L717.5,766 C714.738576,766 712.5,763.761424 712.5,761 C712.5,758.311245 714.622307,756.118182 717.28311,756.00462 L717.5,756 L747.5,756 Z M807.5,756 C810.261424,756 812.5,758.238576 812.5,761 C812.5,763.688755 810.377693,765.881818 807.71689,765.99538 L807.5,766 L777.5,766 C774.738576,766 772.5,763.761424 772.5,761 C772.5,758.311245 774.622307,756.118182 777.28311,756.00462 L777.5,756 L807.5,756 Z M867.5,756 C870.261424,756 872.5,758.238576 872.5,761 C872.5,763.688755 870.377693,765.881818 867.71689,765.99538 L867.5,766 L837.5,766 C834.738576,766 832.5,763.761424 832.5,761 C832.5,758.311245 834.622307,756.118182 837.28311,756.00462 L837.5,756 L867.5,756 Z M927.5,756 C930.261424,756 932.5,758.238576 932.5,761 C932.5,763.688755 930.377693,765.881818 927.71689,765.99538 L927.5,766 L897.5,766 C894.738576,766 892.5,763.761424 892.5,761 C892.5,758.311245 894.622307,756.118182 897.28311,756.00462 L897.5,756 L927.5,756 Z M987.5,756 C990.261424,756 992.5,758.238576 992.5,761 C992.5,763.688755 990.377693,765.881818 987.71689,765.99538 L987.5,766 L957.5,766 C954.738576,766 952.5,763.761424 952.5,761 C952.5,758.311245 954.622307,756.118182 957.28311,756.00462 L957.5,756 L987.5,756 Z M1047.5,756 C1050.26142,756 1052.5,758.238576 1052.5,761 C1052.5,763.688755 1050.37769,765.881818 1047.71689,765.99538 L1047.5,766 L1017.5,766 C1014.73858,766 1012.5,763.761424 1012.5,761 C1012.5,758.311245 1014.62231,756.118182 1017.28311,756.00462 L1017.5,756 L1047.5,756 Z M1107.5,756 C1110.26142,756 1112.5,758.238576 1112.5,761 C1112.5,763.688755 1110.37769,765.881818 1107.71689,765.99538 L1107.5,766 L1077.5,766 C1074.73858,766 1072.5,763.761424 1072.5,761 C1072.5,758.311245 1074.62231,756.118182 1077.28311,756.00462 L1077.5,756 L1107.5,756 Z"></path>
                </g>
            </g>
        </g>
    </g>
</svg>