<svg xmlns="http://www.w3.org/2000/svg" width="1024" height="664"><style type="text/css">.st0{filter:url(#Adobe_OpacityMaskFilter);} .st1{fill:#FFFFFF;} .st2{mask:url(#mask-7);} .st3{fill:none;stroke:url(#Line-2-Copy_1_);stroke-linecap:square;} .st4{filter:url(#filter-3);} .st5{fill:none;stroke:#00BFD6;stroke-width:2;stroke-linecap:round;stroke-linejoin:round;} .st6{filter:url(#Adobe_OpacityMaskFilter_1_);} .st7{mask:url(#mask-5);fill:none;stroke:#2D2C6F;stroke-width:2;} .st8{fill:none;stroke:#2D2C6F;stroke-width:2;stroke-linejoin:round;} .st9{fill:none;stroke:#FFFFFF;stroke-width:1.2;stroke-dasharray:2.4000001,2.4000001;} .st10{enable-background:new ;} .st11{fill:#00181B;} .st12{filter:url(#filter-11);} .st13{fill:#00BFD6;} .st14{opacity:0.4;fill:url(#Combined-Shape-Copy_3_);enable-background:new ;} .st15{opacity:0.4;fill:url(#Combined-Shape-Copy_4_);enable-background:new ;} .st16{fill:none;stroke:#FFFFFF;stroke-width:3;stroke-linecap:round;} .st17{filter:url(#filter-14);} .st18{filter:url(#filter-16);} .st19{fill:#2D2C6F;} .st20{fill:none;stroke:url(#SVGID_1_);stroke-linecap:square;} .st21{filter:url(#Adobe_OpacityMaskFilter_2_);} .st22{mask:url(#mask0_1_);} .st23{fill:none;stroke:#2D2C6F;stroke-width:2;} .st24{opacity:0.449672;} .st25{fill:none;stroke:#FFFFFF;stroke-width:0.6;stroke-miterlimit:8;stroke-dasharray:2.4000001,2.4000001;} .st26{opacity:0.630661;}</style><filter id="filter-3" width="147.6%" height="147.6%" x="-23.8%" y="-23.8%" filterUnits="objectBoundingBox"><feMorphology in="SourceAlpha" operator="dilate" radius=".5" result="shadowSpreadOuter1"/><feOffset in="shadowSpreadOuter1" result="shadowOffsetOuter1"/><feGaussianBlur in="shadowOffsetOuter1" result="shadowBlurOuter1" stdDeviation="9.5"/><feColorMatrix in="shadowBlurOuter1" values="0 0 0 0 1 0 0 0 0 1 0 0 0 0 1 0 0 0 0.896654212 0"/></filter><filter id="filter-16" width="105.5%" height="113.7%" x="-2.7%" y="-8.8%" filterUnits="objectBoundingBox"><feOffset dy="-2" in="SourceAlpha" result="shadowOffsetOuter1"/><feGaussianBlur in="shadowOffsetOuter1" result="shadowBlurOuter1" stdDeviation="2"/><feColorMatrix in="shadowBlurOuter1" values="0 0 0 0 0 0 0 0 0 0 0 0 0 0 0 0 0 0 0.5 0"/></filter><filter id="filter-14" width="163.2%" height="163.2%" x="-31.6%" y="-31.6%" filterUnits="objectBoundingBox"><feMorphology in="SourceAlpha" operator="dilate" radius=".5" result="shadowSpreadOuter1"/><feOffset in="shadowSpreadOuter1" result="shadowOffsetOuter1"/><feGaussianBlur in="shadowOffsetOuter1" result="shadowBlurOuter1" stdDeviation="1.5"/><feColorMatrix in="shadowBlurOuter1" values="0 0 0 0 1 0 0 0 0 1 0 0 0 0 1 0 0 0 0.784675045 0"/></filter><filter id="filter-11" width="106.9%" height="113%" x="-3.4%" y="-4.6%" filterUnits="objectBoundingBox"><feOffset dy="2" in="SourceAlpha" result="shadowOffsetOuter1"/><feGaussianBlur in="shadowOffsetOuter1" result="shadowBlurOuter1" stdDeviation="2"/><feColorMatrix in="shadowBlurOuter1" values="0 0 0 0 0 0 0 0 0 0 0 0 0 0 0 0 0 0 0.5 0"/></filter><title>cost savings background</title><desc>Created with Sketch.</desc><g id="outcomes"><g id="Fancy_impactv4"><g id="cost-savings_1_"><g id="cost-savings-background" transform="translate(-73 -1)"><defs><filter id="Adobe_OpacityMaskFilter" width="186" height="389.374" x="852.012" y="-.374" filterUnits="userSpaceOnUse"><feColorMatrix values="1 0 0 0 0 0 1 0 0 0 0 0 1 0 0 0 0 0 1 0"/></filter></defs><mask id="mask-7" width="186" height="389.374" x="852.012" y="-.374" maskUnits="userSpaceOnUse"><g class="st0"><path id="path-6" d="M151.5 277c43.35 0 78.5-35.15 78.5-78.5S194.85 120 151.5 120 73 155.15 73 198.5s35.15 78.5 78.5 78.5z" class="st1"/></g><path id="path-8" d="M152 267c37.56 0 68-30.44 68-68s-30.44-68-68-68-68 30.44-68 68 30.44 68 68 68z" class="st1"/></mask><g id="roi-icon" transform="translate(866)" class="st2"><linearGradient id="Line-2-Copy_1_" x1="-793" x2="-793" y1="340.834" y2="341.834" gradientUnits="userSpaceOnUse" gradientTransform="matrix(1 0 0 -388.374 872.5 132759.516)"><stop offset="0" stop-color="#fff"/><stop offset="1" stop-color="#fff" stop-opacity="0"/></linearGradient><path id="Line-2-Copy" d="M79.5.13V388.5" class="st3"/><g id="Oval-Copy-5"><g class="st4"><circle id="path-2_2_" cx="79" cy="199" r="63"/></g><circle id="path-2_1_" cx="79" cy="199" r="63" class="st1"/></g><g id="Page-1"><path id="Stroke-1" d="M65.4 200.12l7.4-11.62 5.65 8.02 7.36-7.04 5.7 5.3 8.5-20.02" class="st5"/><g id="Group-5" transform="translate(54 169) translate(4.839 .18)"><defs><filter id="Adobe_OpacityMaskFilter_1_" width="45.757" height="38.654" x="-.786" y=".621" filterUnits="userSpaceOnUse"><feColorMatrix values="1 0 0 0 0 0 1 0 0 0 0 0 1 0 0 0 0 0 1 0"/></filter></defs><mask id="mask-5" width="45.757" height="38.654" x="-.786" y=".621" maskUnits="userSpaceOnUse"><g class="st6"><path id="path-4" d="M.2.62h44.77v37.65H.2z" class="st1"/></g></mask><path id="Stroke-3" d="M44.97 38.27H.2V.62" class="st7"/></g><path id="Stroke-6" d="M54 179.7h5" class="st8"/><path id="Stroke-8" d="M54 190.96h5" class="st8"/><path id="Stroke-10" d="M54 202.24h5" class="st8"/><path id="Stroke-12" d="M64.34 212.38v-4.97" class="st8"/><path id="Stroke-14" d="M75.14 212.38v-4.97" class="st8"/><path id="Stroke-16" d="M85.95 212.38v-4.97" class="st8"/><path id="Stroke-18" d="M96.75 212.38v-4.97" class="st8"/></g><g id="Oval-Copy"><path id="path-6_1_" d="M78.5 276c43.35 0 78.5-35.15 78.5-78.5S121.85 119 78.5 119 0 154.15 0 197.5 35.15 276 78.5 276z" class="st9"/></g><g id="Oval-Copy_1_"><path id="path-8_1_" d="M79 266c37.56 0 68-30.44 68-68s-30.44-68-68-68-68 30.44-68 68 30.44 68 68 68z" class="st9"/></g><g class="st10"><path d="M42.93 230.05l.3-.42c.22-.3.5-.33.82-.1.83.67 1.7 1 2.6 1 .73 0 1.35-.22 1.85-.65.5-.44.75-1 .75-1.67 0-.74-.28-1.3-.85-1.72-.57-.4-1.27-.6-2.1-.6h-.4c-.3 0-.53-.16-.67-.45l-.05-.1c-.12-.28-.07-.54.15-.78l2.44-2.9c.13-.14.26-.28.4-.42.12-.14.22-.24.3-.3l.1-.1v-.04c-.26.02-.62.04-1.1.04h-3.7c-.17 0-.32-.05-.43-.16s-.15-.24-.15-.43v-.36c0-.4.2-.6.58-.6h6.4c.4 0 .6.18.6.55v.16c0 .3-.1.54-.26.73l-3.2 3.68c.36.04.7.12 1.05.22s.67.27 1 .47c.33.2.62.43.86.7.24.28.44.62.6 1.02s.22.84.22 1.32c0 .54-.1 1.06-.3 1.56-.22.5-.5.92-.87 1.3-.37.37-.83.66-1.38.9-.55.2-1.14.32-1.77.32-1.3 0-2.54-.45-3.7-1.35-.3-.23-.32-.5-.1-.82zM53.13 227.05v-.36c0-.2.06-.34.16-.45s.24-.16.43-.16h4.07c.4 0 .6.2.6.6v.35c0 .4-.2.6-.6.6h-4.07c-.4 0-.6-.2-.6-.6zM60.53 230.03l.3-.4c.22-.3.5-.32.8-.08.68.66 1.46.98 2.34.98.77 0 1.42-.24 1.97-.72s.8-1.1.8-1.85-.26-1.38-.8-1.87c-.56-.5-1.25-.74-2.07-.74-.55 0-1.13.15-1.75.45-.3.1-.56.1-.8.03l-.14-.06c-.33-.13-.48-.36-.44-.7l.54-5.22c.04-.37.24-.56.6-.56h5.25c.4 0 .6.2.6.6v.35c0 .4-.2.6-.6.6h-4.26l-.3 2.66c-.02.12-.03.24-.05.35s-.02.2-.03.26l-.03.1h.03c.06-.04.13-.08.23-.12.1-.05.3-.1.57-.18.3-.07.57-.1.85-.1.87 0 1.64.18 2.3.55.7.37 1.2.87 1.57 1.5.36.63.54 1.32.54 2.1 0 1.2-.43 2.23-1.28 3.05-.85.8-1.92 1.22-3.2 1.22-1.37 0-2.53-.46-3.5-1.4-.3-.23-.3-.5-.05-.8zM69.86 231.8c-.08-.14-.05-.32.08-.52l2.65-3.96-2.5-3.7c-.13-.2-.15-.38-.08-.52s.24-.2.48-.2h.68c.32 0 .55.13.7.4l1.46 2.36.3.55h.03c.12-.2.22-.38.3-.54l1.46-2.35c.15-.27.38-.4.7-.4h.67c.24 0 .4.06.48.2s.05.3-.1.52l-2.46 3.7 2.66 3.96c.13.2.16.38.08.5-.08.15-.24.22-.5.22h-.63c-.3 0-.55-.14-.7-.4l-1.68-2.64-.28-.5h-.04c-.08.2-.17.35-.27.5l-1.68 2.63c-.15.26-.38.4-.7.4h-.64c-.25 0-.4-.07-.48-.2zM83.94 231.4v-11.5c0-.4.2-.6.6-.6h3.42c1.08 0 1.87.1 2.37.33.6.28 1.1.7 1.46 1.28.35.6.53 1.27.53 2.06 0 .82-.2 1.55-.6 2.2-.42.63-.97 1.06-1.66 1.3v.02c.1.13.23.32.37.58l2.3 4.24c.1.2.13.37.05.5s-.24.2-.47.2h-.72c-.32 0-.56-.14-.7-.4l-2.48-4.66h-2.7v4.46c0 .4-.2.6-.6.6h-.58c-.4 0-.6-.2-.6-.6zm1.77-6h2.56c.7 0 1.25-.22 1.66-.65s.6-1 .6-1.7c0-1-.38-1.65-1.18-2-.34-.14-.84-.2-1.5-.2H85.7v4.54zM94.14 225.56c0-.9.17-1.75.5-2.55s.77-1.48 1.35-2.06 1.26-1.02 2.07-1.36c.8-.33 1.68-.5 2.6-.5s1.8.17 2.62.5c.8.34 1.5.8 2.06 1.36s1 1.27 1.34 2.07.5 1.66.5 2.56c0 .93-.17 1.8-.5 2.62-.33.82-.78 1.53-1.34 2.12-.57.6-1.26 1.06-2.07 1.4-.83.35-1.7.52-2.62.52s-1.8-.17-2.6-.52c-.82-.34-1.52-.8-2.1-1.4-.56-.6-1-1.3-1.34-2.12-.33-.82-.5-1.7-.5-2.62zm1.84 0c0 .7.12 1.36.35 1.98.24.62.57 1.15.98 1.6.43.44.93.8 1.5 1.05.6.25 1.22.38 1.88.38 1.34 0 2.46-.48 3.34-1.44.9-.96 1.34-2.15 1.34-3.58 0-1.38-.45-2.53-1.34-3.45-.88-.92-2-1.38-3.34-1.38-.88 0-1.7.2-2.4.64s-1.3 1-1.7 1.73c-.4.73-.6 1.55-.6 2.46zM109.53 231.4v-11.5c0-.4.2-.6.6-.6h.57c.4 0 .6.2.6.6v11.5c0 .4-.2.6-.6.6h-.57c-.4 0-.6-.2-.6-.6z" class="st11"/></g></g><g id="cost-savings"><g id="Combined-Shape"><g class="st12"><path id="path-10_2_" d="M712.24 335L696 347l-16.24-12H599c-4.42 0-8-3.58-8-8v-80c0-4.42 3.58-8 8-8h187c4.42 0 8 3.58 8 8v80c0 4.42-3.58 8-8 8h-73.76z"/></g><path id="path-10_1_" d="M712.24 335L696 347l-16.24-12H599c-4.42 0-8-3.58-8-8v-80c0-4.42 3.58-8 8-8h187c4.42 0 8 3.58 8 8v80c0 4.42-3.58 8-8 8h-73.76z" class="st1"/></g><g id="_x33_-month-marker"><g class="st10"><path d="M654.15 301.94c0-1.32.46-2.47 1.38-3.45.92-.98 2.12-1.58 3.6-1.8v-1.65c0-.6.3-.9.87-.9h.2c.57 0 .85.27.85.8v1.72c1.47.08 2.8.54 4 1.37.4.28.5.68.23 1.22l-.34.67c-.3.5-.7.6-1.24.25-1.12-.72-2.26-1.08-3.44-1.08-1 0-1.83.27-2.5.8-.64.55-.97 1.2-.97 2 0 .4.1.76.32 1.1s.5.62.87.87.76.48 1.23.7c.47.23.96.45 1.48.66.53.22 1.05.45 1.56.7.5.23 1 .5 1.46.83.47.32.88.66 1.24 1.04s.65.84.86 1.38c.22.54.32 1.14.32 1.8 0 1.37-.45 2.55-1.36 3.53-.92 1-2.16 1.58-3.73 1.76v1.62c0 .6-.28.9-.84.9h-.2c-.58 0-.87-.26-.87-.78v-1.74c-1.72-.15-3.28-.78-4.67-1.87-.47-.37-.5-.78-.14-1.24l.44-.62c.32-.44.75-.5 1.27-.16 1.3 1 2.68 1.48 4.13 1.48.93 0 1.72-.25 2.37-.75s.96-1.18.96-2.05c0-.42-.12-.8-.33-1.16-.22-.36-.5-.67-.87-.93-.36-.26-.77-.5-1.24-.75-.47-.23-.96-.47-1.48-.7-.52-.22-1.04-.46-1.55-.7s-1-.52-1.47-.83c-.46-.33-.87-.67-1.23-1.03s-.65-.8-.86-1.33c-.22-.52-.32-1.1-.32-1.7zM668.42 313.07l.43-.62c.35-.44.76-.5 1.24-.17 1.24 1 2.55 1.52 3.9 1.52 1.1 0 2.02-.33 2.77-.98.75-.66 1.13-1.5 1.13-2.5 0-1.12-.43-2-1.28-2.6s-1.9-.92-3.15-.92h-.6c-.46 0-.8-.22-1-.65l-.08-.16c-.2-.43-.12-.8.22-1.17l3.66-4.36c.2-.2.38-.42.58-.63.2-.2.35-.35.45-.45l.17-.17v-.05c-.38.05-.92.08-1.62.08h-5.55c-.28 0-.5-.08-.66-.23s-.24-.38-.24-.66v-.54c0-.6.3-.9.9-.9h9.6c.6 0 .9.3.9.85v.24c0 .43-.14.8-.4 1.08l-4.8 5.5c.55.07 1.07.17 1.57.34.5.16 1 .4 1.5.7.5.3.93.66 1.3 1.07.36.43.66.93.9 1.54s.33 1.26.33 1.97c0 .83-.15 1.6-.47 2.35-.3.74-.74 1.4-1.3 1.94-.55.55-1.24 1-2.06 1.33-.82.33-1.7.5-2.65.5-1.96 0-3.8-.68-5.55-2.03-.44-.35-.48-.76-.15-1.23zM682.67 318.35l1.4-4.43c.14-.5.47-.75 1-.75h.84c.35 0 .58.1.7.3.14.18.14.43 0 .72l-1.82 4.48c-.17.45-.52.67-1.06.67h-.3c-.3 0-.54-.1-.67-.27-.13-.18-.16-.43-.08-.73zM689.48 315.1v-.54c0-.6.3-.88.9-.88h3.3v-12.3l.03-1.17h-.04c-.17.3-.45.64-.84 1.03l-1.22 1.2c-.44.4-.86.4-1.24-.04l-.38-.4c-.42-.4-.42-.83 0-1.25l3.46-3.38c.3-.3.68-.43 1.08-.43h.88c.6 0 .88.3.88.9v15.84h3.3c.6 0 .88.3.88.88v.54c0 .6-.3.9-.9.9h-9.18c-.6 0-.9-.3-.9-.9zM702.07 315.1v-.56c0-.73.1-1.42.3-2.06.22-.65.5-1.22.86-1.7s.75-.98 1.2-1.43c.46-.45.94-.86 1.44-1.24.5-.36 1-.73 1.5-1.1s1-.7 1.47-1.04.88-.7 1.24-1.08c.36-.36.65-.76.87-1.2.2-.44.32-.9.32-1.37 0-.93-.32-1.7-.96-2.27s-1.45-.88-2.46-.88c-1.32 0-2.44.58-3.37 1.75-.4.47-.8.53-1.2.18l-.45-.37c-.46-.36-.53-.76-.23-1.2.2-.32.46-.6.74-.9.28-.3.64-.6 1.1-.9.43-.34.96-.6 1.6-.8.6-.18 1.28-.28 1.98-.28 1.75 0 3.2.5 4.32 1.52 1.12 1 1.7 2.33 1.7 3.97 0 .68-.12 1.3-.32 1.9s-.5 1.13-.84 1.6c-.36.45-.76.9-1.22 1.32-.45.42-.93.8-1.44 1.16-.5.36-1 .7-1.52 1.04-.5.34-1 .68-1.45 1.02-.46.34-.87.7-1.23 1.04-.36.35-.64.74-.86 1.16s-.33.87-.34 1.34h8.64c.6 0 .88.3.88.88v.54c0 .6-.3.9-.87.9H703c-.27 0-.5-.08-.67-.23-.17-.15-.26-.38-.26-.67zM717.34 313.04l.44-.6c.34-.43.75-.47 1.2-.1 1.03.97 2.2 1.46 3.52 1.46 1.15 0 2.14-.36 2.95-1.08.82-.73 1.23-1.66 1.23-2.8s-.4-2.06-1.24-2.8c-.82-.74-1.85-1.1-3.1-1.1-.8 0-1.7.2-2.6.66-.45.16-.85.18-1.2.07l-.23-.1c-.48-.2-.7-.54-.65-1.04l.82-7.82c.06-.56.36-.84.9-.84h7.87c.6 0 .9.3.9.9v.53c0 .6-.3.9-.9.9h-6.4l-.45 4c-.03.17-.05.33-.07.5-.02.17-.03.3-.05.4l-.03.1h.05c.08-.03.2-.1.34-.15.14-.07.43-.16.86-.27s.85-.16 1.26-.16c1.3 0 2.47.27 3.48.82 1.02.56 1.8 1.3 2.33 2.25.54.95.8 2 .8 3.13 0 1.84-.63 3.37-1.9 4.6-1.3 1.22-2.9 1.83-4.8 1.83-2.06 0-3.8-.7-5.25-2.08-.44-.36-.46-.76-.08-1.2z" class="st13"/></g><g class="st10"><path d="M610.2 265l3.57-9.88h1.46l3.55 9.88h-1.44l-1-2.84h-3.72l-.98 2.84h-1.43zm2.78-4h3l-1.1-3.12-.37-1.4h-.02c-.15.6-.28 1.08-.4 1.4L613 261zM619 257.92h1.43l1.72 4.78c.06.2.1.33.12.42.02.1.05.25.1.4l.02.15h.02l.03-.15.1-.4c.04-.15.08-.3.12-.42l1.72-4.78h1.42l-2.6 7.08h-1.6l-2.63-7.08zM626.52 261.3c0-1.06.28-1.9.83-2.56.55-.66 1.3-1 2.27-1 .3 0 .6.04.88.1.27.08.48.17.64.28.18.12.3.22.4.3.13.12.2.2.23.28l.07.1h.03c0-.1-.02-.17-.02-.23v-.65h1.3v6.8c0 .54-.1 1.03-.3 1.47-.2.42-.48.76-.83 1-.33.25-.7.43-1.12.55-.4.13-.85.2-1.3.2-.85 0-1.66-.2-2.43-.6l.45-1.06c.6.3 1.24.46 1.94.46.67 0 1.2-.16 1.62-.48.4-.32.62-.83.62-1.5v-.97h-.02c-.43.75-1.13 1.12-2.1 1.12s-1.72-.35-2.3-1.03c-.57-.7-.86-1.56-.86-2.6zm1.38-.04c0 .75.2 1.35.55 1.8.38.45.88.68 1.5.68.55 0 1-.2 1.35-.57.35-.4.52-1 .52-1.87 0-1.58-.66-2.38-2-2.38-.6 0-1.07.2-1.4.62-.35.42-.52 1-.52 1.72zM635.28 265v-1.4h1.43v1.4h-1.42zM641.48 265l3.56-9.88h1.45l3.55 9.88h-1.44l-1-2.84h-3.7l-1 2.84h-1.42zm2.77-4h3l-1.1-3.12-.37-1.4h-.03c-.16.6-.3 1.08-.4 1.4l-1.1 3.13zM651.22 265v-7.08h1.32v.93l-.03.52h.04c.18-.4.5-.77.95-1.1s1-.52 1.7-.52c1.62 0 2.43.9 2.43 2.7V265h-1.35v-4.22c0-.57-.1-1-.28-1.32-.2-.3-.54-.47-1.07-.47s-1 .15-1.4.48c-.4.32-.68.74-.83 1.25-.08.26-.12.58-.12.95V265h-1.36zM659.66 265v-7.08h1.3V259.37c.2-.4.5-.77.96-1.1s1.02-.52 1.7-.52c1.63 0 2.45.9 2.45 2.7V265h-1.36v-4.22c0-.57-.08-1-.27-1.32-.18-.3-.54-.47-1.06-.47-.53 0-1 .15-1.4.48-.4.32-.7.74-.84 1.25-.08.26-.12.58-.12.95V265h-1.34zM668 262.45v-4.53h1.35v4.2c0 .6.1 1.03.27 1.32.18.3.54.45 1.06.45.7 0 1.25-.27 1.67-.78.42-.53.63-1.16.63-1.9v-3.3h1.35V265h-1.3v-.94l.02-.53h-.02c-.18.42-.5.8-.97 1.13-.47.34-1.02.5-1.64.5-1.62 0-2.43-.9-2.43-2.7zM675.9 263c0-1.62 1.4-2.43 4.26-2.43h.3v-.13c0-1.03-.5-1.54-1.54-1.54-.3 0-.63.05-.98.17-.3.1-.56.2-.74.33l-.25.18-.57-1c.05-.04.16-.12.33-.23.13-.08.43-.2.92-.37.45-.16.92-.23 1.4-.23.9 0 1.6.24 2.1.7.47.5.72 1.18.72 2.07V265h-1.25v-.67l.02-.56h-.03l-.1.15c-.03.07-.1.18-.22.33-.13.16-.27.3-.43.43-.16.12-.37.23-.65.33-.28.12-.58.17-.9.17-.65 0-1.22-.2-1.7-.57-.47-.38-.7-.9-.7-1.6zm1.37-.06c0 .3.12.57.36.8.22.23.55.34.97.34.54 0 1-.24 1.35-.7.35-.48.53-1 .53-1.56v-.22h-.35c-1.9 0-2.86.44-2.86 1.34zM683.76 263.07v-7.95h1.36v7.72c0 .4.06.66.2.8.13.14.3.2.56.2h.23v1.2c-.1 0-.26 0-.44 0-1.26 0-1.9-.65-1.9-1.97zM690.76 260c0-1.44.48-2.64 1.43-3.6s2.15-1.45 3.6-1.45c.44 0 .87.04 1.27.13.4.1.74.2 1.02.32.25.12.48.25.7.38.18.1.33.23.44.33l.14.14-.68 1.04c-.07-.08-.2-.18-.37-.3-.17-.13-.5-.3-.98-.48-.5-.2-1-.3-1.5-.3-1.1 0-1.97.36-2.64 1.08-.67.73-1 1.63-1 2.7 0 1.08.33 2 1.02 2.77.68.76 1.56 1.14 2.64 1.14.54 0 1.07-.1 1.58-.33.5-.2.88-.42 1.12-.64l.35-.32.75 1c-.02.03-.08.1-.16.18-.08.06-.24.2-.48.37-.26.18-.52.34-.8.47-.28.15-.63.27-1.06.38-.44.1-.9.17-1.34.17-1.47 0-2.68-.5-3.63-1.5-.97-1-1.44-2.2-1.44-3.67zM700.74 261.45c0-1.07.37-1.95 1.1-2.65.74-.7 1.65-1.05 2.72-1.05 1.06 0 1.97.35 2.7 1.05.75.7 1.1 1.58 1.1 2.65 0 1.06-.36 1.94-1.1 2.65-.74.72-1.64 1.07-2.7 1.07-1.07 0-1.97-.35-2.7-1.07-.75-.7-1.12-1.6-1.12-2.65zm1.38 0c0 .73.24 1.34.7 1.8.5.5 1.06.75 1.74.75.68 0 1.25-.25 1.73-.73.46-.47.7-1.08.7-1.82 0-.73-.24-1.34-.7-1.8-.5-.5-1.06-.73-1.74-.73-.68 0-1.25.24-1.73.72-.47.47-.7 1.08-.7 1.8zM709.4 264.13l.67-.96c.04.05.12.13.25.23.1.08.33.2.7.36.35.16.7.24 1.08.24.3 0 .6-.08.83-.24.23-.16.35-.37.35-.65 0-.22-.13-.43-.38-.6-.24-.18-.55-.33-.9-.47-.37-.14-.73-.3-1.08-.45-.36-.17-.66-.4-.9-.7-.26-.32-.4-.7-.4-1.12 0-.62.26-1.1.74-1.47.48-.37 1.1-.55 1.83-.55.45 0 .87.06 1.26.2.37.12.63.25.8.38l.2.2-.53 1.02c-.04-.03-.1-.1-.2-.17s-.3-.17-.6-.28c-.3-.12-.62-.18-.95-.18-.33 0-.6.08-.83.22-.22.14-.34.36-.34.65 0 .22.14.42.4.6.23.16.54.3.9.45.4.15.75.3 1.07.44.35.15.65.4.9.7.26.32.4.68.4 1.1 0 .6-.25 1.1-.72 1.5-.47.38-1.1.57-1.85.57-.5 0-1-.1-1.45-.26-.44-.16-.75-.33-.94-.52l-.3-.25zM715.62 259.1V258h.97v-2.03h1.3V258h1.7v1.1h-1.7v3.16c0 .26.04.5.12.7.08.22.17.37.27.47.1.1.23.2.37.27.12.06.25.1.4.12.1.02.2.03.34.03l.34-.03v1.2c-.1.03-.27.03-.48.03-.22 0-.43 0-.64-.04-.2 0-.43-.08-.7-.2-.27-.1-.5-.25-.68-.44-.2-.18-.36-.44-.5-.78-.12-.32-.2-.7-.2-1.17v-3.3h-.92z" class="st11"/></g><g class="st10"><path d="M723.1 263.5l.23-.33c.1-.13.2-.2.33-.2.1 0 .2.04.3.1.74.55 1.45.82 2.16.82.52 0 .94-.14 1.26-.4.3-.25.47-.6.47-1.03 0-.3-.1-.55-.26-.78-.2-.24-.42-.44-.7-.6-.27-.15-.58-.3-.92-.45-.34-.15-.67-.3-1-.47s-.66-.36-.94-.57-.5-.46-.68-.8-.27-.7-.27-1.1c0-.83.3-1.5.9-2 .6-.5 1.38-.75 2.3-.75.53 0 1 .08 1.45.24.45.14.8.32 1.02.5.14.1.2.22.2.37 0 .08 0 .17-.05.26l-.2.35c-.1.15-.2.23-.34.23-.08 0-.18-.03-.3-.1-.63-.38-1.23-.57-1.8-.57-.53 0-.96.13-1.3.38-.32.26-.5.6-.5 1.02 0 .3.1.54.28.76.17.23.4.4.68.56s.6.3.92.43c.34.14.68.3 1.02.46.33.17.64.36.92.57.28.2.5.48.7.82s.25.7.25 1.14c0 .8-.28 1.47-.85 2s-1.32.8-2.28.8c-.63 0-1.2-.1-1.72-.3s-.94-.46-1.25-.7c-.12-.12-.18-.24-.18-.35 0-.1.04-.2.12-.3zM730.25 263.07c0-.3.05-.6.16-.83.12-.25.25-.45.43-.62.17-.17.38-.3.63-.43s.5-.23.73-.3.5-.13.8-.17c.3-.04.55-.07.78-.08.23 0 .46-.02.7-.02h.36v-.18c0-1.04-.5-1.55-1.54-1.55-.55 0-1.1.15-1.6.45-.1.04-.2.06-.27.06-.15 0-.27-.07-.37-.22l-.1-.2c-.07-.1-.1-.2-.1-.3 0-.14.08-.25.24-.33.7-.4 1.46-.6 2.3-.6.88 0 1.56.24 2.05.7.5.5.73 1.18.73 2.07v4.02c0 .3-.15.46-.46.46h-.34c-.3 0-.46-.16-.46-.46v-.42c0-.08 0-.15 0-.23.02-.08.03-.14.04-.17v-.05h-.02c-.02.04-.05.1-.08.16-.04.07-.13.2-.26.36-.13.17-.28.32-.44.45s-.38.25-.65.36c-.26.12-.56.17-.87.17-.65 0-1.2-.2-1.68-.57s-.7-.9-.7-1.53zm1.37-.1c0 .3.12.57.35.8.24.22.56.33.97.33.38 0 .72-.1 1.02-.35s.53-.52.67-.86c.15-.35.23-.7.23-1.06v-.3h-.37c-1.92 0-2.88.47-2.88 1.42zM737.3 258.45c-.07-.16-.06-.3 0-.4.07-.08.18-.13.35-.13h.48c.27 0 .44.12.52.37l1.6 4.4c.03.12.07.26.12.42.04.16.07.3.1.4l.03.15h.02c.1-.4.17-.7.26-.97l1.6-4.4c.07-.26.24-.38.5-.38h.5c.16 0 .27.05.34.14.07.1.07.23 0 .4l-2.3 6.18c-.06.24-.24.36-.5.36h-.8c-.25 0-.43-.12-.5-.36l-2.33-6.2zM744.97 256.04v-.46c0-.3.15-.46.47-.46h.48c.3 0 .46.15.46.46v.46c0 .14-.04.26-.12.34-.08.08-.2.12-.34.12h-.48c-.32 0-.47-.15-.47-.46zm0 8.5v-6.16c0-.3.17-.46.48-.46h.43c.32 0 .47.15.47.46v6.16c0 .3-.15.46-.47.46h-.43c-.3 0-.47-.16-.47-.46zM748.3 264.54v-6.16c0-.3.15-.46.47-.46h.4c.3 0 .46.15.46.46v.62l-.04.42c.1-.18.2-.35.34-.53.14-.18.3-.36.53-.54s.48-.33.8-.45c.32-.1.66-.15 1.03-.15.82 0 1.42.22 1.82.67.4.45.6 1.13.6 2.04v4.08c0 .3-.17.46-.47.46h-.43c-.3 0-.46-.16-.46-.46v-3.76c0-.28-.02-.5-.05-.7-.02-.2-.1-.4-.18-.56-.1-.18-.23-.3-.4-.4-.2-.08-.42-.13-.7-.13-.67 0-1.24.24-1.68.74s-.67 1.13-.67 1.87v2.94c0 .3-.16.46-.47.46h-.43c-.32 0-.48-.16-.48-.46zM756.15 261.27c0-1.03.28-1.88.83-2.54s1.33-.98 2.32-.98c.33 0 .63.04.9.12s.5.18.65.3c.15.1.28.23.4.35.1.1.17.2.2.3l.07.12h.02c0-.06-.02-.14-.02-.23v-.4c0-.25.15-.38.47-.38h.32c.32 0 .47.15.47.46v6.33c0 .46-.07.87-.2 1.24-.14.37-.32.67-.54.92-.23.24-.5.44-.8.6-.3.18-.62.3-.95.37-.32.07-.66.1-1.02.1-.78 0-1.46-.12-2.06-.38-.2-.08-.3-.2-.3-.38 0-.07.03-.15.06-.24l.1-.23c.08-.2.2-.3.37-.3.07 0 .14.02.22.06.55.2 1.06.3 1.53.3.3 0 .6-.03.85-.1.26-.08.5-.2.7-.34.2-.16.37-.36.5-.63.1-.27.17-.57.17-.93v-.6l.04-.46h-.03c-.43.82-1.13 1.22-2.1 1.22-.64 0-1.2-.16-1.7-.48s-.85-.75-1.1-1.3c-.25-.55-.38-1.17-.38-1.87zm1.37-.05c0 .77.2 1.38.55 1.83.37.46.87.7 1.5.7.26 0 .5-.05.7-.13.23-.1.43-.22.6-.4.2-.18.33-.43.43-.76s.15-.7.15-1.14c0-1.6-.66-2.4-1.97-2.4-.62 0-1.1.2-1.45.62-.34.4-.5.97-.5 1.68zM764.4 263.78l.13-.2c.1-.12.2-.18.3-.2s.2.02.34.1c.58.4 1.16.58 1.74.58.37 0 .66-.08.88-.25.22-.15.33-.38.33-.68 0-.2-.06-.35-.2-.5-.12-.13-.3-.25-.5-.35-.22-.1-.46-.2-.72-.3s-.52-.2-.78-.3-.5-.26-.72-.4c-.22-.17-.4-.37-.53-.62s-.2-.54-.2-.87c0-.64.25-1.14.74-1.5.48-.36 1.1-.53 1.82-.53.74 0 1.4.18 1.98.54.12.05.2.14.22.25s0 .24-.07.36l-.13.22c-.08.15-.2.23-.34.23-.08 0-.18-.03-.28-.08-.46-.28-.94-.42-1.44-.42-.36 0-.64.08-.86.23-.22.16-.33.38-.33.67 0 .2.07.37.2.5.13.15.3.27.52.37.2.1.44.2.7.28.26.1.52.2.78.3.26.13.5.27.72.42.22.15.4.35.53.6s.2.54.2.87c0 .6-.23 1.1-.7 1.48s-1.1.6-1.86.6c-.9 0-1.7-.26-2.4-.77-.12-.08-.2-.2-.2-.3 0-.1.04-.2.12-.32z" class="st11"/></g><g class="st10"><path d="M620.7 281v-9.88h3.62c.92 0 1.67.28 2.25.84s.87 1.32.87 2.25c0 .94-.3 1.7-.88 2.27-.58.58-1.33.87-2.24.87h-2.24V281h-1.38zm1.38-4.86h2c.6 0 1.08-.17 1.4-.5.36-.36.53-.83.53-1.43 0-.58-.16-1.04-.5-1.38-.35-.33-.82-.5-1.4-.5h-2.02v3.82zM628.43 277.46c0-1.1.33-2 1-2.7.66-.67 1.5-1 2.52-1 .96 0 1.7.3 2.26.92.55.63.82 1.42.82 2.4l-.05.58h-5.16c.04.74.3 1.32.75 1.72.48.4 1.04.62 1.7.62.35 0 .7-.08 1.07-.22.32-.12.57-.26.77-.4l.24-.2.56.98c-.1.1-.2.18-.33.28-.18.13-.5.28-.94.45-.48.18-.97.27-1.47.27-1.1 0-2-.35-2.7-1.06-.68-.7-1.03-1.58-1.03-2.64zm1.42-.83h3.8c-.04-.6-.2-1.03-.53-1.34-.32-.3-.72-.46-1.2-.46-.53 0-1 .16-1.37.47-.37.32-.6.76-.7 1.33zM636.7 281v-7.08h1.3v1.23l-.03.53h.03c.17-.54.45-.98.85-1.33.4-.35.85-.52 1.4-.52l.34.03v1.34c-.14-.02-.26-.04-.4-.04-.44 0-.84.15-1.2.45-.37.32-.63.72-.8 1.23-.1.38-.16.8-.16 1.27v2.9h-1.35zM645.67 277.5v-6.38h1.38v6.38c0 .75.22 1.34.67 1.76.45.42 1.06.63 1.82.63.78 0 1.4-.22 1.85-.64.44-.43.67-1.02.67-1.8v-6.34h1.38v6.38c0 1.1-.36 1.97-1.08 2.65-.72.68-1.66 1.02-2.82 1.02-1.15 0-2.08-.34-2.8-1.02-.72-.68-1.08-1.56-1.08-2.65zM655.14 280.13l.66-.96c.04.05.12.13.25.23.1.08.33.2.7.36.35.16.7.24 1.07.24.32 0 .6-.08.83-.24.24-.16.35-.37.35-.65 0-.22-.12-.43-.37-.6-.25-.18-.55-.33-.92-.47-.34-.14-.7-.3-1.05-.45-.36-.17-.66-.4-.9-.7-.26-.32-.4-.7-.4-1.12 0-.62.25-1.1.74-1.47.47-.37 1.08-.55 1.82-.55.46 0 .88.06 1.26.2.38.12.64.25.8.38l.22.2-.54 1.02c-.04-.03-.1-.1-.2-.17s-.3-.17-.6-.28c-.3-.12-.62-.18-.95-.18-.32 0-.6.08-.82.22-.23.14-.34.36-.34.65 0 .22.13.42.38.6.24.16.55.3.92.45.4.15.74.3 1.06.44.35.15.65.4.9.7.26.32.38.68.38 1.1 0 .6-.23 1.1-.7 1.5-.47.38-1.1.57-1.86.57-.5 0-.98-.1-1.44-.26-.44-.16-.75-.33-.95-.52l-.3-.25zM661.5 277.46c0-1.1.32-2 1-2.7.65-.67 1.5-1 2.52-1 .96 0 1.7.3 2.25.92.54.63.8 1.42.8 2.4l-.03.58h-5.17c.04.74.3 1.32.75 1.72.48.4 1.04.62 1.7.62.35 0 .7-.08 1.06-.22.32-.12.58-.26.78-.4l.25-.2.57.98c-.1.1-.2.18-.34.28-.17.13-.5.28-.93.45-.5.18-.98.27-1.47.27-1.1 0-2-.35-2.7-1.06-.7-.7-1.04-1.58-1.04-2.64zm1.4-.83h3.8c-.02-.6-.2-1.03-.5-1.34-.33-.3-.73-.46-1.2-.46-.54 0-1 .16-1.38.47-.37.32-.6.76-.7 1.33zM669.75 281v-7.08h1.3v1.76c.2-.54.47-.98.86-1.33.4-.35.87-.52 1.4-.52l.35.03v1.34c-.12-.02-.25-.04-.4-.04-.42 0-.82.15-1.2.45-.36.32-.62.72-.77 1.23-.12.38-.18.8-.18 1.27v2.9h-1.35zM678 271.12h1.42l1.75 7.25.2 1.05c.06-.36.13-.7.23-1.05l1.92-7.25h1.23l1.92 7.25.22 1.05c.04-.35.1-.7.2-1.05l1.83-7.25h1.42l-2.6 9.88h-1.6l-1.7-6.4-.3-1.4h-.02c-.08.47-.18.93-.3 1.4l-1.7 6.4h-1.62l-2.5-9.88zM691.85 272.5v-1.38h1.37v1.38h-1.37zm.02 8.5v-7.08h1.35V281h-1.35zM694.7 275.1V274h.98v-2.03h1.3V274h1.72v1.1H697v3.16c0 .26.03.5.1.7.1.22.18.37.28.47.1.1.24.2.38.27.12.06.25.1.4.12.1.02.2.03.34.03l.33-.03v1.2c-.1.03-.27.03-.48.03-.22 0-.44 0-.64-.04-.2 0-.42-.08-.7-.2-.26-.1-.48-.25-.67-.44-.2-.18-.36-.44-.5-.78-.12-.32-.2-.7-.2-1.17v-3.3h-.92zM700.36 281v-9.88h1.35v3.63l-.02.58h.03c.2-.4.5-.77.98-1.1.46-.32 1-.48 1.65-.48 1.62 0 2.43.9 2.43 2.7V281h-1.35v-4.22c0-.57-.1-1-.27-1.32-.2-.3-.55-.47-1.07-.47s-.98.16-1.4.48-.7.75-.84 1.26c-.07.26-.1.58-.1.94V281h-1.36zM712.67 281v-9.88h3.46c.85 0 1.55.22 2.08.67s.8 1.05.8 1.84c0 .47-.1.9-.33 1.27-.2.38-.52.66-.9.86v.03c.5.14.9.44 1.2.87.28.45.43.95.43 1.5 0 .9-.3 1.6-.9 2.1-.6.48-1.37.73-2.3.73h-3.53zm1.38-5.73h2.07c.44 0 .8-.14 1.06-.42.26-.27.4-.63.4-1.08 0-.43-.13-.78-.4-1.05s-.62-.4-1.1-.4h-2.03v2.95zm0 4.53h2.23c.5 0 .93-.16 1.23-.46.32-.3.47-.7.47-1.22 0-.5-.16-.9-.47-1.23s-.73-.48-1.24-.48h-2.2v3.38zM721.17 279.07v-7.95h1.35v7.72c0 .4.07.66.2.8s.32.2.56.2h.24v1.2c-.13 0-.28 0-.45 0-1.27 0-1.9-.65-1.9-1.97zM724.86 278.45v-4.53h1.35v4.2c0 .6.1 1.03.3 1.32.17.3.53.45 1.05.45.7 0 1.24-.27 1.66-.78.43-.53.65-1.16.65-1.9v-3.3h1.35V281h-1.3v-.94l.02-.53h-.03c-.2.42-.5.8-.97 1.13-.47.34-1.02.5-1.65.5-1.6 0-2.42-.9-2.42-2.7zM732.84 277.46c0-1.1.33-2 1-2.7.66-.67 1.5-1 2.52-1 .96 0 1.7.3 2.26.92.54.63.8 1.42.8 2.4l-.04.58h-5.16c.04.74.3 1.32.75 1.72.47.4 1.04.62 1.7.62.34 0 .7-.08 1.06-.22.32-.12.58-.26.77-.4l.26-.2.55.98c-.08.1-.2.18-.32.28-.18.13-.5.28-.94.45-.48.18-.97.27-1.46.27-1.1 0-2-.35-2.7-1.06-.7-.7-1.04-1.58-1.04-2.64zm1.42-.83h3.8c-.03-.6-.2-1.03-.52-1.34-.33-.3-.72-.46-1.2-.46-.54 0-1 .16-1.37.47-.38.32-.6.76-.7 1.33zM740.6 279.88l.8-1.05c.04.04.08.08.1.1.1.08.2.17.35.27.2.13.36.24.54.33.17.1.4.18.7.25.26.08.53.1.8.1.5 0 .9-.12 1.23-.38.32-.25.5-.6.5-1.07 0-.3-.1-.54-.28-.76-.18-.23-.4-.43-.7-.58-.3-.2-.62-.34-.92-.47-.34-.15-.68-.3-1.02-.47-.33-.18-.64-.36-.9-.57-.3-.2-.5-.47-.7-.8-.17-.32-.26-.7-.26-1.1 0-.77.3-1.42.9-1.96.6-.52 1.36-.8 2.28-.8.56 0 1.06.1 1.5.26.47.17.8.34 1 .5l.28.24-.62 1.15c-.04-.06-.14-.14-.3-.25-.1-.1-.35-.22-.74-.38-.38-.16-.75-.24-1.12-.24-.52 0-.95.14-1.3.42s-.5.62-.5 1.03c0 .37.17.7.5.95.33.26.73.5 1.2.67.4.16.88.37 1.4.62.47.23.87.55 1.2.96.3.42.48.92.48 1.5 0 .8-.3 1.46-.85 2s-1.33.8-2.27.8c-.4 0-.76-.05-1.14-.14-.36-.1-.67-.2-.92-.32-.23-.12-.45-.25-.66-.38-.2-.14-.34-.25-.4-.33l-.15-.12zM748.1 275.1V274h.97v-2.03h1.32V274h1.7v1.1h-1.7v3.16c0 .26.03.5.1.7.1.22.18.37.28.47.1.1.23.2.37.27.12.06.25.1.4.12.1.02.22.03.35.03l.33-.03v1.2c-.12.03-.28.03-.48.03-.23 0-.44 0-.64-.04-.2 0-.43-.08-.7-.2-.26-.1-.5-.25-.68-.44-.2-.18-.35-.44-.5-.78-.12-.32-.2-.7-.2-1.17v-3.3h-.92zM753.18 279c0-1.62 1.42-2.43 4.27-2.43h.3v-.13c0-1.03-.5-1.54-1.54-1.54-.3 0-.63.05-.97.17-.3.1-.56.2-.74.33l-.27.18-.56-1c.05-.04.16-.12.33-.23.1-.08.42-.2.9-.37.46-.16.93-.23 1.42-.23.9 0 1.6.24 2.08.7.48.5.72 1.18.72 2.07V281h-1.24v-.67l.03-.56h-.02l-.08.15c-.04.07-.12.18-.24.33-.12.16-.26.3-.42.43-.16.12-.38.23-.65.33-.3.12-.6.17-.9.17-.66 0-1.23-.2-1.7-.57-.5-.38-.72-.9-.72-1.6zm1.38-.06c0 .3.12.57.35.8.24.23.56.34 1 .34.52 0 .98-.24 1.34-.7.35-.48.53-1 .53-1.56v-.22h-.35c-1.9 0-2.86.44-2.86 1.34zM761.14 281v-7.08h1.3v1.76c.18-.54.47-.98.86-1.33.4-.35.86-.52 1.4-.52l.34.03v1.34c-.12-.02-.25-.04-.4-.04-.42 0-.83.15-1.2.45-.36.32-.62.72-.78 1.23-.1.38-.17.8-.17 1.27v2.9h-1.36z" class="st11"/></g></g></g><linearGradient id="Combined-Shape-Copy_3_" x1="577.809" x2="577.809" y1="341.594" y2="340.696" gradientUnits="userSpaceOnUse" gradientTransform="matrix(-1629 0 0 -465.804 942066 159382.281)"><stop offset="0" stop-color="#fff" stop-opacity=".893"/><stop offset="1" stop-color="#fff" stop-opacity="0"/></linearGradient><path id="Combined-Shape-Copy" d="M1173.76 684.8c407.2-181.1 541.23-316.6 402.08-406.5-208.72-134.83-403.75-7.54-520.67 64.94s-267.05 77.07-410.98 0C428.26 227.62 213.53 238.1 0 374.74V684.8h1173.76z" class="st14"/><linearGradient id="Combined-Shape-Copy_4_" x1="577.809" x2="577.809" y1="341.594" y2="340.696" gradientUnits="userSpaceOnUse" gradientTransform="matrix(-1629 0 0 -465.804 942066 159382.281)"><stop offset="0" stop-color="#fff" stop-opacity=".893"/><stop offset="1" stop-color="#fff" stop-opacity="0"/></linearGradient><path id="Combined-Shape-Copy_1_" d="M1173.76 684.8c407.2-181.1 541.23-316.6 402.08-406.5-208.72-134.83-403.75-7.54-520.67 64.94s-267.05 77.07-410.98 0C428.26 227.62 213.53 238.1 0 374.74V684.8h1173.76z" class="st15"/><path id="Combined-Shape-Copy_2_" d="M697.9 368.15c-17.95-7.07-35.88-15.36-53.7-24.9-101.8-54.5-203.3-81-304.55-79.45" class="st16"/><path id="Triangle-3" d="M706.9 373.88l-22.9-.96L695.5 353l12.28 19.34c.3.47.16 1.1-.3 1.38-.18.1-.38.17-.6.16z" class="st1"/><g id="Oval-Copy-3"><g class="st17"><circle id="path-13_2_" cx="339.5" cy="263.5" r="9.5"/></g><circle id="path-13_1_" cx="339.5" cy="263.5" r="9.5" class="st1"/></g><g id="_x33_-month-marker_1_"><g id="Group-2"><g id="Combined-Shape_1_"><g class="st18"><path id="path-15_2_" d="M354.24 234L338 246l-16.24-12H214c-4.42 0-8-3.58-8-8v-74c0-4.42 3.58-8 8-8h239c4.42 0 8 3.58 8 8v74c0 4.42-3.58 8-8 8h-98.76z"/></g><path id="path-15_1_" d="M354.24 234L338 246l-16.24-12H214c-4.42 0-8-3.58-8-8v-74c0-4.42 3.58-8 8-8h239c4.42 0 8 3.58 8 8v74c0 4.42-3.58 8-8 8h-98.76z" class="st1"/></g><g class="st10"><path d="M286.13 202.94c0-1.32.46-2.47 1.38-3.45s2.13-1.58 3.6-1.8v-1.65c0-.6.3-.9.88-.9h.2c.57 0 .86.27.86.8v1.72c1.46.08 2.8.54 3.98 1.37.42.28.5.68.24 1.22l-.34.67c-.3.5-.7.6-1.24.25-1.12-.72-2.26-1.08-3.44-1.08-1 0-1.83.27-2.48.8-.66.55-.98 1.2-.98 2 0 .4.1.76.32 1.1.22.33.5.62.87.87.36.24.77.48 1.24.7s.97.45 1.5.66 1.03.45 1.54.7c.5.23 1 .5 1.47.83.47.32.88.66 1.24 1.04s.65.84.86 1.38c.22.54.32 1.14.32 1.8 0 1.37-.45 2.55-1.36 3.53-.9 1-2.16 1.58-3.72 1.76v1.62c0 .6-.3.9-.85.9h-.22c-.58 0-.87-.26-.87-.78v-1.74c-1.7-.15-3.26-.78-4.66-1.87-.47-.37-.5-.78-.13-1.24l.44-.62c.33-.44.75-.5 1.27-.16 1.3 1 2.7 1.48 4.14 1.48.93 0 1.72-.25 2.37-.75s.97-1.18.97-2.05c0-.42-.1-.8-.32-1.16-.22-.36-.5-.67-.87-.93-.36-.26-.77-.5-1.24-.75-.47-.23-.96-.47-1.48-.7s-1.04-.46-1.55-.7c-.5-.24-1-.52-1.45-.83s-.88-.67-1.24-1.03-.64-.8-.85-1.33c-.22-.52-.32-1.1-.32-1.7zM300.47 216.1v-.54c0-.6.3-.88.9-.88h3.3v-12.3l.03-1.17h-.05c-.17.3-.45.64-.84 1.03l-1.2 1.2c-.45.4-.87.4-1.25-.04l-.38-.4c-.42-.4-.42-.83 0-1.25l3.46-3.38c.3-.3.68-.43 1.08-.43h.9c.58 0 .87.3.87.9v15.84h3.3c.6 0 .88.3.88.88v.54c0 .6-.3.9-.9.9h-9.18c-.6 0-.9-.3-.9-.9zM313.4 208.4c0-.85.07-1.7.22-2.54s.38-1.67.7-2.48.68-1.56 1.16-2.25 1.03-1.3 1.65-1.83c.6-.52 1.33-.93 2.16-1.23.82-.3 1.7-.45 2.66-.45 1.06 0 2 .15 2.85.45.57.2.74.57.52 1.14l-.25.7c-.1.28-.23.46-.4.54-.2.08-.4.08-.65 0-.7-.24-1.35-.35-1.96-.35-.85 0-1.63.17-2.33.54-.7.37-1.3.86-1.75 1.5-.47.6-.84 1.3-1.12 2.04-.28.75-.48 1.55-.58 2.4h.05c.4-.57 1-1.03 1.78-1.4.8-.34 1.67-.52 2.64-.52 1.73 0 3.14.58 4.23 1.75 1.1 1.18 1.63 2.64 1.63 4.4 0 1.9-.57 3.45-1.73 4.68-1.15 1.23-2.62 1.85-4.4 1.85-2.05 0-3.74-.83-5.07-2.48-1.34-1.65-2-3.8-2-6.46zm2.75 1.3c0 .76.17 1.52.53 2.3.36.8.88 1.47 1.56 2.03.68.55 1.42.83 2.23.83 1.06 0 1.9-.36 2.54-1.1.64-.72.95-1.67.95-2.84s-.35-2.14-1.05-2.88-1.7-1.1-2.95-1.1c-1.06 0-1.95.26-2.7.8s-1.1 1.2-1.1 1.97zM328.55 219.35l1.4-4.43c.15-.5.48-.75 1-.75h.85c.33 0 .56.1.7.3.13.18.13.43 0 .72l-1.84 4.48c-.17.45-.52.67-1.05.67h-.28c-.33 0-.56-.1-.7-.27-.12-.18-.15-.43-.07-.73zM335.92 207.45c0-1.14.07-2.18.2-3.13.15-.96.4-1.86.72-2.7.33-.84.75-1.55 1.26-2.13.5-.6 1.15-1.04 1.92-1.38s1.66-.5 2.65-.5c1 0 1.88.17 2.66.5.78.34 1.42.8 1.93 1.37.5.57.93 1.28 1.25 2.12s.57 1.74.7 2.7c.15.95.22 2 .22 3.13 0 1.14-.07 2.2-.2 3.15-.15.95-.38 1.86-.7 2.7-.33.84-.75 1.56-1.26 2.14-.5.58-1.15 1.04-1.93 1.38-.78.34-1.67.5-2.66.5-1 0-1.87-.16-2.65-.5s-1.4-.8-1.92-1.38-.93-1.3-1.26-2.14c-.33-.84-.57-1.75-.7-2.7-.15-.96-.22-2-.22-3.15zm2.76 0c0 1.1.06 2.07.2 2.92.12.85.33 1.63.62 2.33.3.7.7 1.23 1.24 1.6.53.38 1.18.56 1.93.56.76 0 1.4-.18 1.94-.56s.96-.9 1.25-1.6.5-1.48.63-2.33c.12-.85.2-1.82.2-2.92 0-1.1-.08-2.07-.2-2.9-.13-.86-.34-1.62-.63-2.32s-.7-1.22-1.24-1.6-1.17-.54-1.93-.54c-.6 0-1.14.1-1.6.36-.47.25-.85.6-1.15 1.02-.3.43-.55.97-.73 1.6-.2.64-.34 1.3-.4 2.02-.1.7-.12 1.5-.12 2.35zM352.3 204.07c0-1.88.57-3.43 1.72-4.64 1.16-1.2 2.62-1.8 4.38-1.8 1 0 1.95.2 2.83.64.88.43 1.63 1.02 2.26 1.8.62.75 1.12 1.7 1.48 2.8.36 1.12.54 2.33.54 3.65 0 1.03-.1 2.04-.32 3.05-.2 1-.54 1.97-1 2.9-.46.95-1.02 1.78-1.68 2.5s-1.46 1.28-2.42 1.7c-.96.44-2 .66-3.15.66-1.1 0-2.05-.16-2.86-.5-.55-.15-.72-.52-.5-1.1l.22-.7c.1-.28.24-.45.42-.52s.4-.06.65.02c.84.23 1.5.34 1.93.34.7 0 1.33-.12 1.93-.36s1.1-.58 1.54-1 .8-.9 1.14-1.46c.33-.56.6-1.15.78-1.77.18-.6.32-1.25.4-1.9h-.06c-.4.55-1 1-1.8 1.34-.82.35-1.7.52-2.62.52-1.7 0-3.1-.58-4.2-1.75s-1.64-2.64-1.64-4.4zm2.64-.05c0 1.18.36 2.14 1.06 2.88.7.74 1.7 1.1 2.95 1.1 1.05 0 1.95-.27 2.7-.82s1.1-1.2 1.1-1.95c0-.55-.1-1.13-.3-1.73-.23-.6-.52-1.15-.9-1.66-.36-.5-.82-.93-1.37-1.26-.56-.33-1.14-.5-1.75-.5-1.06 0-1.9.37-2.54 1.1-.64.73-.96 1.67-.96 2.84zM368.68 207.45c0-1.14.07-2.18.2-3.13.15-.96.4-1.86.72-2.7.33-.84.75-1.55 1.26-2.13.5-.6 1.15-1.04 1.92-1.38s1.66-.5 2.65-.5c1 0 1.88.17 2.66.5.77.34 1.4.8 1.92 1.37.5.57.93 1.28 1.25 2.12s.56 1.74.7 2.7c.14.95.2 2 .2 3.13 0 1.14-.06 2.2-.2 3.15-.14.95-.37 1.86-.7 2.7-.32.84-.74 1.56-1.25 2.14-.5.58-1.15 1.04-1.93 1.38-.8.34-1.67.5-2.67.5s-1.87-.16-2.65-.5-1.4-.8-1.92-1.38-.93-1.3-1.26-2.14c-.33-.84-.57-1.75-.7-2.7-.15-.96-.22-2-.22-3.15zm2.76 0c0 1.1.06 2.07.2 2.92.12.85.33 1.63.62 2.33.3.7.7 1.23 1.24 1.6.53.38 1.18.56 1.93.56.76 0 1.4-.18 1.94-.56s.95-.9 1.24-1.6.5-1.48.64-2.33c.12-.85.2-1.82.2-2.92 0-1.1-.08-2.07-.2-2.9-.13-.86-.34-1.62-.63-2.32s-.7-1.22-1.23-1.6-1.18-.54-1.94-.54c-.6 0-1.14.1-1.6.36-.47.25-.85.6-1.15 1.02-.3.43-.55.97-.73 1.6-.2.64-.33 1.3-.4 2.02-.07.7-.1 1.5-.1 2.35z" class="st19"/></g></g><g class="st10"><path d="M244.73 168l3.56-9.88h1.45l3.55 9.88h-1.44l-1-2.84h-3.72l-.98 2.84h-1.43zm2.77-4h3l-1.1-3.12-.37-1.4H249c-.15.6-.28 1.08-.4 1.4l-1.1 3.13zM253.5 160.92h1.45l1.72 4.78c.06.2.1.33.12.42 0 .1.04.25.08.4l.03.15h.04l.03-.15.1-.4c.04-.15.08-.3.12-.42l1.7-4.78h1.44l-2.62 7.08h-1.57l-2.64-7.08zM261.04 164.3c0-1.06.28-1.9.83-2.56.55-.66 1.3-1 2.27-1 .3 0 .6.04.88.1.27.08.48.17.64.28.18.12.3.22.4.3.13.12.2.2.23.28l.06.1h.03c-.02-.1-.03-.17-.03-.23v-.65h1.3v6.8c0 .54-.1 1.03-.3 1.47-.2.42-.48.76-.83 1-.33.25-.7.43-1.12.55-.4.13-.84.2-1.3.2-.85 0-1.66-.2-2.43-.6l.44-1.06c.6.3 1.24.46 1.94.46.67 0 1.2-.16 1.62-.48.4-.32.62-.83.62-1.5v-.97h-.02c-.43.75-1.13 1.12-2.1 1.12-.95 0-1.72-.35-2.3-1.03-.57-.7-.86-1.56-.86-2.6zm1.38-.04c0 .75.2 1.35.55 1.8.38.45.88.68 1.5.68.55 0 1-.2 1.35-.57.35-.4.52-1 .52-1.87 0-1.58-.66-2.38-2-2.38-.6 0-1.07.2-1.4.62-.35.42-.52 1-.52 1.72zM269.8 168v-1.4h1.43v1.4h-1.43zM276 168l3.56-9.88H281l3.57 9.88h-1.44l-1-2.84h-3.72l-.97 2.84H276zm2.77-4h3l-1.1-3.12-.37-1.4h-.03c-.16.6-.3 1.08-.4 1.4l-1.1 3.13zM285.75 168v-7.08h1.3v.93l-.02.52h.03c.18-.4.5-.77.95-1.1s1.03-.52 1.72-.52c1.62 0 2.43.9 2.43 2.7V168h-1.35v-4.22c0-.57-.1-1-.28-1.32s-.55-.47-1.07-.47c-.53 0-1 .15-1.4.48s-.68.74-.84 1.25c-.06.26-.1.58-.1.95V168h-1.35zM294.18 168v-7.08h1.3V162.37c.2-.4.5-.77.96-1.1s1.02-.52 1.7-.52c1.63 0 2.45.9 2.45 2.7V168h-1.37v-4.22c0-.57-.1-1-.28-1.32s-.54-.47-1.06-.47c-.54 0-1 .15-1.42.48s-.68.74-.83 1.25c-.08.26-.12.58-.12.95V168h-1.35zM302.5 165.45v-4.53h1.37v4.2c0 .6.1 1.03.27 1.32.18.3.54.45 1.06.45.7 0 1.25-.27 1.67-.78.42-.53.63-1.16.63-1.9v-3.3h1.35V168h-1.3v-.94l.02-.53h-.03c-.17.42-.5.8-.96 1.13-.47.34-1.02.5-1.64.5-1.62 0-2.43-.9-2.43-2.7zM310.4 166c0-1.62 1.43-2.43 4.28-2.43h.3v-.13c0-1.03-.5-1.54-1.54-1.54-.3 0-.63.05-.98.17-.3.1-.55.2-.74.33l-.25.18-.57-1c.05-.04.16-.12.33-.23.12-.08.42-.2.9-.37.46-.16.93-.23 1.42-.23.9 0 1.6.24 2.08.7s.73 1.18.73 2.07V168h-1.25v-.67l.04-.56h-.03l-.07.15c-.04.07-.1.18-.23.33-.13.16-.27.3-.43.43-.16.12-.37.23-.65.33-.28.12-.58.17-.9.17-.65 0-1.22-.2-1.7-.57-.47-.38-.7-.9-.7-1.6zm1.4-.06c0 .3.1.57.34.8.23.23.56.34.98.34.54 0 1-.24 1.35-.7.36-.48.53-1 .53-1.56v-.22h-.34c-1.9 0-2.87.44-2.87 1.34zM318.28 166.07v-7.95h1.36v7.72c0 .4.06.66.2.8s.32.2.56.2h.23v1.2c-.12 0-.27 0-.45 0-1.26 0-1.9-.65-1.9-1.97zM325.65 168l.8-9.88h1.45l2.27 5.34.5 1.33c.2-.57.37-1 .5-1.34l2.27-5.34h1.46l.8 9.88h-1.38l-.48-6.23-.02-1.45h-.03c-.23.65-.4 1.13-.54 1.45l-1.97 4.45h-1.24l-1.97-4.45-.54-1.48h-.03c0 .14 0 .3 0 .43 0 .4 0 .76-.02 1.04l-.47 6.23h-1.38zM337.3 164.46c0-1.1.33-2 1-2.7.66-.67 1.5-1 2.53-1 .96 0 1.7.3 2.25.92s.8 1.42.8 2.4l-.04.58h-5.16c.04.74.3 1.32.75 1.72.47.4 1.04.62 1.7.62.35 0 .7-.08 1.06-.22.3-.12.57-.26.77-.4l.25-.2.56.98c-.1.1-.2.18-.34.28-.18.13-.5.28-.93.45-.48.18-.97.27-1.46.27-1.1 0-2-.35-2.7-1.06-.7-.7-1.04-1.58-1.04-2.64zm1.42-.83h3.8c-.03-.6-.2-1.03-.52-1.34-.32-.3-.72-.46-1.2-.46-.54 0-1 .16-1.37.47-.38.32-.6.76-.7 1.33zM345.1 164.46c0-1.12.3-2.02.9-2.7.58-.67 1.35-1 2.3-1 .3 0 .58.03.85.1.26.08.47.17.63.28.1.08.25.2.4.34.1.1.2.2.25.28l.06.1h.02c-.02-.1-.03-.27-.03-.47v-3.28h1.34V168h-1.28v-1.15h-.02s0 .03-.03.06-.03.07-.04.1c-.04.05-.1.16-.23.3-.1.15-.26.28-.44.4-.17.13-.4.23-.67.33-.3.1-.6.14-.92.14-.94 0-1.7-.34-2.26-1.02-.56-.68-.85-1.58-.85-2.7zm1.38 0c0 .76.18 1.37.55 1.84s.85.7 1.45.7c.58 0 1.07-.22 1.46-.65s.6-1.06.6-1.9c0-.68-.2-1.27-.54-1.78s-.84-.75-1.48-.75c-.58 0-1.07.23-1.46.68-.4.46-.58 1.07-.58 1.86zM353.95 159.5v-1.38h1.37v1.38h-1.37zm.02 8.5v-7.08h1.35V168h-1.35zM356.94 164.46c0-1.05.36-1.93 1.07-2.65.72-.7 1.63-1.05 2.73-1.05.5 0 1 .08 1.45.26.44.18.75.35.94.53l.27.26-.65.94c-.06-.06-.14-.13-.25-.23-.1-.08-.33-.2-.67-.35s-.7-.23-1.05-.23c-.7 0-1.3.24-1.76.72s-.7 1.08-.7 1.8c0 .73.24 1.34.7 1.82.48.5 1.08.74 1.8.74.4 0 .77-.08 1.14-.24.35-.16.62-.32.8-.48l.25-.24.56 1-.12.1c-.06.07-.18.16-.35.3-.2.12-.38.24-.58.33-.22.1-.5.2-.8.27-.33.1-.66.13-1 .13-1.1 0-2-.35-2.72-1.05-.7-.7-1.06-1.6-1.06-2.66zM364.53 166c0-1.62 1.42-2.43 4.27-2.43h.3v-.13c0-1.03-.5-1.54-1.54-1.54-.3 0-.63.05-.98.17-.3.1-.55.2-.74.33l-.25.18-.58-1c.05-.04.16-.12.33-.23.12-.08.42-.2.9-.37.46-.16.93-.23 1.42-.23.9 0 1.6.24 2.08.7s.73 1.18.73 2.07V168h-1.25v-.67l.03-.56h-.03l-.08.15c-.04.07-.1.18-.23.33-.13.16-.27.3-.43.43-.17.12-.38.23-.66.33-.28.12-.58.17-.9.17-.65 0-1.22-.2-1.7-.57-.47-.38-.7-.9-.7-1.6zm1.38-.06c0 .3.13.57.36.8.23.23.56.34.98.34.54 0 1-.24 1.35-.7.35-.48.52-1 .52-1.56v-.22h-.34c-1.9 0-2.87.44-2.87 1.34zM372.4 166.07v-7.95h1.36v7.72c0 .4.06.66.2.8s.32.2.56.2h.23v1.2c-.12 0-.27 0-.45 0-1.26 0-1.9-.65-1.9-1.97zM379.4 163c0-1.44.48-2.64 1.43-3.6s2.16-1.45 3.6-1.45c.45 0 .88.04 1.28.13.4.1.75.2 1.03.32.26.12.5.25.7.38.2.1.34.23.45.33l.14.14-.68 1.04c-.07-.08-.2-.18-.37-.3-.17-.13-.5-.3-.98-.48-.52-.2-1.02-.3-1.52-.3-1.08 0-1.96.36-2.64 1.08-.67.73-1 1.63-1 2.7 0 1.08.33 2 1.02 2.77.68.76 1.56 1.14 2.64 1.14.54 0 1.07-.1 1.58-.33.5-.2.88-.42 1.12-.64l.35-.32.74 1c-.03.03-.1.1-.17.18-.07.06-.23.2-.47.37-.26.18-.52.34-.8.47-.28.15-.63.27-1.06.38-.44.1-.9.17-1.34.17-1.47 0-2.68-.5-3.63-1.5s-1.43-2.2-1.43-3.67zM389.38 164.45c0-1.07.37-1.95 1.1-2.65.74-.7 1.65-1.05 2.72-1.05 1.06 0 1.97.35 2.7 1.05.75.7 1.1 1.58 1.1 2.65 0 1.06-.36 1.94-1.1 2.65s-1.64 1.07-2.7 1.07c-1.07 0-1.97-.35-2.7-1.07s-1.12-1.6-1.12-2.65zm1.38 0c0 .73.24 1.34.7 1.8.5.5 1.07.75 1.74.75.68 0 1.25-.25 1.73-.73.47-.47.7-1.08.7-1.82 0-.73-.23-1.34-.7-1.8-.48-.5-1.05-.73-1.73-.73-.67 0-1.25.24-1.73.72-.47.47-.7 1.08-.7 1.8zM398.05 167.13l.66-.96c.05.05.13.13.26.23.1.08.33.2.7.36.35.16.7.24 1.08.24.3 0 .6-.08.83-.24.23-.16.35-.37.35-.65 0-.22-.13-.43-.38-.6-.24-.18-.55-.33-.9-.47-.37-.14-.73-.3-1.08-.45s-.66-.4-.9-.7c-.26-.32-.4-.7-.4-1.12 0-.62.25-1.1.74-1.47.48-.37 1.1-.55 1.83-.55.46 0 .88.06 1.26.2.37.12.63.25.8.38l.2.2-.53 1.02c-.04-.03-.1-.1-.2-.17s-.3-.17-.6-.28c-.3-.12-.62-.18-.95-.18-.33 0-.6.08-.83.22-.24.14-.35.36-.35.65 0 .22.13.42.38.6.24.16.55.3.92.45.4.15.74.3 1.06.44.36.15.66.4.9.7.27.32.4.68.4 1.1 0 .6-.24 1.1-.7 1.5-.48.38-1.1.57-1.86.57-.5 0-1-.1-1.45-.26-.45-.16-.76-.33-.96-.52l-.3-.25zM404.26 162.1V161h.97v-2.03h1.3V161h1.72v1.1h-1.7v3.16c0 .26.03.5.1.7.1.22.18.37.28.47.1.1.24.2.38.27.13.06.26.1.4.12.1.02.22.03.35.03l.33-.03v1.2c-.1.03-.27.03-.48.03-.22 0-.43 0-.64-.04-.2 0-.43-.08-.7-.2-.27-.1-.5-.25-.68-.44-.2-.18-.36-.44-.5-.78-.12-.32-.2-.7-.2-1.17v-3.3h-.92zM412.98 164.45c0-1.07.37-1.95 1.1-2.65.75-.7 1.65-1.05 2.72-1.05 1.07 0 1.97.35 2.7 1.05.75.7 1.12 1.58 1.12 2.65 0 1.06-.37 1.94-1.1 2.65s-1.66 1.07-2.72 1.07c-1.06 0-1.97-.35-2.7-1.07s-1.12-1.6-1.12-2.65zm1.38 0c0 .73.24 1.34.72 1.8.47.5 1.05.75 1.72.75.68 0 1.26-.25 1.73-.73.47-.47.7-1.08.7-1.82 0-.73-.23-1.34-.7-1.8-.47-.5-1.05-.73-1.73-.73-.67 0-1.25.24-1.72.72-.48.47-.72 1.08-.72 1.8zM421.73 162.1V161h.88v-.32c0-.45.07-.84.2-1.17s.3-.58.48-.76c.17-.17.4-.3.68-.43.25-.1.48-.17.7-.2.18-.04.4-.05.6-.05l.53.04v1.15c-.1-.02-.2-.03-.36-.03-.17 0-.32.02-.45.05-.16.04-.32.1-.5.2s-.28.24-.4.45c-.1.2-.14.47-.14.8v.3h1.67v1.1h-1.67V168h-1.35v-5.9h-.87z" class="st11"/></g><g class="st10"><path d="M244.66 183v-9.88h3.62c.92 0 1.67.28 2.25.84s.87 1.32.87 2.25c0 .94-.3 1.7-.88 2.27-.58.58-1.33.87-2.24.87h-2.23V183h-1.4zm1.4-4.86h2c.6 0 1.06-.17 1.4-.5.34-.36.5-.83.5-1.43 0-.58-.16-1.04-.5-1.38-.35-.33-.8-.5-1.4-.5h-2v3.82zM252.4 179.46c0-1.1.32-2 .98-2.7.67-.67 1.5-1 2.53-1 .97 0 1.72.3 2.27.92s.8 1.42.8 2.4l-.04.58h-5.16c.04.74.3 1.32.75 1.72.47.4 1.04.62 1.7.62.34 0 .7-.08 1.06-.22.32-.12.58-.26.77-.4l.26-.2.56.98c-.1.1-.2.18-.33.28-.18.13-.5.28-.94.45-.5.18-.98.27-1.47.27-1.1 0-2-.35-2.7-1.06-.7-.7-1.04-1.58-1.04-2.64zm1.4-.83h3.8c-.02-.6-.2-1.03-.52-1.34-.3-.3-.7-.46-1.2-.46-.53 0-.98.16-1.36.47-.38.32-.6.76-.7 1.33zM260.65 183v-7.08h1.3v1.23l-.02.53h.03c.17-.54.46-.98.85-1.33s.86-.52 1.4-.52l.35.03v1.34c-.12-.02-.25-.04-.4-.04-.43 0-.83.15-1.2.45-.36.32-.62.72-.78 1.23-.1.38-.17.8-.17 1.27v2.9h-1.35zM265.32 182.13l.66-.96c.04.05.12.13.25.23.1.08.33.2.7.36.35.16.7.24 1.08.24.32 0 .6-.08.84-.24.23-.16.35-.37.35-.65 0-.22-.14-.43-.4-.6-.23-.18-.54-.33-.9-.47-.36-.14-.72-.3-1.07-.45s-.66-.4-.9-.7c-.26-.32-.4-.7-.4-1.12 0-.62.25-1.1.74-1.47.48-.37 1.1-.55 1.83-.55.46 0 .88.06 1.26.2.38.12.64.25.8.38l.22.2-.54 1.02c-.04-.03-.1-.1-.2-.17s-.3-.17-.6-.28c-.3-.12-.62-.18-.95-.18-.34 0-.6.08-.84.22-.23.14-.34.36-.34.65 0 .22.13.42.38.6.24.16.55.3.92.45.4.15.74.3 1.06.44.35.15.65.4.9.7.26.32.4.68.4 1.1 0 .6-.25 1.1-.72 1.5-.47.38-1.1.57-1.85.57-.5 0-.98-.1-1.44-.26-.44-.16-.75-.33-.95-.52l-.28-.25zM271.65 179.45c0-1.07.36-1.95 1.1-2.65.74-.7 1.65-1.05 2.7-1.05 1.08 0 2 .35 2.73 1.05.73.7 1.1 1.58 1.1 2.65 0 1.06-.37 1.94-1.1 2.65s-1.65 1.07-2.72 1.07c-1.06 0-1.96-.35-2.7-1.07s-1.1-1.6-1.1-2.65zm1.38 0c0 .73.23 1.34.7 1.8.5.5 1.06.75 1.73.75.68 0 1.26-.25 1.74-.73.47-.47.7-1.08.7-1.82 0-.73-.23-1.34-.7-1.8-.48-.5-1.06-.73-1.74-.73-.67 0-1.24.24-1.72.72-.48.47-.7 1.08-.7 1.8zM280.9 183v-7.08h1.3v.93l-.02.52h.03c.2-.4.5-.77.96-1.1s1.02-.52 1.7-.52c1.63 0 2.44.9 2.44 2.7V183h-1.35v-4.22c0-.57-.1-1-.28-1.32s-.55-.47-1.07-.47c-.53 0-1 .15-1.4.48s-.68.74-.84 1.25c-.07.26-.1.58-.1.95V183h-1.36zM292.1 175.92h1.44l1.44 4.98.1.35c.05.12.08.22.08.3l.03.1h.03c.05-.3.1-.56.17-.76l1.55-4.97h1.26l1.5 4.96.24.73h.02c.04-.26.1-.5.17-.75l1.46-4.96H303l-2.3 7.08h-1.48l-1.43-4.57-.22-.75h-.04c-.06.3-.12.54-.2.77L295.9 183h-1.52l-2.28-7.08zM304.3 174.5v-1.38h1.38v1.38h-1.37zm.02 8.5v-7.08h1.36V183h-1.36zM307.17 177.1V176h.97v-2.03h1.3V176h1.72v1.1h-1.7v3.16c0 .26.03.5.1.7.1.22.18.37.28.47.1.1.23.2.37.27.13.06.26.1.4.12.1.02.23.03.36.03l.33-.03v1.2c-.13.03-.3.03-.5.03s-.43 0-.63-.04c-.2 0-.43-.08-.7-.2-.27-.1-.5-.25-.68-.44-.2-.18-.37-.44-.5-.78-.14-.32-.2-.7-.2-1.17v-3.3h-.93zM312.8 183v-9.88h1.37v3.63l-.03.58h.03c.18-.4.5-.77.97-1.1.46-.32 1-.48 1.64-.48 1.63 0 2.44.9 2.44 2.7V183h-1.36v-4.22c0-.57-.1-1-.28-1.32s-.54-.47-1.06-.47-1 .16-1.4.48-.7.75-.84 1.26c-.08.26-.1.58-.1.94V183h-1.37zM323.84 174.32v-1.2H332v1.2h-3.38V183h-1.38v-8.68h-3.4zM332.1 175.92h1.53l1.77 4.63.27.86h.03c.08-.3.16-.6.24-.83l1.72-4.65h1.47l-3.32 8.35c-.2.53-.5.95-.9 1.24-.42.3-.88.44-1.38.44-.24 0-.47-.04-.7-.1-.23-.1-.4-.16-.5-.24l-.18-.1.48-1.03c.26.2.53.3.83.3.56 0 .98-.35 1.27-1.05l.35-.8-2.97-7zM340.28 185.8v-9.88h1.24v.6l-.02.53h.02s.02-.03.03-.06c.02-.05.03-.07.05-.1.04-.06.12-.16.25-.3.14-.16.3-.3.45-.4.17-.1.4-.22.67-.3.3-.1.6-.15.93-.15.94 0 1.7.34 2.27 1.03.57.68.85 1.58.85 2.7 0 1.1-.3 2-.9 2.67s-1.38 1.02-2.3 1.02c-.3 0-.57-.04-.83-.12-.27-.08-.48-.18-.64-.3-.17-.1-.3-.23-.4-.33-.1-.1-.2-.2-.25-.28l-.07-.12h-.03c.02.15.03.36.03.62v3.16h-1.35zm1.3-6.3c0 .68.2 1.27.55 1.77.37.5.85.75 1.46.75.57 0 1.06-.23 1.45-.68s.6-1.07.6-1.85c0-.77-.2-1.4-.57-1.85s-.85-.7-1.44-.7c-.58 0-1.07.2-1.46.64-.4.4-.6 1.05-.6 1.9zM348.18 179.46c0-1.1.33-2 1-2.7.66-.67 1.5-1 2.53-1 .97 0 1.72.3 2.26.92s.8 1.42.8 2.4l-.04.58h-5.16c.04.74.3 1.32.75 1.72.48.4 1.05.62 1.7.62.35 0 .7-.08 1.07-.22.32-.12.58-.26.78-.4l.25-.2.56.98c-.1.1-.2.18-.34.28-.18.13-.5.28-.93.45-.5.18-1 .27-1.48.27-1.1 0-2-.35-2.7-1.06-.7-.7-1.04-1.58-1.04-2.64zm1.42-.83h3.8c-.03-.6-.2-1.03-.52-1.34-.32-.3-.72-.46-1.2-.46-.54 0-1 .16-1.37.47-.37.32-.6.76-.7 1.33zM359.74 182.24c0-.55.1-1.06.34-1.53.23-.47.52-.86.86-1.17.35-.3.73-.6 1.13-.92l1.17-.83c.35-.23.64-.52.9-.87.23-.32.35-.66.35-1.03 0-.48-.17-.88-.5-1.18-.33-.32-.76-.47-1.3-.47-.24 0-.47.04-.68.13-.22.1-.4.2-.56.32-.18.15-.3.27-.4.36-.12.13-.2.24-.25.33l-.07.12-.95-.7s.03-.05.05-.1c.03-.04.04-.08.06-.1.04-.1.15-.25.32-.44.2-.23.38-.4.58-.57.22-.17.5-.32.86-.45.34-.13.73-.2 1.15-.2.92 0 1.67.26 2.26.78s.87 1.2.87 2.04c0 .44-.08.85-.26 1.24-.17.4-.4.73-.67 1-.3.28-.6.55-.93.8-.24.18-.58.4-1 .7-.38.26-.7.48-.93.68-.28.22-.5.47-.7.75-.17.28-.26.57-.26.87h4.9v1.2h-6.27c-.04-.3-.06-.54-.06-.76zM371.92 183v-9.88h3.27c1.52 0 2.74.43 3.64 1.3.9.9 1.36 2.1 1.36 3.62 0 1.55-.45 2.76-1.36 3.64s-2.12 1.32-3.65 1.32h-3.28zm1.38-1.2h1.8c1.13 0 2.02-.33 2.68-.98.66-.66 1-1.58 1-2.78 0-1.18-.34-2.1-1-2.74-.66-.66-1.56-.98-2.7-.98h-1.78v7.48zM381.98 174.5v-1.38h1.37v1.38h-1.37zm0 8.5v-7.08h1.37V183H382zM384.9 181c0-1.62 1.42-2.43 4.27-2.43h.3v-.13c0-1.03-.5-1.54-1.54-1.54-.3 0-.64.05-.98.17-.3.1-.56.2-.74.33l-.25.18-.56-1c.04-.04.15-.12.32-.23.1-.08.42-.2.9-.37.46-.16.93-.23 1.42-.23.9 0 1.6.24 2.08.7s.72 1.18.72 2.07V183h-1.24v-.67l.03-.56h-.03l-.08.15c-.04.07-.12.18-.24.33-.12.16-.26.3-.42.43-.16.12-.38.23-.65.33-.27.12-.57.17-.9.17-.64 0-1.2-.2-1.7-.57-.46-.38-.7-.9-.7-1.6zm1.38-.06c0 .3.12.57.35.8.23.23.56.34.98.34.55 0 1-.24 1.36-.7.35-.48.53-1 .53-1.56v-.22h-.36c-1.9 0-2.86.44-2.86 1.34zM392.86 183v-9.88h1.35V176.96c.03-.02.06-.07.1-.12.05-.08.13-.18.24-.3.13-.14.28-.26.43-.36.16-.1.37-.2.64-.3.3-.1.58-.13.88-.13.94 0 1.7.34 2.27 1.03.57.68.85 1.58.85 2.7 0 1.1-.3 2-.9 2.67s-1.38 1.02-2.33 1.02c-.28 0-.56-.04-.84-.13-.26-.08-.47-.18-.63-.3-.17-.12-.3-.24-.42-.35-.12-.12-.2-.23-.25-.3l-.08-.14h-.03c.02.13.03.3.03.53v.5h-1.3zm1.3-3.5c0 .68.2 1.27.54 1.77s.84.75 1.48.75c.58 0 1.06-.23 1.45-.68s.6-1.07.6-1.85c0-.77-.2-1.4-.56-1.85s-.86-.7-1.45-.7c-.58 0-1.07.2-1.46.64-.4.4-.6 1.05-.6 1.9zM400.76 179.46c0-1.1.33-2 1-2.7.66-.67 1.5-1 2.53-1 .95 0 1.7.3 2.24.92s.8 1.42.8 2.4l-.03.58h-5.16c.04.74.3 1.32.75 1.72.47.4 1.03.62 1.68.62.36 0 .7-.08 1.07-.22.32-.12.58-.26.78-.4l.25-.2.56.98c-.1.1-.2.18-.34.28-.17.13-.5.28-.93.45-.5.18-.97.27-1.47.27-1.1 0-2-.35-2.7-1.06-.7-.7-1.04-1.58-1.04-2.64zm1.43-.83h3.77c-.02-.6-.2-1.03-.5-1.34-.33-.3-.73-.46-1.2-.46-.54 0-1 .16-1.38.47-.38.32-.62.76-.7 1.33zM408.4 177.1V176h.96v-2.03h1.3V176h1.72v1.1h-1.7v3.16c0 .26.03.5.1.7.1.22.18.37.28.47.1.1.23.2.37.27.12.06.25.1.4.12.1.02.22.03.35.03l.33-.03v1.2c-.1.03-.27.03-.47.03-.22 0-.44 0-.64-.04-.2 0-.44-.08-.72-.2-.26-.1-.5-.25-.67-.44-.2-.18-.35-.44-.5-.78-.12-.32-.2-.7-.2-1.17v-3.3h-.9zM413.54 179.46c0-1.1.33-2 1-2.7.66-.67 1.5-1 2.52-1 .96 0 1.7.3 2.26.92s.8 1.42.8 2.4l-.04.58h-5.16c.04.74.3 1.32.75 1.72.47.4 1.04.62 1.7.62.34 0 .7-.08 1.06-.22.32-.12.58-.26.77-.4l.26-.2.55.98c-.08.1-.2.18-.32.28-.18.13-.5.28-.94.45-.48.18-.97.27-1.46.27-1.1 0-2-.35-2.7-1.06-.7-.7-1.04-1.58-1.04-2.64zm1.42-.83h3.8c-.03-.6-.2-1.03-.53-1.34-.3-.3-.7-.46-1.2-.46-.53 0-.98.16-1.36.47-.38.32-.6.76-.7 1.33zM421.22 182.13l.66-.96c.04.05.12.13.25.23.1.08.33.2.7.36.35.16.7.24 1.08.24.32 0 .6-.08.84-.24.23-.16.35-.37.35-.65 0-.22-.14-.43-.4-.6-.23-.18-.54-.33-.9-.47-.36-.14-.72-.3-1.07-.45s-.66-.4-.9-.7c-.26-.32-.4-.7-.4-1.12 0-.62.26-1.1.74-1.47.48-.37 1.1-.55 1.83-.55.46 0 .88.06 1.27.2.37.12.63.25.8.38l.2.2-.53 1.02c-.04-.03-.1-.1-.2-.17s-.3-.17-.6-.28c-.3-.12-.62-.18-.95-.18-.34 0-.6.08-.84.22-.22.14-.34.36-.34.65 0 .22.13.42.38.6.24.16.55.3.92.45.4.15.74.3 1.06.44.35.15.65.4.9.7.26.32.4.68.4 1.1 0 .6-.25 1.1-.72 1.5-.47.38-1.1.57-1.85.57-.5 0-.98-.1-1.44-.26-.44-.16-.75-.33-.94-.52l-.3-.25z" class="st11"/></g></g></g></g></g></g><g id="Canvas"><g id="roi_icon"><g id="Line_2_Copy"><linearGradient id="SVGID_1_" x1="504.847" x2="505.847" y1="237.333" y2="237.333" gradientUnits="userSpaceOnUse" gradientTransform="matrix(0 -389 -3 0 1606.5 196770)"><stop offset="0" stop-color="#fff"/><stop offset="1" stop-color="#fff" stop-opacity=".01"/></linearGradient><path d="M894.5-4.22v388.37" class="st20"/></g><path id="Oval_Copy_5" d="M894 257.65c34.8 0 63-28.2 63-63s-28.2-63-63-63-63 28.2-63 63 28.2 63 63 63z" class="st1"/><g id="Page_1"><path id="Stroke_1" d="M880.4 195.77l7.4-11.62 5.65 8.02 7.36-7.04 5.7 5.3 8.5-20.02" class="st5"/><g id="Group_5"><defs><filter id="Adobe_OpacityMaskFilter_2_" width="45.757" height="38.654" x="873.053" y="165.449" filterUnits="userSpaceOnUse"><feColorMatrix values="1 0 0 0 0 0 1 0 0 0 0 0 1 0 0 0 0 0 1 0"/></filter></defs><mask id="mask0_1_" width="45.757" height="38.654" x="873.053" y="165.449" maskUnits="userSpaceOnUse"><path id="Clip_4_1_" d="M874.05 165.45h44.76v37.65h-44.75v-37.65z" class="st1"/></mask><g class="st22"><path id="Stroke_3" d="M918.8 203.1h-44.75v-37.65" class="st23"/></g></g><path id="Stroke_6" d="M869 175.34h5" class="st8"/><path id="Stroke_8" d="M869 186.6h5" class="st8"/><path id="Stroke_10" d="M869 197.9h5" class="st8"/><path id="Stroke_12" d="M879.34 208.03v-4.97" class="st8"/><path id="Stroke_14" d="M890.14 208.03v-4.97" class="st8"/><path id="Stroke_16" d="M900.95 208.03v-4.97" class="st8"/><path id="Stroke_18" d="M911.75 208.03v-4.97" class="st8"/></g><path id="Oval_Copy" d="M892.3 271.34c.4 0 .8 0 1.2 0s.8 0 1.2 0v.3c.78 0 1.57-.03 2.36-.07v-.3c.78-.03 1.56-.08 2.35-.14l.03.3c.8-.06 1.57-.13 2.36-.2l-.04-.3c.78-.1 1.56-.2 2.34-.3l.04.3c.8-.1 1.57-.22 2.35-.35l-.06-.3c.78-.13 1.55-.27 2.32-.42l.06.3c.78-.16 1.55-.32 2.32-.5l-.07-.3c.77-.17 1.54-.36 2.3-.56l.07.3c.77-.2 1.53-.42 2.3-.64l-.1-.3c.76-.2 1.5-.45 2.26-.7l.1.3c.74-.25 1.5-.5 2.23-.78l-.1-.28c.74-.27 1.48-.55 2.2-.84l.12.28c.74-.3 1.47-.6 2.2-.9l-.13-.28c.72-.32 1.44-.64 2.15-.98l.13.28c.72-.34 1.43-.7 2.13-1.04l-.13-.27c.7-.36 1.4-.72 2.1-1.1l.13.26c.7-.37 1.4-.76 2.07-1.15l-.15-.26c.68-.4 1.35-.82 2.02-1.24l.16.26c.67-.42 1.33-.85 2-1.3l-.18-.24c.65-.44 1.3-.9 1.94-1.35l.17.25c.64-.46 1.28-.93 1.9-1.4l-.18-.25c.62-.47 1.24-.96 1.85-1.46l.2.24c.6-.5 1.2-1 1.8-1.5l-.18-.24c.6-.5 1.18-1.04 1.76-1.57l.2.22c.6-.54 1.17-1.08 1.73-1.63l-.2-.23c.56-.54 1.12-1.1 1.66-1.67l.22.2c.55-.55 1.1-1.13 1.63-1.7l-.23-.22c.54-.58 1.06-1.17 1.57-1.76l.24.2c.5-.6 1.02-1.2 1.52-1.83l-.23-.2c.5-.6.98-1.23 1.45-1.86l.24.18c.48-.62.95-1.26 1.4-1.9l-.24-.18c.46-.64.9-1.3 1.35-1.94l.25.17c.44-.66.87-1.32 1.3-2l-.27-.15c.43-.67.84-1.34 1.24-2.02l.26.15c.4-.68.78-1.37 1.16-2.07l-.26-.14c.38-.7.74-1.4 1.1-2.1l.27.14c.35-.7.7-1.4 1.04-2.13l-.26-.13c.33-.7.65-1.43.97-2.15l.28.12c.3-.73.62-1.46.9-2.2l-.27-.1c.3-.74.58-1.48.85-2.22l.28.1c.27-.74.53-1.5.77-2.24l-.28-.1c.24-.74.48-1.5.7-2.25l.3.08c.2-.76.42-1.52.63-2.3l-.3-.07c.2-.74.4-1.5.57-2.28l.3.07c.17-.78.33-1.55.5-2.33l-.3-.06c.14-.76.3-1.53.42-2.3l.3.04c.12-.78.24-1.56.34-2.35l-.3-.05c.1-.78.2-1.56.3-2.35l.3.04c.07-.8.14-1.57.2-2.36l-.3-.02c.06-.8.1-1.58.14-2.37h.3c.04-.78.06-1.57.07-2.36h-.3c0-.4 0-.8 0-1.2 0-.4 0-.78 0-1.18h.3c-.02-.8-.04-1.58-.08-2.37h-.3c-.03-.8-.08-1.57-.14-2.36l.3-.02c-.06-.8-.13-1.57-.2-2.36l-.3.03c-.1-.8-.2-1.58-.3-2.35l.3-.04c-.1-.78-.22-1.56-.35-2.34l-.3.05c-.12-.77-.27-1.54-.42-2.3l.3-.07c-.15-.78-.3-1.55-.5-2.32l-.28.08c-.18-.77-.37-1.54-.57-2.3l.3-.07c-.2-.76-.42-1.52-.64-2.28l-.28.1c-.22-.77-.46-1.52-.7-2.27l.28-.1c-.24-.74-.5-1.5-.77-2.23l-.28.1c-.27-.74-.55-1.48-.84-2.2l.3-.12c-.3-.74-.6-1.47-.92-2.2l-.27.13c-.3-.73-.63-1.44-.96-2.16l.27-.12c-.33-.72-.68-1.43-1.03-2.14l-.27.15c-.36-.7-.72-1.4-1.1-2.1l.26-.13c-.38-.7-.76-1.4-1.16-2.07l-.26.15c-.4-.68-.8-1.35-1.23-2.02l.27-.16c-.42-.67-.85-1.33-1.3-2l-.24.18c-.44-.65-.9-1.3-1.35-1.94l.25-.18c-.46-.64-.93-1.28-1.4-1.9l-.25.18c-.47-.63-.96-1.25-1.45-1.86l.23-.2c-.5-.6-1-1.2-1.52-1.8l-.23.18c-.5-.6-1.02-1.18-1.56-1.77l.23-.2c-.54-.57-1.08-1.15-1.63-1.7l-.22.2c-.54-.57-1.1-1.13-1.67-1.68l.2-.2c-.55-.56-1.13-1.1-1.7-1.64l-.22.22c-.58-.53-1.17-1.05-1.76-1.56l.2-.23c-.6-.5-1.2-1-1.83-1.5l-.2.22c-.6-.5-1.22-.98-1.85-1.45l.17-.24c-.62-.48-1.26-.95-1.9-1.4l-.18.23c-.65-.45-1.3-.9-1.95-1.34l.17-.25c-.66-.44-1.32-.87-2-1.3l-.15.27c-.67-.42-1.34-.83-2.02-1.23l.15-.25c-.68-.4-1.37-.78-2.07-1.16l-.14.25c-.7-.38-1.4-.74-2.1-1.1l.13-.27c-.7-.35-1.4-.7-2.13-1.04l-.13.27c-.7-.32-1.43-.64-2.15-.96l.12-.27c-.72-.3-1.45-.62-2.2-.9l-.1.27c-.73-.3-1.47-.57-2.2-.84l.1-.28c-.75-.27-1.5-.53-2.25-.77l-.1.28c-.75-.24-1.5-.48-2.26-.7l.1-.3c-.77-.2-1.53-.42-2.3-.63l-.07.3c-.76-.2-1.53-.4-2.3-.57l.07-.3c-.77-.17-1.54-.33-2.32-.5l-.06.3c-.77-.14-1.54-.3-2.32-.42l.05-.28c-.8-.13-1.57-.25-2.36-.36l-.04.3c-.78-.1-1.56-.2-2.34-.28l.03-.3c-.8-.08-1.58-.15-2.37-.2l-.02.3c-.78-.07-1.56-.12-2.35-.15v-.3c-.78-.04-1.57-.06-2.36-.07v.3c-.4 0-.8 0-1.2 0s-.8 0-1.2 0v-.3c-.78 0-1.57.03-2.36.07v.3c-.78.03-1.56.08-2.35.14l-.03-.3c-.8.06-1.57.13-2.36.2l.04.3c-.78.1-1.56.2-2.34.3l-.04-.3c-.8.1-1.57.22-2.35.35l.06.3c-.78.12-1.55.27-2.32.42l-.06-.3c-.78.16-1.55.32-2.32.5l.07.3c-.77.17-1.54.36-2.3.55l-.07-.3c-.77.2-1.53.42-2.3.64l.1.3c-.76.2-1.5.45-2.26.7l-.1-.3c-.74.25-1.5.5-2.23.78l.1.28c-.74.27-1.48.55-2.2.84l-.12-.28c-.74.3-1.47.6-2.2.9l.13.28c-.73.32-1.44.64-2.16.97l-.12-.26c-.72.34-1.43.7-2.13 1.04l.13.27c-.7.36-1.4.72-2.1 1.1l-.13-.26c-.7.37-1.4.75-2.07 1.15l.15.26c-.68.4-1.35.82-2.02 1.24l-.16-.26c-.67.42-1.33.85-2 1.3l.18.24c-.65.44-1.3.9-1.94 1.34l-.17-.24c-.64.46-1.28.93-1.9 1.4l.18.25c-.62.47-1.24.96-1.85 1.45l-.2-.23c-.6.5-1.2 1-1.8 1.5l.18.24c-.6.5-1.18 1.03-1.76 1.56l-.2-.22c-.6.54-1.17 1.08-1.73 1.63l.2.22c-.56.55-1.12 1.1-1.66 1.67l-.22-.2c-.55.55-1.1 1.13-1.63 1.7l.23.2c-.54.6-1.06 1.2-1.57 1.78l-.24-.2c-.5.6-1.02 1.2-1.52 1.83l.24.2c-.5.6-1 1.23-1.46 1.86l-.24-.2c-.48.64-.95 1.28-1.4 1.92l.24.18c-.46.64-.9 1.3-1.35 1.94l-.25-.17c-.44.66-.87 1.32-1.3 2l.27.15c-.43.67-.84 1.34-1.24 2.02l-.26-.15c-.4.68-.78 1.37-1.16 2.07l.26.14c-.38.7-.74 1.4-1.1 2.1l-.27-.15c-.35.72-.7 1.43-1.04 2.15l.27.12c-.34.72-.66 1.43-.98 2.16l-.28-.12c-.3.73-.62 1.46-.9 2.2l.27.1c-.3.74-.58 1.48-.85 2.22l-.28-.1c-.27.74-.53 1.5-.77 2.24l.28.1c-.24.74-.48 1.5-.7 2.25l-.3-.08c-.2.76-.42 1.52-.62 2.3l.3.06c-.2.76-.4 1.53-.58 2.3l-.3-.07c-.17.78-.33 1.55-.5 2.33l.3.06c-.14.76-.3 1.53-.4 2.3l-.3-.04c-.14.78-.26 1.56-.36 2.35l.3.05c-.1.77-.2 1.56-.3 2.34l-.3-.04c-.07.8-.14 1.57-.2 2.36l.3.02c-.06.8-.1 1.57-.14 2.36h-.3c-.04.78-.06 1.57-.07 2.36h.3c0 .4 0 .8 0 1.2 0 .4 0 .78 0 1.18h-.3c.02.8.04 1.58.08 2.37h.3c.03.78.08 1.57.14 2.36l-.3.02c.06.8.13 1.57.2 2.36l.3-.04c.1.8.2 1.57.3 2.35l-.3.04c.1.78.22 1.56.35 2.34l.3-.05c.12.77.27 1.54.42 2.3l-.3.07c.15.78.3 1.55.5 2.32l.28-.08c.18.77.37 1.54.57 2.3l-.3.07c.2.76.42 1.52.64 2.28l.28-.1c.22.77.46 1.52.7 2.27l-.28.1c.24.74.5 1.5.77 2.23l.28-.1c.27.74.55 1.48.84 2.2l-.3.12c.3.74.6 1.47.92 2.2l.27-.13c.3.72.63 1.44.97 2.15l-.28.13c.33.72.68 1.43 1.03 2.13l.27-.13c.36.7.72 1.4 1.1 2.1l-.26.13c.38.7.77 1.4 1.16 2.07l.26-.15c.4.68.8 1.35 1.23 2.02l-.27.16c.42.67.85 1.33 1.3 2l.24-.18c.44.65.9 1.3 1.35 1.94l-.25.18c.46.64.93 1.28 1.4 1.9l.25-.18c.47.63.96 1.25 1.46 1.86l-.24.2c.5.6 1 1.2 1.52 1.8l.23-.18c.5.6 1.02 1.18 1.56 1.76l-.23.2c.54.6 1.08 1.17 1.63 1.73l.22-.2c.54.57 1.1 1.13 1.67 1.67l-.2.22c.55.54 1.13 1.08 1.7 1.62l.22-.23c.58.52 1.17 1.05 1.76 1.56l-.2.23c.6.5 1.2 1 1.83 1.5l.2-.23c.6.5 1.22 1 1.85 1.46l-.18.24c.63.48 1.27.95 1.9 1.4l.2-.24c.63.46 1.28.9 1.93 1.35l-.17.25c.66.44 1.32.87 2 1.3l.15-.27c.67.42 1.34.83 2.02 1.23l-.15.25c.68.4 1.37.78 2.07 1.16l.14-.25c.7.38 1.4.74 2.1 1.1l-.13.27c.7.35 1.4.7 2.13 1.04l.12-.28c.72.34 1.43.66 2.16.98l-.12.27c.72.3 1.45.62 2.2.9l.1-.27c.73.3 1.47.57 2.2.84l-.1.28c.75.27 1.5.53 2.25.77l.1-.28c.75.24 1.5.48 2.26.7l-.1.3c.77.2 1.53.42 2.3.62l.07-.3c.76.2 1.53.4 2.3.57l-.07.3c.77.17 1.54.33 2.32.5l.06-.3c.77.14 1.54.28 2.32.4l-.05.3c.8.14 1.57.26 2.36.36l.04-.3c.78.1 1.56.2 2.34.3l-.03.3c.8.07 1.58.14 2.37.2l.02-.3c.78.06 1.56.1 2.35.14v.3c.78.04 1.57.06 2.36.07v-.3z" class="st25"/><path id="Oval_Copy_x5F_2" d="M892.8 261.34c.4 0 .8 0 1.2 0s.8 0 1.2 0l.02.3c.8-.02 1.62-.04 2.42-.1v-.3c.8-.03 1.6-.1 2.4-.16l.03.3c.8-.07 1.6-.15 2.4-.25l-.03-.3c.8-.1 1.6-.22 2.4-.34l.04.28c.8-.13 1.6-.27 2.4-.42l-.07-.3c.8-.16 1.6-.33 2.38-.5l.07.28c.78-.18 1.57-.38 2.35-.6l-.08-.3c.78-.2 1.55-.43 2.32-.67l.1.3c.76-.25 1.53-.5 2.3-.78l-.1-.3c.75-.26 1.5-.54 2.26-.83l.1.27c.76-.3 1.5-.6 2.25-.93l-.12-.26c.74-.32 1.47-.66 2.2-1l.12.26c.73-.35 1.46-.7 2.17-1.08l-.13-.27c.7-.37 1.4-.76 2.1-1.16l.16.25c.7-.4 1.4-.8 2.08-1.24l-.16-.24c.7-.43 1.37-.87 2.03-1.3l.18.24c.68-.45 1.34-.92 2-1.4l-.18-.23c.65-.48 1.3-.96 1.93-1.45l.2.23c.63-.5 1.26-1 1.88-1.52l-.2-.23c.63-.52 1.24-1.05 1.84-1.58l.2.22c.6-.54 1.2-1.1 1.78-1.66l-.2-.2c.57-.57 1.14-1.14 1.7-1.72l.2.2c.58-.58 1.13-1.17 1.67-1.77l-.23-.2c.53-.6 1.06-1.22 1.58-1.84l.23.2c.52-.62 1.03-1.25 1.52-1.9l-.23-.18c.5-.63.98-1.28 1.45-1.93l.24.17c.47-.65.94-1.32 1.4-2l-.26-.16c.44-.66.88-1.34 1.3-2.03l.26.16c.43-.7.84-1.4 1.24-2.1l-.26-.14c.4-.7.8-1.4 1.16-2.13l.27.14c.37-.7.74-1.44 1.08-2.17l-.26-.13c.33-.72.67-1.45 1-2.2l.26.13c.33-.74.64-1.5.93-2.25l-.28-.1c.3-.75.57-1.5.84-2.27l.28.1c.27-.76.53-1.53.77-2.3l-.28-.1c.24-.76.47-1.53.68-2.3l.3.07c.2-.78.4-1.57.6-2.36l-.3-.07c.18-.8.36-1.58.5-2.37l.3.06c.16-.8.3-1.6.43-2.4l-.3-.04c.13-.8.25-1.6.35-2.4l.3.05c.1-.8.18-1.6.25-2.42h-.3c.08-.8.13-1.62.17-2.43l.3.02c.05-.8.07-1.62.1-2.43h-.3c0-.4 0-.82 0-1.22s0-.8 0-1.2l.3-.02c-.03-.8-.05-1.62-.1-2.42l-.3.02c-.04-.8-.1-1.6-.17-2.4l.3-.04c-.07-.8-.15-1.6-.25-2.4l-.3.03c-.1-.8-.22-1.6-.34-2.38l.3-.05c-.13-.8-.28-1.6-.43-2.4l-.3.07c-.14-.8-.32-1.58-.5-2.37l.3-.07c-.2-.8-.4-1.57-.6-2.35l-.3.08c-.2-.78-.44-1.55-.68-2.32l.3-.08c-.25-.77-.5-1.54-.78-2.3l-.28.1c-.27-.76-.55-1.52-.84-2.27l.27-.1c-.3-.76-.6-1.5-.94-2.25l-.27.12c-.33-.74-.67-1.47-1-2.2l.25-.12c-.34-.74-.7-1.46-1.08-2.18l-.27.14c-.37-.7-.76-1.42-1.16-2.12l.26-.15c-.4-.7-.8-1.4-1.24-2.1l-.25.17c-.42-.7-.86-1.37-1.3-2.04l.25-.16c-.45-.68-.92-1.34-1.4-2l-.23.18c-.47-.65-.96-1.3-1.45-1.93l.23-.2c-.5-.63-1-1.26-1.52-1.88l-.23.2c-.52-.62-1.05-1.23-1.58-1.83l.22-.2c-.55-.6-1.1-1.2-1.67-1.77l-.2.2c-.57-.57-1.14-1.14-1.72-1.7l.22-.2c-.58-.58-1.18-1.13-1.78-1.67l-.2.22c-.6-.53-1.2-1.06-1.83-1.58l.2-.23c-.6-.52-1.24-1.03-1.88-1.52l-.2.23c-.62-.5-1.27-.98-1.92-1.45l.18-.24c-.66-.48-1.32-.95-2-1.4l-.17.25c-.65-.45-1.33-.88-2.02-1.3l.16-.26c-.7-.44-1.38-.85-2.08-1.25l-.15.26c-.7-.4-1.4-.78-2.1-1.15l.12-.27c-.7-.37-1.44-.74-2.17-1.1l-.13.28c-.72-.34-1.45-.68-2.2-1l.13-.28c-.74-.32-1.5-.63-2.24-.93l-.1.28c-.75-.3-1.5-.57-2.27-.84l.1-.3c-.76-.26-1.53-.52-2.3-.76l-.1.3c-.76-.25-1.53-.48-2.3-.7l.07-.28c-.78-.22-1.57-.42-2.35-.6l-.07.3c-.8-.2-1.57-.37-2.37-.52l.07-.3c-.8-.15-1.6-.3-2.4-.42l-.04.3c-.8-.14-1.6-.25-2.4-.35l.05-.3c-.8-.1-1.6-.18-2.4-.25l-.04.3c-.8-.08-1.6-.13-2.4-.18v-.3c-.8-.04-1.6-.07-2.42-.08v.3c-.4 0-.8 0-1.22 0s-.8 0-1.2 0l-.02-.3c-.8 0-1.62.04-2.42.1v.28c-.8.05-1.6.1-2.4.17l-.03-.28c-.8.07-1.6.15-2.4.25l.03.3c-.8.1-1.6.2-2.4.34l-.04-.28c-.8.12-1.6.27-2.4.42l.07.3c-.8.15-1.6.33-2.38.5l-.07-.28c-.78.18-1.57.38-2.35.6l.08.3c-.78.2-1.55.43-2.32.67l-.1-.3c-.76.25-1.53.5-2.3.78l.1.3c-.75.26-1.5.54-2.26.83l-.1-.28c-.76.3-1.5.6-2.25.93l.12.28c-.74.32-1.47.66-2.2 1l-.12-.27c-.73.34-1.46.7-2.17 1.08l.13.27c-.7.37-1.4.76-2.1 1.16l-.15-.25c-.7.4-1.4.8-2.1 1.24l.17.24c-.7.43-1.37.86-2.03 1.3l-.18-.24c-.67.45-1.34.92-2 1.4l.18.23c-.65.47-1.3.96-1.93 1.45l-.2-.23c-.63.5-1.26 1-1.88 1.52l.2.23c-.63.52-1.24 1.05-1.84 1.58l-.2-.22c-.6.54-1.2 1.1-1.78 1.66l.2.2c-.57.57-1.14 1.14-1.7 1.72l-.2-.2c-.58.57-1.13 1.17-1.67 1.77l.23.2c-.53.6-1.06 1.22-1.58 1.84l-.23-.2c-.52.62-1.03 1.25-1.52 1.9l.23.18c-.5.63-.97 1.28-1.45 1.93l-.24-.18c-.47.66-.94 1.32-1.4 2l.26.16c-.44.67-.88 1.35-1.3 2.04l-.26-.16c-.43.7-.84 1.4-1.24 2.1l.26.14c-.4.7-.8 1.4-1.16 2.12l-.27-.14c-.37.72-.74 1.44-1.1 2.18l.3.12c-.36.73-.7 1.46-1.02 2.2l-.26-.12c-.33.74-.64 1.5-.93 2.24l.28.1c-.3.76-.57 1.52-.84 2.28l-.28-.1c-.27.76-.53 1.53-.77 2.3l.28.1c-.24.76-.47 1.53-.68 2.3l-.3-.07c-.2.78-.4 1.56-.6 2.35l.3.07c-.18.8-.35 1.57-.5 2.37l-.3-.06c-.16.8-.3 1.6-.43 2.4l.3.04c-.14.8-.25 1.58-.35 2.4l-.3-.05c-.1.8-.18 1.6-.25 2.4l.3.04c-.08.8-.13 1.62-.17 2.42h-.3c-.05.8-.08 1.6-.1 2.4l.3.02c0 .4 0 .8 0 1.2s0 .82 0 1.22h-.3c.02.82.05 1.63.1 2.43l.3-.03c.04.8.1 1.62.17 2.42h-.3c.07.82.15 1.63.25 2.43l.3-.04c.1.8.2 1.6.34 2.38l-.3.05c.13.8.28 1.6.43 2.4l.3-.07c.15.8.32 1.58.5 2.37l-.3.06c.2.78.4 1.57.6 2.35l.3-.08c.2.78.44 1.55.68 2.3l-.3.1c.25.78.5 1.55.78 2.3l.28-.1c.27.77.55 1.53.84 2.27l-.27.1c.3.77.6 1.52.94 2.26l.27-.12c.33.74.67 1.47 1.02 2.2l-.28.12c.35.73.72 1.46 1.1 2.17l.26-.14c.37.72.76 1.43 1.16 2.13l-.26.14c.4.7.8 1.4 1.24 2.1l.25-.17c.42.7.86 1.37 1.3 2.03l-.25.17c.45.67.92 1.34 1.4 2l.23-.18c.48.65.96 1.3 1.45 1.93l-.23.2c.5.63 1 1.26 1.52 1.88l.23-.2c.52.62 1.05 1.23 1.58 1.83l-.22.2c.55.6 1.1 1.18 1.67 1.77l.2-.2c.57.57 1.14 1.14 1.72 1.7l-.22.2c.58.58 1.18 1.13 1.78 1.67l.2-.22c.6.53 1.2 1.06 1.83 1.58l-.2.23c.6.52 1.24 1.03 1.88 1.52l.2-.23c.62.5 1.27.97 1.92 1.45l-.18.24c.66.48 1.33.95 2 1.4l.17-.25c.65.44 1.33.88 2.02 1.3l-.16.26c.7.44 1.38.85 2.1 1.25l.13-.26c.7.4 1.4.78 2.1 1.15l-.12.27c.7.37 1.44.73 2.17 1.08l.13-.27c.72.35 1.45.7 2.2 1l-.13.28c.74.34 1.5.65 2.24.94l.1-.27c.75.3 1.5.57 2.27.84l-.1.3c.76.26 1.53.52 2.3.76l.1-.3c.76.25 1.53.48 2.3.7l-.07.28c.78.22 1.57.42 2.35.6l.07-.3c.8.2 1.57.36 2.37.52l-.07.3c.8.15 1.6.3 2.4.42l.04-.3c.8.13 1.6.25 2.4.35l-.05.3c.8.1 1.6.18 2.4.25l.04-.3c.8.07 1.6.13 2.4.17v.3c.8.05 1.6.07 2.42.1v-.3z" class="st25"/><path id="_x33_-5x_ROI" d="M857.87 215.6h.76v-1.83h4.88c.13 0 .22 0 .35-.02.05-.02.13-.02.2-.02v.04c-.06.02-.1.05-.15.1-.1.08-.18.17-.25.26l-3.7 4.34.23.57c.07 0 .16 0 .25 0 .16-.03.38-.03.6-.03 1.7 0 3.36 1.07 3.36 3 0 1.87-1.58 3.13-3.16 3.13-1.03 0-1.87-.38-2.47-.8-.34-.23-.64-.48-.9-.8l-.6.6c.32.3.68.6 1.07.85.7.44 1.66.9 2.86.9 2.18 0 4-1.7 4-3.87 0-2.96-2.65-3.7-4.16-3.7l4.07-4.7v-.55h-7.23v2.54zm10.63 5.32h4.97v-.72h-4.97v.72zm7.44 3.3c.24.3.54.58.88.82.6.4 1.48.83 2.7.83 2.42 0 4.32-1.86 4.32-4.13 0-2.26-1.83-4-4.2-4-.67 0-1.23.13-1.65.28-.24.1-.44.18-.64.3h-.03l.03-.18.08-.34.48-4.03h4.4v1.82h.77v-2.55h-5.86l-.72 6 .57.2c.2-.15.44-.28.7-.4.46-.2 1.08-.38 1.8-.38 1.96 0 3.43 1.3 3.43 3.38 0 1.73-1.53 3.28-3.5 3.28-1 0-1.75-.36-2.26-.72-.3-.2-.54-.44-.73-.7l-.6.53zm9.3 1.43h1.92l2.2-3.64c.1-.1.16-.24.2-.33l.08-.14h.04c.02.05.05.1.1.14l.17.33 2.23 3.65h1.93v-.7h-1.47l-2.48-3.98 2.27-3.62H894v-.7h-2.02l-2 3.26-.2.35-.08.14h-.04c-.02-.06-.03-.1-.07-.17l-.2-.3-2-3.28h-2.04v.7h1.6l2.23 3.6-2.45 4h-1.5v.7zm14.6 0H904v-.72h-1.7v-4.86h2.1c.88 0 1.1.18 1.5.83l2.24 3.8c.5.82.63.95 1.73.95h.33v-.72h-.34c-.5 0-.7-.05-.93-.4l-2.37-4.05c-.1-.16-.18-.27-.26-.34l-.1-.1V220c1.85-.24 3-1.64 3-3.6 0-1.64-.77-2.6-1.94-3.06-.7-.24-1.32-.3-2.16-.3h-5.3v.73h1.7v11.16h-1.7v.72zm2.47-6.3v-5.58h2.8c.67 0 1.3.05 1.78.25.96.36 1.55 1.12 1.55 2.4 0 1.76-1.13 2.93-2.8 2.93h-3.32zm9.58-.1c0 3.7 2.86 6.62 6.37 6.62s6.37-2.92 6.37-6.6c0-3.63-2.86-6.44-6.37-6.44s-6.37 2.8-6.37 6.43zm.8 0c0-3.23 2.47-5.68 5.57-5.68s5.56 2.45 5.56 5.7c0 3.3-2.46 5.86-5.55 5.86s-5.56-2.56-5.56-5.87zm13.86 6.4h4.2v-.72H929v-11.16h1.7v-.72h-4.18v.72h1.7v11.16h-1.7v.72z" class="st11"/></g></g></svg>