<svg xmlns="http://www.w3.org/2000/svg" width="1024" height="579.1"><style type="text/css">.st0{opacity:0.7347;fill:url(#Combined-Shape_1_);enable-background:new ;} .st1{opacity:0.5005;fill:url(#Combined-Shape-Copy_2_);enable-background:new ;} .st2{fill:url(#Combined-Shape-Copy_3_);}</style><title>Groupsadasd</title><desc>Created with Sketch.</desc><g id="About-Us"><g id="Fancy_about-us_page"><g id="Groupsadasd" transform="translate(0 -552) translate(0 552)"><linearGradient id="Combined-Shape_1_" x1="504.509" x2="503.522" y1="563.182" y2="564.111" gradientUnits="userSpaceOnUse" gradientTransform="matrix(1024 0 0 -681.271 -515592 384239.5)"><stop offset="0" stop-color="#F2F3F7"/><stop offset="1" stop-color="#fff"/></linearGradient><path id="Combined-Shape" d="M0 579.1V375.9C76.9 200.6 247.5 113 512 113s435.1-71.7 512-215.2v681.3H0z" class="st0"/><linearGradient id="Combined-Shape-Copy_2_" x1="503.464" x2="504.451" y1="563.631" y2="562.702" gradientUnits="userSpaceOnUse" gradientTransform="matrix(1024 0 0 -1212.651 -515592 683614.438)"><stop offset="0" stop-color="#f8f8fb"/><stop offset="1" stop-color="#fff"/></linearGradient><path id="Combined-Shape-Copy" d="M0 1212.7V0c133.1 241.8 303.7 322.9 512 243.1s378.9-66.5 512 39.8v929.7H0z" class="st1"/><linearGradient id="Combined-Shape-Copy_3_" x1="504.303" x2="505.29" y1="563.921" y2="562.992" gradientUnits="userSpaceOnUse" gradientTransform="matrix(-1024 0 0 -662.896 517624 373909.031)"><stop offset="0" stop-color="#e8e9f0"/><stop offset="1" stop-color="#fff"/></linearGradient><path id="Combined-Shape-Copy_1_" d="M1024 579.1V-83.8C873.3 189.5 702.6 326.1 512 326.1S150.7 369.5 0 456.2v122.9h1024z" class="st2"/></g></g></g></svg>