<svg xmlns="http://www.w3.org/2000/svg" xmlns:xlink="http://www.w3.org/1999/xlink" width="160" height="72" viewBox="0 0 160 72"><defs><path id="xk5ca" d="M969 500a5 5 0 0 1 10 0v47h-10z"/><path id="xk5cb" d="M939 517a5 5 0 0 1 10 0v31h-10z"/><path id="xk5cc" d="M909 500a5 5 0 0 1 10 0v47h-10z"/><path id="xk5cd" d="M879 481a5 5 0 0 1 10 0v66h-10z"/><path id="xk5ce" d="M849 500a5 5 0 0 1 10 0v48h-10z"/><path id="xk5cf" d="M819 522a5 5 0 0 1 10 0v26h-10z"/></defs><g><g transform="translate(-819 -476)"><use fill="#fff" xlink:href="#xk5ca"/></g><g transform="translate(-819 -476)"><use fill="#fff" xlink:href="#xk5cb"/></g><g transform="translate(-819 -476)"><use fill="#fff" xlink:href="#xk5cc"/></g><g transform="translate(-819 -476)"><use fill="#fff" xlink:href="#xk5cd"/></g><g transform="translate(-819 -476)"><use fill="#fff" xlink:href="#xk5ce"/></g><g transform="translate(-819 -476)"><use fill="#fff" xlink:href="#xk5cf"/></g></g></svg>