<svg xmlns="http://www.w3.org/2000/svg" width="1024" height="237" xmlns:xlink="http://www.w3.org/1999/xlink"><style type="text/css">.st0{fill:#F2F3F7;} .st1{clip-path:url(#SVGID_2_);} .st2{fill:url(#bhuhc_1_);} .st3{opacity:0.5;clip-path:url(#SVGID_4_);} .st4{fill:url(#bhuhe_1_);} .st5{clip-path:url(#SVGID_6_);} .st6{fill:url(#bhuhg_1_);}</style><path id="bhuha" d="M0 237V0h1024v237H0z" class="st0"/><g transform="translate(76.95 -559)"><defs><path id="SVGID_1_" d="M-76.95 559h1024v237h-1024z"/></defs><clipPath id="SVGID_2_"><use xlink:href="#SVGID_1_" overflow="visible"/></clipPath><g class="st1"><linearGradient id="bhuhc_1_" x1="944.846" x2="-147.604" y1="144.399" y2="329.179" gradientUnits="userSpaceOnUse" gradientTransform="matrix(1 0 0 -1 76.95 993)"><stop offset="0" stop-color="#fff"/><stop offset="1" stop-color="#f8f9fb"/></linearGradient><path id="bhuhc" d="M-81.95 938.73s-143.9-277.36 0-277.36 340.8 142.16 597.12 87.8c256.3-54.36 264.75-189.55 426.88-189.55 162.14 0 0 379.1 0 379.1h-1024z" class="st2"/></g></g><g transform="translate(76.95 -559)"><defs><path id="SVGID_3_" d="M-76.95 559h1024v237h-1024z"/></defs><clipPath id="SVGID_4_"><use xlink:href="#SVGID_3_" overflow="visible"/></clipPath><g class="st3"><linearGradient id="bhuhe_1_" x1="-192.894" x2="842.396" y1="293.411" y2="66.661" gradientUnits="userSpaceOnUse" gradientTransform="matrix(1 0 0 -1 76.95 993)"><stop offset="0" stop-color="#dbdce2"/><stop offset="1" stop-color="rgba(237, 237, 237 ,.5)"/></linearGradient><path id="bhuhe" d="M-81.95 941.22V583.07s201.95 160.74 512 75.1 512 94.3 512 94.3v188.75h-1024z" class="st4"/></g></g><g transform="translate(76.95 -559)"><defs><path id="SVGID_5_" d="M-76.95 559h1024v237h-1024z"/></defs><clipPath id="SVGID_6_"><use xlink:href="#SVGID_5_" overflow="visible"/></clipPath><g class="st5"><linearGradient id="bhuhg_1_" x1="364.555" x2="364.555" y1="95.82" y2="213.55" gradientUnits="userSpaceOnUse" gradientTransform="matrix(1 0 0 -1 76.95 993)"><stop offset="0" stop-color="#fff" stop-opacity=".78"/><stop offset="1" stop-color="#F2F3F7" stop-opacity=".78"/></linearGradient><path id="bhuhg" d="M942.05 993.48h-1024V855.86c129.9-96.77 300.57-58.6 512-21.75 317.14 55.26 392.38-163 512-163 48.45 0 5 58.17 5 58.17l-5 264.2z" class="st6"/></g></g></svg>