<?xml version="1.0" encoding="utf-8"?>
<!-- Generator: Adobe Illustrator 16.0.0, SVG Export Plug-In . SVG Version: 6.00 Build 0)  -->
<!DOCTYPE svg PUBLIC "-//W3C//DTD SVG 1.1//EN" "http://www.w3.org/Graphics/SVG/1.1/DTD/svg11.dtd">
<svg version="1.1" id="Layer_1" xmlns="http://www.w3.org/2000/svg" xmlns:xlink="http://www.w3.org/1999/xlink" x="0px" y="0px"
	 width="1024px" height="664px" viewBox="0 0 1024 664" enable-background="new 0 0 1024 664" xml:space="preserve">
<path id="Clip_4_1_" fill="#FFFFFF" d="M874.05,165.45h44.761v37.65h-44.75v-37.65H874.05z"/>
<g>
	<path id="path-4" fill="#FFFFFF" d="M852.039,168.8h44.77v37.65h-44.77V168.8z"/>
</g>
<g>
	<path id="path-6" fill="#FFFFFF" d="M78.5,276c43.35,0,78.5-35.15,78.5-78.5S121.85,119,78.5,119S0,154.15,0,197.5
		S35.15,276,78.5,276z"/>
</g>
<path id="path-8" fill="#FFFFFF" d="M79,266c37.56,0,68-30.44,68-68s-30.44-68-68-68s-68,30.44-68,68S41.44,266,79,266z"/>
<title>cost savings background</title>
<desc>Created with Sketch.</desc>
<g id="outcomes">
	<g id="Fancy_impactv4">
		<g id="cost-savings_1_">
			<g id="cost-savings-background" transform="translate(-73 -1)">
				<g id="roi-icon" transform="translate(866)">
					
						<linearGradient id="Line-2-Copy_1_" gradientUnits="userSpaceOnUse" x1="-2515" y1="388.5977" x2="-2515" y2="387.5977" gradientTransform="matrix(1 0 0 388.374 2594.5 -150532.7344)">
						<stop  offset="0" style="stop-color:#FFFFFF"/>
						<stop  offset="1" style="stop-color:#FFFFFF;stop-opacity:0"/>
					</linearGradient>
					<path id="Line-2-Copy" fill="none" stroke="url(#Line-2-Copy_1_)" stroke-linecap="square" d="M79.5,0.13V388.5"/>
					<g id="Oval-Copy-5">
						<g>
							<circle id="path-2_2_" cx="79" cy="199" r="63"/>
						</g>
						<circle id="path-2_1_" fill="#FFFFFF" cx="79" cy="199" r="63"/>
					</g>
					<g id="Page-1">
						<path id="Stroke-1" fill="none" stroke="#00BFD6" stroke-width="2" stroke-linecap="round" stroke-linejoin="round" d="
							M65.4,200.12L72.8,188.5l5.65,8.02l7.36-7.04l5.699,5.3l8.5-20.021"/>
						<g id="Group-5" transform="translate(54 169) translate(4.839 .18)">
							<path id="Stroke-3" fill="none" stroke="#2D2C6F" stroke-width="2" d="M44.97,38.27H0.2V0.62"/>
						</g>
						<path id="Stroke-6" fill="none" stroke="#2D2C6F" stroke-width="2" stroke-linejoin="round" d="M54,179.7h5"/>
						<path id="Stroke-8" fill="none" stroke="#2D2C6F" stroke-width="2" stroke-linejoin="round" d="M54,190.96h5"/>
						<path id="Stroke-10" fill="none" stroke="#2D2C6F" stroke-width="2" stroke-linejoin="round" d="M54,202.24h5"/>
						<path id="Stroke-12" fill="none" stroke="#2D2C6F" stroke-width="2" stroke-linejoin="round" d="M64.34,212.38v-4.97"/>
						<path id="Stroke-14" fill="none" stroke="#2D2C6F" stroke-width="2" stroke-linejoin="round" d="M75.14,212.38v-4.97"/>
						<path id="Stroke-16" fill="none" stroke="#2D2C6F" stroke-width="2" stroke-linejoin="round" d="M85.95,212.38v-4.97"/>
						<path id="Stroke-18" fill="none" stroke="#2D2C6F" stroke-width="2" stroke-linejoin="round" d="M96.75,212.38v-4.97"/>
					</g>
					<g id="Oval-Copy">
						<path id="path-6_1_" fill="none" stroke="#FFFFFF" stroke-width="1.2" stroke-dasharray="2.4,2.4" d="M78.5,276
							c43.35,0,78.5-35.15,78.5-78.5S121.85,119,78.5,119S0,154.15,0,197.5S35.15,276,78.5,276z"/>
					</g>
					<g id="Oval-Copy_1_">
						<path id="path-8_1_" fill="none" stroke="#FFFFFF" stroke-width="1.2" stroke-dasharray="2.4,2.4" d="M79,266
							c37.561,0,68-30.44,68-68s-30.439-68-68-68s-68,30.44-68,68S41.439,266,79,266z"/>
					</g>
					<g enable-background="new    ">
						<path fill="#00181B" d="M42.93,230.05l0.301-0.42c0.22-0.3,0.5-0.33,0.819-0.1c0.83,0.67,1.7,1,2.601,1
							c0.729,0,1.35-0.22,1.85-0.65c0.5-0.44,0.75-1,0.75-1.67c0-0.74-0.28-1.3-0.85-1.72c-0.57-0.4-1.271-0.6-2.101-0.6H45.9
							c-0.301,0-0.53-0.16-0.67-0.45l-0.051-0.1c-0.119-0.28-0.069-0.54,0.15-0.78l2.439-2.9c0.131-0.14,0.261-0.28,0.4-0.42
							c0.12-0.14,0.22-0.24,0.3-0.3l0.101-0.1v-0.04c-0.26,0.02-0.62,0.04-1.101,0.04h-3.7c-0.17,0-0.319-0.05-0.43-0.16
							c-0.109-0.11-0.15-0.24-0.15-0.43v-0.36c0-0.4,0.2-0.6,0.58-0.6h6.4c0.4,0,0.6,0.18,0.6,0.55V220c0,0.3-0.1,0.54-0.26,0.73
							l-3.199,3.68c0.359,0.04,0.699,0.12,1.05,0.22c0.35,0.1,0.67,0.27,1,0.47c0.329,0.2,0.62,0.43,0.859,0.7
							c0.24,0.28,0.44,0.62,0.601,1.02c0.16,0.4,0.22,0.84,0.22,1.32c0,0.54-0.101,1.06-0.3,1.56c-0.221,0.5-0.5,0.92-0.87,1.3
							c-0.37,0.37-0.83,0.66-1.38,0.9c-0.551,0.2-1.141,0.32-1.771,0.32c-1.3,0-2.54-0.45-3.7-1.35c-0.3-0.23-0.319-0.5-0.1-0.82
							H42.93z M53.13,227.05v-0.36c0-0.2,0.06-0.34,0.16-0.45c0.1-0.11,0.24-0.16,0.43-0.16h4.07c0.399,0,0.6,0.2,0.6,0.6v0.35
							c0,0.4-0.2,0.6-0.6,0.6h-4.07c-0.399,0-0.6-0.2-0.6-0.6L53.13,227.05z M60.53,230.03l0.3-0.4c0.22-0.3,0.5-0.32,0.8-0.08
							c0.681,0.66,1.46,0.98,2.34,0.98c0.771,0,1.42-0.24,1.97-0.72c0.551-0.48,0.801-1.1,0.801-1.85s-0.26-1.38-0.801-1.87
							c-0.56-0.5-1.25-0.74-2.069-0.74c-0.55,0-1.13,0.15-1.75,0.45c-0.3,0.1-0.561,0.1-0.8,0.03l-0.141-0.06
							c-0.33-0.13-0.479-0.36-0.439-0.7l0.54-5.22c0.04-0.37,0.239-0.56,0.6-0.56h5.25c0.4,0,0.601,0.2,0.601,0.6v0.35
							c0,0.4-0.2,0.6-0.601,0.6h-4.26l-0.3,2.66c-0.021,0.12-0.03,0.24-0.051,0.35c-0.02,0.11-0.02,0.2-0.029,0.26l-0.03,0.1h0.03
							c0.06-0.04,0.13-0.08,0.229-0.12c0.101-0.05,0.3-0.1,0.57-0.18c0.3-0.07,0.57-0.1,0.85-0.1c0.87,0,1.641,0.18,2.3,0.55
							c0.7,0.37,1.2,0.87,1.57,1.5c0.36,0.63,0.54,1.32,0.54,2.1c0,1.2-0.43,2.23-1.28,3.05c-0.85,0.8-1.92,1.22-3.199,1.22
							c-1.37,0-2.53-0.46-3.5-1.4c-0.301-0.23-0.301-0.5-0.051-0.8L60.53,230.03z M69.86,231.8c-0.08-0.14-0.05-0.32,0.079-0.52
							l2.65-3.96l-2.5-3.7c-0.13-0.2-0.15-0.38-0.08-0.52s0.24-0.2,0.48-0.2h0.68c0.32,0,0.55,0.13,0.7,0.4l1.46,2.36l0.3,0.55h0.03
							c0.12-0.2,0.22-0.38,0.3-0.54l1.46-2.35c0.15-0.27,0.38-0.4,0.7-0.4h0.67c0.24,0,0.399,0.06,0.479,0.2
							c0.08,0.14,0.051,0.3-0.1,0.52l-2.46,3.7l2.66,3.96c0.13,0.2,0.16,0.38,0.08,0.5c-0.08,0.15-0.24,0.22-0.5,0.22h-0.63
							c-0.301,0-0.551-0.14-0.7-0.4l-1.68-2.64l-0.28-0.5h-0.04c-0.08,0.2-0.17,0.35-0.271,0.5l-1.68,2.63
							c-0.15,0.26-0.38,0.4-0.7,0.4h-0.64c-0.25,0-0.4-0.07-0.48-0.2L69.86,231.8z M83.939,231.4v-11.5c0-0.4,0.2-0.6,0.601-0.6
							h3.42c1.08,0,1.87,0.1,2.37,0.33c0.6,0.28,1.1,0.7,1.46,1.28c0.35,0.6,0.53,1.27,0.53,2.06c0,0.82-0.2,1.55-0.601,2.2
							c-0.42,0.63-0.97,1.06-1.659,1.3v0.021c0.1,0.13,0.229,0.32,0.369,0.58l2.301,4.24c0.1,0.2,0.13,0.37,0.05,0.5
							s-0.24,0.2-0.47,0.2H91.59c-0.32,0-0.56-0.14-0.7-0.4l-2.479-4.66h-2.7v4.46c0,0.4-0.2,0.6-0.6,0.6h-0.58
							c-0.4,0-0.601-0.2-0.601-0.6L83.939,231.4z M85.71,225.4h2.56c0.7,0,1.25-0.22,1.66-0.65s0.601-1,0.601-1.7
							c0-1-0.38-1.65-1.181-2c-0.34-0.14-0.84-0.2-1.5-0.2H85.7v4.54L85.71,225.4z M94.14,225.56c0-0.9,0.171-1.75,0.5-2.55
							c0.33-0.8,0.771-1.48,1.351-2.06c0.58-0.58,1.26-1.02,2.07-1.36c0.8-0.33,1.68-0.5,2.6-0.5s1.8,0.17,2.62,0.5
							c0.8,0.34,1.5,0.8,2.06,1.36c0.561,0.56,1,1.27,1.34,2.07s0.5,1.66,0.5,2.56c0,0.93-0.17,1.8-0.5,2.62
							c-0.33,0.82-0.779,1.53-1.34,2.12c-0.57,0.6-1.26,1.06-2.07,1.4c-0.83,0.35-1.699,0.521-2.619,0.521s-1.801-0.17-2.601-0.521
							c-0.819-0.34-1.52-0.8-2.1-1.4c-0.561-0.6-1-1.3-1.34-2.12c-0.33-0.82-0.5-1.7-0.5-2.62L94.14,225.56z M95.98,225.56
							c0,0.7,0.119,1.36,0.35,1.98c0.24,0.62,0.57,1.15,0.98,1.6c0.43,0.44,0.93,0.8,1.5,1.05c0.6,0.25,1.22,0.38,1.879,0.38
							c1.341,0,2.461-0.48,3.341-1.44c0.899-0.96,1.34-2.15,1.34-3.58c0-1.38-0.45-2.53-1.34-3.45c-0.88-0.92-2-1.38-3.341-1.38
							c-0.879,0-1.699,0.2-2.399,0.64s-1.3,1-1.7,1.73s-0.6,1.55-0.6,2.46L95.98,225.56z M109.53,231.4v-11.5c0-0.4,0.2-0.6,0.6-0.6
							h0.57c0.399,0,0.6,0.2,0.6,0.6v11.5c0,0.4-0.2,0.6-0.6,0.6h-0.57C109.73,232,109.53,231.8,109.53,231.4z"/>
					</g>
				</g>
				<g id="cost-savings">
					<g id="Combined-Shape">
						<g>
							<path id="path-10_2_" d="M712.24,335L696,347l-16.24-12H599c-4.42,0-8-3.58-8-8v-80c0-4.42,3.58-8,8-8h187c4.42,0,8,3.58,8,8
								v80c0,4.42-3.58,8-8,8H712.24z"/>
						</g>
						<path id="path-10_1_" fill="#FFFFFF" d="M712.24,335L696,347l-16.24-12H599c-4.42,0-8-3.58-8-8v-80c0-4.42,3.58-8,8-8h187
							c4.42,0,8,3.58,8,8v80c0,4.42-3.58,8-8,8H712.24z"/>
					</g>
					<g id="_x33_-month-marker">
						<g enable-background="new    ">
							<path fill="#00BFD6" d="M654.15,301.94c0-1.32,0.46-2.47,1.38-3.45c0.92-0.98,2.12-1.58,3.6-1.8v-1.65
								c0-0.6,0.3-0.9,0.87-0.9h0.2c0.569,0,0.85,0.27,0.85,0.8v1.72c1.47,0.08,2.8,0.54,4,1.37c0.4,0.28,0.5,0.68,0.23,1.22
								l-0.341,0.67c-0.3,0.5-0.699,0.6-1.239,0.25c-1.12-0.72-2.261-1.08-3.44-1.08c-1,0-1.83,0.27-2.5,0.8
								c-0.64,0.55-0.97,1.2-0.97,2c0,0.4,0.1,0.76,0.32,1.1c0.22,0.34,0.5,0.62,0.87,0.87c0.369,0.25,0.76,0.48,1.229,0.7
								c0.47,0.23,0.96,0.45,1.479,0.66c0.53,0.22,1.051,0.45,1.561,0.7c0.5,0.23,1,0.5,1.46,0.83c0.47,0.32,0.88,0.66,1.24,1.04
								c0.359,0.38,0.649,0.84,0.859,1.38c0.221,0.54,0.32,1.141,0.32,1.8c0,1.37-0.45,2.55-1.36,3.53
								c-0.92,1-2.159,1.58-3.729,1.76v1.62c0,0.601-0.28,0.9-0.84,0.9H660c-0.58,0-0.87-0.261-0.87-0.78v-1.74
								c-1.72-0.149-3.28-0.779-4.67-1.87c-0.47-0.369-0.5-0.779-0.14-1.239l0.439-0.62c0.32-0.44,0.75-0.5,1.271-0.16
								c1.3,1,2.68,1.479,4.13,1.479c0.93,0,1.72-0.25,2.37-0.75c0.649-0.5,0.96-1.18,0.96-2.05c0-0.42-0.12-0.8-0.33-1.16
								c-0.221-0.359-0.5-0.67-0.87-0.93c-0.36-0.26-0.771-0.5-1.24-0.75c-0.47-0.229-0.96-0.47-1.479-0.7
								c-0.521-0.22-1.04-0.46-1.551-0.7c-0.51-0.24-1-0.52-1.47-0.83c-0.46-0.33-0.87-0.67-1.229-1.03
								c-0.36-0.36-0.65-0.8-0.86-1.33c-0.22-0.52-0.319-1.1-0.319-1.7L654.15,301.94z M668.42,313.07l0.43-0.62
								c0.351-0.44,0.761-0.5,1.24-0.17c1.24,1,2.55,1.52,3.9,1.52c1.1,0,2.02-0.33,2.77-0.979c0.75-0.66,1.13-1.5,1.13-2.5
								c0-1.12-0.43-2-1.279-2.601c-0.851-0.6-1.9-0.92-3.15-0.92h-0.6c-0.46,0-0.8-0.22-1-0.65l-0.08-0.16
								c-0.2-0.43-0.12-0.8,0.22-1.17l3.66-4.36c0.199-0.2,0.38-0.42,0.58-0.63c0.199-0.2,0.35-0.35,0.449-0.45l0.17-0.17v-0.05
								c-0.379,0.05-0.92,0.08-1.619,0.08h-5.551c-0.279,0-0.5-0.08-0.659-0.23c-0.16-0.15-0.24-0.38-0.24-0.66v-0.54
								c0-0.6,0.3-0.9,0.899-0.9h9.601c0.6,0,0.899,0.3,0.899,0.85V298c0,0.43-0.14,0.8-0.399,1.08l-4.8,5.5
								c0.55,0.07,1.07,0.17,1.57,0.34c0.5,0.16,1,0.4,1.5,0.7c0.5,0.3,0.93,0.66,1.3,1.07c0.359,0.43,0.659,0.93,0.899,1.54
								c0.24,0.61,0.33,1.261,0.33,1.971c0,0.83-0.15,1.6-0.47,2.35c-0.3,0.74-0.74,1.4-1.3,1.94c-0.551,0.55-1.24,1-2.061,1.33
								c-0.819,0.33-1.699,0.5-2.649,0.5c-1.96,0-3.8-0.681-5.55-2.03c-0.44-0.351-0.48-0.76-0.15-1.23L668.42,313.07z
								 M682.67,318.35l1.4-4.43c0.14-0.5,0.47-0.75,1-0.75h0.84c0.35,0,0.58,0.1,0.7,0.3c0.14,0.181,0.14,0.431,0,0.721
								l-1.82,4.479c-0.17,0.45-0.521,0.67-1.06,0.67h-0.301c-0.3,0-0.539-0.1-0.67-0.27c-0.13-0.181-0.16-0.431-0.08-0.73
								L682.67,318.35z M689.48,315.1v-0.54c0-0.6,0.3-0.88,0.899-0.88h3.3v-12.3l0.03-1.17h-0.04c-0.17,0.3-0.45,0.64-0.84,1.03
								l-1.22,1.2c-0.44,0.4-0.86,0.4-1.24-0.04l-0.38-0.4c-0.42-0.4-0.42-0.83,0-1.25l3.46-3.38c0.3-0.3,0.68-0.43,1.08-0.43h0.88
								c0.6,0,0.88,0.3,0.88,0.9v15.84h3.3c0.601,0,0.88,0.301,0.88,0.88v0.54c0,0.601-0.3,0.9-0.899,0.9h-9.18
								c-0.601,0-0.9-0.3-0.9-0.9H689.48z M702.07,315.1v-0.56c0-0.73,0.1-1.42,0.3-2.06c0.22-0.65,0.5-1.221,0.86-1.7
								c0.359-0.48,0.75-0.98,1.199-1.431c0.46-0.449,0.94-0.859,1.44-1.239c0.5-0.36,1-0.73,1.5-1.101c0.5-0.37,1-0.7,1.47-1.04
								c0.47-0.34,0.88-0.7,1.24-1.08c0.359-0.36,0.65-0.76,0.87-1.2c0.2-0.44,0.319-0.9,0.319-1.37c0-0.93-0.319-1.7-0.96-2.27
								c-0.64-0.57-1.45-0.88-2.46-0.88c-1.319,0-2.439,0.58-3.369,1.75c-0.4,0.47-0.801,0.53-1.2,0.18l-0.45-0.37
								c-0.46-0.36-0.53-0.76-0.23-1.2c0.2-0.32,0.46-0.6,0.74-0.9c0.28-0.3,0.641-0.6,1.1-0.9c0.431-0.34,0.961-0.6,1.601-0.8
								c0.6-0.18,1.28-0.28,1.979-0.28c1.75,0,3.2,0.5,4.32,1.52c1.12,1,1.7,2.33,1.7,3.97c0,0.68-0.12,1.3-0.32,1.9
								s-0.5,1.13-0.84,1.6c-0.36,0.45-0.76,0.9-1.22,1.32c-0.45,0.42-0.931,0.8-1.44,1.16c-0.5,0.36-1,0.7-1.52,1.04
								c-0.5,0.34-1,0.68-1.45,1.02c-0.46,0.34-0.87,0.7-1.23,1.04c-0.359,0.351-0.64,0.74-0.859,1.16
								c-0.221,0.42-0.33,0.87-0.34,1.34h8.64c0.6,0,0.88,0.3,0.88,0.88v0.54c0,0.601-0.3,0.9-0.87,0.9H703
								c-0.27,0-0.5-0.08-0.67-0.23c-0.17-0.149-0.26-0.38-0.26-0.67V315.1z M717.34,313.04l0.44-0.6
								c0.34-0.431,0.75-0.471,1.2-0.101c1.029,0.97,2.199,1.46,3.52,1.46c1.15,0,2.141-0.359,2.95-1.08
								c0.819-0.729,1.229-1.66,1.229-2.8s-0.399-2.06-1.239-2.8c-0.82-0.74-1.851-1.1-3.101-1.1c-0.8,0-1.699,0.2-2.6,0.66
								c-0.45,0.16-0.85,0.18-1.2,0.07l-0.229-0.1c-0.48-0.2-0.7-0.54-0.65-1.04l0.82-7.82c0.06-0.56,0.359-0.84,0.899-0.84h7.87
								c0.6,0,0.9,0.3,0.9,0.9v0.53c0,0.6-0.301,0.9-0.9,0.9h-6.4l-0.449,4c-0.03,0.17-0.051,0.33-0.07,0.5
								c-0.02,0.17-0.03,0.3-0.05,0.4l-0.03,0.1h0.05c0.08-0.03,0.2-0.1,0.341-0.15c0.14-0.07,0.43-0.16,0.859-0.27
								c0.43-0.11,0.85-0.16,1.26-0.16c1.301,0,2.471,0.27,3.48,0.82c1.02,0.56,1.8,1.3,2.33,2.25c0.54,0.95,0.8,2,0.8,3.13
								c0,1.84-0.63,3.369-1.9,4.6c-1.3,1.22-2.899,1.83-4.8,1.83c-2.06,0-3.8-0.7-5.25-2.08c-0.439-0.36-0.46-0.76-0.08-1.2V313.04
								z"/>
						</g>
						<g enable-background="new    ">
							<path fill="#00181B" d="M610.2,265l3.569-9.88h1.461l3.55,9.88h-1.44l-1-2.84h-3.72l-0.979,2.84h-1.431H610.2z M612.98,261h3
								l-1.101-3.12l-0.37-1.4h-0.02c-0.15,0.6-0.28,1.08-0.4,1.4L613,261H612.98z M619,257.92h1.43l1.721,4.78
								c0.06,0.2,0.1,0.33,0.119,0.42c0.021,0.1,0.051,0.25,0.101,0.4l0.02,0.15h0.021l0.029-0.15l0.101-0.4
								c0.04-0.15,0.08-0.3,0.12-0.42l1.72-4.78h1.42l-2.6,7.08H621.6l-2.63-7.08H619z M626.52,261.3c0-1.06,0.28-1.9,0.83-2.56
								c0.551-0.66,1.301-1,2.271-1c0.3,0,0.6,0.04,0.88,0.1c0.27,0.08,0.48,0.17,0.641,0.28c0.18,0.12,0.3,0.22,0.399,0.3
								c0.13,0.12,0.2,0.2,0.229,0.28l0.07,0.1h0.03c0-0.1-0.021-0.17-0.021-0.23v-0.65h1.301v6.8c0,0.54-0.101,1.03-0.301,1.47
								c-0.199,0.42-0.479,0.76-0.83,1c-0.329,0.25-0.699,0.43-1.119,0.55c-0.4,0.13-0.851,0.2-1.301,0.2
								c-0.85,0-1.659-0.2-2.43-0.6l0.45-1.06c0.6,0.3,1.24,0.46,1.94,0.46c0.67,0,1.199-0.16,1.619-0.48
								c0.4-0.32,0.62-0.83,0.62-1.5v-0.97h-0.02c-0.431,0.75-1.13,1.12-2.101,1.12c-0.97,0-1.72-0.35-2.3-1.03
								c-0.569-0.7-0.859-1.56-0.859-2.6L626.52,261.3z M627.9,261.26c0,0.75,0.199,1.35,0.55,1.8c0.38,0.45,0.88,0.68,1.5,0.68
								c0.55,0,1-0.2,1.35-0.57c0.351-0.4,0.521-1,0.521-1.87c0-1.58-0.66-2.38-2-2.38c-0.601,0-1.07,0.2-1.4,0.62
								C628.07,259.96,627.9,260.54,627.9,261.26L627.9,261.26z M635.28,265v-1.4h1.43v1.4h-1.42H635.28z M641.48,265l3.56-9.88
								h1.45l3.55,9.88h-1.44l-1-2.84H643.9l-1,2.84H641.48z M644.25,261h3l-1.1-3.12l-0.37-1.4h-0.03c-0.16,0.6-0.3,1.08-0.4,1.4
								l-1.1,3.13V261z M651.22,265v-7.08h1.32v0.93l-0.03,0.52h0.04c0.181-0.4,0.5-0.77,0.95-1.1s1-0.52,1.7-0.52
								c1.62,0,2.43,0.9,2.43,2.7V265h-1.35v-4.22c0-0.57-0.101-1-0.28-1.32c-0.2-0.3-0.54-0.47-1.07-0.47
								c-0.529,0-1,0.15-1.399,0.48c-0.4,0.32-0.681,0.74-0.83,1.25c-0.08,0.26-0.12,0.58-0.12,0.95V265H651.22z M659.66,265v-7.08
								h1.3v1.45c0.2-0.4,0.5-0.77,0.96-1.1s1.02-0.52,1.7-0.52c1.63,0,2.45,0.9,2.45,2.7V265h-1.36v-4.22c0-0.57-0.08-1-0.271-1.32
								c-0.18-0.3-0.539-0.47-1.06-0.47c-0.53,0-1,0.15-1.399,0.48c-0.4,0.32-0.7,0.74-0.841,1.25c-0.08,0.26-0.12,0.58-0.12,0.95
								V265h-1.34H659.66z M668,262.45v-4.53h1.35v4.2c0,0.6,0.101,1.03,0.271,1.32c0.18,0.3,0.54,0.45,1.06,0.45
								c0.7,0,1.25-0.27,1.67-0.78c0.42-0.53,0.631-1.16,0.631-1.9v-3.3h1.35V265h-1.3v-0.94l0.02-0.53h-0.02
								c-0.181,0.42-0.5,0.8-0.97,1.13c-0.471,0.34-1.021,0.5-1.641,0.5c-1.62,0-2.43-0.9-2.43-2.7L668,262.45z M675.9,263
								c0-1.62,1.399-2.43,4.26-2.43h0.3v-0.13c0-1.03-0.5-1.54-1.54-1.54c-0.3,0-0.63,0.05-0.979,0.17
								c-0.3,0.1-0.561,0.2-0.74,0.33l-0.25,0.18l-0.57-1c0.05-0.04,0.16-0.12,0.33-0.23c0.13-0.08,0.431-0.2,0.92-0.37
								c0.45-0.16,0.92-0.23,1.4-0.23c0.899,0,1.6,0.24,2.1,0.7c0.47,0.5,0.72,1.18,0.72,2.07V265h-1.25v-0.67l0.021-0.56h-0.03
								l-0.1,0.15c-0.03,0.07-0.1,0.18-0.221,0.33c-0.129,0.16-0.27,0.3-0.43,0.43c-0.16,0.12-0.37,0.23-0.649,0.33
								c-0.28,0.12-0.58,0.17-0.9,0.17c-0.65,0-1.22-0.2-1.7-0.57c-0.47-0.38-0.7-0.9-0.7-1.6L675.9,263z M677.27,262.94
								c0,0.3,0.12,0.57,0.36,0.8c0.22,0.23,0.55,0.34,0.97,0.34c0.54,0,1-0.24,1.351-0.7c0.35-0.48,0.53-1,0.53-1.56v-0.22h-0.351
								C678.23,261.6,677.27,262.04,677.27,262.94L677.27,262.94z M683.76,263.07v-7.95h1.36v7.72c0,0.4,0.06,0.66,0.2,0.8
								c0.13,0.14,0.3,0.2,0.56,0.2h0.23v1.2c-0.101,0-0.261,0-0.44,0c-1.26,0-1.9-0.65-1.9-1.97H683.76z M690.76,260
								c0-1.44,0.48-2.64,1.43-3.6c0.95-0.96,2.15-1.45,3.601-1.45c0.44,0,0.87,0.04,1.271,0.13c0.399,0.1,0.739,0.2,1.02,0.32
								c0.25,0.12,0.48,0.25,0.7,0.38c0.18,0.1,0.33,0.229,0.439,0.33l0.141,0.14l-0.681,1.04c-0.069-0.08-0.199-0.18-0.369-0.3
								c-0.17-0.13-0.5-0.3-0.98-0.48c-0.5-0.2-1-0.3-1.5-0.3c-1.1,0-1.97,0.36-2.64,1.08c-0.671,0.73-1,1.63-1,2.7
								c0,1.08,0.329,2,1.02,2.77c0.681,0.76,1.56,1.14,2.64,1.14c0.541,0,1.07-0.1,1.58-0.33c0.5-0.2,0.881-0.42,1.12-0.64
								l0.351-0.32l0.75,1c-0.021,0.03-0.08,0.1-0.16,0.18c-0.08,0.06-0.24,0.2-0.48,0.37c-0.26,0.18-0.52,0.34-0.8,0.47
								c-0.28,0.15-0.63,0.27-1.06,0.38c-0.44,0.1-0.9,0.17-1.34,0.17c-1.471,0-2.681-0.5-3.631-1.5c-0.97-1-1.439-2.2-1.439-3.67
								L690.76,260z M700.74,261.45c0-1.07,0.37-1.95,1.1-2.65c0.74-0.7,1.65-1.05,2.72-1.05c1.061,0,1.971,0.35,2.7,1.05
								c0.75,0.7,1.1,1.58,1.1,2.65c0,1.06-0.359,1.94-1.1,2.65c-0.74,0.72-1.64,1.07-2.7,1.07c-1.069,0-1.97-0.35-2.7-1.07
								C701.109,263.4,700.74,262.5,700.74,261.45z M702.12,261.45c0,0.73,0.24,1.34,0.7,1.8c0.5,0.5,1.06,0.75,1.74,0.75
								c0.68,0,1.25-0.25,1.729-0.73c0.46-0.47,0.7-1.08,0.7-1.82c0-0.73-0.24-1.34-0.7-1.8c-0.5-0.5-1.06-0.73-1.74-0.73
								c-0.68,0-1.25,0.24-1.729,0.72c-0.471,0.47-0.7,1.08-0.7,1.8V261.45z M709.4,264.13l0.67-0.96
								c0.04,0.05,0.119,0.13,0.25,0.23c0.1,0.08,0.33,0.2,0.699,0.36c0.351,0.16,0.7,0.24,1.08,0.24c0.301,0,0.601-0.08,0.83-0.24
								c0.23-0.16,0.351-0.37,0.351-0.65c0-0.22-0.13-0.43-0.38-0.6c-0.24-0.18-0.551-0.33-0.9-0.47c-0.37-0.14-0.73-0.3-1.08-0.45
								c-0.359-0.17-0.66-0.4-0.9-0.7c-0.26-0.32-0.399-0.7-0.399-1.12c0-0.62,0.26-1.1,0.739-1.47c0.48-0.37,1.101-0.55,1.83-0.55
								c0.45,0,0.87,0.06,1.261,0.2c0.37,0.12,0.63,0.25,0.8,0.38l0.2,0.2l-0.53,1.02c-0.04-0.03-0.1-0.1-0.2-0.17
								c-0.1-0.07-0.3-0.17-0.6-0.28c-0.3-0.12-0.62-0.18-0.95-0.18s-0.6,0.08-0.83,0.22c-0.22,0.14-0.34,0.36-0.34,0.65
								c0,0.22,0.14,0.42,0.4,0.6c0.229,0.16,0.539,0.3,0.899,0.45c0.4,0.15,0.75,0.3,1.07,0.44c0.35,0.15,0.649,0.4,0.899,0.7
								c0.261,0.32,0.4,0.68,0.4,1.1c0,0.6-0.25,1.1-0.72,1.5c-0.47,0.38-1.101,0.57-1.851,0.57c-0.5,0-1-0.1-1.449-0.26
								c-0.44-0.16-0.75-0.33-0.94-0.52l-0.3-0.25L709.4,264.13z M715.62,259.1V258h0.97v-2.03h1.3V258h1.7v1.1h-1.7v3.16
								c0,0.26,0.04,0.5,0.12,0.7c0.08,0.22,0.17,0.37,0.271,0.47c0.1,0.1,0.229,0.2,0.37,0.27c0.119,0.06,0.25,0.1,0.399,0.12
								c0.101,0.02,0.2,0.03,0.34,0.03l0.341-0.03v1.2c-0.101,0.03-0.271,0.03-0.48,0.03c-0.22,0-0.43,0-0.64-0.04
								c-0.2,0-0.431-0.08-0.7-0.2c-0.271-0.1-0.5-0.25-0.68-0.44c-0.2-0.18-0.36-0.44-0.5-0.78c-0.12-0.32-0.2-0.7-0.2-1.17v-3.3
								h-0.92L715.62,259.1z"/>
						</g>
						<g enable-background="new    ">
							<path fill="#00181B" d="M723.1,263.5l0.23-0.33c0.1-0.13,0.2-0.2,0.33-0.2c0.1,0,0.2,0.04,0.3,0.1
								c0.74,0.55,1.45,0.82,2.16,0.82c0.52,0,0.939-0.14,1.26-0.4c0.3-0.25,0.47-0.6,0.47-1.03c0-0.3-0.1-0.55-0.26-0.78
								c-0.2-0.24-0.42-0.44-0.7-0.6c-0.27-0.15-0.58-0.3-0.92-0.45c-0.34-0.15-0.67-0.3-1-0.47s-0.66-0.36-0.939-0.57
								c-0.28-0.21-0.5-0.46-0.681-0.8c-0.18-0.34-0.27-0.7-0.27-1.1c0-0.83,0.3-1.5,0.9-2c0.6-0.5,1.379-0.75,2.3-0.75
								c0.529,0,1,0.08,1.45,0.24c0.449,0.14,0.8,0.32,1.02,0.5c0.14,0.1,0.2,0.22,0.2,0.37c0,0.08,0,0.17-0.05,0.26l-0.2,0.35
								c-0.101,0.15-0.2,0.23-0.341,0.23c-0.079,0-0.18-0.03-0.3-0.1c-0.63-0.38-1.229-0.57-1.8-0.57c-0.529,0-0.96,0.13-1.3,0.38
								c-0.32,0.26-0.5,0.6-0.5,1.02c0,0.3,0.1,0.54,0.28,0.76c0.17,0.23,0.399,0.4,0.68,0.56c0.28,0.16,0.6,0.3,0.92,0.43
								c0.34,0.14,0.68,0.3,1.021,0.46c0.329,0.17,0.64,0.36,0.92,0.57c0.28,0.2,0.5,0.48,0.7,0.82c0.199,0.34,0.25,0.7,0.25,1.14
								c0,0.8-0.28,1.47-0.851,2c-0.569,0.53-1.319,0.8-2.28,0.8c-0.63,0-1.199-0.1-1.72-0.3c-0.52-0.2-0.94-0.46-1.25-0.7
								c-0.12-0.12-0.18-0.24-0.18-0.35c0-0.1,0.04-0.2,0.12-0.3L723.1,263.5z M730.25,263.07c0-0.3,0.05-0.6,0.16-0.83
								c0.12-0.25,0.25-0.45,0.43-0.62c0.17-0.17,0.38-0.3,0.63-0.43s0.5-0.23,0.73-0.3c0.229-0.07,0.5-0.13,0.8-0.17
								s0.55-0.07,0.78-0.08c0.229,0,0.46-0.02,0.7-0.02h0.359v-0.18c0-1.04-0.5-1.55-1.54-1.55c-0.55,0-1.1,0.15-1.6,0.45
								c-0.101,0.04-0.2,0.06-0.271,0.06c-0.149,0-0.27-0.07-0.369-0.22l-0.101-0.2c-0.07-0.1-0.1-0.2-0.1-0.3
								c0-0.14,0.08-0.25,0.239-0.33c0.7-0.4,1.461-0.6,2.301-0.6c0.88,0,1.56,0.24,2.05,0.7c0.5,0.5,0.729,1.18,0.729,2.07v4.02
								c0,0.3-0.149,0.46-0.46,0.46h-0.34c-0.3,0-0.46-0.16-0.46-0.46v-0.42c0-0.08,0-0.15,0-0.23c0.02-0.08,0.03-0.14,0.04-0.17
								v-0.05h-0.021c-0.02,0.04-0.05,0.1-0.08,0.16c-0.039,0.07-0.13,0.2-0.26,0.36c-0.13,0.17-0.279,0.32-0.439,0.45
								s-0.381,0.25-0.65,0.36c-0.26,0.12-0.56,0.17-0.87,0.17c-0.649,0-1.2-0.2-1.68-0.57c-0.48-0.37-0.7-0.9-0.7-1.53
								L730.25,263.07z M731.62,262.97c0,0.3,0.12,0.57,0.35,0.8c0.24,0.22,0.561,0.33,0.97,0.33c0.381,0,0.721-0.1,1.021-0.35
								s0.53-0.52,0.67-0.86c0.15-0.35,0.229-0.7,0.229-1.06v-0.3h-0.369c-1.92,0-2.881,0.47-2.881,1.42L731.62,262.97z
								 M737.3,258.45c-0.069-0.16-0.06-0.3,0-0.4c0.07-0.08,0.181-0.13,0.351-0.13h0.479c0.271,0,0.44,0.12,0.521,0.37l1.6,4.4
								c0.03,0.12,0.07,0.26,0.12,0.42c0.04,0.16,0.069,0.3,0.1,0.4l0.03,0.15h0.02c0.101-0.4,0.17-0.7,0.261-0.97l1.6-4.4
								c0.07-0.26,0.24-0.38,0.5-0.38h0.5c0.16,0,0.271,0.05,0.34,0.14c0.07,0.1,0.07,0.23,0,0.4l-2.3,6.18
								c-0.06,0.24-0.24,0.36-0.5,0.36h-0.8c-0.25,0-0.431-0.12-0.5-0.36l-2.33-6.2L737.3,258.45z M744.97,256.04v-0.46
								c0-0.3,0.15-0.46,0.47-0.46h0.48c0.3,0,0.46,0.15,0.46,0.46v0.46c0,0.14-0.04,0.26-0.12,0.34s-0.2,0.12-0.34,0.12h-0.48
								C745.12,256.5,744.97,256.35,744.97,256.04z M744.97,264.54v-6.16c0-0.3,0.17-0.46,0.48-0.46h0.43
								c0.32,0,0.47,0.15,0.47,0.46v6.16c0,0.3-0.149,0.46-0.47,0.46h-0.43c-0.3,0-0.47-0.16-0.47-0.46H744.97z M748.3,264.54v-6.16
								c0-0.3,0.15-0.46,0.47-0.46h0.4c0.3,0,0.46,0.15,0.46,0.46V259l-0.04,0.42c0.1-0.18,0.2-0.35,0.34-0.53
								c0.141-0.18,0.301-0.36,0.53-0.54c0.23-0.18,0.48-0.33,0.8-0.45c0.32-0.1,0.66-0.15,1.03-0.15c0.82,0,1.42,0.22,1.82,0.67
								c0.399,0.45,0.6,1.13,0.6,2.04v4.08c0,0.3-0.17,0.46-0.47,0.46h-0.43c-0.301,0-0.461-0.16-0.461-0.46v-3.76
								c0-0.28-0.02-0.5-0.05-0.7c-0.02-0.2-0.1-0.4-0.18-0.56c-0.1-0.18-0.229-0.3-0.4-0.4c-0.2-0.08-0.42-0.13-0.7-0.13
								c-0.67,0-1.239,0.24-1.68,0.74c-0.439,0.5-0.67,1.13-0.67,1.87v2.94c0,0.3-0.16,0.46-0.47,0.46h-0.43
								c-0.32,0-0.48-0.16-0.48-0.46H748.3z M756.15,261.27c0-1.03,0.279-1.88,0.83-2.54c0.55-0.66,1.33-0.98,2.319-0.98
								c0.33,0,0.63,0.04,0.9,0.12c0.27,0.08,0.5,0.18,0.649,0.3c0.15,0.1,0.28,0.23,0.4,0.35c0.1,0.1,0.17,0.2,0.2,0.3l0.07,0.12
								h0.02c0-0.06-0.02-0.14-0.02-0.23v-0.4c0-0.25,0.149-0.38,0.47-0.38h0.32c0.319,0,0.47,0.15,0.47,0.46v6.33
								c0,0.46-0.07,0.87-0.2,1.24c-0.14,0.37-0.32,0.67-0.54,0.92c-0.229,0.24-0.5,0.44-0.8,0.6c-0.3,0.18-0.62,0.3-0.95,0.37
								c-0.32,0.07-0.66,0.1-1.021,0.1c-0.779,0-1.459-0.12-2.06-0.38c-0.2-0.08-0.3-0.2-0.3-0.38c0-0.07,0.03-0.15,0.06-0.24
								l0.101-0.23c0.08-0.2,0.199-0.3,0.37-0.3c0.069,0,0.14,0.02,0.22,0.06c0.55,0.2,1.06,0.3,1.53,0.3c0.3,0,0.6-0.03,0.85-0.1
								c0.26-0.08,0.5-0.2,0.7-0.34c0.2-0.16,0.37-0.36,0.5-0.63c0.1-0.27,0.17-0.57,0.17-0.93v-0.6l0.04-0.46h-0.03
								c-0.43,0.82-1.13,1.22-2.1,1.22c-0.641,0-1.2-0.16-1.7-0.48c-0.5-0.32-0.851-0.75-1.101-1.3c-0.25-0.55-0.38-1.17-0.38-1.87
								L756.15,261.27z M757.52,261.22c0,0.77,0.2,1.38,0.551,1.83c0.369,0.46,0.869,0.7,1.5,0.7c0.26,0,0.5-0.05,0.699-0.13
								c0.23-0.1,0.431-0.22,0.601-0.4c0.2-0.18,0.33-0.43,0.43-0.76c0.101-0.33,0.15-0.7,0.15-1.14c0-1.6-0.66-2.4-1.97-2.4
								c-0.62,0-1.101,0.2-1.45,0.62c-0.341,0.4-0.5,0.97-0.5,1.68L757.52,261.22z M764.4,263.78l0.13-0.2
								c0.1-0.12,0.2-0.18,0.3-0.2s0.2,0.02,0.34,0.1c0.58,0.4,1.16,0.58,1.74,0.58c0.37,0,0.66-0.08,0.88-0.25
								c0.22-0.15,0.33-0.38,0.33-0.68c0-0.2-0.06-0.35-0.2-0.5c-0.12-0.13-0.3-0.25-0.5-0.35c-0.22-0.1-0.46-0.2-0.72-0.3
								s-0.521-0.2-0.78-0.3c-0.26-0.1-0.5-0.26-0.72-0.4c-0.22-0.17-0.4-0.37-0.53-0.62s-0.2-0.54-0.2-0.87
								c0-0.64,0.25-1.14,0.74-1.5c0.479-0.36,1.101-0.53,1.82-0.53c0.739,0,1.399,0.18,1.979,0.54c0.12,0.05,0.2,0.14,0.221,0.25
								c0.02,0.11,0,0.24-0.07,0.36l-0.13,0.22c-0.08,0.15-0.2,0.23-0.341,0.23c-0.08,0-0.18-0.03-0.279-0.08
								c-0.46-0.28-0.94-0.42-1.44-0.42c-0.36,0-0.64,0.08-0.86,0.23c-0.22,0.16-0.329,0.38-0.329,0.67c0,0.2,0.069,0.37,0.2,0.5
								c0.129,0.15,0.3,0.27,0.52,0.37c0.2,0.1,0.439,0.2,0.7,0.28c0.26,0.1,0.52,0.2,0.78,0.3c0.26,0.13,0.5,0.27,0.72,0.42
								c0.22,0.15,0.399,0.35,0.53,0.6c0.13,0.25,0.199,0.54,0.199,0.87c0,0.6-0.229,1.1-0.699,1.48c-0.471,0.38-1.101,0.6-1.86,0.6
								c-0.9,0-1.7-0.26-2.4-0.77c-0.12-0.08-0.2-0.2-0.2-0.3c0-0.1,0.04-0.2,0.12-0.32L764.4,263.78z"/>
						</g>
						<g enable-background="new    ">
							<path fill="#00181B" d="M620.7,281v-9.88h3.62c0.92,0,1.67,0.28,2.25,0.84s0.869,1.32,0.869,2.25c0,0.94-0.3,1.7-0.879,2.27
								c-0.58,0.58-1.33,0.87-2.24,0.87h-2.24V281H620.7z M622.08,276.14h2c0.6,0,1.08-0.17,1.4-0.5
								c0.359-0.36,0.529-0.83,0.529-1.43c0-0.58-0.16-1.04-0.5-1.38c-0.35-0.33-0.819-0.5-1.399-0.5h-2.021v3.82L622.08,276.14z
								 M628.43,277.46c0-1.1,0.33-2,1-2.7c0.66-0.67,1.5-1,2.521-1c0.96,0,1.7,0.3,2.26,0.92c0.55,0.63,0.82,1.42,0.82,2.4
								l-0.05,0.58h-5.16c0.04,0.74,0.3,1.32,0.75,1.72c0.479,0.4,1.04,0.62,1.699,0.62c0.351,0,0.7-0.08,1.07-0.22
								c0.32-0.12,0.57-0.26,0.771-0.4l0.239-0.2l0.561,0.98c-0.1,0.1-0.2,0.18-0.33,0.28c-0.18,0.13-0.5,0.28-0.939,0.45
								c-0.48,0.18-0.971,0.27-1.471,0.27c-1.1,0-2-0.35-2.7-1.06c-0.68-0.7-1.029-1.58-1.029-2.64H628.43z M629.85,276.63h3.801
								c-0.04-0.6-0.2-1.03-0.53-1.34c-0.32-0.3-0.72-0.46-1.2-0.46c-0.53,0-1,0.16-1.37,0.47
								C630.18,275.62,629.95,276.06,629.85,276.63L629.85,276.63z M636.7,281v-7.08h1.3v1.23l-0.03,0.53H638
								c0.17-0.54,0.45-0.98,0.85-1.33c0.4-0.35,0.851-0.52,1.4-0.52l0.34,0.03v1.34c-0.14-0.02-0.26-0.04-0.4-0.04
								c-0.439,0-0.84,0.15-1.199,0.45c-0.37,0.32-0.63,0.72-0.801,1.23c-0.1,0.38-0.159,0.8-0.159,1.27v2.9h-1.351L636.7,281z
								 M645.67,277.5v-6.38h1.38v6.38c0,0.75,0.22,1.34,0.67,1.76c0.45,0.42,1.061,0.63,1.82,0.63c0.78,0,1.399-0.22,1.85-0.64
								c0.44-0.43,0.67-1.02,0.67-1.8v-6.34h1.38v6.38c0,1.1-0.359,1.97-1.08,2.65c-0.72,0.68-1.659,1.02-2.819,1.02
								c-1.15,0-2.08-0.34-2.8-1.02c-0.721-0.68-1.08-1.56-1.08-2.65L645.67,277.5z M655.14,280.13l0.66-0.96
								c0.04,0.05,0.12,0.13,0.25,0.23c0.101,0.08,0.33,0.2,0.7,0.36c0.35,0.16,0.7,0.24,1.07,0.24c0.319,0,0.6-0.08,0.83-0.24
								c0.239-0.16,0.35-0.37,0.35-0.65c0-0.22-0.12-0.43-0.37-0.6c-0.25-0.18-0.55-0.33-0.92-0.47c-0.34-0.14-0.7-0.3-1.05-0.45
								c-0.36-0.17-0.66-0.4-0.9-0.7c-0.26-0.32-0.399-0.7-0.399-1.12c0-0.62,0.25-1.1,0.739-1.47c0.471-0.37,1.08-0.55,1.82-0.55
								c0.46,0,0.88,0.06,1.26,0.2c0.381,0.12,0.641,0.25,0.801,0.38l0.22,0.2l-0.54,1.02c-0.04-0.03-0.1-0.1-0.2-0.17
								c-0.101-0.07-0.3-0.17-0.6-0.28c-0.3-0.12-0.62-0.18-0.95-0.18c-0.32,0-0.6,0.08-0.82,0.22c-0.229,0.14-0.34,0.36-0.34,0.65
								c0,0.22,0.13,0.42,0.38,0.6c0.24,0.16,0.55,0.3,0.92,0.45c0.4,0.15,0.74,0.3,1.06,0.44c0.351,0.15,0.65,0.4,0.9,0.7
								c0.26,0.32,0.38,0.68,0.38,1.1c0,0.6-0.229,1.1-0.7,1.5c-0.47,0.38-1.1,0.57-1.859,0.57c-0.5,0-0.98-0.1-1.44-0.26
								c-0.439-0.16-0.75-0.33-0.95-0.52l-0.3-0.25V280.13z M661.5,277.46c0-1.1,0.32-2,1-2.7c0.65-0.67,1.5-1,2.52-1
								c0.961,0,1.7,0.3,2.25,0.92c0.541,0.63,0.801,1.42,0.801,2.4l-0.03,0.58h-5.17c0.04,0.74,0.3,1.32,0.75,1.72
								c0.479,0.4,1.04,0.62,1.7,0.62c0.35,0,0.699-0.08,1.06-0.22c0.32-0.12,0.58-0.26,0.78-0.4l0.25-0.2l0.57,0.98
								c-0.101,0.1-0.2,0.18-0.341,0.28c-0.17,0.13-0.5,0.28-0.93,0.45c-0.5,0.18-0.979,0.27-1.47,0.27c-1.1,0-2-0.35-2.7-1.06
								C661.84,279.4,661.5,278.52,661.5,277.46L661.5,277.46z M662.9,276.63h3.8c-0.021-0.6-0.2-1.03-0.5-1.34
								c-0.33-0.3-0.73-0.46-1.2-0.46c-0.54,0-1,0.16-1.38,0.47c-0.37,0.32-0.601,0.76-0.7,1.33H662.9z M669.75,281v-7.08h1.3v1.76
								c0.2-0.54,0.47-0.98,0.86-1.33c0.4-0.35,0.87-0.52,1.4-0.52l0.35,0.03v1.34c-0.12-0.02-0.25-0.04-0.4-0.04
								c-0.42,0-0.82,0.15-1.2,0.45c-0.359,0.32-0.62,0.72-0.77,1.23c-0.12,0.38-0.181,0.8-0.181,1.27v2.9h-1.35L669.75,281z
								 M678,271.12h1.42l1.75,7.25l0.2,1.05c0.06-0.36,0.13-0.7,0.229-1.05l1.92-7.25h1.23l1.92,7.25l0.22,1.05
								c0.04-0.35,0.101-0.7,0.2-1.05l1.83-7.25h1.42l-2.6,9.88h-1.601l-1.7-6.4l-0.3-1.4h-0.02c-0.08,0.47-0.181,0.93-0.3,1.4
								l-1.7,6.4h-1.62L678,271.12z M691.85,272.5v-1.38h1.37v1.38H691.85z M691.87,281v-7.08h1.35V281H691.87z M694.7,275.1V274
								h0.979v-2.03h1.301V274h1.72v1.1H697v3.16c0,0.26,0.03,0.5,0.1,0.7c0.101,0.22,0.181,0.37,0.28,0.47
								c0.101,0.1,0.24,0.2,0.38,0.27c0.12,0.06,0.25,0.1,0.4,0.12c0.1,0.02,0.2,0.03,0.34,0.03l0.33-0.03v1.2
								c-0.1,0.03-0.27,0.03-0.48,0.03c-0.22,0-0.439,0-0.64-0.04c-0.2,0-0.42-0.08-0.7-0.2c-0.26-0.1-0.479-0.25-0.67-0.44
								c-0.199-0.18-0.359-0.44-0.5-0.78c-0.12-0.32-0.199-0.7-0.199-1.17v-3.3h-0.921L694.7,275.1z M700.36,281v-9.88h1.35v3.63
								l-0.021,0.58h0.03c0.2-0.4,0.5-0.77,0.98-1.1c0.46-0.32,1-0.48,1.649-0.48c1.62,0,2.431,0.9,2.431,2.7V281h-1.351v-4.22
								c0-0.57-0.1-1-0.27-1.32c-0.2-0.3-0.55-0.47-1.07-0.47c-0.52,0-0.979,0.16-1.4,0.48c-0.42,0.32-0.699,0.75-0.84,1.26
								c-0.069,0.26-0.1,0.58-0.1,0.94V281h-1.36H700.36z M712.67,281v-9.88h3.46c0.851,0,1.55,0.22,2.08,0.67s0.8,1.05,0.8,1.84
								c0,0.47-0.1,0.9-0.33,1.27c-0.199,0.38-0.52,0.66-0.899,0.86v0.03c0.5,0.14,0.899,0.44,1.2,0.87
								c0.279,0.45,0.43,0.95,0.43,1.5c0,0.9-0.3,1.6-0.9,2.1c-0.6,0.48-1.37,0.73-2.3,0.73h-3.53L712.67,281z M714.05,275.27h2.07
								c0.44,0,0.8-0.14,1.06-0.42c0.26-0.27,0.4-0.63,0.4-1.08c0-0.43-0.13-0.78-0.4-1.05c-0.27-0.27-0.619-0.4-1.1-0.4h-2.03
								V275.27L714.05,275.27z M714.05,279.8h2.23c0.5,0,0.93-0.16,1.229-0.46c0.32-0.3,0.471-0.7,0.471-1.22
								c0-0.5-0.16-0.9-0.471-1.23c-0.31-0.33-0.729-0.48-1.24-0.48h-2.199v3.38L714.05,279.8z M721.17,279.07v-7.95h1.35v7.72
								c0,0.4,0.07,0.66,0.2,0.8c0.13,0.14,0.32,0.2,0.561,0.2h0.239v1.2c-0.13,0-0.279,0-0.449,0
								C721.8,281.04,721.17,280.39,721.17,279.07z M724.86,278.45v-4.53h1.35v4.2c0,0.6,0.1,1.03,0.3,1.32
								c0.17,0.3,0.53,0.45,1.05,0.45c0.7,0,1.24-0.27,1.66-0.78c0.431-0.53,0.65-1.16,0.65-1.9v-3.3h1.35V281h-1.3v-0.94l0.02-0.53
								h-0.029c-0.2,0.42-0.5,0.8-0.971,1.13c-0.47,0.34-1.02,0.5-1.649,0.5c-1.601,0-2.42-0.9-2.42-2.7L724.86,278.45z
								 M732.84,277.46c0-1.1,0.33-2,1-2.7c0.66-0.67,1.5-1,2.521-1c0.96,0,1.7,0.3,2.26,0.92c0.54,0.63,0.8,1.42,0.8,2.4
								l-0.04,0.58h-5.16c0.04,0.74,0.3,1.32,0.75,1.72c0.471,0.4,1.04,0.62,1.7,0.62c0.34,0,0.7-0.08,1.061-0.22
								c0.319-0.12,0.58-0.26,0.77-0.4l0.26-0.2l0.551,0.98c-0.08,0.1-0.2,0.18-0.32,0.28c-0.18,0.13-0.5,0.28-0.94,0.45
								c-0.479,0.18-0.97,0.27-1.46,0.27c-1.1,0-2-0.35-2.699-1.06c-0.7-0.7-1.041-1.58-1.041-2.64H732.84z M734.26,276.63h3.801
								c-0.03-0.6-0.2-1.03-0.521-1.34c-0.33-0.3-0.72-0.46-1.2-0.46c-0.54,0-1,0.16-1.37,0.47c-0.38,0.32-0.6,0.76-0.7,1.33H734.26
								z M740.6,279.88l0.801-1.05c0.039,0.04,0.08,0.08,0.1,0.1c0.1,0.08,0.2,0.17,0.35,0.27c0.2,0.13,0.36,0.24,0.54,0.33
								c0.17,0.1,0.4,0.18,0.7,0.25c0.26,0.08,0.53,0.1,0.8,0.1c0.5,0,0.9-0.12,1.23-0.38c0.319-0.25,0.5-0.6,0.5-1.07
								c0-0.3-0.101-0.54-0.28-0.76c-0.18-0.23-0.4-0.43-0.7-0.58c-0.3-0.2-0.62-0.34-0.92-0.47c-0.34-0.15-0.68-0.3-1.02-0.47
								c-0.33-0.18-0.641-0.36-0.9-0.57c-0.3-0.2-0.5-0.47-0.7-0.8c-0.17-0.32-0.26-0.7-0.26-1.1c0-0.77,0.3-1.42,0.9-1.96
								c0.6-0.52,1.359-0.8,2.279-0.8c0.561,0,1.061,0.1,1.5,0.26c0.471,0.17,0.801,0.34,1,0.5l0.28,0.24l-0.62,1.15
								c-0.04-0.06-0.14-0.14-0.3-0.25c-0.1-0.1-0.35-0.22-0.74-0.38c-0.38-0.16-0.75-0.24-1.12-0.24c-0.52,0-0.949,0.14-1.3,0.42
								c-0.35,0.28-0.5,0.62-0.5,1.03c0,0.37,0.17,0.7,0.5,0.95c0.33,0.26,0.73,0.5,1.2,0.67c0.4,0.16,0.88,0.37,1.4,0.62
								c0.47,0.23,0.869,0.55,1.199,0.96c0.301,0.42,0.48,0.92,0.48,1.5c0,0.8-0.3,1.46-0.85,2c-0.551,0.54-1.33,0.8-2.271,0.8
								c-0.399,0-0.76-0.05-1.14-0.14c-0.36-0.1-0.67-0.2-0.92-0.32c-0.23-0.12-0.45-0.25-0.66-0.38c-0.2-0.14-0.34-0.25-0.4-0.33
								l-0.15-0.12L740.6,279.88z M748.1,275.1V274h0.971v-2.03h1.319V274h1.7v1.1h-1.7v3.16c0,0.26,0.03,0.5,0.101,0.7
								c0.1,0.22,0.18,0.37,0.279,0.47c0.101,0.1,0.23,0.2,0.37,0.27c0.12,0.06,0.25,0.1,0.4,0.12c0.1,0.02,0.22,0.03,0.35,0.03
								l0.33-0.03v1.2c-0.12,0.03-0.28,0.03-0.479,0.03c-0.23,0-0.44,0-0.641-0.04c-0.199,0-0.43-0.08-0.699-0.2
								c-0.261-0.1-0.5-0.25-0.681-0.44c-0.2-0.18-0.35-0.44-0.5-0.78c-0.12-0.32-0.2-0.7-0.2-1.17v-3.3h-0.92V275.1z M753.18,279
								c0-1.62,1.42-2.43,4.271-2.43h0.3v-0.13c0-1.03-0.5-1.54-1.54-1.54c-0.3,0-0.63,0.05-0.97,0.17c-0.3,0.1-0.561,0.2-0.74,0.33
								l-0.27,0.18l-0.561-1c0.05-0.04,0.16-0.12,0.33-0.23c0.1-0.08,0.42-0.2,0.9-0.37c0.46-0.16,0.93-0.23,1.42-0.23
								c0.899,0,1.6,0.24,2.08,0.7c0.479,0.5,0.72,1.18,0.72,2.07V281h-1.24v-0.67l0.03-0.56h-0.02l-0.08,0.15
								c-0.041,0.07-0.12,0.18-0.24,0.33c-0.12,0.16-0.26,0.3-0.42,0.43c-0.16,0.12-0.381,0.23-0.65,0.33
								c-0.3,0.12-0.6,0.17-0.9,0.17c-0.659,0-1.229-0.2-1.699-0.57c-0.5-0.38-0.721-0.9-0.721-1.6V279z M754.561,278.94
								c0,0.3,0.119,0.57,0.35,0.8c0.24,0.23,0.56,0.34,1,0.34c0.52,0,0.979-0.24,1.34-0.7c0.35-0.48,0.53-1,0.53-1.56v-0.22h-0.351
								c-1.899,0-2.859,0.44-2.859,1.34H754.561z M761.14,281v-7.08h1.3v1.76c0.181-0.54,0.471-0.98,0.86-1.33
								c0.4-0.35,0.86-0.52,1.4-0.52l0.34,0.03v1.34c-0.12-0.02-0.25-0.04-0.4-0.04c-0.42,0-0.829,0.15-1.2,0.45
								c-0.359,0.32-0.619,0.72-0.779,1.23c-0.1,0.38-0.17,0.8-0.17,1.27v2.9h-1.36L761.14,281z"/>
						</g>
					</g>
				</g>
				
					<linearGradient id="Combined-Shape-Copy_3_" gradientUnits="userSpaceOnUse" x1="-161.6191" y1="387.8496" x2="-161.6191" y2="388.7476" gradientTransform="matrix(-1629 0 0 465.804 -262463 -180395.125)">
					<stop  offset="0" style="stop-color:#FFFFFF;stop-opacity:0.893"/>
					<stop  offset="1" style="stop-color:#FFFFFF;stop-opacity:0"/>
				</linearGradient>
				<path id="Combined-Shape-Copy" opacity="0.4" fill="url(#Combined-Shape-Copy_3_)" enable-background="new    " d="
					M1173.76,684.8c407.2-181.1,541.23-316.6,402.08-406.5c-208.72-134.83-403.75-7.54-520.67,64.94
					c-116.92,72.479-267.05,77.069-410.98,0C428.26,227.62,213.53,238.1,0,374.74V684.8H1173.76z"/>
				<path id="Combined-Shape-Copy_1_" fill="#71C8F1" enable-background="new    " d="M1173.76,684.8
					c407.2-181.1,541.23-316.6,402.08-406.5c-208.72-134.83-403.75-7.54-520.67,64.94c-116.92,72.479-267.05,77.069-410.98,0
					C428.26,227.62,213.53,238.1,0,374.74V684.8H1173.76z"/>
				<path id="Combined-Shape-Copy_2_" fill="none" stroke="#FFFFFF" stroke-width="3" stroke-linecap="round" d="M697.9,368.15
					c-17.95-7.07-35.881-15.36-53.7-24.9c-101.8-54.5-203.3-81-304.55-79.45"/>
				<path id="Triangle-3" fill="#FFFFFF" d="M706.9,373.88l-22.9-0.96L695.5,353l12.28,19.34c0.3,0.47,0.159,1.101-0.3,1.38
					c-0.181,0.101-0.381,0.17-0.601,0.16H706.9z"/>
				<g id="Oval-Copy-3">
					<g>
						<circle id="path-13_2_" cx="339.5" cy="263.5" r="9.5"/>
					</g>
					<circle id="path-13_1_" fill="#FFFFFF" cx="339.5" cy="263.5" r="9.5"/>
				</g>
				<g id="_x33_-month-marker_1_">
					<g id="Group-2">
						<g id="Combined-Shape_1_">
							<g>
								<path id="path-15_2_" d="M354.24,234L338,246l-16.24-12H214c-4.42,0-8-3.58-8-8v-74c0-4.42,3.58-8,8-8h239
									c4.42,0,8,3.58,8,8v74c0,4.42-3.58,8-8,8H354.24z"/>
							</g>
							<path id="path-15_1_" fill="#FFFFFF" d="M354.24,234L338,246l-16.24-12H214c-4.42,0-8-3.58-8-8v-74c0-4.42,3.58-8,8-8h239
								c4.42,0,8,3.58,8,8v74c0,4.42-3.58,8-8,8H354.24z"/>
						</g>
						<g enable-background="new    ">
							<path fill="#2D2C6F" d="M286.13,202.94c0-1.32,0.46-2.47,1.38-3.45c0.92-0.98,2.13-1.58,3.6-1.8v-1.65
								c0-0.6,0.3-0.9,0.88-0.9h0.2c0.57,0,0.86,0.27,0.86,0.8v1.72c1.46,0.08,2.8,0.54,3.98,1.37c0.42,0.28,0.5,0.68,0.24,1.22
								l-0.34,0.67c-0.3,0.5-0.7,0.6-1.24,0.25c-1.12-0.72-2.26-1.08-3.44-1.08c-1,0-1.83,0.27-2.48,0.8c-0.66,0.55-0.98,1.2-0.98,2
								c0,0.4,0.1,0.76,0.32,1.1c0.22,0.33,0.5,0.62,0.87,0.87c0.36,0.24,0.77,0.48,1.24,0.7c0.47,0.22,0.97,0.45,1.5,0.66
								c0.53,0.21,1.03,0.45,1.54,0.7c0.5,0.23,1,0.5,1.47,0.83c0.47,0.32,0.88,0.66,1.24,1.04c0.36,0.38,0.65,0.84,0.86,1.38
								c0.22,0.54,0.32,1.14,0.32,1.8c0,1.37-0.45,2.55-1.36,3.53c-0.9,1-2.16,1.58-3.72,1.76v1.62c0,0.6-0.3,0.9-0.851,0.9H292
								c-0.58,0-0.87-0.26-0.87-0.78v-1.74c-1.7-0.15-3.26-0.78-4.66-1.87c-0.47-0.37-0.5-0.78-0.13-1.24l0.44-0.62
								c0.33-0.44,0.75-0.5,1.27-0.16c1.3,1,2.7,1.48,4.14,1.48c0.93,0,1.72-0.25,2.37-0.75s0.97-1.18,0.97-2.05
								c0-0.42-0.101-0.8-0.32-1.16c-0.22-0.36-0.5-0.67-0.87-0.93c-0.36-0.26-0.77-0.5-1.24-0.75c-0.47-0.23-0.96-0.47-1.48-0.7
								c-0.52-0.23-1.04-0.46-1.55-0.7c-0.5-0.24-1-0.52-1.45-0.83s-0.88-0.67-1.24-1.03c-0.36-0.36-0.64-0.8-0.85-1.33
								c-0.22-0.52-0.32-1.1-0.32-1.7L286.13,202.94z M300.47,216.1v-0.54c0-0.6,0.3-0.88,0.9-0.88h3.3v-12.3l0.03-1.17h-0.05
								c-0.17,0.3-0.45,0.64-0.84,1.03l-1.2,1.2c-0.45,0.4-0.87,0.4-1.25-0.04l-0.38-0.4c-0.42-0.4-0.42-0.83,0-1.25l3.46-3.38
								c0.3-0.3,0.68-0.43,1.08-0.43h0.9c0.58,0,0.87,0.3,0.87,0.9v15.84h3.3c0.6,0,0.88,0.3,0.88,0.88v0.54c0,0.6-0.3,0.9-0.9,0.9
								h-9.18c-0.6,0-0.899-0.3-0.899-0.9H300.47z M313.4,208.4c0-0.85,0.07-1.7,0.22-2.54c0.15-0.84,0.38-1.67,0.7-2.48
								c0.32-0.81,0.68-1.56,1.16-2.25s1.03-1.3,1.65-1.83c0.6-0.52,1.33-0.93,2.16-1.23c0.82-0.3,1.7-0.45,2.66-0.45
								c1.06,0,2,0.15,2.85,0.45c0.57,0.2,0.74,0.57,0.521,1.14l-0.25,0.7c-0.101,0.28-0.23,0.46-0.4,0.54
								c-0.2,0.08-0.4,0.08-0.65,0c-0.7-0.24-1.35-0.35-1.96-0.35c-0.85,0-1.63,0.17-2.33,0.54c-0.7,0.37-1.3,0.86-1.75,1.5
								c-0.47,0.6-0.84,1.3-1.12,2.04c-0.28,0.75-0.48,1.55-0.58,2.4h0.05c0.4-0.57,1-1.03,1.78-1.4c0.8-0.34,1.67-0.52,2.64-0.52
								c1.73,0,3.14,0.58,4.23,1.75c1.1,1.18,1.63,2.64,1.63,4.4c0,1.9-0.57,3.45-1.73,4.68c-1.15,1.23-2.62,1.85-4.4,1.85
								c-2.05,0-3.74-0.83-5.07-2.48c-1.34-1.65-2-3.8-2-6.46H313.4z M316.15,209.7c0,0.76,0.17,1.52,0.53,2.3
								c0.36,0.8,0.88,1.47,1.561,2.03c0.68,0.55,1.42,0.83,2.229,0.83c1.061,0,1.9-0.36,2.54-1.1c0.64-0.72,0.95-1.67,0.95-2.84
								s-0.35-2.14-1.05-2.88c-0.7-0.74-1.7-1.1-2.95-1.1c-1.06,0-1.95,0.26-2.7,0.8c-0.75,0.54-1.1,1.2-1.1,1.97L316.15,209.7z
								 M328.55,219.35l1.4-4.43c0.15-0.5,0.479-0.75,1-0.75h0.85c0.33,0,0.56,0.1,0.7,0.3c0.13,0.18,0.13,0.43,0,0.72l-1.84,4.48
								c-0.17,0.45-0.52,0.67-1.05,0.67h-0.28c-0.33,0-0.56-0.1-0.7-0.27c-0.12-0.18-0.15-0.43-0.07-0.73L328.55,219.35z
								 M335.92,207.45c0-1.14,0.07-2.18,0.2-3.13c0.15-0.96,0.4-1.86,0.72-2.7c0.33-0.84,0.75-1.55,1.26-2.13
								c0.5-0.6,1.15-1.04,1.92-1.38c0.77-0.34,1.66-0.5,2.65-0.5c1,0,1.88,0.17,2.66,0.5c0.78,0.34,1.42,0.8,1.93,1.37
								c0.5,0.57,0.93,1.28,1.25,2.12c0.32,0.84,0.57,1.74,0.7,2.7c0.15,0.95,0.22,2,0.22,3.13c0,1.14-0.07,2.2-0.2,3.15
								c-0.15,0.95-0.38,1.86-0.7,2.7c-0.33,0.84-0.75,1.56-1.26,2.14c-0.5,0.58-1.15,1.04-1.93,1.38c-0.78,0.34-1.67,0.5-2.66,0.5
								c-1,0-1.87-0.16-2.65-0.5c-0.78-0.34-1.4-0.8-1.92-1.38s-0.93-1.3-1.26-2.14c-0.33-0.84-0.57-1.75-0.7-2.7
								c-0.15-0.96-0.22-2-0.22-3.15L335.92,207.45z M338.68,207.45c0,1.1,0.06,2.07,0.2,2.92c0.12,0.85,0.33,1.63,0.62,2.33
								c0.3,0.7,0.7,1.23,1.24,1.6c0.53,0.38,1.18,0.56,1.93,0.56c0.76,0,1.4-0.18,1.94-0.56c0.54-0.38,0.96-0.9,1.25-1.6
								c0.29-0.7,0.5-1.48,0.63-2.33c0.12-0.85,0.2-1.82,0.2-2.92c0-1.1-0.08-2.07-0.2-2.9c-0.13-0.86-0.34-1.62-0.63-2.32
								c-0.29-0.7-0.7-1.22-1.24-1.6s-1.17-0.54-1.93-0.54c-0.6,0-1.14,0.1-1.6,0.36c-0.47,0.25-0.85,0.6-1.15,1.02
								c-0.3,0.43-0.55,0.97-0.73,1.6c-0.2,0.64-0.34,1.3-0.4,2.02c-0.1,0.7-0.12,1.5-0.12,2.35L338.68,207.45z M352.3,204.07
								c0-1.88,0.57-3.43,1.72-4.64c1.16-1.2,2.62-1.8,4.38-1.8c1,0,1.95,0.2,2.83,0.64c0.88,0.43,1.63,1.02,2.26,1.8
								c0.62,0.75,1.12,1.7,1.479,2.8c0.36,1.12,0.54,2.33,0.54,3.65c0,1.03-0.1,2.04-0.32,3.05c-0.2,1-0.54,1.97-1,2.9
								c-0.46,0.95-1.02,1.78-1.68,2.5c-0.66,0.72-1.46,1.28-2.42,1.7c-0.96,0.44-2,0.66-3.15,0.66c-1.1,0-2.05-0.16-2.86-0.5
								c-0.55-0.15-0.72-0.52-0.5-1.1l0.22-0.7c0.1-0.28,0.24-0.45,0.42-0.52c0.18-0.07,0.4-0.06,0.65,0.02
								c0.84,0.23,1.5,0.34,1.93,0.34c0.7,0,1.33-0.12,1.93-0.36c0.6-0.24,1.1-0.58,1.54-1c0.44-0.42,0.8-0.9,1.14-1.46
								c0.33-0.56,0.6-1.15,0.78-1.77c0.18-0.6,0.32-1.25,0.4-1.9h-0.06c-0.4,0.55-1,1-1.8,1.34c-0.82,0.35-1.7,0.521-2.62,0.521
								c-1.7,0-3.101-0.58-4.2-1.75c-1.1-1.17-1.64-2.64-1.64-4.4L352.3,204.07z M354.94,204.02c0,1.18,0.36,2.14,1.06,2.88
								c0.7,0.74,1.7,1.1,2.95,1.1c1.05,0,1.95-0.27,2.7-0.82c0.75-0.55,1.1-1.2,1.1-1.95c0-0.55-0.1-1.13-0.3-1.73
								c-0.23-0.6-0.52-1.15-0.9-1.66c-0.36-0.5-0.82-0.93-1.37-1.26c-0.56-0.33-1.14-0.5-1.75-0.5c-1.06,0-1.9,0.37-2.54,1.1
								s-0.96,1.67-0.96,2.84H354.94z M368.68,207.45c0-1.14,0.07-2.18,0.2-3.13c0.15-0.96,0.4-1.86,0.72-2.7
								c0.33-0.84,0.75-1.55,1.26-2.13c0.5-0.6,1.15-1.04,1.92-1.38c0.77-0.34,1.66-0.5,2.65-0.5c1,0,1.88,0.17,2.66,0.5
								c0.77,0.34,1.4,0.8,1.92,1.37c0.5,0.57,0.93,1.28,1.25,2.12c0.32,0.84,0.561,1.74,0.7,2.7c0.14,0.95,0.2,2,0.2,3.13
								c0,1.14-0.06,2.2-0.2,3.15c-0.14,0.95-0.37,1.86-0.7,2.7c-0.32,0.84-0.74,1.56-1.25,2.14c-0.5,0.58-1.149,1.04-1.93,1.38
								c-0.8,0.34-1.67,0.5-2.67,0.5s-1.87-0.16-2.65-0.5c-0.78-0.34-1.399-0.8-1.92-1.38c-0.52-0.58-0.93-1.3-1.26-2.14
								c-0.33-0.84-0.57-1.75-0.7-2.7c-0.15-0.96-0.22-2-0.22-3.15L368.68,207.45z M371.44,207.45c0,1.1,0.06,2.07,0.2,2.92
								c0.12,0.85,0.33,1.63,0.62,2.33c0.3,0.7,0.7,1.23,1.24,1.6c0.53,0.38,1.18,0.56,1.93,0.56c0.76,0,1.4-0.18,1.94-0.56
								c0.54-0.38,0.95-0.9,1.24-1.6c0.29-0.7,0.5-1.48,0.64-2.33c0.12-0.85,0.2-1.82,0.2-2.92c0-1.1-0.08-2.07-0.2-2.9
								c-0.13-0.86-0.34-1.62-0.63-2.32s-0.7-1.22-1.23-1.6c-0.53-0.38-1.18-0.54-1.94-0.54c-0.6,0-1.14,0.1-1.6,0.36
								c-0.47,0.25-0.85,0.6-1.15,1.02c-0.3,0.43-0.55,0.97-0.73,1.6c-0.2,0.64-0.33,1.3-0.4,2.02c-0.07,0.7-0.1,1.5-0.1,2.35
								L371.44,207.45z"/>
						</g>
					</g>
					<g enable-background="new    ">
						<path fill="#00181B" d="M244.73,168l3.56-9.88h1.45l3.55,9.88h-1.44l-1-2.84h-3.72l-0.98,2.84h-1.43H244.73z M247.5,164h3
							l-1.1-3.12l-0.37-1.4H249c-0.15,0.6-0.28,1.08-0.4,1.4l-1.1,3.13V164z M253.5,160.92h1.45l1.72,4.78
							c0.06,0.2,0.1,0.33,0.12,0.42c0,0.1,0.04,0.25,0.08,0.4l0.03,0.15h0.04l0.03-0.15l0.1-0.4c0.04-0.15,0.08-0.3,0.12-0.42
							l1.7-4.78h1.44l-2.62,7.08h-1.57L253.5,160.92z M261.04,164.3c0-1.06,0.28-1.9,0.83-2.56c0.55-0.66,1.3-1,2.27-1
							c0.3,0,0.6,0.04,0.88,0.1c0.27,0.08,0.48,0.17,0.64,0.28c0.18,0.12,0.3,0.22,0.4,0.3c0.13,0.12,0.2,0.2,0.23,0.28l0.06,0.1
							h0.03c-0.02-0.1-0.03-0.17-0.03-0.23v-0.65h1.3v6.8c0,0.54-0.1,1.03-0.3,1.47c-0.2,0.42-0.48,0.76-0.83,1
							c-0.33,0.25-0.7,0.43-1.12,0.55c-0.4,0.13-0.84,0.2-1.3,0.2c-0.85,0-1.66-0.2-2.43-0.6l0.44-1.06
							c0.6,0.3,1.24,0.46,1.939,0.46c0.67,0,1.2-0.16,1.62-0.48c0.4-0.32,0.62-0.83,0.62-1.5v-0.97h-0.02
							c-0.43,0.75-1.13,1.12-2.1,1.12c-0.95,0-1.72-0.35-2.3-1.03c-0.57-0.7-0.86-1.56-0.86-2.6L261.04,164.3z M262.42,164.26
							c0,0.75,0.2,1.35,0.55,1.8c0.38,0.45,0.88,0.68,1.5,0.68c0.55,0,1-0.2,1.351-0.57c0.35-0.4,0.52-1,0.52-1.87
							c0-1.58-0.66-2.38-2-2.38c-0.6,0-1.07,0.2-1.4,0.62C262.59,162.96,262.42,163.54,262.42,164.26z M269.8,168v-1.4h1.43v1.4
							H269.8z M276,168l3.56-9.88H281l3.57,9.88h-1.44l-1-2.84h-3.72l-0.97,2.84H276z M278.77,164h3l-1.1-3.12l-0.37-1.4h-0.03
							c-0.16,0.6-0.3,1.08-0.4,1.4l-1.1,3.13V164z M285.75,168v-7.08h1.3v0.93l-0.02,0.52h0.03c0.18-0.4,0.5-0.77,0.95-1.1
							c0.45-0.33,1.03-0.52,1.72-0.52c1.62,0,2.43,0.9,2.43,2.7V168h-1.35v-4.22c0-0.57-0.1-1-0.28-1.32
							c-0.18-0.32-0.55-0.47-1.07-0.47c-0.53,0-1,0.15-1.4,0.479c-0.4,0.33-0.68,0.74-0.84,1.25c-0.06,0.26-0.1,0.58-0.1,0.95V168
							h-1.35H285.75z M294.18,168v-7.08h1.3v1.45c0.2-0.4,0.5-0.77,0.96-1.1s1.02-0.52,1.7-0.52c1.63,0,2.45,0.9,2.45,2.7V168h-1.37
							v-4.22c0-0.57-0.1-1-0.28-1.32c-0.18-0.32-0.54-0.47-1.06-0.47c-0.54,0-1,0.15-1.42,0.479c-0.42,0.33-0.68,0.74-0.83,1.25
							c-0.08,0.26-0.12,0.58-0.12,0.95V168h-1.35H294.18z M302.5,165.45v-4.53h1.37v4.2c0,0.6,0.1,1.03,0.27,1.32
							c0.18,0.3,0.54,0.45,1.06,0.45c0.7,0,1.25-0.27,1.67-0.78c0.42-0.53,0.63-1.16,0.63-1.9v-3.3h1.35V168h-1.3v-0.94l0.021-0.53
							h-0.03c-0.17,0.42-0.5,0.8-0.96,1.13c-0.47,0.34-1.02,0.5-1.64,0.5c-1.62,0-2.43-0.9-2.43-2.7L302.5,165.45z M310.4,166
							c0-1.62,1.43-2.43,4.28-2.43h0.3v-0.13c0-1.03-0.5-1.54-1.54-1.54c-0.3,0-0.63,0.05-0.98,0.17c-0.3,0.1-0.55,0.2-0.74,0.33
							l-0.25,0.18l-0.57-1c0.05-0.04,0.16-0.12,0.33-0.23c0.12-0.08,0.42-0.2,0.9-0.37c0.46-0.16,0.93-0.23,1.42-0.23
							c0.9,0,1.6,0.24,2.08,0.7s0.73,1.18,0.73,2.07V168h-1.25v-0.67l0.04-0.56h-0.03l-0.07,0.15c-0.04,0.07-0.1,0.18-0.23,0.33
							c-0.13,0.16-0.27,0.3-0.43,0.43c-0.16,0.12-0.37,0.23-0.649,0.33c-0.28,0.12-0.58,0.17-0.9,0.17c-0.65,0-1.22-0.2-1.7-0.57
							c-0.47-0.38-0.7-0.9-0.7-1.6L310.4,166z M311.8,165.94c0,0.3,0.1,0.57,0.34,0.8c0.23,0.229,0.56,0.34,0.98,0.34
							c0.54,0,1-0.24,1.35-0.7c0.36-0.48,0.53-1,0.53-1.56v-0.22h-0.34c-1.9,0-2.87,0.44-2.87,1.34H311.8z M318.28,166.07v-7.95
							h1.36v7.72c0,0.4,0.06,0.66,0.2,0.8c0.14,0.14,0.32,0.2,0.56,0.2h0.23v1.2c-0.12,0-0.27,0-0.45,0
							C318.92,168.04,318.28,167.39,318.28,166.07z M325.65,168l0.8-9.88h1.45l2.27,5.34l0.5,1.33c0.2-0.57,0.37-1,0.5-1.34
							l2.27-5.34h1.46l0.8,9.88h-1.38l-0.48-6.23l-0.02-1.45h-0.03c-0.23,0.65-0.4,1.13-0.54,1.45l-1.97,4.45h-1.24l-1.97-4.45
							l-0.54-1.479h-0.03c0,0.14,0,0.3,0,0.43c0,0.4,0,0.76-0.02,1.04l-0.47,6.23h-1.38L325.65,168z M337.3,164.46
							c0-1.1,0.33-2,1-2.7c0.66-0.67,1.5-1,2.53-1c0.96,0,1.7,0.3,2.25,0.92c0.55,0.62,0.8,1.42,0.8,2.4l-0.04,0.58h-5.16
							c0.04,0.74,0.3,1.32,0.75,1.72c0.47,0.4,1.04,0.62,1.7,0.62c0.35,0,0.7-0.08,1.06-0.22c0.3-0.12,0.57-0.26,0.77-0.4l0.25-0.2
							l0.56,0.98c-0.1,0.1-0.2,0.18-0.34,0.28c-0.18,0.13-0.5,0.28-0.93,0.45c-0.48,0.18-0.97,0.27-1.46,0.27
							c-1.1,0-2-0.35-2.7-1.06C337.64,166.4,337.3,165.52,337.3,164.46L337.3,164.46z M338.72,163.63h3.8
							c-0.03-0.6-0.2-1.03-0.52-1.34c-0.32-0.3-0.72-0.46-1.2-0.46c-0.54,0-1,0.16-1.37,0.47c-0.38,0.32-0.6,0.76-0.7,1.33H338.72z
							 M345.1,164.46c0-1.12,0.3-2.02,0.9-2.7c0.58-0.67,1.35-1,2.3-1c0.3,0,0.58,0.03,0.85,0.1c0.26,0.08,0.47,0.17,0.63,0.28
							c0.1,0.08,0.25,0.2,0.399,0.34c0.101,0.1,0.2,0.2,0.25,0.28l0.061,0.1h0.02c-0.02-0.1-0.03-0.27-0.03-0.47v-3.28h1.34V168
							h-1.28v-1.15h-0.02c0,0,0,0.03-0.03,0.06c-0.03,0.03-0.03,0.07-0.04,0.1c-0.04,0.05-0.1,0.16-0.23,0.3
							c-0.1,0.15-0.26,0.28-0.439,0.4c-0.17,0.13-0.4,0.23-0.67,0.33c-0.3,0.1-0.6,0.14-0.92,0.14c-0.94,0-1.7-0.34-2.26-1.02
							c-0.56-0.68-0.85-1.58-0.85-2.7H345.1z M346.48,164.46c0,0.76,0.18,1.37,0.55,1.84c0.37,0.47,0.85,0.7,1.45,0.7
							c0.58,0,1.07-0.22,1.46-0.65s0.6-1.06,0.6-1.9c0-0.68-0.2-1.27-0.54-1.78c-0.34-0.51-0.84-0.75-1.48-0.75
							c-0.58,0-1.07,0.23-1.46,0.68C346.66,163.06,346.48,163.67,346.48,164.46z M353.95,159.5v-1.38h1.37v1.38H353.95z M353.97,168
							v-7.08h1.351V168H353.97z M356.94,164.46c0-1.05,0.36-1.93,1.07-2.65c0.72-0.7,1.63-1.05,2.73-1.05c0.5,0,1,0.08,1.45,0.26
							c0.44,0.18,0.75,0.35,0.94,0.53l0.27,0.26l-0.65,0.94c-0.06-0.06-0.14-0.13-0.25-0.23c-0.1-0.08-0.33-0.2-0.67-0.35
							s-0.7-0.23-1.05-0.23c-0.7,0-1.3,0.24-1.76,0.72s-0.7,1.08-0.7,1.8c0,0.73,0.24,1.34,0.7,1.82c0.48,0.5,1.08,0.74,1.8,0.74
							c0.399,0,0.77-0.08,1.14-0.24c0.35-0.16,0.62-0.32,0.8-0.48l0.25-0.24l0.561,1l-0.12,0.1c-0.06,0.07-0.18,0.16-0.35,0.3
							c-0.2,0.12-0.38,0.24-0.58,0.33c-0.22,0.1-0.5,0.2-0.8,0.27c-0.33,0.1-0.66,0.13-1,0.13c-1.1,0-2-0.35-2.72-1.05
							c-0.7-0.7-1.06-1.6-1.06-2.66V164.46z M364.53,166c0-1.62,1.42-2.43,4.27-2.43h0.3v-0.13c0-1.03-0.5-1.54-1.54-1.54
							c-0.3,0-0.63,0.05-0.98,0.17c-0.3,0.1-0.55,0.2-0.74,0.33l-0.25,0.18l-0.58-1c0.05-0.04,0.16-0.12,0.33-0.23
							c0.12-0.08,0.42-0.2,0.9-0.37c0.46-0.16,0.93-0.23,1.42-0.23c0.9,0,1.6,0.24,2.08,0.7c0.479,0.46,0.729,1.18,0.729,2.07V168
							h-1.25v-0.67l0.03-0.56h-0.03l-0.08,0.15c-0.04,0.07-0.1,0.18-0.23,0.33c-0.13,0.16-0.27,0.3-0.43,0.43
							c-0.17,0.12-0.38,0.23-0.66,0.33c-0.28,0.12-0.58,0.17-0.9,0.17c-0.65,0-1.22-0.2-1.7-0.57c-0.47-0.38-0.7-0.9-0.7-1.6
							L364.53,166z M365.91,165.94c0,0.3,0.13,0.57,0.36,0.8c0.23,0.229,0.56,0.34,0.98,0.34c0.54,0,1-0.24,1.35-0.7
							c0.35-0.48,0.52-1,0.52-1.56v-0.22h-0.34C366.88,164.6,365.91,165.04,365.91,165.94z M372.4,166.07v-7.95h1.36v7.72
							c0,0.4,0.06,0.66,0.2,0.8s0.32,0.2,0.56,0.2h0.23v1.2c-0.12,0-0.27,0-0.45,0C373.04,168.04,372.4,167.39,372.4,166.07z
							 M379.4,163c0-1.44,0.48-2.64,1.43-3.6s2.16-1.45,3.6-1.45c0.45,0,0.88,0.04,1.28,0.13c0.4,0.1,0.75,0.2,1.03,0.32
							c0.26,0.12,0.5,0.25,0.7,0.38c0.2,0.1,0.34,0.229,0.45,0.33l0.14,0.14l-0.68,1.04c-0.07-0.08-0.2-0.18-0.37-0.3
							c-0.17-0.13-0.5-0.3-0.98-0.48c-0.52-0.2-1.02-0.3-1.52-0.3c-1.08,0-1.96,0.36-2.64,1.08c-0.67,0.73-1,1.63-1,2.7
							c0,1.08,0.33,2,1.02,2.77c0.68,0.76,1.56,1.14,2.64,1.14c0.54,0,1.07-0.1,1.58-0.33c0.5-0.2,0.88-0.42,1.12-0.64l0.35-0.32
							l0.74,1c-0.03,0.03-0.1,0.1-0.17,0.18c-0.07,0.06-0.23,0.2-0.47,0.37c-0.26,0.18-0.52,0.34-0.8,0.47
							c-0.28,0.15-0.63,0.27-1.06,0.38c-0.44,0.1-0.9,0.17-1.34,0.17c-1.47,0-2.68-0.5-3.63-1.5c-0.95-1-1.43-2.2-1.43-3.67
							L379.4,163z M389.38,164.45c0-1.07,0.37-1.95,1.1-2.65c0.74-0.7,1.65-1.05,2.72-1.05c1.06,0,1.97,0.35,2.7,1.05
							c0.75,0.7,1.1,1.58,1.1,2.65c0,1.06-0.36,1.94-1.1,2.65c-0.74,0.71-1.64,1.07-2.7,1.07c-1.07,0-1.97-0.35-2.7-1.07
							C389.77,166.38,389.38,165.5,389.38,164.45z M390.76,164.45c0,0.73,0.24,1.34,0.7,1.8c0.5,0.5,1.07,0.75,1.74,0.75
							c0.68,0,1.25-0.25,1.73-0.73c0.47-0.47,0.7-1.08,0.7-1.82c0-0.73-0.23-1.34-0.7-1.8c-0.48-0.5-1.05-0.73-1.73-0.73
							c-0.67,0-1.25,0.24-1.73,0.72c-0.47,0.47-0.7,1.08-0.7,1.8L390.76,164.45z M398.05,167.13l0.66-0.96
							c0.05,0.05,0.13,0.13,0.26,0.23c0.101,0.08,0.33,0.2,0.7,0.36c0.35,0.16,0.7,0.24,1.08,0.24c0.3,0,0.6-0.08,0.83-0.24
							c0.23-0.16,0.35-0.37,0.35-0.65c0-0.22-0.13-0.43-0.38-0.6c-0.24-0.18-0.55-0.33-0.9-0.47c-0.37-0.14-0.73-0.3-1.08-0.45
							c-0.351-0.15-0.66-0.4-0.9-0.7c-0.26-0.32-0.4-0.7-0.4-1.12c0-0.62,0.25-1.1,0.74-1.47c0.48-0.37,1.1-0.55,1.83-0.55
							c0.46,0,0.88,0.06,1.26,0.2c0.37,0.12,0.63,0.25,0.8,0.38l0.2,0.2l-0.53,1.02c-0.04-0.03-0.101-0.1-0.2-0.17
							c-0.1-0.07-0.3-0.17-0.6-0.28c-0.3-0.12-0.62-0.18-0.95-0.18c-0.33,0-0.6,0.08-0.83,0.22c-0.24,0.14-0.35,0.36-0.35,0.65
							c0,0.22,0.13,0.42,0.38,0.6c0.24,0.16,0.55,0.3,0.92,0.45c0.4,0.15,0.74,0.3,1.06,0.44c0.36,0.15,0.66,0.4,0.9,0.7
							c0.27,0.32,0.4,0.68,0.4,1.1c0,0.6-0.24,1.1-0.7,1.5c-0.48,0.38-1.1,0.57-1.86,0.57c-0.5,0-1-0.1-1.45-0.26
							c-0.45-0.16-0.76-0.33-0.96-0.52l-0.3-0.25L398.05,167.13z M404.26,162.1V161h0.97v-2.03h1.3V161h1.72v1.1h-1.7v3.16
							c0,0.26,0.03,0.5,0.1,0.7c0.1,0.22,0.18,0.37,0.28,0.47c0.101,0.1,0.24,0.2,0.38,0.27c0.13,0.06,0.26,0.1,0.4,0.12
							c0.1,0.02,0.22,0.03,0.35,0.03l0.33-0.03v1.2c-0.1,0.03-0.27,0.03-0.48,0.03c-0.22,0-0.43,0-0.64-0.04
							c-0.2,0-0.43-0.08-0.7-0.2c-0.27-0.1-0.5-0.25-0.68-0.44c-0.2-0.18-0.359-0.44-0.5-0.78c-0.12-0.32-0.2-0.7-0.2-1.17v-3.3
							h-0.92L404.26,162.1z M412.98,164.45c0-1.07,0.37-1.95,1.1-2.65c0.75-0.7,1.65-1.05,2.72-1.05c1.07,0,1.97,0.35,2.7,1.05
							c0.75,0.7,1.12,1.58,1.12,2.65c0,1.06-0.37,1.94-1.1,2.65s-1.66,1.07-2.72,1.07c-1.06,0-1.97-0.35-2.7-1.07
							C413.37,166.38,412.98,165.5,412.98,164.45z M414.36,164.45c0,0.73,0.24,1.34,0.72,1.8c0.47,0.5,1.05,0.75,1.72,0.75
							c0.68,0,1.26-0.25,1.73-0.73c0.47-0.47,0.7-1.08,0.7-1.82c0-0.73-0.23-1.34-0.7-1.8c-0.47-0.5-1.05-0.73-1.73-0.73
							c-0.67,0-1.25,0.24-1.72,0.72c-0.48,0.47-0.72,1.08-0.72,1.8V164.45z M421.73,162.1V161h0.88v-0.32c0-0.45,0.07-0.84,0.2-1.17
							c0.13-0.33,0.3-0.58,0.48-0.76c0.17-0.17,0.4-0.3,0.68-0.43c0.25-0.1,0.48-0.17,0.7-0.2c0.18-0.04,0.4-0.05,0.6-0.05
							l0.53,0.04v1.15c-0.1-0.02-0.2-0.03-0.36-0.03c-0.17,0-0.32,0.02-0.45,0.05c-0.16,0.04-0.32,0.1-0.5,0.2
							c-0.18,0.1-0.28,0.24-0.4,0.45c-0.1,0.2-0.14,0.47-0.14,0.8v0.3h1.67v1.1h-1.67V168h-1.35v-5.9H421.73z"/>
					</g>
					<g enable-background="new    ">
						<path fill="#00181B" d="M244.66,183v-9.88h3.62c0.92,0,1.67,0.28,2.25,0.84c0.58,0.56,0.87,1.32,0.87,2.25
							c0,0.94-0.3,1.7-0.88,2.27c-0.58,0.58-1.33,0.87-2.24,0.87h-2.23V183h-1.4H244.66z M246.06,178.14h2c0.6,0,1.06-0.17,1.4-0.5
							c0.34-0.36,0.5-0.83,0.5-1.43c0-0.58-0.16-1.04-0.5-1.38c-0.35-0.33-0.8-0.5-1.4-0.5h-2v3.82V178.14z M252.4,179.46
							c0-1.1,0.32-2,0.98-2.7c0.67-0.67,1.5-1,2.53-1c0.97,0,1.72,0.3,2.27,0.92c0.55,0.62,0.8,1.42,0.8,2.4l-0.04,0.58h-5.16
							c0.04,0.74,0.3,1.32,0.75,1.72c0.47,0.4,1.04,0.62,1.7,0.62c0.34,0,0.7-0.08,1.06-0.22c0.32-0.12,0.58-0.26,0.77-0.4l0.26-0.2
							l0.56,0.98c-0.1,0.1-0.2,0.18-0.33,0.28c-0.18,0.13-0.5,0.28-0.94,0.45c-0.5,0.18-0.98,0.27-1.47,0.27c-1.1,0-2-0.35-2.7-1.06
							C252.74,181.4,252.4,180.52,252.4,179.46z M253.8,178.63h3.8c-0.02-0.6-0.2-1.03-0.52-1.34c-0.3-0.3-0.7-0.46-1.2-0.46
							c-0.53,0-0.98,0.16-1.36,0.47c-0.38,0.32-0.6,0.76-0.7,1.33H253.8z M260.65,183v-7.08h1.3v1.23l-0.021,0.53h0.03
							c0.17-0.54,0.46-0.98,0.85-1.33s0.86-0.52,1.4-0.52l0.35,0.03v1.34c-0.12-0.02-0.25-0.04-0.4-0.04c-0.43,0-0.83,0.15-1.2,0.45
							c-0.36,0.32-0.62,0.72-0.78,1.23c-0.1,0.38-0.17,0.8-0.17,1.27v2.9h-1.35L260.65,183z M265.32,182.13l0.66-0.96
							c0.04,0.05,0.12,0.13,0.25,0.23c0.1,0.08,0.33,0.2,0.7,0.36c0.35,0.16,0.7,0.24,1.08,0.24c0.32,0,0.6-0.08,0.84-0.24
							c0.23-0.16,0.35-0.37,0.35-0.65c0-0.22-0.14-0.43-0.4-0.6c-0.229-0.18-0.54-0.33-0.9-0.47s-0.72-0.3-1.07-0.45
							c-0.35-0.15-0.66-0.4-0.9-0.7c-0.26-0.32-0.4-0.7-0.4-1.12c0-0.62,0.25-1.1,0.74-1.47c0.48-0.37,1.1-0.55,1.83-0.55
							c0.46,0,0.88,0.06,1.26,0.2c0.38,0.12,0.64,0.25,0.8,0.38l0.22,0.2l-0.54,1.02c-0.04-0.03-0.1-0.1-0.2-0.17
							c-0.1-0.07-0.3-0.17-0.6-0.28c-0.3-0.12-0.62-0.18-0.95-0.18c-0.34,0-0.6,0.08-0.84,0.22c-0.23,0.14-0.34,0.36-0.34,0.65
							c0,0.22,0.13,0.42,0.38,0.6c0.24,0.16,0.55,0.3,0.92,0.45c0.4,0.15,0.74,0.3,1.06,0.44c0.35,0.15,0.65,0.4,0.9,0.7
							c0.26,0.32,0.4,0.68,0.4,1.1c0,0.6-0.25,1.1-0.72,1.5c-0.47,0.38-1.1,0.57-1.85,0.57c-0.5,0-0.98-0.1-1.44-0.26
							c-0.44-0.16-0.75-0.33-0.95-0.52l-0.28-0.25L265.32,182.13z M271.65,179.45c0-1.07,0.36-1.95,1.1-2.65
							c0.74-0.7,1.65-1.05,2.7-1.05c1.08,0,2,0.35,2.73,1.05c0.73,0.7,1.1,1.58,1.1,2.65c0,1.06-0.37,1.94-1.1,2.65
							s-1.65,1.07-2.72,1.07c-1.06,0-1.96-0.35-2.7-1.07c-0.74-0.72-1.1-1.6-1.1-2.65H271.65z M273.03,179.45
							c0,0.73,0.229,1.34,0.7,1.8c0.5,0.5,1.06,0.75,1.73,0.75c0.68,0,1.26-0.25,1.74-0.73c0.47-0.47,0.7-1.08,0.7-1.82
							c0-0.73-0.23-1.34-0.7-1.8c-0.48-0.5-1.06-0.73-1.74-0.73c-0.67,0-1.24,0.24-1.72,0.72c-0.48,0.47-0.7,1.08-0.7,1.8
							L273.03,179.45z M280.9,183v-7.08h1.3v0.93l-0.021,0.52h0.03c0.2-0.4,0.5-0.77,0.96-1.1s1.02-0.52,1.7-0.52
							c1.63,0,2.44,0.9,2.44,2.7V183h-1.35v-4.22c0-0.57-0.1-1-0.28-1.32c-0.18-0.32-0.55-0.47-1.07-0.47c-0.53,0-1,0.15-1.4,0.479
							c-0.4,0.33-0.68,0.74-0.84,1.25c-0.07,0.26-0.1,0.58-0.1,0.95V183h-1.36H280.9z M292.1,175.92h1.44l1.44,4.98l0.1,0.35
							c0.05,0.12,0.08,0.22,0.08,0.3l0.03,0.1h0.03c0.05-0.3,0.101-0.56,0.17-0.76l1.55-4.97h1.26l1.5,4.96l0.24,0.73h0.02
							c0.04-0.26,0.1-0.5,0.17-0.75l1.46-4.96H303l-2.3,7.08h-1.48l-1.43-4.57l-0.22-0.75h-0.04c-0.061,0.3-0.12,0.54-0.2,0.77
							L295.9,183h-1.52L292.1,175.92z M304.3,174.5v-1.38h1.38v1.38h-1.37H304.3z M304.32,183v-7.08h1.36V183H304.32z M307.17,177.1
							V176h0.97v-2.03h1.3V176h1.72v1.1h-1.7v3.16c0,0.26,0.03,0.5,0.1,0.7c0.1,0.22,0.18,0.37,0.28,0.47
							c0.1,0.1,0.23,0.2,0.37,0.27c0.13,0.06,0.26,0.1,0.4,0.12c0.1,0.02,0.23,0.03,0.36,0.03l0.33-0.03v1.2
							c-0.13,0.03-0.3,0.03-0.5,0.03c-0.2,0-0.43,0-0.63-0.04c-0.2,0-0.43-0.08-0.7-0.2c-0.27-0.1-0.5-0.25-0.68-0.44
							c-0.2-0.18-0.37-0.44-0.5-0.78c-0.14-0.32-0.2-0.7-0.2-1.17v-3.3h-0.93L307.17,177.1z M312.8,183v-9.88h1.37v3.63l-0.03,0.58
							h0.03c0.18-0.4,0.5-0.77,0.97-1.1c0.46-0.32,1-0.48,1.64-0.48c1.63,0,2.439,0.9,2.439,2.7V183h-1.36v-4.22
							c0-0.57-0.1-1-0.28-1.32c-0.18-0.32-0.54-0.47-1.06-0.47s-1,0.16-1.4,0.479c-0.4,0.32-0.7,0.75-0.84,1.26
							c-0.08,0.26-0.1,0.58-0.1,0.94V183h-1.37H312.8z M323.84,174.32v-1.2H332v1.2h-3.38V183h-1.38v-8.68H323.84z M332.1,175.92
							h1.53l1.77,4.63l0.27,0.86h0.03c0.08-0.3,0.16-0.6,0.24-0.83l1.72-4.65h1.47l-3.32,8.35c-0.2,0.53-0.5,0.95-0.9,1.24
							c-0.42,0.3-0.88,0.44-1.38,0.44c-0.24,0-0.47-0.04-0.7-0.1c-0.23-0.1-0.4-0.16-0.5-0.24l-0.18-0.1l0.48-1.03
							c0.26,0.2,0.53,0.3,0.83,0.3c0.56,0,0.98-0.35,1.27-1.05l0.35-0.8l-2.97-7L332.1,175.92z M340.28,185.8v-9.88h1.24v0.6
							l-0.02,0.53h0.02c0,0,0.02-0.03,0.03-0.06c0.02-0.05,0.03-0.07,0.05-0.1c0.04-0.06,0.12-0.16,0.25-0.3
							c0.14-0.16,0.3-0.3,0.45-0.4c0.17-0.1,0.4-0.22,0.67-0.3c0.3-0.1,0.601-0.15,0.93-0.15c0.94,0,1.7,0.34,2.27,1.03
							c0.57,0.68,0.85,1.58,0.85,2.7c0,1.1-0.3,2-0.9,2.67c-0.6,0.67-1.38,1.02-2.3,1.02c-0.3,0-0.57-0.04-0.83-0.12
							c-0.271-0.08-0.48-0.18-0.64-0.3c-0.17-0.1-0.3-0.23-0.4-0.33c-0.1-0.1-0.2-0.2-0.25-0.28l-0.07-0.12h-0.03
							c0.02,0.15,0.03,0.36,0.03,0.62v3.16h-1.35V185.8z M341.58,179.5c0,0.68,0.2,1.27,0.55,1.77c0.37,0.5,0.85,0.75,1.46,0.75
							c0.57,0,1.06-0.23,1.45-0.68c0.39-0.45,0.6-1.07,0.6-1.85c0-0.771-0.2-1.4-0.57-1.85c-0.37-0.45-0.85-0.7-1.44-0.7
							c-0.58,0-1.07,0.2-1.46,0.64c-0.4,0.4-0.6,1.05-0.6,1.9L341.58,179.5z M348.18,179.46c0-1.1,0.33-2,1-2.7
							c0.66-0.67,1.5-1,2.53-1c0.97,0,1.72,0.3,2.26,0.92c0.54,0.62,0.8,1.42,0.8,2.4l-0.04,0.58h-5.16
							c0.04,0.74,0.3,1.32,0.75,1.72c0.48,0.4,1.05,0.62,1.7,0.62c0.35,0,0.7-0.08,1.07-0.22c0.32-0.12,0.58-0.26,0.78-0.4l0.25-0.2
							l0.56,0.98c-0.1,0.1-0.2,0.18-0.34,0.28c-0.18,0.13-0.5,0.28-0.93,0.45c-0.5,0.18-1,0.27-1.48,0.27c-1.1,0-2-0.35-2.7-1.06
							c-0.7-0.7-1.04-1.58-1.04-2.64H348.18z M349.6,178.63h3.8c-0.03-0.6-0.2-1.03-0.52-1.34c-0.32-0.3-0.72-0.46-1.2-0.46
							c-0.54,0-1,0.16-1.37,0.47c-0.37,0.32-0.6,0.76-0.7,1.33H349.6z M359.74,182.24c0-0.55,0.1-1.06,0.34-1.53
							c0.23-0.47,0.52-0.86,0.86-1.17c0.35-0.3,0.73-0.6,1.13-0.92l1.17-0.83c0.35-0.23,0.64-0.52,0.9-0.87
							c0.23-0.32,0.35-0.66,0.35-1.03c0-0.48-0.17-0.88-0.5-1.18c-0.33-0.32-0.76-0.47-1.3-0.47c-0.24,0-0.47,0.04-0.68,0.13
							c-0.22,0.1-0.4,0.2-0.56,0.32c-0.18,0.15-0.3,0.27-0.4,0.36c-0.12,0.13-0.2,0.24-0.25,0.33l-0.07,0.12l-0.95-0.7
							c0,0,0.03-0.05,0.05-0.1c0.03-0.04,0.04-0.08,0.06-0.1c0.04-0.1,0.15-0.25,0.32-0.44c0.2-0.23,0.38-0.4,0.58-0.57
							c0.22-0.17,0.5-0.32,0.86-0.45c0.34-0.13,0.73-0.2,1.15-0.2c0.92,0,1.67,0.26,2.26,0.78c0.59,0.52,0.87,1.2,0.87,2.04
							c0,0.44-0.08,0.85-0.26,1.24c-0.17,0.4-0.4,0.73-0.67,1c-0.3,0.28-0.6,0.55-0.93,0.8c-0.24,0.18-0.58,0.4-1,0.7
							c-0.38,0.26-0.7,0.48-0.93,0.68c-0.28,0.22-0.5,0.47-0.7,0.75c-0.17,0.28-0.26,0.57-0.26,0.87h4.9v1.2h-6.27
							c-0.04-0.3-0.06-0.54-0.06-0.76H359.74z M371.92,183v-9.88h3.27c1.52,0,2.74,0.43,3.64,1.3c0.9,0.9,1.36,2.1,1.36,3.62
							c0,1.55-0.45,2.76-1.36,3.64c-0.91,0.88-2.12,1.32-3.65,1.32h-3.28H371.92z M373.3,181.8h1.8c1.13,0,2.02-0.33,2.68-0.98
							c0.66-0.66,1-1.58,1-2.78c0-1.18-0.34-2.1-1-2.74c-0.66-0.66-1.561-0.98-2.7-0.98h-1.78V181.8z M381.98,174.5v-1.38h1.37v1.38
							H381.98z M381.98,183v-7.08h1.37V183H382H381.98z M384.9,181c0-1.62,1.42-2.43,4.27-2.43h0.3v-0.13c0-1.03-0.5-1.54-1.54-1.54
							c-0.3,0-0.64,0.05-0.979,0.17c-0.3,0.1-0.561,0.2-0.74,0.33l-0.25,0.18l-0.56-1c0.04-0.04,0.15-0.12,0.32-0.23
							c0.1-0.08,0.42-0.2,0.9-0.37c0.46-0.16,0.93-0.23,1.42-0.23c0.9,0,1.6,0.24,2.08,0.7s0.72,1.18,0.72,2.07V183h-1.24v-0.67
							l0.03-0.56h-0.03l-0.08,0.15c-0.04,0.07-0.12,0.18-0.24,0.33c-0.12,0.16-0.26,0.3-0.42,0.43c-0.16,0.12-0.38,0.23-0.65,0.33
							c-0.27,0.12-0.57,0.17-0.9,0.17c-0.64,0-1.2-0.2-1.7-0.57c-0.46-0.38-0.7-0.9-0.7-1.6L384.9,181z M386.28,180.94
							c0,0.3,0.12,0.57,0.35,0.8c0.23,0.229,0.56,0.34,0.98,0.34c0.55,0,1-0.24,1.36-0.7c0.351-0.48,0.53-1,0.53-1.56v-0.22h-0.36
							C387.24,179.6,386.28,180.04,386.28,180.94z M392.86,183v-9.88h1.35v3.84c0.03-0.02,0.06-0.07,0.1-0.12
							c0.05-0.08,0.13-0.18,0.24-0.3c0.13-0.14,0.28-0.26,0.43-0.36c0.16-0.1,0.37-0.2,0.64-0.3c0.3-0.1,0.58-0.13,0.88-0.13
							c0.94,0,1.7,0.34,2.27,1.03c0.57,0.68,0.85,1.58,0.85,2.7c0,1.1-0.3,2-0.9,2.67c-0.6,0.67-1.38,1.02-2.33,1.02
							c-0.28,0-0.56-0.04-0.84-0.13c-0.26-0.08-0.47-0.18-0.63-0.3c-0.17-0.12-0.3-0.24-0.42-0.35c-0.12-0.12-0.2-0.23-0.25-0.3
							l-0.08-0.14h-0.03c0.02,0.13,0.03,0.3,0.03,0.53v0.5h-1.3L392.86,183z M394.16,179.5c0,0.68,0.2,1.27,0.54,1.77
							c0.34,0.5,0.84,0.75,1.479,0.75c0.58,0,1.061-0.23,1.45-0.68c0.39-0.45,0.6-1.07,0.6-1.85c0-0.771-0.2-1.4-0.56-1.85
							c-0.36-0.45-0.86-0.7-1.45-0.7c-0.58,0-1.07,0.2-1.46,0.64c-0.4,0.4-0.6,1.05-0.6,1.9V179.5z M400.76,179.46
							c0-1.1,0.33-2,1-2.7c0.66-0.67,1.5-1,2.53-1c0.95,0,1.7,0.3,2.24,0.92c0.54,0.62,0.8,1.42,0.8,2.4l-0.03,0.58h-5.16
							c0.04,0.74,0.3,1.32,0.75,1.72c0.47,0.4,1.03,0.62,1.68,0.62c0.36,0,0.7-0.08,1.07-0.22c0.32-0.12,0.58-0.26,0.78-0.4
							l0.25-0.2l0.56,0.98c-0.1,0.1-0.2,0.18-0.34,0.28c-0.17,0.13-0.5,0.28-0.93,0.45c-0.5,0.18-0.97,0.27-1.47,0.27
							c-1.1,0-2-0.35-2.7-1.06c-0.7-0.7-1.04-1.58-1.04-2.64H400.76z M402.19,178.63h3.77c-0.02-0.6-0.2-1.03-0.5-1.34
							c-0.33-0.3-0.73-0.46-1.2-0.46c-0.54,0-1,0.16-1.38,0.47c-0.38,0.32-0.62,0.76-0.7,1.33H402.19z M408.4,177.1V176h0.96v-2.03
							h1.3V176h1.72v1.1h-1.7v3.16c0,0.26,0.03,0.5,0.101,0.7c0.1,0.22,0.18,0.37,0.28,0.47s0.23,0.2,0.37,0.27
							c0.12,0.06,0.25,0.1,0.4,0.12c0.1,0.02,0.22,0.03,0.35,0.03l0.33-0.03v1.2c-0.1,0.03-0.27,0.03-0.47,0.03
							c-0.22,0-0.44,0-0.64-0.04c-0.2,0-0.44-0.08-0.72-0.2c-0.26-0.1-0.5-0.25-0.67-0.44c-0.2-0.18-0.35-0.44-0.5-0.78
							c-0.12-0.32-0.2-0.7-0.2-1.17v-3.3h-0.9L408.4,177.1z M413.54,179.46c0-1.1,0.33-2,1-2.7c0.66-0.67,1.5-1,2.52-1
							c0.96,0,1.7,0.3,2.26,0.92c0.56,0.62,0.8,1.42,0.8,2.4l-0.04,0.58h-5.16c0.04,0.74,0.3,1.32,0.75,1.72
							c0.47,0.4,1.04,0.62,1.7,0.62c0.34,0,0.7-0.08,1.06-0.22c0.32-0.12,0.58-0.26,0.771-0.4l0.26-0.2l0.55,0.98
							c-0.08,0.1-0.2,0.18-0.32,0.28c-0.18,0.13-0.5,0.28-0.94,0.45c-0.48,0.18-0.97,0.27-1.46,0.27c-1.1,0-2-0.35-2.7-1.06
							c-0.7-0.7-1.04-1.58-1.04-2.64H413.54z M414.96,178.63h3.8c-0.03-0.6-0.2-1.03-0.53-1.34c-0.3-0.3-0.7-0.46-1.2-0.46
							c-0.53,0-0.98,0.16-1.36,0.47c-0.38,0.32-0.6,0.76-0.7,1.33H414.96z M421.22,182.13l0.66-0.96c0.04,0.05,0.12,0.13,0.25,0.23
							c0.1,0.08,0.33,0.2,0.7,0.36c0.35,0.16,0.7,0.24,1.08,0.24c0.32,0,0.6-0.08,0.84-0.24c0.23-0.16,0.35-0.37,0.35-0.65
							c0-0.22-0.14-0.43-0.4-0.6c-0.23-0.18-0.54-0.33-0.9-0.47c-0.36-0.14-0.72-0.3-1.07-0.45c-0.35-0.15-0.66-0.4-0.9-0.7
							c-0.26-0.32-0.4-0.7-0.4-1.12c0-0.62,0.26-1.1,0.74-1.47c0.48-0.37,1.1-0.55,1.83-0.55c0.46,0,0.88,0.06,1.27,0.2
							c0.37,0.12,0.63,0.25,0.8,0.38l0.2,0.2l-0.53,1.02c-0.04-0.03-0.1-0.1-0.2-0.17c-0.1-0.07-0.3-0.17-0.6-0.28
							c-0.3-0.12-0.62-0.18-0.95-0.18c-0.34,0-0.601,0.08-0.84,0.22c-0.22,0.14-0.34,0.36-0.34,0.65c0,0.22,0.13,0.42,0.38,0.6
							c0.24,0.16,0.55,0.3,0.92,0.45c0.4,0.15,0.74,0.3,1.06,0.44c0.35,0.15,0.65,0.4,0.9,0.7c0.26,0.32,0.4,0.68,0.4,1.1
							c0,0.6-0.25,1.1-0.72,1.5c-0.47,0.38-1.1,0.57-1.85,0.57c-0.5,0-0.98-0.1-1.44-0.26c-0.44-0.16-0.75-0.33-0.94-0.52l-0.3-0.25
							V182.13z"/>
					</g>
				</g>
			</g>
		</g>
	</g>
</g>
<g id="Canvas">
	<g id="roi_icon">
		<g id="Line_2_Copy">
			
				<linearGradient id="SVGID_1_" gradientUnits="userSpaceOnUse" x1="-307.5845" y1="452.334" x2="-306.5845" y2="452.334" gradientTransform="matrix(0 -389 3 0 -462.5 -119266)">
				<stop  offset="0" style="stop-color:#FFFFFF"/>
				<stop  offset="1" style="stop-color:#FFFFFF;stop-opacity:0.01"/>
			</linearGradient>
			<path fill="none" stroke="url(#SVGID_1_)" stroke-linecap="square" d="M894.5-4.22v388.37"/>
		</g>
		<path id="Oval_Copy_5" fill="#FFFFFF" d="M894,257.65c34.8,0,63-28.2,63-63c0-34.8-28.2-63-63-63s-63,28.2-63,63
			C831,229.45,859.2,257.65,894,257.65z"/>
		<g id="Page_1">
			<path id="Stroke_1" fill="none" stroke="#00BFD6" stroke-width="2" stroke-linecap="round" stroke-linejoin="round" d="
				M880.4,195.77l7.399-11.62l5.65,8.02l7.36-7.04l5.699,5.3l8.5-20.02"/>
			<g id="Group_5">
				<g>
					<path id="Stroke_3" fill="none" stroke="#2D2C6F" stroke-width="2" d="M918.8,203.1h-44.75v-37.65"/>
				</g>
			</g>
			<path id="Stroke_6" fill="none" stroke="#2D2C6F" stroke-width="2" stroke-linejoin="round" d="M869,175.34h5"/>
			<path id="Stroke_8" fill="none" stroke="#2D2C6F" stroke-width="2" stroke-linejoin="round" d="M869,186.6h5"/>
			<path id="Stroke_10" fill="none" stroke="#2D2C6F" stroke-width="2" stroke-linejoin="round" d="M869,197.9h5"/>
			<path id="Stroke_12" fill="none" stroke="#2D2C6F" stroke-width="2" stroke-linejoin="round" d="M879.34,208.03v-4.97"/>
			<path id="Stroke_14" fill="none" stroke="#2D2C6F" stroke-width="2" stroke-linejoin="round" d="M890.14,208.03v-4.97"/>
			<path id="Stroke_16" fill="none" stroke="#2D2C6F" stroke-width="2" stroke-linejoin="round" d="M900.95,208.03v-4.97"/>
			<path id="Stroke_18" fill="none" stroke="#2D2C6F" stroke-width="2" stroke-linejoin="round" d="M911.75,208.03v-4.97"/>
		</g>
		<path id="Oval_Copy" fill="none" stroke="#FFFFFF" stroke-width="0.6" stroke-miterlimit="8" stroke-dasharray="2.4,2.4" d="
			M892.3,271.34c0.4,0,0.8,0,1.2,0s0.8,0,1.2,0v0.3c0.78,0,1.569-0.03,2.36-0.07v-0.3c0.779-0.03,1.56-0.08,2.35-0.14l0.029,0.3
			c0.801-0.06,1.57-0.13,2.36-0.2l-0.04-0.3c0.78-0.1,1.561-0.2,2.34-0.3l0.04,0.3c0.8-0.1,1.57-0.22,2.351-0.35l-0.061-0.3
			c0.78-0.13,1.551-0.27,2.32-0.42l0.061,0.3c0.779-0.16,1.55-0.32,2.319-0.5l-0.069-0.3c0.77-0.17,1.539-0.36,2.3-0.56l0.069,0.3
			c0.771-0.2,1.53-0.42,2.301-0.64l-0.101-0.3c0.76-0.2,1.5-0.45,2.26-0.7l0.101,0.3c0.74-0.25,1.5-0.5,2.229-0.78l-0.1-0.28
			c0.74-0.27,1.479-0.55,2.2-0.84l0.119,0.28c0.74-0.3,1.471-0.6,2.2-0.9l-0.13-0.28c0.721-0.32,1.44-0.64,2.15-0.98l0.13,0.28
			c0.72-0.34,1.43-0.7,2.13-1.04l-0.13-0.27c0.7-0.36,1.4-0.72,2.1-1.1l0.13,0.26c0.7-0.37,1.4-0.76,2.07-1.15l-0.15-0.26
			c0.681-0.4,1.351-0.82,2.021-1.24l0.16,0.26c0.67-0.42,1.33-0.85,2-1.3l-0.181-0.24c0.65-0.44,1.301-0.9,1.94-1.35l0.17,0.25
			c0.64-0.46,1.28-0.93,1.9-1.4l-0.181-0.25c0.62-0.47,1.24-0.96,1.851-1.46l0.2,0.24c0.6-0.5,1.199-1,1.8-1.5l-0.181-0.24
			c0.601-0.5,1.181-1.04,1.761-1.57l0.2,0.22c0.6-0.54,1.17-1.08,1.729-1.63l-0.2-0.23c0.561-0.54,1.12-1.1,1.66-1.67l0.22,0.2
			c0.55-0.55,1.101-1.13,1.63-1.7l-0.229-0.22c0.54-0.58,1.06-1.17,1.57-1.76l0.239,0.2c0.5-0.6,1.021-1.2,1.521-1.83l-0.229-0.2
			c0.5-0.6,0.979-1.23,1.449-1.86l0.24,0.18c0.48-0.62,0.95-1.26,1.4-1.9l-0.24-0.18c0.46-0.64,0.9-1.3,1.35-1.94l0.25,0.17
			c0.44-0.66,0.87-1.32,1.301-2l-0.271-0.15c0.43-0.67,0.84-1.34,1.24-2.02l0.26,0.15c0.399-0.68,0.78-1.37,1.16-2.07l-0.261-0.14
			c0.381-0.7,0.74-1.4,1.101-2.1l0.27,0.14c0.351-0.7,0.7-1.4,1.04-2.13l-0.26-0.13c0.33-0.7,0.65-1.43,0.97-2.15l0.28,0.12
			c0.3-0.73,0.62-1.46,0.9-2.2l-0.271-0.1c0.3-0.74,0.58-1.48,0.851-2.22l0.279,0.1c0.271-0.74,0.53-1.5,0.771-2.24l-0.28-0.1
			c0.24-0.74,0.48-1.5,0.7-2.25l0.3,0.08c0.2-0.76,0.42-1.52,0.63-2.3l-0.3-0.07c0.2-0.74,0.4-1.5,0.57-2.28l0.3,0.07
			c0.17-0.78,0.33-1.55,0.5-2.33l-0.3-0.06c0.14-0.76,0.3-1.53,0.42-2.3l0.3,0.04c0.12-0.78,0.24-1.56,0.34-2.35l-0.3-0.05
			c0.1-0.78,0.2-1.56,0.3-2.35l0.3,0.04c0.07-0.8,0.141-1.57,0.2-2.36l-0.3-0.02c0.06-0.8,0.1-1.58,0.14-2.37h0.3
			c0.041-0.78,0.061-1.57,0.07-2.36h-0.3c0-0.4,0-0.8,0-1.2s0-0.78,0-1.18h0.3c-0.02-0.8-0.04-1.58-0.08-2.37h-0.3
			c-0.03-0.8-0.08-1.57-0.14-2.36l0.3-0.02c-0.06-0.8-0.13-1.57-0.2-2.36l-0.3,0.03c-0.101-0.8-0.2-1.58-0.3-2.35l0.3-0.04
			c-0.101-0.78-0.22-1.56-0.351-2.34l-0.3,0.05c-0.12-0.77-0.27-1.54-0.42-2.3l0.3-0.07c-0.149-0.78-0.3-1.55-0.5-2.32l-0.279,0.08
			c-0.181-0.77-0.37-1.54-0.57-2.3l0.3-0.07c-0.2-0.76-0.42-1.52-0.64-2.28l-0.28,0.1c-0.22-0.77-0.46-1.52-0.7-2.27l0.28-0.1
			c-0.24-0.74-0.5-1.5-0.771-2.23l-0.279,0.1c-0.271-0.74-0.551-1.48-0.84-2.2l0.3-0.12c-0.3-0.74-0.601-1.47-0.92-2.2l-0.271,0.13
			c-0.3-0.73-0.63-1.44-0.96-2.16l0.271-0.12c-0.33-0.72-0.681-1.43-1.03-2.14l-0.271,0.15c-0.359-0.7-0.72-1.4-1.1-2.1l0.26-0.13
			c-0.38-0.7-0.76-1.4-1.16-2.07l-0.26,0.15c-0.4-0.68-0.8-1.35-1.229-2.02l0.27-0.16c-0.42-0.67-0.85-1.33-1.3-2l-0.24,0.18
			c-0.439-0.65-0.899-1.3-1.35-1.94l0.25-0.18c-0.46-0.64-0.93-1.28-1.4-1.9l-0.25,0.18c-0.47-0.63-0.96-1.25-1.449-1.86l0.229-0.2
			c-0.5-0.6-1-1.2-1.521-1.8l-0.229,0.18c-0.5-0.6-1.021-1.18-1.56-1.77l0.229-0.2c-0.54-0.57-1.08-1.15-1.63-1.7l-0.22,0.2
			c-0.54-0.57-1.101-1.13-1.671-1.68l0.2-0.2c-0.55-0.56-1.13-1.1-1.7-1.64l-0.22,0.22c-0.58-0.53-1.17-1.05-1.76-1.56l0.2-0.23
			c-0.6-0.5-1.2-1-1.83-1.5l-0.2,0.22c-0.6-0.5-1.22-0.98-1.85-1.45l0.17-0.24c-0.62-0.48-1.261-0.95-1.9-1.4l-0.18,0.23
			c-0.65-0.45-1.3-0.9-1.95-1.34l0.17-0.25c-0.66-0.44-1.32-0.87-2-1.3l-0.15,0.27c-0.67-0.42-1.34-0.83-2.02-1.23l0.15-0.25
			c-0.681-0.4-1.37-0.78-2.07-1.16l-0.141,0.25c-0.699-0.38-1.399-0.74-2.1-1.1l0.13-0.27c-0.7-0.35-1.399-0.7-2.13-1.04l-0.13,0.27
			c-0.7-0.32-1.43-0.64-2.149-0.96l0.119-0.27c-0.72-0.3-1.449-0.62-2.199-0.9l-0.101,0.27c-0.729-0.3-1.47-0.57-2.2-0.84
			l0.101-0.28c-0.75-0.27-1.5-0.53-2.25-0.77l-0.101,0.28c-0.75-0.24-1.5-0.48-2.26-0.7l0.1-0.3c-0.77-0.2-1.529-0.42-2.3-0.63
			l-0.069,0.3c-0.761-0.2-1.53-0.4-2.301-0.57l0.07-0.3c-0.77-0.17-1.54-0.33-2.32-0.5l-0.06,0.3c-0.771-0.14-1.54-0.3-2.32-0.42
			l0.05-0.28c-0.8-0.13-1.569-0.25-2.359-0.36l-0.04,0.3c-0.78-0.1-1.56-0.2-2.34-0.28l0.03-0.3c-0.801-0.08-1.58-0.15-2.371-0.2
			l-0.02,0.3c-0.78-0.07-1.56-0.12-2.35-0.15v-0.3c-0.78-0.04-1.57-0.06-2.36-0.07v0.3c-0.399,0-0.8,0-1.2,0c-0.399,0-0.8,0-1.199,0
			v-0.3c-0.78,0-1.57,0.03-2.36,0.07v0.3c-0.78,0.03-1.561,0.08-2.351,0.14l-0.029-0.3c-0.801,0.06-1.57,0.13-2.36,0.2l0.04,0.3
			c-0.78,0.1-1.561,0.2-2.34,0.3l-0.04-0.3c-0.8,0.1-1.57,0.22-2.351,0.35l0.061,0.3c-0.78,0.12-1.55,0.27-2.32,0.42l-0.06-0.3
			c-0.78,0.16-1.55,0.32-2.32,0.5l0.07,0.3c-0.771,0.17-1.54,0.36-2.3,0.55l-0.07-0.3c-0.77,0.2-1.53,0.42-2.3,0.64l0.1,0.3
			c-0.76,0.2-1.5,0.45-2.26,0.7l-0.101-0.3c-0.739,0.25-1.5,0.5-2.229,0.78l0.1,0.28c-0.739,0.27-1.479,0.55-2.2,0.84l-0.119-0.28
			c-0.74,0.3-1.471,0.6-2.2,0.9l0.13,0.28c-0.73,0.32-1.439,0.64-2.16,0.97l-0.12-0.26c-0.72,0.34-1.43,0.7-2.13,1.04l0.13,0.271
			c-0.7,0.36-1.399,0.72-2.1,1.1l-0.13-0.26c-0.7,0.37-1.4,0.75-2.07,1.15l0.15,0.26c-0.68,0.4-1.351,0.82-2.021,1.24l-0.159-0.26
			c-0.671,0.42-1.33,0.85-2,1.3l0.18,0.24c-0.65,0.44-1.301,0.9-1.94,1.34l-0.17-0.24c-0.64,0.46-1.28,0.93-1.899,1.4l0.18,0.25
			c-0.62,0.47-1.24,0.96-1.85,1.45l-0.2-0.23c-0.601,0.5-1.2,1-1.8,1.5l0.18,0.24c-0.601,0.5-1.18,1.03-1.76,1.56l-0.2-0.22
			c-0.601,0.54-1.17,1.08-1.73,1.63l0.2,0.22c-0.561,0.55-1.12,1.1-1.66,1.67l-0.22-0.2c-0.55,0.55-1.101,1.13-1.63,1.7l0.229,0.2
			c-0.54,0.6-1.06,1.2-1.569,1.78l-0.24-0.2c-0.5,0.6-1.021,1.2-1.521,1.83l0.24,0.2c-0.5,0.6-1,1.23-1.46,1.86l-0.24-0.2
			c-0.479,0.64-0.949,1.28-1.399,1.92l0.239,0.18c-0.46,0.64-0.899,1.3-1.35,1.94l-0.25-0.17c-0.439,0.66-0.87,1.32-1.3,2l0.27,0.15
			c-0.43,0.67-0.84,1.34-1.239,2.02l-0.261-0.15c-0.399,0.68-0.779,1.37-1.159,2.07l0.26,0.14c-0.38,0.7-0.74,1.4-1.1,2.1
			l-0.271-0.15c-0.351,0.72-0.7,1.43-1.04,2.15l0.27,0.12c-0.34,0.72-0.659,1.43-0.979,2.16l-0.28-0.12
			c-0.3,0.73-0.62,1.46-0.899,2.2l0.27,0.1c-0.3,0.74-0.58,1.48-0.85,2.22l-0.28-0.1c-0.27,0.74-0.53,1.5-0.77,2.24l0.279,0.1
			c-0.24,0.74-0.479,1.5-0.699,2.25l-0.301-0.08c-0.199,0.76-0.42,1.52-0.62,2.3l0.3,0.06c-0.199,0.76-0.399,1.53-0.579,2.3
			l-0.3-0.07c-0.171,0.78-0.33,1.55-0.5,2.33l0.3,0.06c-0.141,0.76-0.3,1.53-0.4,2.3l-0.3-0.04c-0.141,0.78-0.26,1.56-0.36,2.35
			l0.3,0.05c-0.1,0.77-0.199,1.56-0.3,2.34l-0.3-0.04c-0.07,0.8-0.14,1.57-0.2,2.36l0.3,0.02c-0.06,0.8-0.1,1.57-0.14,2.36h-0.3
			c-0.04,0.78-0.061,1.57-0.07,2.36h0.3c0,0.4,0,0.8,0,1.2s0,0.78,0,1.18h-0.3c0.021,0.8,0.04,1.58,0.08,2.37h0.3
			c0.03,0.78,0.08,1.57,0.141,2.36l-0.3,0.02c0.06,0.8,0.129,1.57,0.199,2.36l0.301-0.04c0.1,0.8,0.199,1.57,0.3,2.35l-0.3,0.04
			c0.1,0.78,0.22,1.56,0.35,2.34l0.3-0.05c0.12,0.771,0.271,1.54,0.42,2.3l-0.3,0.07c0.15,0.78,0.3,1.55,0.5,2.32l0.28-0.08
			c0.18,0.77,0.37,1.54,0.569,2.3l-0.3,0.07c0.2,0.76,0.42,1.52,0.64,2.28l0.28-0.1c0.22,0.77,0.46,1.52,0.7,2.27l-0.28,0.1
			c0.24,0.74,0.5,1.5,0.771,2.23l0.279-0.1c0.271,0.74,0.551,1.48,0.841,2.2l-0.3,0.12c0.3,0.74,0.6,1.47,0.92,2.2l0.27-0.13
			c0.3,0.72,0.63,1.44,0.97,2.15l-0.279,0.13c0.329,0.72,0.68,1.43,1.029,2.13l0.271-0.13c0.359,0.7,0.72,1.4,1.1,2.1l-0.26,0.13
			c0.38,0.7,0.77,1.4,1.16,2.07l0.26-0.15c0.4,0.68,0.8,1.35,1.23,2.02l-0.271,0.16c0.42,0.67,0.851,1.33,1.3,2l0.24-0.18
			c0.439,0.65,0.9,1.3,1.35,1.94l-0.25,0.18c0.461,0.64,0.931,1.28,1.4,1.9l0.25-0.18c0.47,0.63,0.96,1.25,1.46,1.86l-0.24,0.2
			c0.5,0.6,1,1.2,1.521,1.8l0.229-0.18c0.5,0.6,1.021,1.18,1.561,1.76l-0.23,0.2c0.54,0.6,1.08,1.17,1.63,1.73l0.221-0.2
			c0.539,0.57,1.1,1.13,1.67,1.67l-0.2,0.22c0.55,0.54,1.13,1.08,1.7,1.62l0.22-0.23c0.58,0.52,1.17,1.05,1.76,1.56l-0.2,0.23
			c0.601,0.5,1.2,1,1.83,1.5l0.2-0.23c0.601,0.5,1.22,1,1.851,1.46l-0.181,0.24c0.63,0.48,1.271,0.95,1.9,1.4l0.2-0.24
			c0.63,0.46,1.279,0.9,1.93,1.35l-0.17,0.25c0.66,0.44,1.32,0.87,2,1.3l0.15-0.27c0.67,0.42,1.34,0.83,2.02,1.23l-0.15,0.25
			c0.681,0.4,1.37,0.78,2.07,1.16l0.141-0.25c0.699,0.38,1.399,0.74,2.1,1.1l-0.13,0.27c0.7,0.35,1.399,0.7,2.13,1.04l0.12-0.28
			c0.72,0.34,1.43,0.66,2.159,0.98l-0.119,0.27c0.72,0.3,1.449,0.62,2.199,0.9l0.101-0.27c0.729,0.3,1.47,0.57,2.2,0.84l-0.101,0.28
			c0.75,0.27,1.5,0.53,2.25,0.77l0.101-0.28c0.75,0.24,1.5,0.48,2.26,0.7l-0.1,0.3c0.77,0.2,1.529,0.42,2.3,0.62l0.069-0.3
			c0.761,0.2,1.53,0.4,2.301,0.57l-0.07,0.3c0.77,0.17,1.54,0.33,2.32,0.5l0.06-0.3c0.771,0.14,1.54,0.28,2.32,0.4l-0.05,0.3
			c0.8,0.14,1.569,0.26,2.359,0.36l0.04-0.3c0.78,0.1,1.56,0.2,2.34,0.3l-0.03,0.3c0.801,0.07,1.58,0.14,2.37,0.2l0.021-0.3
			c0.78,0.06,1.56,0.1,2.35,0.14v0.3c0.78,0.04,1.57,0.06,2.36,0.07v-0.3L892.3,271.34z"/>
		
			<path id="Oval_Copy_x5F_2" fill="none" stroke="#FFFFFF" stroke-width="0.6" stroke-miterlimit="8" stroke-dasharray="2.4,2.4" d="
			M892.8,261.34c0.4,0,0.8,0,1.2,0s0.8,0,1.2,0l0.02,0.3c0.8-0.02,1.62-0.04,2.42-0.1v-0.3c0.8-0.03,1.601-0.1,2.4-0.16l0.03,0.3
			c0.8-0.07,1.6-0.15,2.399-0.25l-0.029-0.3c0.8-0.1,1.6-0.22,2.399-0.34l0.04,0.28c0.8-0.13,1.601-0.27,2.4-0.42l-0.07-0.3
			c0.8-0.16,1.601-0.33,2.38-0.5l0.07,0.28c0.78-0.18,1.57-0.38,2.35-0.6l-0.08-0.3c0.78-0.2,1.551-0.43,2.32-0.67l0.1,0.3
			c0.761-0.25,1.53-0.5,2.301-0.78l-0.101-0.3c0.75-0.26,1.5-0.54,2.261-0.83l0.1,0.27c0.76-0.3,1.5-0.6,2.25-0.93l-0.12-0.26
			c0.74-0.32,1.47-0.66,2.2-1l0.12,0.26c0.729-0.35,1.46-0.7,2.17-1.08l-0.13-0.27c0.699-0.37,1.399-0.76,2.1-1.16l0.16,0.25
			c0.7-0.4,1.4-0.8,2.08-1.24l-0.16-0.24c0.7-0.43,1.37-0.87,2.03-1.3l0.18,0.24c0.68-0.45,1.34-0.92,2-1.4l-0.18-0.23
			c0.649-0.48,1.3-0.96,1.93-1.45l0.2,0.23c0.63-0.5,1.26-1,1.88-1.52l-0.2-0.23c0.63-0.52,1.24-1.05,1.84-1.58l0.2,0.22
			c0.601-0.54,1.2-1.1,1.78-1.66l-0.2-0.2c0.57-0.57,1.14-1.14,1.7-1.72l0.2,0.2c0.58-0.58,1.13-1.17,1.67-1.77l-0.23-0.2
			c0.53-0.6,1.061-1.22,1.58-1.84l0.23,0.2c0.52-0.62,1.03-1.25,1.52-1.9l-0.229-0.18c0.5-0.63,0.979-1.28,1.449-1.93l0.24,0.17
			c0.471-0.65,0.94-1.32,1.4-2l-0.26-0.16c0.439-0.66,0.88-1.34,1.3-2.03l0.26,0.16c0.43-0.7,0.84-1.4,1.24-2.1l-0.261-0.14
			c0.4-0.7,0.801-1.4,1.16-2.13l0.271,0.14c0.37-0.7,0.74-1.44,1.08-2.17l-0.261-0.13c0.33-0.72,0.671-1.45,1-2.2l0.261,0.13
			c0.33-0.74,0.64-1.5,0.93-2.25l-0.28-0.1c0.301-0.75,0.57-1.5,0.84-2.27l0.28,0.1c0.271-0.76,0.53-1.53,0.771-2.3l-0.28-0.1
			c0.24-0.76,0.47-1.53,0.68-2.3l0.3,0.07c0.2-0.78,0.4-1.57,0.601-2.36l-0.3-0.07c0.18-0.8,0.359-1.58,0.5-2.37l0.3,0.06
			c0.16-0.8,0.3-1.6,0.43-2.4l-0.3-0.04c0.13-0.8,0.25-1.6,0.35-2.4l0.301,0.05c0.1-0.8,0.18-1.6,0.25-2.42h-0.301
			c0.08-0.8,0.131-1.62,0.17-2.43l0.301,0.02c0.05-0.8,0.069-1.62,0.1-2.43h-0.3c0-0.4,0-0.82,0-1.22s0-0.8,0-1.2l0.3-0.02
			c-0.03-0.8-0.05-1.62-0.1-2.42l-0.301,0.02c-0.039-0.8-0.1-1.6-0.17-2.4l0.301-0.04c-0.07-0.8-0.15-1.6-0.25-2.4l-0.301,0.03
			c-0.1-0.8-0.22-1.6-0.34-2.38l0.301-0.05c-0.131-0.8-0.28-1.6-0.431-2.4l-0.3,0.07c-0.141-0.8-0.32-1.58-0.5-2.37l0.3-0.07
			c-0.2-0.8-0.399-1.57-0.6-2.35l-0.3,0.08c-0.2-0.78-0.44-1.55-0.681-2.32l0.3-0.08c-0.25-0.77-0.5-1.54-0.779-2.3l-0.28,0.1
			c-0.271-0.76-0.55-1.52-0.84-2.27l0.27-0.1c-0.3-0.76-0.6-1.5-0.939-2.25l-0.271,0.12c-0.33-0.74-0.67-1.47-1-2.2l0.25-0.12
			c-0.34-0.74-0.7-1.46-1.08-2.18l-0.27,0.14c-0.37-0.7-0.76-1.42-1.16-2.12l0.26-0.15c-0.4-0.7-0.8-1.4-1.24-2.1l-0.25,0.17
			c-0.42-0.7-0.859-1.37-1.3-2.04l0.25-0.16c-0.45-0.68-0.92-1.34-1.399-2l-0.23,0.18c-0.47-0.65-0.96-1.3-1.45-1.93l0.23-0.2
			c-0.5-0.63-1-1.26-1.521-1.88l-0.229,0.2c-0.521-0.62-1.05-1.23-1.58-1.83l0.22-0.2c-0.55-0.6-1.1-1.2-1.67-1.77l-0.2,0.2
			c-0.569-0.57-1.14-1.14-1.72-1.7l0.22-0.2c-0.58-0.58-1.18-1.13-1.78-1.67l-0.199,0.22c-0.601-0.53-1.2-1.06-1.83-1.58l0.199-0.23
			c-0.6-0.52-1.239-1.03-1.879-1.52l-0.2,0.23c-0.62-0.5-1.271-0.98-1.921-1.45l0.181-0.24c-0.66-0.48-1.32-0.95-2-1.4l-0.17,0.25
			c-0.65-0.45-1.33-0.88-2.021-1.3l0.16-0.26c-0.7-0.44-1.38-0.85-2.08-1.25l-0.15,0.26c-0.699-0.4-1.399-0.78-2.1-1.15l0.12-0.27
			c-0.7-0.37-1.44-0.74-2.17-1.1l-0.13,0.28c-0.72-0.34-1.45-0.68-2.2-1l0.13-0.28c-0.74-0.32-1.5-0.63-2.24-0.93l-0.1,0.28
			c-0.75-0.3-1.5-0.57-2.27-0.84l0.1-0.3c-0.76-0.26-1.53-0.52-2.3-0.76l-0.101,0.3c-0.76-0.25-1.529-0.479-2.3-0.7l0.07-0.28
			c-0.78-0.22-1.57-0.42-2.351-0.6l-0.069,0.3c-0.8-0.2-1.57-0.37-2.37-0.52l0.07-0.3c-0.801-0.15-1.601-0.3-2.4-0.42l-0.04,0.3
			c-0.8-0.14-1.6-0.25-2.399-0.35l0.05-0.3c-0.8-0.1-1.601-0.18-2.4-0.25l-0.04,0.3c-0.8-0.08-1.6-0.13-2.4-0.18v-0.3
			c-0.8-0.04-1.6-0.07-2.42-0.08v0.3c-0.399,0-0.8,0-1.22,0s-0.8,0-1.2,0l-0.02-0.3c-0.8,0-1.62,0.04-2.42,0.1v0.28
			c-0.801,0.05-1.601,0.1-2.4,0.17l-0.03-0.28c-0.8,0.07-1.6,0.15-2.399,0.25l0.029,0.3c-0.8,0.1-1.6,0.2-2.399,0.34l-0.04-0.28
			c-0.8,0.12-1.6,0.27-2.4,0.42l0.07,0.3c-0.8,0.15-1.6,0.33-2.38,0.5l-0.07-0.28c-0.78,0.18-1.569,0.38-2.35,0.6l0.08,0.3
			c-0.78,0.2-1.55,0.43-2.32,0.67l-0.1-0.3c-0.761,0.25-1.53,0.5-2.3,0.78l0.1,0.3c-0.75,0.26-1.5,0.54-2.26,0.83l-0.101-0.28
			c-0.76,0.3-1.5,0.6-2.25,0.93l0.12,0.28c-0.74,0.32-1.47,0.66-2.2,1l-0.12-0.27c-0.729,0.34-1.46,0.7-2.17,1.08l0.131,0.27
			c-0.7,0.37-1.4,0.76-2.101,1.16l-0.149-0.25c-0.7,0.4-1.4,0.8-2.101,1.24l0.17,0.24c-0.7,0.43-1.37,0.86-2.03,1.3l-0.18-0.24
			c-0.67,0.45-1.34,0.92-2,1.4l0.18,0.23c-0.649,0.47-1.3,0.96-1.93,1.45l-0.2-0.23c-0.63,0.5-1.26,1-1.88,1.52l0.2,0.23
			c-0.63,0.52-1.24,1.05-1.84,1.58l-0.2-0.22c-0.6,0.54-1.2,1.1-1.78,1.66l0.2,0.2c-0.57,0.57-1.14,1.14-1.7,1.72l-0.2-0.2
			c-0.58,0.57-1.13,1.17-1.67,1.77l0.23,0.2c-0.53,0.6-1.061,1.22-1.58,1.84l-0.23-0.2c-0.52,0.62-1.029,1.25-1.52,1.9l0.23,0.18
			c-0.5,0.63-0.971,1.28-1.45,1.93l-0.24-0.18c-0.47,0.66-0.94,1.32-1.4,2l0.261,0.16c-0.44,0.67-0.881,1.35-1.301,2.04l-0.26-0.16
			c-0.43,0.7-0.84,1.4-1.24,2.1l0.26,0.14c-0.399,0.7-0.8,1.4-1.159,2.12l-0.271-0.14c-0.37,0.72-0.74,1.44-1.1,2.18l0.3,0.12
			c-0.36,0.73-0.7,1.46-1.021,2.2l-0.26-0.12c-0.33,0.74-0.64,1.5-0.93,2.24l0.28,0.1c-0.3,0.76-0.57,1.52-0.841,2.28l-0.279-0.1
			c-0.271,0.76-0.53,1.53-0.771,2.3l0.28,0.1c-0.24,0.76-0.47,1.53-0.68,2.3l-0.301-0.07c-0.199,0.78-0.399,1.56-0.6,2.35l0.3,0.07
			c-0.18,0.8-0.35,1.57-0.5,2.37l-0.3-0.06c-0.16,0.8-0.3,1.6-0.43,2.4l0.3,0.04c-0.14,0.8-0.25,1.58-0.35,2.4l-0.3-0.05
			c-0.101,0.8-0.181,1.6-0.25,2.4l0.3,0.04c-0.08,0.8-0.13,1.62-0.17,2.42h-0.3c-0.051,0.8-0.08,1.6-0.101,2.4l0.3,0.02
			c0,0.4,0,0.8,0,1.2c0,0.4,0,0.82,0,1.22h-0.3c0.021,0.82,0.05,1.63,0.101,2.43l0.3-0.03c0.04,0.8,0.1,1.62,0.17,2.42h-0.3
			c0.069,0.82,0.149,1.63,0.25,2.43l0.3-0.04c0.1,0.8,0.2,1.6,0.34,2.38l-0.3,0.05c0.13,0.8,0.279,1.6,0.43,2.4l0.3-0.07
			c0.15,0.8,0.32,1.58,0.5,2.37l-0.3,0.06c0.2,0.78,0.4,1.57,0.6,2.35l0.301-0.08c0.199,0.78,0.439,1.55,0.68,2.3l-0.3,0.1
			c0.25,0.78,0.5,1.55,0.78,2.3l0.279-0.1c0.271,0.77,0.55,1.53,0.84,2.27l-0.27,0.1c0.3,0.77,0.6,1.52,0.939,2.26l0.271-0.12
			c0.33,0.74,0.67,1.47,1.021,2.2l-0.28,0.12c0.35,0.73,0.72,1.46,1.1,2.17l0.26-0.14c0.37,0.72,0.761,1.43,1.16,2.13l-0.26,0.14
			c0.399,0.7,0.8,1.4,1.24,2.1l0.25-0.17c0.42,0.7,0.859,1.37,1.3,2.03l-0.25,0.17c0.45,0.67,0.92,1.34,1.4,2l0.229-0.18
			c0.479,0.65,0.96,1.3,1.45,1.93l-0.23,0.2c0.5,0.63,1,1.26,1.521,1.88l0.229-0.2c0.521,0.62,1.051,1.23,1.58,1.83l-0.22,0.2
			c0.55,0.6,1.1,1.18,1.67,1.77l0.2-0.2c0.57,0.57,1.14,1.14,1.72,1.7l-0.22,0.2c0.58,0.58,1.18,1.13,1.779,1.67l0.2-0.22
			c0.601,0.53,1.2,1.06,1.83,1.58l-0.2,0.23c0.601,0.52,1.24,1.03,1.881,1.52l0.199-0.23c0.62,0.5,1.271,0.97,1.92,1.45l-0.18,0.24
			c0.66,0.479,1.33,0.95,2,1.4l0.17-0.25c0.65,0.44,1.33,0.88,2.021,1.3l-0.16,0.26c0.7,0.44,1.38,0.85,2.1,1.25l0.13-0.26
			c0.7,0.4,1.4,0.78,2.101,1.15l-0.12,0.27c0.7,0.37,1.439,0.73,2.17,1.08l0.13-0.27c0.72,0.35,1.45,0.7,2.2,1l-0.13,0.28
			c0.739,0.34,1.5,0.65,2.239,0.94l0.101-0.27c0.75,0.3,1.5,0.57,2.271,0.84l-0.101,0.3c0.76,0.26,1.53,0.52,2.3,0.76l0.101-0.3
			c0.76,0.25,1.529,0.48,2.3,0.7l-0.07,0.28c0.78,0.22,1.57,0.42,2.35,0.6l0.07-0.3c0.8,0.2,1.57,0.36,2.37,0.52l-0.07,0.3
			c0.8,0.15,1.601,0.3,2.4,0.42l0.04-0.3c0.8,0.13,1.6,0.25,2.4,0.35l-0.051,0.3c0.801,0.1,1.601,0.18,2.4,0.25l0.04-0.3
			c0.8,0.07,1.6,0.13,2.399,0.17v0.3c0.801,0.05,1.601,0.07,2.421,0.1v-0.3L892.8,261.34z"/>
		<path id="_x33_-5x_ROI" fill="#00181B" d="M857.87,215.6h0.76v-1.83h4.88c0.13,0,0.221,0,0.351-0.02c0.05-0.02,0.13-0.02,0.2-0.02
			v0.04c-0.061,0.02-0.101,0.05-0.15,0.1c-0.1,0.08-0.18,0.17-0.25,0.26l-3.7,4.34l0.229,0.57c0.07,0,0.16,0,0.25,0
			c0.16-0.03,0.381-0.03,0.601-0.03c1.7,0,3.36,1.07,3.36,3c0,1.87-1.58,3.13-3.16,3.13c-1.03,0-1.87-0.38-2.471-0.8
			c-0.34-0.23-0.64-0.48-0.899-0.8l-0.601,0.6c0.32,0.3,0.681,0.6,1.07,0.85c0.7,0.44,1.66,0.9,2.86,0.9c2.18,0,4-1.7,4-3.87
			c0-2.96-2.65-3.7-4.16-3.7l4.07-4.7v-0.55h-7.23v2.54L857.87,215.6z M868.5,220.92h4.97v-0.72h-4.97V220.92z M875.939,224.22
			c0.24,0.3,0.541,0.58,0.881,0.82c0.6,0.4,1.479,0.83,2.699,0.83c2.42,0,4.32-1.86,4.32-4.13c0-2.26-1.83-4-4.2-4
			c-0.67,0-1.229,0.13-1.649,0.28c-0.24,0.1-0.44,0.18-0.641,0.3h-0.029l0.029-0.18l0.08-0.34l0.48-4.03h4.4v1.82h0.77v-2.55h-5.86
			l-0.72,6l0.57,0.2c0.199-0.15,0.439-0.28,0.699-0.4c0.461-0.2,1.08-0.38,1.801-0.38c1.96,0,3.43,1.3,3.43,3.38
			c0,1.73-1.53,3.28-3.5,3.28c-1,0-1.75-0.36-2.26-0.72c-0.3-0.2-0.54-0.44-0.73-0.7l-0.6,0.53L875.939,224.22z M885.24,225.65h1.92
			l2.2-3.64c0.1-0.1,0.159-0.24,0.2-0.33l0.079-0.14h0.04c0.021,0.05,0.051,0.1,0.101,0.14l0.17,0.33l2.229,3.65h1.93v-0.7h-1.47
			l-2.479-3.98l2.27-3.62H894v-0.7h-2.02l-2,3.26l-0.2,0.35l-0.08,0.14h-0.04c-0.021-0.06-0.03-0.1-0.07-0.17l-0.2-0.3l-2-3.28
			h-2.04v0.7h1.601l2.229,3.6l-2.449,4h-1.5v0.7L885.24,225.65z M899.84,225.65H904v-0.72h-1.7v-4.86h2.101
			c0.88,0,1.1,0.18,1.5,0.83l2.239,3.8c0.5,0.82,0.63,0.95,1.73,0.95h0.33v-0.72h-0.341c-0.5,0-0.699-0.05-0.93-0.4l-2.37-4.05
			c-0.1-0.16-0.18-0.27-0.26-0.34l-0.1-0.1V220c1.85-0.24,3-1.64,3-3.6c0-1.64-0.771-2.6-1.94-3.06c-0.7-0.24-1.32-0.3-2.16-0.3
			h-5.3v0.73h1.7v11.16h-1.7v0.72H899.84z M902.31,219.35v-5.58h2.8c0.671,0,1.301,0.05,1.78,0.25c0.96,0.36,1.55,1.12,1.55,2.4
			c0,1.76-1.13,2.93-2.8,2.93h-3.319H902.31z M911.89,219.25c0,3.7,2.86,6.62,6.37,6.62s6.37-2.92,6.37-6.6
			c0-3.63-2.86-6.44-6.37-6.44s-6.37,2.8-6.37,6.43V219.25z M912.689,219.25c0-3.23,2.471-5.68,5.57-5.68
			c3.101,0,5.561,2.45,5.561,5.7c0,3.3-2.461,5.86-5.551,5.86s-5.56-2.56-5.56-5.87L912.689,219.25z M926.55,225.65h4.2v-0.72H929
			v-11.16h1.7v-0.72h-4.181v0.72h1.7v11.16h-1.7v0.72H926.55z"/>
	</g>
</g>
</svg>
