<svg xmlns="http://www.w3.org/2000/svg" width="47" height="58" xmlns:xlink="http://www.w3.org/1999/xlink"><title>cost savings icon</title><desc>Created using Figma</desc><g><g><use xlink:href="#a" transform="translate(-2756 -1106) translate(2757 1115.72)"/><use xlink:href="#b" transform="translate(-2756 -1106) translate(2779.5 1113.54)"/><use xlink:href="#c" transform="translate(-2756 -1106) translate(2766.44 1122.26)"/><use fill="#00BFD6" xlink:href="#d" transform="translate(-2756 -1106) translate(2775.87 1127.34)"/><use xlink:href="#e" transform="translate(-2756 -1106) translate(2779.5 1107)"/><use xlink:href="#f" transform="translate(-2756 -1106) translate(2772.97 1151.32)"/><use xlink:href="#g" transform="translate(-2756 -1106) translate(2791.84 1122.98)"/><use xlink:href="#h" transform="translate(-2756 -1106) translate(2762.08 1122.98)"/></g></g><defs><path id="a" d="M22.5 42.3c.5 0 .9-.4.9-.9 0-.48-.4-.9-.9-.9v1.8zM12.74.8c.45-.2.63-.75.4-1.2-.2-.44-.75-.63-1.2-.4l.8 1.6zm9.76 39.7C10.55 40.5.9 31.1.9 19.54H-.9c0 12.6 10.5 22.78 23.4 22.78v-1.8zM.9 19.54C.9 11.37 5.7 4.27 12.74.8l-.8-1.6C4.35 2.93-.9 10.62-.9 19.52H.9z"/><path id="b" d="M0-.9c-.5 0-.9.4-.9.9s.4.9.9.9V-.9zm9.75 41.5c-.44.23-.63.77-.4 1.2.2.46.75.64 1.2.42l-.8-1.6zM0 .9c11.95 0 21.6 9.42 21.6 20.98h1.8C23.4 9.28 12.9-.9 0-.9V.9zm21.6 20.98c0 8.17-4.8 15.26-11.85 18.73l.8 1.62c7.6-3.75 12.85-11.44 12.85-20.34h-1.8z"/><path id="c" d="M.9 12.71C.9 6.2 6.2.9 12.7.9V-.9C5.2-.9-.9 5.2-.9 12.72H.9zM12.7.9c6.52 0 11.8 5.3 11.8 11.8l1.8.02C26.3 5.2 20.2-.9 12.7-.9V.9zm11.8 11.8c0 6.54-5.28 11.83-11.8 11.83v1.8c7.5 0 13.6-6.1 13.6-13.6l-1.8-.02zM12.7 24.55C6.2 24.53.9 19.23.9 12.7l-1.8.02c0 7.5 6.1 13.6 13.6 13.6v-1.8z"/><path id="d" fill-rule="evenodd" d="M2.97 15.98v-1.96C1.84 14 .67 13.65 0 13.16l.47-1.3c.7.46 1.7.83 2.8.83 1.37 0 2.3-.8 2.3-1.9 0-1.08-.76-1.75-2.2-2.33C1.4 7.7.18 6.8.18 5.1c0-1.6 1.15-2.84 2.93-3.13V0h1.2v1.9c1.17.03 1.97.34 2.53.67l-.5 1.28c-.4-.23-1.2-.66-2.43-.66-1.5 0-2.06.9-2.06 1.67 0 1 .72 1.52 2.4 2.22 2 .8 3.02 1.82 3.02 3.55 0 1.54-1.07 2.98-3.07 3.3V16H2.96z"/><path id="e" d="M5.17 12.26c.35.35.92.35 1.27 0s.35-.92 0-1.27l-1.27 1.26zM0 5.8l-.64-.62c-.35.35-.35.92 0 1.27L0 5.8zM6.44.65c.35-.36.35-.93 0-1.28s-.92-.35-1.27 0L6.44.64zm0 10.35L.64 5.17-.64 6.45l5.8 5.8L6.45 11zM.64 6.44l5.8-5.8-1.27-1.3-5.8 5.83L.63 6.45z"/><path id="f" d="M.64-.64C.3-1-.28-1-.64-.64-1-.3-1 .28-.64.64L.64-.64zM5.8 5.8l.64.65c.35-.35.35-.92 0-1.27l-.63.63zM-.63 11c-.35.34-.35.9 0 1.26.36.35.93.35 1.28 0L-.64 11zm0-10.36l5.8 5.8L6.45 5.2.64-.64-.64.64zm5.8 4.54l-5.8 5.8 1.28 1.28 5.8-5.8-1.27-1.28z"/><path id="g" d="M.64-.63C.3-1-.28-1-.63-.63-1-.3-1 .26-.63.62L.63-.63zm-1.28 24.7c-.35.35-.35.92 0 1.27.36.35.93.35 1.28 0l-1.28-1.27zm0-23.44C5.8 7.1 5.8 17.6-.64 24.07l1.28 1.27c7.12-7.18 7.12-18.8 0-25.97L-.64.63z"/><path id="h" d="M4.44 25.34c.35.35.92.35 1.27 0 .37-.35.37-.92.02-1.27l-1.28 1.27zM5.72.64c.35-.36.35-.93 0-1.28-.36-.35-.93-.35-1.28 0L5.72.64zm0 23.43C-.7 17.6-.7 7.1 5.72.63L4.44-.63c-7.12 7.17-7.12 18.8 0 25.97l1.28-1.27z"/></defs></svg>