<svg xmlns="http://www.w3.org/2000/svg" xmlns:xlink="http://www.w3.org/1999/xlink" width="207" height="45" viewBox="0 0 207 45"><defs><path id="k1xja" d="M.06.18h196.48V45H.06z"/><path id="k1xjc" d="M46.88 13.5c.8 0 1.5.27 2.13.81.62.54.94 1.21.94 2 0 .42-.09.8-.25 1.13L39.32 42.75a2.94 2.94 0 0 1-1.25 1.54 3.68 3.68 0 0 1-3.81 0c-.59-.36-1-.87-1.25-1.53l-8.13-20.07-7.94 20.07a2.98 2.98 0 0 1-1.22 1.53 3.73 3.73 0 0 1-3.81 0 3.21 3.21 0 0 1-1.35-1.53L.25 17.44a2.52 2.52 0 0 1 .78-3.13 3.6 3.6 0 0 1 2.28-.81c1.25 0 2.1.6 2.57 1.81l8.06 21.32 8.25-21.13c.25-.67.65-1.17 1.19-1.5a3.19 3.19 0 0 1 3.44 0c.54.33.93.83 1.18 1.5l8.26 21 8.06-21.13c.46-1.24 1.31-1.87 2.56-1.87"/><path id="k1xjd" d="M77.38 37.56c.37.46.56 1.05.56 1.75 0 1.21-.75 2.23-2.25 3.07a19.77 19.77 0 0 1-4.78 1.93c-1.73.46-3.39.7-4.97.7-4.84 0-8.65-1.41-11.44-4.23-2.8-2.8-4.19-6.65-4.19-11.53 0-3.13.61-5.9 1.84-8.31a13.56 13.56 0 0 1 5.2-5.63 14.5 14.5 0 0 1 7.59-2c4.08 0 7.31 1.31 9.69 3.94 2.37 2.62 3.56 6.17 3.56 10.63 0 1.66-.75 2.5-2.25 2.5H56.62c.42 6.46 3.53 9.69 9.32 9.69 1.54 0 2.87-.21 4-.63 1.12-.42 2.31-.96 3.56-1.63.13-.08.47-.26 1.03-.53.57-.27 1.04-.4 1.41-.4.58 0 1.06.23 1.44.68zM59.25 20.25c-1.46 1.54-2.33 3.7-2.63 6.5h16.13c-.12-2.83-.84-5.01-2.15-6.53-1.32-1.52-3.16-2.28-5.54-2.28-2.41 0-4.35.77-5.81 2.3z"/><path id="k1xje" d="M82.6 44.13c-.6-.5-.91-1.26-.91-2.26V3.24c0-1 .3-1.76.9-2.28.61-.52 1.37-.78 2.29-.78.91 0 1.66.26 2.25.78.58.52.87 1.28.87 2.28v38.63c0 1-.29 1.76-.87 2.26-.59.5-1.34.74-2.25.74-.92 0-1.68-.24-2.28-.74"/><path id="k1xjf" d="M94.29 44.13c-.6-.5-.91-1.26-.91-2.26V3.24c0-1 .3-1.76.9-2.28.61-.52 1.37-.78 2.29-.78.91 0 1.66.26 2.25.78.58.52.87 1.28.87 2.28v38.63c0 1-.29 1.76-.87 2.26-.59.5-1.34.74-2.25.74-.92 0-1.68-.24-2.28-.74"/><path id="k1xjg" d="M132.32 1c.59.53.88 1.26.88 2.18v38.63c0 .96-.28 1.71-.84 2.25-.57.54-1.33.81-2.29.81s-1.72-.27-2.28-.8a2.98 2.98 0 0 1-.84-2.26v-2.5a9.65 9.65 0 0 1-4 4.22 12.2 12.2 0 0 1-6.07 1.47c-2.62 0-4.97-.67-7.03-2a13.28 13.28 0 0 1-4.81-5.63 19.18 19.18 0 0 1-1.72-8.31c0-3.17.57-5.94 1.72-8.31a13.03 13.03 0 0 1 4.78-5.5c2.04-1.3 4.4-1.94 7.06-1.94 2.3 0 4.3.49 6.04 1.47a9.81 9.81 0 0 1 3.97 4.15V3.06c0-.88.28-1.58.84-2.1a3.23 3.23 0 0 1 2.28-.78c.96 0 1.73.27 2.31.81zm-7.62 36.19c1.5-1.88 2.25-4.54 2.25-8s-.74-6.13-2.22-8c-1.48-1.88-3.6-2.82-6.35-2.82-2.75 0-4.88.93-6.4 2.78-1.53 1.86-2.29 4.5-2.29 7.91 0 3.42.78 6.1 2.32 8.03 1.54 1.94 3.66 2.9 6.37 2.9s4.82-.93 6.32-2.8z"/><path id="k1xjh" d="M143.92 43.06a13.07 13.07 0 0 1-5.26-5.53 18.06 18.06 0 0 1-1.84-8.34c0-3.21.62-6.01 1.84-8.41a13.08 13.08 0 0 1 5.26-5.53c2.27-1.3 4.9-1.94 7.9-1.94s5.64.65 7.91 1.94a13.1 13.1 0 0 1 5.25 5.53 18.2 18.2 0 0 1 1.85 8.4c0 3.18-.62 5.96-1.85 8.35a13.08 13.08 0 0 1-5.25 5.54 15.7 15.7 0 0 1-7.9 1.93c-3 0-5.64-.64-7.91-1.93zm14.31-5.8c1.48-1.84 2.22-4.53 2.22-8.07 0-3.5-.75-6.18-2.25-8.03-1.5-1.86-3.63-2.79-6.38-2.79s-4.87.93-6.37 2.79c-1.5 1.85-2.25 4.53-2.25 8.03 0 3.54.74 6.23 2.22 8.06 1.48 1.84 3.61 2.75 6.4 2.75 2.8 0 4.93-.91 6.41-2.75z"/><path id="k1xji" d="M177.25 43.06a13.23 13.23 0 0 1-5.19-5.5 17.7 17.7 0 0 1-1.84-8.25c0-3.16.64-5.96 1.9-8.37a13.8 13.8 0 0 1 5.35-5.63c2.3-1.33 4.92-2 7.88-2 1.58 0 3.17.23 4.78.69 1.6.46 3.03 1.08 4.28 1.87 1.34.92 2 1.98 2 3.2 0 .7-.18 1.3-.56 1.77-.37.48-.85.72-1.44.72-.37 0-.75-.1-1.12-.28-.38-.19-.86-.47-1.44-.84a17.39 17.39 0 0 0-2.9-1.53 8.77 8.77 0 0 0-3.23-.54c-2.83 0-5.03.96-6.6 2.88-1.55 1.92-2.34 4.58-2.34 8s.77 6.05 2.32 7.9c1.54 1.86 3.73 2.79 6.56 2.79 1.25 0 2.35-.19 3.31-.56.96-.38 1.94-.88 2.94-1.5.46-.3.92-.54 1.38-.75.46-.21.87-.31 1.25-.31.58 0 1.06.23 1.44.71.37.48.56 1.08.56 1.78 0 .59-.16 1.12-.47 1.6-.31.48-.84.97-1.6 1.47a14.95 14.95 0 0 1-4.37 1.94 19 19 0 0 1-5.06.68c-2.96 0-5.56-.64-7.79-1.93"/><path id="k1xjj" d="M205.8 12.32c.3.52.46 1.1.46 1.75a3.43 3.43 0 0 1-1.7 3c-.52.3-1.1.45-1.74.45a3.44 3.44 0 0 1-3-1.7c-.3-.52-.45-1.1-.45-1.75a3.3 3.3 0 0 1 1.7-2.98c.52-.3 1.1-.46 1.75-.46a3.43 3.43 0 0 1 2.99 1.7zm-1.5 4.29c.43-.25.77-.6 1.02-1.05.25-.45.37-.94.37-1.5 0-.54-.12-1.03-.37-1.47-.25-.45-.59-.8-1.03-1.05a2.88 2.88 0 0 0-1.47-.38 2.9 2.9 0 0 0-1.48.38c-.44.26-.78.6-1.03 1.05a3 3 0 0 0-.37 1.48c0 .55.12 1.04.37 1.49.25.45.59.8 1.03 1.05.44.25.93.38 1.48.38.54 0 1.04-.13 1.47-.38zm.26-1.2c.08.1.12.2.12.3 0 .13-.06.23-.17.32a.6.6 0 0 1-.37.12.52.52 0 0 1-.46-.24l-.77-1.1a.6.6 0 0 0-.15-.18.39.39 0 0 0-.21-.05h-.26v1.03c0 .17-.05.3-.14.4-.1.1-.23.14-.38.14a.55.55 0 0 1-.4-.14c-.09-.1-.14-.23-.14-.4v-3.07c0-.16.04-.29.13-.37.08-.09.2-.13.36-.13h1.37c.48 0 .84.1 1.1.33.26.22.38.53.38.92 0 .3-.08.57-.25.78-.16.21-.4.35-.7.42.11.03.22.08.31.14.1.07.19.17.29.3zm-1.62-1.61c.22 0 .38-.04.47-.11.1-.07.14-.2.14-.36 0-.18-.05-.3-.14-.38-.1-.07-.25-.1-.46-.1h-.67v.95z"/><clipPath id="k1xjb"><use xlink:href="#k1xja"/></clipPath></defs><g><g><g/><g clip-path="url(#k1xjb)"><use fill="#fffffe" xlink:href="#k1xjc"/></g><g clip-path="url(#k1xjb)"><use fill="#fffffe" xlink:href="#k1xjd"/></g><g clip-path="url(#k1xjb)"><use fill="#fffffe" xlink:href="#k1xje"/></g><g clip-path="url(#k1xjb)"><use fill="#fffffe" xlink:href="#k1xjf"/></g><g clip-path="url(#k1xjb)"><use fill="#fffffe" xlink:href="#k1xjg"/></g><g clip-path="url(#k1xjb)"><use fill="#fffffe" xlink:href="#k1xjh"/></g><g clip-path="url(#k1xjb)"><use fill="#fffffe" xlink:href="#k1xji"/></g></g><g><use fill="#fffffe" xlink:href="#k1xjj"/></g></g></svg>