<svg xmlns="http://www.w3.org/2000/svg" width="58" height="58" xmlns:xlink="http://www.w3.org/1999/xlink"><title>clincial validation icon</title><desc>Created using Figma</desc><g><g><use xlink:href="#a" transform="translate(-1138 455) translate(1149 -427)"/><use xlink:href="#a" transform="translate(-1138 455) translate(1184 -427)"/><use fill="#00BFD6" xlink:href="#b" transform="translate(-1138 455) translate(1145 -448)"/><use fill="#00BFD6" xlink:href="#c" transform="translate(-1138 455) translate(1140 -453)"/><use fill="#00BFD6" xlink:href="#d" transform="translate(-1138 455) translate(1154 -439)"/></g></g><defs><path id="a" fill-rule="evenodd" d="M2 1c0 .55-.45 1-1 1s-1-.45-1-1 .45-1 1-1 1 .45 1 1z"/><path id="b" d="M43.5 22.5c0 11.6-9.4 21-21 21v3c13.25 0 24-10.75 24-24h-3zm-21 21c-11.6 0-21-9.4-21-21h-3c0 13.25 10.74 24 24 24v-3zm-21-21c0-11.6 9.4-21 21-21v-3c-13.26 0-24 10.75-24 24h3zm21-21c11.6 0 21 9.4 21 21h3c0-13.25-10.75-24-24-24v3z"/><path id="c" d="M1.5 27C1.5 12.92 12.92 1.5 27 1.5v-3C11.26-1.5-1.5 11.26-1.5 27h3zM27 1.5c14.08 0 25.5 11.42 25.5 25.5h3C55.5 11.26 42.74-1.5 27-1.5v3zM52.5 27c0 14.08-11.42 25.5-25.5 25.5v3c15.74 0 28.5-12.76 28.5-28.5h-3zM27 52.5C12.92 52.5 1.5 41.08 1.5 27h-3c0 15.74 12.76 28.5 28.5 28.5v-3z"/><path id="d" d="M27 9.75h1.5c0-.83-.67-1.5-1.5-1.5v1.5zm-9.75 0h-1.5c0 .83.67 1.5 1.5 1.5v-1.5zm0-9.75h1.5c0-.83-.67-1.5-1.5-1.5V0zm-7.5 0v-1.5c-.83 0-1.5.67-1.5 1.5h1.5zm0 9.75v1.5c.83 0 1.5-.67 1.5-1.5h-1.5zM0 9.75v-1.5c-.83 0-1.5.67-1.5 1.5H0zm0 7.5h-1.5c0 .83.67 1.5 1.5 1.5v-1.5zm9.75 0h1.5c0-.83-.67-1.5-1.5-1.5v1.5zm0 9.75h-1.5c0 .83.67 1.5 1.5 1.5V27zm7.5 0v1.5c.83 0 1.5-.67 1.5-1.5h-1.5zm0-9.75v-1.5c-.83 0-1.5.67-1.5 1.5h1.5zm9.75 0v1.5c.83 0 1.5-.67 1.5-1.5H27zm0-9h-9.75v3H27v-3zm-8.25 1.5V0h-3v9.75h3zM17.25-1.5h-7.5v3h7.5v-3zm-9 1.5v9.75h3V0h-3zm1.5 8.25H0v3h9.75v-3zM-1.5 9.75v7.5h3v-7.5h-3zm1.5 9h9.75v-3H0v3zm8.25-1.5V27h3v-9.75h-3zm1.5 11.25h7.5v-3h-7.5v3zm9-1.5v-9.75h-3V27h3zm-1.5-8.25H27v-3h-9.75v3zm11.25-1.5v-7.5h-3v7.5h3z"/></defs></svg>