<?xml version="1.0" encoding="UTF-8"?>
<svg width="11px" height="12px" viewBox="0 0 11 12" version="1.1" xmlns="http://www.w3.org/2000/svg" xmlns:xlink="http://www.w3.org/1999/xlink">
    <!-- Generator: Sketch 53 (72520) - https://sketchapp.com -->
    <title></title>
    <desc>Created with Sketch.</desc>
    <g id="Home" stroke="none" stroke-width="1" fill="none" fill-rule="evenodd">
        <g id="Home-Screen" transform="translate(-990.000000, -24.000000)" fill="#FFFFFF" fill-rule="nonzero">
            <path d="M997.593732,30.0000143 L1000.71872,33.1250069 C1000.90622,33.3125064 1000.99997,33.5416724 1000.99997,33.8125052 C1000.99997,34.0833381 1000.90622,34.3229205 1000.71872,34.5312535 L1000.03123,35.2187519 C999.822893,35.4062514 999.583311,35.5000012 999.312478,35.5000012 C999.041645,35.5000012 998.812479,35.4062514 998.624979,35.2187519 L995.499987,32.0937593 L992.374994,35.2187519 C992.187495,35.4062514 991.958329,35.5000012 991.687496,35.5000012 C991.416663,35.5000012 991.177081,35.4062514 990.968748,35.2187519 L990.281249,34.5312535 C990.09375,34.3229205 990,34.0833381 990,33.8125052 C990,33.5416724 990.09375,33.3125064 990.281249,33.1250069 L993.406242,30.0000143 L990.281249,26.8750218 C990.09375,26.6875222 990,26.4583562 990,26.1875234 C990,25.9166905 990.09375,25.6771081 990.281249,25.4687751 L990.968748,24.7812767 C991.177081,24.5937772 991.416663,24.5000274 991.687496,24.5000274 C991.958329,24.5000274 992.187495,24.5937772 992.374994,24.7812767 L995.499987,27.9062693 L998.624979,24.7812767 C998.812479,24.5937772 999.041645,24.5000274 999.312478,24.5000274 C999.583311,24.5000274 999.822893,24.5937772 1000.03123,24.7812767 L1000.71872,25.4687751 C1000.90622,25.6771081 1000.99997,25.9166905 1000.99997,26.1875234 C1000.99997,26.4583562 1000.90622,26.6875222 1000.71872,26.8750218 L997.593732,30.0000143 Z" id=""></path>
        </g>
    </g>
</svg>