<?xml version="1.0" encoding="UTF-8"?>
<svg width="461px" height="462px" viewBox="0 0 461 462" version="1.1" xmlns="http://www.w3.org/2000/svg" xmlns:xlink="http://www.w3.org/1999/xlink">
    <title>Group 413</title>
    <g id="Welldoc-Website" stroke="none" stroke-width="1" fill="none" fill-rule="evenodd" opacity="0.387393043">
        <g id="New-Home-Page" transform="translate(-228.000000, -4473.000000)" stroke="#484E5C" stroke-width="0.303">
            <g id="Group-15" transform="translate(-7.000000, 4404.000000)">
                <g id="Group-413" transform="translate(235.000000, 69.000000)">
                    <polygon id="Stroke-1" points="143.21135 443.711652 128 436.355882 151.014557 445.237169 163 451.355882"></polygon>
                    <polygon id="Stroke-2" points="298 451.355882 308.745385 445.238192 332 436.355882 317.986633 443.711545"></polygon>
                    <polygon id="Stroke-3" points="456 275.355882 457.633293 246.596148 460 227.355882 458.361882 255.925173"></polygon>
                    <polygon id="Stroke-5" points="90.7666091 413.013256 73 398.355882 92.1986022 412.090595 108 425.355882"></polygon>
                    <polygon id="Stroke-6" points="353 425.355882 367.497777 412.089316 387 398.355882 370.493966 413.014953"></polygon>
                    <polygon id="Stroke-7" points="426 110.355882 408.358016 87.4381105 399 74.3558824 415.548998 95.7676292"></polygon>
                    <polygon id="Stroke-8" points="399 75.3558824 378.169991 56.94812 367 46.3558824 386.116354 63.1510048"></polygon>
                    <polygon id="Stroke-9" points="21.8269101 135.590293 34 110.355882 26.7897228 125.807862 14 152.355882"></polygon>
                    <polygon id="Stroke-10" points="446 152.355882 432.389192 125.808584 426 110.355882 439.037664 135.589742"></polygon>
                    <polygon id="Stroke-11" points="12.3877167 302.461381 5 275.355882 11.7388847 294.534736 19 321.355882"></polygon>
                    <polygon id="Stroke-12" points="441 321.355882 447.864312 294.534286 456 275.355882 448.957249 302.459156"></polygon>
                    <polygon id="Stroke-13" points="162.774623 451.085752 151 445.355882 175.74063 451.490947 184 456.355882"></polygon>
                    <polygon id="Stroke-14" points="276 456.355882 283.269741 451.487499 309 445.355882 298.070625 451.084616"></polygon>
                    <polygon id="Stroke-15" points="58.2901328 383.224303 43 363.355882 58.8490062 379.612596 73 398.355882"></polygon>
                    <polygon id="Stroke-16" points="387 398.355882 400.282874 379.61509 417 363.355882 402.499821 383.224667"></polygon>
                    <polygon id="Stroke-17" points="174.271039 8.97797323 186 6.35588235 172.54067 9.76925509 157 13.3558824"></polygon>
                    <polygon id="Stroke-18" points="304 13.3558824 287.289929 9.76931905 274 6.35588235 286.945729 8.97862137"></polygon>
                    <polygon id="Stroke-19" points="30.837766 345.753522 19 321.355882 30.6861702 339.709945 42 363.355882"></polygon>
                    <polygon id="Stroke-20" points="417 363.355882 427.90607 339.709602 441 321.355882 429.490192 345.753963"></polygon>
                    <polygon id="Stroke-21" points="6.37904994 180.05907 14 152.355882 10.8433618 169.639826 3 198.355882"></polygon>
                    <polygon id="Stroke-22" points="457 198.355882 448.265918 169.63609 446 152.355882 454.539076 180.057435"></polygon>
                    <polygon id="Stroke-23" points="107.587 37.1581063 127 26.3558824 114.906388 33.9915721 93 46.3558824"></polygon>
                    <polygon id="Stroke-24" points="367 46.3558824 344.481534 33.9905614 333 26.3558824 353.139166 37.1593238"></polygon>
                    <g id="Group-33" transform="translate(176.000000, 450.355882)">
                        <polygon id="Stroke-25" points="8.3887878 5.98565 0.0367146341 0.8349 26.5575927 4.81415 31.1113 9.4039"></polygon>
                        <polygon id="Stroke-27" points="77.938139 9.412425 81.2600171 4.822675 107.962285 0.848925 100.812261 5.999675"></polygon>
                        <polygon id="Stroke-29" points="31.1099463 9.404175 26.556239 4.814425 53.8784829 6.159175 54.4984585 10.559175"></polygon>
                        <polygon id="Stroke-31" points="54.499 10.559175 53.8790244 6.159175 81.2608293 4.822675 77.9389512 9.412425"></polygon>
                    </g>
                    <polygon id="Stroke-34" points="107.687761 425.670561 92 412.355882 114.710421 424.265168 128 436.355882"></polygon>
                    <polygon id="Stroke-35" points="332 436.355882 344.028389 424.262439 367 412.355882 352.53739 425.670858"></polygon>
                    <polygon id="Stroke-36" points="156.663808 13.3018283 172 9.35588235 159.832554 14.0671199 141 19.3558824"></polygon>
                    <polygon id="Stroke-37" points="319 19.3558824 298.987138 14.0659449 287 9.35588235 303.563209 13.3013059"></polygon>
                    <g id="Group-42" transform="translate(0.000000, 198.355882)">
                        <polygon id="Stroke-38" points="0.412730588 29.1332222 3.06212471 0.106166667 4.72172471 18.7234444 2.06148353 48.3875"></polygon>
                        <polygon id="Stroke-40" points="457.402031 48.4345944 454.034019 18.7705389 456.702395 0.155983333 460.062272 29.1830389"></polygon>
                    </g>
                    <polygon id="Stroke-43" points="61.0962317 74.409967 81 56.3558824 72.3121684 67.5603763 51 87.3558824"></polygon>
                    <polygon id="Stroke-44" points="408 87.3558824 386.003415 67.5611244 378 56.3558824 398.675712 74.4122216"></polygon>
                    <polygon id="Stroke-45" points="34.1771172 111.059639 51 88.3558824 44.6412787 102.046264 27 126.355882"></polygon>
                    <polygon id="Stroke-46" points="432 126.355882 413.587001 102.046045 408 88.3558824 425.660122 111.0602"></polygon>
                    <polygon id="Stroke-47" points="141.039735 19.4409063 160 14.3558824 149.134278 19.7253832 127 26.3558824"></polygon>
                    <polygon id="Stroke-48" points="333 26.3558824 309.655777 19.7244473 299 14.3558824 319.217251 19.4428983"></polygon>
                    <polygon id="Stroke-49" points="4.70547945 275.098234 2 246.355882 9.331621 265.428622 12 294.355882"></polygon>
                    <polygon id="Stroke-50" points="448 294.355882 449.828047 265.428622 458 246.355882 456.116305 275.100954"></polygon>
                    <polygon id="Stroke-51" points="73.2258065 398.436827 59 379.355882 79.3172043 394.33575 92 412.355882"></polygon>
                    <polygon id="Stroke-52" points="368 412.355882 379.783777 394.335246 401 379.355882 387.594428 398.437682"></polygon>
                    <polygon id="Stroke-53" points="92.928283 45.9671304 115 33.3558824 105.172347 41.9623165 81 56.3558824"></polygon>
                    <polygon id="Stroke-54" points="378 56.3558824 353.22191 41.9592861 344 33.3558824 366.787553 45.9653894"></polygon>
                    <polygon id="Stroke-55" points="127.166842 436.585568 114 424.355882 139.595735 434.145109 150 445.355882"></polygon>
                    <polygon id="Stroke-56" points="309 445.355882 318.174003 434.142184 344 424.355882 332.031463 436.588759"></polygon>
                    <g id="Group-61" transform="translate(214.000000, 0.355882)">
                        <polygon id="Stroke-57" points="15.93955 0.84925 15.3098 4.41175 4.7443 4.75175 0.6358 1.33675"></polygon>
                        <polygon id="Stroke-59" points="31.208375 1.33875 25.851375 4.75125 15.307875 4.41125 15.940375 0.84875"></polygon>
                    </g>
                    <polygon id="Stroke-62" points="14.1929587 151.947365 27 125.355882 24.1563981 141.374782 11 169.355882"></polygon>
                    <polygon id="Stroke-63" points="448 169.355882 433.965588 141.375526 432 125.355882 445.728837 151.946794"></polygon>
                    <polygon id="Stroke-64" points="19.3187351 321.133613 12 294.355882 23.9869875 312.86748 31 339.355882"></polygon>
                    <polygon id="Stroke-65" points="428 339.355882 434.162448 312.86748 447 294.355882 440.494019 321.136317"></polygon>
                    <g id="Group-70" transform="translate(200.000000, 1.355882)">
                        <polygon id="Stroke-66" points="14.7960696 0.425333333 18.8233739 4.068 8.65806957 5.14 0.0562434783 1.97733333"></polygon>
                        <polygon id="Stroke-68" points="59.4072261 1.98266667 49.6085304 5.14533333 39.513313 4.068 44.7644435 0.428"></polygon>
                    </g>
                    <polygon id="Stroke-71" points="42.6994401 362.921058 31 339.355882 48.1476279 356.520841 59 379.355882"></polygon>
                    <polygon id="Stroke-72" points="400 379.355882 409.945265 356.515027 428 339.355882 417.147864 362.918828"></polygon>
                    <polygon id="Stroke-73" points="200.318187 3.35588235 209 6.56128776 199.139747 8.35588235 186 5.94777424"></polygon>
                    <polygon id="Stroke-74" points="274 5.95047695 259.73039 8.35588235 250 6.56128776 259.874363 3.35588235"></polygon>
                    <polygon id="Stroke-75" points="126.951842 25.7492509 149 19.3558824 139.800475 25.245483 115 33.3558824"></polygon>
                    <polygon id="Stroke-76" points="344 33.3558824 317.959978 25.2474282 309 19.3558824 332.342453 25.7535476"></polygon>
                    <polygon id="Stroke-77" points="3 197.898633 11.2357907 169.355882 13 186.771386 4.72481711 216.355882"></polygon>
                    <polygon id="Stroke-78" points="454.405088 216.355882 446 186.768687 448.605472 169.355882 457 197.901332"></polygon>
                    <polygon id="Stroke-79" points="150.291444 444.76936 140 433.355882 167.754011 440.717617 175 451.355882"></polygon>
                    <polygon id="Stroke-80" points="284 451.355882 290.221918 441.30396 319 434.355882 309.619178 445.14029"></polygon>
                    <polygon id="Stroke-81" points="185.66295 5.35588235 199 7.82673188 189.612418 10.3558824 172 9.01773688"></polygon>
                    <polygon id="Stroke-82" points="287 9.02328935 268.915497 10.3558824 260 7.82673188 274.017691 5.35588235"></polygon>
                    <polygon id="Stroke-83" points="80.8373253 56.9752263 105 42.3558824 97.7929142 51.7593208 72 68.3558824"></polygon>
                    <polygon id="Stroke-84" points="386 68.3558824 359.607116 51.7545958 353 42.3558824 377.871112 56.9748848"></polygon>
                    <polygon id="Stroke-85" points="51.4460039 87.4662405 73 67.3558824 67.5473684 79.3529782 45 101.355882"></polygon>
                    <polygon id="Stroke-86" points="414 101.355882 390.749291 79.3510429 386 67.3558824 408.349604 87.4684812"></polygon>
                    <polygon id="Stroke-87" points="91.6623725 412.34933 79 394.355882 103.243156 407.298825 114 424.355882"></polygon>
                    <polygon id="Stroke-88" points="344 424.355882 353.823703 407.295345 379 394.355882 367.189267 412.35042"></polygon>
                    <polygon id="Stroke-89" points="172.461496 9.35588235 190 10.5201336 181.468647 13.2761722 160 13.3558824"></polygon>
                    <polygon id="Stroke-90" points="299 13.3558824 277.11245 13.2713923 269 10.5146029 287.144578 9.35588235"></polygon>
                    <polygon id="Stroke-91" points="175.367664 451.506015 168 441.355882 197.951863 445.66337 202 455.355882"></polygon>
                    <polygon id="Stroke-92" points="257 455.355882 259.831136 445.656205 290 441.355882 283.823718 451.510606"></polygon>
                    <polygon id="Stroke-93" points="2 246.166268 4.78061224 216.355882 12 234.908032 9.28174603 265.355882"></polygon>
                    <polygon id="Stroke-94" points="449.22642 265.355882 446 234.906996 453.712705 216.355882 457 246.167339"></polygon>
                    <polygon id="Stroke-95" points="26.900171 125.58002 45 101.355882 42.5528081 115.448016 24 141.355882"></polygon>
                    <polygon id="Stroke-96" points="434 141.355882 415.536004 115.445169 414 101.355882 432.099295 125.583207"></polygon>
                    <polygon id="Stroke-97" points="201.988085 455.054406 198 445.355882 228.392419 446.809064 229 456.355882"></polygon>
                    <polygon id="Stroke-98" points="229.618257 456.355882 229 446.804442 260 445.355882 257.164734 455.061765"></polygon>
                    <polygon id="Stroke-99" points="114.795511 33.7038542 140 25.3558824 132.519941 32.0369747 105 42.3558824"></polygon>
                    <polygon id="Stroke-100" points="353 42.3558824 324.997287 32.0359079 318 25.3558824 343.824031 33.7052357"></polygon>
                    <polygon id="Stroke-101" points="159.875941 14.4385063 181 14.3558824 173.587907 17.7309449 149 19.3558824"></polygon>
                    <polygon id="Stroke-102" points="310 19.3558824 284.252837 17.7325707 277 14.3558824 299.349018 14.4434261"></polygon>
                    <polygon id="Stroke-103" points="11.5762307 293.951021 9 265.355882 21.5146951 283.58871 24 312.355882"></polygon>
                    <polygon id="Stroke-104" points="434 312.355882 435.675127 283.590796 449 265.355882 447.21066 293.951604"></polygon>
                    <polygon id="Stroke-105" points="58.6333449 379.368695 48 356.355882 69.4930459 372.01871 79 394.355882"></polygon>
                    <polygon id="Stroke-106" points="379 394.355882 387.596046 372.021445 410 356.355882 400.213523 379.371431"></polygon>
                    <polygon id="Stroke-107" points="31.1353544 339.096003 24 312.355882 41.36504 329.90511 48 356.355882"></polygon>
                    <polygon id="Stroke-108" points="410 356.355882 415.766269 329.904558 434 312.355882 427.698717 339.099321"></polygon>
                    <polygon id="Stroke-109" points="11 169.948797 24.2418681 142.355882 26 158.349468 12.7090678 187.355882"></polygon>
                    <polygon id="Stroke-110" points="445.403913 187.355882 432 158.34851 434.593457 142.355882 448 169.952538"></polygon>
                    <polygon id="Stroke-111" points="114.003636 424.531203 103 407.355882 131.277807 417.958509 140 434.355882"></polygon>
                    <polygon id="Stroke-112" points="318 434.355882 325.514036 417.956249 354 407.355882 344.185029 424.533701"></polygon>
                    <polygon id="Stroke-113" points="149.290034 19.1552576 174 17.3558824 167.709646 21.6044072 140 25.3558824"></polygon>
                    <polygon id="Stroke-114" points="318 25.3558824 289.935403 21.6027617 284 17.3558824 309.225461 19.1589337"></polygon>
                    <polygon id="Stroke-115" points="72.4373081 67.610222 98 51.3558824 93.6642976 61.0257778 67 79.3558824"></polygon>
                    <polygon id="Stroke-116" points="391 79.3558824 363.738748 61.0239234 360 51.3558824 386.274789 67.6124745"></polygon>
                    <polygon id="Stroke-117" points="105.038644 41.8705475 132 31.3558824 126.690852 38.6552736 98 51.3558824"></polygon>
                    <polygon id="Stroke-118" points="360 51.3558824 329.985473 38.6560207 325 31.3558824 353.365528 41.8704052"></polygon>
                    <polygon id="Stroke-119" points="229 4.35588235 228.414368 14.1563953 223.279021 14.3558824 219 4.74060735"></polygon>
                    <polygon id="Stroke-120" points="240 4.74334674 234.336043 14.3558824 229 14.1564522 229.612466 4.35588235"></polygon>
                    <polygon id="Stroke-121" points="219.445983 5.35588235 224 14.7725723 218.639889 15.3558824 209 6.47784719"></polygon>
                    <polygon id="Stroke-122" points="250 6.48063814 239.270266 15.3558824 234 14.7725723 239.730934 5.35588235"></polygon>
                    <polygon id="Stroke-123" points="44.4188258 101.148216 67 79.3558824 65.0922707 91.5940351 42 115.355882"></polygon>
                    <polygon id="Stroke-124" points="416 115.355882 392.171961 91.5939812 391 79.3558824 414.40889 101.148715"></polygon>
                    <polygon id="Stroke-125" points="5 217.009624 13.1273029 187.355882 20 204.647136 12.0385041 235.355882"></polygon>
                    <polygon id="Stroke-126" points="446.265428 235.355882 438 204.647136 445.548772 187.355882 454 217.01233"></polygon>
                    <polygon id="Stroke-127" points="208.691257 6.35588235 218 15.3848432 213.038012 16.3558824 199 8.2411748"></polygon>
                    <polygon id="Stroke-128" points="259 8.2411748 243.891261 16.3558824 239 15.3848432 249.441628 6.35588235"></polygon>
                    <polygon id="Stroke-129" points="199.040939 8.35588235 213 16.0852305 208.379785 17.3558824 190 10.8187841"></polygon>
                    <polygon id="Stroke-130" points="268 10.8214876 248.550989 17.3558824 244 16.082527 259.092646 8.35588235"></polygon>
                    <polygon id="Stroke-131" points="140.402492 24.8999537 168 21.3558824 163.029794 25.765641 133 31.3558824"></polygon>
                    <polygon id="Stroke-132" points="325 31.3558824 294.629672 25.7607067 290 21.3558824 318.08632 24.9033391"></polygon>
                    <polygon id="Stroke-133" points="139.670724 433.29952 131 417.355882 161.859261 424.978892 168 440.355882"></polygon>
                    <polygon id="Stroke-134" points="290 440.355882 294.948304 424.971741 326 417.355882 318.496157 433.30426"></polygon>
                    <polygon id="Stroke-135" points="79.548798 394.49968 70 372.355882 95.8586212 385.811372 104 407.355882"></polygon>
                    <polygon id="Stroke-136" points="354 407.355882 361.197619 385.807405 388 372.355882 379.331135 394.503832"></polygon>
                    <polygon id="Stroke-137" points="24 142.338773 42.2133659 116.355882 44 130.633235 25.7513895 158.355882"></polygon>
                    <polygon id="Stroke-138" points="431.383633 158.355882 413 130.629615 415.576524 116.355882 434 142.339803"></polygon>
                    <polygon id="Stroke-139" points="189.365362 10.3558824 208 16.7904913 203.744507 18.3558824 181 13.3934863"></polygon>
                    <polygon id="Stroke-140" points="277 13.3961486 253.176271 18.3558824 249 16.7904913 268.783051 10.3558824"></polygon>
                    <polygon id="Stroke-141" points="9 265.800333 11.6389653 235.355882 24 253.28498 21.4986241 284.355882"></polygon>
                    <polygon id="Stroke-142" points="436.07814 284.355882 433 253.283979 445.787339 235.355882 449 265.801369"></polygon>
                    <polygon id="Stroke-143" points="98.2786725 51.6840474 127 39.3558824 123.856759 46.7769543 94 61.3558824"></polygon>
                    <polygon id="Stroke-144" points="364 61.3558824 333.679086 46.7760484 331 39.3558824 360.316928 51.6852281"></polygon>
                    <polygon id="Stroke-145" points="181.354336 13.3558824 204 18.4607337 200.275844 20.3558824 174 17.0503268"></polygon>
                    <polygon id="Stroke-146" points="284 17.0530655 256.640203 20.3558824 253 18.457995 276.811751 13.3558824"></polygon>
                    <polygon id="Stroke-147" points="168.105374 440.963587 162 425.355882 194.599985 430.100863 198 445.355882"></polygon>
                    <polygon id="Stroke-148" points="260 445.355882 262.216459 430.097367 295 425.355882 290.057676 440.969941"></polygon>
                    <polygon id="Stroke-149" points="23.4617486 313.091784 21 284.355882 38.6857923 301.461545 41 330.355882"></polygon>
                    <polygon id="Stroke-150" points="416 330.355882 417.507333 301.460857 436 284.355882 434.326996 313.092454"></polygon>
                    <polygon id="Stroke-151" points="47.5879195 356.754014 41 330.355882 63.0885906 346.230177 69 372.355882"></polygon>
                    <polygon id="Stroke-152" points="388 372.355882 393.036553 346.225758 416 330.355882 410.249711 356.753002"></polygon>
                    <polygon id="Stroke-153" points="67.8586667 80.029757 94 61.3558824 92.656 71.4739759 66 92.3558824"></polygon>
                    <polygon id="Stroke-154" points="392 92.3558824 364.74094 71.4712975 364 61.3558824 390.856376 80.0302845"></polygon>
                    <polygon id="Stroke-155" points="132.303436 32.1636392 162 26.3558824 158.491161 31.2506413 127 39.3558824"></polygon>
                    <polygon id="Stroke-156" points="331 39.3558824 298.278703 31.2502884 295 26.3558824 326.031271 32.1681597"></polygon>
                    <polygon id="Stroke-157" points="13 187.206159 26.4269586 158.355882 33 174.088982 19.8484097 204.355882"></polygon>
                    <polygon id="Stroke-158" points="437.361683 204.355882 424 174.085382 431.316025 158.355882 445 187.20716"></polygon>
                    <polygon id="Stroke-159" points="198.378966 444.851262 195 429.355882 228.412119 430.987265 229 446.355882"></polygon>
                    <polygon id="Stroke-160" points="228.596876 447.355882 228 431.979788 262 430.355882 259.75761 445.856045"></polygon>
                    <polygon id="Stroke-161" points="173.308703 17.3558824 200 20.3895338 196.825192 22.3558824 167 21.200684"></polygon>
                    <polygon id="Stroke-162" points="290 21.206486 259.98611 22.3558824 257 20.3865665 284.057266 17.3558824"></polygon>
                    <polygon id="Stroke-163" points="42 116.046304 65.2015376 92.3558824 67 104.650637 43.8094454 130.355882"></polygon>
                    <polygon id="Stroke-164" points="412.364681 130.355882 389 104.647053 391.526646 92.3558824 415 116.047324"></polygon>
                    <polygon id="Stroke-165" points="103.134967 406.897994 95 385.355882 124.517998 396.309958 131 417.355882"></polygon>
                    <polygon id="Stroke-166" points="326 417.355882 331.504688 396.303679 362 385.355882 354.777498 406.901645"></polygon>
                    <polygon id="Stroke-167" points="167.026625 21.3558824 197 22.7241155 194.492169 25.2731935 162 26.3558824"></polygon>
                    <polygon id="Stroke-168" points="295 26.3558824 262.326112 25.2665966 260 22.7160014 290.320696 21.3558824"></polygon>
                    <polygon id="Stroke-169" points="127.170251 38.6501128 159 30.3558824 156.964109 35.5823073 124 46.3558824"></polygon>
                    <polygon id="Stroke-170" points="333 47.3558824 299.7089 36.577698 298 31.3558824 330.301452 39.6527982"></polygon>
                    <polygon id="Stroke-171" points="224 14.54819 229 14.3558824 228.455144 29.3558824"></polygon>
                    <polygon id="Stroke-172" points="228.588181 14.3558824 234 14.54819 228 29.3558824"></polygon>
                    <polygon id="Stroke-173" points="218 14.9347321 223.239643 14.3558824 228 29.3558824"></polygon>
                    <polygon id="Stroke-174" points="233.849695 14.3558824 239 14.937515 228 29.3558824"></polygon>
                    <polygon id="Stroke-175" points="11 235.420777 18.9618627 204.355882 31 221.251113 23.4139837 253.355882"></polygon>
                    <polygon id="Stroke-176" points="432.975432 253.355882 425 221.24564 437.632246 204.355882 446 235.420777"></polygon>
                    <polygon id="Stroke-177" points="93.3869969 61.2254857 124 46.3558824 123.111111 54.1002391 92 71.3558824"></polygon>
                    <polygon id="Stroke-178" points="364 71.3558824 333.388471 54.0985423 333 46.3558824 363.260565 61.2249665"></polygon>
                    <polygon id="Stroke-179" points="213 16.2800283 218.01712 15.3558824 228 29.3558824"></polygon>
                    <polygon id="Stroke-180" points="239.060963 15.3558824 244 16.2800283 228 29.3558824"></polygon>
                    <polygon id="Stroke-181" points="208 17.618279 212.765303 16.3558824 228 29.3558824"></polygon>
                    <polygon id="Stroke-182" points="244.311053 16.3558824 249 17.6188009 228 29.3558824"></polygon>
                    <polygon id="Stroke-183" points="162.584416 26.3669935 195 25.3558824 193.241969 27.8892157 159 31.3558824"></polygon>
                    <polygon id="Stroke-184" points="298 31.3558824 263.585162 27.8873056 262 25.3558824 294.750961 26.3734424"></polygon>
                    <polygon id="Stroke-185" points="204 18.9681506 208.272563 17.3558824 228 29.3558824"></polygon>
                    <polygon id="Stroke-186" points="248.806118 17.3558824 253 18.971267 228 29.3558824"></polygon>
                    <polygon id="Stroke-187" points="26 158.355882 44.0113725 130.355882 50 144.587806 32.3873342 174.355882"></polygon>
                    <polygon id="Stroke-188" points="424.518065 174.355882 406 144.584195 412.990281 130.355882 432 158.359603"></polygon>
                    <polygon id="Stroke-189" points="200 21.1856021 203.788508 19.3558824 228 29.3558824"></polygon>
                    <polygon id="Stroke-190" points="253.300978 19.3558824 257 21.1865702 228 29.3558824"></polygon>
                    <polygon id="Stroke-191" points="65 92.0483164 92.2986157 71.3558824 94 81.4296522 66.7887748 104.355882"></polygon>
                    <polygon id="Stroke-192" points="389.465249 104.355882 362 81.426114 364.322159 71.3558824 392 92.0520381"></polygon>
                    <polygon id="Stroke-193" points="68.9933657 372.057504 63 346.355882 89.8612741 359.892784 95 385.355882"></polygon>
                    <polygon id="Stroke-194" points="361 385.355882 365.230657 359.889284 393 346.355882 387.872762 372.063717"></polygon>
                    <polygon id="Stroke-195" points="21 284.10859 23.4887064 253.355882 41 270.018337 38.724846 301.355882"></polygon>
                    <polygon id="Stroke-196" points="417.890957 301.355882 415 270.01563 432.898936 253.355882 436 284.111298"></polygon>
                    <polygon id="Stroke-197" points="197 23.3830668 200.161104 21.3558824 228 29.3558824"></polygon>
                    <polygon id="Stroke-198" points="256.937983 21.3558824 260 23.3843798 228 29.3558824"></polygon>
                    <polygon id="Stroke-199" points="131.469532 417.564267 125 396.355882 157.385463 404.52178 162 425.355882"></polygon>
                    <polygon id="Stroke-200" points="295 425.355882 298.505798 404.514695 331 396.355882 325.631579 417.571528"></polygon>
                    <polygon id="Stroke-201" points="159.039322 31.5538324 193 28.3558824 192.037288 30.7850944 157 36.3558824"></polygon>
                    <polygon id="Stroke-202" points="300 36.3558824 264.797776 30.7835392 264 28.3558824 298.290865 31.5594675"></polygon>
                    <polygon id="Stroke-203" points="123.87863 46.7496043 157 36.3558824 156.537563 41.4948958 123 54.3558824"></polygon>
                    <polygon id="Stroke-204" points="334 54.3558824 300.13374 41.4925923 300 36.3558824 333.604239 46.7530137"></polygon>
                    <polygon id="Stroke-205" points="41.3333333 330.547418 39 301.355882 61.8732782 317.028698 64 346.355882"></polygon>
                    <polygon id="Stroke-206" points="393 346.355882 394.302169 317.02068 418 301.355882 416.472085 330.549985"></polygon>
                    <polygon id="Stroke-207" points="195 25.584751 197.446427 23.3558824 228 29.3558824"></polygon>
                    <polygon id="Stroke-208" points="259.66624 23.3558824 262 25.586685 228 29.3558824"></polygon>
                    <polygon id="Stroke-209" points="193 27.8717444 194.734891 25.3558824 228 29.3558824"></polygon>
                    <polygon id="Stroke-210" points="261.437787 25.3558824 263 27.8779818 228 29.3558824"></polygon>
                    <polygon id="Stroke-211" points="92 71.3384051 122.517969 54.3558824 124 61.9869619 93.6817952 81.3558824"></polygon>
                    <polygon id="Stroke-212" points="361.686497 81.3558824 331 61.9846763 332.97408 54.3558824 364 71.3414055"></polygon>
                    <polygon id="Stroke-213" points="20 204.733274 32.8704244 174.355882 44 189.580931 31.7386032 221.355882"></polygon>
                    <polygon id="Stroke-214" points="425.0386 221.355882 412 189.580059 424.283139 174.355882 438 204.736919"></polygon>
                    <polygon id="Stroke-215" points="157.451906 36.2101562 192 30.3558824 191.842234 32.9476041 157 41.3558824"></polygon>
                    <polygon id="Stroke-216" points="192 30.2778824 192.958956 27.4338824 228 29.0478824"></polygon>
                    <polygon id="Stroke-217" points="300 41.3558824 265 32.9457012 265.005357 30.3558824 299.871432 36.2139342"></polygon>
                    <polygon id="Stroke-218" points="263.206219 27.4338824 264 30.2778824 228 29.0418824"></polygon>
                    <polygon id="Stroke-219" points="44 130.170405 66.5721103 104.355882 72 116.509812 49.9784289 144.355882"></polygon>
                    <polygon id="Stroke-220" points="405.996698 144.355882 383 116.508986 389.334618 104.355882 413 130.174089"></polygon>
                    <polygon id="Stroke-221" points="162.607812 424.691882 158 404.355882 192.381986 409.246549 195 429.355882"></polygon>
                    <polygon id="Stroke-222" points="262 429.355882 263.516892 409.242779 298 404.355882 294.482959 424.695724"></polygon>
                    <polygon id="Stroke-223" points="192 33.3558824 192.158673 30.5532604 228 29.3558824"></polygon>
                    <polygon id="Stroke-224" points="264 30.5573369 263.994618 33.3558824 228 29.3558824"></polygon>
                    <polygon id="Stroke-225" points="123 54.5464211 156.836352 41.3558824 158 46.6127812 124.506704 62.3558824"></polygon>
                    <polygon id="Stroke-226" points="331.035742 62.3558824 298 46.6107096 299.472518 41.3558824 333 54.5494985"></polygon>
                    <polygon id="Stroke-227" points="194.616271 429.754505 192 409.355882 227.447646 411.033 228 431.355882"></polygon>
                    <polygon id="Stroke-228" points="228.5596 431.355882 228 411.023 264 409.355882 262.457689 429.761836"></polygon>
                    <polygon id="Stroke-229" points="192.64814 35.3558824 192 32.8919648 228 29.3558824"></polygon>
                    <polygon id="Stroke-230" points="264 32.8951359 263.184571 35.3558824 228 29.3558824"></polygon>
                    <polygon id="Stroke-231" points="156 41.0494757 191.346293 32.3558824 192 35.0160495 157.15009 46.3558824"></polygon>
                    <polygon id="Stroke-232" points="298.532536 46.3558824 264 35.0172464 264.815856 32.3558824 300 41.0526412"></polygon>
                    <polygon id="Stroke-233" points="95.1601688 385.316816 90 359.355882 120.854364 370.599882 125 396.355882"></polygon>
                    <polygon id="Stroke-234" points="331 396.355882 334.124368 370.594175 365 359.355882 360.854772 385.322569"></polygon>
                    <polygon id="Stroke-235" points="24 253.496551 31.3833744 221.355882 48 237.218009 41.1974009 270.355882"></polygon>
                    <polygon id="Stroke-236" points="414.527399 270.355882 407 237.217122 424.854926 221.355882 433 253.500233"></polygon>
                    <polygon id="Stroke-237" points="67 104.255078 94.1888112 81.3558824 99 91.2255249 72.542555 116.355882"></polygon>
                    <polygon id="Stroke-238" points="383.703084 116.355882 357 91.2239981 362.435262 81.3558824 390 104.25695"></polygon>
                    <polygon id="Stroke-239" points="193.473412 38.3558824 192 35.7907718 228 29.3558824"></polygon>
                    <polygon id="Stroke-240" points="263 35.793133 261.40179 38.3558824 228 29.3558824"></polygon>
                    <polygon id="Stroke-241" points="196.222257 40.3558824 194 38.0196463 228 29.3558824"></polygon>
                    <polygon id="Stroke-242" points="262 38.020776 259.604713 40.3558824 228 29.3558824"></polygon>
                    <polygon id="Stroke-243" points="32 173.995462 49.7327047 144.355882 60 157.991176 43.1267199 189.355882"></polygon>
                    <polygon id="Stroke-244" points="412.092627 189.355882 395 157.98953 405.979908 144.355882 424 173.997317"></polygon>
                    <polygon id="Stroke-245" points="158 46.347445 192.553115 35.3558824 194 37.861451 160.729718 51.3558824"></polygon>
                    <polygon id="Stroke-246" points="294.961109 51.3558824 262 37.8606057 263.601252 35.3558824 298 46.3491347"></polygon>
                    <polygon id="Stroke-247" points="94 81.5928168 124.171776 62.3558824 128 69.767886 98.7362516 91.3558824"></polygon>
                    <polygon id="Stroke-248" points="356.608079 91.3558824 327 69.7672017 331.336331 62.3558824 362 81.5963957"></polygon>
                    <polygon id="Stroke-249" points="39 300.709081 41.2093719 269.355882 63 284.469024 61.075108 316.355882"></polygon>
                    <polygon id="Stroke-250" points="394.652895 316.355882 392 284.464477 415.054147 269.355882 418 300.716307"></polygon>
                    <polygon id="Stroke-251" points="198.965628 42.3558824 196 40.2304271 228 29.3558824"></polygon>
                    <polygon id="Stroke-252" points="259 40.2312869 255.939559 42.3558824 228 29.3558824"></polygon>
                    <polygon id="Stroke-253" points="63.1012123 345.663221 61 316.355882 88.1549666 329.931976 90 359.355882"></polygon>
                    <polygon id="Stroke-254" points="365 359.355882 366.020375 329.92641 394 316.355882 392.706065 345.666053"></polygon>
                    <polygon id="Stroke-255" points="124 61.8421328 157.235797 46.3558824 160 51.3912889 127.880778 69.3558824"></polygon>
                    <polygon id="Stroke-256" points="326.694012 69.3558824 295 51.3901006 298.052994 46.3558824 331 61.843906"></polygon>
                    <polygon id="Stroke-257" points="202.629068 44.3558824 199 42.4507419 228 29.3558824"></polygon>
                    <polygon id="Stroke-258" points="256 42.4514148 252.295418 44.3558824 228 29.3558824"></polygon>
                    <polygon id="Stroke-259" points="207.150631 46.3558824 203 44.6924561 228 29.3558824"></polygon>
                    <polygon id="Stroke-260" points="253 44.6954298 248.611907 46.3558824 228 29.3558824"></polygon>
                    <polygon id="Stroke-261" points="160 51.662198 193.751876 38.3558824 196 40.6934064 164.338007 56.3558824"></polygon>
                    <polygon id="Stroke-262" points="290.347255 56.3558824 259 40.6927151 261.40565 38.3558824 295 51.663586"></polygon>
                    <polygon id="Stroke-263" points="211.665171 47.3558824 207 46.0447121 228 29.3558824"></polygon>
                    <polygon id="Stroke-264" points="248 46.0449058 243.276812 47.3558824 228 29.3558824"></polygon>
                    <polygon id="Stroke-265" points="125.152195 396.172219 121 370.355882 154.989933 378.692921 158 404.355882"></polygon>
                    <polygon id="Stroke-266" points="298 404.355882 299.999699 378.689457 334 370.355882 330.855683 396.178459"></polygon>
                    <polygon id="Stroke-267" points="50 143.869252 72.6607081 116.355882 82 127.880918 60.4805775 157.355882"></polygon>
                    <polygon id="Stroke-268" points="394.717033 157.355882 373 127.877476 383.041209 116.355882 406 143.870136"></polygon>
                    <polygon id="Stroke-269" points="216.941332 48.3558824 212 47.3937558 228 29.3558824"></polygon>
                    <polygon id="Stroke-270" points="243 47.3965556 238.018382 48.3558824 228 29.3558824"></polygon>
                    <polygon id="Stroke-271" points="222.172151 49.3558824 217 48.7572429 228 29.3558824"></polygon>
                    <polygon id="Stroke-272" points="238 48.7572429 232.796855 49.3558824 228 29.3558824"></polygon>
                    <polygon id="Stroke-273" points="31 221.554166 43.2732704 189.355882 59 203.806908 47.6764309 237.355882"></polygon>
                    <polygon id="Stroke-274" points="407.633643 237.355882 396 203.806908 412.370408 189.355882 425 221.556894"></polygon>
                    <polygon id="Stroke-275" points="227.462646 49.3558824 222 49.1565289 228 29.3558824"></polygon>
                    <polygon id="Stroke-276" points="233 49.1565289 227 49.3558824 227.588467 29.3558824"></polygon>
                    <polygon id="Stroke-277" points="165 56.0188217 196.075845 40.3558824 199 42.5071071 170.714421 60.3558824"></polygon>
                    <polygon id="Stroke-278" points="284.968916 60.3558824 257 42.5041587 260.086988 40.3558824 291 56.022061"></polygon>
                    <polygon id="Stroke-279" points="129 69.2288434 160.723252 51.3558824 165 56.1171441 135.135386 76.3558824"></polygon>
                    <polygon id="Stroke-280" points="320.275475 76.3558824 290 56.1134156 294.677213 51.3558824 327 69.2303828"></polygon>
                    <polygon id="Stroke-281" points="73 116.658756 99.2027027 91.3558824 107 100.866273 82.1783784 128.355882"></polygon>
                    <polygon id="Stroke-282" points="373.054808 128.355882 348 100.865572 356.437767 91.3558824 383 116.665071"></polygon>
                    <polygon id="Stroke-283" points="99 90.9933401 128.766813 69.3558824 135 76.439526 106.88371 100.355882"></polygon>
                    <polygon id="Stroke-284" points="348.642761 100.355882 321 76.4382995 327.5947 69.3558824 357 90.9949612"></polygon>
                    <polygon id="Stroke-285" points="157.017615 404.445136 154 379.355882 190.219607 384.3657 192 409.355882"></polygon>
                    <polygon id="Stroke-286" points="263 409.355882 263.776338 384.356329 300 379.355882 297.986969 404.449178"></polygon>
                    <polygon id="Stroke-287" points="171 60.4326074 199.402319 42.3558824 203 44.2972967 178.079741 64.3558824"></polygon>
                    <polygon id="Stroke-288" points="277.58042 64.3558824 253 44.2970588 256.764226 42.3558824 285 60.4357843"></polygon>
                    <polygon id="Stroke-289" points="41 269.204991 47.7886919 236.355882 69 250.59973 62.9921418 284.355882"></polygon>
                    <polygon id="Stroke-290" points="391.691654 285.355882 385 251.59591 407.477375 237.355882 415 270.211425"></polygon>
                    <polygon id="Stroke-291" points="90.8088469 360.084922 89 330.355882 119.490844 341.533717 121 371.355882"></polygon>
                    <polygon id="Stroke-292" points="335 371.355882 335.690376 341.527739 367 330.355882 365.994101 360.090882"></polygon>
                    <polygon id="Stroke-293" points="44 188.890233 60.7344423 157.355882 75 170.169017 59.5748147 203.355882"></polygon>
                    <polygon id="Stroke-294" points="395.149638 203.355882 379 170.167495 394.42693 157.355882 412 188.894682"></polygon>
                    <polygon id="Stroke-295" points="192.741996 409.673977 191 384.355882 227.509561 386.07034 228 411.355882"></polygon>
                    <polygon id="Stroke-296" points="227.495862 411.355882 227 386.062717 264 384.355882 263.230465 409.684325"></polygon>
                    <polygon id="Stroke-297" points="61 316.626339 62.989011 284.355882 90 297.6084 88.3763736 330.355882"></polygon>
                    <polygon id="Stroke-298" points="366.28414 330.355882 364 298.318393 391.347363 285.355882 394 316.929371"></polygon>
                    <polygon id="Stroke-299" points="135 76.7124863 165.196268 56.3558824 171 60.7802863 143.425474 83.3558824"></polygon>
                    <polygon id="Stroke-300" points="312.16976 83.3558824 285 60.7771256 291.076053 56.3558824 321 76.7131545"></polygon>
                    <polygon id="Stroke-301" points="178 64.9174394 202.840296 44.3558824 207 46.0529916 186.241682 68.3558824"></polygon>
                    <polygon id="Stroke-302" points="268.392544 68.3558824 248 46.0526008 252.346042 44.3558824 277 64.9182312"></polygon>
                    <polygon id="Stroke-303" points="186 68.5943346 207.246545 46.3558824 212 47.714608 195.452052 71.3558824"></polygon>
                    <polygon id="Stroke-304" points="259.496427 71.3558824 244 47.7143085 248.780208 46.3558824 269 68.5976987"></polygon>
                    <polygon id="Stroke-305" points="61 157.774656 82.2161085 128.355882 95 139.083852 75.4730463 170.355882"></polygon>
                    <polygon id="Stroke-306" points="379.719306 170.355882 360 139.0798 373.487287 128.355882 395 157.776263"></polygon>
                    <polygon id="Stroke-307" points="107 100.547918 134.671 76.3558824 143 82.9971527 117.66069 109.355882"></polygon>
                    <polygon id="Stroke-308" points="337.595159 109.355882 312 82.9966063 320.906951 76.3558824 349 100.551357"></polygon>
                    <polygon id="Stroke-309" points="196 70.3805737 212.022262 47.3558824 217 48.3274336 205.928915 72.3558824"></polygon>
                    <polygon id="Stroke-310" points="248.570266 72.3558824 238 48.3221697 243.227267 47.3558824 259 70.3857299"></polygon>
                    <polygon id="Stroke-311" points="82 128.561961 107.148247 101.355882 118 110.109753 94.9109303 139.355882"></polygon>
                    <polygon id="Stroke-312" points="359.657493 139.355882 337 110.109131 348.21029 101.355882 373 128.565426"></polygon>
                    <polygon id="Stroke-313" points="143 83.512775 170.784607 61.3558824 178 65.2344048 153.558644 89.3558824"></polygon>
                    <polygon id="Stroke-314" points="301.026239 89.3558824 277 65.2313702 284.495483 61.3558824 312 83.5159966"></polygon>
                    <polygon id="Stroke-315" points="205 72.1619874 216.540065 48.3558824 222 48.9408643 215.908795 73.3558824"></polygon>
                    <polygon id="Stroke-316" points="238.095156 73.3558824 233 48.9408021 238.457918 48.3558824 249 72.1621144"></polygon>
                    <polygon id="Stroke-317" points="48 237.001586 59.5530323 203.355882 80 216.46769 69.76 251.355882"></polygon>
                    <polygon id="Stroke-318" points="384.572258 251.355882 374 216.462217 395.076113 203.355882 407 237.00706"></polygon>
                    <polygon id="Stroke-319" points="120.521505 371.053866 119 341.355882 152.821104 349.592443 154 379.355882"></polygon>
                    <polygon id="Stroke-320" points="300 379.355882 300.341237 349.583305 335 341.355882 334.301147 371.057533"></polygon>
                    <polygon id="Stroke-321" points="216 73.9514036 221.730523 49.3558824 227 49.5541037 226.544163 74.3558824"></polygon>
                    <polygon id="Stroke-322" points="227 74.3558824 227.474489 49.5541037 232.975844 49.3558824 238 73.9540823"></polygon>
                    <polygon id="Stroke-323" points="63 285.193705 69.1206219 251.355882 95 263.720435 89.877157 298.355882"></polygon>
                    <polygon id="Stroke-324" points="364.608996 298.355882 359 263.7137 385.37612 251.355882 392 285.197625"></polygon>
                    <polygon id="Stroke-325" points="153 89.1953004 177.540225 64.3558824 186 67.7706504 165.448937 94.3558824"></polygon>
                    <polygon id="Stroke-326" points="288.508914 94.3558824 269 67.770338 277.48705 64.3558824 301 89.1985173"></polygon>
                    <polygon id="Stroke-327" points="88 330.407305 89.5986475 298.355882 120 308.923406 118.823331 341.355882"></polygon>
                    <polygon id="Stroke-328" points="334.84362 341.355882 333 308.918698 363.737741 298.355882 366 330.411989"></polygon>
                    <polygon id="Stroke-329" points="117 109.504342 142.551186 83.3558824 153 89.2600256 130.467119 117.355882"></polygon>
                    <polygon id="Stroke-330" points="323.107537 117.355882 301 89.2573321 311.774353 83.3558824 337 109.507035"></polygon>
                    <polygon id="Stroke-331" points="59 203.346851 74.6474809 170.355882 93 181.857919 79.1305804 216.355882"></polygon>
                    <polygon id="Stroke-332" points="374.097147 216.355882 360 181.855204 379.052179 170.355882 395 203.352282"></polygon>
                    <polygon id="Stroke-333" points="154.185497 379.233464 153 349.355882 189.186157 354.431758 190 384.355882"></polygon>
                    <polygon id="Stroke-334" points="264.034832 384.355882 264 354.427473 300 349.355882 299.665079 379.243215"></polygon>
                    <polygon id="Stroke-335" points="95 138.624788 117.657512 109.355882 131 117.226104 110.972834 148.355882"></polygon>
                    <polygon id="Stroke-336" points="343.183306 148.355882 323 117.225559 337.042103 109.355882 360 138.628163"></polygon>
                    <polygon id="Stroke-337" points="75 170.897871 94.721001 139.355882 111 149.101683 93.5408078 182.355882"></polygon>
                    <polygon id="Stroke-338" points="360.151678 182.355882 343 149.096274 359.547651 139.355882 379 170.900576"></polygon>
                    <polygon id="Stroke-339" points="166 94.288585 186.529498 68.3558824 196 71.0388527 179.994137 98.3558824"></polygon>
                    <polygon id="Stroke-340" points="274.017472 98.3558824 259 71.0361751 268.460037 68.3558824 288 94.2912626"></polygon>
                    <polygon id="Stroke-341" points="189.818789 383.661366 189 354.355882 226.5715 356.036993 227 385.355882"></polygon>
                    <polygon id="Stroke-342" points="227.420576 385.355882 227 356.026846 263.965175 354.355882 264 383.668826"></polygon>
                    <polygon id="Stroke-343" points="179 98.2988884 194.834362 70.3558824 205 72.3719644 194.0595 101.355882"></polygon>
                    <polygon id="Stroke-344" points="259.015495 101.355882 249 72.3664859 259.114341 70.3558824 274 98.3043669"></polygon>
                    <polygon id="Stroke-345" points="70 251.009208 80.0420802 216.355882 104 227.62066 95.5560143 263.355882"></polygon>
                    <polygon id="Stroke-346" points="358.77967 263.355882 350 227.615874 374.577682 216.355882 385 251.013931"></polygon>
                    <polygon id="Stroke-347" points="131 117.573398 153.661498 89.3558824 166 94.4420693 146.984961 124.355882"></polygon>
                    <polygon id="Stroke-348" points="306.589744 124.355882 288 94.4393638 300.662302 89.3558824 323 117.578809"></polygon>
                    <polygon id="Stroke-349" points="119 341.159139 120.189825 308.355882 154 316.264925 153.291575 349.355882"></polygon>
                    <polygon id="Stroke-350" points="300.387656 349.355882 299 316.261067 333.127073 308.355882 335 341.16837"></polygon>
                    <polygon id="Stroke-351" points="194 101.476177 205.116022 72.3558824 216 73.591589 210.160221 103.355882"></polygon>
                    <polygon id="Stroke-352" points="242.966308 103.355882 238 73.5943412 248.8007 72.3558824 259 101.481681"></polygon>
                    <polygon id="Stroke-353" points="90 297.719666 95.0229405 263.355882 124 273.346579 120.124241 308.355882"></polygon>
                    <polygon id="Stroke-354" points="333.365304 308.355882 329 273.339076 358.47115 263.355882 364 297.721729"></polygon>
                    <polygon id="Stroke-355" points="210 103.733769 215.832197 74.3558824 227 74.766097 226.59445 104.355882"></polygon>
                    <polygon id="Stroke-356" points="227 104.355882 227.390114 74.7633803 238.159396 74.3558824 243 103.733769"></polygon>
                    <polygon id="Stroke-357" points="79 217.042214 92.9755709 182.355882 115 192.345437 103.239436 228.355882"></polygon>
                    <polygon id="Stroke-358" points="349.980037 228.355882 338 192.340569 360.735436 182.355882 375 217.047003"></polygon>
                    <polygon id="Stroke-359" points="111 148.864904 131.153511 117.355882 147 124.209354 130.066617 157.355882"></polygon>
                    <polygon id="Stroke-360" points="323.572238 157.355882 307 124.20662 323.14552 117.355882 343 148.870371"></polygon>
                    <polygon id="Stroke-361" points="147 123.93135 166.071286 94.3558824 180 98.4162568 165.116628 129.355882"></polygon>
                    <polygon id="Stroke-362" points="288.447638 129.355882 274 98.4162568 288.263434 94.3558824 307 123.934025"></polygon>
                    <polygon id="Stroke-363" points="94 182.493349 111.093834 149.355882 130 157.72785 115.619303 192.355882"></polygon>
                    <polygon id="Stroke-364" points="338.521462 192.355882 324 157.725155 343.655147 149.355882 361 182.498739"></polygon>
                    <polygon id="Stroke-365" points="154 349.33972 154.697987 316.355882 190 321.198887 189.809396 354.355882"></polygon>
                    <polygon id="Stroke-366" points="264.86328 354.355882 264 321.191114 299.628434 316.355882 301 349.342069"></polygon>
                    <polygon id="Stroke-367" points="190 354.652475 190.188145 321.355882 226.664027 322.999521 227 356.355882"></polygon>
                    <polygon id="Stroke-368" points="226.341138 356.355882 226 322.991752 263.126688 321.355882 264 354.662948"></polygon>
                    <polygon id="Stroke-369" points="95 263.257456 103.499849 227.355882 131 236.564075 124.38659 273.355882"></polygon>
                    <polygon id="Stroke-370" points="328.947217 273.355882 322 236.554244 350.118909 227.355882 359 263.261719"></polygon>
                    <polygon id="Stroke-371" points="165 129.354734 179.867474 98.3558824 195 101.346694 184.73677 133.355882"></polygon>
                    <polygon id="Stroke-372" points="268.471785 133.355882 259 101.341563 273.973856 98.3558824 288 129.357108"></polygon>
                    <polygon id="Stroke-373" points="121 308.463837 124.906055 273.355882 157 280.76043 154.390561 316.355882"></polygon>
                    <polygon id="Stroke-374" points="299.105444 316.355882 296 280.755945 328.581443 273.355882 333 308.470969"></polygon>
                    <polygon id="Stroke-375" points="130 157.475249 147.011097 124.355882 165 129.895352 151.715428 164.355882"></polygon>
                    <polygon id="Stroke-376" points="301.935077 164.355882 289 129.895352 307.275942 124.355882 324 157.480712"></polygon>
                    <polygon id="Stroke-377" points="184 133.867937 194.167794 101.355882 210 103.212314 204.684709 136.355882"></polygon>
                    <polygon id="Stroke-378" points="247.797373 136.355882 243 103.209736 259.226247 101.355882 269 133.870466"></polygon>
                    <polygon id="Stroke-379" points="103 228.193945 114.822648 192.355882 140 200.428277 130.774711 237.355882"></polygon>
                    <polygon id="Stroke-380" points="322.171725 237.355882 313 200.426535 338.223592 192.355882 350 228.200991"></polygon>
                    <polygon id="Stroke-381" points="205 136.514325 210.415215 103.355882 227 103.979561 226.688432 137.355882"></polygon>
                    <polygon id="Stroke-382" points="227 137.355882 227.300989 103.976887 243.362633 103.355882 248 136.519705"></polygon>
                    <polygon id="Stroke-383" points="115 192.27945 129.454974 157.355882 151 164.203587 139.71143 200.355882"></polygon>
                    <polygon id="Stroke-384" points="312.380187 200.355882 301 164.198151 323.335433 157.355882 338 192.282169"></polygon>
                    <polygon id="Stroke-385" points="154 316.561132 156.628281 281.355882 191 285.855983 189.778366 321.355882"></polygon>
                    <polygon id="Stroke-386" points="263.714574 321.355882 262 285.84885 296.85844 281.355882 300 316.568207"></polygon>
                    <polygon id="Stroke-387" points="151 164.353878 164.323675 130.355882 184 134.379585 174.81154 169.355882"></polygon>
                    <polygon id="Stroke-388" points="277.836752 169.355882 269 134.37689 288.965928 130.355882 302 164.356573"></polygon>
                    <polygon id="Stroke-389" points="124 273.933869 130.649996 237.355882 161 244.115507 156.473739 281.355882"></polygon>
                    <polygon id="Stroke-390" points="296.723233 281.355882 292 244.113209 322.16593 237.355882 329 273.93884"></polygon>
                    <polygon id="Stroke-391" points="190 321.699535 191.224154 285.355882 226.75735 286.910764 227 323.355882"></polygon>
                    <polygon id="Stroke-392" points="226.23782 323.355882 226 286.905503 261.308232 285.355882 263 321.704782"></polygon>
                    <polygon id="Stroke-393" points="175 169.292625 184.186564 134.355882 205 136.816178 200.231049 172.355882"></polygon>
                    <polygon id="Stroke-394" points="252.400146 172.355882 248 136.813661 269.11741 134.355882 278 169.297792"></polygon>
                    <polygon id="Stroke-395" points="140 200.408164 151.339134 164.355882 175 169.387316 167.196056 206.355882"></polygon>
                    <polygon id="Stroke-396" points="285.608813 206.355882 278 169.384605 301.827668 164.355882 313 200.413586"></polygon>
                    <polygon id="Stroke-397" points="131 237.54245 140.019467 200.355882 167 206.359365 160.816066 244.355882"></polygon>
                    <polygon id="Stroke-398" points="291.344726 244.355882 285 206.354265 312.739098 200.355882 322 237.544762"></polygon>
                    <polygon id="Stroke-399" points="200 172.310177 204.733909 136.355882 226 137.197348 225.794531 173.355882"></polygon>
                    <polygon id="Stroke-400" points="226 173.355882 226.206587 137.192087 247.637219 136.355882 252 172.318117"></polygon>
                    <polygon id="Stroke-401" points="157 280.773469 161.431757 243.355882 193 247.526424 190.808207 285.355882"></polygon>
                    <polygon id="Stroke-402" points="261.489263 285.355882 259 247.516324 291.224844 243.355882 296 280.780761"></polygon>
                    <polygon id="Stroke-403" points="167 205.672641 174.832949 168.355882 200 171.469945 195.970772 209.355882"></polygon>
                    <polygon id="Stroke-404" points="255.845793 209.355882 252 171.464887 277.327412 168.355882 285 205.68036"></polygon>
                    <polygon id="Stroke-405" points="191 285.824087 193.199248 248.355882 225.868421 249.749897 226 287.355882"></polygon>
                    <polygon id="Stroke-406" points="226.131778 287.355882 226 249.744687 259.479753 248.355882 262 285.83198"></polygon>
                    <polygon id="Stroke-407" points="161 244.18994 167.217123 206.355882 196 210.020495 192.844196 248.355882"></polygon>
                    <polygon id="Stroke-408" points="259.175976 248.355882 256 210.018245 284.765876 206.355882 291 244.200299"></polygon>
                    <polygon id="Stroke-409" points="196 210.117614 200.038095 172.355882 226 173.403228 225.904762 211.355882"></polygon>
                    <polygon id="Stroke-410" points="226 211.355882 226.095299 173.395264 252.139045 172.355882 256 210.12281"></polygon>
                    <polygon id="Stroke-411" points="193 247.94073 196.170886 209.355882 225.981013 210.600997 226 249.355882"></polygon>
                    <polygon id="Stroke-412" points="226.01893 249.355882 226 210.595682 255.792756 209.355882 259 247.946022"></polygon>
                </g>
            </g>
        </g>
    </g>
</svg>