<?xml version="1.0" encoding="UTF-8"?>
<svg width="14px" height="14px" viewBox="0 0 14 14" version="1.1" xmlns="http://www.w3.org/2000/svg" xmlns:xlink="http://www.w3.org/1999/xlink">
    <!-- Generator: Sketch 53 (72520) - https://sketchapp.com -->
    <title></title>
    <desc>Created with Sketch.</desc>
    <g id="Home" stroke="none" stroke-width="1" fill="none" fill-rule="evenodd">
        <g id="Home-Screen" transform="translate(-503.000000, -25.000000)" fill="#FFFFFF" fill-rule="nonzero">
            <path d="M508.968736,26.0937784 L509.656234,25.40628 C509.802067,25.2604469 509.97915,25.1875305 510.187483,25.1875305 C510.395816,25.1875305 510.572898,25.2604469 510.718732,25.40628 L516.781217,31.4687656 C516.92705,31.6145987 516.999967,31.7916813 516.999967,32.0000143 C516.999967,32.2083473 516.92705,32.3854299 516.781217,32.531263 L510.718732,38.5937486 C510.572898,38.7395817 510.395816,38.8124981 510.187483,38.8124981 C509.97915,38.8124981 509.802067,38.7395817 509.656234,38.5937486 L508.968736,37.9062502 C508.80207,37.7604171 508.723945,37.5833345 508.734361,37.3750015 C508.744778,37.1666685 508.822903,36.9895859 508.968736,36.8437528 L512.718727,33.2500113 L503.749998,33.2500113 C503.541665,33.2500113 503.364583,33.177095 503.218749,33.0312618 C503.072916,32.8854287 503,32.7083461 503,32.5000131 L503,31.5000155 C503,31.2916825 503.072916,31.1145999 503.218749,30.9687668 C503.364583,30.8229336 503.541665,30.7500173 503.749998,30.7500173 L512.718727,30.7500173 L508.968736,27.1562759 C508.822903,27.0104427 508.744778,26.8333601 508.734361,26.6250271 C508.723945,26.4166941 508.80207,26.2396115 508.968736,26.0937784 Z" id=""></path>
        </g>
    </g>
</svg>