<?xml version="1.0" encoding="utf-8"?>
<!-- Generator: Adobe Illustrator 16.0.0, SVG Export Plug-In . SVG Version: 6.00 Build 0)  -->
<!DOCTYPE svg PUBLIC "-//W3C//DTD SVG 1.1//EN" "http://www.w3.org/Graphics/SVG/1.1/DTD/svg11.dtd">
<svg version="1.1" id="Layer_1" xmlns="http://www.w3.org/2000/svg" xmlns:xlink="http://www.w3.org/1999/xlink" x="0px" y="0px"
	 width="675.52px" height="720.072px" viewBox="987.24 35.284 675.52 720.072"
	 enable-background="new 987.24 35.284 675.52 720.072" xml:space="preserve">
<path fill="#23242A" d="M1617.514,344.18l34.341,34.341c14.541,14.54,14.541,38.053,0,52.438l-300.558,300.713
	c-14.541,14.541-38.053,14.541-52.439,0L998.146,430.959c-14.541-14.54-14.541-38.053,0-52.438l34.341-34.341
	c14.695-14.695,38.672-14.386,53.058,0.619l177.581,186.398V86.625c0-20.573,16.552-37.125,37.125-37.125h49.5
	c20.573,0,37.125,16.552,37.125,37.125v444.572l177.581-186.398C1578.842,329.639,1602.818,329.33,1617.514,344.18L1617.514,344.18z
	"/>
</svg>
