<?xml version="1.0" encoding="UTF-8"?>
<svg width="13px" height="13px" viewBox="0 0 13 13" version="1.1" xmlns="http://www.w3.org/2000/svg" xmlns:xlink="http://www.w3.org/1999/xlink">
    <title>arrow-right</title>
    <g id="Symbols" stroke="none" stroke-width="1" fill="none" fill-rule="evenodd">
        <g id="Link/Blue" transform="translate(-83.000000, -2.000000)" fill="#0B78E3">
            <g id="arrow-right" transform="translate(83.000000, 2.000000)">
                <path d="M6.74294199,12.5277278 L12.058565,7.21213147 C12.3156063,6.95781384 12.3156063,6.54221119 12.058565,6.28516988 L6.74294199,0.972297258 C6.48865106,0.715255939 6.07302171,0.715255939 5.8160071,0.972297258 L5.20897196,1.5793324 C4.94648326,1.83909741 4.95193064,2.26292452 5.21992011,2.51721545 L8.51483413,5.65626512 L0.656248435,5.65626512 C0.292582768,5.65626512 0,5.94884789 0,6.31251356 L0,7.18751147 C0,7.55117714 0.292582768,7.84375991 0.656248435,7.84375991 L8.51483413,7.84375991 L5.21992011,10.9828096 C4.95468103,11.2371005 4.94920695,11.6609276 5.20897196,11.9206926 L5.8160071,12.5277278 C6.07029803,12.7847691 6.48592738,12.7847691 6.74294199,12.5277278 Z" id="a"></path>
            </g>
        </g>
    </g>
</svg>