<?xml version="1.0" encoding="UTF-8"?>
<svg width="17px" height="16px" viewBox="0 0 17 16" version="1.1" xmlns="http://www.w3.org/2000/svg" xmlns:xlink="http://www.w3.org/1999/xlink">
    <title>c copy</title>
    <g id="Welldoc-Website" stroke="none" stroke-width="1" fill="none" fill-rule="evenodd">
        <g id="New-Home-Page" transform="translate(-138.000000, -1328.000000)" fill="#095CB0">
            <g id="Group-13" transform="translate(108.000000, 1103.000000)">
                <g id="Group-7-Copy" transform="translate(0.000000, 0.928320)">
                    <path d="M38.9170984,240.07168 C43.3353822,240.07168 46.9170984,236.489964 46.9170984,232.07168 C46.9170984,227.653397 43.3353822,224.07168 38.9170984,224.07168 C34.4988147,224.07168 30.9170984,227.653397 30.9170984,232.07168 C30.9170984,236.489964 34.4988147,240.07168 38.9170984,240.07168 Z M37.2617935,236.307599 L33.9069548,232.95276 C33.7054364,232.75121 33.7054364,232.424377 33.9069548,232.222827 L34.636888,231.492925 C34.8384379,231.291375 35.1652713,231.291375 35.3668212,231.492925 L37.6267759,233.752911 L42.4673757,228.912312 C42.6689571,228.71073 42.9957905,228.71073 43.1973089,228.912312 L43.9272421,229.642213 C44.1287605,229.843763 44.1287605,230.170597 43.9272421,230.372147 L37.9917582,236.30763 C37.7901768,236.509149 37.4633749,236.509149 37.2617935,236.307599 Z" id="c-copy"></path>
                </g>
            </g>
        </g>
    </g>
</svg>