<svg xmlns="http://www.w3.org/2000/svg" width="907" height="386" xmlns:xlink="http://www.w3.org/1999/xlink"><title>study</title><desc>Created using Figma</desc><g><g><g><use fill="#fff" xlink:href="#a" transform="translate(-5359 537) translate(5392 -224)"/><use fill="#fff" xlink:href="#b" transform="translate(-5359 537) translate(5392 -263)"/><use fill="#fff" xlink:href="#c" transform="translate(-5359 537) translate(5392.7 -302.319)"/><use fill="#fff" xlink:href="#d" transform="translate(-5359 537) translate(5390.11 -341.645)"/><use fill="#fff" xlink:href="#e" transform="translate(-5359 537) translate(5390.71 -380.971)"/><use fill="#fff" xlink:href="#f" transform="translate(-5359 537) translate(5390.54 -420.297)"/><use fill="#fff" xlink:href="#g" transform="translate(-5359 537) translate(5391.14 -459.623)"/><use fill="#fff" xlink:href="#h" transform="translate(-5359 537) translate(5383.41 -498.949)"/><use fill="#fff" xlink:href="#i" transform="translate(-5359 537) translate(5384.02 -538.275)"/></g><g><use fill="#fff" fill-opacity=".6" xlink:href="#j" transform="translate(-5359 537) translate(5429 -250)"/><use fill="#fff" fill-opacity=".6" xlink:href="#j" transform="translate(-5359 537) translate(5429 -289)"/><use fill="#fff" fill-opacity=".6" xlink:href="#j" transform="translate(-5359 537) translate(5429 -328)"/><use fill="#fff" fill-opacity=".6" xlink:href="#j" transform="translate(-5359 537) translate(5429 -368)"/><use fill="#fff" fill-opacity=".6" xlink:href="#j" transform="translate(-5359 537) translate(5429 -407)"/><use fill="#fff" fill-opacity=".6" xlink:href="#j" transform="translate(-5359 537) translate(5429 -446)"/><use fill="#fff" fill-opacity=".6" xlink:href="#j" transform="translate(-5359 537) translate(5429 -486)"/><use fill="#fff" fill-opacity=".6" xlink:href="#j" transform="translate(-5359 537) translate(5429 -525)"/></g><g><g><use fill="#fff" xlink:href="#k" transform="translate(-5359 537) translate(5447.57 -422.288)"/><use fill="#fff" xlink:href="#l" transform="translate(-5359 537) translate(5584.44 -375.097)"/><use fill="#fff" xlink:href="#m" transform="translate(-5359 537) translate(5721.31 -375.097)"/><use fill="#fff" xlink:href="#n" transform="translate(-5359 537) translate(5858.17 -367.232)"/></g><g><use fill="#fff" xlink:href="#o" transform="translate(-5359 537) translate(5582 -346.501)"/><use fill="#fff" xlink:href="#p" transform="translate(-5359 537) translate(5718 -377.501)"/><use fill="#fff" xlink:href="#o" transform="translate(-5359 537) translate(5855 -346.501)"/><use fill="#fff" xlink:href="#o" transform="translate(-5359 537) translate(5991 -371.501)"/><use fill="#fff" xlink:href="#o" transform="translate(-5359 537) translate(5443 -426.501)"/></g></g><g><use fill="#D0D0D0" xlink:href="#q" transform="translate(-5359 537) translate(5447.57 -217.793)"/><use fill="#D0D0D0" xlink:href="#q" transform="translate(-5359 537) translate(5584 -218)"/><use fill="#D0D0D0" xlink:href="#q" transform="translate(-5359 537) translate(5722.31 -217.793)"/><use fill="#D0D0D0" xlink:href="#q" transform="translate(-5359 537) translate(5858.17 -217.793)"/><use fill="#D0D0D0" xlink:href="#q" transform="translate(-5359 537) translate(5996.04 -217.793)"/></g><use fill="#fff" fill-opacity=".6" xlink:href="#r" transform="translate(-5359 537) translate(5428.14 -210.928)"/><g><g><use fill="#fff" xlink:href="#s" transform="translate(-5359 537) translate(5449.46 -477.344)"/><use fill="#fff" xlink:href="#t" transform="translate(-5359 537) translate(5586.33 -312.175)"/><use fill="#fff" xlink:href="#u" transform="translate(-5359 537) translate(5723.2 -304.31)"/><use fill="#fff" xlink:href="#v" transform="translate(-5359 537) translate(5860.07 -320.041)"/></g><g><use id="Oval" fill="#fff" xlink:href="#w" transform="translate(-5359 537) translate(5989 -326.501)" filter="url(#x)"/><use fill="#fff" xlink:href="#w" transform="translate(-5359 537) translate(5852 -310.501)" filter="url(#y)"/><use fill="#fff" xlink:href="#w" transform="translate(-5359 537) translate(5716 -294.501)" filter="url(#z)"/><use fill="#fff" xlink:href="#w" transform="translate(-5359 537) translate(5578 -320.501)" filter="url(#A)"/><use fill="#fff" xlink:href="#w" transform="translate(-5359 537) translate(5443 -485.501)" filter="url(#B)"/></g></g><g><use fill="#fff" xlink:href="#C" transform="translate(-5359 537) translate(5987.83 -200.693)"/><use fill="#fff" xlink:href="#D" transform="translate(-5359 537) translate(5854.01 -200.693)"/><use fill="#fff" xlink:href="#E" transform="translate(-5359 537) translate(5717.14 -200.693)"/><use fill="#fff" xlink:href="#F" transform="translate(-5359 537) translate(5580.5 -200.693)"/><use fill="#fff" xlink:href="#G" transform="translate(-5359 537) translate(5443.18 -200.693)"/></g><g><g><g filter="url(#H)" transform="matrix(0 1 -1 0 197.8 38)"><use fill="#fff" xlink:href="#I"/><use fill="#F2F3F7" xlink:href="#J"/></g><use xlink:href="#K" transform="translate(-5359 537) translate(5491 -492.501)"/><use fill="#002855" xlink:href="#L" transform="translate(-5359 537) translate(5502 -477)"/></g><use fill="#fff" xlink:href="#M" transform="matrix(0 -1 1 0 -2 241)"/><use fill="#fff" xlink:href="#N" transform="translate(-5359 537) translate(5638 -165.501)"/></g><g><use fill="#fff" xlink:href="#O" transform="translate(-5359 537) translate(5548.01 -299.064)" filter="url(#P)"/><use fill="#002855" xlink:href="#Q" transform="translate(-5359 537) translate(5573.07 -285.657)"/><use xlink:href="#R" transform="translate(-5359 537) translate(5562.23 -271.042)"/></g><g><use fill="#fff" xlink:href="#S" transform="translate(-5359 537) translate(5959.71 -306.337)" filter="url(#T)"/><use fill="#00181B" xlink:href="#U" transform="translate(-5359 537) translate(5980 -281)"/><use fill="#002855" xlink:href="#V" transform="translate(-5359 537) translate(5986 -292)"/></g><g><g><use fill="#fff" xlink:href="#W" transform="translate(-5359 537) translate(6117 -276)"/><use fill="#fff" xlink:href="#w" transform="translate(-5359 537) translate(6155 -282)" filter="url(#X)"/><use fill="#fff" xlink:href="#Y" transform="translate(-5359 537) translate(6213 -285)"/><use fill="#fff" xlink:href="#Z" transform="translate(-5359 537) translate(6119 -249)"/><use fill="#fff" xlink:href="#o" transform="translate(-5359 537) translate(6158 -252)"/><use fill="#fff" xlink:href="#aa" transform="translate(-5359 537) translate(6214.05 -258.051)"/></g></g></g></g><defs><filter id="x" width="18" height="19" x="5986" y="-330" filterUnits="userSpaceOnUse" color-interpolation-filters="sRGB"><feFlood flood-opacity="0" result="BackgroundImageFix"/><feColorMatrix in="SourceAlpha" values="0 0 0 0 0 0 0 0 0 0 0 0 0 0 0 0 0 0 255 0"/><feOffset/><feGaussianBlur stdDeviation="1.5"/><feColorMatrix values="0 0 0 0 1 0 0 0 0 1 0 0 0 0 1 0 0 0 0.784675 0"/><feBlend in2="BackgroundImageFix" result="effect1_dropShadow"/><feBlend in="SourceGraphic" in2="effect1_dropShadow" result="shape"/></filter><filter id="y" width="18" height="19" x="5849" y="-314" filterUnits="userSpaceOnUse" color-interpolation-filters="sRGB"><feFlood flood-opacity="0" result="BackgroundImageFix"/><feColorMatrix in="SourceAlpha" values="0 0 0 0 0 0 0 0 0 0 0 0 0 0 0 0 0 0 255 0"/><feOffset/><feGaussianBlur stdDeviation="1.5"/><feColorMatrix values="0 0 0 0 1 0 0 0 0 1 0 0 0 0 1 0 0 0 0.784675 0"/><feBlend in2="BackgroundImageFix" result="effect1_dropShadow"/><feBlend in="SourceGraphic" in2="effect1_dropShadow" result="shape"/></filter><filter id="z" width="18" height="19" x="5713" y="-298" filterUnits="userSpaceOnUse" color-interpolation-filters="sRGB"><feFlood flood-opacity="0" result="BackgroundImageFix"/><feColorMatrix in="SourceAlpha" values="0 0 0 0 0 0 0 0 0 0 0 0 0 0 0 0 0 0 255 0"/><feOffset/><feGaussianBlur stdDeviation="1.5"/><feColorMatrix values="0 0 0 0 1 0 0 0 0 1 0 0 0 0 1 0 0 0 0.784675 0"/><feBlend in2="BackgroundImageFix" result="effect1_dropShadow"/><feBlend in="SourceGraphic" in2="effect1_dropShadow" result="shape"/></filter><filter id="A" width="18" height="19" x="5575" y="-324" filterUnits="userSpaceOnUse" color-interpolation-filters="sRGB"><feFlood flood-opacity="0" result="BackgroundImageFix"/><feColorMatrix in="SourceAlpha" values="0 0 0 0 0 0 0 0 0 0 0 0 0 0 0 0 0 0 255 0"/><feOffset/><feGaussianBlur stdDeviation="1.5"/><feColorMatrix values="0 0 0 0 1 0 0 0 0 1 0 0 0 0 1 0 0 0 0.784675 0"/><feBlend in2="BackgroundImageFix" result="effect1_dropShadow"/><feBlend in="SourceGraphic" in2="effect1_dropShadow" result="shape"/></filter><filter id="B" width="18" height="19" x="5440" y="-489" filterUnits="userSpaceOnUse" color-interpolation-filters="sRGB"><feFlood flood-opacity="0" result="BackgroundImageFix"/><feColorMatrix in="SourceAlpha" values="0 0 0 0 0 0 0 0 0 0 0 0 0 0 0 0 0 0 255 0"/><feOffset/><feGaussianBlur stdDeviation="1.5"/><feColorMatrix values="0 0 0 0 1 0 0 0 0 1 0 0 0 0 1 0 0 0 0.784675 0"/><feBlend in2="BackgroundImageFix" result="effect1_dropShadow"/><feBlend in="SourceGraphic" in2="effect1_dropShadow" result="shape"/></filter><filter id="H" width="104" height="52" x="5458" y="-502" filterUnits="userSpaceOnUse" color-interpolation-filters="sRGB"><feFlood flood-opacity="0" result="BackgroundImageFix"/><feColorMatrix in="SourceAlpha" values="0 0 0 0 0 0 0 0 0 0 0 0 0 0 0 0 0 0 255 0"/><feOffset dy="2"/><feGaussianBlur stdDeviation="2"/><feColorMatrix values="0 0 0 0 0 0 0 0 0 0 0 0 0 0 0 0 0 0 0.5 0"/><feBlend in2="BackgroundImageFix" result="effect1_dropShadow"/><feBlend in="SourceGraphic" in2="effect1_dropShadow" result="shape"/></filter><filter id="P" width="82" height="53" x="5544" y="-302" filterUnits="userSpaceOnUse" color-interpolation-filters="sRGB"><feFlood flood-opacity="0" result="BackgroundImageFix"/><feColorMatrix in="SourceAlpha" values="0 0 0 0 0 0 0 0 0 0 0 0 0 0 0 0 0 0 255 0"/><feOffset dy="2"/><feGaussianBlur stdDeviation="2"/><feColorMatrix values="0 0 0 0 0 0 0 0 0 0 0 0 0 0 0 0 0 0 0.5 0"/><feBlend in2="BackgroundImageFix" result="effect1_dropShadow"/><feBlend in="SourceGraphic" in2="effect1_dropShadow" result="shape"/></filter><filter id="T" width="78" height="49" x="5957" y="-307" filterUnits="userSpaceOnUse" color-interpolation-filters="sRGB"><feFlood flood-opacity="0" result="BackgroundImageFix"/><feColorMatrix in="SourceAlpha" values="0 0 0 0 0 0 0 0 0 0 0 0 0 0 0 0 0 0 255 0"/><feOffset dy="2"/><feGaussianBlur stdDeviation="1"/><feColorMatrix values="0 0 0 0 0 0 0 0 0 0 0 0 0 0 0 0 0 0 0.5 0"/><feBlend in2="BackgroundImageFix" result="effect1_dropShadow"/><feBlend in="SourceGraphic" in2="effect1_dropShadow" result="shape"/></filter><filter id="X" width="18" height="19" x="6152" y="-286" filterUnits="userSpaceOnUse" color-interpolation-filters="sRGB"><feFlood flood-opacity="0" result="BackgroundImageFix"/><feColorMatrix in="SourceAlpha" values="0 0 0 0 0 0 0 0 0 0 0 0 0 0 0 0 0 0 255 0"/><feOffset/><feGaussianBlur stdDeviation="1.5"/><feColorMatrix values="0 0 0 0 1 0 0 0 0 1 0 0 0 0 1 0 0 0 0.784675 0"/><feBlend in2="BackgroundImageFix" result="effect1_dropShadow"/><feBlend in="SourceGraphic" in2="effect1_dropShadow" result="shape"/></filter><path id="a" d="M.9 7.55c0-.64.1-1.28.27-1.92.16-.6.42-1.2.76-1.78.32-.55.77-1 1.35-1.35.57-.34 1.22-.5 1.96-.5.32 0 .63.03.93.1.3.06.52.13.66.2l.2.1-.35.85c-.4-.23-.9-.35-1.43-.35-.66 0-1.23.2-1.72.6-.5.4-.86.9-1.1 1.47-.25.57-.4 1.2-.45 1.88H2c.23-.35.57-.62 1.04-.84.45-.2.93-.3 1.45-.3.9 0 1.63.3 2.2.9.57.58.86 1.34.86 2.28 0 1-.3 1.8-.88 2.4-.6.6-1.33.9-2.22.9-1.06 0-1.92-.44-2.57-1.3-.66-.88-1-1.98-1-3.33zm1.06.7c0 .7.24 1.4.73 2.03.47.65 1.06.97 1.75.97.66 0 1.18-.22 1.55-.66.38-.45.57-1.02.57-1.7 0-.7-.2-1.26-.62-1.7-.4-.42-.94-.63-1.6-.63-.64 0-1.2.17-1.68.53-.47.35-.7.73-.7 1.15zM9.36 12v-1.12h1.1V12h-1.1zm3.03-1.23l.6-.68c.03.02.06.06.1.12 0 .02.1.1.25.28.14.13.28.24.45.34.17.1.38.2.63.28.26.08.52.12.8.12.7 0 1.27-.22 1.74-.65.47-.45.7-1 .7-1.67 0-.66-.23-1.2-.7-1.65-.5-.43-1.08-.65-1.78-.65-.33 0-.63.04-.92.13-.3.08-.5.17-.66.26l-.23.13-.62-.22.53-4.77h4.77v.86h-3.92l-.28 2.53-.1.56h.03c.4-.25.9-.38 1.5-.38.97 0 1.78.32 2.43.94.64.62.96 1.38.96 2.27 0 .9-.34 1.67-1 2.3-.66.63-1.48.94-2.43.94-.35 0-.7-.05-1.04-.15-.34-.1-.62-.22-.82-.35-.2-.14-.4-.28-.56-.4-.16-.14-.27-.26-.34-.36l-.1-.13zm7.82-6.84c0-.53.2-.98.58-1.36.38-.4.84-.58 1.38-.58.54 0 1 .18 1.4.57.38.38.57.83.57 1.36 0 .55-.2 1-.57 1.38-.4.4-.85.58-1.4.58-.53 0-1-.2-1.38-.57-.38-.36-.58-.82-.58-1.37zm.1 8.07l7.5-9.84h.98L21.3 12h-1zm.73-8.07c0 .33.1.6.33.83.22.22.48.34.8.34.32 0 .6-.12.8-.34.24-.22.35-.5.35-.83 0-.32-.1-.6-.34-.8-.24-.24-.5-.36-.82-.36-.3 0-.58.12-.8.35-.22.22-.33.5-.33.8zm3.9 6.3c0-.54.2-1 .58-1.38.38-.38.84-.58 1.4-.58.52 0 1 .2 1.37.58.4.38.6.84.6 1.4 0 .52-.2.98-.6 1.35-.4.38-.85.57-1.38.57-.54 0-1-.2-1.4-.57-.37-.37-.57-.83-.57-1.36zm.85 0c0 .32.1.6.32.82.2.22.47.33.8.33.3 0 .58-.1.8-.33.23-.23.34-.5.34-.83 0-.32-.1-.6-.34-.82-.22-.23-.5-.34-.8-.34-.32 0-.6.1-.8.34-.22.23-.32.5-.32.82z"/><path id="b" d="M.53 3.02v-.86h6.4v.67L2.37 12h-1l3.96-8.07c.08-.16.16-.3.25-.45l.22-.34.08-.12V3c-.15.02-.4.02-.74.02H.54zM8.38 12v-1.12h1.1V12h-1.1zm3.87-4.93c0-1 .1-1.86.3-2.6.2-.7.56-1.3 1.1-1.78.5-.48 1.18-.7 2-.7 2.26 0 3.4 1.7 3.4 5.07 0 3.4-1.14 5.1-3.4 5.1-2.27 0-3.4-1.7-3.4-5.1zm1 0c0 2.8.8 4.18 2.4 4.18 1.6 0 2.38-1.4 2.38-4.18s-.8-4.17-2.38-4.17c-1.6 0-2.4 1.4-2.4 4.17zm8.5-3.14c0-.53.2-.98.58-1.36.38-.4.84-.58 1.38-.58.55 0 1.02.18 1.4.57.4.38.6.83.6 1.36 0 .55-.2 1-.6 1.38-.37.4-.84.58-1.4.58-.52 0-.98-.2-1.37-.57-.38-.36-.57-.82-.57-1.37zm.1 8.07l7.5-9.84h1L22.84 12h-1zm.73-8.07c0 .33.1.6.33.83.23.22.5.34.8.34.33 0 .6-.12.83-.34.22-.22.33-.5.33-.83 0-.32-.1-.6-.33-.8-.24-.24-.5-.36-.82-.36-.3 0-.56.12-.8.35-.2.22-.32.5-.32.8zm3.9 6.3c0-.54.2-1 .58-1.38.4-.38.85-.58 1.4-.58.53 0 1 .2 1.38.58.4.38.58.84.58 1.4 0 .52-.2.98-.58 1.35-.4.38-.86.57-1.4.57-.53 0-1-.2-1.38-.57-.38-.37-.57-.83-.57-1.36zm.85 0c0 .32.1.6.32.82.2.22.48.33.8.33.3 0 .58-.1.8-.33.23-.23.35-.5.35-.83 0-.32-.12-.6-.34-.82-.23-.23-.5-.34-.8-.34-.33 0-.6.1-.8.34-.22.23-.33.5-.33.82z"/><path id="c" d="M.53 3.02v-.86h6.4v.67L2.37 12h-1l3.96-8.07c.08-.16.16-.3.25-.45l.22-.34.08-.12V3c-.15.02-.4.02-.74.02H.54zM7.43 12v-1.12h1.1V12h-1.1zm3.04-1.23l.6-.68c.04.02.06.06.1.12 0 .02.1.1.26.28.14.13.28.24.45.34.17.1.38.2.63.28.27.08.53.12.8.12.7 0 1.28-.22 1.75-.65.47-.45.7-1 .7-1.67 0-.66-.23-1.2-.7-1.65-.5-.43-1.08-.65-1.78-.65-.32 0-.62.04-.9.13-.3.08-.52.17-.67.26l-.23.13-.6-.22.52-4.77h4.75v.86h-3.92l-.28 2.53-.1.56h.03c.4-.25.9-.38 1.5-.38.97 0 1.78.32 2.43.94.65.62.97 1.38.97 2.27 0 .9-.33 1.67-1 2.3-.65.63-1.47.94-2.42.94-.35 0-.7-.05-1.04-.15-.33-.1-.6-.22-.8-.35-.24-.14-.42-.28-.58-.4-.16-.14-.27-.26-.34-.36l-.1-.13zm7.83-6.84c0-.53.2-.98.58-1.36.38-.4.84-.58 1.38-.58.54 0 1 .18 1.4.57.38.38.57.83.57 1.36 0 .55-.2 1-.57 1.38-.4.4-.85.58-1.4.58-.53 0-1-.2-1.38-.57-.4-.36-.58-.82-.58-1.37zm.1 8.07l7.5-9.84h.98L19.38 12h-1zm.73-8.07c0 .33.1.6.33.83.22.22.48.34.8.34.32 0 .6-.12.8-.34.24-.22.35-.5.35-.83 0-.32-.1-.6-.33-.8-.23-.24-.5-.36-.8-.36-.32 0-.6.12-.8.35-.23.22-.34.5-.34.8zm3.9 6.3c0-.54.2-1 .58-1.38.4-.38.85-.58 1.4-.58.53 0 1 .2 1.38.58.4.38.58.84.58 1.4 0 .52-.2.98-.58 1.35-.4.38-.85.57-1.38.57-.54 0-1-.2-1.4-.57-.37-.37-.57-.83-.57-1.36zm.84 0c0 .32.1.6.33.82.2.22.47.33.8.33.3 0 .58-.1.8-.33.23-.23.34-.5.34-.83 0-.32-.1-.6-.34-.82-.23-.23-.5-.34-.8-.34-.32 0-.6.1-.8.34-.22.23-.33.5-.33.82z"/><path id="d" d="M.9 9.17c0-.35.07-.7.2-1.05.14-.33.32-.62.53-.84.26-.28.43-.45.52-.52.1-.1.23-.2.36-.28-.8-.53-1.2-1.2-1.2-2 0-.7.24-1.28.76-1.76.52-.5 1.25-.73 2.2-.73.9 0 1.64.22 2.2.7.53.45.8 1.07.8 1.85 0 .42-.1.85-.3 1.3-.2.42-.37.73-.52.93-.14.18-.26.32-.38.43.96.56 1.43 1.26 1.43 2.13 0 .78-.32 1.45-.94 2-.63.56-1.4.84-2.34.84-.92 0-1.7-.27-2.35-.82C1.22 10.8.9 10.08.9 9.17zm1-.04c0 .63.22 1.14.7 1.54.46.4 1 .6 1.62.6.62 0 1.15-.18 1.6-.56.45-.36.67-.83.67-1.4 0-.23-.06-.45-.18-.64-.1-.2-.3-.38-.55-.55-.24-.15-.47-.3-.7-.4-.16-.1-.46-.23-.9-.4-.46-.2-.75-.33-.87-.4-.16.1-.28.2-.35.26-.1.1-.26.24-.45.44-.2.2-.34.43-.44.7-.12.28-.17.56-.17.83zm.37-4.64c0 .2.05.4.14.58.1.18.2.33.3.45.12.1.3.24.55.38.24.14.43.24.6.32.1.05.35.15.72.3l.7.3c.12-.12.24-.25.35-.4.14-.16.28-.42.43-.76.16-.36.24-.72.24-1.06 0-.53-.2-.94-.58-1.25-.37-.3-.86-.46-1.46-.46s-1.1.14-1.45.45c-.35.3-.53.68-.53 1.14zM9.73 12v-1.12h1.1V12h-1.1zm3.23-4.93c0-1 .1-1.86.3-2.6.2-.7.56-1.3 1.1-1.78.5-.48 1.18-.7 2-.7 2.27 0 3.4 1.7 3.4 5.07 0 3.4-1.13 5.1-3.4 5.1-2.26 0-3.4-1.7-3.4-5.1zm1.02 0c0 2.8.8 4.18 2.4 4.18 1.57 0 2.37-1.4 2.37-4.18s-.8-4.17-2.38-4.17c-1.6 0-2.4 1.4-2.4 4.17zm7.86-3.14c0-.53.2-.98.57-1.36.4-.4.85-.58 1.4-.58.53 0 1 .18 1.38.57.4.38.6.83.6 1.36 0 .55-.2 1-.6 1.38-.38.4-.84.58-1.4.58-.52 0-.98-.2-1.37-.57-.37-.36-.56-.82-.56-1.37zm.08 8.07l7.5-9.84h1L22.9 12h-1zm.74-8.07c0 .33.1.6.33.83.2.22.48.34.8.34.3 0 .58-.12.8-.34.23-.22.34-.5.34-.83 0-.32-.1-.6-.34-.8-.23-.24-.5-.36-.8-.36-.32 0-.6.12-.8.35-.23.22-.34.5-.34.8zm3.9 6.3c0-.54.2-1 .58-1.38.38-.38.85-.58 1.4-.58.53 0 1 .2 1.38.58.38.38.58.84.58 1.4 0 .52-.2.98-.58 1.35-.4.38-.86.57-1.4.57-.53 0-1-.2-1.38-.57-.38-.37-.57-.83-.57-1.36zm.85 0c0 .32.1.6.33.82.2.22.47.33.8.33.3 0 .58-.1.8-.33.23-.23.35-.5.35-.83 0-.32-.12-.6-.35-.82-.22-.23-.5-.34-.8-.34-.32 0-.6.1-.8.34-.22.23-.32.5-.32.82z"/><path id="e" d="M.9 9.17c0-.35.07-.7.2-1.05.14-.33.32-.62.53-.84.26-.28.43-.45.52-.52.1-.1.23-.2.36-.28-.8-.53-1.2-1.2-1.2-2 0-.7.24-1.28.76-1.76.52-.5 1.25-.73 2.2-.73.9 0 1.64.22 2.2.7.53.45.8 1.07.8 1.85 0 .42-.1.85-.3 1.3-.2.42-.37.73-.52.93-.14.18-.26.32-.38.43.96.56 1.43 1.26 1.43 2.13 0 .78-.32 1.45-.94 2-.63.56-1.4.84-2.34.84-.92 0-1.7-.27-2.35-.82C1.22 10.8.9 10.08.9 9.17zm1-.04c0 .63.22 1.14.7 1.54.46.4 1 .6 1.62.6.62 0 1.15-.18 1.6-.56.45-.36.67-.83.67-1.4 0-.23-.06-.45-.18-.64-.1-.2-.3-.38-.55-.55-.24-.15-.47-.3-.7-.4-.16-.1-.46-.23-.9-.4-.46-.2-.75-.33-.87-.4-.16.1-.28.2-.35.26-.1.1-.26.24-.45.44-.2.2-.34.43-.44.7-.12.28-.17.56-.17.83zm.37-4.64c0 .2.05.4.14.58.1.18.2.33.3.45.12.1.3.24.55.38.24.14.43.24.6.32.1.05.35.15.72.3l.7.3c.12-.12.24-.25.35-.4.14-.16.28-.42.43-.76.16-.36.24-.72.24-1.06 0-.53-.2-.94-.58-1.25-.37-.3-.86-.46-1.46-.46s-1.1.14-1.45.45c-.35.3-.53.68-.53 1.14zM9.42 12v-1.12h1.1V12h-1.1zm3.04-1.23l.6-.68c.04.02.06.06.1.12 0 .02.1.1.26.28.13.13.28.24.45.34.16.1.37.2.62.28.25.08.52.12.8.12.7 0 1.27-.22 1.74-.65.47-.45.7-1 .7-1.67 0-.66-.23-1.2-.7-1.65-.5-.43-1.08-.65-1.8-.65-.3 0-.6.04-.9.13-.3.08-.5.17-.65.26l-.24.13-.6-.22.52-4.77h4.76v.86h-3.92l-.28 2.53-.1.56h.03c.4-.25.9-.38 1.5-.38.97 0 1.78.32 2.43.94.63.62.95 1.38.95 2.27 0 .9-.32 1.67-.98 2.3-.67.63-1.48.94-2.43.94-.36 0-.7-.05-1.04-.15-.35-.1-.62-.22-.82-.35-.23-.14-.42-.28-.57-.4-.15-.14-.26-.26-.33-.36l-.1-.13zm7.83-6.84c0-.53.18-.98.57-1.36.38-.4.84-.58 1.38-.58.54 0 1 .18 1.4.57.38.38.57.83.57 1.36 0 .55-.2 1-.57 1.38-.4.4-.86.58-1.4.58-.54 0-1-.2-1.38-.57-.4-.36-.58-.82-.58-1.37zm.07 8.07l7.5-9.84h1L21.37 12h-1zm.75-8.07c0 .33.1.6.33.83.22.22.48.34.8.34.32 0 .6-.12.8-.34.23-.22.35-.5.35-.83 0-.32-.12-.6-.34-.8-.23-.24-.5-.36-.8-.36-.32 0-.6.12-.8.35-.23.22-.34.5-.34.8zm3.9 6.3c0-.54.2-1 .58-1.38.38-.38.84-.58 1.38-.58.54 0 1 .2 1.4.58.38.38.57.84.57 1.4 0 .52-.2.98-.58 1.35-.4.38-.85.57-1.4.57-.52 0-1-.2-1.37-.57-.4-.37-.58-.83-.58-1.36zm.84 0c0 .32.1.6.32.82.2.22.48.33.8.33.32 0 .6-.1.8-.33.24-.23.35-.5.35-.83 0-.32-.1-.6-.34-.82-.24-.23-.5-.34-.82-.34-.32 0-.58.1-.8.34-.2.23-.32.5-.32.82z"/><path id="f" d="M.77 5.28c0-1 .3-1.8.88-2.4.58-.6 1.3-.9 2.2-.9 1.06 0 1.92.45 2.58 1.3.65.87.97 1.98.97 3.33 0 .66-.08 1.3-.25 1.92-.16.6-.42 1.2-.76 1.78-.33.55-.8 1-1.37 1.35-.57.35-1.22.52-1.95.52-.32 0-.63-.03-.93-.1-.33-.07-.55-.14-.67-.2l-.2-.1.36-.86c.4.24.9.35 1.43.35.95 0 1.7-.38 2.28-1.16.57-.8.9-1.72 1-2.8h-.02c-.23.35-.58.63-1.05.84-.45.2-.94.32-1.46.32-.9 0-1.63-.3-2.2-.9-.56-.6-.85-1.35-.85-2.28zm.98 0c0 .68.2 1.25.6 1.68.4.42.95.63 1.63.63.64 0 1.2-.2 1.67-.54.47-.36.7-.74.7-1.15 0-.7-.24-1.38-.72-2.03-.5-.65-1.07-.97-1.77-.97-.65 0-1.17.22-1.54.66-.38.45-.57 1.02-.57 1.7zM9.45 12v-1.12h1.1V12h-1.1zm3.4-4.93c0-1 .1-1.86.3-2.6.2-.7.55-1.3 1.08-1.78.52-.48 1.2-.7 2.02-.7 2.26 0 3.4 1.7 3.4 5.07 0 3.4-1.14 5.1-3.4 5.1-2.27 0-3.4-1.7-3.4-5.1zm1 0c0 2.8.8 4.18 2.4 4.18 1.6 0 2.38-1.4 2.38-4.18s-.8-4.17-2.38-4.17c-1.6 0-2.4 1.4-2.4 4.17zm8.02-3.14c0-.53.2-.98.58-1.36.38-.4.84-.58 1.38-.58.54 0 1 .18 1.4.57.38.38.57.83.57 1.36 0 .55-.2 1-.57 1.38-.4.4-.86.58-1.4.58-.54 0-1-.2-1.38-.57-.4-.36-.58-.82-.58-1.37zm.08 8.07l7.5-9.84h1L22.95 12h-1zm.75-8.07c0 .33.1.6.33.83.22.22.48.34.8.34.32 0 .6-.12.8-.34.23-.22.35-.5.35-.83 0-.32-.12-.6-.34-.8-.23-.24-.5-.36-.8-.36-.32 0-.6.12-.8.35-.23.22-.34.5-.34.8zm3.9 6.3c0-.54.2-1 .58-1.38.38-.38.84-.58 1.38-.58.54 0 1 .2 1.4.58.38.38.57.84.57 1.4 0 .52-.2.98-.58 1.35-.4.38-.85.57-1.4.57-.52 0-1-.2-1.37-.57-.4-.37-.58-.83-.58-1.36zm.84 0c0 .32.1.6.32.82.2.22.48.33.8.33.32 0 .6-.1.8-.33.24-.23.35-.5.35-.83 0-.32-.1-.6-.33-.82-.23-.23-.5-.34-.8-.34-.32 0-.6.1-.8.34-.22.23-.33.5-.33.82z"/><path id="g" d="M.77 5.28c0-1 .3-1.8.88-2.4.58-.6 1.3-.9 2.2-.9 1.06 0 1.92.45 2.58 1.3.65.87.97 1.98.97 3.33 0 .66-.08 1.3-.25 1.92-.16.6-.42 1.2-.76 1.78-.33.55-.8 1-1.37 1.35-.57.35-1.22.52-1.95.52-.32 0-.63-.03-.93-.1-.33-.07-.55-.14-.67-.2l-.2-.1.36-.86c.4.24.9.35 1.43.35.95 0 1.7-.38 2.28-1.16.57-.8.9-1.72 1-2.8h-.02c-.23.35-.58.63-1.05.84-.45.2-.94.32-1.46.32-.9 0-1.63-.3-2.2-.9-.56-.6-.85-1.35-.85-2.28zm.98 0c0 .68.2 1.25.6 1.68.4.42.95.63 1.63.63.64 0 1.2-.2 1.67-.54.47-.36.7-.74.7-1.15 0-.7-.24-1.38-.72-2.03-.5-.65-1.07-.97-1.77-.97-.65 0-1.17.22-1.54.66-.38.45-.57 1.02-.57 1.7zM8.98 12v-1.12h1.1V12H9zm3.05-1.23l.6-.68c.03.02.06.06.1.12 0 .02.1.1.26.28.12.13.27.24.43.34.17.1.38.2.63.28.26.08.53.12.8.12.7 0 1.28-.22 1.75-.65.48-.45.72-1 .72-1.67 0-.66-.24-1.2-.72-1.65-.48-.43-1.07-.65-1.78-.65-.3 0-.62.04-.9.13-.3.08-.52.17-.66.26l-.23.13-.6-.22.52-4.77h4.76v.86h-3.9l-.3 2.53-.1.56h.03c.42-.25.92-.38 1.5-.38.98 0 1.8.32 2.44.94.63.62.95 1.38.95 2.27 0 .9-.33 1.67-.98 2.3-.67.63-1.48.94-2.44.94-.35 0-.7-.05-1.03-.15-.35-.1-.62-.22-.83-.35-.22-.14-.4-.28-.56-.4-.16-.14-.28-.26-.34-.36l-.1-.13zm7.83-6.84c0-.53.2-.98.57-1.36.4-.4.85-.58 1.4-.58.53 0 1 .18 1.38.57.4.38.6.83.6 1.36 0 .55-.2 1-.58 1.38-.4.4-.86.58-1.4.58-.54 0-1-.2-1.4-.57-.37-.36-.56-.82-.56-1.37zm.08 8.07l7.5-9.84h1L20.94 12h-1zm.75-8.07c0 .33.1.6.32.83.2.22.48.34.8.34.3 0 .6-.12.8-.34.23-.22.34-.5.34-.83 0-.32-.1-.6-.33-.8-.23-.24-.5-.36-.8-.36-.32 0-.6.12-.8.35-.23.22-.34.5-.34.8zm3.9 6.3c0-.54.18-1 .56-1.38.4-.38.85-.58 1.4-.58.53 0 1 .2 1.38.58.4.38.58.84.58 1.4 0 .52-.2.98-.58 1.35-.4.38-.85.57-1.4.57-.53 0-1-.2-1.38-.57-.38-.37-.57-.83-.57-1.36zm.83 0c0 .32.1.6.32.82.2.22.48.33.8.33.32 0 .6-.1.8-.33.24-.23.35-.5.35-.83 0-.32-.1-.6-.34-.82-.23-.23-.5-.34-.8-.34-.33 0-.6.1-.8.34-.22.23-.33.5-.33.82z"/><path id="h" d="M.8 12v-.87H3V3.37H3c-.07.15-.23.35-.48.6L1.44 5l-.6-.63 2.2-2.2h.9v8.96h2.18V12H.8zm7-4.93c0-1 .1-1.86.3-2.6.2-.7.57-1.3 1.1-1.78.52-.48 1.2-.7 2.02-.7 2.26 0 3.4 1.7 3.4 5.07 0 3.4-1.14 5.1-3.4 5.1-2.27 0-3.4-1.7-3.4-5.1zm1.02 0c0 2.8.8 4.18 2.4 4.18 1.58 0 2.37-1.4 2.37-4.18S12.8 2.9 11.2 2.9c-1.6 0-2.4 1.4-2.4 4.17zM16.74 12v-1.12h1.1V12h-1.1zm3.23-4.93c0-1 .1-1.86.3-2.6.2-.7.56-1.3 1.1-1.78.5-.48 1.18-.7 2-.7 2.27 0 3.4 1.7 3.4 5.07 0 3.4-1.13 5.1-3.4 5.1-2.26 0-3.4-1.7-3.4-5.1zm1 0c0 2.8.8 4.18 2.4 4.18 1.6 0 2.4-1.4 2.4-4.18s-.8-4.17-2.4-4.17c-1.6 0-2.4 1.4-2.4 4.17zm7.87-3.14c0-.53.2-.98.58-1.36.38-.4.84-.58 1.38-.58.54 0 1 .18 1.4.57.38.38.57.83.57 1.36 0 .55-.2 1-.57 1.38-.4.4-.86.58-1.4.58-.54 0-1-.2-1.38-.57-.4-.36-.58-.82-.58-1.37zm.08 8.07l7.5-9.84h1L29.92 12h-1zm.75-8.07c0 .33.1.6.33.83.22.22.48.34.8.34.32 0 .6-.12.8-.34.23-.22.35-.5.35-.83 0-.32-.12-.6-.34-.8-.22-.24-.5-.36-.8-.36-.3 0-.58.12-.8.35-.22.22-.33.5-.33.8zm3.9 6.3c0-.54.2-1 .58-1.38.38-.38.84-.58 1.38-.58.54 0 1 .2 1.4.58.38.38.57.84.57 1.4 0 .52-.2.98-.58 1.35-.4.38-.85.57-1.4.57-.52 0-1-.2-1.37-.57-.4-.37-.58-.83-.58-1.36zm.84 0c0 .32.12.6.34.82.2.22.47.33.8.33.3 0 .58-.1.8-.33.23-.23.34-.5.34-.83 0-.32-.1-.6-.34-.82-.23-.23-.5-.34-.8-.34-.32 0-.6.1-.8.34-.22.23-.33.5-.33.82z"/><path id="i" d="M.8 12v-.87H3V3.37H3c-.07.15-.23.35-.48.6L1.44 5l-.6-.63 2.2-2.2h.9v8.96h2.18V12H.8zm6.7-4.93c0-1 .1-1.86.3-2.6.2-.7.56-1.3 1.1-1.78.5-.48 1.18-.7 2-.7 2.26 0 3.4 1.7 3.4 5.07 0 3.4-1.14 5.1-3.4 5.1-2.27 0-3.4-1.7-3.4-5.1zm1 0c0 2.8.8 4.18 2.4 4.18 1.6 0 2.38-1.4 2.38-4.18s-.8-4.17-2.38-4.17c-1.6 0-2.4 1.4-2.4 4.17zM16.1 12v-1.12h1.12V12h-1.1zm3.05-1.23l.62-.68c.02.02.05.06.08.12 0 .02.1.1.27.28.13.13.28.24.44.34.17.1.38.2.63.28.25.08.52.12.8.12.68 0 1.26-.22 1.73-.65.48-.45.7-1 .7-1.67 0-.66-.23-1.2-.7-1.65-.48-.43-1.07-.65-1.78-.65-.32 0-.62.04-.9.13-.3.08-.52.17-.67.26l-.22.13-.62-.22.54-4.77h4.75v.86h-3.9l-.3 2.53-.1.56h.03c.42-.25.92-.38 1.5-.38.98 0 1.8.32 2.43.94.63.62.95 1.38.95 2.27 0 .9-.33 1.67-1 2.3-.65.63-1.46.94-2.42.94-.35 0-.7-.05-1.04-.15-.35-.1-.62-.22-.83-.35-.22-.14-.4-.28-.57-.4-.16-.14-.27-.26-.34-.36l-.1-.13zM27 3.93c0-.53.18-.98.56-1.36.38-.4.84-.58 1.38-.58.54 0 1 .18 1.4.57.38.38.58.83.58 1.36 0 .55-.2 1-.58 1.38-.38.4-.85.58-1.4.58-.53 0-1-.2-1.38-.57-.38-.36-.57-.82-.57-1.37zm.07 8.07l7.5-9.84h1L28.07 12h-1zm.74-8.07c0 .33.12.6.34.83.22.22.5.34.8.34.32 0 .6-.12.82-.34.22-.22.33-.5.33-.83 0-.32-.12-.6-.34-.8-.24-.24-.5-.36-.82-.36-.3 0-.57.12-.8.35-.22.22-.33.5-.33.8zm3.92 6.3c0-.54.2-1 .57-1.38.37-.38.84-.58 1.38-.58.54 0 1 .2 1.4.58.37.38.57.84.57 1.4 0 .52-.2.98-.58 1.35-.4.38-.86.57-1.4.57-.53 0-1-.2-1.38-.57-.4-.37-.58-.83-.58-1.36zm.84 0c0 .32.1.6.32.82.2.22.48.33.8.33.3 0 .58-.1.8-.33.23-.23.35-.5.35-.83 0-.32-.12-.6-.34-.82-.24-.23-.5-.34-.82-.34-.32 0-.6.1-.8.34-.2.23-.32.5-.32.82z"/><path id="j" d="M0 .25h635v-.5H0v.5z"/><path id="k" d="M.25-.43C0-.57-.3-.5-.43-.25-.57 0-.5.3-.25.43l.5-.86zm.8 1.6c.23.14.54.06.67-.18.14-.25.06-.55-.18-.7l-.5.88zm3.07.62c-.24-.15-.54-.06-.68.18s-.05.54.18.68l.5-.87zm2.1 2.34c.23.14.53.06.67-.18.13-.24.04-.55-.2-.68l-.5.86zm3.07.62c-.25-.14-.56-.05-.7.18-.13.24-.05.55.2.7l.5-.88zm2.07 2.35c.24.15.55.07.68-.17.14-.24.06-.55-.18-.7l-.5.88zm3.08.63c-.24-.14-.54-.06-.68.18-.14.25-.06.56.18.7l.5-.87zm2.1 2.35c.23.14.53.05.67-.18.14-.24.05-.55-.2-.7l-.48.88zm3.07.62c-.24-.14-.55-.06-.7.18-.12.24-.04.55.2.68l.5-.86zm2.08 2.35c.24.14.55.05.68-.2.14-.23.06-.53-.18-.67l-.5.87zm3.08.6c-.24-.12-.54-.04-.68.2-.14.24-.06.54.18.68l.5-.87zm2.1 2.37c.23.13.53.05.67-.2.14-.23.05-.53-.2-.67l-.48.87zm3.07.6c-.24-.13-.55-.04-.7.2-.12.24-.04.54.2.68l.5-.87zM32.03 19c.24.14.55.06.68-.18.15-.24.07-.55-.17-.68l-.5.86zm3.08.62c-.23-.14-.53-.05-.67.18-.14.24-.06.55.18.7l.5-.88zm2.1 2.35c.23.14.54.06.68-.18s.05-.55-.2-.7l-.48.88zm3.08.62c-.24-.14-.55-.06-.7.18-.12.24-.04.55.2.7l.5-.88zm2.08 2.35c.24.14.55.05.68-.18.14-.24.06-.55-.18-.7l-.5.88zm3.08.62c-.24-.14-.54-.06-.68.18s-.06.55.18.68l.5-.86zm2.1 2.35c.22.13.53.04.67-.2.15-.24.06-.54-.18-.68l-.5.87zm3.07.6c-.23-.13-.54-.05-.68.2-.13.23-.05.53.2.67l.5-.87zm2.1 2.36c.23.13.54.05.67-.2.14-.23.06-.53-.18-.67l-.5.86zm3.07.6c-.24-.13-.54-.04-.68.2-.15.24-.07.54.17.68l.5-.87zm2.08 2.36c.24.14.55.06.7-.18.13-.24.04-.55-.2-.68l-.5.86zm3.1.62c-.25-.14-.56-.05-.7.18-.13.24-.05.55.2.7l.5-.88zM63 36.8c.24.13.54.05.68-.2.14-.23.06-.54-.18-.68l-.5.87zm3.08.6c-.24-.13-.54-.05-.68.2-.14.23-.06.54.18.68l.5-.87zm2.08 2.36c.24.14.55.05.7-.18.12-.24.04-.55-.2-.7l-.5.88zm3.08.62c-.23-.14-.54-.06-.68.18s-.05.55.2.68l.48-.86zm2.1 2.35c.23.14.53.05.67-.2.14-.23.06-.53-.18-.67l-.5.87zm3.07.6c-.24-.12-.55-.04-.68.2-.14.24-.06.54.18.68l.5-.86zm2.08 2.37c.25.13.56.05.7-.2.13-.23.05-.53-.2-.67l-.5.87zm3.1.6c-.24-.13-.55-.04-.7.2-.13.24-.04.54.2.68l.5-.87zm2.08 2.36c.24.14.54.06.68-.18s.06-.55-.18-.68l-.5.86zm3.08.62c-.24-.14-.55-.05-.68.18-.14.24-.06.55.18.7l.5-.88zm2.08 2.35c.24.14.55.06.7-.18.12-.24.04-.55-.2-.7l-.5.88zm3.08.62c-.24-.14-.54-.06-.68.18s-.05.55.2.7l.48-.88zm2.1 2.35c.23.14.53.05.67-.18.13-.24.05-.55-.2-.7l-.5.88zm3.07.62c-.25-.14-.56-.06-.7.18-.13.24-.05.55.2.68l.5-.86zm2.07 2.35c.24.14.55.05.7-.2.12-.23.04-.53-.2-.67l-.5.87zm3.08.6c-.24-.12-.54-.04-.68.2-.14.24-.05.54.2.68l.48-.87zm2.1 2.37c.23.13.53.05.67-.2.14-.23.06-.53-.18-.67l-.5.87zm3.07.6c-.24-.13-.55-.04-.68.2-.14.24-.06.54.18.68l.5-.87zm2.08 2.36c.24.14.55.06.7-.18.12-.24.04-.55-.2-.68l-.5.86zm3.08.62c-.24-.14-.54-.05-.68.18-.14.24-.05.55.18.7l.5-.88zm2.1 2.35c.23.14.53.06.67-.18.14-.25.06-.56-.18-.7l-.5.87zm3.07.62c-.24-.15-.55-.07-.68.17-.14.24-.06.55.18.7l.5-.88zm2.08 2.34c.24.14.55.05.7-.18.12-.24.04-.55-.2-.7l-.5.88zm3.08.62c-.23-.14-.53-.06-.67.18s-.06.55.2.68l.48-.86zm2.1 2.35c.24.15.54.06.68-.18s.05-.54-.2-.68l-.48.87zm3.08.62c-.24-.13-.55-.05-.7.2-.12.23-.04.53.2.67l.5-.88zm2.08 2.36c.24.13.55.05.7-.2.12-.23.04-.53-.2-.67l-.5.88zm3.08.6c-.24-.13-.54-.04-.68.2-.14.24-.06.54.18.68l.5-.87zm2.1 2.36c.23.14.53.06.67-.18.15-.24.06-.55-.18-.68l-.5.86zM-.27.44l1.3.74.5-.87-1.3-.73-.5.86zm3.88 2.22l2.6 1.48.5-.86-2.6-1.5-.5.88zM8.8 5.63l2.57 1.48.5-.86L9.3 4.76l-.5.87zm5.15 2.97l2.6 1.48.48-.87-2.58-1.47-.5.87zm5.17 2.96l2.58 1.5.5-.88-2.58-1.48-.5.86zm5.16 2.97l2.6 1.5.48-.88-2.58-1.5-.5.88zm5.17 2.97l2.58 1.48.5-.86-2.58-1.5-.5.88zm5.16 2.97l2.6 1.48.5-.87-2.6-1.48-.5.87zm5.18 2.97l2.58 1.48.5-.87-2.58-1.48-.5.87zm5.16 2.96l2.6 1.5L48 27l-2.58-1.48-.5.86zm5.17 2.97l2.6 1.5.5-.88-2.6-1.5-.5.87zm5.17 2.97l2.58 1.48.5-.86-2.58-1.5-.5.88zm5.17 2.97l2.58 1.5.5-.88-2.58-1.48-.5.87zm5.16 2.98l2.58 1.48.5-.87-2.58-1.5-.5.88zm5.17 2.96l2.58 1.5.5-.88-2.58-1.48-.5.86zm5.16 2.97l2.58 1.5.5-.87-2.57-1.5-.5.88zm5.17 2.98l2.58 1.48.5-.86-2.6-1.5-.48.88zm5.16 2.97l2.58 1.48.5-.87-2.58-1.48-.5.87zm5.17 2.97L94 54.6l.5-.87-2.58-1.48-.5.87zm5.16 2.96l2.57 1.5.5-.88-2.58-1.48-.5.86zm5.16 2.97l2.58 1.5.5-.88-2.6-1.5-.48.88zm5.16 2.97l2.58 1.48.5-.86-2.58-1.5-.5.88zm5.16 2.97l2.6 1.47.5-.87-2.6-1.48-.5.87zm5.17 2.96l2.58 1.48.5-.87-2.58-1.48-.5.86zm5.17 2.96l2.58 1.5.5-.88-2.6-1.48-.48.86zm5.16 2.97l2.58 1.48.5-.87-2.58-1.48-.5.87zm5.16 2.96l2.6 1.48.48-.86-2.58-1.5-.5.88z"/><path id="l" d="M-.1 30.97c-.28.07-.45.33-.4.6.07.27.34.44.6.38l-.2-.98zm1.67.64c.27-.05.44-.32.37-.6-.06-.25-.33-.42-.6-.36l.23.97zm2.7-1.63c-.28.06-.45.33-.4.6.07.27.34.44.6.37l-.2-.97zm3.12.3c.26-.06.43-.33.37-.6-.06-.26-.33-.43-.6-.37l.22.97zm2.68-1.64c-.27.06-.44.33-.37.6.07.27.34.44.6.38l-.22-.97zm3.14.3c.27-.06.43-.32.37-.6-.07-.26-.34-.43-.6-.37l.22.98zm2.68-1.64c-.26.05-.43.32-.37.6.06.26.33.43.6.37l-.23-.98zm3.14.3c.27-.06.44-.33.38-.6-.07-.27-.33-.44-.6-.38l.22.98zm2.7-1.65c-.28.07-.45.33-.4.6.08.27.34.44.6.38l-.2-.98zm3.12.3c.27-.05.44-.32.38-.6-.06-.26-.33-.43-.6-.37l.22.98zm2.7-1.64c-.28.08-.44.34-.38.6.06.28.33.45.6.4l-.23-1zm3.13.32c.26-.06.43-.33.36-.6-.06-.27-.33-.44-.6-.37l.23.97zm2.68-1.64c-.27.06-.44.33-.38.6.06.26.33.43.6.37l-.22-.97zm3.13.3c.28-.06.45-.33.4-.6-.07-.27-.34-.44-.6-.37l.2.98zm2.7-1.64c-.27.06-.44.33-.37.6.06.27.33.43.6.37l-.23-.96zm3.14.3c.27-.06.43-.33.37-.6-.05-.27-.32-.43-.6-.37l.24.97zm2.7-1.64c-.28.06-.45.33-.4.6.07.27.34.43.6.37l-.2-.97zm3.12.3c.27-.06.44-.33.38-.6-.07-.27-.33-.43-.6-.37l.22.97zm2.7-1.64c-.28.06-.45.33-.4.6.08.27.34.44.6.37l-.2-.97zm3.13.3c.25-.06.42-.33.36-.6-.06-.26-.33-.43-.6-.37l.23.96zm2.67-1.64c-.27.06-.43.33-.37.6.06.27.33.44.6.38l-.23-.98zm3.14.3c.28-.06.45-.32.4-.6-.08-.26-.35-.43-.6-.37l.2.98zm2.7-1.64c-.27.06-.44.33-.38.6.06.27.33.44.6.38l-.22-.98zm3.13.3c.27-.05.44-.32.38-.6-.05-.26-.32-.43-.6-.37l.23 1zm2.7-1.64c-.28.07-.45.33-.38.6.06.27.33.44.6.38l-.23-.98zm3.13.3c.27-.05.44-.32.37-.6-.06-.26-.33-.43-.6-.37l.23.98zm2.7-1.64c-.28.07-.45.33-.4.6.07.27.34.44.6.38l-.2-.98zm3.12.3c.27-.05.44-.32.38-.6-.06-.26-.33-.43-.6-.36l.22.97zm2.7-1.63c-.28.06-.45.33-.4.6.08.26.35.43.6.37l-.2-.97zm3.13.3c.28-.06.44-.33.38-.6-.06-.27-.33-.44-.6-.37l.23.97zm2.7-1.64c-.27.06-.44.33-.38.6.06.27.33.43.6.37l-.23-.97zm3.13.3c.27-.06.44-.33.38-.6-.06-.27-.32-.43-.6-.37l.23.97zm2.7-1.64c-.28.05-.45.32-.4.6.08.26.34.42.6.36l-.2-.97zm3.12.3c.27-.07.44-.34.38-.6-.06-.28-.33-.44-.6-.38l.22.97zm2.7-1.65c-.28.06-.44.33-.38.6.06.27.33.44.6.37l-.23-.97zm3.13.3c.27-.06.44-.33.37-.6-.06-.26-.33-.43-.6-.37l.23.97zm2.7-1.64c-.28.07-.45.34-.4.6.07.28.34.45.6.4l-.2-1zm3.12.32c.27-.07.44-.33.38-.6-.06-.27-.33-.44-.6-.38l.22.98zm2.7-1.65c-.28.06-.45.33-.38.6.06.27.33.44.6.38l-.23-.98zm3.13.3c.27-.05.43-.32.37-.6-.06-.26-.33-.43-.6-.37l.23.98zm2.7-1.64c-.28.06-.45.33-.4.6.07.27.34.44.6.38l-.2-.97zm3.12.3c.27-.05.44-.32.38-.6-.07-.26-.33-.43-.6-.37l.22.98zm2.7-1.64c-.28.06-.45.32-.4.6.08.26.34.43.6.37l-.2-.98zm3.13.3c.27-.06.43-.33.37-.6-.06-.27-.33-.44-.6-.38l.23.98zm2.68-1.64c-.27.06-.43.33-.37.6.05.26.32.43.6.37l-.24-.97zm3.14.3c.27-.06.44-.33.38-.6-.07-.27-.34-.44-.6-.37l.22.96zm2.7-1.64c-.28.06-.45.33-.4.6.07.27.34.43.6.37l-.2-.98zm3.12.3c.27-.06.44-.33.38-.6-.06-.27-.33-.43-.6-.37l.22.97zM.12 31.95l1.45-.34-.23-.96-1.45.33.2.98zm4.36-1l2.9-.68-.2-.97-2.92.67.22.97zm5.82-1.34l2.92-.66-.23-.98-2.92.67.22.98zm5.83-1.33l2.9-.67-.2-.98-2.93.67.23.97zm5.82-1.34l2.9-.67-.2-.98-2.92.67.22.98zm5.83-1.34l2.9-.68-.22-.97-2.9.66.22 1zm5.82-1.35l2.9-.67-.2-.97-2.92.68.22.97zm5.83-1.34l2.9-.66-.22-.97-2.9.67.23.97zm5.82-1.33l2.9-.67-.2-.97-2.92.67.22.97zm5.82-1.34l2.92-.67-.24-.97-2.9.66.2.97zm5.83-1.33l2.9-.67-.2-.98-2.93.67.23.98zm5.82-1.34l2.9-.67-.2-1-2.92.68.22.98zm5.83-1.34l2.9-.67-.22-.98-2.9.67.22.98zm5.82-1.34l2.9-.67-.2-.96-2.92.66.22.98zm5.82-1.34l2.9-.67-.22-.97-2.9.67.2.97zM86 12.2l2.9-.67-.2-.97-2.93.67.22.97zm5.82-1.34l2.9-.67-.2-.98-2.92.67.22.96zm5.83-1.34l2.9-.67-.2-.97-2.93.67.23.97zm5.82-1.33l2.9-.68-.22-.98-2.9.67.2 1zm5.8-1.35l2.93-.67-.23-.98-2.9.67.22.98zm5.84-1.34l2.9-.66-.2-.98-2.92.67.22.98zm5.82-1.33l2.92-.67-.23-.98-2.9.67.2.97zm5.83-1.34l2.9-.67-.22-.97-2.92.66.23.97zm5.8-1.34l2.92-.68-.22-.97-2.9.67.2.97z"/><path id="m" d="M.1-.5c-.26-.05-.53.12-.6.4-.05.26.12.53.4.6l.2-1zM1.35.83c.27.06.54-.1.6-.37.07-.27-.1-.54-.37-.6l-.23.97zm3.14-.3c-.27-.07-.54.1-.6.37-.06.26.1.53.38.6L4.48.5zm2.7 1.64c.26.06.53-.1.6-.37.05-.28-.12-.55-.4-.6l-.2.96zm3.12-.3c-.26-.07-.53.1-.6.37-.06.27.1.54.38.6l.22-.97zM13 3.5c.26.06.53-.1.6-.38.05-.26-.1-.53-.38-.6L13 3.5zm3.13-.3c-.27-.07-.54.1-.6.37-.06.27.1.54.37.6l.23-.98zm2.7 1.64c.26.06.52-.1.6-.38.05-.27-.12-.53-.4-.6l-.2.98zm3.12-.3c-.27-.07-.53.1-.6.37-.06.28.1.55.38.6l.22-.97zm2.7 1.64c.26.06.53-.1.6-.38.05-.27-.12-.54-.4-.6l-.2.98zm3.13-.3c-.27-.07-.54.1-.6.37-.06.27.1.53.37.6l.23-.98zm2.68 1.64c.27.06.54-.1.6-.38.07-.27-.1-.54-.37-.6l-.24.98zm3.14-.3c-.27-.07-.54.1-.6.37-.06.26.1.52.38.6l.22-1zm2.7 1.63c.26.07.53-.1.6-.37.05-.27-.12-.54-.4-.6l-.2.97zm3.13-.3c-.27-.06-.54.1-.6.37-.07.27.1.54.37.6l.23-.97zm2.68 1.64c.28.06.55-.1.6-.38.07-.27-.1-.54-.36-.6l-.23.97zm3.15-.3c-.27-.07-.54.1-.6.36-.06.27.1.54.38.6l.22-.97zm2.7 1.63c.26.06.52-.1.6-.37.05-.27-.12-.54-.4-.6l-.2.97zm3.12-.3c-.27-.07-.53.1-.6.37-.06.27.1.54.38.6l.22-.97zm2.7 1.64c.26.06.53-.1.6-.37.05-.27-.12-.54-.38-.6l-.24.97zm3.13-.3c-.27-.07-.54.1-.6.37-.06.27.1.54.37.6l.23-.97zm2.7 1.64c.25.07.52-.1.6-.37.05-.26-.12-.53-.4-.6l-.2.98zm3.12-.3c-.27-.06-.54.1-.6.38-.06.27.1.54.38.6l.22-.98zm2.7 1.65c.26.06.53-.1.6-.38.05-.27-.12-.53-.4-.6l-.2.98zm3.13-.3c-.27-.07-.54.1-.6.37-.07.27.1.54.37.6l.23-.98zm2.68 1.64c.27.05.54-.12.6-.4.07-.26-.1-.53-.37-.6l-.23 1zm3.14-.32c-.27-.06-.54.1-.6.38-.06.27.1.53.38.6l.22-.98zm2.7 1.65c.26.06.53-.1.6-.38.05-.27-.12-.54-.4-.6l-.2.98zm3.12-.3c-.27-.07-.54.1-.6.37-.07.27.1.53.37.6l.22-.98zm2.68 1.63c.27.07.54-.1.6-.37.06-.28-.1-.55-.37-.6l-.22.96zm3.14-.3c-.27-.06-.54.1-.6.37-.06.27.1.54.37.6l.22-.97zm2.7 1.64c.26.07.52-.1.6-.37.05-.27-.12-.54-.4-.6l-.2.97zm3.12-.3c-.27-.06-.53.1-.6.37-.06.27.1.54.38.6l.22-.97zm2.7 1.64c.26.06.53-.1.6-.37.05-.27-.12-.54-.4-.6l-.2.97zm3.13-.3c-.27-.06-.54.1-.6.37-.06.28.1.55.37.6l.23-.96zm2.7 1.64c.25.06.52-.1.58-.37.07-.26-.1-.53-.37-.6l-.22.98zm3.12-.3c-.28-.07-.55.1-.6.37-.07.27.1.54.37.6l.22-.97zm2.68 1.64c.27.06.54-.1.6-.38.06-.26-.1-.53-.38-.6l-.22.98zm3.13-.3c-.25-.07-.52.1-.58.37-.07.26.1.53.37.6l.22-1zm2.7 1.64c.27.06.54-.1.6-.38.06-.27-.1-.53-.37-.6l-.23.98zm3.14-.3c-.27-.07-.54.1-.6.37-.06.27.1.54.38.6l.22-.98zm2.7 1.64c.26.06.52-.1.6-.38.05-.27-.12-.54-.4-.6l-.2.98zm3.12-.3c-.27-.07-.53.1-.6.37-.06.27.1.53.38.6l.22-.98zm2.7 1.64c.26.06.53-.1.6-.38.05-.27-.12-.54-.38-.6l-.23.98zm3.13-.3c-.28-.07-.55.1-.6.37-.07.28.1.54.36.6l.23-.97zm2.68 1.63c.27.07.53-.1.6-.37.06-.27-.1-.54-.38-.6l-.22.97zm3.13-.3c-.26-.06-.53.1-.6.37-.05.27.12.54.4.6l.2-.97zm2.7 1.64c.27.08.54-.1.6-.36.06-.27-.1-.54-.38-.6l-.22.97zM-.1.5L1.33.8l.23-.97L.1-.5l-.2 1zm4.36 1l2.9.66.23-.97L4.47.5l-.22.97zm5.82 1.33l2.9.67.24-.98-2.92-.66-.22.97zm5.82 1.34l2.92.67.22-.98-2.9-.67-.24.97zm5.83 1.34l2.9.68.23-.98-2.9-.67-.23.98zm5.82 1.35l2.9.67.24-.98-2.92-.67-.23.98zm5.83 1.34l2.9.65.23-.97-2.9-.67-.22 1zM39.2 9.5l2.9.67.24-.98-2.9-.67-.24.97zm5.83 1.34l2.9.67.23-.97-2.9-.67-.23.96zm5.82 1.34l2.9.67.24-.97-2.93-.67-.22.97zm5.82 1.34l2.92.67.2-.96-2.9-.67-.23.97zm5.83 1.34l2.9.67.23-.98-2.9-.67-.23.98zm5.82 1.34l2.9.67.24-1-2.9-.66-.24.98zm5.83 1.34l2.9.67.23-.98-2.9-.67-.23.98zm5.82 1.34l2.9.66.24-.97-2.9-.68-.23.98zm5.82 1.33l2.9.67.23-.97-2.9-.67-.24.97zm5.82 1.34l2.9.67.23-.97-2.9-.67-.23.97zm5.82 1.34l2.92.68.22-.97-2.9-.66-.24.97zm5.83 1.35l2.9.67.23-.97-2.9-.67-.23.97zm5.82 1.34l2.9.66.23-.98-2.92-.67-.2 1zm5.82 1.33l2.9.67.23-.98-2.9-.67-.23.98zm5.82 1.34l2.9.67.24-.98-2.92-.67-.22.97zm5.82 1.34l2.92.67.22-.97-2.9-.67-.24.98zm5.83 1.34l2.9.67.22-.96-2.9-.67-.23.97z"/><path id="n" d="M136.95.5c.27-.05.46-.3.4-.58-.04-.28-.3-.46-.57-.4l.17.97zM-.08 23.1c-.28.05-.46.3-.4.58.03.27.3.46.56.4l-.16-.98zm1.65.73c.27-.04.46-.3.4-.58-.04-.27-.3-.45-.57-.4l.17.98zm2.8-1.5c-.26.05-.45.3-.4.58.05.28.3.47.58.42l-.17-1zm3.15.48c.28-.04.46-.3.4-.57-.04-.27-.3-.46-.57-.4l.17.98zm2.8-1.5c-.26.05-.45.3-.4.6.05.26.3.44.58.4l-.17-1zm3.15.48c.28-.05.46-.3.4-.58-.03-.27-.3-.45-.57-.4l.17.98zm2.8-1.5c-.26.05-.45.3-.4.58.05.27.3.45.58.4l-.17-.98zm3.15.47c.28-.04.46-.3.4-.57-.03-.28-.3-.46-.57-.4l.17.97zm2.8-1.5c-.26.05-.44.3-.4.58.05.28.3.46.58.4l-.17-.97zm3.16.48c.27-.05.45-.3.4-.58-.04-.27-.3-.45-.57-.4l.18.98zm2.8-1.5c-.27.05-.45.3-.4.58.04.28.3.46.57.42l-.17-1zm3.15.47c.27-.04.45-.3.4-.57-.04-.28-.3-.46-.57-.4l.17.97zm2.8-1.5c-.27.05-.45.3-.4.58.04.27.3.46.57.4l-.17-.98zm3.15.48c.27-.05.45-.3.4-.58-.04-.27-.3-.46-.57-.4l.18.98zm2.8-1.5c-.27.05-.45.3-.4.58.04.27.3.45.57.4l-.17-.98zm3.15.47c.27-.05.45-.3.4-.58-.04-.27-.3-.45-.57-.4l.17.98zm2.8-1.5c-.27.05-.45.3-.4.58.04.27.3.45.57.4l-.17-.98zm3.15.47c.27-.04.45-.3.4-.57-.04-.27-.3-.46-.57-.4l.18.97zm2.8-1.5c-.27.05-.45.3-.4.58.04.28.3.46.57.4l-.17-.97zm3.15.48c.27-.05.45-.3.4-.58-.04-.27-.3-.45-.57-.4l.17.98zm2.8-1.5c-.27.05-.45.3-.4.58.04.27.3.45.57.4l-.17-.98zm3.15.47c.27-.04.45-.3.4-.57-.04-.28-.3-.46-.57-.4l.18.97zm2.8-1.5c-.27.05-.45.3-.4.58.04.27.3.46.58.4l-.17-.98zm3.15.48c.27-.05.46-.3.4-.58-.04-.27-.3-.46-.57-.4l.17.98zm2.8-1.5c-.27.05-.45.3-.4.58.05.27.3.45.58.4l-.16-.98zm3.15.47c.27-.05.46-.3.4-.58-.04-.27-.3-.45-.57-.4l.18.98zm2.8-1.5c-.27.05-.45.3-.4.58.05.27.3.46.58.4l-.17-.98zm3.15.48c.27-.05.46-.3.4-.58-.04-.27-.3-.46-.57-.4l.17.98zm2.8-1.5c-.26.04-.45.3-.4.57.05.28.3.46.58.4L81.75 9zm3.15.47c.28-.05.46-.3.4-.58-.04-.28-.3-.46-.57-.42l.18 1zm2.8-1.5c-.26.05-.45.3-.4.58.05.27.3.45.58.4l-.17-.98zm3.15.47c.28-.04.46-.3.4-.57-.04-.28-.3-.46-.57-.4l.17.97zm2.8-1.5c-.26.05-.45.3-.4.58.05.27.3.46.58.4l-.16-.97zm3.15.48c.28-.05.46-.3.4-.58-.03-.27-.3-.45-.57-.4l.18.98zm2.8-1.5c-.26.05-.44.3-.4.58.05.27.3.45.58.4l-.17-.98zm3.16.47c.27-.06.45-.3.4-.6-.04-.26-.3-.44-.58-.4l.17 1zm2.8-1.5c-.27.04-.45.3-.4.57.04.27.3.46.57.4l-.16-.98zm3.15.47c.26-.05.44-.3.4-.58-.05-.28-.3-.47-.58-.42l.17 1zm2.8-1.5c-.28.04-.46.3-.42.58.05.27.3.45.58.4l-.17-.98zm3.14.47c.27-.05.45-.3.4-.58-.04-.27-.3-.45-.57-.4l.17.98zm2.8-1.5c-.27.05-.45.3-.4.58.04.27.3.45.57.4l-.16-.98zm3.15.47c.26-.03.44-.3.4-.56-.05-.28-.3-.46-.58-.4l.17.97zm2.8-1.48c-.28.04-.46.3-.42.57.05.27.3.45.58.4l-.17-.98zm3.14.47c.27-.06.45-.32.4-.6-.04-.26-.3-.44-.57-.4l.17 1zm2.8-1.5c-.27.04-.45.3-.4.57.04.27.3.45.57.4l-.16-.98zm3.15.46c.26-.04.44-.3.4-.58-.05-.27-.3-.45-.58-.4l.17.98zm2.8-1.5c-.28.05-.46.3-.4.58.03.27.3.46.56.4l-.17-.98zM.07 24.1l1.5-.27-.18-.98-1.48.25.16 1zm4.47-.78l2.97-.5-.17-1-2.97.5.17 1zm5.95-1.03l2.97-.52-.17-.98-2.97.5.17 1zm5.95-1.03l2.97-.52-.17-.98-2.97.5.17 1zm5.95-1.03l2.98-.5-.17-1-2.97.52.17.98zm5.95-1.02l2.98-.52-.17-.98-2.98.5.17 1zm5.95-1.03l2.98-.52-.17-1-2.97.52.17 1zm5.95-1.04l2.98-.5-.17-1-2.98.52.17.98zm5.95-1.02l2.98-.52-.17-.98-2.97.5.17 1zm5.95-1.03l2.98-.5-.17-1-2.98.53.17.98zm5.95-1l2.98-.53-.17-.98-2.97.5.17 1zm5.96-1.04l2.97-.5-.17-1-2.97.5.16 1zM70 12.03l2.98-.5-.17-1-2.96.52.17.98zM75.97 11l2.97-.5-.17-1-2.97.52.16 1zM81.9 10l2.98-.5-.17-1-2.96.52.17.98zm5.96-1.02l2.97-.52-.17-.98-2.97.5.16 1zm5.95-1.03l2.98-.5-.17-1-2.96.52.17.98zm5.96-1.03l2.97-.5-.17-1-2.97.52.16.98zm5.95-1.02l3-.5-.18-1-2.98.5.17 1zm5.96-1.03l2.98-.5-.17-1-2.98.52.16.98zm5.95-1.02l3-.52-.18-.97-2.98.5.17 1zm5.96-1.03l2.98-.5-.17-1-2.98.52.16.98zm5.95-1.02l3-.52-.18-.98-2.98.5.17 1zm5.96-1.03l1.5-.26-.18-1-1.5.26.18 1z"/><path id="o" fill-rule="evenodd" d="M5.36 6H.64C.3 6 0 5.7 0 5.36V.64C0 .3.3 0 .64 0h4.72C5.7 0 6 .3 6 .64v4.72c0 .35-.3.64-.64.64z"/><path id="p" fill-rule="evenodd" d="M5.36 6H.64C.3 6 0 5.7 0 5.36V.64C0 .3.3 0 .64 0h4.72C5.7 0 6 .3 6 .64v4.72c0 .35-.3.64-.64.64z"/><path id="q" d="M.25 7.87V0h-.5v7.87h.5z"/><path id="r" d="M.36 1.25h634.98v-.5H.36v.5z"/><path id="s" d="M136.1 165.8c.35.43.98.5 1.4.14.43-.35.5-.98.14-1.4l-1.54 1.27zM.77-.63c-.35-.42-.98-.48-1.4-.13-.43.35-.5.98-.14 1.4L.77-.63zm136.87 165.17L.77-.64-.77.64 136.1 165.8l1.54-1.27z"/><path id="t" d="M136.7 24.58c.54.1 1.06-.27 1.15-.8.1-.56-.27-1.08-.8-1.17l-.35 1.98zM.17-1C-.37-1.07-.9-.7-1-.16-1.07.37-.7.9-.16 1l.34-2zm136.87 23.6L.17-1l-.34 2L136.7 24.57l.34-1.97z"/><path id="u" d="M136.98 1c.55-.07.95-.57.88-1.1-.06-.56-.56-.96-1.1-.9l.22 2zM-.12 14.73c-.54.06-.94.56-.87 1.1.07.55.57.95 1.1.88l-.2-1.98zM136.76-1L-.1 14.75l.2 1.98L137 1l-.23-2z"/><path id="v" d="M136.98 1c.55-.07.94-.57.88-1.1-.06-.56-.56-.96-1.1-.9l.22 2zM-.12 14.73c-.54.06-.94.56-.87 1.1.07.55.57.95 1.1.88l-.2-1.98zM136.76-1L-.1 14.75l.2 1.98L137 1l-.23-2z"/><path id="w" fill-rule="evenodd" d="M6 12c3.3 0 6-2.7 6-6S9.3 0 6 0 0 2.7 0 6s2.7 6 6 6z"/><path id="C" d="M.8 12v-.87H3V3.37H3c-.07.15-.23.35-.48.6L1.44 5l-.6-.63 2.2-2.2h.9v8.96h2.18V12H.8zm6.56-.63c0-.46.1-.9.28-1.3.18-.4.42-.76.72-1.06.3-.28.62-.56.98-.83l1.08-.76c.35-.23.68-.47.98-.73.3-.24.53-.53.72-.85.2-.32.28-.66.28-1.02 0-.55-.2-1-.57-1.35-.38-.36-.87-.53-1.47-.53-.3 0-.55.04-.78.13-.25.1-.46.2-.62.34-.15.1-.3.23-.44.38s-.23.26-.28.34l-.08.13-.73-.48.12-.2c.04-.07.15-.2.33-.42.2-.2.38-.4.58-.54.23-.16.5-.3.84-.42.35-.13.72-.2 1.1-.2.93 0 1.66.27 2.2.8.54.5.8 1.17.8 1.97 0 .45-.08.87-.26 1.25-.18.4-.42.72-.72 1-.28.28-.6.55-.97.82l-1.06.74c-.34.23-.66.47-.97.73-.3.25-.55.53-.73.83-.18.3-.27.65-.27 1h5.13V12H7.42c-.04-.2-.06-.42-.06-.63z"/><path id="D" d="M.77 5.28c0-1 .3-1.8.88-2.4.58-.6 1.3-.9 2.2-.9 1.06 0 1.92.45 2.58 1.3.65.87.97 1.98.97 3.33 0 .66-.08 1.3-.25 1.92-.16.6-.42 1.2-.76 1.78-.33.55-.8 1-1.37 1.35-.57.35-1.22.52-1.95.52-.32 0-.63-.03-.93-.1-.33-.07-.55-.14-.67-.2l-.2-.1.36-.86c.4.24.9.35 1.43.35.95 0 1.7-.38 2.28-1.16.57-.8.9-1.72 1-2.8h-.02c-.23.35-.58.63-1.05.84-.45.2-.94.32-1.46.32-.9 0-1.63-.3-2.2-.9-.56-.6-.85-1.35-.85-2.28zm.98 0c0 .68.2 1.25.6 1.68.4.42.95.63 1.63.63.64 0 1.2-.2 1.67-.54.47-.36.7-.74.7-1.15 0-.7-.24-1.38-.72-2.03-.5-.65-1.07-.97-1.77-.97-.65 0-1.17.22-1.54.66-.38.45-.57 1.02-.57 1.7z"/><path id="E" d="M.9 7.55c0-.64.1-1.28.27-1.92.16-.6.42-1.2.76-1.78.32-.55.77-1 1.35-1.35.57-.34 1.22-.5 1.96-.5.32 0 .63.03.93.1.3.06.52.13.66.2l.2.1-.35.85c-.4-.23-.9-.35-1.43-.35-.66 0-1.23.2-1.72.6-.5.4-.86.9-1.1 1.47-.25.57-.4 1.2-.45 1.88H2c.23-.35.57-.62 1.04-.84.45-.2.93-.3 1.45-.3.9 0 1.63.3 2.2.9.57.58.86 1.34.86 2.28 0 1-.3 1.8-.88 2.4-.6.6-1.33.9-2.22.9-1.06 0-1.92-.44-2.57-1.3-.66-.88-1-1.98-1-3.33zm1.06.7c0 .7.24 1.4.73 2.03.47.65 1.06.97 1.75.97.66 0 1.18-.22 1.55-.66.38-.45.57-1.02.57-1.7 0-.7-.2-1.26-.62-1.7-.4-.42-.94-.63-1.6-.63-.64 0-1.2.17-1.68.53-.47.35-.7.73-.7 1.15z"/><path id="F" d="M.63 10.82l.6-.74c.1.12.2.23.3.33.14.13.43.3.88.52.45.2.9.32 1.34.32.6 0 1.13-.2 1.58-.6.45-.4.68-.9.68-1.52 0-.66-.25-1.18-.73-1.55-.48-.37-1.06-.55-1.76-.55h-.66l-.24-.58 2.47-2.88.5-.55V3c-.17.03-.44.04-.78.04H1.1v-.86h5.74v.64L3.9 6.2c.36 0 .7.08 1.02.18.34.1.67.27.98.48.33.2.6.5.8.9.2.38.3.83.3 1.33 0 .84-.32 1.56-.94 2.16-.62.6-1.4.9-2.3.9-.37 0-.72-.04-1.07-.13-.36-.1-.65-.2-.9-.34-.23-.14-.44-.27-.62-.4-.17-.12-.3-.23-.42-.34l-.13-.14z"/><path id="G" d="M.98 7.07c0-1 .1-1.86.3-2.6.2-.7.56-1.3 1.1-1.78.5-.48 1.18-.7 2-.7 2.26 0 3.4 1.7 3.4 5.07 0 3.4-1.14 5.1-3.4 5.1-2.27 0-3.4-1.7-3.4-5.1zm1 0c0 2.8.8 4.18 2.4 4.18 1.6 0 2.38-1.4 2.38-4.18S5.96 2.9 4.38 2.9c-1.6 0-2.4 1.4-2.4 4.17z"/><path id="I" fill-rule="evenodd" d="M42.2 3v79.7c0 1.67-1.34 3-3 3H27.57l-6.07 7.65c-.46.6-1.35.6-1.83.02l-6.4-7.66H3c-1.66 0-3-1.33-3-3V3c0-1.66 1.34-3 3-3h36.2c1.66 0 3 1.34 3 3z"/><path id="J" d="M27.57 85.7v-.5h-.24l-.15.2.4.3zm-6.07 7.65l.4.3-.4-.3zm-1.83.02l.38-.32-.38.32zm-6.4-7.66l.38-.3-.15-.2h-.23v.5zM41.7 3v79.7h1V3h-1zm0 79.7c0 1.4-1.12 2.5-2.5 2.5v1c1.93 0 3.5-1.56 3.5-3.5h-1zm-2.5 2.5H27.57v1H39.2v-1zm-12.02.2l-6.07 7.64.8.62 6.06-7.64-.78-.62zm-6.07 7.64c-.26.34-.77.35-1.05 0l-.77.65c.7.8 1.95.8 2.62-.04l-.8-.62zm-1.05 0l-6.4-7.65-.76.63 6.38 7.66.77-.65zm-6.78-7.83H3v1h10.27v-1zM3 85.2c-1.38 0-2.5-1.1-2.5-2.5h-1c0 1.94 1.57 3.5 3.5 3.5v-1zM.5 82.7V3h-1v79.7h1zM.5 3C.5 1.62 1.62.5 3 .5v-1C1.07-.5-.5 1.07-.5 3h1zM3 .5h36.2v-1H3v1zm36.2 0c1.38 0 2.5 1.12 2.5 2.5h1c0-1.93-1.57-3.5-3.5-3.5v1z"/><path id="K" d="M1.22 11V2.56H4.1c.68 0 1.23.2 1.65.58.43.4.64.9.64 1.55 0 .85-.37 1.46-1.1 1.82v.03c.44.1.78.36 1.05.75.25.38.38.83.38 1.34 0 .73-.24 1.3-.72 1.72-.47.43-1.08.64-1.8.64H1.22zm.83-.74H4.2c.52 0 .93-.15 1.23-.45.3-.28.44-.68.44-1.2 0-.5-.16-.9-.46-1.2-.3-.3-.7-.45-1.2-.45H2.05v3.3zm0-4.04H4.1c.43 0 .77-.13 1.04-.4.26-.27.4-.63.4-1.07 0-.45-.14-.8-.4-1.05-.25-.26-.6-.4-1.05-.4H2.04v2.92zM8 9.35c0-1.4 1.24-2.08 3.7-2.08h.34V7.1c0-1.03-.5-1.55-1.5-1.55-.3 0-.58.05-.87.15-.28.1-.5.2-.63.28l-.2.15-.4-.63c.1-.07.2-.13.27-.18.12-.07.36-.18.74-.3.37-.14.76-.2 1.15-.2.72 0 1.28.2 1.67.6.4.4.58.97.58 1.72V11h-.78v-.66l.02-.5h-.03l-.06.13c-.02.06-.1.17-.2.32-.12.15-.25.28-.38.4-.14.1-.34.2-.58.3-.26.1-.52.15-.8.15-.53 0-1-.16-1.43-.47-.4-.3-.6-.75-.6-1.33zm.84-.04c0 .3.12.57.36.8.24.23.57.35 1 .35.53 0 .97-.23 1.32-.7.34-.46.52-.97.52-1.54v-.26h-.35c-.32 0-.6 0-.88.03-.25.02-.55.07-.88.15-.35.08-.62.22-.8.42-.2.2-.3.45-.3.77zm5.4.97l.44-.6c.03.05.1.12.22.22.1.06.3.17.6.3.33.15.65.2.98.2.35 0 .63-.07.86-.24.24-.17.36-.4.36-.7 0-.25-.12-.46-.34-.63-.23-.17-.5-.3-.8-.43-.26-.1-.58-.22-.97-.4-.33-.13-.6-.33-.82-.6-.23-.24-.34-.55-.34-.9 0-.53.2-.94.6-1.24.4-.3.88-.44 1.47-.44.25 0 .47.02.7.07.22.04.4.1.5.15.15.06.27.13.38.2.1.07.2.13.22.16l.06.08-.37.62c-.04-.03-.1-.08-.18-.14-.08-.06-.24-.15-.5-.25s-.54-.15-.84-.15c-.33 0-.62.08-.85.24-.23.14-.35.38-.35.7 0 .23.1.44.34.6.22.18.5.32.82.44.3.1.63.24.95.38.3.15.58.35.8.6.22.25.33.57.33.93 0 .5-.2.9-.57 1.22-.4.32-.88.48-1.5.48-.24 0-.5-.03-.78-.1-.24-.05-.45-.12-.63-.2-.16-.1-.3-.18-.44-.27-.1-.08-.2-.16-.28-.23l-.08-.08zM19.64 8c0-.97.28-1.74.85-2.3.57-.6 1.27-.88 2.1-.88.8 0 1.43.26 1.87.8.44.53.66 1.2.66 1.98l-.03.42h-4.63c.02.75.25 1.34.7 1.76.44.42 1 .63 1.64.63.33 0 .65-.05.96-.17.28-.12.5-.24.67-.37l.2-.18.4.62c-.07.06-.16.14-.3.24-.1.08-.36.2-.76.37-.38.17-.78.25-1.18.25-.92 0-1.67-.3-2.27-.9-.6-.6-.9-1.34-.9-2.26zm.87-.65h3.8c-.02-.6-.2-1.06-.52-1.37-.32-.32-.72-.48-1.2-.48-.52 0-.97.17-1.36.5-.38.3-.62.77-.7 1.35zm6.13 2.22v-7h.8v6.82c0 .6.23.9.68.9h.2V11c-.07.02-.17.03-.3.03-.9 0-1.38-.5-1.38-1.48zm3-6v-1h.84v1h-.84zm.02 7.43V4.96h.8V11h-.8zm2.8 0V4.96h.8v.9l-.03.48h.02c.14-.37.43-.7.84-1.04.42-.32.95-.48 1.57-.48.72 0 1.24.2 1.55.6.3.38.47.97.47 1.74V11h-.8V7.38c0-.57-.1-1-.27-1.33-.17-.3-.53-.46-1.06-.46-.5 0-.96.14-1.37.46-.4.32-.68.73-.82 1.23-.06.22-.1.5-.1.8V11h-.8zm6.68-3c0-.97.3-1.74.86-2.3.57-.6 1.27-.88 2.1-.88.8 0 1.43.26 1.87.8.44.53.66 1.2.66 1.98l-.03.42h-4.63c.02.75.25 1.34.7 1.76.44.42 1 .63 1.64.63.33 0 .65-.05.96-.17.28-.12.5-.24.67-.37l.2-.18.4.62c-.07.06-.16.14-.3.24-.1.08-.36.2-.76.37-.38.17-.78.25-1.18.25-.92 0-1.67-.3-2.27-.9-.6-.6-.9-1.34-.9-2.26zm.88-.65h3.8c-.02-.6-.2-1.06-.52-1.37-.32-.32-.72-.48-1.2-.48-.52 0-.97.17-1.36.5-.38.3-.62.77-.7 1.35z"/><path id="L" d="M.66 5.24c0-.86.25-1.54.75-2.05.5-.52 1.14-.78 1.9-.78.9 0 1.65.37 2.2 1.12.57.73.85 1.68.85 2.84 0 .56-.08 1.1-.22 1.64-.14.52-.36 1.03-.65 1.52-.28.47-.67.86-1.17 1.16-.48.3-1.03.45-1.66.45-.27 0-.54-.03-.8-.1-.28-.05-.47-.1-.57-.17l-.18-.1.3-.72c.36.2.77.3 1.23.3.82 0 1.47-.33 1.96-1 .48-.67.76-1.46.85-2.38h-.02c-.2.3-.5.53-.9.72-.4.17-.8.26-1.25.26-.77 0-1.4-.25-1.9-.76C.92 6.7.67 6.04.67 5.24zm.84 0c0 .6.17 1.07.52 1.44.35.36.8.54 1.4.54.54 0 1-.15 1.42-.46.4-.3.6-.63.6-.98 0-.6-.2-1.2-.62-1.75-.4-.55-.92-.83-1.5-.83-.57 0-1 .2-1.33.57-.34.38-.5.87-.5 1.46zM8.1 11v-.96h.95V11H8.1zm2.6-5.76c0-.86.24-1.54.74-2.05.5-.52 1.13-.78 1.9-.78.9 0 1.64.37 2.2 1.12.56.73.84 1.68.84 2.84 0 .56-.07 1.1-.22 1.64-.14.52-.36 1.03-.65 1.52-.27.47-.66.86-1.16 1.16-.48.3-1.04.45-1.67.45-.27 0-.54-.03-.8-.1-.28-.05-.47-.1-.57-.17l-.18-.1.32-.72c.35.2.76.3 1.22.3.82 0 1.47-.33 1.96-1 .5-.67.78-1.46.86-2.38h-.02c-.2.3-.5.53-.9.72-.4.17-.8.26-1.25.26-.76 0-1.4-.25-1.87-.76-.5-.5-.74-1.16-.74-1.96zm.83 0c0 .6.18 1.07.52 1.44.35.36.8.54 1.4.54.54 0 1.02-.15 1.42-.46.4-.3.6-.63.6-.98 0-.6-.2-1.2-.62-1.75-.4-.55-.9-.83-1.5-.83-.57 0-1 .2-1.33.57-.33.38-.5.87-.5 1.46zm6.27-1.15c0-.47.17-.86.5-1.2.32-.3.72-.48 1.18-.48.46 0 .86.17 1.2.5.32.32.5.7.5 1.17 0 .45-.17.85-.5 1.17-.33.32-.73.5-1.2.5-.46 0-.85-.18-1.2-.5-.3-.32-.48-.72-.48-1.18zm.07 6.9l6.44-8.44h.86L18.73 11h-.86zm.64-6.9c0 .27.1.5.3.7.18.2.4.28.68.28.27 0 .5-.1.7-.3.2-.18.28-.4.28-.7 0-.27-.1-.5-.3-.7-.18-.2-.42-.3-.68-.3-.27 0-.5.1-.7.3-.18.2-.27.43-.27.7zm3.36 5.4c0-.48.16-.87.5-1.2.32-.33.7-.5 1.18-.5.46 0 .86.17 1.2.5.32.33.5.72.5 1.2 0 .45-.18.84-.5 1.16-.35.32-.74.5-1.2.5-.46 0-.86-.18-1.2-.5-.32-.32-.48-.7-.48-1.17zm.72-.02c0 .27.1.5.27.7.18.2.4.3.7.3.26 0 .5-.1.68-.3.2-.2.3-.43.3-.7 0-.28-.1-.5-.3-.7-.2-.2-.43-.3-.7-.3-.27 0-.5.1-.68.3-.18.2-.27.42-.27.7z"/><path id="M" d="M.66 6.78c0-1.23.4-2.26 1.22-3.1.82-.84 1.83-1.26 3.03-1.26.6 0 1.13.08 1.62.25.5.16.86.32 1.06.48l.33.26-.44.63c-.06-.06-.16-.14-.3-.24-.13-.1-.42-.2-.88-.38-.43-.15-.87-.23-1.33-.23-1 0-1.83.33-2.47 1-.64.7-.96 1.55-.96 2.56 0 1.04.32 1.9.96 2.6.64.68 1.44 1.02 2.4 1.02.47 0 .93-.1 1.38-.32.44-.2.76-.4.96-.62l.3-.3V7.7H6.08v-.73H8.3V11h-.75v-1c-.06.06-.1.1-.13.13-.04.04-.15.13-.34.27-.17.12-.35.23-.56.34-.2.1-.45.2-.77.28-.33.08-.65.13-.96.13-1.17 0-2.15-.42-2.95-1.25-.8-.83-1.2-1.87-1.2-3.12zm9.36 2.8V2.55h.8V9.4c0 .6.24.9.7.9h.2V11c-.1.02-.2.03-.3.03-.94 0-1.4-.5-1.4-1.48zm2.12 3.58l.32-.65c.22.2.46.3.7.3.5 0 .87-.34 1.15-1l.4-.85-2.54-6h.9l1.78 4.42.22.63h.02c.07-.25.14-.47.2-.63l1.75-4.4h.88l-2.96 7.3c-.16.38-.4.7-.7.92-.3.2-.65.32-1.04.32-.2 0-.37-.03-.54-.1-.17-.04-.3-.1-.38-.16l-.14-.1zM18.6 8c0-.93.3-1.7.92-2.3.6-.58 1.36-.88 2.26-.88.25 0 .52.03.8.1.23.05.44.12.62.2.14.08.28.16.43.26.12.08.2.16.27.22l.1.1-.43.6c-.03-.04-.1-.1-.22-.2-.1-.1-.3-.2-.6-.33-.32-.14-.63-.2-.95-.2-.67 0-1.23.22-1.68.67-.44.46-.67 1.04-.67 1.75 0 .7.23 1.28.68 1.73.46.46 1.02.68 1.7.68.2 0 .44-.02.67-.08.2-.05.4-.12.54-.2.14-.1.27-.17.4-.26.1-.08.2-.15.25-.2l.06-.1.37.64c-.04.03-.07.07-.1.1-.04.05-.13.12-.28.23-.18.12-.34.2-.48.28-.17.1-.4.17-.66.24-.26.07-.54.1-.82.1-.9 0-1.65-.3-2.26-.88-.6-.58-.9-1.34-.9-2.27zm6.52 1.35c0-1.4 1.24-2.08 3.7-2.08h.34V7.1c0-1.03-.5-1.55-1.5-1.55-.3 0-.58.05-.87.15-.3.1-.5.2-.64.28l-.2.15-.4-.63c.1-.07.2-.13.27-.18.1-.07.35-.18.73-.3.37-.14.76-.2 1.15-.2.75 0 1.3.2 1.7.6.38.4.57.97.57 1.72V11h-.78V9.84l-.07.13c-.03.06-.1.17-.2.32-.13.15-.26.28-.4.4-.13.1-.33.2-.57.3-.26.1-.52.15-.78.15-.55 0-1.03-.16-1.45-.47-.4-.3-.6-.75-.6-1.33zm.84-.04c0 .3.12.57.36.8.24.23.57.35 1 .35.53 0 .97-.23 1.32-.7.34-.46.52-.97.52-1.54v-.26h-.35c-.3 0-.6 0-.86.03-.25.02-.55.07-.88.15-.35.08-.6.22-.8.42-.2.2-.3.45-.3.77zm5.33-3.58v-.68h.8V3.3h.8v1.74h1.5v.68h-1.5v3c0 .27.03.5.1.7.07.2.15.37.25.48.1.1.2.2.33.26.13.07.24.1.35.13.1 0 .22 0 .32 0h.28V11c-.08.02-.2.03-.35.03-.17 0-.33 0-.5-.04-.15 0-.34-.07-.54-.16-.2-.1-.4-.22-.53-.37-.14-.15-.26-.37-.37-.66-.1-.27-.15-.6-.15-1V5.72h-.8zM35.44 8c0-.97.3-1.74.86-2.3.6-.6 1.3-.88 2.13-.88.8 0 1.42.26 1.86.8.43.53.65 1.2.65 1.98l-.03.42H36.3c0 .75.24 1.34.68 1.76.45.42 1 .63 1.65.63.33 0 .64-.05.95-.17.28-.12.5-.24.67-.37l.2-.18.4.62c-.06.06-.16.14-.3.24-.1.08-.36.2-.76.37-.4.17-.8.25-1.2.25-.9 0-1.65-.3-2.25-.9-.6-.6-.9-1.34-.9-2.26zm.88-.65h3.8c-.03-.6-.2-1.06-.53-1.37-.32-.32-.72-.48-1.2-.48-.52 0-.97.17-1.36.5-.38.3-.62.77-.7 1.35zm5.78.63c0-.95.26-1.7.76-2.3.5-.57 1.16-.86 1.96-.86.27 0 .53.04.76.12.24.1.43.18.57.28.12.1.24.2.36.33.1.1.2.2.23.3l.06.1c0-.1 0-.26 0-.45V2.56h.8V11h-.8v-.64l.03-.43h-.02l-.05.13c-.03.05-.1.15-.2.3-.13.14-.26.27-.4.36-.14.1-.34.2-.6.3-.25.08-.52.13-.8.13-.8 0-1.45-.3-1.93-.88-.48-.6-.7-1.36-.7-2.3zm1.4-1.77c-.37.45-.55 1.04-.55 1.78 0 .73.17 1.32.53 1.77.35.44.8.66 1.37.66.56 0 1.02-.2 1.4-.6.37-.4.56-1.02.56-1.82 0-.67-.16-1.24-.5-1.7-.33-.5-.8-.73-1.4-.73-.56 0-1.02.22-1.4.66zm9.53 4.8V2.56h.83V6.4h4.9V2.57h.82V11h-.82V7.15h-4.9V11h-.83zm8.34-3c0-.97.3-1.74.86-2.3.58-.6 1.3-.88 2.12-.88.8 0 1.42.26 1.86.8.45.53.67 1.2.67 1.98l-.03.42H62.2c.03.75.26 1.34.7 1.76.45.42 1 .63 1.65.63.33 0 .64-.05.95-.17.28-.12.5-.24.67-.37l.22-.18.36.62c-.05.06-.15.14-.28.24-.12.08-.37.2-.77.37-.37.17-.76.25-1.17.25-.9 0-1.66-.3-2.26-.9-.6-.6-.9-1.34-.9-2.26zm.88-.65h3.8c-.03-.6-.2-1.06-.52-1.37-.32-.32-.73-.48-1.2-.48-.53 0-.98.17-1.37.5-.38.3-.62.77-.7 1.35zM68.43 11V4.96h.8v.9l-.02.48h.03c.14-.4.43-.77.85-1.07.43-.3.87-.45 1.33-.45 1.08 0 1.7.5 1.88 1.5h.03c.18-.42.47-.77.87-1.06.4-.3.87-.44 1.36-.44.7 0 1.22.2 1.53.6.3.38.47.97.47 1.74V11h-.8V7.36c0-.56-.1-1-.3-1.32-.17-.32-.5-.48-1.02-.48-.44 0-.84.17-1.2.5-.35.34-.58.74-.7 1.2-.07.23-.1.52-.1.9V11h-.82V7.36c0-.25-.02-.47-.05-.67-.03-.2-.08-.4-.16-.56-.08-.2-.2-.34-.4-.43-.18-.1-.4-.14-.67-.14-.47 0-.88.17-1.24.52-.35.34-.6.76-.73 1.26-.06.23-.1.5-.1.8V11h-.8zm10.54-3.05c0-.9.3-1.63.93-2.23.63-.6 1.38-.9 2.27-.9.88 0 1.63.3 2.26.9.62.6.93 1.34.93 2.23 0 .9-.3 1.67-.93 2.28-.63.6-1.38.92-2.26.92-.9 0-1.64-.3-2.27-.92-.62-.6-.93-1.37-.93-2.28zm.85 0c0 .7.22 1.3.68 1.76.45.48 1 .7 1.67.7.65 0 1.2-.22 1.67-.7.45-.46.68-1.05.68-1.75 0-.68-.23-1.25-.68-1.7-.46-.46-1.02-.7-1.67-.7-.66 0-1.22.24-1.67.7-.46.45-.68 1.02-.68 1.7zm6.66-.08c0-.9.24-1.65.7-2.2.5-.57 1.12-.85 1.92-.85.3 0 .57.03.82.1s.44.16.58.26c.15.1.27.2.36.3.1.1.17.2.2.24l.04.1h.02c0-.06 0-.12 0-.2v-.66h.78v5.9c0 .9-.28 1.56-.83 2-.56.44-1.25.66-2.07.66-.7 0-1.35-.16-1.97-.48l.3-.67c.5.28 1.05.42 1.64.42.63 0 1.14-.17 1.53-.48.4-.3.58-.8.58-1.43v-.56l.03-.43h-.02c-.37.7-1 1.06-1.9 1.06-.8 0-1.46-.28-1.96-.86s-.74-1.32-.74-2.23zm1.34-1.7c-.33.4-.5.97-.5 1.68 0 .72.2 1.3.55 1.73.36.44.84.65 1.44.65.53 0 .96-.18 1.3-.55.33-.37.5-.97.5-1.8 0-1.55-.64-2.32-1.9-2.32-.6 0-1.05.2-1.38.6zm6 3.4v-7h.8v6.82c0 .6.23.9.68.9h.2V11c-.1.02-.2.03-.3.03-.93 0-1.4-.5-1.4-1.48zm2.57-1.62c0-.9.3-1.63.92-2.23.62-.6 1.38-.9 2.26-.9.88 0 1.64.3 2.26.9.62.6.93 1.34.93 2.23 0 .9-.3 1.67-.93 2.28-.62.6-1.38.92-2.26.92-.88 0-1.64-.3-2.26-.92-.62-.6-.93-1.37-.93-2.28zm.83 0c0 .7.23 1.3.68 1.76.47.48 1.02.7 1.68.7.66 0 1.2-.22 1.67-.7.45-.46.68-1.05.68-1.75 0-.68-.23-1.25-.68-1.7-.46-.46-1-.7-1.67-.7-.66 0-1.2.24-1.67.7-.44.45-.67 1.02-.67 1.7zM104.3 11V2.56h.8v3.41l.08-.12c.02-.04.1-.14.2-.28.1-.12.23-.24.4-.35.14-.1.34-.2.58-.28.26-.1.53-.13.8-.13.8 0 1.44.3 1.92.88.48.6.7 1.35.7 2.3 0 .93-.24 1.7-.75 2.27-.5.6-1.17.88-1.96.88-.27 0-.52-.04-.76-.13-.22-.08-.4-.18-.55-.3-.15-.1-.28-.23-.38-.34-.1-.1-.17-.2-.2-.3l-.08-.1h-.04c.02.1.03.27.03.48V11h-.8zm.8-3c0 .65.16 1.22.5 1.7.32.5.8.73 1.4.73.56 0 1.02-.22 1.4-.67.37-.44.55-1.03.55-1.77s-.17-1.33-.53-1.78c-.35-.44-.8-.66-1.38-.66-.55 0-1.02.2-1.4.62-.36.4-.55 1.02-.55 1.82zm6.24-4.42V2.56h.85v1.02h-.86zm.02 7.42V4.96h.82V11h-.82zm2.8 0V4.96h.8v.9l-.03.48h.02c.15-.37.43-.7.85-1.04.42-.32.94-.48 1.57-.48.72 0 1.23.2 1.55.6.3.38.47.97.47 1.74l-.02 3.84h-.8V7.38c0-.57-.1-1-.27-1.33-.16-.3-.5-.46-1.04-.46-.5 0-.97.14-1.38.46-.4.32-.68.73-.8 1.23-.08.22-.1.5-.1.8V11h-.83zm10.3-4.04c0-1.67.46-3.25 1.36-4.72h.75c-.9 1.53-1.35 3.1-1.35 4.72 0 1.83.45 3.56 1.35 5.18h-.75c-.9-1.55-1.35-3.28-1.35-5.18zm2.68 4.04l3.1-8.44h.9L134.2 11h-.88l-.97-2.7h-3.4l-.95 2.7h-.88zm2.08-3.4h2.9l-1.1-3.07-.33-1.1h-.03c-.1.4-.2.76-.33 1.1l-1.12 3.06zm5.83 3.4v-.74h1.9V3.6h-.02c-.06.12-.2.3-.4.5l-.9.9-.54-.54 1.9-1.9h.77v7.7h1.85V11h-4.57zm5.48-3c0-.93.3-1.7.9-2.3.63-.58 1.38-.88 2.27-.88.26 0 .52.03.8.1.23.05.44.12.63.2.13.08.27.16.42.26.12.08.2.16.27.22l.1.1-.43.6c-.04-.04-.1-.1-.23-.2-.1-.1-.3-.2-.6-.33-.32-.14-.63-.2-.94-.2-.68 0-1.24.22-1.7.67-.43.46-.66 1.04-.66 1.75 0 .7.23 1.28.7 1.73.44.46 1 .68 1.68.68.22 0 .44-.02.67-.08.2-.05.4-.12.54-.2.14-.1.27-.17.4-.26.1-.08.2-.15.25-.2l.08-.1.37.64c-.03.03-.07.07-.1.1-.04.05-.13.12-.28.23-.18.12-.34.2-.48.28-.18.1-.4.17-.67.24-.27.07-.54.1-.83.1-.9 0-1.65-.3-2.26-.88-.6-.58-.9-1.34-.9-2.27zm6.44 4.14c.9-1.6 1.35-3.33 1.35-5.18 0-1.62-.45-3.2-1.35-4.72h.75c.9 1.47 1.35 3.04 1.35 4.72 0 1.9-.45 3.63-1.35 5.18h-.75zm7.24-5.18c0-1.67.46-3.25 1.36-4.72h.76c-.9 1.53-1.36 3.1-1.36 4.72 0 1.83.45 3.56 1.36 5.18h-.76c-.9-1.55-1.35-3.28-1.35-5.18zm3.2-2.87c0-.47.16-.86.5-1.2.32-.3.72-.48 1.18-.48.46 0 .86.17 1.2.5.32.32.5.7.5 1.17 0 .45-.18.85-.5 1.17-.34.32-.74.5-1.2.5-.46 0-.86-.18-1.2-.5-.32-.32-.48-.72-.48-1.18zm.07 6.9l6.43-8.44h.85L158.33 11h-.86zm.64-6.9c0 .27.1.5.3.7.18.2.4.28.68.28.27 0 .5-.1.7-.3.2-.18.28-.4.28-.7 0-.27-.1-.5-.3-.7-.2-.2-.42-.3-.68-.3-.27 0-.5.1-.7.3-.18.2-.27.43-.27.7zm3.36 5.4c0-.48.16-.87.5-1.2.3-.33.7-.5 1.18-.5.46 0 .85.17 1.2.5.32.33.48.72.48 1.2 0 .45-.16.84-.5 1.16-.33.32-.73.5-1.18.5-.46 0-.86-.18-1.2-.5-.32-.32-.48-.7-.48-1.17zm.72-.02c0 .27.1.5.27.7.18.2.4.3.7.3.26 0 .5-.1.68-.3.2-.2.3-.43.3-.7 0-.28-.1-.5-.3-.7-.2-.2-.43-.3-.7-.3-.27 0-.5.1-.68.3-.18.2-.27.42-.27.7zm3.72 2.66c.9-1.6 1.36-3.33 1.36-5.18 0-1.62-.45-3.2-1.36-4.72h.76c.9 1.47 1.35 3.04 1.35 4.72 0 1.9-.44 3.63-1.34 5.18h-.76z"/><path id="N" d="M.96 11l.67-8.44h.87l2.2 4.96.4 1.03h.04c.18-.47.32-.8.4-1.03l2.22-4.96h.85L9.3 11h-.84L8 5.1 7.96 3.9h-.02c-.18.5-.33.9-.45 1.17L5.52 9.42h-.78L2.76 5.1 2.3 3.9h-.02c0 .13 0 .25 0 .36 0 .35 0 .62-.02.83L1.8 11H.95zm9.82-3.05c0-.9.3-1.63.93-2.23.64-.6 1.4-.9 2.27-.9.9 0 1.64.3 2.27.9.62.6.93 1.34.93 2.23 0 .9-.3 1.67-.93 2.28-.63.6-1.38.92-2.27.92-.88 0-1.63-.3-2.26-.92-.6-.6-.92-1.37-.92-2.28zm.85 0c0 .7.22 1.3.67 1.76.46.48 1.02.7 1.67.7.66 0 1.22-.22 1.67-.7.46-.46.68-1.05.68-1.75 0-.68-.22-1.25-.68-1.7-.45-.46-1-.7-1.67-.7-.65 0-1.2.24-1.67.7-.45.45-.68 1.02-.68 1.7zM18.68 11V4.96h.8v.9l-.03.48h.02c.14-.37.42-.7.84-1.04.42-.32.94-.48 1.57-.48.73 0 1.24.2 1.56.6.3.38.46.97.46 1.74V11h-.8V7.38c0-.57-.1-1-.27-1.33-.17-.3-.52-.46-1.05-.46-.5 0-.97.14-1.38.46-.4.32-.68.73-.8 1.23-.08.22-.1.5-.1.8V11h-.83zm6.54-5.28v-.68h.8V3.3h.8v1.74h1.52v.68h-1.5v3c0 .27.02.5.1.7.06.2.15.37.24.48.1.1.2.2.33.26.13.07.25.1.35.13.12 0 .23 0 .33 0h.28V11c-.08.02-.2.03-.35.03-.17 0-.33 0-.5-.04-.15 0-.33-.07-.54-.16-.22-.1-.4-.22-.53-.37-.15-.15-.28-.37-.38-.66-.12-.27-.17-.6-.17-1V5.72h-.8zM29.82 11V2.56h.82v3.27l-.02.5h.02c.15-.37.43-.7.85-1.03.4-.32.92-.48 1.54-.48.72 0 1.24.2 1.55.6.3.38.46.97.46 1.74V11h-.82V7.38c0-.57-.08-1-.26-1.33-.17-.3-.52-.46-1.05-.46-.5 0-.97.15-1.38.47-.4.32-.68.73-.8 1.23-.08.23-.1.5-.1.8V11h-.83zm6.63-.73l.44-.6c.02.05.1.12.2.22.1.06.3.17.62.3.3.15.64.2.97.2.33 0 .62-.07.85-.24.24-.17.35-.4.35-.7 0-.25-.1-.46-.34-.63-.22-.17-.5-.3-.8-.43-.25-.1-.57-.22-.96-.4-.33-.13-.6-.33-.82-.6-.22-.24-.33-.55-.33-.9 0-.53.2-.94.6-1.24.4-.3.88-.44 1.46-.44.26 0 .48.02.7.07.23.04.4.1.52.15.14.06.26.13.36.2.12.07.2.13.23.16l.07.08-.37.62c-.03-.03-.1-.08-.17-.14-.08-.06-.25-.15-.5-.25-.27-.1-.54-.15-.84-.15-.35 0-.63.08-.86.24-.23.14-.35.38-.35.7 0 .23.1.44.32.6.23.18.5.32.82.44.32.1.63.24.96.38.32.15.6.35.8.6.23.25.34.57.34.93 0 .5-.2.9-.57 1.22-.4.32-.9.48-1.5.48-.25 0-.5-.03-.78-.1-.26-.05-.47-.12-.65-.2-.15-.1-.3-.18-.44-.27-.1-.08-.2-.16-.27-.23l-.08-.08zm8.64-.2l.5-.64.1.1c.03.04.13.1.28.22.12.1.27.18.46.28.14.07.35.14.6.22.24.07.5.1.75.1.48 0 .88-.13 1.2-.4.32-.27.48-.62.48-1.06 0-.4-.15-.72-.44-1-.3-.27-.64-.5-1.05-.66l-1.25-.54c-.4-.2-.76-.45-1.05-.8-.3-.32-.44-.73-.44-1.2 0-.64.25-1.17.75-1.62.5-.44 1.13-.66 1.9-.66.43 0 .83.07 1.2.2.38.14.65.27.8.4l.25.22-.4.7c-.06-.06-.14-.13-.25-.2-.1-.08-.3-.2-.64-.33-.32-.12-.64-.2-.97-.2-.52 0-.95.16-1.3.45-.32.28-.5.62-.5 1.02 0 .36.16.67.45.92.28.24.63.45 1.05.62.48.2.9.4 1.24.54.42.2.77.46 1.06.8.28.35.43.8.43 1.3 0 .65-.23 1.2-.7 1.63-.46.43-1.1.65-1.86.65-.5 0-.98-.1-1.43-.28-.44-.17-.75-.36-.95-.54l-.3-.27zm6.8-6.5v-1h.86v1h-.85zm.04 7.43V4.96h.8V11h-.8zm2.8 0V4.96h.8v.9l-.03.48h.03c.14-.37.43-.7.84-1.04.42-.32.94-.48 1.57-.48.72 0 1.24.2 1.55.6.3.38.46.97.46 1.74V11h-.82V7.38c0-.57-.08-1-.25-1.33-.2-.3-.54-.46-1.07-.46-.5 0-.96.14-1.37.46-.4.32-.68.73-.82 1.23-.07.22-.1.5-.1.8V11h-.8zm6.68-3c0-.93.3-1.7.9-2.3.62-.58 1.37-.88 2.27-.88.24 0 .5.03.78.1.24.05.45.12.63.2.14.08.3.16.44.26.12.08.2.16.27.22l.1.1-.42.6c-.03-.04-.1-.1-.22-.2-.1-.1-.3-.2-.6-.33-.32-.14-.64-.2-.95-.2-.66 0-1.22.22-1.67.67-.45.46-.67 1.04-.67 1.75 0 .7.23 1.28.68 1.73.46.46 1.02.68 1.7.68.2 0 .44-.02.67-.08.22-.05.4-.12.55-.2.13-.1.27-.17.4-.26.1-.08.2-.15.25-.2l.07-.1.37.64c-.04.03-.07.07-.1.1-.04.05-.13.12-.28.23-.18.12-.34.2-.48.28-.18.1-.4.17-.66.24-.27.07-.55.1-.83.1-.9 0-1.66-.3-2.27-.88-.6-.58-.9-1.34-.9-2.27zM68 8c0-.97.3-1.74.87-2.3.57-.6 1.28-.88 2.1-.88.82 0 1.44.26 1.87.8.44.53.66 1.2.66 1.98l-.02.42h-4.63c.02.75.25 1.34.68 1.76.45.42 1 .63 1.66.63.3 0 .63-.05.93-.17.28-.12.5-.24.67-.37l.22-.18.37.62c-.06.06-.15.14-.3.24-.1.08-.36.2-.75.37-.4.17-.78.25-1.2.25-.9 0-1.64-.3-2.24-.9-.6-.6-.9-1.34-.9-2.26zm.88-.65h3.8c-.03-.6-.2-1.06-.52-1.37-.32-.32-.72-.48-1.2-.48-.53 0-.98.17-1.36.5-.4.3-.62.77-.72 1.35zm9 2.7l.5-.62.1.1c.05.04.15.1.3.22.12.1.27.18.46.28.14.07.35.14.6.22.24.07.5.1.76.1.48 0 .88-.13 1.2-.4.32-.27.48-.62.48-1.06 0-.4-.15-.72-.44-1-.3-.27-.64-.5-1.05-.66l-1.25-.54c-.4-.2-.76-.45-1.05-.8-.3-.32-.44-.73-.44-1.2 0-.64.25-1.17.75-1.62.5-.44 1.13-.66 1.9-.66.43 0 .83.07 1.2.2.38.14.65.27.8.4l.25.22-.4.7c-.06-.06-.14-.13-.25-.2-.1-.08-.3-.2-.64-.33-.3-.12-.64-.2-.96-.2-.52 0-.95.16-1.3.45-.32.28-.5.62-.5 1.02 0 .36.16.67.45.92.28.24.63.45 1.05.62.48.2.9.4 1.24.54.42.2.77.46 1.06.8.28.35.43.8.43 1.3 0 .65-.23 1.2-.7 1.63-.46.43-1.08.65-1.86.65-.5 0-.98-.1-1.43-.28-.44-.17-.75-.36-.95-.54l-.3-.27zm6.25-4.33v-.68h.8V3.3h.8v1.74h1.52v.68h-1.52v3c0 .27.04.5.1.7.08.2.16.37.25.48.1.1.2.2.34.26.13.07.24.1.34.13.12 0 .23 0 .33 0h.27V11c-.08.02-.2.03-.35.03-.17 0-.34 0-.5-.04-.16 0-.34-.07-.54-.16-.2-.1-.4-.22-.53-.37-.15-.15-.27-.37-.38-.66-.1-.27-.15-.6-.15-1V5.72h-.8zm4.5 3.08V4.96h.8V8.6c0 .56.1 1 .27 1.3.17.32.52.48 1.05.48.67 0 1.2-.25 1.62-.75.4-.5.6-1.1.6-1.78v-2.9h.83V11H93v-.9l.03-.48H93c-.15.37-.43.72-.84 1.04-.4.32-.92.5-1.52.5-.7 0-1.2-.2-1.53-.6-.3-.38-.47-.96-.47-1.76zm6.74-.82c0-.95.25-1.7.75-2.3.5-.57 1.16-.86 1.96-.86.27 0 .53.04.76.12.24.1.43.18.57.28.13.1.25.2.37.33.1.1.18.2.22.3l.05.1h.02c0-.1-.02-.26-.02-.45V2.56h.8V11h-.78v-.64l.03-.43h-.03l-.06.13c-.02.05-.1.15-.2.3-.12.14-.25.27-.4.36-.13.1-.32.2-.58.3-.26.08-.53.13-.82.13-.8 0-1.44-.3-1.92-.88-.48-.6-.7-1.36-.7-2.3zm1.4-1.77c-.37.45-.56 1.04-.56 1.78 0 .73.2 1.32.54 1.77.35.44.8.66 1.37.66.57 0 1.03-.2 1.4-.6.38-.4.57-1.02.57-1.82 0-.67-.17-1.24-.5-1.7-.34-.5-.8-.73-1.42-.73-.55 0-1 .22-1.38.66zm5.16 6.96l.3-.65c.24.2.48.3.73.3.48 0 .86-.34 1.14-1l.38-.85-2.53-6h.9l1.78 4.42.22.63h.02c.07-.25.14-.47.2-.63l1.75-4.4h.88l-2.97 7.3c-.16.38-.4.7-.7.92-.3.2-.65.32-1.04.32-.2 0-.38-.03-.56-.1-.16-.04-.3-.1-.38-.16l-.13-.1zM112.28 11V2.56h4.75v.75h-3.92V6.4h3.2v.74h-3.2v3.14h4.15V11h-4.97zm6.62 0V4.96h.8v.9l-.02.48h.02c.14-.37.43-.7.84-1.04.42-.32.94-.48 1.57-.48.73 0 1.25.2 1.56.6.3.38.47.97.47 1.74V11h-.8l-.02-3.62c.02-.57-.07-1-.24-1.33-.17-.3-.53-.46-1.06-.46-.5 0-.96.14-1.37.46-.4.32-.68.73-.82 1.23-.05.22-.1.5-.1.8V11h-.8zm7.1 0V4.96h.8V6.5c.17-.47.4-.86.74-1.15.33-.3.72-.44 1.18-.44l.33.04v.8c-.1 0-.2-.02-.3-.02-.4 0-.78.15-1.1.43-.3.3-.52.66-.66 1.13-.12.36-.17.76-.17 1.18V11H126zm3.8-3.05c0-.9.3-1.63.93-2.23.62-.6 1.38-.9 2.26-.9.87 0 1.63.3 2.25.9.62.6.93 1.34.93 2.23 0 .9-.3 1.67-.93 2.28-.62.6-1.38.92-2.26.92-.9 0-1.65-.3-2.27-.92-.62-.6-.93-1.37-.93-2.28zm.84 0c0 .7.23 1.3.68 1.76.46.48 1 .7 1.67.7.65 0 1.2-.22 1.66-.7.45-.46.68-1.05.68-1.75 0-.68-.23-1.25-.68-1.7-.46-.46-1-.7-1.67-.7-.67 0-1.22.24-1.68.7-.45.45-.68 1.02-.68 1.7zm7 1.62v-7h.82v6.82c0 .6.23.9.68.9h.2V11c-.1.02-.2.03-.3.03-.93 0-1.4-.5-1.4-1.48zm2.97 0v-7h.83v6.82c0 .6.22.9.67.9h.2V11c-.08.02-.18.03-.3.03-.92 0-1.4-.5-1.4-1.48zm3.04 1.43V4.96h.8v.9l-.03.48h.04c.14-.4.43-.77.85-1.07.42-.3.86-.45 1.32-.45 1.07 0 1.7.5 1.87 1.5h.02c.17-.42.46-.77.86-1.06.4-.3.87-.44 1.36-.44.7 0 1.22.2 1.53.6.3.38.47.97.47 1.74V11h-.8V7.36c0-.56-.1-1-.3-1.32-.17-.32-.5-.48-1.02-.48-.44 0-.84.17-1.2.5-.36.34-.6.74-.7 1.2-.08.23-.12.52-.12.9V11h-.8V7.36c0-.25-.03-.47-.06-.67-.03-.2-.08-.4-.16-.56-.08-.2-.2-.34-.4-.43-.18-.1-.4-.14-.67-.14-.46 0-.87.17-1.23.52-.36.34-.6.76-.73 1.26-.06.23-.1.5-.1.8V11h-.8zm10.57-3c0-.97.3-1.74.87-2.3.58-.6 1.28-.88 2.1-.88.82 0 1.44.26 1.88.8.43.53.65 1.2.65 1.98l-.02.42h-4.63c.02.75.25 1.34.7 1.76.44.42 1 .63 1.64.63.3 0 .63-.05.94-.17.28-.12.5-.24.66-.37l.22-.18.38.62c-.06.06-.15.14-.28.24-.12.08-.38.2-.77.37-.4.17-.78.25-1.2.25-.9 0-1.64-.3-2.24-.9-.6-.6-.9-1.34-.9-2.26zm.9-.65h3.78c-.03-.6-.2-1.06-.52-1.37-.32-.32-.72-.48-1.2-.48-.52 0-.98.17-1.36.5-.38.3-.62.77-.72 1.35zm6.16 3.65V4.96h.8v.9l-.02.48h.02c.15-.37.43-.7.85-1.04.43-.32.95-.48 1.58-.48.72 0 1.23.2 1.55.6.3.38.46.97.46 1.74V11h-.82V7.38c0-.57-.1-1-.26-1.33-.17-.3-.52-.46-1.05-.46-.5 0-.97.14-1.38.46-.42.32-.7.73-.82 1.23-.07.22-.1.5-.1.8V11h-.82zm6.55-5.28v-.68h.8l.02-1.75h.8v1.74h1.5v.68h-1.5v3c0 .27.03.5.1.7.07.2.16.37.25.48.1.1.2.2.33.26.13.07.25.1.35.13.12 0 .23 0 .33 0h.27V11c-.08.02-.2.03-.35.03-.17 0-.33 0-.5-.04-.15 0-.33-.07-.54-.16-.2-.1-.38-.22-.52-.37-.15-.15-.28-.37-.38-.66-.1-.27-.16-.6-.16-1V5.72h-.8z"/><path id="O" fill-rule="evenodd" d="M73.2 41.05v-29.7c0-1.66-1.34-3-3-3H42.57L36.17.27c-.3-.37-.86-.38-1.16 0l-6.73 8.06H3c-1.66 0-3 1.35-3 3v29.7c0 1.67 1.34 3 3 3h67.2c1.66 0 3-1.33 3-3z"/><path id="Q" d="M.46 3.3v-.74h5.48v.58L2.04 11h-.87l3.4-6.9c.07-.15.14-.3.22-.4l.17-.3.07-.1V3.3c-.13.02-.34.03-.63.03H.47zM7.18 11v-.96h.94V11h-.94zm2.65-2.43c0-.3.06-.6.18-.9.13-.28.28-.52.47-.72.22-.24.36-.4.44-.44.1-.08.2-.16.32-.23-.7-.46-1.05-1.03-1.05-1.72 0-.6.22-1.1.66-1.5.45-.42 1.07-.63 1.9-.63.77 0 1.4.2 1.86.6.46.4.7.93.7 1.6 0 .35-.1.72-.27 1.1-.17.37-.32.64-.45.8-.1.16-.22.28-.32.38.82.46 1.23 1.07 1.23 1.8 0 .68-.28 1.26-.82 1.73-.53.48-1.2.72-2 .72-.78 0-1.46-.24-2.02-.7-.55-.48-.83-1.1-.83-1.88zm.85-.03c0 .54.2.98.6 1.32.4.35.88.52 1.4.52.53 0 1-.16 1.37-.48.4-.33.58-.73.58-1.2 0-.2-.05-.4-.14-.57-.1-.16-.27-.32-.5-.46-.2-.14-.4-.26-.6-.36-.13-.07-.4-.18-.76-.34-.4-.17-.64-.27-.74-.33-.14.1-.24.16-.3.22-.1.08-.23.2-.4.38-.16.17-.28.37-.37.6-.1.23-.15.47-.15.7zM11 4.57c0 .18.05.34.13.5.08.15.17.28.26.38.1.1.24.2.45.33.2.1.37.2.5.26.1.05.32.14.63.27l.6.26c.1-.1.2-.2.3-.34.12-.14.24-.36.37-.66.14-.3.2-.6.2-.9 0-.45-.16-.8-.48-1.08-.32-.26-.74-.4-1.25-.4-.52 0-.94.14-1.25.4-.3.26-.46.6-.46 1zm5.9-.48c0-.47.15-.86.48-1.2.33-.3.73-.48 1.2-.48.45 0 .85.17 1.18.5.33.32.5.7.5 1.17 0 .45-.16.85-.5 1.17-.32.32-.72.5-1.2.5-.45 0-.84-.18-1.18-.5-.33-.32-.5-.72-.5-1.18zm.06 6.9l6.43-8.44h.84L17.82 11h-.86zm.64-6.9c0 .27.1.5.28.7.2.2.42.28.7.28.26 0 .5-.1.68-.3.2-.18.3-.4.3-.7 0-.27-.1-.5-.3-.7-.2-.2-.43-.3-.7-.3-.26 0-.5.1-.68.3-.2.2-.28.43-.28.7zm3.35 5.4c0-.48.16-.87.5-1.2.32-.33.7-.5 1.18-.5.46 0 .85.17 1.2.5.32.33.48.72.48 1.2 0 .45-.15.84-.48 1.16-.34.32-.74.5-1.2.5-.45 0-.85-.18-1.18-.5-.33-.32-.5-.7-.5-1.17zm.72-.02c0 .27.1.5.27.7.18.2.4.3.7.3.26 0 .5-.1.68-.3.2-.2.3-.43.3-.7 0-.28-.1-.5-.3-.7-.2-.2-.43-.3-.7-.3-.27 0-.5.1-.68.3-.18.2-.27.42-.27.7z"/><path id="R" d="M.58 8.16L1 7.63c.08.08.15.16.23.23.1.1.3.22.62.37.3.15.63.23.95.23.43 0 .8-.15 1.13-.43.32-.3.48-.65.48-1.1 0-.46-.16-.83-.5-1.1-.35-.26-.77-.4-1.26-.4h-.48L2 5.04l1.75-2.06.37-.4c-.14 0-.33.02-.57.02H.9v-.63h4.12v.46l-2.1 2.42c.25.02.5.06.72.14.25.07.48.18.7.33.24.15.42.36.56.64.15.27.22.6.22.95 0 .6-.22 1.12-.66 1.55-.44.44-1 .65-1.65.65-.25 0-.5-.03-.75-.1s-.46-.15-.63-.24c-.17-.1-.32-.2-.45-.28-.12-.08-.22-.16-.3-.24l-.1-.1zm6.2-1.7v-.6h2.85v.6H6.78zM11.28 9l.56-7.03h.72L14.4 6.1l.33.86h.03c.15-.4.26-.68.35-.86l1.85-4.13h.7L18.22 9h-.7l-.38-4.92-.02-.98h-.02c-.15.42-.27.74-.37.98l-1.65 3.6h-.65l-1.65-3.6-.38-1h-.02c0 .1 0 .2 0 .3 0 .3 0 .52-.02.7L11.96 9h-.68zm8.18-2.54c0-.74.26-1.36.78-1.86s1.15-.75 1.88-.75c.74 0 1.37.25 1.9.75.5.5.76 1.12.76 1.86 0 .76-.26 1.4-.77 1.9-.5.5-1.14.76-1.88.76-.73 0-1.36-.25-1.88-.76-.52-.5-.78-1.14-.78-1.9zm.7 0c0 .58.2 1.07.57 1.46.38.4.84.6 1.4.6.54 0 1-.2 1.38-.6.4-.4.58-.88.58-1.46 0-.57-.2-1.04-.57-1.42-.37-.38-.83-.57-1.38-.57-.55 0-1 .2-1.4.57-.37.38-.56.85-.56 1.42zM26.06 9V3.97h.66v.75l-.02.4h.02c.12-.3.36-.6.7-.87.35-.27.8-.4 1.3-.4.6 0 1.04.16 1.3.5.26.32.4.8.4 1.45V9h-.7V5.98c0-.47-.06-.84-.2-1.1-.14-.26-.44-.4-.88-.4-.42 0-.8.14-1.15.4-.35.27-.57.6-.7 1.03-.04.2-.07.43-.07.7V9h-.68zm5.45-4.4v-.57h.68V2.58h.67v1.45h1.26v.57h-1.25v2.5c0 .23.03.43.1.6.05.16.1.3.2.38.07.1.16.17.27.22.1.06.2.1.3.1.1.02.18.03.26.03l.23-.02v.62c-.05 0-.15.02-.28.02-.14 0-.28 0-.4-.03-.14 0-.3-.06-.47-.14-.17-.08-.32-.18-.43-.3-.13-.13-.23-.3-.32-.55-.1-.22-.13-.5-.13-.83V4.6h-.66zM35.34 9V1.97H36V5.1c.13-.3.37-.58.72-.85.34-.27.78-.4 1.3-.4.6 0 1.02.16 1.28.5.26.32.4.8.4 1.45V9H39V5.98c0-.47-.06-.84-.2-1.1-.15-.26-.44-.4-.88-.4-.43 0-.8.14-1.15.4-.34.28-.57.62-.68 1.04-.06.18-.1.4-.1.67V9h-.67zm5.52-.6l.37-.5c.02.03.08.1.18.17.07.07.24.16.5.27.27.1.54.17.82.17.28 0 .52-.06.72-.2.2-.14.3-.34.3-.6 0-.2-.1-.36-.3-.5-.18-.15-.4-.27-.67-.37-.2-.07-.47-.18-.8-.33-.26-.1-.5-.28-.67-.5-.2-.2-.28-.46-.28-.76 0-.43.16-.77.5-1.02.33-.25.73-.37 1.22-.37.2 0 .4.02.56.06.2.05.35.1.44.14.12.05.22.1.3.17.1.07.16.12.2.14l.04.06-.3.52c-.03-.03-.08-.07-.15-.12-.06-.05-.2-.12-.42-.2-.2-.1-.44-.14-.68-.14-.28 0-.52.06-.7.2-.2.12-.3.32-.3.58 0 .2.1.37.27.5.18.16.4.28.68.37.26.1.52.22.8.34.26.12.5.28.67.5.18.2.28.46.28.77 0 .43-.16.77-.48 1.03-.32.26-.74.4-1.24.4-.2 0-.42-.03-.65-.1-.2-.03-.38-.1-.53-.17-.13-.06-.25-.13-.37-.2-.1-.08-.18-.14-.23-.2l-.07-.07z"/><path id="S" fill-rule="evenodd" d="M73.2 41V11.3c0-1.67-1.34-3-3-3H42.57L36.24.3c-.33-.42-.96-.43-1.3-.02l-6.67 8H3c-1.66 0-3 1.33-3 3V41c0 1.66 1.34 3 3 3h67.2c1.66 0 3-1.34 3-3z"/><path id="U" d="M.86 11v-.74h1.9V3.6h-.02c-.06.12-.2.3-.42.5l-.9.9-.53-.54 1.9-1.9h.77v7.7h1.86V11H.86zm6.16-3.04v-.74h3.4v.74h-3.4zm4.74 5.2l.32-.65c.23.2.46.3.7.3.5 0 .87-.34 1.16-1l.37-.85-2.5-6h.9l1.76 4.42.22.63h.03c.08-.25.14-.47.2-.63l1.75-4.4h.9l-3 7.3c-.15.38-.38.7-.68.92-.3.2-.66.32-1.05.32-.18 0-.36-.03-.54-.1-.17-.04-.3-.1-.38-.16l-.14-.1zM18.23 8c0-.97.3-1.74.86-2.3.57-.6 1.28-.88 2.1-.88.8 0 1.43.26 1.87.8.44.53.66 1.2.66 1.98l-.02.42H19.1c.02.75.24 1.34.68 1.76.45.42 1 .63 1.65.63.34 0 .65-.05.96-.17.28-.12.5-.24.67-.37l.22-.18.37.62c-.05.06-.15.14-.28.24-.12.08-.37.2-.77.37-.38.17-.77.25-1.18.25-.9 0-1.66-.3-2.27-.9-.6-.6-.9-1.34-.9-2.26zm.88-.65h3.8c-.02-.6-.2-1.06-.5-1.37-.33-.32-.73-.48-1.2-.48-.54 0-1 .17-1.37.5-.4.3-.62.77-.72 1.35zm5.7 2c0-1.4 1.23-2.08 3.7-2.08h.33V7.1c0-1.03-.5-1.55-1.5-1.55-.3 0-.58.05-.87.15-.28.1-.5.2-.63.28l-.2.15-.4-.63c.1-.07.2-.13.27-.18.1-.07.35-.18.73-.3.37-.14.76-.2 1.15-.2.74 0 1.3.2 1.68.6.4.4.58.97.58 1.72V11h-.78v-.66l.02-.5h-.02l-.06.13c-.03.06-.1.17-.2.32-.13.15-.26.28-.4.4-.13.1-.33.2-.57.3-.26.1-.52.15-.78.15-.55 0-1.03-.16-1.45-.47-.4-.3-.6-.75-.6-1.33zm.83-.04c0 .3.12.57.36.8.23.23.56.35.98.35.54 0 .98-.23 1.33-.7.35-.46.53-.97.53-1.54v-.26h-.35c-.3 0-.6 0-.87.03-.24.02-.54.07-.87.15-.35.08-.6.22-.8.42-.2.2-.3.45-.3.77zm5.9 1.7V4.96h.8v1.07l-.03.48h.02c.16-.47.4-.86.73-1.15.33-.3.72-.44 1.18-.44l.33.04v.8c-.1 0-.2-.02-.3-.02-.4 0-.77.15-1.1.43-.3.3-.52.66-.65 1.13-.1.36-.16.76-.16 1.18V11h-.82z"/><path id="V" d="M.55 3.3v-.74h5.48v.58L2.13 11h-.87l3.4-6.9c.07-.15.14-.3.22-.4l.18-.3.07-.1V3.3c-.13.02-.34.03-.63.03H.55zm6.7 7.7v-.96h.96V11h-.94zm2.57-5.76c0-.86.25-1.54.75-2.05.5-.52 1.13-.78 1.88-.78.9 0 1.65.37 2.2 1.12.57.73.85 1.68.85 2.84 0 .56-.07 1.1-.22 1.64-.14.52-.35 1.03-.65 1.52-.27.47-.66.86-1.16 1.16-.5.3-1.05.45-1.67.45-.28 0-.55-.03-.8-.1-.3-.05-.48-.1-.57-.17l-.2-.1.33-.72c.35.2.76.3 1.23.3.8 0 1.45-.33 1.94-1 .5-.67.78-1.46.86-2.38h-.02c-.2.3-.5.53-.9.72-.4.17-.8.26-1.25.26-.77 0-1.4-.25-1.88-.76-.5-.5-.73-1.16-.73-1.96zm.83 0c0 .6.18 1.07.53 1.44.34.36.8.54 1.38.54.55 0 1.03-.15 1.43-.46.4-.3.6-.63.6-.98 0-.6-.2-1.2-.62-1.75s-.92-.83-1.52-.83c-.56 0-1 .2-1.32.57-.32.38-.5.87-.5 1.46zm6.24-1.15c0-.47.15-.86.48-1.2.33-.3.72-.48 1.18-.48.47 0 .87.17 1.2.5.33.32.5.7.5 1.17 0 .45-.17.85-.5 1.17-.33.32-.73.5-1.2.5-.46 0-.85-.18-1.18-.5-.33-.32-.5-.72-.5-1.18zm.06 6.9l6.43-8.44h.84L17.82 11h-.86zm.64-6.9c0 .27.1.5.28.7.18.2.4.28.68.28s.5-.1.7-.3c.2-.18.3-.4.3-.7 0-.27-.1-.5-.3-.7-.2-.2-.43-.3-.7-.3-.26 0-.5.1-.68.3-.2.2-.28.43-.28.7zm3.34 5.4c0-.48.16-.87.5-1.2.32-.33.72-.5 1.18-.5.46 0 .86.17 1.2.5.32.33.5.72.5 1.2 0 .45-.18.84-.5 1.16-.34.32-.74.5-1.2.5-.46 0-.86-.18-1.2-.5-.32-.32-.48-.7-.48-1.17zm.72-.02c0 .27.1.5.28.7.18.2.4.3.68.3.27 0 .5-.1.7-.3.2-.2.3-.43.3-.7 0-.28-.1-.5-.3-.7-.2-.2-.43-.3-.7-.3-.27 0-.5.1-.68.3-.2.2-.28.42-.28.7z"/><path id="W" d="M0-1c-.55 0-1 .45-1 1s.45 1 1 1v-2zm85.54 2c.55 0 1-.45 1-1s-.45-1-1-1v2zM0 1h85.54v-2H0v2z"/><path id="Y" d="M1.43 12V2.16H4.8c.78 0 1.42.22 1.9.67.5.45.75 1.06.75 1.8 0 1-.42 1.73-1.25 2.15v.02c.5.14.9.43 1.2.88.3.45.45.97.45 1.57 0 .84-.28 1.5-.84 2-.55.5-1.26.75-2.1.75H1.43zm.96-.87H4.9c.6 0 1.06-.17 1.4-.52.35-.33.52-.8.52-1.4 0-.58-.17-1.05-.53-1.4-.35-.35-.82-.53-1.4-.53H2.4v3.86zm0-4.7h2.4c.48 0 .9-.16 1.2-.48.3-.3.45-.72.45-1.24 0-.5-.14-.92-.44-1.22-.3-.3-.7-.46-1.23-.46H2.4v3.4zm7.44 3.9V2.16h.95v7.97c0 .7.26 1.06.78 1.06l.23-.03v.86c-.08.02-.2.02-.34.02-1.08 0-1.62-.57-1.62-1.72zm3.44-.9V4.97h.95v4.22c0 .67.1 1.18.3 1.55.2.36.6.55 1.22.55.78 0 1.4-.3 1.9-.87.47-.57.7-1.26.7-2.07V4.96h.95V12h-.92v-1.05l.03-.56h-.02c-.18.42-.5.83-.98 1.2-.5.38-1.08.57-1.77.57-.82 0-1.42-.22-1.8-.68-.37-.45-.55-1.14-.55-2.06zm7.83-.94c0-1.13.34-2.03 1-2.7.7-.67 1.5-1 2.48-1 .94 0 1.67.3 2.18.92.5.62.76 1.4.76 2.32l-.03.5h-5.4c.02.86.28 1.54.8 2.03.52.5 1.16.75 1.92.75.38 0 .75-.08 1.1-.22.33-.13.6-.28.8-.43l.24-.2.44.72c-.07.05-.17.14-.33.26-.14.1-.43.25-.9.44-.44.18-.9.27-1.38.27-1.06 0-1.94-.35-2.64-1.04-.7-.7-1.05-1.57-1.05-2.64zm1.03-.76h4.43c-.03-.7-.23-1.23-.6-1.6-.38-.37-.84-.55-1.4-.55-.62 0-1.14.18-1.6.56-.44.37-.72.9-.83 1.58zm6.76 3.17l.56-.73.13.1c.03.06.14.15.32.27.14.1.32.2.54.33.16.08.4.16.7.26.28.07.57.1.88.1.57 0 1.03-.14 1.4-.45.38-.32.56-.73.56-1.24 0-.45-.17-.83-.5-1.15-.35-.33-.76-.6-1.23-.8L30.82 7c-.48-.22-.9-.52-1.23-.9-.34-.4-.5-.88-.5-1.44 0-.73.28-1.36.86-1.88.57-.5 1.3-.77 2.2-.77.5 0 .97.07 1.4.22.45.16.76.32.95.48l.3.24-.5.82c-.05-.07-.15-.15-.27-.24-.1-.1-.35-.2-.75-.37-.37-.16-.74-.23-1.12-.23-.6 0-1.1.16-1.5.5-.4.33-.58.73-.58 1.2 0 .4.17.77.5 1.07.34.28.74.53 1.23.73.58.24 1.06.44 1.46.62.5.22.9.54 1.23.94.33.4.5.9.5 1.5 0 .77-.28 1.4-.8 1.9-.56.52-1.3.77-2.2.77-.58 0-1.14-.1-1.66-.32-.5-.2-.88-.42-1.1-.64l-.35-.3zm7.27-5.06v-.8h.94V3h.95v2.04h1.76v.8h-1.75v3.5c0 .32.04.6.12.83.08.23.18.42.3.54.1.14.23.25.38.32.15.08.28.13.4.15.14.02.27.03.38.03l.33-.03v.86c-.1.02-.23.02-.42.02-.2 0-.38 0-.57-.04-.2 0-.4-.08-.63-.2-.25-.1-.46-.25-.62-.42-.17-.18-.32-.44-.44-.77-.12-.3-.18-.7-.18-1.16v-3.6h-.93zm4.78 4.24c0-1.62 1.43-2.43 4.3-2.43h.4v-.2c0-1.2-.58-1.8-1.75-1.8-.33 0-.67.05-1 .16-.34.12-.6.23-.75.35l-.24.17-.43-.73c.1-.1.2-.17.3-.23.12-.08.4-.2.85-.36.43-.14.88-.2 1.35-.2.85 0 1.5.22 1.95.7.45.45.68 1.12.68 2V12h-.9v-.77l.02-.6h-.03l-.08.17c-.04.07-.12.2-.25.37-.14.2-.28.34-.44.47-.17.13-.4.25-.68.36-.3.1-.6.17-.9.17-.65 0-1.2-.18-1.7-.55-.47-.36-.7-.87-.7-1.54zm.97-.06c0 .36.14.67.42.93.28.27.66.4 1.16.4.63 0 1.14-.26 1.55-.8.4-.54.6-1.15.6-1.8v-.32h-.4c-.36 0-.7 0-1.02.04-.3.02-.64.08-1.03.17-.4.1-.7.26-.94.5-.22.22-.34.52-.34.88zM48.8 12V4.96h.93V6.2l-.03.56h.03c.18-.56.46-1 .85-1.36.38-.34.84-.5 1.38-.5l.38.03v.94c-.1-.02-.22-.03-.35-.03-.5 0-.9.17-1.28.5-.36.34-.62.78-.78 1.32-.13.42-.2.88-.2 1.37V12h-.95z"/><path id="Z" d="M0-.5c-.28 0-.5.22-.5.5s.22.5.5.5v-1zm1.47 1c.28 0 .5-.22.5-.5s-.22-.5-.5-.5v1zm2.95-1c-.27 0-.5.22-.5.5s.23.5.5.5v-1zm2.95 1c.28 0 .5-.22.5-.5s-.22-.5-.5-.5v1zm2.95-1c-.27 0-.5.22-.5.5s.23.5.5.5v-1zm2.95 1c.28 0 .5-.22.5-.5s-.22-.5-.5-.5v1zm2.95-1c-.27 0-.5.22-.5.5s.23.5.5.5v-1zm2.95 1c.28 0 .5-.22.5-.5s-.22-.5-.5-.5v1zm2.95-1c-.27 0-.5.22-.5.5s.23.5.5.5v-1zm2.95 1c.28 0 .5-.22.5-.5s-.22-.5-.5-.5v1zm2.95-1c-.27 0-.5.22-.5.5s.23.5.5.5v-1zm2.95 1c.28 0 .5-.22.5-.5s-.22-.5-.5-.5v1zm2.95-1c-.27 0-.5.22-.5.5s.23.5.5.5v-1zm2.95 1c.28 0 .5-.22.5-.5s-.22-.5-.5-.5v1zm2.95-1c-.27 0-.5.22-.5.5s.23.5.5.5v-1zm2.95 1c.28 0 .5-.22.5-.5s-.22-.5-.5-.5v1zm2.95-1c-.28 0-.5.22-.5.5s.22.5.5.5v-1zm2.95 1c.28 0 .5-.22.5-.5s-.22-.5-.5-.5v1zm2.95-1c-.28 0-.5.22-.5.5s.22.5.5.5v-1zm2.95 1c.28 0 .5-.22.5-.5s-.22-.5-.5-.5v1zm2.95-1c-.28 0-.5.22-.5.5s.22.5.5.5v-1zm2.95 1c.28 0 .5-.22.5-.5s-.22-.5-.5-.5v1zm2.95-1c-.28 0-.5.22-.5.5s.22.5.5.5v-1zm2.95 1c.27 0 .5-.22.5-.5s-.23-.5-.5-.5v1zm2.95-1c-.28 0-.5.22-.5.5s.22.5.5.5v-1zm2.95 1c.27 0 .5-.22.5-.5s-.23-.5-.5-.5v1zm2.95-1c-.28 0-.5.22-.5.5s.22.5.5.5v-1zm2.95 1c.27 0 .5-.22.5-.5s-.23-.5-.5-.5v1zm2.95-1c-.28 0-.5.22-.5.5s.22.5.5.5v-1zm2.95 1c.27 0 .5-.22.5-.5s-.23-.5-.5-.5v1zM0 .5h1.47v-1H0v1zm4.42 0h2.95v-1H4.42v1zm5.9 0h2.95v-1h-2.95v1zm5.9 0h2.95v-1h-2.95v1zm5.9 0h2.95v-1h-2.95v1zm5.9 0h2.95v-1h-2.95v1zm5.9 0h2.95v-1h-2.95v1zm5.9 0h2.95v-1h-2.95v1zm5.9 0h2.95v-1h-2.95v1zm5.9 0h2.95v-1h-2.95v1zm5.9 0h2.95v-1h-2.95v1zm5.9 0h2.95v-1h-2.95v1zm5.9 0h2.95v-1h-2.95v1zm5.9 0h2.95v-1h-2.95v1zm5.9 0h2.95v-1h-2.95v1z"/><path id="aa" d="M.77 7.02c0-1.43.47-2.63 1.4-3.6C3.13 2.48 4.3 2 5.72 2c.47 0 .9.04 1.28.12.4.1.75.2 1 .32.28.13.52.26.7.37.15.1.3.2.43.33l.16.13-.52.7s-.03 0-.07-.03c-.03-.03-.05-.05-.07-.07-.06-.06-.2-.15-.4-.27-.18-.12-.38-.23-.6-.34-.2-.08-.47-.16-.84-.26-.3-.07-.65-.1-1.02-.1-1.15 0-2.1.38-2.84 1.17-.75.8-1.12 1.77-1.12 2.93 0 1.2.37 2.2 1.13 3.03.76.83 1.7 1.25 2.87 1.25.36 0 .73-.05 1.1-.14.35-.1.65-.2.9-.33.24-.13.46-.26.64-.38.18-.1.3-.22.42-.33l.14-.14.56.68-.16.16c-.05.05-.2.18-.47.37-.26.2-.52.34-.78.47-.3.13-.64.26-1.05.36-.45.1-.9.17-1.3.17-1.45 0-2.65-.5-3.6-1.5-.93-.97-1.4-2.2-1.4-3.65zM10.8 8.45c0-1.04.38-1.9 1.1-2.6.73-.7 1.6-1.06 2.64-1.06 1.03 0 1.9.34 2.64 1.04.72.7 1.1 1.57 1.1 2.6 0 1.06-.38 1.95-1.1 2.66-.73.7-1.6 1.07-2.64 1.07-1.03 0-1.9-.36-2.64-1.07-.72-.7-1.1-1.6-1.1-2.65zm1 0c0 .8.26 1.5.8 2.04.53.54 1.17.82 1.94.82s1.42-.28 1.95-.83c.52-.56.78-1.24.78-2.05 0-.8-.26-1.47-.8-2-.52-.53-1.17-.8-1.94-.8s-1.4.27-1.95.8c-.54.53-.8 1.2-.8 2zM20.04 12V4.96h.94V6l-.03.57h.03c.17-.44.5-.84.98-1.2.5-.4 1.1-.58 1.84-.58.83 0 1.44.22 1.8.68.37.46.55 1.14.55 2.04V12h-.95V7.78c0-.67-.1-1.18-.3-1.55-.2-.36-.6-.55-1.23-.55-.6 0-1.13.2-1.6.56-.48.37-.8.84-.96 1.43-.07.27-.1.6-.1.95V12h-.96zm7.65-6.16v-.8h.92V3h.94v2.04h1.76v.8h-1.76v3.5c0 .32.04.6.12.83.08.23.18.42.3.54.1.14.23.25.38.32.15.08.28.13.4.15.14.02.27.03.38.03l.33-.03v.86c-.1.02-.23.02-.4.02-.2 0-.4 0-.6-.04-.18 0-.4-.08-.62-.2-.25-.1-.46-.25-.62-.42-.17-.18-.32-.44-.44-.77-.13-.3-.2-.7-.2-1.16v-3.6h-.9zM33.02 12V4.96h.94V6.2l-.03.56h.03c.18-.56.46-1 .85-1.36.38-.34.84-.5 1.38-.5l.37.03v.94c-.1-.02-.2-.03-.35-.03-.47 0-.9.17-1.26.5-.37.34-.63.78-.78 1.32-.13.42-.2.88-.2 1.37V12h-.95zm4.4-3.55c0-1.04.35-1.9 1.07-2.6.73-.7 1.6-1.06 2.64-1.06 1.03 0 1.9.34 2.64 1.04.73.7 1.1 1.57 1.1 2.6 0 1.06-.37 1.95-1.1 2.66-.73.7-1.6 1.07-2.64 1.07-1.03 0-1.9-.36-2.64-1.07-.72-.7-1.08-1.6-1.08-2.65zm.97 0c0 .8.27 1.5.8 2.04s1.18.82 1.94.82c.77 0 1.42-.28 1.95-.83.52-.56.78-1.24.78-2.05 0-.8-.26-1.47-.8-2-.52-.53-1.17-.8-1.94-.8-.76 0-1.4.27-1.95.8-.53.53-.8 1.2-.8 2zm8.18 1.88V2.16h.95v7.97c0 .7.26 1.06.78 1.06l.25-.03v.86c-.1.02-.22.02-.35.02-1.08 0-1.62-.57-1.62-1.72zM.78 23.07c0-1.43.47-2.63 1.4-3.6.97-1 2.14-1.48 3.55-1.48.67 0 1.3.1 1.88.28.6.2 1 .38 1.25.57l.38.3-.52.72c-.06-.07-.2-.16-.36-.28-.14-.1-.47-.24-1-.44-.5-.18-1.03-.27-1.57-.27-1.18 0-2.14.4-2.88 1.18-.75.8-1.12 1.8-1.12 2.98 0 1.2.37 2.2 1.1 3 .76.8 1.7 1.22 2.8 1.22.56 0 1.1-.13 1.63-.37.52-.23.9-.47 1.13-.72l.35-.35v-1.66H7.1v-.87h2.6V28h-.9v-.75l.02-.4H8.8c-.06.06-.1.1-.14.14-.04.03-.18.14-.4.3-.2.14-.4.27-.65.4-.22.12-.52.22-.9.32-.37.1-.75.15-1.12.15-1.35 0-2.5-.48-3.42-1.46-.92-.95-1.4-2.17-1.4-3.63zM11.75 28v-7.04h.93v1.24l-.03.56h.02c.17-.56.45-1 .84-1.36.38-.34.85-.5 1.38-.5l.38.03v.94c-.1-.02-.2-.03-.35-.03-.48 0-.9.17-1.26.5-.38.34-.64.78-.8 1.32-.13.42-.2.88-.2 1.37V28h-.94zm4.47-3.55c0-1.04.36-1.9 1.1-2.6.7-.7 1.6-1.06 2.62-1.06 1.03 0 1.9.34 2.64 1.04.72.7 1.08 1.57 1.08 2.6 0 1.06-.36 1.95-1.1 2.66-.72.7-1.6 1.07-2.63 1.07-1.03 0-1.9-.36-2.63-1.07-.73-.7-1.1-1.6-1.1-2.65zm.98 0c0 .8.28 1.5.8 2.04.54.54 1.2.82 1.95.82.77 0 1.42-.28 1.95-.83.53-.56.8-1.24.8-2.05 0-.8-.27-1.47-.8-2s-1.18-.8-1.95-.8c-.76 0-1.4.27-1.94.8-.52.53-.8 1.2-.8 2zm8.16 1v-4.5h.95v4.23c0 .67.1 1.18.3 1.55.2.36.62.55 1.24.55.78 0 1.4-.3 1.88-.87.48-.57.72-1.26.72-2.07v-3.37h.95V28h-.93v-1.05l.03-.56h-.03c-.18.42-.5.83-1 1.2-.47.38-1.06.57-1.76.57-.8 0-1.4-.22-1.78-.68-.37-.45-.56-1.14-.56-2.06zm8.33 5.35v-9.84h.9v.68l-.03.55h.03l.07-.16c.04-.07.12-.2.25-.34.12-.15.27-.3.45-.42.17-.12.4-.23.7-.33.3-.1.62-.16.96-.16.93 0 1.68.33 2.24 1 .55.7.83 1.6.83 2.7s-.3 1.98-.88 2.65c-.6.68-1.35 1.02-2.27 1.02-.32 0-.62-.05-.9-.14-.27-.1-.5-.2-.65-.34-.16-.14-.3-.27-.43-.4-.1-.12-.2-.23-.25-.34l-.08-.14h-.03c.03.15.04.36.04.62v3.36h-.95zm.9-6.3c0 .76.2 1.42.6 1.98.4.57.96.85 1.65.85.65 0 1.18-.26 1.62-.77.43-.52.65-1.2.65-2.07 0-.87-.2-1.55-.62-2.07-.4-.52-.95-.77-1.6-.77-.65 0-1.2.24-1.63.7-.44.5-.66 1.2-.66 2.14z"/></defs></svg>