<?xml version="1.0" encoding="UTF-8"?>
<svg width="750px" height="748px" viewBox="0 0 750 748" version="1.1" xmlns="http://www.w3.org/2000/svg" xmlns:xlink="http://www.w3.org/1999/xlink">
    <title>Group 329</title>
    <defs>
        <filter id="filter-1">
            <feColorMatrix in="SourceGraphic" type="matrix" values="0 0 0 0 0.043137 0 0 0 0 0.470588 0 0 0 0 0.890196 0 0 0 1.000000 0"></feColorMatrix>
        </filter>
    </defs>
    <g id="Welldoc-Website" stroke="none" stroke-width="1" fill="none" fill-rule="evenodd">
        <g id="New-Home-Page" transform="translate(-1087.000000, -131.000000)">
            <g filter="url(#filter-1)" id="Group-329">
                <g style="mix-blend-mode: multiply;" transform="translate(1088.000000, 132.000000)">
                    <polygon id="Stroke-1" stroke="#656A76" stroke-width="0.309" points="620.219457 654.240874 572 693 625 650"></polygon>
                    <polygon id="Stroke-2" stroke="#656A76" stroke-width="0.309" points="511 722 513.224161 719.36053 572 693"></polygon>
                    <polygon id="Stroke-3" stroke="#656A76" stroke-width="0.309" points="515 717 512.824098 719.717479 448 741"></polygon>
                    <polygon id="Stroke-4" stroke="#656A76" stroke-width="0.309" points="251.521302 725.861844 255 728 207 710"></polygon>
                    <polygon id="Stroke-5" stroke="#656A76" stroke-width="0.309" points="257.435733 726.304906 254 724 311 742"></polygon>
                    <g id="Group-10" transform="translate(308.000000, 741.000000)" stroke="#656A76" stroke-width="0.309">
                        <polygon id="Stroke-6" points="67.1995378 5.3565 66.1480508 3.594 137.515031 0.26775"></polygon>
                        <polygon id="Stroke-8" points="66.1493489 3.59475 67.200836 5.35725 0.4681875 1.6035"></polygon>
                    </g>
                    <polygon id="Stroke-11" stroke="#656A76" stroke-width="0.309" points="747.2325 347 746.8325 373.293617 745.7675 417"></polygon>
                    <polygon id="Stroke-12" stroke="#656A76" stroke-width="0.309" points="105 631 59 572 80.2714032 597.068852"></polygon>
                    <polygon id="Stroke-13" stroke="#656A76" stroke-width="0.309" points="731 469.848427 744 419 731.47873 480"></polygon>
                    <polygon id="Stroke-14" stroke="#656A76" stroke-width="0.309" points="158 677 105 631 134.720313 653.245443"></polygon>
                    <polygon id="Stroke-15" stroke="#656A76" stroke-width="0.309" points="3 389 11 457 8.68928571 438.646288"></polygon>
                    <polygon id="Stroke-17" stroke="#656A76" stroke-width="0.309" points="211 710 158 680 192.203565 695.567901"></polygon>
                    <polygon id="Stroke-18" stroke="#656A76" stroke-width="0.309" points="731 479.880537 709 535 730.498132 470"></polygon>
                    <polygon id="Stroke-19" stroke="#656A76" stroke-width="0.309" points="11 457 36 529 25.1508649 505.506962"></polygon>
                    <polygon id="Stroke-20" stroke="#656A76" stroke-width="0.309" points="569.065615 58.0886018 555 48 612 85"></polygon>
                    <polygon id="Stroke-21" stroke="#656A76" stroke-width="0.309" points="671 588.02171 711 535 672.115503 599"></polygon>
                    <polygon id="Stroke-22" stroke="#656A76" stroke-width="0.309" points="672 599.985526 626 648 670.916643 589"></polygon>
                    <polygon id="Stroke-23" stroke="#656A76" stroke-width="0.309" points="254 725 208.790355 709.44597 190 695"></polygon>
                    <polygon id="Stroke-24" stroke="#656A76" stroke-width="0.309" points="35 529 78 599 56.6508318 573.360944"></polygon>
                    <polygon id="Stroke-25" stroke="#656A76" stroke-width="0.309" points="572 683.249703 626 650 572.737787 693"></polygon>
                    <polygon id="Stroke-26" stroke="#656A76" stroke-width="0.309" points="627.238239 105.45159 612 86 666 140"></polygon>
                    <polygon id="Stroke-27" stroke="#656A76" stroke-width="0.309" points="571.252945 682 572 692.019376 513 719"></polygon>
                    <polygon id="Stroke-28" stroke="#656A76" stroke-width="0.309" points="78 599 132 656 102.622426 633.617031"></polygon>
                    <polygon id="Stroke-29" stroke="#656A76" stroke-width="0.309" points="0 388 3.36150235 323 6 329.545799"></polygon>
                    <polygon id="Stroke-31" stroke="#656A76" stroke-width="0.309" points="745.686099 417 741 392.651064 747 347"></polygon>
                    <polygon id="Stroke-32" stroke="#656A76" stroke-width="0.309" points="44.3846839 200.010343 38 207 78 143"></polygon>
                    <polygon id="Stroke-33" stroke="#656A76" stroke-width="0.309" points="132 655 189 695 155.233414 678.743017"></polygon>
                    <polygon id="Stroke-34" stroke="#656A76" stroke-width="0.309" points="309.890107 731.68 311 742 254 724"></polygon>
                    <polygon id="Stroke-35" stroke="#656A76" stroke-width="0.309" points="39.9201754 208.004432 46 201 17 265"></polygon>
                    <polygon id="Stroke-36" stroke="#656A76" stroke-width="0.309" points="567 57 503 24 553.090897 47.0082519"></polygon>
                    <polygon id="Stroke-37" stroke="#656A76" stroke-width="0.309" points="18 261 7.3431687 329 5 322.465271"></polygon>
                    <polygon id="Stroke-38" stroke="#656A76" stroke-width="0.309" points="312.098769 743.543416 311 733 376 746"></polygon>
                    <polygon id="Stroke-39" stroke="#656A76" stroke-width="0.309" points="446.109937 741 445 729.707952 515 717"></polygon>
                    <polygon id="Stroke-40" stroke="#656A76" stroke-width="0.309" points="444.917657 729 446 740.888889 376 745"></polygon>
                    <polygon id="Stroke-41" stroke="#656A76" stroke-width="0.309" points="678.574268 169.391941 666 140 709 208"></polygon>
                    <polygon id="Stroke-42" stroke="#656A76" stroke-width="0.309" points="739.685932 395 744 419.506053 731 470"></polygon>
                    <polygon id="Stroke-43" stroke="#656A76" stroke-width="0.309" points="716.801435 242.576471 711 207 736 279"></polygon>
                    <polygon id="Stroke-44" stroke="#656A76" stroke-width="0.309" points="735 316.20218 736.395144 279 748 347"></polygon>
                    <polygon id="Stroke-45" stroke="#656A76" stroke-width="0.309" points="437 5 504 24 441.841797 10.9290159"></polygon>
                    <polygon id="Stroke-46" stroke="#656A76" stroke-width="0.309" points="610.86383 85.7824655 626 105 569 59"></polygon>
                    <polygon id="Stroke-47" stroke="#656A76" stroke-width="0.309" points="441 11 371 0 436.082981 4.90589198"></polygon>
                    <polygon id="Stroke-48" stroke="#656A76" stroke-width="0.309" points="10.5209223 457 0 389 11 401.951965"></polygon>
                    <polygon id="Stroke-50" stroke="#656A76" stroke-width="0.309" points="237 27 184.098924 57 178 55.1129168"></polygon>
                    <polygon id="Stroke-51" stroke="#656A76" stroke-width="0.309" points="371 0 305.962326 11 304 5.75449331"></polygon>
                    <polygon id="Stroke-52" stroke="#656A76" stroke-width="0.309" points="701 521.236924 731 470 709.436279 535"></polygon>
                    <polygon id="Stroke-53" stroke="#656A76" stroke-width="0.309" points="239 25 303.986221 6 306 11.1428261"></polygon>
                    <polygon id="Stroke-54" stroke="#656A76" stroke-width="0.309" points="178.884552 54 185 55.8962447 131 91"></polygon>
                    <polygon id="Stroke-55" stroke="#656A76" stroke-width="0.309" points="665.945356 139.70519 679 169 626 105"></polygon>
                    <polygon id="Stroke-56" stroke="#656A76" stroke-width="0.309" points="735 317 748 347.382993 741.875088 393"></polygon>
                    <polygon id="Stroke-57" stroke="#656A76" stroke-width="0.309" points="711 537.253788 671 591 702.462451 523"></polygon>
                    <polygon id="Stroke-58" stroke="#656A76" stroke-width="0.309" points="190 695 240.228568 706.620211 254 725"></polygon>
                    <polygon id="Stroke-59" stroke="#656A76" stroke-width="0.309" points="6.00512601 331 11 401 0 388.413156"></polygon>
                    <polygon id="Stroke-61" stroke="#656A76" stroke-width="0.309" points="707.747387 205.866152 714 242 677 167"></polygon>
                    <polygon id="Stroke-62" stroke="#656A76" stroke-width="0.309" points="36 529 11 457 28.8434797 474.740854"></polygon>
                    <polygon id="Stroke-63" stroke="#656A76" stroke-width="0.309" points="736 279.336378 734.796469 317 717 242"></polygon>
                    <polygon id="Stroke-64" stroke="#656A76" stroke-width="0.309" points="89.6353577 144.508259 78 145 129 94"></polygon>
                    <polygon id="Stroke-65" stroke="#656A76" stroke-width="0.309" points="620 631.453051 673 589 626.68821 648"></polygon>
                    <polygon id="Stroke-66" stroke="#656A76" stroke-width="0.309" points="626 647.848526 572 682 619.475733 631"></polygon>
                    <polygon id="Stroke-67" stroke="#656A76" stroke-width="0.309" points="311 734 254.529953 727.114648 241 709"></polygon>
                    <polygon id="Stroke-68" stroke="#656A76" stroke-width="0.309" points="79.670081 144.496365 91 144 48 201"></polygon>
                    <polygon id="Stroke-69" stroke="#656A76" stroke-width="0.309" points="7 329 18.1372549 261 29 263.333524"></polygon>
                    <polygon id="Stroke-70" stroke="#656A76" stroke-width="0.309" points="515.062704 719 511 700.5612 572 682"></polygon>
                    <polygon id="Stroke-71" stroke="#656A76" stroke-width="0.309" points="46 201 27.5654971 266 17 263.687426"></polygon>
                    <polygon id="Stroke-72" stroke="#656A76" stroke-width="0.309" points="78 599 35 529 63.7528563 549.092312"></polygon>
                    <polygon id="Stroke-73" stroke="#656A76" stroke-width="0.309" points="503 24 567 57 511.238436 39.2536499"></polygon>
                    <polygon id="Stroke-74" stroke="#656A76" stroke-width="0.309" points="189 695 132 655 173.221827 666.113021"></polygon>
                    <polygon id="Stroke-75" stroke="#656A76" stroke-width="0.309" points="510.834473 699 515 716.802476 445 729"></polygon>
                    <polygon id="Stroke-76" stroke="#656A76" stroke-width="0.309" points="374.939119 725 376 744 311 731.757395"></polygon>
                    <polygon id="Stroke-77" stroke="#656A76" stroke-width="0.309" points="132 656 78 599 115.014888 616.234973"></polygon>
                    <polygon id="Stroke-78" stroke="#656A76" stroke-width="0.309" points="377.069804 744 376 725 446 728.942903"></polygon>
                    <polygon id="Stroke-79" stroke="#656A76" stroke-width="0.309" points="513 40 441 11 504.736428 24.0644431"></polygon>
                    <polygon id="Stroke-80" stroke="#656A76" stroke-width="0.309" points="731.954075 470 719 447.73384 741 395"></polygon>
                    <polygon id="Stroke-81" stroke="#656A76" stroke-width="0.309" points="11.4278723 401 29 473 11 455.083661"></polygon>
                    <polygon id="Stroke-82" stroke="#656A76" stroke-width="0.309" points="240 707 190.687731 694.880017 175 666"></polygon>
                    <polygon id="Stroke-83" stroke="#656A76" stroke-width="0.309" points="717.924635 447 731 469.403045 701 522"></polygon>
                    <polygon id="Stroke-84" stroke="#656A76" stroke-width="0.309" points="183 57 237.123589 27 244 36.9019333"></polygon>
                    <polygon id="Stroke-85" stroke="#656A76" stroke-width="0.309" points="371.931391 1 443 10.6718417 371 14"></polygon>
                    <polygon id="Stroke-86" stroke="#656A76" stroke-width="0.309" points="306 13 245.822802 37 239 27.1077677"></polygon>
                    <polygon id="Stroke-87" stroke="#656A76" stroke-width="0.309" points="30 473 65 548 37.176814 528.039071"></polygon>
                    <polygon id="Stroke-88" stroke="#656A76" stroke-width="0.309" points="370.103159 14 306 11.3525114 371 1"></polygon>
                    <polygon id="Stroke-89" stroke="#656A76" stroke-width="0.309" points="576.446809 83.2734511 569 59 626 105"></polygon>
                    <polygon id="Stroke-90" stroke="#656A76" stroke-width="0.309" points="143.884002 99 131 92.8208848 185 58"></polygon>
                    <polygon id="Stroke-91" stroke="#656A76" stroke-width="0.309" points="116 615 175 666 133.33215 654.802343"></polygon>
                    <polygon id="Stroke-92" stroke="#656A76" stroke-width="0.309" points="65 548 118 613 79.647885 596.284276"></polygon>
                    <polygon id="Stroke-93" stroke="#656A76" stroke-width="0.309" points="130.776117 94 144 100.368524 91 145"></polygon>
                    <polygon id="Stroke-94" stroke="#656A76" stroke-width="0.309" points="739 393 720 363.633175 733.060524 317"></polygon>
                    <polygon id="Stroke-95" stroke="#656A76" stroke-width="0.309" points="658 571.060346 701 523 671.346683 591"></polygon>
                    <polygon id="Stroke-96" stroke="#656A76" stroke-width="0.309" points="10.4862837 401 6 331 24 340.463474"></polygon>
                    <polygon id="Stroke-97" stroke="#656A76" stroke-width="0.309" points="673 589.323688 620 631 658.823281 570"></polygon>
                    <polygon id="Stroke-98" stroke="#656A76" stroke-width="0.309" points="563 660.401902 620 631 571.46361 682"></polygon>
                    <polygon id="Stroke-99" stroke="#656A76" stroke-width="0.309" points="630.741524 139.240621 626 105 679 169"></polygon>
                    <polygon id="Stroke-100" stroke="#656A76" stroke-width="0.309" points="241 709 304.030935 709.17457 311 734"></polygon>
                    <polygon id="Stroke-101" stroke="#656A76" stroke-width="0.309" points="577 83 513 40 569.365892 58.2111578"></polygon>
                    <polygon id="Stroke-102" stroke="#656A76" stroke-width="0.309" points="563.806097 659 572 680.517031 511 699"></polygon>
                    <polygon id="Stroke-103" stroke="#656A76" stroke-width="0.309" points="29 266 25.5882353 341 7 331.417669"></polygon>
                    <polygon id="Stroke-104" stroke="#656A76" stroke-width="0.309" points="91 144 68.6128183 201 48 200.338747"></polygon>
                    <polygon id="Stroke-105" stroke="#656A76" stroke-width="0.309" points="706 284.45884 715.447003 242 735 317"></polygon>
                    <polygon id="Stroke-106" stroke="#656A76" stroke-width="0.309" points="29 266 47.7798294 201 69 201.662567"></polygon>
                    <polygon id="Stroke-107" stroke="#656A76" stroke-width="0.309" points="674 208.187745 675.856241 167 714 242"></polygon>
                    <polygon id="Stroke-108" stroke="#656A76" stroke-width="0.309" points="376 727.657998 310.951163 734 304 709"></polygon>
                    <polygon id="Stroke-109" stroke="#656A76" stroke-width="0.309" points="720.328513 365 741 394.825763 719 448"></polygon>
                    <polygon id="Stroke-110" stroke="#656A76" stroke-width="0.309" points="445.165527 729 441 703.554024 511 699"></polygon>
                    <polygon id="Stroke-111" stroke="#656A76" stroke-width="0.309" points="441.937292 704 446 729 376 725.247305"></polygon>
                    <polygon id="Stroke-112" stroke="#656A76" stroke-width="0.309" points="244 37 194.379854 70 183 58.2791262"></polygon>
                    <polygon id="Stroke-113" stroke="#656A76" stroke-width="0.309" points="626.440208 105.352177 631 140 577 83"></polygon>
                    <polygon id="Stroke-114" stroke="#656A76" stroke-width="0.309" points="184.697233 58 196 69.0344334 143 99"></polygon>
                    <polygon id="Stroke-115" stroke="#656A76" stroke-width="0.309" points="441 11 513 40 443.450069 35.4526109"></polygon>
                    <polygon id="Stroke-116" stroke="#656A76" stroke-width="0.309" points="27.9211504 473 11 401 36 414.261351"></polygon>
                    <polygon id="Stroke-117" stroke="#656A76" stroke-width="0.309" points="706 287 735 318.572537 720.675587 365"></polygon>
                    <polygon id="Stroke-118" stroke="#656A76" stroke-width="0.309" points="446 35 371 14.6083766 443.51885 11"></polygon>
                    <polygon id="Stroke-119" stroke="#656A76" stroke-width="0.309" points="302.2876 35.5010497 245 37 306 13"></polygon>
                    <polygon id="Stroke-120" stroke="#656A76" stroke-width="0.309" points="175 666 229.827655 670.4639 240 707"></polygon>
                    <polygon id="Stroke-121" stroke="#656A76" stroke-width="0.309" points="702.331553 522 679 500.674232 719 447"></polygon>
                    <polygon id="Stroke-122" stroke="#656A76" stroke-width="0.309" points="304.697443 11 371 13.9960814 301 35"></polygon>
                    <polygon id="Stroke-123" stroke="#656A76" stroke-width="0.309" points="677 169.533374 675.236758 210 631 140"></polygon>
                    <polygon id="Stroke-124" stroke="#656A76" stroke-width="0.309" points="714 243.864859 704.346661 286 674 210"></polygon>
                    <polygon id="Stroke-125" stroke="#656A76" stroke-width="0.309" points="678.400886 500 701 521.026679 658 568"></polygon>
                    <polygon id="Stroke-126" stroke="#656A76" stroke-width="0.309" points="23.9342382 341 36 416 11 402.642948"></polygon>
                    <polygon id="Stroke-127" stroke="#656A76" stroke-width="0.309" points="144 100 121.417543 146 91 143.600037"></polygon>
                    <polygon id="Stroke-128" stroke="#656A76" stroke-width="0.309" points="65.2527434 548 29 473 66 487.884509"></polygon>
                    <polygon id="Stroke-129" stroke="#656A76" stroke-width="0.309" points="301 707 239.017722 706.813875 229 670"></polygon>
                    <polygon id="Stroke-130" stroke="#656A76" stroke-width="0.309" points="620 629.94699 563 659 604.489229 605"></polygon>
                    <polygon id="Stroke-131" stroke="#656A76" stroke-width="0.309" points="605 606.657297 658 570 620.159389 631"></polygon>
                    <polygon id="Stroke-132" stroke="#656A76" stroke-width="0.309" points="175 666 116 615 165.666297 621.014519"></polygon>
                    <polygon id="Stroke-133" stroke="#656A76" stroke-width="0.309" points="509.112597 699 500 669.778104 564 659"></polygon>
                    <polygon id="Stroke-134" stroke="#656A76" stroke-width="0.309" points="67 201 89.9501826 144 120 146.427438"></polygon>
                    <polygon id="Stroke-135" stroke="#656A76" stroke-width="0.309" points="118 613 65 548 111.783732 559.823522"></polygon>
                    <polygon id="Stroke-136" stroke="#656A76" stroke-width="0.309" points="24 341 27.4484185 266 57 273.958061"></polygon>
                    <polygon id="Stroke-137" stroke="#656A76" stroke-width="0.309" points="502.01169 671 511 699.430313 441 704"></polygon>
                    <polygon id="Stroke-138" stroke="#656A76" stroke-width="0.309" points="513 40 577 83 515.277145 73.3785243"></polygon>
                    <polygon id="Stroke-139" stroke="#656A76" stroke-width="0.309" points="69 201 57.9817514 273 29 265.111223"></polygon>
                    <polygon id="Stroke-140" stroke="#656A76" stroke-width="0.309" points="304 705.611266 374.88216 690 376 725"></polygon>
                    <polygon id="Stroke-141" stroke="#656A76" stroke-width="0.309" points="441 703.22751 375.10309 725 374 690"></polygon>
                    <polygon id="Stroke-142" stroke="#656A76" stroke-width="0.309" points="37.6388046 414 66 489 29 473.890639"></polygon>
                    <polygon id="Stroke-143" stroke="#656A76" stroke-width="0.309" points="718.655813 448 687 418.999011 720 365"></polygon>
                    <polygon id="Stroke-144" stroke="#656A76" stroke-width="0.309" points="243.773279 67.5033041 196 70 247 37"></polygon>
                    <polygon id="Stroke-145" stroke="#656A76" stroke-width="0.309" points="515 72 443 35 512.734402 39.367034"></polygon>
                    <polygon id="Stroke-146" stroke="#656A76" stroke-width="0.309" points="230 671 175.179642 666.6356 166 623"></polygon>
                    <polygon id="Stroke-147" stroke="#656A76" stroke-width="0.309" points="196 68 177.785685 105 143 98.7209518"></polygon>
                    <polygon id="Stroke-148" stroke="#656A76" stroke-width="0.309" points="245.079997 36.4852309 301 35 242 65"></polygon>
                    <polygon id="Stroke-149" stroke="#656A76" stroke-width="0.309" points="687.898387 417 719 446.073593 679 500"></polygon>
                    <polygon id="Stroke-150" stroke="#656A76" stroke-width="0.309" points="577 122.022111 578.02877 83 631 140"></polygon>
                    <polygon id="Stroke-151" stroke="#656A76" stroke-width="0.309" points="65.7536699 489 111 561 65 548.899809"></polygon>
                    <polygon id="Stroke-152" stroke="#656A76" stroke-width="0.309" points="112 559 166 620 117.925851 613.975041"></polygon>
                    <polygon id="Stroke-153" stroke="#656A76" stroke-width="0.309" points="120 146 142.27448 100 177 106.170732"></polygon>
                    <polygon id="Stroke-154" stroke="#656A76" stroke-width="0.309" points="371.828035 15 446 35.4132134 371 48"></polygon>
                    <polygon id="Stroke-155" stroke="#656A76" stroke-width="0.309" points="370.172085 48 301 35.1637998 371 15"></polygon>
                    <polygon id="Stroke-156" stroke="#656A76" stroke-width="0.309" points="550 631.106332 604 605 563.244795 659"></polygon>
                    <polygon id="Stroke-157" stroke="#656A76" stroke-width="0.309" points="720 365 680 333.744966 705.197332 287"></polygon>
                    <polygon id="Stroke-158" stroke="#656A76" stroke-width="0.309" points="550.431329 631 564 659.914746 500 671"></polygon>
                    <polygon id="Stroke-159" stroke="#656A76" stroke-width="0.309" points="657.654688 568 625 546.170322 679 500"></polygon>
                    <polygon id="Stroke-160" stroke="#656A76" stroke-width="0.309" points="625.688258 548 658 569.904906 605 607"></polygon>
                    <polygon id="Stroke-161" stroke="#656A76" stroke-width="0.309" points="624 184.726942 631.419046 140 677 210"></polygon>
                    <polygon id="Stroke-162" stroke="#656A76" stroke-width="0.309" points="661 256.556062 675.521802 210 704 286"></polygon>
                    <polygon id="Stroke-163" stroke="#656A76" stroke-width="0.309" points="36.8123116 416 24 341 61 353.259449"></polygon>
                    <polygon id="Stroke-164" stroke="#656A76" stroke-width="0.309" points="575.935119 123 516 75 577 84.5504979"></polygon>
                    <polygon id="Stroke-165" stroke="#656A76" stroke-width="0.309" points="196.106754 67.44551 242 65 178 105"></polygon>
                    <polygon id="Stroke-166" stroke="#656A76" stroke-width="0.309" points="229 670.189665 296.631242 661 301 707"></polygon>
                    <polygon id="Stroke-167" stroke="#656A76" stroke-width="0.309" points="120 146 105.048195 210 67 200.747091"></polygon>
                    <polygon id="Stroke-168" stroke="#656A76" stroke-width="0.309" points="56.1401577 274 61 352 24 339.999024"></polygon>
                    <polygon id="Stroke-169" stroke="#656A76" stroke-width="0.309" points="502 668.898241 441 702 442.679817 659"></polygon>
                    <polygon id="Stroke-170" stroke="#656A76" stroke-width="0.309" points="680 333 720 364.183226 686.826282 417"></polygon>
                    <polygon id="Stroke-171" stroke="#656A76" stroke-width="0.309" points="373 691.178618 301.464995 707 297 661"></polygon>
                    <polygon id="Stroke-172" stroke="#656A76" stroke-width="0.309" points="57 273 67.7419949 201 105 210.204993"></polygon>
                    <polygon id="Stroke-173" stroke="#656A76" stroke-width="0.309" points="373 688.774133 443 659 441.329831 702"></polygon>
                    <polygon id="Stroke-174" stroke="#656A76" stroke-width="0.309" points="631 137.09577 623.873583 183 577 119"></polygon>
                    <polygon id="Stroke-175" stroke="#656A76" stroke-width="0.309" points="661 255 704 283.966986 680.045055 331"></polygon>
                    <polygon id="Stroke-176" stroke="#656A76" stroke-width="0.309" points="64.1377016 489 37 414 78 426.300962"></polygon>
                    <polygon id="Stroke-177" stroke="#656A76" stroke-width="0.309" points="677 208.649623 661.854046 255 624 183"></polygon>
                    <polygon id="Stroke-178" stroke="#656A76" stroke-width="0.309" points="300.447685 75 242 66.6758181 301 35"></polygon>
                    <polygon id="Stroke-179" stroke="#656A76" stroke-width="0.309" points="443.988823 35 515 71.6121931 443 76"></polygon>
                    <polygon id="Stroke-180" stroke="#656A76" stroke-width="0.309" points="166 621.042685 226.073225 616 230 670"></polygon>
                    <polygon id="Stroke-181" stroke="#656A76" stroke-width="0.309" points="566.875808 583 604 607.457526 550 634"></polygon>
                    <polygon id="Stroke-182" stroke="#656A76" stroke-width="0.309" points="301.565639 35 371 48.1122337 301 75"></polygon>
                    <polygon id="Stroke-183" stroke="#656A76" stroke-width="0.309" points="444.998555 76 371 47.1777237 446 35"></polygon>
                    <polygon id="Stroke-184" stroke="#656A76" stroke-width="0.309" points="678.766783 500 637 470.52381 688 417"></polygon>
                    <polygon id="Stroke-185" stroke="#656A76" stroke-width="0.309" points="550 632.501795 502 671 503.150757 623"></polygon>
                    <polygon id="Stroke-186" stroke="#656A76" stroke-width="0.309" points="177 105 162.492392 158 120 145.289728"></polygon>
                    <polygon id="Stroke-187" stroke="#656A76" stroke-width="0.309" points="604.537483 607 568 583.244815 625 548"></polygon>
                    <polygon id="Stroke-188" stroke="#656A76" stroke-width="0.309" points="109.552612 561 65 489 116 498.459447"></polygon>
                    <polygon id="Stroke-189" stroke="#656A76" stroke-width="0.309" points="60.3063508 352 78 427 37 414.83468"></polygon>
                    <polygon id="Stroke-190" stroke="#656A76" stroke-width="0.309" points="166 620 112 559 165.822605 562.292256"></polygon>
                    <polygon id="Stroke-191" stroke="#656A76" stroke-width="0.309" points="638.206545 472 679 501.276081 625 548"></polygon>
                    <polygon id="Stroke-192" stroke="#656A76" stroke-width="0.309" points="297 660.857188 228.897181 670 225 616"></polygon>
                    <polygon id="Stroke-193" stroke="#656A76" stroke-width="0.309" points="229.033267 108 178 103.089391 242 65"></polygon>
                    <polygon id="Stroke-194" stroke="#656A76" stroke-width="0.309" points="443 660.964106 502 623 500.837397 671"></polygon>
                    <polygon id="Stroke-195" stroke="#656A76" stroke-width="0.309" points="107 210 121.817869 146 164 158.749498"></polygon>
                    <polygon id="Stroke-196" stroke="#656A76" stroke-width="0.309" points="515.398714 75 575 123 511 122.15505"></polygon>
                    <polygon id="Stroke-197" stroke="#656A76" stroke-width="0.309" points="79.3875852 427 116 499 65 489.407837"></polygon>
                    <polygon id="Stroke-198" stroke="#656A76" stroke-width="0.309" points="61.8396323 352 57 274 103 287.325018"></polygon>
                    <polygon id="Stroke-199" stroke="#656A76" stroke-width="0.309" points="105 210 102.347136 286 57 272.616219"></polygon>
                    <polygon id="Stroke-200" stroke="#656A76" stroke-width="0.309" points="297 659.908397 371.841608 636 373 690"></polygon>
                    <polygon id="Stroke-201" stroke="#656A76" stroke-width="0.309" points="443 659.908397 374.140703 690 373 636"></polygon>
                    <polygon id="Stroke-202" stroke="#656A76" stroke-width="0.309" points="225 615.957231 164.182479 621 164 564"></polygon>
                    <polygon id="Stroke-203" stroke="#656A76" stroke-width="0.309" points="567 583 550.104226 634 502 624.317067"></polygon>
                    <polygon id="Stroke-204" stroke="#656A76" stroke-width="0.309" points="242.006313 65 301 72.8661068 229 108"></polygon>
                    <polygon id="Stroke-205" stroke="#656A76" stroke-width="0.309" points="689 417 641 385.385961 682.363918 333"></polygon>
                    <polygon id="Stroke-206" stroke="#656A76" stroke-width="0.309" points="118.369644 499 166 564 112 560.776509"></polygon>
                    <polygon id="Stroke-207" stroke="#656A76" stroke-width="0.309" points="566 166.86921 574.938413 119 623 183"></polygon>
                    <polygon id="Stroke-208" stroke="#656A76" stroke-width="0.309" points="178.340232 105 229 110.047416 164 158"></polygon>
                    <polygon id="Stroke-209" stroke="#656A76" stroke-width="0.309" points="510.608347 120 443 76.5828054 515 72"></polygon>
                    <polygon id="Stroke-210" stroke="#656A76" stroke-width="0.309" points="607 231.847752 623.343638 183 661 255"></polygon>
                    <polygon id="Stroke-211" stroke="#656A76" stroke-width="0.309" points="682 331 629 301.85836 662.484447 255"></polygon>
                    <polygon id="Stroke-212" stroke="#656A76" stroke-width="0.309" points="637.92687 387 688 418.676155 637 471"></polygon>
                    <polygon id="Stroke-213" stroke="#656A76" stroke-width="0.309" points="370.395239 96 301 74.1139454 371 48"></polygon>
                    <polygon id="Stroke-214" stroke="#656A76" stroke-width="0.309" points="368.605823 48 443 77.565372 368 96"></polygon>
                    <polygon id="Stroke-215" stroke="#656A76" stroke-width="0.309" points="580.73968 518 625 548.075068 568 583"></polygon>
                    <polygon id="Stroke-216" stroke="#656A76" stroke-width="0.309" points="566.026795 169 511 121 575 121.854459"></polygon>
                    <polygon id="Stroke-217" stroke="#656A76" stroke-width="0.309" points="623.663874 548 578 517.391039 637 472"></polygon>
                    <polygon id="Stroke-218" stroke="#656A76" stroke-width="0.309" points="78.87001 427 60 352 113 365.329486"></polygon>
                    <polygon id="Stroke-219" stroke="#656A76" stroke-width="0.309" points="502 621.713522 442.342875 659 441 602"></polygon>
                    <polygon id="Stroke-220" stroke="#656A76" stroke-width="0.309" points="623 184.999202 606.818611 234 566 169"></polygon>
                    <polygon id="Stroke-221" stroke="#656A76" stroke-width="0.309" points="225 616.806701 296.344797 599 297 663"></polygon>
                    <polygon id="Stroke-222" stroke="#656A76" stroke-width="0.309" points="629 304 682 333.50699 640.549152 387"></polygon>
                    <polygon id="Stroke-223" stroke="#656A76" stroke-width="0.309" points="164 160 157.130168 228 107 211.0245"></polygon>
                    <polygon id="Stroke-224" stroke="#656A76" stroke-width="0.309" points="607 234 661 256.96561 627.096334 304"></polygon>
                    <polygon id="Stroke-225" stroke="#656A76" stroke-width="0.309" points="102.474052 287 113 365 60 351.921444"></polygon>
                    <polygon id="Stroke-226" stroke="#656A76" stroke-width="0.309" points="502 623 513.544152 564 567 582.633159"></polygon>
                    <polygon id="Stroke-227" stroke="#656A76" stroke-width="0.309" points="373 635.445302 441.667761 602 443 659"></polygon>
                    <polygon id="Stroke-228" stroke="#656A76" stroke-width="0.309" points="371 638.434165 296.661171 663 296 599"></polygon>
                    <polygon id="Stroke-229" stroke="#656A76" stroke-width="0.309" points="102 286 104.694263 210 155 226.921925"></polygon>
                    <polygon id="Stroke-230" stroke="#656A76" stroke-width="0.309" points="118.008509 499 81 427 134 436.635704"></polygon>
                    <polygon id="Stroke-231" stroke="#656A76" stroke-width="0.309" points="294.777725 129 229 111.430416 301 75"></polygon>
                    <polygon id="Stroke-232" stroke="#656A76" stroke-width="0.309" points="166 563.918401 230 551 226.746349 616"></polygon>
                    <polygon id="Stroke-233" stroke="#656A76" stroke-width="0.309" points="163.686959 564 115 499 172 502.855465"></polygon>
                    <polygon id="Stroke-234" stroke="#656A76" stroke-width="0.309" points="220.333899 175 164 159.722888 229 111"></polygon>
                    <polygon id="Stroke-235" stroke="#656A76" stroke-width="0.309" points="444.044219 77 512 120.247596 440 131"></polygon>
                    <polygon id="Stroke-236" stroke="#656A76" stroke-width="0.309" points="580 518 567.317382 583 515 564.644027"></polygon>
                    <polygon id="Stroke-237" stroke="#656A76" stroke-width="0.309" points="301.253951 75 370 97.0803443 295 129"></polygon>
                    <polygon id="Stroke-238" stroke="#656A76" stroke-width="0.309" points="114.574327 366 134 436 81 426.590415"></polygon>
                    <polygon id="Stroke-239" stroke="#656A76" stroke-width="0.309" points="438.90283 131 368 95.6966346 443 77"></polygon>
                    <polygon id="Stroke-240" stroke="#656A76" stroke-width="0.309" points="513 564 501.591654 623 441 603.015991"></polygon>
                    <polygon id="Stroke-241" stroke="#656A76" stroke-width="0.309" points="638.094875 471 585 437.969621 639 387"></polygon>
                    <polygon id="Stroke-242" stroke="#656A76" stroke-width="0.309" points="583.375565 436 637 469.154885 578 514"></polygon>
                    <polygon id="Stroke-243" stroke="#656A76" stroke-width="0.309" points="511.251933 119 566 166.819774 502 172"></polygon>
                    <polygon id="Stroke-244" stroke="#656A76" stroke-width="0.309" points="297 598.667812 225 616 228.228815 551"></polygon>
                    <polygon id="Stroke-245" stroke="#656A76" stroke-width="0.309" points="130.975074 437 172 502 115 498.120995"></polygon>
                    <polygon id="Stroke-246" stroke="#656A76" stroke-width="0.309" points="164.930539 160 222 175.015477 158 228"></polygon>
                    <polygon id="Stroke-247" stroke="#656A76" stroke-width="0.309" points="553 217.871075 566.740094 169 607 234"></polygon>
                    <polygon id="Stroke-248" stroke="#656A76" stroke-width="0.309" points="230 551.27192 166 564 174.307193 503"></polygon>
                    <polygon id="Stroke-249" stroke="#656A76" stroke-width="0.309" points="228.811346 111 295 128.696132 220 175"></polygon>
                    <polygon id="Stroke-250" stroke="#656A76" stroke-width="0.309" points="112.424753 365 102 287 159 303.66242"></polygon>
                    <polygon id="Stroke-251" stroke="#656A76" stroke-width="0.309" points="626 304 567 280.243357 605.782215 234"></polygon>
                    <polygon id="Stroke-252" stroke="#656A76" stroke-width="0.309" points="637 387 580 356.061009 625.51442 304"></polygon>
                    <polygon id="Stroke-253" stroke="#656A76" stroke-width="0.309" points="156.097182 228 159 304 102 287.28017"></polygon>
                    <polygon id="Stroke-254" stroke="#656A76" stroke-width="0.309" points="502.66818 172 440 129.629944 512 119"></polygon>
                    <polygon id="Stroke-255" stroke="#656A76" stroke-width="0.309" points="441 603.528366 372.017653 637 371 572"></polygon>
                    <polygon id="Stroke-256" stroke="#656A76" stroke-width="0.309" points="296 599.161652 369.982483 572 371 637"></polygon>
                    <polygon id="Stroke-257" stroke="#656A76" stroke-width="0.309" points="552.085844 217 502 174.147408 566 169"></polygon>
                    <polygon id="Stroke-258" stroke="#656A76" stroke-width="0.309" points="553 216 607 232.412513 569.35585 280"></polygon>
                    <polygon id="Stroke-259" stroke="#656A76" stroke-width="0.309" points="515 564 522.027141 488 580 516.96435"></polygon>
                    <polygon id="Stroke-260" stroke="#656A76" stroke-width="0.309" points="580 354 637 384.979238 584.173108 437"></polygon>
                    <polygon id="Stroke-261" stroke="#656A76" stroke-width="0.309" points="369.62931 159 295 127.344555 370 95"></polygon>
                    <polygon id="Stroke-262" stroke="#656A76" stroke-width="0.309" points="132.168293 436 113 366 170 378.326429"></polygon>
                    <polygon id="Stroke-263" stroke="#656A76" stroke-width="0.309" points="368.368128 95 438 130.585117 368 159"></polygon>
                    <polygon id="Stroke-264" stroke="#656A76" stroke-width="0.309" points="441 604 445.666469 534 513 564.359766"></polygon>
                    <polygon id="Stroke-265" stroke="#656A76" stroke-width="0.309" points="585 436 579.744354 514 521 485.118506"></polygon>
                    <polygon id="Stroke-266" stroke="#656A76" stroke-width="0.309" points="567 281 626 304.957787 579.380627 357"></polygon>
                    <polygon id="Stroke-267" stroke="#656A76" stroke-width="0.309" points="174.432761 502 134 437 188 443.511949"></polygon>
                    <polygon id="Stroke-268" stroke="#656A76" stroke-width="0.309" points="229 550.540476 301 529 298.080149 599"></polygon>
                    <polygon id="Stroke-269" stroke="#656A76" stroke-width="0.309" points="220.387747 252 158 227.37791 222 174"></polygon>
                    <polygon id="Stroke-270" stroke="#656A76" stroke-width="0.309" points="158.648776 303 170 378 113 365.463964"></polygon>
                    <polygon id="Stroke-271" stroke="#656A76" stroke-width="0.309" points="174 502.594752 238 486 229.337408 551"></polygon>
                    <polygon id="Stroke-272" stroke="#656A76" stroke-width="0.309" points="446 534 441.297738 604 371 571.553218"></polygon>
                    <polygon id="Stroke-273" stroke="#656A76" stroke-width="0.309" points="291.975145 201 220 174.290459 295 129"></polygon>
                    <polygon id="Stroke-274" stroke="#656A76" stroke-width="0.309" points="154 228 218 252.446837 156.932947 304"></polygon>
                    <polygon id="Stroke-275" stroke="#656A76" stroke-width="0.309" points="371 570.987775 296 599 298.946553 529"></polygon>
                    <polygon id="Stroke-276" stroke="#656A76" stroke-width="0.309" points="171.750474 378 188 443 134 436.422901"></polygon>
                    <polygon id="Stroke-277" stroke="#656A76" stroke-width="0.309" points="523 488 515.849986 564 448 534.315695"></polygon>
                    <polygon id="Stroke-278" stroke="#656A76" stroke-width="0.309" points="438 131 502 173.143662 440.126596 199"></polygon>
                    <polygon id="Stroke-279" stroke="#656A76" stroke-width="0.309" points="502 172 553 215.905016 503.094532 242"></polygon>
                    <polygon id="Stroke-280" stroke="#656A76" stroke-width="0.309" points="238 485.164381 174 502 187.66239 443"></polygon>
                    <polygon id="Stroke-281" stroke="#656A76" stroke-width="0.309" points="550.581929 216 567 280 502 242.387625"></polygon>
                    <polygon id="Stroke-282" stroke="#656A76" stroke-width="0.309" points="295.957313 129 369 159.775972 293 201"></polygon>
                    <polygon id="Stroke-283" stroke="#656A76" stroke-width="0.309" points="442 199 370 158.719935 439.930273 131"></polygon>
                    <polygon id="Stroke-284" stroke="#656A76" stroke-width="0.309" points="301 530.06456 229 551 237.690548 486"></polygon>
                    <polygon id="Stroke-285" stroke="#656A76" stroke-width="0.309" points="580.773949 354 585 437 521 399.434489"></polygon>
                    <polygon id="Stroke-286" stroke="#656A76" stroke-width="0.309" points="219.649077 174 293 201.038798 218 252"></polygon>
                    <polygon id="Stroke-287" stroke="#656A76" stroke-width="0.309" points="521 488 521.209542 400 585 437.775716"></polygon>
                    <polygon id="Stroke-288" stroke="#656A76" stroke-width="0.309" points="567.696254 281 580 357 513 317.04017"></polygon>
                    <polygon id="Stroke-289" stroke="#656A76" stroke-width="0.309" points="502 242 441 198.438739 500.927585 172"></polygon>
                    <polygon id="Stroke-290" stroke="#656A76" stroke-width="0.309" points="160 303 225 333.044972 171.314546 378"></polygon>
                    <polygon id="Stroke-291" stroke="#656A76" stroke-width="0.309" points="370.88172 570 370 494 446 533.399229"></polygon>
                    <polygon id="Stroke-292" stroke="#656A76" stroke-width="0.309" points="225 334 160 304.448015 219.050587 253"></polygon>
                    <polygon id="Stroke-293" stroke="#656A76" stroke-width="0.309" points="513.373837 314 502 242 567 278.406695"></polygon>
                    <polygon id="Stroke-294" stroke="#656A76" stroke-width="0.309" points="171 378 236 407.840302 187.271376 443"></polygon>
                    <polygon id="Stroke-295" stroke="#656A76" stroke-width="0.309" points="370.108426 494 371 570 299 529.1612"></polygon>
                    <polygon id="Stroke-296" stroke="#656A76" stroke-width="0.309" points="237.645401 408 239 484 188 442.546609"></polygon>
                    <polygon id="Stroke-297" stroke="#656A76" stroke-width="0.309" points="519.917353 400 513 316 580 355.340375"></polygon>
                    <polygon id="Stroke-298" stroke="#656A76" stroke-width="0.309" points="448 535 449.66619 451 523 488.818053"></polygon>
                    <polygon id="Stroke-299" stroke="#656A76" stroke-width="0.309" points="368.89032 237 293 200.492449 369 159"></polygon>
                    <polygon id="Stroke-300" stroke="#656A76" stroke-width="0.309" points="370.111012 159 442 199.404137 370 237"></polygon>
                    <polygon id="Stroke-301" stroke="#656A76" stroke-width="0.309" points="298.118256 449 301 530 237 484.701939"></polygon>
                    <polygon id="Stroke-302" stroke="#656A76" stroke-width="0.309" points="236 409 171 379.006927 224.816101 334"></polygon>
                    <polygon id="Stroke-303" stroke="#656A76" stroke-width="0.309" points="523 400 522.785401 488 448 449.329516"></polygon>
                    <polygon id="Stroke-304" stroke="#656A76" stroke-width="0.309" points="293 284 218 251.609964 291.712038 201"></polygon>
                    <polygon id="Stroke-305" stroke="#656A76" stroke-width="0.309" points="441.976092 199 505 241.963301 441 277"></polygon>
                    <polygon id="Stroke-306" stroke="#656A76" stroke-width="0.309" points="448 451 446.36713 535 372 495.589027"></polygon>
                    <polygon id="Stroke-307" stroke="#656A76" stroke-width="0.309" points="237.323866 484 236 408 297 449.360285"></polygon>
                    <polygon id="Stroke-308" stroke="#656A76" stroke-width="0.309" points="298.797719 530 296 449 368 493.883683"></polygon>
                    <polygon id="Stroke-309" stroke="#656A76" stroke-width="0.309" points="504.301635 242 516 314 441 276.771396"></polygon>
                    <polygon id="Stroke-310" stroke="#656A76" stroke-width="0.309" points="218 253 293 285.316635 224.029217 334"></polygon>
                    <polygon id="Stroke-311" stroke="#656A76" stroke-width="0.309" points="441.052126 277 370 236.804787 442 199"></polygon>
                    <polygon id="Stroke-312" stroke="#656A76" stroke-width="0.309" points="293 201 369 237.465434 294.258922 284"></polygon>
                    <polygon id="Stroke-313" stroke="#656A76" stroke-width="0.309" points="515.08503 316 522 400 446 359.44974"></polygon>
                    <polygon id="Stroke-314" stroke="#656A76" stroke-width="0.309" points="448.168595 449 446 360 522 400.658472"></polygon>
                    <polygon id="Stroke-315" stroke="#656A76" stroke-width="0.309" points="225 334 300 366.56465 236.467649 409"></polygon>
                    <polygon id="Stroke-316" stroke="#656A76" stroke-width="0.309" points="446.309927 358 441 277 516 314.315997"></polygon>
                    <polygon id="Stroke-317" stroke="#656A76" stroke-width="0.309" points="297 366 296.309736 449 236 407.557241"></polygon>
                    <polygon id="Stroke-318" stroke="#656A76" stroke-width="0.309" points="370.710453 494 370 406 448 448.772033"></polygon>
                    <polygon id="Stroke-319" stroke="#656A76" stroke-width="0.309" points="300 365 225 332.878427 294.95441 284"></polygon>
                    <polygon id="Stroke-320" stroke="#656A76" stroke-width="0.309" points="367.297396 406 368 494 296 449.663925"></polygon>
                    <polygon id="Stroke-321" stroke="#656A76" stroke-width="0.309" points="370 239 442 279.249456 370.173067 322"></polygon>
                    <polygon id="Stroke-322" stroke="#656A76" stroke-width="0.309" points="369 322 293 285.910428 368.828549 239"></polygon>
                    <polygon id="Stroke-323" stroke="#656A76" stroke-width="0.309" points="445.847125 360 448 449 370 406.741068"></polygon>
                    <polygon id="Stroke-324" stroke="#656A76" stroke-width="0.309" points="296 449 296.70098 366 368 406.030805"></polygon>
                    <polygon id="Stroke-325" stroke="#656A76" stroke-width="0.309" points="440.793469 277 446 358 370 319.463326"></polygon>
                    <polygon id="Stroke-326" stroke="#656A76" stroke-width="0.309" points="293 284 369 319.8624 297.933506 365"></polygon>
                    <polygon id="Stroke-327" stroke="#656A76" stroke-width="0.309" points="370.434944 406 370 322 446 359.902849"></polygon>
                    <polygon id="Stroke-328" stroke="#656A76" stroke-width="0.309" points="367.559765 322 368 406 296 366.371814"></polygon>
                </g>
            </g>
        </g>
    </g>
</svg>