<?xml version="1.0" encoding="UTF-8"?>
<svg width="1440px" height="2585px" viewBox="0 0 1440 2585" version="1.1" xmlns="http://www.w3.org/2000/svg" xmlns:xlink="http://www.w3.org/1999/xlink">
    <!-- Generator: Sketch 58 (84663) - https://sketch.com -->
    <title>Fill 2</title>
    <desc>Created with Sketch.</desc>
    <defs>
        <linearGradient x1="50%" y1="91.8893029%" x2="50%" y2="-42.0759664%" id="linearGradient-1">
            <stop stop-color="#0B78E3" offset="0%"></stop>
            <stop stop-color="#6DD5FA" offset="100%"></stop>
        </linearGradient>
    </defs>
    <g id="For-Employers" stroke="none" stroke-width="1" fill="none" fill-rule="evenodd">
        <g id="for-employers" transform="translate(0.000000, -1434.000000)" fill="url(#linearGradient-1)">
            <g id="Group-12" transform="translate(815.000000, 2726.500000) scale(1, -1) translate(-815.000000, -2726.500000) translate(-557.000000, 1434.000000)">
                <path d="M0.281165695,2585 L1.02754371,150.0421 C3.09881765,145.068045 7.99673605,141.571759 13.709975,141.571759 C21.2978518,141.571759 27.4487261,147.736422 27.4481266,155.341684 L27.4481266,155.341684 L27.4481266,240.971326 C27.4481266,248.575989 33.5990008,254.740651 41.1862781,254.740651 C48.0535554,254.740651 53.7434138,249.68986 54.761965,243.092958 L54.761965,243.092958 L54.761965,227.794307 C54.7625645,220.189644 60.9122398,214.024382 68.5001166,214.024981 C76.0873938,214.024981 82.2382681,220.189644 82.2382681,227.794307 L82.2382681,227.794307 L82.2376686,245.648628 C83.9996003,251.216788 89.1966694,255.252025 95.3355537,255.252025 C101.666878,255.252025 106.997635,250.958403 108.58811,245.117471 L108.58811,245.117471 L108.588709,195.359536 C108.588709,187.754273 114.738984,181.59021 122.326261,181.589611 C129.913539,181.589611 136.064413,187.754873 136.064413,195.359536 L136.064413,195.359536 L136.064413,204.992908 C136.69149,212.014856 142.576786,217.519469 149.746211,217.520069 C157.058318,217.520069 163.035337,211.793641 163.459184,204.57086 L163.459184,204.57086 L163.459184,117.12593 C163.459184,109.521268 169.610058,103.356605 177.197336,103.356605 C184.784613,103.356605 190.935487,109.521268 190.934888,117.134323 L190.934888,117.134323 L190.934888,155.791909 C192.558335,161.584282 197.865712,165.831143 204.163464,165.831143 C211.245362,165.831143 217.074904,160.45902 217.819484,153.559369 L217.819484,153.559369 L217.819484,141.815756 C217.819484,134.211093 223.970958,128.04643 231.557635,128.04643 C239.145512,128.04643 245.295787,134.211093 245.295787,141.815756 L245.295787,141.815756 L245.295787,218.77842 C246.918634,224.570194 252.226012,228.817654 258.523164,228.817654 C265.53552,228.817654 271.321299,223.550443 272.157002,216.748512 L272.157002,216.748512 L272.157002,194.929094 C272.157002,187.324432 278.307877,181.159769 285.895154,181.159769 C293.482431,181.159769 299.633306,187.324432 299.633306,194.929094 L299.633306,194.929094 L299.633306,243.384315 C301.534921,248.702483 306.607893,252.508112 312.568726,252.508112 C318.359301,252.508112 323.312973,248.915905 325.334488,243.83454 L325.334488,243.83454 L325.334488,215.420618 C325.334488,207.815955 331.485362,201.651293 339.072639,201.650693 C346.659917,201.651293 352.810192,207.815955 352.810192,215.420618 L352.810192,215.420618 L352.810791,234.915772 C353.828143,241.513874 359.518601,246.564665 366.386478,246.564665 C373.048127,246.565264 378.601299,241.812425 379.857252,235.50628 L379.857252,235.50628 L379.857252,183.578753 C379.857252,175.97409 386.008127,169.808828 393.595404,169.808828 C401.182681,169.808828 407.333555,175.97409 407.334155,183.578154 L407.334155,183.578154 L407.333555,225.202067 C407.953439,232.231809 413.842331,237.744215 421.016553,237.744215 C428.200966,237.744215 434.097652,232.215023 434.702548,225.170893 L434.702548,225.170893 L434.702548,206.977254 C434.702548,199.372592 440.852823,193.207329 448.4401,193.207929 C456.027977,193.207929 462.178851,199.372592 462.178851,206.977254 L462.178851,206.977254 L462.178251,277.053457 C462.798135,284.0826 468.687027,289.594407 475.861249,289.594407 C481.76393,289.594407 486.796736,285.863116 488.740916,280.625281 L488.740916,280.625281 L488.740916,155.341684 C488.740916,147.736422 494.89179,141.571759 502.479067,141.571759 C510.066345,141.571759 516.217219,147.737021 516.217219,155.341684 L516.217219,155.341684 L516.217219,240.971326 C516.216619,248.575989 522.368093,254.740651 529.954771,254.740651 C536.822048,254.740651 542.512506,249.68986 543.531057,243.092958 L543.531057,243.092958 L543.531057,227.794307 C543.531057,220.189644 549.681332,214.024981 557.269209,214.024981 C564.855887,214.024981 571.006761,220.189644 571.006761,227.794307 L571.006761,227.794307 L571.006761,245.648628 C572.768093,251.216788 577.965762,255.252025 584.104047,255.252025 C590.43597,255.252025 595.766128,250.957804 597.357202,245.117471 L597.357202,245.117471 L597.357202,195.359536 C597.357202,187.754873 603.508077,181.59021 611.094754,181.59021 C618.682631,181.59021 624.833505,187.754873 624.832906,195.359536 L624.832906,195.359536 L624.833505,204.992908 C625.460583,212.014856 631.345878,217.520069 638.514704,217.520069 C645.82741,217.520069 651.80383,211.793641 652.228276,204.571459 L652.228276,204.571459 L652.228276,117.12593 C652.228276,109.521268 658.379151,103.356605 665.966428,103.356605 C673.553705,103.356605 679.70398,109.521268 679.70458,117.12593 L679.70458,117.12593 L679.70398,155.791909 C681.326828,161.583682 686.634804,165.831143 692.931957,165.831143 C700.013855,165.831742 705.843997,160.459619 706.588576,153.559369 L706.588576,153.559369 L706.588576,141.815756 C706.588576,134.211093 712.73945,128.04643 720.326728,128.04643 C727.914005,128.04643 734.06428,134.211093 734.06428,141.823549 C734.06428,155.365664 734.055887,193.889561 734.042098,245.553907 C735.926328,250.905048 741.015487,254.740651 746.9997,254.740651 C753.866978,254.740651 759.557435,249.68986 760.575987,243.092958 L760.575987,243.092958 L760.575987,227.794307 C760.575987,220.189644 766.726261,214.024382 774.314138,214.024981 C781.900816,214.024981 788.05169,220.189644 788.05169,227.794307 L788.05169,227.794307 L788.05169,245.648628 C789.813022,251.216788 795.010691,255.252025 801.148976,255.252025 C807.480899,255.252025 812.811057,250.958403 814.402132,245.117471 L814.402132,245.117471 L814.402132,195.359536 C814.402132,187.754273 820.552406,181.59021 828.140283,181.589611 C835.72756,181.589611 841.877835,187.754873 841.877835,195.359536 L841.877835,195.359536 L841.877835,204.992908 C842.504913,212.014856 848.390808,217.519469 855.559634,217.520069 C862.87174,217.520069 868.848759,211.793641 869.273206,204.57086 L869.273206,204.57086 L869.272606,117.12593 C869.272606,109.521268 875.42348,103.356605 883.011357,103.356605 C890.598634,103.356605 896.748909,109.521268 896.748909,117.12593 L896.748909,117.12593 L896.748909,155.791909 C898.371757,161.584282 903.679134,165.831143 909.976886,165.831143 C917.058784,165.831143 922.888326,160.45902 923.633505,153.559369 L923.633505,153.559369 L923.633505,141.815756 C923.633505,134.211093 929.78438,128.04643 937.371657,128.04643 C944.958934,128.04643 951.109808,134.211093 951.109209,141.823549 L951.109209,141.823549 L951.109808,218.77842 C952.732057,224.570194 958.039434,228.817654 964.337186,228.817654 C971.349542,228.817654 977.134721,223.550443 977.970425,216.748512 L977.970425,216.748512 L977.970425,194.929094 C977.970425,187.324432 984.121299,181.159769 991.708576,181.159769 C999.295853,181.159769 1005.44673,187.324432 1005.44673,194.929094 L1005.44673,194.929094 L1005.44673,243.384315 C1007.34834,248.702483 1012.42192,252.508112 1018.38215,252.508112 C1024.17272,252.508112 1029.12639,248.915905 1031.14791,243.83454 L1031.14791,243.83454 L1031.14791,215.420618 C1031.14791,207.815955 1037.29878,201.651293 1044.88606,201.650693 C1052.47334,201.651293 1058.62421,207.815955 1058.62361,215.420618 L1058.62361,215.420618 L1058.62421,215.429011 L1058.62421,234.915772 C1059.64157,241.513874 1065.33202,246.564665 1072.1999,246.564665 C1078.86155,246.565264 1084.41472,241.812425 1085.67127,235.50628 L1085.67127,235.50628 L1085.67067,183.578753 C1085.67127,175.97409 1091.82155,169.808828 1099.40883,169.808828 C1106.9967,169.808828 1113.14758,175.97409 1113.14758,183.578154 L1113.14758,183.578154 L1113.14758,225.202067 C1113.76686,232.231809 1119.65575,237.744215 1126.82998,237.744215 C1134.01499,237.744215 1139.91107,232.215023 1140.51597,225.170893 L1140.51597,225.170893 L1140.51597,206.977254 C1140.51597,199.372592 1146.66684,193.207329 1154.25412,193.207929 C1161.8414,193.207929 1167.99227,199.372592 1167.99227,206.977254 L1167.99227,206.977254 L1167.99167,277.053457 C1168.61216,284.0826 1174.50045,289.594407 1181.67467,289.594407 C1187.57735,289.594407 1192.61076,285.863116 1194.55434,280.625281 L1194.55434,280.625281 L1194.55434,155.341684 C1194.55434,147.736422 1200.70581,141.571759 1208.29249,141.571759 C1215.87977,141.571759 1222.03064,147.737021 1222.03124,155.341684 L1222.03124,155.341684 L1222.03064,240.971326 C1222.03064,248.575989 1228.18152,254.740651 1235.76879,254.740651 C1242.63607,254.740651 1248.32593,249.68986 1249.34448,243.092958 L1249.34448,243.092958 L1249.34448,227.794307 C1249.34448,220.189644 1255.49535,214.024981 1263.08263,214.024981 C1270.66991,214.024981 1276.82078,220.189644 1276.82078,227.794307 L1276.82078,227.794307 L1276.82018,245.648628 C1278.58211,251.216788 1283.77918,255.252025 1289.91807,255.252025 C1296.24939,255.252025 1301.58015,250.957804 1303.17122,245.117471 L1303.17122,245.117471 L1303.17062,195.359536 C1303.17082,192.853977 1303.8386,190.504738 1305.00539,188.480801 L1305.02754,115.0421 C1307.09882,110.068045 1311.99674,106.571759 1317.70998,106.571759 C1325.29785,106.571759 1331.44873,112.736422 1331.44813,120.341684 L1331.44813,120.341684 L1331.44813,205.971326 C1331.44813,207.301541 1331.63633,208.587696 1331.9875,209.804503 C1334.22283,214.373874 1338.90884,217.520069 1344.32873,217.520069 C1351.64083,217.520069 1357.61785,211.793641 1358.0417,204.571459 L1358.0417,204.571459 L1358.04101,156.044436 C1357.58658,154.676548 1357.34055,153.213574 1357.34055,151.693158 L1357.34055,115.919169 C1357.34055,108.301917 1363.516,102.126463 1371.13326,102.126463 C1376.80697,102.126463 1381.68044,105.552618 1383.798,110.448769 C1384.89375,112.426779 1385.518,114.703282 1385.518,117.12593 L1385.518,117.12593 L1385.518,155.791909 C1387.14025,161.583682 1392.44823,165.831143 1398.74538,165.831143 C1405.82788,165.831742 1411.65742,160.459619 1412.4026,153.559369 L1412.4026,153.559369 L1412.4026,141.815756 C1412.4026,134.211093 1418.55347,128.04643 1426.14015,128.04643 C1433.72743,128.04643 1439.8783,134.211093 1439.8783,141.823549 C1439.8783,143.536419 1439.87816,148.65624 1439.87788,156.921806 L1439.87865,158.089791 C1440.00084,158.828186 1440.06441,159.586422 1440.06441,160.359536 L1440.06441,160.359536 L1440.06441,169.992908 C1440.69149,177.014856 1446.57679,182.519469 1453.74621,182.520069 C1461.05832,182.520069 1467.03534,176.793641 1467.45918,169.57086 L1467.45918,169.57086 L1467.45918,82.1259304 C1467.45918,74.5212676 1473.61006,68.3566049 1481.19734,68.3566049 C1488.78461,68.3566049 1494.93549,74.5212676 1494.93489,82.1343234 L1494.93489,82.1343234 L1494.93489,120.791909 C1496.55833,126.584282 1501.86571,130.831143 1508.16346,130.831143 C1515.24536,130.831143 1521.0749,125.45902 1521.81948,118.559369 L1521.81948,118.559369 L1521.81948,106.815756 C1521.81948,99.2110928 1527.97096,93.04643 1535.55764,93.04643 C1543.14551,93.04643 1549.29579,99.2110928 1549.29579,106.815756 L1549.29579,106.815756 L1549.29579,183.77842 C1550.91863,189.570194 1556.22601,193.817654 1562.52316,193.817654 C1569.53552,193.817654 1575.3213,188.550443 1576.157,181.748512 L1576.157,181.748512 L1576.157,159.929094 C1576.157,152.324432 1582.30788,146.159769 1589.89515,146.159769 C1597.48243,146.159769 1603.63331,152.324432 1603.63331,159.929094 L1603.63331,159.929094 L1603.63331,208.384315 C1605.53492,213.702483 1610.60789,217.508112 1616.56873,217.508112 C1622.3593,217.508112 1627.31297,213.915905 1629.33449,208.83454 L1629.33449,208.83454 L1629.33449,180.420618 C1629.33449,172.815955 1635.48536,166.651293 1643.07264,166.650693 C1650.65992,166.651293 1656.81019,172.815955 1656.81019,180.420618 L1656.81019,180.420618 L1656.81079,199.915772 C1657.82814,206.513874 1663.5186,211.564665 1670.38648,211.564665 C1677.04813,211.565264 1682.6013,206.812425 1683.85725,200.50628 L1683.85725,200.50628 L1683.85725,148.578753 C1683.85725,140.97409 1690.00813,134.808828 1697.5954,134.808828 C1705.18268,134.808828 1711.33356,140.97409 1711.33415,148.578154 L1711.33415,148.578154 L1711.33356,190.202067 C1711.95344,197.231809 1717.84233,202.744215 1725.01655,202.744215 C1732.20097,202.744215 1738.09765,197.215023 1738.70255,190.170893 L1738.70255,190.170893 L1738.70255,171.977254 C1738.70255,164.372592 1744.85282,158.207329 1752.4401,158.207929 C1760.02798,158.207929 1766.17885,164.372592 1766.17885,171.977254 L1766.17885,171.977254 L1766.17825,242.053457 C1766.79813,249.0826 1772.68703,254.594407 1779.86125,254.594407 C1785.76393,254.594407 1790.79674,250.863116 1792.74092,245.625281 L1792.74092,245.625281 L1792.74092,120.341684 C1792.74092,112.736422 1798.89179,106.571759 1806.47907,106.571759 C1814.06634,106.571759 1820.21722,112.737021 1820.21722,120.341684 L1820.21722,120.341684 L1820.21722,205.971326 C1820.21662,213.575989 1826.36809,219.740651 1833.95477,219.740651 C1840.82205,219.740651 1846.51251,214.68986 1847.53106,208.092958 L1847.53106,208.092958 L1847.53106,192.794307 C1847.53106,185.189644 1853.68133,179.024981 1861.26921,179.024981 C1868.85589,179.024981 1875.00676,185.189644 1875.00676,192.794307 L1875.00676,192.794307 L1875.00676,210.648628 C1876.76809,216.216788 1881.96576,220.252025 1888.10405,220.252025 C1894.43597,220.252025 1899.76613,215.957804 1901.3572,210.117471 L1901.3572,210.117471 L1901.3572,160.359536 C1901.3572,152.754873 1907.50808,146.59021 1915.09475,146.59021 C1922.68263,146.59021 1928.83351,152.754873 1928.83291,160.359536 L1928.83291,160.359536 L1928.83351,169.992908 C1929.46058,177.014856 1935.34588,182.520069 1942.5147,182.520069 C1949.82741,182.520069 1955.80383,176.793641 1956.22828,169.571459 L1956.22828,169.571459 L1956.22828,82.1259304 C1956.22828,74.5212676 1962.37915,68.3566049 1969.96643,68.3566049 C1977.55371,68.3566049 1983.70398,74.5212676 1983.70458,82.1259304 L1983.70458,82.1259304 L1983.70398,120.791909 C1985.32683,126.583682 1990.6348,130.831143 1996.93196,130.831143 C2004.01386,130.831742 2009.844,125.459619 2010.58858,118.559369 L2010.58858,118.559369 L2010.58858,106.815756 C2010.58858,99.2110928 2016.73945,93.04643 2024.32673,93.04643 C2031.914,93.04643 2038.06428,99.2110928 2038.06428,106.823549 C2038.06428,120.365664 2038.05589,158.889561 2038.0421,210.553907 C2039.92633,215.905048 2045.01549,219.740651 2050.9997,219.740651 C2057.86698,219.740651 2063.55744,214.68986 2064.57599,208.092958 L2064.57599,208.092958 L2064.57599,192.794307 C2064.57599,185.189644 2070.72626,179.024382 2078.31414,179.024981 C2085.90082,179.024981 2092.05169,185.189644 2092.05169,192.794307 L2092.05169,192.794307 L2092.05169,210.648628 C2093.81302,216.216788 2099.01069,220.252025 2105.14898,220.252025 C2111.4809,220.252025 2116.81106,215.958403 2118.40213,210.117471 L2118.40213,210.117471 L2118.40213,160.359536 C2118.40213,152.754273 2124.55241,146.59021 2132.14028,146.589611 C2139.72756,146.589611 2145.87784,152.754873 2145.87784,160.359536 L2145.87784,160.359536 L2145.87784,169.992908 C2146.50491,177.014856 2152.39081,182.519469 2159.55963,182.520069 C2166.87174,182.520069 2172.84876,176.793641 2173.27321,169.57086 L2173.27321,169.57086 L2173.27261,82.1259304 C2173.27261,74.5212676 2179.42348,68.3566049 2187.01136,68.3566049 C2194.59863,68.3566049 2200.74891,74.5212676 2200.74891,82.1259304 L2200.74891,82.1259304 L2200.74891,120.791909 C2202.37176,126.584282 2207.67913,130.831143 2213.97689,130.831143 C2221.05878,130.831143 2226.88833,125.45902 2227.63351,118.559369 L2227.63351,118.559369 L2227.63351,106.815756 C2227.63351,99.2110928 2233.78438,93.04643 2241.37166,93.04643 C2248.95893,93.04643 2255.10981,99.2110928 2255.10921,106.823549 L2255.10921,106.823549 L2255.10981,183.77842 C2256.73206,189.570194 2262.03943,193.817654 2268.33719,193.817654 C2275.34954,193.817654 2281.13472,188.550443 2281.97042,181.748512 L2281.97042,181.748512 L2281.97042,159.929094 C2281.97042,152.324432 2288.1213,146.159769 2295.70858,146.159769 C2303.29585,146.159769 2309.44673,152.324432 2309.44673,159.929094 L2309.44673,159.929094 L2309.44673,208.384315 C2311.34834,213.702483 2316.42192,217.508112 2322.38215,217.508112 C2328.17272,217.508112 2333.12639,213.915905 2335.14791,208.83454 L2335.14791,208.83454 L2335.14791,180.420618 C2335.14791,172.815955 2341.29878,166.651293 2348.88606,166.650693 C2356.47334,166.651293 2362.62421,172.815955 2362.62361,180.420618 L2362.62361,180.420618 L2362.62421,180.429011 L2362.62421,199.915772 C2363.64157,206.513874 2369.33202,211.564665 2376.1999,211.564665 C2382.86155,211.565264 2388.41472,206.812425 2389.67127,200.50628 L2389.67127,200.50628 L2389.67067,148.578753 C2389.67127,140.97409 2395.82155,134.808828 2403.40883,134.808828 C2410.9967,134.808828 2417.14758,140.97409 2417.14758,148.578154 L2417.14758,148.578154 L2417.14758,190.202067 C2417.76686,197.231809 2423.65575,202.744215 2430.82998,202.744215 C2438.01499,202.744215 2443.91107,197.215023 2444.51597,190.170893 L2444.51597,190.170893 L2444.51597,171.977254 C2444.51597,164.372592 2450.66684,158.207329 2458.25412,158.207929 C2465.8414,158.207929 2471.99227,164.372592 2471.99227,171.977254 L2471.99227,171.977254 L2471.99167,242.053457 C2472.61216,249.0826 2478.50045,254.594407 2485.67467,254.594407 C2491.57735,254.594407 2496.61076,250.863116 2498.55434,245.625281 L2498.55434,245.625281 L2498.55434,120.341684 C2498.55434,112.736422 2504.70581,106.571759 2512.29249,106.571759 C2519.87977,106.571759 2526.03064,112.737021 2526.03124,120.341684 L2526.03124,120.341684 L2526.03064,205.971326 C2526.03064,213.575989 2532.18152,219.740651 2539.76879,219.740651 C2546.63607,219.740651 2552.32593,214.68986 2553.34448,208.092958 L2553.34448,208.092958 L2553.34448,192.794307 C2553.34448,185.189644 2559.49535,179.024981 2567.08263,179.024981 C2574.66991,179.024981 2580.82078,185.189644 2580.82078,192.794307 L2580.82078,192.794307 L2580.82018,210.648628 C2582.58211,216.216788 2587.77918,220.252025 2593.91807,220.252025 C2600.24939,220.252025 2605.58015,215.957804 2607.17122,210.117471 L2607.17122,210.117471 L2607.17062,160.359536 C2607.17122,152.754873 2613.3215,146.59021 2620.90878,146.59021 C2628.49605,146.59021 2634.64693,152.754873 2634.64693,160.359536 L2634.64693,160.359536 L2634.64693,169.992908 C2635.274,177.014856 2641.1593,182.520069 2648.32873,182.520069 C2655.64083,182.520069 2661.61785,176.793641 2662.0417,169.571459 L2662.0417,169.571459 L2662.0417,82.1259304 C2662.0417,74.5212676 2668.19257,68.3566049 2675.77985,68.3566049 C2683.36713,68.3566049 2689.518,74.5212676 2689.518,82.1259304 L2689.518,82.1259304 L2689.518,120.791909 C2691.14025,126.583682 2696.44823,130.831143 2702.74538,130.831143 C2709.82788,130.831742 2715.65742,125.459619 2716.4026,118.559369 L2716.4026,118.559369 L2716.4026,106.815756 C2716.4026,99.2110928 2722.55347,93.04643 2730.14015,93.04643 C2737.72743,93.04643 2743.8783,99.2110928 2743.8783,106.823549 C2743.8783,150.23817 2743.78658,2417.36829 2743.74221,2585 L2743.74221,2585 L1439.74221,2585 L1304.28117,2585 L0.281165695,2585 Z M747.281465,376.123899 C740.961532,376.123899 735.634371,380.374357 734.00373,386.173324 L734.00373,386.173324 L734.001332,393.651492 C735.630175,399.454057 740.959134,403.708711 747.282065,403.708711 C754.899317,403.708711 761.074172,397.533857 761.074172,389.916005 C761.074172,382.298753 754.899317,376.123299 747.281465,376.123899 Z M41.4680433,376.123899 C33.850791,376.123899 27.6753372,382.298753 27.6753372,389.916005 C27.6753372,397.533857 33.850791,403.708711 41.4680433,403.708711 C49.0852956,403.708711 55.2607494,397.533857 55.2601499,389.916005 C55.2601499,382.298753 49.0852956,376.123299 41.4680433,376.123899 Z M530.236536,376.123299 C522.619883,376.123899 516.44443,382.298753 516.44443,389.916605 C516.44443,397.533258 522.619883,403.708711 530.236536,403.708711 C537.854388,403.708711 544.028643,397.533258 544.029242,389.916605 C544.029242,382.298753 537.854388,376.123899 530.236536,376.123299 Z M1236.04996,376.123299 C1228.43331,376.123899 1222.25845,382.298753 1222.25785,389.916605 C1222.25845,397.533258 1228.43331,403.708711 1236.04996,403.708711 C1243.66781,403.708711 1249.84266,397.533258 1249.84326,389.916605 C1249.84266,382.298753 1243.66781,376.123899 1236.04996,376.123299 Z M2051.28147,341.123899 C2044.96153,341.123899 2039.63437,345.374357 2038.00373,351.173324 L2038.00373,351.173324 L2038.00133,358.651492 C2039.63017,364.454057 2044.95913,368.708711 2051.28206,368.708711 C2058.89932,368.708711 2065.07417,362.533857 2065.07417,354.916005 C2065.07417,347.298753 2058.89932,341.123299 2051.28147,341.123899 Z M1834.23654,341.123299 C1826.61988,341.123899 1820.44443,347.298753 1820.44443,354.916605 C1820.44443,362.533258 1826.61988,368.708711 1834.23654,368.708711 C1841.85439,368.708711 1848.02864,362.533258 1848.02924,354.916605 C1848.02924,347.298753 1841.85439,341.123899 1834.23654,341.123299 Z M2540.04996,341.123299 C2532.43331,341.123899 2526.25845,347.298753 2526.25785,354.916605 C2526.25845,362.533258 2532.43331,368.708711 2540.04996,368.708711 C2547.66781,368.708711 2553.84266,362.533258 2553.84326,354.916605 C2553.84266,347.298753 2547.66781,341.123899 2540.04996,341.123299 Z M1235.18848,268.503982 C1227.57122,268.503982 1221.39577,274.678836 1221.39577,282.296089 L1221.39577,282.296089 L1221.39577,345.813757 C1221.39577,353.43101 1227.57122,359.606463 1235.18848,359.606463 C1242.80573,359.606463 1248.98058,353.43101 1248.98058,345.813757 L1248.98058,345.813757 L1248.98058,282.296089 C1248.98058,274.678836 1242.80573,268.503982 1235.18848,268.503982 Z M529.374455,268.503982 C521.757202,268.503982 515.581749,274.678836 515.581749,282.296089 L515.581749,282.296089 L515.581749,345.813757 C515.582348,353.43101 521.757202,359.606463 529.374455,359.606463 C536.991707,359.606463 543.167161,353.43101 543.167161,345.813757 L543.167161,345.813757 L543.167161,282.296089 C543.167161,274.678836 536.992306,268.503982 529.374455,268.503982 Z M746.419384,268.503982 C740.981915,268.503982 736.280633,271.651359 734.033705,276.22255 L734.033705,276.22255 L734.013322,351.84593 C736.250658,356.440502 740.965129,359.606463 746.419384,359.606463 C754.037236,359.606463 760.21209,353.43101 760.21209,345.814357 L760.21209,345.814357 L760.21209,282.296089 C760.21209,274.678836 754.037236,268.503982 746.419384,268.503982 Z M40.6059617,268.503982 C32.9881099,268.503982 26.8132556,274.678836 26.8132556,282.296089 L26.8132556,282.296089 L26.8132556,345.813757 C26.8132556,353.43101 32.9881099,359.606463 40.6059617,359.606463 C48.223214,359.606463 54.3986678,353.43101 54.3980683,345.814357 L54.3980683,345.814357 L54.3986678,345.805964 L54.3980683,282.303882 C54.3986678,274.678836 48.223214,268.503982 40.6059617,268.503982 Z M258.268376,317.074906 C250.650525,317.074307 244.47567,323.249761 244.47567,330.867013 C244.47567,338.484865 250.650525,344.659719 258.267777,344.660318 C265.885029,344.659719 272.060483,338.484865 272.060483,330.867013 C272.060483,323.249761 265.885029,317.074906 258.268376,317.074906 Z M964.081799,317.074906 C956.463947,317.074307 950.289092,323.249761 950.289092,330.867013 C950.289092,338.484865 956.463947,344.659719 964.081799,344.660318 C971.698451,344.659719 977.873905,338.484865 977.873905,330.867013 C977.873905,323.249761 971.699051,317.074906 964.081799,317.074906 Z M640.144746,270.741318 C632.527494,270.741318 626.352639,276.916172 626.352639,284.533424 L626.352639,284.533424 L626.352639,320.307413 C626.352639,327.925264 632.527494,334.100119 640.144746,334.100119 C647.762598,334.100119 653.937452,327.924665 653.937452,320.307413 L653.937452,320.307413 L653.937452,284.532825 C653.937452,276.916172 647.762598,270.741318 640.144746,270.741318 Z M151.376253,270.740718 C143.759001,270.740718 137.583547,276.916172 137.583547,284.533424 L137.583547,284.533424 L137.583547,320.307413 C137.583547,327.924665 143.759001,334.100119 151.376253,334.100119 C158.993505,334.100119 165.168959,327.924665 165.16836,320.307413 L165.16836,320.307413 L165.168959,284.533424 C165.168959,276.916172 158.993505,270.740718 151.376253,270.740718 Z M857.189675,270.740718 C849.572423,270.740718 843.397569,276.916172 843.397569,284.533424 L843.397569,284.533424 L843.397569,320.307413 C843.397569,327.924665 849.572423,334.100119 857.190275,334.100119 C864.807527,334.100119 870.982381,327.924665 870.982381,320.307413 L870.982381,320.307413 L870.982381,284.533424 C870.982381,276.916172 864.806928,270.740718 857.189675,270.740718 Z M1345.95877,270.741318 C1338.34152,270.741318 1332.16606,276.916172 1332.16606,284.533424 L1332.16606,284.533424 L1332.16477,316.775615 C1334.38866,321.408049 1339.12363,324.606463 1344.60596,324.606463 C1352.22321,324.606463 1358.39867,318.43101 1358.39807,310.814357 L1358.39807,310.814357 L1358.39867,310.805964 L1358.39867,278.569991 C1356.17452,273.938746 1351.44009,270.741318 1345.95877,270.741318 Z M2050.41938,233.503982 C2044.98192,233.503982 2040.28063,236.651359 2038.03371,241.22255 L2038.03371,241.22255 L2038.01332,316.84593 C2040.25066,321.440502 2044.96513,324.606463 2050.41938,324.606463 C2058.03724,324.606463 2064.21209,318.43101 2064.21209,310.814357 L2064.21209,310.814357 L2064.21209,247.296089 C2064.21209,239.678836 2058.03724,233.503982 2050.41938,233.503982 Z M2539.18848,233.503982 C2531.57122,233.503982 2525.39577,239.678836 2525.39577,247.296089 L2525.39577,247.296089 L2525.39577,310.813757 C2525.39577,318.43101 2531.57122,324.606463 2539.18848,324.606463 C2546.80573,324.606463 2552.98058,318.43101 2552.98058,310.813757 L2552.98058,310.813757 L2552.98058,247.296089 C2552.98058,239.678836 2546.80573,233.503982 2539.18848,233.503982 Z M1833.37445,233.503982 C1825.7572,233.503982 1819.58175,239.678836 1819.58175,247.296089 L1819.58175,247.296089 L1819.58175,310.813757 C1819.58235,318.43101 1825.7572,324.606463 1833.37445,324.606463 C1840.99171,324.606463 1847.16716,318.43101 1847.16716,310.813757 L1847.16716,310.813757 L1847.16716,247.296089 C1847.16716,239.678836 1840.99231,233.503982 1833.37445,233.503982 Z M419.466245,249.190477 C411.848393,249.190477 405.673539,255.365331 405.673539,262.982583 L405.673539,262.982583 L405.673539,298.756572 C405.673539,306.374423 411.848393,312.549278 419.466245,312.549278 C427.083497,312.549278 433.258351,306.373824 433.258351,298.756572 L433.258351,298.756572 L433.258351,262.982583 C433.258351,255.364731 427.083497,249.190477 419.466245,249.190477 Z M1125.27967,249.190477 C1117.66241,249.190477 1111.48696,255.365331 1111.48696,262.982583 L1111.48696,262.982583 L1111.48756,262.990976 L1111.48696,298.756572 C1111.48696,306.374423 1117.66182,312.549278 1125.27967,312.549278 C1132.89692,312.549278 1139.07177,306.373824 1139.07177,298.756572 L1139.07177,298.756572 L1139.07177,262.982583 C1139.07177,255.364731 1132.89692,249.190477 1125.27967,249.190477 Z M2268.0818,282.074906 C2260.46395,282.074307 2254.28909,288.249761 2254.28909,295.867013 C2254.28909,303.484865 2260.46395,309.659719 2268.0818,309.660318 C2275.69845,309.659719 2281.87391,303.484865 2281.87391,295.867013 C2281.87391,288.249761 2275.69905,282.074906 2268.0818,282.074906 Z M1562.26838,282.074906 C1554.65052,282.074307 1548.47567,288.249761 1548.47567,295.867013 C1548.47567,303.484865 1554.65052,309.659719 1562.26778,309.660318 C1569.88503,309.659719 1576.06048,303.484865 1576.06048,295.867013 C1576.06048,288.249761 1569.88503,282.074906 1562.26838,282.074906 Z M258.267777,242.293824 C250.650525,242.293824 244.475071,248.469278 244.475071,256.08653 L244.475071,256.08653 L244.47567,291.860518 C244.475071,299.477771 250.650525,305.652625 258.267777,305.652625 C265.885029,305.652625 272.060483,299.47837 272.060483,291.860518 L272.060483,291.860518 L272.060483,256.08653 C272.060483,248.469278 265.885029,242.293824 258.267777,242.293824 Z M964.081199,242.293824 C956.463947,242.293824 950.289092,248.469278 950.289092,256.08653 L950.289092,256.08653 L950.289092,291.860518 C950.289092,299.477771 956.463947,305.652625 964.081799,305.652625 C971.698451,305.652625 977.874505,299.47837 977.873905,291.860518 L977.873905,291.860518 L977.873905,256.08653 C977.873905,248.469278 971.698451,242.293824 964.081199,242.293824 Z M1944.14475,235.741318 C1936.52749,235.741318 1930.35264,241.916172 1930.35264,249.533424 L1930.35264,249.533424 L1930.35264,285.307413 C1930.35264,292.925264 1936.52749,299.100119 1944.14475,299.100119 C1951.7626,299.100119 1957.93745,292.924665 1957.93745,285.307413 L1957.93745,285.307413 L1957.93745,249.532825 C1957.93745,241.916172 1951.7626,235.741318 1944.14475,235.741318 Z M1455.37625,235.740718 C1447.759,235.740718 1441.58355,241.916172 1441.58355,249.533424 L1441.58355,249.533424 L1441.58355,285.307413 C1441.58355,292.924665 1447.759,299.100119 1455.37625,299.100119 C1462.99351,299.100119 1469.16896,292.924665 1469.16836,285.307413 L1469.16836,285.307413 L1469.16896,249.533424 C1469.16896,241.916172 1462.99351,235.740718 1455.37625,235.740718 Z M2649.95877,235.741318 C2642.34152,235.741318 2636.16606,241.916172 2636.16606,249.533424 L2636.16606,249.533424 L2636.16606,285.307413 C2636.16666,292.925264 2642.34152,299.100119 2649.95877,299.100119 C2657.57602,299.100119 2663.75087,292.924665 2663.75087,285.307413 L2663.75087,285.307413 L2663.75087,249.532825 C2663.75087,241.916172 2657.57602,235.741318 2649.95877,235.741318 Z M2161.18968,235.740718 C2153.57242,235.740718 2147.39757,241.916172 2147.39757,249.533424 L2147.39757,249.533424 L2147.39757,285.307413 C2147.39757,292.924665 2153.57242,299.100119 2161.19027,299.100119 C2168.80753,299.100119 2174.98238,292.924665 2174.98238,285.307413 L2174.98238,285.307413 L2174.98238,249.533424 C2174.98238,241.916172 2168.80693,235.740718 2161.18968,235.740718 Z M366.451224,258.023516 C358.833972,258.023516 352.659117,264.19837 352.658518,271.815622 C352.659117,279.432875 358.833972,285.608328 366.451224,285.608328 C374.068476,285.608328 380.24393,279.433474 380.24393,271.815622 C380.24393,264.19837 374.068476,258.023516 366.451224,258.023516 Z M1072.26525,258.023516 C1064.64739,258.023516 1058.47254,264.19837 1058.47254,271.815622 C1058.47254,279.432875 1064.64799,285.608328 1072.26525,285.608328 C1079.8825,285.608328 1086.05735,279.433474 1086.05735,271.815622 C1086.05735,264.19837 1079.8825,258.023516 1072.26525,258.023516 Z M2429.27967,214.190477 C2421.66241,214.190477 2415.48696,220.365331 2415.48696,227.982583 L2415.48696,227.982583 L2415.48756,227.990976 L2415.48696,263.756572 C2415.48696,271.374423 2421.66182,277.549278 2429.27967,277.549278 C2436.89692,277.549278 2443.07177,271.373824 2443.07177,263.756572 L2443.07177,263.756572 L2443.07177,227.982583 C2443.07177,220.364731 2436.89692,214.190477 2429.27967,214.190477 Z M1723.46624,214.190477 C1715.84839,214.190477 1709.67354,220.365331 1709.67354,227.982583 L1709.67354,227.982583 L1709.67354,263.756572 C1709.67354,271.374423 1715.84839,277.549278 1723.46624,277.549278 C1731.0835,277.549278 1737.25835,271.373824 1737.25835,263.756572 L1737.25835,263.756572 L1737.25835,227.982583 C1737.25835,220.364731 1731.0835,214.190477 1723.46624,214.190477 Z M2268.0812,207.293824 C2260.46395,207.293824 2254.28909,213.469278 2254.28909,221.08653 L2254.28909,221.08653 L2254.28909,256.860518 C2254.28909,264.477771 2260.46395,270.652625 2268.0818,270.652625 C2275.69845,270.652625 2281.8745,264.47837 2281.87391,256.860518 L2281.87391,256.860518 L2281.87391,221.08653 C2281.87391,213.469278 2275.69845,207.293824 2268.0812,207.293824 Z M1562.26778,207.293824 C1554.65052,207.293824 1548.47507,213.469278 1548.47507,221.08653 L1548.47507,221.08653 L1548.47567,256.860518 C1548.47507,264.477771 1554.65052,270.652625 1562.26778,270.652625 C1569.88503,270.652625 1576.06048,264.47837 1576.06048,256.860518 L1576.06048,256.860518 L1576.06048,221.08653 C1576.06048,213.469278 1569.88503,207.293824 1562.26778,207.293824 Z M1344.60596,233.503982 C1339.78863,233.503982 1335.54836,235.973283 1333.08174,239.715124 C1332.49049,241.25111 1332.16666,242.919857 1332.16666,244.664248 C1332.16666,252.2821 1338.34152,258.456955 1345.95877,258.456955 C1351.43988,258.456955 1356.17416,255.25977 1358.39841,250.628363 L1358.39807,247.303882 C1358.39867,239.678836 1352.22321,233.503982 1344.60596,233.503982 Z M857.190275,230.872142 C849.572423,230.872142 843.396969,237.046996 843.397569,244.664248 C843.396969,252.2821 849.572423,258.456955 857.190275,258.456955 C864.807527,258.456955 870.982381,252.2821 870.982981,244.664248 C870.982381,237.046996 864.807527,230.871542 857.190275,230.872142 Z M151.376253,230.872142 C143.759001,230.872142 137.583547,237.046996 137.583547,244.664248 C137.583547,252.2821 143.759001,258.456955 151.376253,258.456955 C158.993505,258.456955 165.168959,252.2821 165.168959,244.664248 C165.168959,237.046996 158.993505,230.871542 151.376253,230.872142 Z M640.145346,230.871542 C632.527494,230.872142 626.352639,237.046996 626.352639,244.664248 C626.352639,252.2821 632.527494,258.456955 640.144746,258.456955 C647.762598,258.456955 653.937452,252.2821 653.937452,244.664248 C653.937452,237.046996 647.762598,230.872142 640.145346,230.871542 Z M2376.26525,223.023516 C2368.64739,223.023516 2362.47254,229.19837 2362.47254,236.815622 C2362.47254,244.432875 2368.64799,250.608328 2376.26525,250.608328 C2383.8825,250.608328 2390.05735,244.433474 2390.05735,236.815622 C2390.05735,229.19837 2383.8825,223.023516 2376.26525,223.023516 Z M1670.45122,223.023516 C1662.83397,223.023516 1656.65912,229.19837 1656.65852,236.815622 C1656.65912,244.432875 1662.83397,250.608328 1670.45122,250.608328 C1678.06848,250.608328 1684.24393,244.433474 1684.24393,236.815622 C1684.24393,229.19837 1678.06848,223.023516 1670.45122,223.023516 Z M2161.19027,195.872142 C2153.57242,195.872142 2147.39697,202.046996 2147.39757,209.664248 C2147.39697,217.2821 2153.57242,223.456955 2161.19027,223.456955 C2168.80753,223.456955 2174.98238,217.2821 2174.98298,209.664248 C2174.98238,202.046996 2168.80753,195.871542 2161.19027,195.872142 Z M1455.37625,195.872142 C1447.759,195.872142 1441.58355,202.046996 1441.58355,209.664248 C1441.58355,217.2821 1447.759,223.456955 1455.37625,223.456955 C1462.99351,223.456955 1469.16896,217.2821 1469.16896,209.664248 C1469.16896,202.046996 1462.99351,195.871542 1455.37625,195.872142 Z M2649.95877,195.871542 C2642.34152,195.872142 2636.16666,202.046996 2636.16666,209.664248 C2636.16666,217.2821 2642.34152,223.456955 2649.95877,223.456955 C2657.57602,223.456955 2663.75087,217.2821 2663.75087,209.664248 C2663.75087,202.046996 2657.57602,195.872142 2649.95877,195.871542 Z M1944.14535,195.871542 C1936.52749,195.872142 1930.35264,202.046996 1930.35264,209.664248 C1930.35264,217.2821 1936.52749,223.456955 1944.14475,223.456955 C1951.7626,223.456955 1957.93745,217.2821 1957.93745,209.664248 C1957.93745,202.046996 1951.7626,195.872142 1944.14535,195.871542 Z M1397.68067,180.012325 C1392.23567,180.012325 1387.5279,183.167013 1385.28527,187.748458 C1385.90095,189.311537 1386.23827,191.013437 1386.23827,192.794307 L1386.23827,192.794307 L1386.23731,201.507317 C1388.71504,205.181119 1392.91537,207.597138 1397.68007,207.597138 C1405.29792,207.597138 1411.47277,201.421684 1411.47337,193.805031 C1411.47277,186.187179 1405.29792,180.012325 1397.68067,180.012325 Z M203.097552,180.012325 C195.480899,180.012325 189.305445,186.187179 189.305445,193.805031 C189.305445,201.422283 195.480899,207.597138 203.098152,207.597138 C210.714804,207.597138 216.890258,201.422283 216.890258,193.805031 C216.890258,186.187179 210.715404,180.012325 203.097552,180.012325 Z M908.911574,180.012325 C901.294321,180.012325 895.118868,186.187179 895.119467,193.805031 C895.118868,201.422283 901.294321,207.597138 908.911574,207.597138 C916.528826,207.597138 922.70428,201.422283 922.70368,193.805031 C922.70368,186.187179 916.528826,180.012325 908.911574,180.012325 Z M691.867244,180.012325 C684.249392,180.012325 678.074538,186.187179 678.074538,193.805031 C678.074538,201.422283 684.249392,207.597138 691.866644,207.597138 C699.484496,207.597138 705.659351,201.421684 705.659351,193.805031 C705.659351,186.187179 699.484496,180.012325 691.867244,180.012325 Z M772.946678,137.126463 C780.56393,137.126463 786.739384,143.301917 786.739384,150.919169 L786.738784,186.692558 C786.739384,194.31041 780.56393,200.485864 772.946678,200.485864 C765.329425,200.485864 759.153972,194.31041 759.153972,186.693158 L759.154571,186.685364 L759.154571,150.919169 C759.153972,143.301917 765.329425,137.126463 772.946678,137.126463 Z M67.1332556,137.126463 C74.7505079,137.126463 80.9253622,143.301917 80.9253622,150.919169 L80.9253622,186.692558 C80.9253622,194.31041 74.7505079,200.485864 67.1332556,200.485864 C59.5160033,200.485864 53.3405495,194.31041 53.3405495,186.693158 L53.3405495,150.919169 C53.3405495,143.301917 59.5160033,137.126463 67.1332556,137.126463 Z M1263.20433,137.126463 C1270.82158,137.126463 1276.99644,143.301917 1276.99644,150.919169 L1276.99644,186.693158 C1276.99644,194.309811 1270.82098,200.485264 1263.20373,200.485264 C1255.58708,200.485264 1249.41162,194.31041 1249.41162,186.693158 L1249.41162,150.919169 C1249.41162,143.301917 1255.58648,137.126463 1263.20433,137.126463 Z M557.390308,137.126463 C565.00756,137.126463 571.183014,143.301917 571.183014,150.919169 L571.183014,186.693158 C571.183014,194.309811 565.00756,200.485264 557.390308,200.485264 C549.773056,200.485264 543.598201,194.31041 543.597602,186.693158 L543.598201,186.685364 L543.598201,150.919169 C543.598201,143.301917 549.773056,137.126463 557.390308,137.126463 Z M340.158934,102.565864 C347.776187,102.565864 353.95164,108.741318 353.95164,116.35857 L353.951041,116.366963 L353.95164,179.867845 L353.95164,179.876238 C353.95164,187.493491 347.776786,193.668345 340.158934,193.668345 C332.541682,193.668345 326.366828,187.493491 326.366828,179.876238 L326.366828,116.359169 C326.366828,108.741318 332.541682,102.565864 340.158934,102.565864 Z M1045.97236,102.565864 C1053.59021,102.565864 1059.76506,108.741318 1059.76506,116.35857 L1059.76506,179.876238 C1059.76506,187.493491 1053.59021,193.668345 1045.97236,193.668345 C1038.3557,193.668345 1032.18085,187.493491 1032.18025,179.876238 L1032.18025,116.359169 C1032.18025,108.741318 1038.3557,102.565864 1045.97236,102.565864 Z M448.774621,121.610194 C456.391873,121.610194 462.567327,127.785048 462.567327,135.4023 L462.567327,171.176888 C462.567327,178.79414 456.391873,184.968995 448.774621,184.968995 C441.157369,184.968995 434.981915,178.79414 434.982515,171.176288 L434.982515,135.410693 L434.981915,135.4023 C434.981915,127.785048 441.157369,121.610194 448.774621,121.610194 Z M1154.58864,121.610194 C1162.2059,121.610194 1168.38075,127.785048 1168.38135,135.4023 L1168.38075,171.176888 C1168.38075,178.79414 1162.2059,184.968995 1154.58864,184.968995 C1146.97139,184.968995 1140.79594,178.79414 1140.79594,171.176288 L1140.79594,135.4023 C1140.79594,127.785048 1146.97139,121.610194 1154.58864,121.610194 Z M1507.09755,145.012325 C1499.4809,145.012325 1493.30545,151.187179 1493.30545,158.805031 C1493.30545,166.422283 1499.4809,172.597138 1507.09815,172.597138 C1514.7148,172.597138 1520.89026,166.422283 1520.89026,158.805031 C1520.89026,151.187179 1514.7154,145.012325 1507.09755,145.012325 Z M2701.68067,145.012325 C2694.06281,145.012325 2687.88796,151.187179 2687.88796,158.805031 C2687.88796,166.422283 2694.06281,172.597138 2701.68007,172.597138 C2709.29792,172.597138 2715.47277,166.421684 2715.47337,158.805031 C2715.47277,151.187179 2709.29792,145.012325 2701.68067,145.012325 Z M1995.86724,145.012325 C1988.24939,145.012325 1982.07454,151.187179 1982.07454,158.805031 C1982.07454,166.422283 1988.24939,172.597138 1995.86664,172.597138 C2003.4845,172.597138 2009.65935,166.421684 2009.65935,158.805031 C2009.65935,151.187179 2003.4845,145.012325 1995.86724,145.012325 Z M2212.91157,145.012325 C2205.29432,145.012325 2199.11887,151.187179 2199.11947,158.805031 C2199.11887,166.422283 2205.29432,172.597138 2212.91157,172.597138 C2220.52883,172.597138 2226.70428,166.422283 2226.70368,158.805031 C2226.70368,151.187179 2220.52883,145.012325 2212.91157,145.012325 Z M2076.94668,102.126463 C2084.56393,102.126463 2090.73938,108.301917 2090.73938,115.919169 L2090.73878,151.692558 C2090.73938,159.31041 2084.56393,165.485864 2076.94668,165.485864 C2069.32943,165.485864 2063.15397,159.31041 2063.15397,151.693158 L2063.15457,151.685364 L2063.15457,115.919169 C2063.15397,108.301917 2069.32943,102.126463 2076.94668,102.126463 Z M2567.20433,102.126463 C2574.82158,102.126463 2580.99644,108.301917 2580.99644,115.919169 L2580.99644,151.693158 C2580.99644,159.309811 2574.82098,165.485264 2567.20373,165.485264 C2559.58708,165.485264 2553.41162,159.31041 2553.41162,151.693158 L2553.41162,115.919169 C2553.41162,108.301917 2559.58648,102.126463 2567.20433,102.126463 Z M1861.39031,102.126463 C1869.00756,102.126463 1875.18301,108.301917 1875.18301,115.919169 L1875.18301,151.693158 C1875.18301,159.309811 1869.00756,165.485264 1861.39031,165.485264 C1853.77306,165.485264 1847.5982,159.31041 1847.5976,151.693158 L1847.5982,151.685364 L1847.5982,115.919169 C1847.5982,108.301917 1853.77306,102.126463 1861.39031,102.126463 Z M285.226112,74.1189696 C292.843364,74.1189696 299.018818,80.2944233 299.018818,87.9116756 L299.018818,151.429344 C299.018218,159.046597 292.843963,165.221451 285.226711,165.221451 C277.608859,165.221451 271.434005,159.046597 271.434005,151.429344 L271.434005,87.9116756 C271.434005,80.2944233 277.608859,74.1189696 285.226112,74.1189696 Z M991.039534,74.1189696 C998.657386,74.1189696 1004.83224,80.2944233 1004.83224,87.9116756 L1004.83224,151.429344 C1004.83224,159.046597 998.657386,165.221451 991.040133,165.221451 C983.422881,165.221451 977.247427,159.046597 977.247427,151.429344 L977.247427,87.9116756 C977.247427,80.2944233 983.422281,74.1189696 991.039534,74.1189696 Z M1644.15893,67.5658638 C1651.77619,67.5658638 1657.95164,73.7413176 1657.95164,81.3585699 L1657.95104,81.3669629 L1657.95164,144.867845 L1657.95164,144.876238 C1657.95164,152.493491 1651.77679,158.668345 1644.15893,158.668345 C1636.54168,158.668345 1630.36683,152.493491 1630.36683,144.876238 L1630.36683,81.3591694 C1630.36683,73.7413176 1636.54168,67.5658638 1644.15893,67.5658638 Z M2349.97236,67.5658638 C2357.59021,67.5658638 2363.76506,73.7413176 2363.76506,81.3585699 L2363.76506,144.876238 C2363.76506,152.493491 2357.59021,158.668345 2349.97236,158.668345 C2342.3557,158.668345 2336.18085,152.493491 2336.18025,144.876238 L2336.18025,81.3591694 C2336.18025,73.7413176 2342.3557,67.5658638 2349.97236,67.5658638 Z M1752.77462,86.6101935 C1760.39187,86.6101935 1766.56733,92.7850478 1766.56733,100.4023 L1766.56733,136.176888 C1766.56733,143.79414 1760.39187,149.968995 1752.77462,149.968995 C1745.15737,149.968995 1738.98192,143.79414 1738.98251,136.176288 L1738.98251,100.410693 L1738.98192,100.4023 C1738.98192,92.7850478 1745.15737,86.6101935 1752.77462,86.6101935 Z M2458.58864,86.6101935 C2466.2059,86.6101935 2472.38075,92.7850478 2472.38135,100.4023 L2472.38075,136.176888 C2472.38075,143.79414 2466.2059,149.968995 2458.58864,149.968995 C2450.97139,149.968995 2444.79594,143.79414 2444.79594,136.176288 L2444.79594,100.4023 C2444.79594,92.7850478 2450.97139,86.6101935 2458.58864,86.6101935 Z M2295.03953,39.1189696 C2302.65739,39.1189696 2308.83224,45.2944233 2308.83224,52.9116756 L2308.83224,116.429344 C2308.83224,124.046597 2302.65739,130.221451 2295.04013,130.221451 C2287.42288,130.221451 2281.24743,124.046597 2281.24743,116.429344 L2281.24743,52.9116756 C2281.24743,45.2944233 2287.42228,39.1189696 2295.03953,39.1189696 Z M1589.22611,39.1189696 C1596.84336,39.1189696 1603.01882,45.2944233 1603.01882,52.9116756 L1603.01882,116.429344 C1603.01822,124.046597 1596.84396,130.221451 1589.22671,130.221451 C1581.60886,130.221451 1575.434,124.046597 1575.434,116.429344 L1575.434,52.9116756 C1575.434,45.2944233 1581.60886,39.1189696 1589.22611,39.1189696 Z M557.390308,99.8435324 C565.00756,99.8441319 571.183014,106.018986 571.183014,113.636238 C571.183014,121.253491 565.00816,127.428945 557.390308,127.428945 C549.773056,127.428945 543.598201,121.253491 543.598201,113.636238 C543.598201,106.018986 549.773056,99.8441319 557.390308,99.8435324 Z M67.1326561,99.8441319 C74.7505079,99.8441319 80.9253622,106.018986 80.9253622,113.636238 C80.9253622,121.253491 74.7505079,127.428945 67.1332556,127.428945 C59.5160033,127.428945 53.3405495,121.253491 53.3405495,113.636238 C53.3405495,106.018986 59.5160033,99.8441319 67.1326561,99.8441319 Z M772.946678,99.8441319 C780.56393,99.8441319 786.739384,106.018986 786.739384,113.636238 C786.739384,121.253491 780.56453,127.428945 772.946678,127.428945 C765.329425,127.428945 759.153972,121.253491 759.154571,113.636238 C759.153972,106.018986 765.329425,99.8441319 772.946678,99.8441319 Z M1263.20373,99.8435324 C1270.82158,99.8441319 1276.99644,106.018986 1276.99644,113.636238 C1276.99644,121.253491 1270.82158,127.428945 1263.20373,127.428945 C1255.58708,127.428945 1249.41162,121.253491 1249.41162,113.636238 C1249.41162,106.018986 1255.58708,99.8441319 1263.20373,99.8435324 Z M340.158934,65.3626665 C347.776786,65.363266 353.95164,71.5375208 353.95164,79.1553726 C353.95164,86.7720253 347.776786,92.9474791 340.158934,92.9474791 C332.542281,92.9474791 326.366828,86.7720253 326.366828,79.1553726 C326.366828,71.5375208 332.541682,65.363266 340.158934,65.3626665 Z M1045.97236,65.3626665 C1053.59021,65.363266 1059.76506,71.5375208 1059.76506,79.1553726 C1059.76506,86.7720253 1053.59021,92.9474791 1045.97236,92.9474791 C1038.3557,92.9474791 1032.18025,86.7720253 1032.18025,79.1553726 C1032.18025,71.5375208 1038.3551,65.363266 1045.97236,65.3626665 Z M664.712873,64.9286282 C672.330125,64.9286282 678.505579,71.104082 678.505579,78.7213343 C678.505579,86.3385865 672.330724,92.5140403 664.712873,92.5140403 C657.09562,92.5140403 650.920167,86.3385865 650.920167,78.7213343 C650.920167,71.104082 657.09562,64.9286282 664.712873,64.9286282 Z M174.455221,64.9286282 C182.073072,64.9292277 188.248526,71.104082 188.248526,78.7213343 C188.248526,86.3385865 182.073072,92.5140403 174.45582,92.5140403 C166.837968,92.5140403 160.663114,86.3385865 160.663114,78.7219338 C160.663114,71.104082 166.837968,64.9292277 174.455221,64.9286282 Z M880.269242,64.9286282 C887.886495,64.9292277 894.061948,71.104082 894.061948,78.7213343 C894.061948,86.3385865 887.886495,92.5140403 880.269242,92.5140403 C872.65199,92.5140403 866.477136,86.3385865 866.476536,78.7219338 C866.477136,71.104082 872.65199,64.9292277 880.269242,64.9286282 Z M1371.13266,64.8441319 C1378.75051,64.8441319 1384.92536,71.0189862 1384.92536,78.6362385 C1384.92536,85.6966348 1379.62033,91.5183314 1372.77885,92.3317839 C1372.04595,92.4514541 1371.29373,92.5140403 1370.52689,92.5140403 C1362.90904,92.5140403 1356.73359,86.3385865 1356.73359,78.7213343 C1356.73414,71.653706 1362.05009,65.8273164 1368.90221,65.0233049 C1369.62833,64.905502 1370.37333,64.8441319 1371.13266,64.8441319 Z M2567.20373,64.8435324 C2574.82158,64.8441319 2580.99644,71.0189862 2580.99644,78.6362385 C2580.99644,86.2534908 2574.82158,92.4289446 2567.20373,92.4289446 C2559.58708,92.4289446 2553.41162,86.2534908 2553.41162,78.6362385 C2553.41162,71.0189862 2559.58708,64.8441319 2567.20373,64.8435324 Z M2076.94668,64.8441319 C2084.56393,64.8441319 2090.73938,71.0189862 2090.73938,78.6362385 C2090.73938,86.2534908 2084.56453,92.4289446 2076.94668,92.4289446 C2069.32943,92.4289446 2063.15397,86.2534908 2063.15457,78.6362385 C2063.15397,71.0189862 2069.32943,64.8441319 2076.94668,64.8441319 Z M1861.39031,64.8435324 C1869.00756,64.8441319 1875.18301,71.0189862 1875.18301,78.6362385 C1875.18301,86.2534908 1869.00816,92.4289446 1861.39031,92.4289446 C1853.77306,92.4289446 1847.5982,86.2534908 1847.5982,78.6362385 C1847.5982,71.0189862 1853.77306,64.8441319 1861.39031,64.8435324 Z M284.36403,35.191609 C291.981882,35.191609 298.156736,41.3670628 298.156736,48.9843151 C298.156736,56.6009679 291.981882,62.7764217 284.36403,62.7764217 C276.746778,62.7764217 270.571324,56.6015674 270.571923,48.9837156 C270.571324,41.3670628 276.746778,35.191609 284.36403,35.191609 Z M990.177452,35.191609 C997.795304,35.191609 1003.97076,41.3670628 1003.97076,48.9843151 C1003.97076,56.6009679 997.795304,62.7764217 990.178052,62.7764217 C982.5602,62.7764217 976.385346,56.6015674 976.385346,48.9837156 C976.385346,41.3670628 982.560799,35.191609 990.177452,35.191609 Z M2349.97236,30.3626665 C2357.59021,30.363266 2363.76506,36.5375208 2363.76506,44.1553726 C2363.76506,51.7720253 2357.59021,57.9474791 2349.97236,57.9474791 C2342.3557,57.9474791 2336.18025,51.7720253 2336.18025,44.1553726 C2336.18025,36.5375208 2342.3551,30.363266 2349.97236,30.3626665 Z M1644.15893,30.3626665 C1651.77679,30.363266 1657.95164,36.5375208 1657.95164,44.1553726 C1657.95164,51.7720253 1651.77679,57.9474791 1644.15893,57.9474791 C1636.54228,57.9474791 1630.36683,51.7720253 1630.36683,44.1553726 C1630.36683,36.5375208 1636.54168,30.363266 1644.15893,30.3626665 Z M2674.52689,29.9286282 C2682.14415,29.9286282 2688.319,36.104082 2688.319,43.7213343 C2688.319,51.3385865 2682.14415,57.5140403 2674.52689,57.5140403 C2666.90904,57.5140403 2660.73359,51.3385865 2660.73359,43.7213343 C2660.73419,36.104082 2666.90904,29.9286282 2674.52689,29.9286282 Z M2184.26924,29.9286282 C2191.88649,29.9292277 2198.06195,36.104082 2198.06195,43.7213343 C2198.06195,51.3385865 2191.88649,57.5140403 2184.26924,57.5140403 C2176.65199,57.5140403 2170.47714,51.3385865 2170.47654,43.7219338 C2170.47714,36.104082 2176.65199,29.9292277 2184.26924,29.9286282 Z M1478.45522,29.9286282 C1486.07307,29.9292277 1492.24853,36.104082 1492.24853,43.7213343 C1492.24853,51.3385865 1486.07307,57.5140403 1478.45582,57.5140403 C1470.83797,57.5140403 1464.66311,51.3385865 1464.66311,43.7219338 C1464.66311,36.104082 1470.83797,29.9292277 1478.45522,29.9286282 Z M1968.71287,29.9286282 C1976.33012,29.9286282 1982.50558,36.104082 1982.50558,43.7213343 C1982.50558,51.3385865 1976.33072,57.5140403 1968.71287,57.5140403 C1961.09562,57.5140403 1954.92017,51.3385865 1954.92017,43.7213343 C1954.92017,36.104082 1961.09562,29.9286282 1968.71287,29.9286282 Z M2294.17745,0.191609022 C2301.7953,0.191609022 2307.97076,6.36706281 2307.97076,13.9843151 C2307.97076,21.6009679 2301.7953,27.7764217 2294.17805,27.7764217 C2286.5602,27.7764217 2280.38535,21.6015674 2280.38535,13.9837156 C2280.38535,6.36706281 2286.5608,0.191609022 2294.17745,0.191609022 Z M1588.36403,0.191609022 C1595.98188,0.191609022 1602.15674,6.36706281 1602.15674,13.9843151 C1602.15674,21.6009679 1595.98188,27.7764217 1588.36403,27.7764217 C1580.74678,27.7764217 1574.57132,21.6015674 1574.57192,13.9837156 C1574.57132,6.36706281 1580.74678,0.191609022 1588.36403,0.191609022 Z" id="Combined-Shape"></path>
            </g>
        </g>
    </g>
</svg>