<svg xmlns="http://www.w3.org/2000/svg" width="34" height="46"><g fill="none"><g><path stroke="url(#a)" stroke-width="1.8" d="M19.75 6.97h-7.13V0h-5.5v6.97H0v5.37h7.13v6.97h5.5v-6.96h7.12V6.97z" stroke-linecap="round" stroke-linejoin="round" transform="translate(6.934 18.054)"/><g><path stroke="#2D2C6F" stroke-width="1.8" d="M23.85 12.52C20.22 8.6 16.8 5.24 16.8 1.82 16.8 9.1 1.3 16.13 1.3 29c0 8.38 6.95 15.18 15.53 15.18 8.58 0 15.53-6.8 15.53-15.18 0-3.33-1.03-6.26-2.57-8.9" stroke-linecap="round" stroke-linejoin="round"/><path stroke="#2D2C6F" stroke-width="1.8" d="M28.13 20.36c2.63 0 4.77-2.1 4.77-4.67 0-3.95-4.77-9.42-4.77-11.66 0 2.24-4.77 7.7-4.77 11.65 0 2.57 2.14 4.66 4.77 4.66z" stroke-linecap="round" stroke-linejoin="round"/></g></g></g><defs><linearGradient id="a" x2="1" gradientUnits="userSpaceOnUse" gradientTransform="matrix(19.75 -19.31 19.75 19.31 0 19.31)"><stop stop-color="#2D2C6F"/><stop offset="1" stop-color="#46C4E0"/></linearGradient></defs></svg>