<svg xmlns="http://www.w3.org/2000/svg" width="52" height="43"><g fill="none"><g><g><path stroke="#000" stroke-width="1.8" d="M46.6 42.08V26.54" stroke-linejoin="round"/><path stroke="#000" stroke-width="1.8" d="M41.13 42.08V31.74" stroke-linejoin="round"/><path stroke="#000" stroke-width="1.8" d="M35.6 42.08v-5.6" stroke-linejoin="round"/><path stroke="#000" stroke-width="1.8" d="M18.52 42.08v-5.6" stroke-linejoin="round"/><path stroke="#000" stroke-width="1.8" d="M12.77 42.08v-2.8" stroke-linejoin="round"/></g><path stroke="#2D2C6F" stroke-width="1.8" d="M13.62 22.1v1.87" stroke-linejoin="round"/><path stroke="#2D2C6F" stroke-width="1.8" d="M13.62 26.54v1.86" stroke-linejoin="round"/><path stroke="#2D2C6F" stroke-width="1.8" d="M28.97 13.2v1.85" stroke-linejoin="round"/><path stroke="#2D2C6F" stroke-width="1.8" d="M28.97 17.62v1.87" stroke-linejoin="round"/><path stroke="#2D2C6F" stroke-width="1.8" d="M28.97 22.06v1.86" stroke-linejoin="round"/><g><path stroke="#2D2C6F" stroke-width="1.8" d="M18.52 9.44c0 2.73-2.2 4.93-4.9 4.93s-4.9-2.2-4.9-4.93c0-2.72 2.2-4.93 4.9-4.93s4.9 2.22 4.9 4.94z" stroke-linecap="round" stroke-linejoin="round"/><path stroke="#2D2C6F" stroke-width="1.8" d="M1.3 42.08V26.66c0-4.5 3.6-8.12 8.07-8.12h8.5c4.46 0 8.08 3.63 8.08 8.12v4.65" stroke-linejoin="round"/><path stroke="#2D2C6F" stroke-width="1.8" d="M32.12 4.4c0 1.72-1.4 3.12-3.15 3.12-1.74 0-3.15-1.4-3.15-3.12 0-1.72 1.4-3.1 3.15-3.1 1.74 0 3.15 1.38 3.15 3.1z" stroke-linecap="round" stroke-linejoin="round"/><path stroke="#2D2C6F" stroke-width="1.8" d="M21.05 15.84c0-2.84 2.33-5.13 5.2-5.13h5.45c2.87 0 5.2 2.3 5.2 5.14v6.88" stroke-linejoin="round"/><path stroke="url(#a)" stroke-width="1.8" d="M45.4 0L21.7 23.85v.07l-8.13-8.17L0 26.78" stroke-linejoin="round" transform="translate(5.287 14.449)"/><path stroke="url(#b)" stroke-width="1.8" d="M0 0h10.75v10.8" stroke-linejoin="round" transform="translate(39.954 14.449)"/></g></g></g><defs><linearGradient id="a" x2="1" gradientUnits="userSpaceOnUse" gradientTransform="matrix(45.414 -26.776 45.414 26.776 0 26.776)"><stop stop-color="#2D2C6F"/><stop offset="1" stop-color="#46C4E0"/></linearGradient><linearGradient id="b" x2="1" gradientUnits="userSpaceOnUse" gradientTransform="matrix(10.748 -10.801 10.748 10.801 0 10.801)"><stop stop-color="#2D2C6F"/><stop offset="1" stop-color="#46C4E0"/></linearGradient></defs></svg>