<svg xmlns="http://www.w3.org/2000/svg" width="26" height="35" xmlns:xlink="http://www.w3.org/1999/xlink"><title>Page 1</title><desc>Created using Figma</desc><g><g><use fill="#fff" xlink:href="#a" transform="translate(-5365 983) translate(5370.02 -956.976)"/><use fill="#00BFD6" xlink:href="#b" transform="translate(-5365 983) translate(5373.35 -972.749)"/><use fill="#002855" xlink:href="#c" transform="translate(-5365 983) translate(5374.13 -983)"/><use fill="#fff" xlink:href="#d" transform="translate(-5365 983) translate(5375.79 -981.344)"/><g transform="translate(-5365 983)"><mask id="g"><use fill="#fff" xlink:href="#e" transform="translate(5365 -973.999)"/></mask><use fill="#002855" xlink:href="#f" transform="translate(5365 -973.999)" mask="url(#g)"/></g><use fill="#fff" xlink:href="#h" transform="translate(-5365 983) translate(5366.66 -959.304)"/></g></g><defs><path id="a" fill-rule="evenodd" d="M15.93 2.2c0 1.23-3.56 2.22-7.96 2.22S0 3.42 0 2.22C0 .98 3.57 0 7.97 0s7.96 1 7.96 2.2z"/><path id="b" fill-rule="evenodd" d="M8.86 0H0v9.88l2.2-.02v7.98h4.37V9.9h2.3V0z"/><path id="c" fill-rule="evenodd" d="M3.7 0C1.64 0 0 1.65 0 3.7c0 2.03 1.65 3.7 3.7 3.7 2.03 0 3.7-1.67 3.7-3.7C7.4 1.64 5.72 0 3.7 0z"/><path id="d" fill-rule="evenodd" d="M2.04 4.08C.9 4.08 0 3.16 0 2.04 0 .9.9 0 2.04 0c1.12 0 2.03.9 2.03 2.04 0 1.12-.9 2.04-2.03 2.04z"/><path id="e" fill-rule="evenodd" d="M0 0h25.72v25.8H0V0z"/><path id="f" fill-rule="evenodd" d="M8.9 9.24V3.18c0-.9.72-1.6 1.6-1.6h4.65c.88 0 1.6.7 1.6 1.6v6.06c0 .9-.72 1.6-1.6 1.6h-.72v8.25h1.58v-1.6c2.8.4 4.3 1.28 4.3 1.7 0 .56-2.6 1.93-7.44 1.93-4.83 0-7.44-1.37-7.44-1.93 0-.42 1.46-1.3 4.22-1.7v1.6h1.57l.02-8.25h-.72c-.88 0-1.6-.72-1.6-1.6zm7.1 3.8v-.74c1.34-.38 2.32-1.6 2.32-3.06V3.18C18.32 1.43 16.9 0 15.15 0H10.5C8.75 0 7.32 1.43 7.32 3.18v6.06c0 1.45 1 2.68 2.32 3.06v.72C4.68 13.56 0 15.4 0 19.32c0 4.06 4.8 6.47 12.86 6.47 8.05 0 12.86-2.42 12.86-6.48 0-4.1-5.2-5.78-9.71-6.28z"/><path id="h" fill-rule="evenodd" d="M11.2 9.44C6.05 9.44 0 8.18 0 4.64 0 1.97 3.73.48 8 0v1.13c-3.2.43-5.9 1.52-5.9 3.37 0 2.47 4.72 3.6 9.1 3.6 4.4 0 9.1-1.13 9.1-3.6 0-1.87-2.72-2.96-5.95-3.38V.02c3.9.48 8.06 1.88 8.06 4.6 0 3.56-6.03 4.82-11.2 4.82z"/></defs></svg>