<?xml version="1.0" encoding="UTF-8"?>
<svg width="298px" height="387px" viewBox="0 0 298 387" version="1.1" xmlns="http://www.w3.org/2000/svg" xmlns:xlink="http://www.w3.org/1999/xlink">
    <title>Fill 2</title>
    <g id="Welldoc-Website" stroke="none" stroke-width="1" fill="none" fill-rule="evenodd">
        <g id="New-Home-Page" transform="translate(-571.000000, -5793.000000)" fill="#FFFFFF">
            <g id="Group-34" transform="translate(115.000000, 5725.000000)">
                <path d="M522.893025,157.400643 C522.983025,160.171643 520.154025,162.351643 518.527025,161.767643 C509.021025,149.424643 499.934025,137.105643 488.435025,127.094643 C487.063025,125.697643 490.717025,121.175643 492.826025,121.260643 C493.523025,121.289643 494.150025,121.672643 494.741025,122.245643 C505.102025,132.294643 514.790025,145.518643 522.893025,157.400643 Z M550.336025,87.0476434 C558.011025,100.086643 566.555025,115.954643 569.337025,131.193643 C570.900025,139.756643 565.780025,133.219643 563.849025,129.653643 C559.204025,121.084643 548.002025,98.1766434 543.882025,91.6886434 C544.173025,88.6906434 545.544025,88.0686434 550.336025,87.0476434 Z M623.356025,73.3836434 C621.456025,88.9946434 624.782025,104.376643 622.611025,120.810643 C622.560025,120.848643 615.788025,124.865643 615.113025,118.545643 C610.809025,115.286643 612.090025,78.8886434 613.662025,71.8856434 C613.451025,68.8766434 624.471025,64.2276434 623.356025,73.3836434 Z M490.369025,195.652643 C490.085025,196.534643 489.944025,198.021643 489.426025,199.185643 C485.379025,198.921643 458.985025,183.761643 458.576025,183.432643 C459.874025,181.543643 462.965025,178.099643 465.571025,177.325643 C468.247025,176.528643 486.684025,195.147643 490.369025,195.652643 Z M674.953025,175.911643 C695.836025,197.111643 709.117025,226.106643 698.497025,255.802643 C695.998025,262.793643 692.343025,269.581643 687.740025,276.226643 C683.259025,282.694643 678.691025,289.017643 674.342025,295.425643 C659.310025,317.577643 650.827025,331.888643 649.526025,362.114643 C652.323025,363.808643 655.248025,362.935643 655.511025,368.355643 C654.545025,373.097643 648.086025,369.370643 647.337025,371.526643 C645.618025,376.478643 644.607025,388.421643 643.852025,393.644643 C648.544025,395.507643 652.989025,394.245643 653.237025,400.874643 C654.749025,409.524643 644.732025,404.831643 644.228025,407.905643 C643.415025,409.661643 642.284025,421.880643 643.264025,421.640643 C645.195025,421.169643 650.574025,421.376643 650.951025,426.462643 C651.138025,428.989643 650.784025,431.151643 643.733025,431.882643 C637.373025,432.538643 626.443025,431.788643 623.384025,431.187643 C619.981025,447.153643 619.578025,453.927643 602.721025,454.04564 C587.592025,454.149643 582.697025,445.956643 581.240025,431.222643 C579.084025,430.896643 556.593025,431.187643 554.719025,428.437643 C553.272025,424.165643 551.474025,422.958643 556.627025,420.999643 C558.120025,420.431643 559.632025,420.151643 560.790025,419.985643 C561.706025,416.952643 560.335025,410.474643 559.501025,405.712643 C548.477025,405.608643 544.809025,389.009643 557.508025,386.444643 C557.916025,386.362643 557.514025,377.050643 557.319025,375.524643 C556.567025,372.530643 548.436025,377.978643 546.444025,370.519643 C545.412025,366.657643 546.224025,361.233643 549.419025,360.659643 L554.841025,360.548643 C560.193025,329.985643 531.174025,303.190643 517.719025,277.595643 C506.553025,256.360643 505.886025,231.207643 514.219025,209.682643 C523.643025,185.338643 546.967025,166.837643 570.632025,157.230643 C605.294025,143.159643 645.822025,146.340643 674.953025,175.911643 Z M539.317025,179.735643 C541.750025,181.085643 533.203025,186.269643 532.742025,186.795643 C533.314025,186.459643 538.442025,179.994643 539.317025,179.735643 Z M695.632025,98.3676434 C681.076025,107.970643 675.683025,129.000643 663.551025,133.286643 C660.022025,134.532643 658.650025,133.122643 657.624025,130.882643 C655.928025,127.178643 656.658025,128.039643 659.446025,125.490643 C667.432025,118.181643 681.977025,101.338643 687.152025,95.1606434 C693.061025,89.7026434 695.842025,94.5106434 695.632025,98.3676434 Z M691.823025,222.728643 C692.076025,227.263643 693.242025,232.960643 690.960025,240.884643 C688.486025,214.854643 683.609025,189.980643 660.831025,171.789643 C636.828025,154.573643 605.544025,158.597643 579.535025,162.856643 L579.884025,162.139643 C586.934025,158.668643 594.101025,157.199643 601.325025,156.858643 C637.653025,155.155643 660.659025,162.304643 677.936025,187.758643 C684.061025,196.782643 691.227025,212.030643 691.823025,222.728643 Z M545.034025,183.672643 L544.336025,182.498643 C550.446025,176.884643 558.356025,173.149643 566.934025,170.953643 C559.450025,174.366643 552.137025,178.552643 545.034025,183.672643 Z M485.382025,241.640643 C487.381025,243.291643 484.599025,246.283643 483.486025,245.837643 C476.835025,243.559643 464.926025,243.903643 456.858025,242.498643 C454.462025,240.951643 457.593025,236.287643 460.027025,235.624643 C463.262025,234.744643 480.766025,241.207643 485.382025,241.640643 Z M565.647025,174.622643 C567.504025,172.006643 573.614025,169.002643 576.865025,168.795643 C574.818025,169.636643 567.396025,173.038643 565.647025,174.622643 Z M578.044025,168.615643 C581.849025,166.808643 585.890025,165.950643 590.066025,165.629643 C586.055025,165.834643 581.556025,165.816643 578.044025,168.615643 Z M643.181025,157.514643 L607.764025,151.896643 C619.483025,150.740643 631.828025,154.262643 643.181025,157.514643 Z M665.140025,188.423643 C680.990025,204.073643 688.822025,226.580643 680.742025,248.015643 C678.983025,252.679643 676.784025,256.972643 674.305025,261.031643 C663.153025,279.294643 646.314025,292.815643 638.229025,314.103643 C632.416025,329.407643 630.076025,346.272643 631.948025,361.925643 L617.411025,361.233643 L622.740025,297.329643 L614.086025,296.655643 C615.984025,282.702643 621.624025,266.921643 622.822025,253.400643 C626.203025,254.018643 633.260025,243.018643 636.595025,239.739643 C636.357025,245.710643 637.586025,246.611643 636.688025,255.612643 C638.921025,256.352643 641.739025,255.464643 643.346025,254.263643 C645.831025,244.662643 648.003025,234.702643 650.393025,225.221643 C651.291025,221.646643 648.482025,221.958643 646.077025,223.463643 C639.466025,227.603643 636.366025,236.021643 629.951025,239.796643 C631.603025,235.596643 633.125025,226.229643 633.918025,219.838643 C634.501025,215.138643 632.380025,216.982643 628.095025,216.998643 L609.869025,239.284643 C607.866025,235.880643 604.987025,218.909643 606.127025,215.027643 C604.151025,215.162643 602.297025,214.197643 600.582025,215.207643 C600.578025,215.273643 588.981025,234.199643 586.923025,236.087643 C584.981025,234.585643 570.391025,222.573643 569.455025,222.992643 C567.131025,223.846643 563.821025,224.767643 561.004025,225.652643 C559.743025,228.250643 564.024025,247.859643 559.065025,252.482643 C552.746025,250.036643 551.774025,239.727643 544.768025,237.426643 C543.296025,237.043643 541.747025,240.384643 541.766025,241.855643 C548.244025,248.865643 551.084025,261.978643 559.533025,267.188643 C562.239025,268.855643 563.096025,269.013643 564.559025,265.792643 C566.577025,261.350643 566.716025,253.632643 568.406025,252.636643 L582.703025,299.198643 L577.394025,298.470643 C577.022025,304.542643 581.909025,359.624643 584.307025,360.419643 L570.809025,360.288643 C569.190025,339.550643 564.947025,322.954643 552.471025,306.093643 C546.675025,298.259643 540.220025,291.036643 534.519025,281.993643 C529.091025,273.388643 525.355025,264.007643 523.896025,250.807643 C522.336025,236.687643 526.537025,221.589643 534.105025,208.593643 C541.020025,196.721643 550.362025,187.560643 561.227025,180.566643 C573.416025,172.719643 583.751025,168.423643 595.184025,166.759643 C619.645025,163.202643 647.402025,170.910643 665.140025,188.423643 Z M527.502025,200.156643 C522.549025,209.254643 517.351025,224.628643 515.014025,235.247643 C513.576025,221.453643 520.500025,208.963643 527.502025,200.156643 Z M645.766025,170.634643 C638.137025,167.086643 630.059025,164.896643 621.833025,163.141643 C631.576025,164.007643 641.712025,163.575643 645.766025,170.634643 Z M667.569025,183.238643 C662.523025,178.533643 656.145025,174.482643 650.704025,170.297643 C656.830025,171.881643 662.075025,177.416643 667.569025,183.238643 Z M499.678025,279.466643 C480.959025,295.511643 488.761025,291.062643 480.996025,297.722643 C479.739025,298.206643 477.533025,293.784643 477.554862,291.200643 C486.996025,282.226643 492.801025,279.253643 498.147025,277.118643 C499.330025,276.644643 498.779025,277.552643 499.678025,279.466643 Z M585.163025,242.262643 L584.539025,243.097643 C581.250025,241.434643 574.297025,233.951643 573.566025,230.526643 C577.047025,232.076643 582.411025,239.770643 585.163025,242.262643 Z M678.351025,199.619643 C675.709025,194.860643 672.522025,189.827643 668.130025,184.191643 C674.313025,188.112643 675.899025,192.786643 678.351025,199.619643 Z M737.058025,143.909643 C738.493025,144.605643 739.718025,146.945643 740.344025,148.885643 C740.321025,148.918643 706.959025,169.915643 704.815025,170.805643 C699.078025,173.185643 696.412025,170.914643 701.280025,167.188643 C711.278025,159.532643 723.107025,148.010643 737.058025,143.909643 Z M591.450025,251.164643 C596.621025,245.977643 596.844025,242.343643 599.530025,240.486643 C599.992025,244.325643 601.732025,246.413643 602.070025,250.039643 C605.742025,256.076643 611.285025,251.809643 616.386025,247.622643 L607.028025,296.442643 L591.143025,297.825643 C589.674025,296.636643 576.549025,246.994643 574.845025,242.668643 C576.358025,242.565643 581.627025,249.023643 585.544025,251.970643 C588.551025,254.231643 589.154025,253.466643 591.450025,251.164643 Z M617.996025,239.734643 L616.144025,240.512643 C615.952025,240.623643 621.499025,230.622643 624.686025,226.434643 C623.373025,229.205643 618.389025,238.220643 617.996025,239.734643 Z M524.832025,274.882643 C525.023025,274.770643 525.782025,274.372643 525.974025,274.261643 C525.287025,276.886643 544.029025,301.579643 543.729025,301.067643 C540.378025,297.821643 524.009025,278.425643 524.832025,274.882643 Z M746.999025,201.227643 C752.591025,201.542643 754.527025,207.638643 752.782025,208.871643 C752.277025,210.196643 719.326025,212.389643 718.355025,211.919643 L717.209025,208.225643 C724.738025,206.179643 741.544025,204.198643 746.999025,201.227643 Z M681.704025,275.360643 C684.171025,272.390643 697.799025,242.905643 696.324025,239.526643 C697.304025,253.850643 688.439025,264.975643 681.704025,275.360643 Z M609.129025,308.308643 C608.634025,325.823643 608.090025,346.524643 606.286025,361.101643 C601.011025,360.864643 596.567025,361.169643 591.751025,360.407643 C589.299025,344.894643 591.128025,326.606643 590.966025,309.747643 C595.061025,309.739643 600.124025,307.907643 609.129025,308.308643 Z M680.110025,266.536643 C678.523025,272.099643 676.133025,275.894643 673.480025,279.364643 C660.605025,296.208643 648.169025,313.206643 642.533025,334.153643 C640.099025,343.206643 639.189025,353.073643 640.667025,362.327643 C639.941025,362.401643 638.213025,362.743643 638.137025,362.284643 C636.239025,351.999643 638.466025,338.923643 642.354025,327.353643 C646.780025,314.183643 655.176025,301.878643 662.635025,290.194643 C667.942025,281.884643 673.599025,273.704643 680.110025,266.536643 Z M717.555025,252.464643 C723.919025,252.913643 735.661025,253.711643 740.658025,257.269643 C742.392025,258.505643 741.505025,262.317643 739.985025,262.642643 C738.663025,263.128643 713.900025,257.241643 713.702025,257.084643 C706.210025,251.088643 715.377025,253.470643 717.555025,252.464643 Z M675.904025,283.130643 C676.319025,283.399643 671.358025,290.952643 671.280025,291.257643 L670.323025,291.819643 C670.102025,291.437643 675.330025,283.468643 675.904025,283.130643 Z M669.351025,293.419643 C668.783025,295.003643 666.898025,297.304643 666.093025,298.161643 C666.745025,297.519643 668.015025,294.206643 669.351025,293.419643 Z M664.984025,299.329643 C664.951025,303.200643 658.889025,305.987643 659.576025,310.206643 C659.305025,306.255643 663.515025,302.507643 664.984025,299.329643 Z M719.239025,310.038643 C718.709025,313.667643 717.176025,314.329643 715.463025,314.661643 C709.676025,309.614643 702.057025,303.632643 696.438025,296.931643 C692.598025,292.351643 693.291025,292.069643 698.589025,295.212643 C705.685025,299.419643 711.720025,304.478643 719.239025,310.038643 Z M584.102025,365.243643 C583.596025,366.567643 564.025025,365.675643 562.510025,365.284643 C563.992025,365.181643 582.902025,363.638643 584.102025,365.243643 Z M615.095025,374.714643 C614.862025,377.649643 596.523025,380.108643 596.256025,379.847643 C588.518025,381.542643 568.837025,385.401643 568.305025,384.735643 C566.897025,380.821643 567.964025,377.884643 567.742025,375.048643 C572.388025,375.022643 609.939025,375.060643 615.095025,374.714643 Z M645.490025,344.065643 C645.058025,339.829643 647.944025,328.573643 649.510025,327.737643 C648.957025,329.202643 645.011025,343.095643 645.490025,344.065643 Z M644.107025,353.017643 C643.629025,352.085643 644.268025,347.001643 645.113025,345.694643 C644.807025,347.419643 644.478025,351.583643 644.107025,353.017643 Z M634.286025,381.614643 C633.917025,384.913643 634.884025,389.204643 634.205025,393.673643 C628.208025,394.353643 590.209025,391.224643 585.222025,391.220643 C587.792025,392.532643 625.964025,383.589643 634.286025,381.614643 Z M644.184025,356.524643 C643.867025,358.116643 644.232025,361.769643 644.823025,362.151643 C644.629025,361.239643 644.378025,357.437643 644.184025,356.524643 Z M627.057025,404.069643 C628.009025,404.228643 614.634025,405.349643 614.669025,406.772643 C611.016025,406.630643 577.597025,415.075643 572.251025,416.321643 C571.359025,413.632643 572.766025,409.339643 571.317025,405.569643 C586.826025,404.524643 618.228025,402.622643 627.057025,404.069643 Z M571.153025,424.933643 L570.973025,423.753643 L595.457025,423.608643 L571.153025,424.933643 Z M630.229025,412.261643 C630.258025,412.300643 629.956025,420.011643 629.734025,420.632643 C628.115025,421.403643 601.495025,420.864643 600.703025,418.313643 C608.067025,415.757643 622.480025,412.015643 630.229025,412.261643 Z M588.464025,438.636643 C586.117025,437.704643 587.251025,433.954643 585.712025,431.776643 L588.464025,438.636643 Z M596.647025,445.122643 L594.358025,446.470643 C590.069025,441.800643 590.574025,436.108643 589.169025,431.542643 C589.720025,435.864643 592.917025,442.810643 596.647025,445.122643 Z M613.283025,431.481643 C612.273025,438.497643 609.850025,441.386643 601.226025,442.427643 C596.064025,442.384643 594.176025,435.759643 593.536025,431.540643 C596.905025,432.413643 611.289025,429.501643 613.283025,431.481643 Z M588.633025,441.105643 L589.014025,440.882643 L590.586025,443.552643 L590.205025,443.776643 L588.633025,441.105643 Z M582.690025,308.589643 C583.106025,326.181643 584.489025,343.384643 586.839025,360.200643 C587.027025,360.138643 587.213025,360.077643 587.400025,360.015643 C584.455025,342.997643 583.445025,325.980643 584.369025,308.962643 C583.810025,308.839643 583.251025,308.716643 582.690025,308.589643 Z M570.130025,398.755643 C570.458025,399.901643 570.374025,399.294643 570.701025,400.442643 C589.325025,400.388643 607.558025,400.333643 625.630025,400.278643 C607.120025,398.298643 588.915025,398.808643 570.130025,398.755643 Z M621.476025,371.851643 L631.259025,368.935643 L592.837025,371.091643 C602.621025,370.827643 611.695025,371.540643 621.476025,371.851643 Z M557.957025,393.136643 C556.727025,394.796643 556.292025,396.841643 558.339025,397.274643 L557.957025,393.136643 Z M635.066025,410.659643 L634.472025,421.226643 L635.561025,421.030643 L636.154025,409.671643 L635.066025,410.659643 L635.066025,410.659643 Z" id="Fill-2"></path>
            </g>
        </g>
    </g>
</svg>