<?xml version="1.0" encoding="UTF-8"?>
<svg width="144px" height="36px" viewBox="0 0 144 36" version="1.1" xmlns="http://www.w3.org/2000/svg" xmlns:xlink="http://www.w3.org/1999/xlink">
    <!-- Generator: Sketch 49.3 (51167) - http://www.bohemiancoding.com/sketch -->
    <title>WellDoc_logo_pms</title>
    <desc>Created with Sketch.</desc>
    <defs>
        <polygon id="path-1" points="0.0216541353 0.270668185 122.793383 0.270668185 122.793383 35.9786139 0.0216541353 35.9786139"></polygon>
    </defs>
    <g id="Home" stroke="none" stroke-width="1" fill="none" fill-rule="evenodd">
        <g id="sticky-nav_hover" transform="translate(-47.000000, -23.000000)">
            <g id="elements/nav_bar_full-color">
                <g id="WellDoc_logo_pms" transform="translate(47.000000, 23.000000)">
                    <g id="Group-7">
                        <mask id="mask-2" fill="white">
                            <use xlink:href="#path-1"></use>
                        </mask>
                        <g id="Clip-2"></g>
                        <path d="M11.8285714,27.8511683 C11.1147068,28.3922376 9.63320301,29.1735446 8.53678195,29.5599208 C8.45413534,31.8945743 9.17918797,33.8428515 10.6953383,34.9820198 C12.3168722,36.1974653 14.6035489,36.3015446 17.0360301,35.4161584 C19.4569624,34.5336238 21.995188,32.6644752 24.0223759,30.0193663 L24.0223759,30.0165149 C24.3251729,29.6272871 24.7333534,29.0013861 24.8618346,28.8324356 C20.6161805,31.1670891 15.8825865,31.3980594 11.8285714,27.8511683" id="Fill-3" fill="#2DB7C4" mask="url(#mask-2)"></path>
                        <path d="M15.9702857,15.8432079 C16.1987368,15.651802 16.4243008,15.355604 16.176,15.1128713 C15.9962707,14.9353663 15.684812,14.9072079 15.1452632,15.2344158 C13.6605113,16.1308515 13.0011429,16.74 11.7336541,18.0766337 C11.3251128,18.5050693 10.6599699,18.2316832 11.3023759,17.4393267 C13.7233083,14.4531089 16.1929624,13.2323168 18.9596391,13.2127129 C19.6305564,13.2070099 20.016,12.9813861 20.016,12.7076436 C20.016,12.392198 19.6421053,12.0564356 18.5229474,12.1045545 C16.944,12.1804752 15.031218,12.3836436 12.4157594,14.092396 C11.9505564,14.3939406 11.5477895,14.1968317 11.9047218,13.7933465 C13.0437293,12.5133861 16.0702556,11.4982574 18.9369023,11.5431683 C19.2707368,11.5517228 19.5504361,11.4080792 19.5305865,11.1232871 C19.5107368,10.8131881 18.5485714,10.4578218 15.9702857,10.7875248 C14.1459248,11.0188515 11.9819549,11.6985743 10.0976842,13.2886337 C9.68372932,13.638297 9.25533835,13.2155644 9.57798496,12.8940594 C11.5138647,10.9878416 14.5912782,10.1477228 17.2265865,10.243604 C17.5405714,10.2546535 17.8549173,10.1840792 17.7946466,9.84582178 C17.7177744,9.37211881 16.4672481,9.11548515 14.1029774,9.47085149 C11.7849023,9.81481188 9.00703759,11.5378218 7.53383459,12.8516436 C7.12565414,13.2209109 6.75717293,12.7614653 7.11410526,12.3975446 C8.80709774,10.6495842 12.0216541,9.05916832 14.7226466,9.02245545 C15.2051729,9.01140594 15.6050526,8.9490297 15.6335639,8.64748515 C15.6534135,8.38265347 15.3794887,8.30352475 15.1279398,8.24150495 C14.1661353,8.00483168 12.4074586,8.08075248 10.674406,8.73231683 C8.21882707,9.65691089 5.64090226,11.5884356 3.56246617,14.2955644 C1.47825564,17.0023366 0.290526316,19.9714455 0.048,22.5570297 C-0.197774436,25.1483168 0.501654135,27.3250693 2.12354887,28.5401584 L8.75837594,33.5117228 C6.15771429,27.2067327 10.3600602,20.5663366 15.9702857,15.8432079" id="Fill-4" fill="#15233C" mask="url(#mask-2)"></path>
                        <path d="M24.0638797,8.42221782 C24.7802707,7.87794059 26.2563609,7.09663366 27.3585564,6.70740594 C27.441203,4.37845545 26.7132632,2.42732673 25.1971128,1.2910099 C23.5755789,0.0730693069 21.2889023,-0.0313663366 18.8560602,0.854019802 C16.4351278,1.73655446 13.8997895,3.60605941 11.867188,6.25081188 L11.867188,6.25366337 C11.5672782,6.64289109 11.161985,7.26879208 11.0306165,7.43774257 C15.2733835,5.10594059 20.0066165,4.86926733 24.0638797,8.42221782" id="Fill-6" fill="#2DB7C4" mask="url(#mask-2)"></path>
                    </g>
                    <path d="M19.9232481,20.4255446 C19.6922707,20.6226535 19.469594,20.916 19.7178947,21.1612277 C19.8976241,21.3358812 20.2087218,21.3615446 20.7486316,21.0343366 C22.2304962,20.1407525 22.8898647,19.531604 24.1602406,18.1949703 C24.568782,17.7665347 25.2335639,18.0427723 24.5915188,18.8294257 C22.1673383,21.8152871 19.7005714,23.0392871 16.9313684,23.0588911 C16.2604511,23.0617426 15.8778947,23.2930693 15.8778947,23.563604 C15.8778947,23.8794059 16.2517895,24.2151683 17.3709474,24.164198 C18.9470075,24.0939802 20.8597895,23.8851089 23.4777744,22.1763564 C23.9433383,21.8744554 24.3457444,22.0751287 23.9891729,22.4754059 C22.8469173,23.7553663 19.8236391,24.7733465 16.9569925,24.7280792 C16.622797,24.7223762 16.345985,24.8635248 16.3633083,25.1483168 C16.3831579,25.4555644 17.3424361,25.8137822 19.9232481,25.4837228 C21.7450827,25.249901 23.9119398,24.5705347 25.7962105,22.9801188 C26.2101654,22.6333069 26.6385564,23.056396 26.3159098,23.3746931 C24.3800301,25.2837624 21.2993684,26.1210297 18.6673083,26.025505 C18.3504361,26.0165941 18.0422256,26.0846733 18.096,26.4257822 C18.1761203,26.8994851 19.4266466,27.1586139 21.7905564,26.8007525 C24.1089925,26.4567921 26.8868571,24.7341386 28.3571729,23.4199604 C28.7711278,23.0474851 29.1367218,23.5072871 28.7826767,23.8712079 C27.086797,25.6163168 23.8718797,27.2095842 21.1708872,27.2487921 C20.6858346,27.257703 20.2859549,27.3197228 20.263218,27.6212673 C20.237594,27.886099 20.5115188,27.9652277 20.765594,28.0272475 C21.7277594,28.2671287 23.4864361,28.193703 25.2194887,27.5396436 C27.6747068,26.6175446 30.2529925,24.6860198 32.3343158,21.9760396 C34.4127519,19.2692673 35.6062556,16.2973069 35.8458947,13.7117228 C36.0884211,11.1204356 35.3918797,8.9490297 33.7674586,7.73394059 L27.1351579,2.75988119 C29.7361805,9.06487129 25.5309474,15.7024158 19.9232481,20.4255446" id="Fill-8" fill="#15233C"></path>
                    <path d="M142.39615,13.4907327 L141.973534,13.4907327 L141.973534,14.0207525 L142.39615,14.0207525 C142.607639,14.0207525 142.733233,13.9191683 142.733233,13.7555644 C142.733233,13.5837624 142.607639,13.4907327 142.39615,13.4907327 M142.664662,14.2463762 L143.121564,14.8808317 L142.741534,14.8808317 L142.330466,14.2998416 L141.973534,14.2998416 L141.973534,14.8808317 L141.651248,14.8808317 L141.651248,13.2030891 L142.407699,13.2030891 C142.804692,13.2030891 143.061654,13.4034059 143.061654,13.7388119 C143.061654,14.012198 142.901414,14.1786535 142.664662,14.2463762 M142.310617,12.6449109 C141.47982,12.6449109 140.85185,13.2961188 140.85185,14.0913267 C140.85185,14.8893861 141.47982,15.5291881 142.301955,15.5291881 C143.129865,15.5291881 143.755308,14.8808317 143.755308,14.0827723 C143.755308,13.2875644 143.135639,12.6449109 142.310617,12.6449109 M142.301955,15.6899406 C141.391398,15.6899406 140.689083,14.9681584 140.689083,14.0913267 C140.689083,13.2169901 141.399699,12.483802 142.310617,12.483802 C143.218286,12.483802 143.926376,13.2087921 143.926376,14.0827723 C143.926376,14.959604 143.212872,15.6899406 142.301955,15.6899406" id="Fill-9" fill="#15233C"></path>
                    <path d="M53.5708872,15.4835644 L48.8257444,27.9434851 L47.4727218,27.9434851 L41.9711278,12.2129109 L39.9641504,11.3638812 L39.9641504,10.642099 L47.4727218,10.642099 L47.4727218,11.3638812 L45.4628571,12.2129109 L48.0692932,19.8089109 C48.4092632,20.7873267 48.7232481,21.9179406 49.0343459,23.2068119 L53.8051128,10.642099 L55.2126316,10.642099 L58.9154887,21.2496238 L59.1497143,22.0733465 L59.435188,22.8963564 L59.5153083,23.2068119 L63.5036391,12.2129109 L61.4966617,11.3638812 L61.4966617,10.642099 L67.4634586,10.642099 L67.4634586,11.3638812 L65.4308571,12.2129109 L59.2269474,27.9434851 L57.899188,27.9434851 L54.2988271,17.748 C54.0934737,17.1809109 53.8278496,16.357901 53.5708872,15.4835644" id="Fill-10" fill="#15233C"></path>
                    <path d="M72.8820451,19.9643168 C72.830797,17.2322376 72.2313383,16.1522376 70.7180752,16.1522376 C69.1019549,16.1522376 68.2170226,17.6182574 68.2170226,20.4013069 L72.8820451,19.9643168 Z M76.3254135,21.2756436 L68.1913985,21.2756436 C68.1913985,24.4956832 69.9872481,26.3986931 72.9877895,26.3986931 C73.7417143,26.3986931 74.7349173,26.271802 75.9284211,26.0151683 L76.1139248,26.9654257 C74.0040902,27.6875644 72.177203,28.0739406 70.9263158,28.0739406 C67.2519699,28.0739406 64.9050226,25.6797624 64.9050226,21.8929901 C64.9050226,18.0074851 67.5089323,15.1228515 71.0320602,15.1228515 C73.2472782,15.1228515 74.7349173,15.8417822 75.5144662,17.3110099 C76.1139248,18.4191683 76.2709173,19.1915644 76.3254135,21.2756436 Z" id="Fill-11" fill="#15233C"></path>
                    <polyline id="Fill-12" fill="#15233C" points="79.5533233 26.1944554 79.5533233 11.9805149 77.232 11.3631683 77.232 10.6413861 82.685594 9.61485149 82.685594 26.1944554 85.0036692 27.0944554 85.0036692 27.8158812 77.3637293 27.8158812 77.3637293 27.0944554 79.5533233 26.1944554"></polyline>
                    <polyline id="Fill-13" fill="#15233C" points="88.0825263 26.1944554 88.0825263 11.9805149 85.7557895 11.3631683 85.7557895 10.6413861 91.2086617 9.61485149 91.2086617 26.1944554 93.5270977 27.0944554 93.5270977 27.8158812 85.8871579 27.8158812 85.8871579 27.0944554 88.0825263 26.1944554"></polyline>
                    <path d="M100.328662,26.5291485 L101.947669,26.5291485 C103.980632,26.5291485 105.46791,25.9877228 106.507308,24.8795644 C107.81197,23.4613069 108.491549,21.5073267 108.491549,19.1416634 C108.491549,16.8743762 107.834707,14.9403564 106.613053,13.6543366 C105.441925,12.4192871 104.083128,11.9288317 101.765053,11.9288317 L100.328662,11.9288317 L100.328662,26.5291485 Z M96.9401504,26.1933861 L96.9401504,12.2642376 L94.7559699,11.362099 L94.7559699,10.6428119 L102.989594,10.6428119 C105.959098,10.6428119 107.629353,11.1589307 109.247639,12.5208713 C111.072361,14.0688713 111.985805,16.2288713 111.985805,18.9866139 C111.985805,21.7639604 111.072361,24.0308911 109.324872,25.6270099 C107.629353,27.146495 105.516271,27.8148119 102.46412,27.8148119 L94.7559699,27.8148119 L94.7559699,27.0958812 L96.9401504,26.1933861 Z" id="Fill-14" fill="#15233C"></path>
                    <path d="M117.121805,21.3800792 C117.121805,24.8542574 118.317835,26.9155248 120.321925,26.9155248 C122.331789,26.9155248 123.47982,25.0602772 123.47982,21.868396 C123.47982,18.4195248 122.254556,16.2794851 120.273564,16.2794851 C118.289323,16.2794851 117.121805,18.160396 117.121805,21.3800792 M113.626827,21.9161584 C113.626827,17.850297 116.362105,15.1235644 120.433444,15.1235644 C124.393263,15.1235644 126.974436,17.6189703 126.974436,21.4592079 C126.974436,25.4748119 124.236271,28.2011881 120.170707,28.2011881 C116.233624,28.2011881 113.626827,25.6804752 113.626827,21.9161584" id="Fill-15" fill="#15233C"></path>
                    <path d="M139.544301,25.2427723 C138.473865,25.8376634 137.483188,26.3986931 136.45209,26.3986931 C133.157414,26.3986931 132.001083,24.6026139 132.001083,21.3091485 C132.001083,18.3967129 133.671338,16.2620198 135.938165,16.2620198 C135.989774,16.2620198 136.32397,16.2819802 136.58382,16.4509307 C137.063459,16.7724356 137.346045,17.5084752 137.346045,17.5084752 L139.532752,17.5084752 L139.532752,15.7209505 C138.022737,15.3370693 136.900331,15.1538614 135.784421,15.1538614 C131.504481,15.1538614 128.635308,17.8834455 128.635308,21.9774653 C128.635308,25.5838812 131.087639,28.0764356 134.60788,28.0764356 C135.832782,28.0764356 137.263038,27.6904158 138.076872,27.2758812 C138.924992,26.8470891 139.62406,26.3227723 139.62406,26.3227723 L139.544301,25.2427723" id="Fill-16" fill="#15233C"></path>
                </g>
            </g>
        </g>
    </g>
</svg>