<?xml version="1.0" encoding="UTF-8"?>
<svg width="119px" height="26px" viewBox="0 0 119 26" version="1.1" xmlns="http://www.w3.org/2000/svg" xmlns:xlink="http://www.w3.org/1999/xlink">
    <title>brand-assets/logo/blue</title>
    <defs>
        <path d="M37.4581687,31.6089157 C39.800988,31.6089157 41.657012,32.3607229 43.0231084,33.8712289 C44.3826265,35.3782892 45.0673976,37.4156867 45.0673976,39.9768434 C45.0673976,40.9300723 44.6344819,41.4099759 43.7752289,41.4099759 L32.678241,41.4099759 C32.919759,45.1223373 34.7053012,46.9786747 38.0320482,46.9786747 C38.9147952,46.9786747 39.6800723,46.8546265 40.3278795,46.616241 C40.972241,46.3747229 41.657012,46.0658554 42.3718554,45.6796145 C42.4457831,45.6326265 42.643759,45.5320723 42.9660964,45.3741928 C43.2918795,45.2200723 43.5603373,45.1461446 43.7752289,45.1461446 C44.1072771,45.1461446 44.3826265,45.2802169 44.6006506,45.5355181 C44.8155422,45.8005301 44.9233012,46.1397831 44.9233012,46.5423133 C44.9233012,47.2371084 44.4932048,47.8244578 43.6308193,48.3046747 C42.7681205,48.7949157 41.8449639,49.1639277 40.8851566,49.4123373 C39.8915181,49.6776627 38.9382892,49.8151807 38.0320482,49.8151807 C35.2494217,49.8151807 33.0641687,49.0060482 31.4596867,47.3880964 C29.851759,45.7770361 29.0529639,43.5651566 29.0529639,40.7624819 C29.0529639,38.9666024 29.4053735,37.3755904 30.1101928,35.9891325 C30.7749157,34.6499759 31.8120964,33.5253976 33.0976867,32.7566747 C34.4171084,31.9813735 35.9273012,31.5854217 37.4581687,31.6089157 Z M74.829253,24.0682892 C75.3799518,24.0682892 75.8228916,24.2227229 76.155253,24.5347229 L76.155253,24.5413012 C76.494506,24.8401446 76.6620964,25.2595904 76.6620964,25.7933735 L76.6620964,47.9773253 C76.6620964,48.5280241 76.5010843,48.9606265 76.178747,49.269494 C75.8498313,49.5818072 75.4137831,49.7327952 74.8630843,49.7327952 C74.3126988,49.7327952 73.8760241,49.5818072 73.554,49.2763855 C73.218506,48.9305542 73.0402651,48.4606747 73.0706506,47.9773253 L73.0706506,46.540747 C72.5738313,47.5679036 71.7715904,48.4136867 70.7748193,48.9643855 C69.7038072,49.5448434 68.5021687,49.8367952 67.2870602,49.8101687 C65.7831325,49.8101687 64.4342651,49.4273735 63.2492289,48.6620964 C62.0406988,47.8664337 61.0808916,46.7456145 60.4866506,45.426506 C59.8053253,43.9291566 59.4695181,42.301494 59.4999036,40.6531566 C59.4999036,38.8337831 59.8253735,37.2427711 60.4866506,35.8835663 C61.0840241,34.5910843 62.037253,33.4934458 63.2323133,32.7215904 C64.4038795,31.9763614 65.7599518,31.6104819 67.2870602,31.6104819 C68.6096145,31.6104819 69.7576867,31.8889639 70.7579036,32.4531325 C71.7380723,33.0035181 72.5334217,33.8323855 73.0371325,34.8363614 L73.0371325,25.7228916 C73.0371325,25.2160482 73.1981446,24.8166506 73.5204819,24.5181205 C73.8794699,24.2023614 74.3527952,24.0413494 74.829253,24.0682892 Z M87.3540482,31.6095422 C89.0794458,31.6095422 90.5933976,31.982 91.8990361,32.7206506 C93.1977831,33.458988 94.2453012,34.5632048 94.9131566,35.8992289 C95.6480482,37.3997108 96.0104819,39.0543133 95.9772771,40.7226988 C95.9772771,42.5486506 95.6214217,44.1465542 94.9131566,45.5192289 C94.2484337,46.855253 93.1977831,47.9629157 91.8990361,48.701253 C90.5091325,49.4633976 88.9450602,49.8458795 87.3606265,49.8089157 C85.6386747,49.8089157 84.1215904,49.4430361 82.8190843,48.701253 L82.8190843,48.6946747 C81.5168916,47.9594699 80.466241,46.855253 79.7949398,45.5192289 C79.0666265,44.0325301 78.7038795,42.3876386 78.7411566,40.7295904 C78.7411566,38.8832771 79.0966988,37.2787952 79.7949398,35.8992289 C80.466241,34.5632048 81.5168916,33.458988 82.8190843,32.7206506 C84.1215904,31.9788675 85.6320964,31.6095422 87.3540482,31.6095422 Z M106.612217,31.6101687 C107.518458,31.6101687 108.435036,31.7411084 109.35788,32.002988 C110.27759,32.268 111.09988,32.6273012 111.818169,33.0802651 C112.586892,33.6074699 112.963108,34.2183133 112.963108,34.9196867 C112.963108,35.3193976 112.862241,35.6649157 112.644217,35.9336867 C112.432458,36.2087229 112.153976,36.346241 111.818169,36.346241 C111.60359,36.346241 111.385566,36.2892289 111.17412,36.1852289 C110.95547,36.0777831 110.680747,35.9167711 110.348072,35.7053253 C109.818048,35.359494 109.260458,35.0640964 108.68,34.8257108 C108.085759,34.6076867 107.458,34.500241 106.823663,34.5137108 C105.199133,34.5137108 103.937036,35.0640964 103.033928,36.171759 C102.144602,37.2728434 101.691325,38.7999518 101.691325,40.7637349 C101.691325,42.7306506 102.131446,44.2377108 103.023904,45.3018313 C103.906964,46.3690843 105.165614,46.9028675 106.790145,46.9028675 C107.508747,46.9028675 108.139325,46.7954217 108.690024,46.5805301 C109.243855,46.3659518 109.804578,46.0771325 110.38159,45.7181446 C110.64347,45.550241 110.908795,45.4092771 111.17412,45.2883614 C111.435687,45.1674458 111.674072,45.1138795 111.888964,45.1138795 C112.224458,45.1138795 112.499807,45.2448193 112.717831,45.5201687 C112.929277,45.7952048 113.040169,46.1375904 113.040169,46.5404337 C113.040169,46.8793735 112.946193,47.1847952 112.768265,47.4601446 C112.590337,47.7351807 112.288048,48.0174217 111.852,48.3059277 C111.079831,48.8096386 110.230602,49.1855422 109.341277,49.4204819 C108.394627,49.6789157 107.414458,49.8095422 106.434289,49.8095422 C104.735831,49.8095422 103.241928,49.4439759 101.960096,48.7021928 L101.960096,48.6953012 C100.681084,47.9535181 99.6439036,46.8558795 98.9791807,45.5367711 C98.2508675,44.0663614 97.8884337,42.4418313 97.9219518,40.797253 C97.9219518,38.9813253 98.2912771,37.3768434 99.0161446,35.9906988 C99.707494,34.6412048 100.771928,33.5200723 102.08759,32.758241 C103.406699,31.9926506 104.913759,31.6101687 106.612217,31.6101687 Z M48.9075663,24.0664096 C49.4313253,24.0664096 49.8607952,24.2177108 50.2000482,24.516241 C50.5358554,24.8150843 50.7,25.2514458 50.7,25.8253253 L50.7,48.0127229 C50.7,48.5866024 50.5358554,49.0229639 50.2000482,49.3117831 C49.8607952,49.5968434 49.4313253,49.7346747 48.9075663,49.7346747 C48.3806747,49.7346747 47.9443133,49.5968434 47.5987952,49.3117831 C47.2529639,49.0229639 47.0781687,48.5866024 47.0781687,48.0127229 L47.0781687,25.8253253 C47.0781687,25.2514458 47.2495181,24.8150843 47.5953494,24.516241 C47.9443133,24.2177108 48.3806747,24.0664096 48.9075663,24.0664096 Z M55.6227711,24.0664096 C56.1462169,24.0664096 56.576,24.2177108 56.9149398,24.516241 C57.2504337,24.8150843 57.4148916,25.2514458 57.4148916,25.8253253 L57.4148916,48.0127229 C57.4148916,48.5866024 57.2504337,49.0229639 56.9149398,49.3117831 C56.576,49.5968434 56.1462169,49.7346747 55.6227711,49.7346747 C55.0955663,49.7346747 54.6595181,49.5968434 54.3133735,49.3117831 C53.9678554,49.0229639 53.7899277,48.5866024 53.7899277,48.0127229 L53.7899277,25.8253253 C53.7899277,25.2514458 53.9644096,24.8150843 54.3067952,24.516241 C54.6595181,24.2177108 55.0955663,24.0664096 55.6227711,24.0664096 Z M15.5636627,32.0039277 C15.8725301,32.1953253 16.0974458,32.4838313 16.2418554,32.8666265 L20.9848193,44.9303133 L25.6134458,32.789253 C25.8787711,32.0775422 26.365253,31.7185542 27.0835422,31.7185542 C27.5433976,31.7185542 27.946241,31.872988 28.3086747,32.1853012 C28.6645301,32.4907229 28.8459036,32.8797831 28.8459036,33.3299277 C28.8459036,33.5748916 28.7954699,33.7894699 28.701494,33.9808675 L22.7434217,48.5183133 C22.6127952,48.8841928 22.357494,49.1999518 22.0251325,49.404506 C21.3506988,49.8107952 20.5080482,49.8107952 19.836747,49.404506 C19.4978072,49.196506 19.2594217,48.9011084 19.1184578,48.5252048 L14.4491084,36.9953012 L9.88783133,48.5252048 C9.76033735,48.8841928 9.51506024,49.196506 9.18645783,49.404506 C8.51139759,49.8039036 7.67250602,49.8039036 7.00089157,49.404506 C6.65192771,49.1999518 6.3800241,48.8910843 6.22559036,48.5252048 L0.301036145,33.9808675 C-0.000939759035,33.3496627 0.187012048,32.5981687 0.751180723,32.1853012 C1.12050602,31.883012 1.58349398,31.7185542 2.06026506,31.7185542 C2.77855422,31.7185542 3.26503614,32.0643855 3.53693976,32.7591807 L8.16587952,45.0007952 L12.9019518,32.8666265 C13.0463614,32.4838313 13.2778554,32.1953253 13.5864096,32.0039277 C14.190988,31.6211325 14.9593976,31.6211325 15.5636627,32.0039277 Z M87.3540482,34.5162169 C85.776506,34.5162169 84.5579518,35.05 83.695253,36.117253 C82.836,37.1813735 82.4030843,38.7222651 82.4030843,40.7295904 C82.4030843,42.7635422 82.8291084,44.3075663 83.6783373,45.3582169 C84.531012,46.4154458 85.7526988,46.9392048 87.3540482,46.9392048 C88.9619759,46.9392048 90.1871084,46.4154458 91.0363373,45.3582169 L91.0363373,45.3647952 C91.8855663,44.3075663 92.3119036,42.7635422 92.3119036,40.7295904 C92.3119036,38.7222651 91.8786747,37.1813735 91.0194217,36.117253 C90.1567229,35.05 88.9350361,34.5162169 87.3540482,34.5162169 Z M68.149759,34.5140241 C66.5687711,34.5140241 65.3470843,35.047494 64.4743614,36.1116145 C63.594747,37.1791807 63.1583855,38.6962651 63.1583855,40.6531566 C63.1583855,42.6166265 63.6047711,44.1575181 64.4909639,45.2651807 C65.3740241,46.3797349 66.5922651,46.9335663 68.149759,46.9335663 C69.7038072,46.9335663 70.9189157,46.3963373 71.7781687,45.3256386 C72.6408675,44.2449157 73.0706506,42.717494 73.0706506,40.7302169 C73.0706506,38.743253 72.6474458,37.209253 71.7950843,36.1354217 C70.9458554,35.0543855 69.7273012,34.5140241 68.149759,34.5140241 Z M37.5248916,34.2671807 C36.1418795,34.2671807 35.0279518,34.7104337 34.188747,35.5897349 L34.188747,35.5931807 C33.3492289,36.4793735 32.8524096,37.7214217 32.678241,39.3259036 L41.9423855,39.3259036 C41.8753494,37.704506 41.4590361,36.4524337 40.7072289,35.5762651 C39.9485301,34.7035422 38.8913012,34.2671807 37.5248916,34.2671807 Z M116.645398,30.0699036 C117.350217,30.063012 118.008048,30.4357831 118.363904,31.0466265 L118.357012,31.0397349 C118.531494,31.3385783 118.622337,31.6743855 118.622337,32.0468434 C118.628916,32.7551084 118.256458,33.409494 117.645614,33.7687952 C117.346771,33.9401446 117.01441,34.0272289 116.645398,34.0272289 C115.940578,34.0341205 115.282434,33.6613494 114.923133,33.050506 C114.752096,32.7516627 114.664699,32.4193012 114.664699,32.0468434 C114.644651,31.3385783 115.020554,30.6773012 115.641422,30.3349157 C115.940578,30.1604337 116.272627,30.0699036 116.645398,30.0699036 Z M116.645398,30.3753253 C116.349687,30.3684337 116.054602,30.4423614 115.796169,30.5899036 C115.544313,30.7412048 115.34947,30.9391807 115.20506,31.1944819 C115.060964,31.4560482 114.987036,31.7483133 114.990169,32.0468434 C114.990169,32.3622892 115.060964,32.6445301 115.20506,32.9029639 C115.34947,33.1613976 115.544313,33.3593735 115.796169,33.5037831 C116.047711,33.6478795 116.329639,33.7218072 116.645398,33.7218072 C116.957398,33.7218072 117.242771,33.6478795 117.491181,33.5037831 L117.494313,33.5037831 C117.742723,33.3593735 117.937566,33.1613976 118.081663,32.9029639 C118.226072,32.6445301 118.293108,32.3622892 118.293108,32.0402651 C118.293108,31.7279518 118.226072,31.4460241 118.081663,31.1944819 C117.937566,30.9391807 117.742723,30.7343133 117.491181,30.5899036 C117.232747,30.4458072 116.940482,30.3718795 116.645398,30.3753253 Z M116.799518,30.8787229 C117.078,30.8787229 117.282867,30.9391807 117.433855,31.0701205 C117.581711,31.1944819 117.65188,31.3755422 117.65188,31.597012 C117.65188,31.771494 117.605205,31.926241 117.507783,32.0468434 C117.413807,32.1643133 117.276289,32.2448193 117.10494,32.2852289 C117.16853,32.3052771 117.232747,32.3322169 117.282867,32.3691807 C117.343325,32.4061446 117.393759,32.4666024 117.450771,32.5370843 L117.645614,32.8121205 C117.692289,32.8725783 117.716096,32.9295904 117.716096,32.9866024 C117.716096,33.0639759 117.678819,33.1175422 117.618675,33.1714217 C117.554771,33.2184096 117.481157,33.2384578 117.40347,33.2384578 C117.296337,33.2419036 117.198916,33.1914699 117.138771,33.1009398 L116.698651,32.4697349 C116.675157,32.4293253 116.645398,32.3926747 116.611566,32.3691807 C116.574602,32.3456867 116.534506,32.3356627 116.490651,32.3387952 L116.343108,32.3387952 L116.343108,32.9295904 C116.343108,33.027012 116.312723,33.1009398 116.262602,33.1613976 C116.205277,33.2184096 116.128217,33.2384578 116.044578,33.2384578 C115.956867,33.2450361 115.876361,33.2184096 115.812458,33.1613976 C115.762337,33.1009398 115.735398,33.027012 115.735398,32.9295904 L115.735398,31.1675422 C115.735398,31.077012 115.755759,30.9996386 115.806193,30.9557831 C115.852867,30.9022169 115.923663,30.8787229 116.014193,30.8787229 L116.799518,30.8787229 Z M116.719012,31.3454699 L116.336217,31.3454699 L116.336217,31.8889639 L116.715566,31.8889639 C116.84306,31.8889639 116.93359,31.8657831 116.984337,31.8253735 C117.044482,31.7884096 117.06453,31.7113494 117.06453,31.620506 C117.06453,31.516506 117.037904,31.4460241 116.984337,31.3990361 C116.927012,31.3620723 116.84306,31.3454699 116.719012,31.3454699 Z" id="path-1"></path>
    </defs>
    <g id="Symbols" stroke="none" stroke-width="1" fill="none" fill-rule="evenodd">
        <g id="elements/nav" transform="translate(-97.000000, -28.000000)">
            <g id="brand-assets/logo/blue" transform="translate(97.000000, 4.000000)">
                <mask id="mask-2" fill="white">
                    <use xlink:href="#path-1"></use>
                </mask>
                <use id="Combined-Shape" fill="#0B78E3" fill-rule="evenodd" xlink:href="#path-1"></use>
                <rect id="Rectangle" fill="#1579D9" fill-rule="evenodd" mask="url(#mask-2)" x="0" y="24" width="119" height="26"></rect>
            </g>
        </g>
    </g>
</svg>