<?xml version="1.0" encoding="UTF-8"?>
<svg width="21px" height="22px" viewBox="0 0 21 22" version="1.1" xmlns="http://www.w3.org/2000/svg" xmlns:xlink="http://www.w3.org/1999/xlink">
    <title>u</title>
    <g id="Symbols" stroke="none" stroke-width="1" fill="none" fill-rule="evenodd">
        <g id="elements/login" transform="translate(0.000000, 1.000000)" fill="#1579D9">
            <g id="Group-9" transform="translate(0.000000, -1.000000)">
                <path d="M10.4249758,21.2968695 C16.044103,21.2968695 20.5968265,16.744146 20.5968265,11.1250188 C20.5968265,5.50589155 16.044103,0.953168027 10.4249758,0.953168027 C4.80584852,0.953168027 0.253125004,5.50589155 0.253125004,11.1250188 C0.253125004,16.744146 4.80584852,21.2968695 10.4249758,21.2968695 Z M10.4249758,12.1093914 C8.43163715,12.1093914 6.81560936,10.4933636 6.81560936,8.50002503 C6.81560936,6.50668643 8.43163715,4.89065864 10.4249758,4.89065864 C12.4183144,4.89065864 14.0343421,6.50668643 14.0343421,8.50002503 C14.0343421,10.4933636 12.4183144,12.1093914 10.4249758,12.1093914 Z M10.4249758,19 C8.01735629,19 5.85995559,17.909003 4.41620102,16.202733 C5.18728492,14.7508074 6.69664831,13.7500125 8.45623045,13.7500125 C8.55468373,13.7500125 8.65309697,13.7664347 8.74742467,13.7951136 C9.28062652,13.9673868 9.83846172,14.0781367 10.4249758,14.0781367 C11.0114898,14.0781367 11.5734105,13.9673868 12.1025268,13.7951136 C12.1968545,13.7664347 12.2952678,13.7500125 12.3937211,13.7500125 C14.1533032,13.7500125 15.6626666,14.7508074 16.4337505,16.202733 C14.9899959,17.909003 12.8325952,19 10.4249758,19 Z" id="u"></path>
            </g>
        </g>
    </g>
</svg>